<?xml version="1.0" encoding="UTF-8" standalone="no"?>
<!-- Created with Inkscape (http://www.inkscape.org/) -->

<svg
   width="210mm"
   height="210mm"
   viewBox="0 0 210 210"
   version="1.1"
   id="svg5674"
   inkscape:version="1.2.1 (9c6d41e410, 2022-07-14)"
   sodipodi:docname="abyssinia.svg"
   xmlns:inkscape="http://www.inkscape.org/namespaces/inkscape"
   xmlns:sodipodi="http://sodipodi.sourceforge.net/DTD/sodipodi-0.dtd"
   xmlns="http://www.w3.org/2000/svg"
   xmlns:svg="http://www.w3.org/2000/svg">
  <sodipodi:namedview
     id="namedview5676"
     pagecolor="#ffffff"
     bordercolor="#000000"
     borderopacity="0.25"
     inkscape:showpageshadow="2"
     inkscape:pageopacity="0.0"
     inkscape:pagecheckerboard="0"
     inkscape:deskcolor="#d1d1d1"
     inkscape:document-units="mm"
     showgrid="false"
     inkscape:zoom="0.49085999"
     inkscape:cx="349.3868"
     inkscape:cy="301.51164"
     inkscape:window-width="1366"
     inkscape:window-height="705"
     inkscape:window-x="-8"
     inkscape:window-y="-8"
     inkscape:window-maximized="1"
     inkscape:current-layer="layer1" />
  <defs
     id="defs5671" />
  <g
     inkscape:label="Layer 1"
     inkscape:groupmode="layer"
     id="layer1">
    <g
       id="g5993"
       transform="matrix(1.0968133,0,0,1.0968133,-16.539592,-9.7928188)">
      <path
         d="m 120.71056,127.02182 c 0,0 19.33876,17.08858 29.11983,19.0082 3.13709,5.41496 -4.74853,15.97849 -4.74853,15.97849 0,0 -4.90321,-1.6407 -6.79598,2.57834 -1.94701,4.33972 -0.23413,5.29167 8.67094,4.77456 8.90455,-0.51877 14.56034,-23.68055 13.66937,-26.94558 -0.89162,-3.26508 -5.64923,-6.39915 -6.63911,-7.52876 -5.39008,-6.1556 -1.91443,-10.38581 -4.2111,-20.84441 -2.29684,-10.45603 -36.56458,-1.85211 -29.06542,12.97916"
         style="fill:#b37d45;fill-opacity:1;fill-rule:nonzero;stroke:none;stroke-width:0.167947"
         id="path438" />
      <path
         d="m 46.47933,126.85586 c 2.006127,3.92105 -0.253936,5.79415 -3.460712,9.81765 -2.637272,3.30907 -7.911817,6.54526 -6.376028,12.32113 1.535121,5.77517 3.104416,11.93532 7.531331,9.62471 4.427758,-2.30926 0.249413,-9.61361 0,-11.74303 -0.248556,-2.12956 16.852478,-8.65262 18.440078,-20.30782 0.31035,-2.27585 -20.278257,-15.91179 -20.278257,-15.91179 0,0 -2.305912,3.588 4.143588,16.19915"
         style="fill:#b37d45;fill-opacity:1;fill-rule:nonzero;stroke:none;stroke-width:0.167947"
         id="path440" />
      <path
         d="m 47.743468,95.729904 c 0,0 -3.252627,6.553106 -5.303428,13.732866 -1.333669,4.6711 8.514745,11.6592 13.562389,15.72017 10.592421,8.52332 13.910045,3.9533 28.763617,3.01647 14.8534,-0.93747 25.164504,-1.30881 32.663674,0.75039 4.41784,1.21445 14.99448,2.90703 23.34127,-1.23136 5.82172,-2.88518 11.07544,-10.86601 8.29171,-20.04079 C 145.26963,95.175519 136.64589,92.548659 120.12477,90.469613 114.38635,89.747271 96.907934,87.241856 88.839938,89.766457 77.176184,93.41725 70.747002,91.876876 66.59485,89.742652 59.247167,85.969081 47.743468,95.728474 47.743468,95.728474"
         style="fill:#c69759;fill-opacity:1;fill-rule:nonzero;stroke:none;stroke-width:0.167947"
         id="path442" />
      <path
         d="m 45.38969,85.679965 c 0,0 -1.546957,22.016155 13.613449,19.031765 C 74.180007,101.7241 69.322643,85.285635 69.322643,85.285635 L 45.38969,85.679822"
         style="fill:#d8b384;fill-opacity:1;fill-rule:nonzero;stroke:none;stroke-width:0.167947"
         id="path444" />
      <path
         d="m 61.42208,53.561931 c 0,0 10.763554,-9.84318 13.818178,-12.654946 3.054452,-2.813147 9.975048,-5.542268 9.502776,4.962984 C 84.269915,56.373221 77.078437,73.3377 77.078437,73.3377 L 61.42208,53.561931"
         style="fill:#b37d45;fill-opacity:1;fill-rule:nonzero;stroke:none;stroke-width:0.167947"
         id="path446" />
      <path
         d="m 51.304449,53.561931 c 0,0 -10.763725,-9.84318 -13.818177,-12.654946 -3.054534,-2.813147 -9.975144,-5.542268 -9.502791,4.962984 0.473023,10.503252 7.879081,27.85887 7.879081,27.85887 L 51.304449,53.561931"
         style="fill:#b37d45;fill-opacity:1;fill-rule:nonzero;stroke:none;stroke-width:0.167947"
         id="path448" />
      <path
         d="m 30.723113,41.600428 c -0.888924,1.600692 -1.405903,5.046964 0.703279,11.843438 2.109177,6.795285 4.627732,15.221538 5.594735,16.749533 C 37.988149,71.72187 53.35525,58.887015 50.440529,55.491492 47.525642,52.095777 33.066511,37.383255 30.723113,41.600428"
         style="fill:#eaaba5;fill-opacity:1;fill-rule:nonzero;stroke:none;stroke-width:0.167947"
         id="path450" />
      <path
         d="m 82.217948,41.600428 c 0.888276,1.600692 1.405888,5.046964 -0.70336,11.843438 -2.109078,6.795285 -4.627613,15.221538 -5.59465,16.749533 C 74.952897,71.72187 59.585749,58.887015 62.499798,55.491492 65.414687,52.095777 79.873916,37.383255 82.217948,41.600428"
         style="fill:#eaaba5;fill-opacity:1;fill-rule:nonzero;stroke:none;stroke-width:0.167947"
         id="path452" />
      <path
         d="m 77.176184,71.288217 c 0,8.689949 -6.094634,15.092428 -13.375304,18.390215 -2.557998,1.159325 -4.373172,2.870227 -7.349697,2.870227 -3.235664,0 -5.306117,-2.127558 -8.035257,-3.484216 -6.923276,-3.443606 -12.689819,-9.353161 -12.689819,-17.776226 0,-11.74251 9.279152,-21.261583 20.725076,-21.261583 11.445924,0 20.725001,9.519073 20.725001,21.261583"
         style="fill:#c69759;fill-opacity:1;fill-rule:nonzero;stroke:none;stroke-width:0.167947"
         id="path454" />
      <path
         d="m 52.575976,75.29611 c 0,0 -6.516512,1.489196 -11.458521,-1.95841 -3.656777,-2.553308 -2.250827,-3.781998 0.38576,-3.018333 -2.109244,-5.854665 3.565013,-7.267069 5.040426,-7.501868 -1.05689,-1.288484 -1.475413,-3.280171 0.650794,-2.294182 1.4865,0.690112 2.126882,1.491243 3.096442,2.235055 -0.351674,-4.510861 1.945832,-2.78087 2.635925,-0.468454 1.768148,5.916934 -0.350864,13.006144 -0.350864,13.006144"
         style="fill:#d8b384;fill-opacity:1;fill-rule:nonzero;stroke:none;stroke-width:0.167947"
         id="path456" />
      <path
         d="m 60.997512,75.29611 c 0,0 6.516511,1.489196 11.458521,-1.95841 3.656709,-2.553308 2.250822,-3.781998 -0.385761,-3.018333 2.109078,-5.854665 -3.565013,-7.267069 -5.040427,-7.501868 1.056891,-1.288484 1.475414,-3.280171 -0.651464,-2.294182 -1.48583,0.690112 -2.126211,1.491243 -3.095771,2.235055 0.351531,-4.510861 -1.945832,-2.78087 -2.636767,-0.468454 -1.767306,5.916934 0.351673,13.006144 0.351673,13.006144"
         style="fill:#d8b384;fill-opacity:1;fill-rule:nonzero;stroke:none;stroke-width:0.167947"
         id="path458" />
      <path
         d="m 52.016374,69.22769 c 0,2.269142 -1.840192,4.11001 -4.110167,4.11001 -2.269969,0 -4.110167,-1.840868 -4.110167,-4.11001 0,-2.270617 1.840198,-4.111485 4.110167,-4.111485 2.269975,0 4.110167,1.840868 4.110167,4.111485"
         style="fill:#948231;fill-opacity:1;fill-rule:nonzero;stroke:none;stroke-width:0.167947"
         id="path460" />
      <path
         d="m 45.780001,69.22769 c 0,1.530519 0.951921,2.769777 2.126206,2.769777 1.174289,0 2.126211,-1.239258 2.126211,-2.769777 0,-1.531185 -0.951922,-2.77111 -2.126211,-2.77111 -1.174285,0 -2.126206,1.239925 -2.126206,2.77111"
         style="fill:#343434;fill-opacity:1;fill-rule:nonzero;stroke:none;stroke-width:0.167947"
         id="path462" />
      <path
         d="m 50.032418,67.520026 c 0,0.585805 -0.475642,1.062732 -1.06277,1.062732 -0.587142,0 -1.063441,-0.476927 -1.063441,-1.062732 0,-0.587852 0.476299,-1.063446 1.063441,-1.063446 0.587143,0 1.06277,0.475594 1.06277,1.063446"
         style="fill:#ffffff;fill-opacity:1;fill-rule:nonzero;stroke:none;stroke-width:0.167947"
         id="path464" />
      <path
         d="m 69.642248,69.22769 c 0,2.269142 -1.840198,4.11001 -4.110168,4.11001 -2.269803,0 -4.11,-1.840868 -4.11,-4.11001 0,-2.270617 1.840197,-4.111485 4.11,-4.111485 2.26997,0 4.110168,1.840868 4.110168,4.111485"
         style="fill:#948231;fill-opacity:1;fill-rule:nonzero;stroke:none;stroke-width:0.167947"
         id="path466" />
      <path
         d="m 63.40587,69.22769 c 0,1.530519 0.951926,2.769777 2.12621,2.769777 1.174285,0 2.126207,-1.239258 2.126207,-2.769777 0,-1.531185 -0.951922,-2.77111 -2.126207,-2.77111 -1.174284,0 -2.12621,1.239925 -2.12621,2.77111"
         style="fill:#343434;fill-opacity:1;fill-rule:nonzero;stroke:none;stroke-width:0.167947"
         id="path468" />
      <path
         d="m 67.658287,67.520026 c 0,0.585805 -0.476295,1.062732 -1.063437,1.062732 -0.587146,0 -1.06277,-0.476927 -1.06277,-1.062732 0,-0.587852 0.475642,-1.063446 1.06277,-1.063446 0.587142,0 1.063437,0.475594 1.063437,1.063446"
         style="fill:#ffffff;fill-opacity:1;fill-rule:nonzero;stroke:none;stroke-width:0.167947"
         id="path470" />
      <path
         d="m 57.385305,82.470489 c 0,2.623481 -2.126877,4.749896 -4.750382,4.749896 -2.623499,0 -4.750377,-2.126415 -4.750377,-4.749896 0,-2.62348 2.126878,-4.751039 4.750377,-4.751039 2.623505,0 4.750382,2.127559 4.750382,4.751039"
         style="fill:#ffffff;fill-opacity:1;fill-rule:nonzero;stroke:none;stroke-width:0.167947"
         id="path472" />
      <path
         d="m 65.311731,82.470489 c 0,2.623481 -2.126877,4.749896 -4.750381,4.749896 -2.623666,0 -4.750548,-2.126415 -4.750548,-4.749896 0,-2.62348 2.126882,-4.751039 4.750548,-4.751039 2.623504,0 4.750381,2.127559 4.750381,4.751039"
         style="fill:#ffffff;fill-opacity:1;fill-rule:nonzero;stroke:none;stroke-width:0.167947"
         id="path474" />
      <path
         d="m 55.446023,79.397075 c 0,0 0.891631,1.933226 0.747363,4.173613 -0.119399,1.851961 -0.989374,2.891888 -0.989374,2.891888 0,0 0.394329,0.975469 1.391439,0.975469 0.835199,0 1.39211,-0.975469 1.39211,-0.975469 0,0 -0.91581,-1.85077 -0.91581,-3.023046 0,-1.7129 0.483515,-4.042455 0.483515,-4.042455 h -2.109243"
         style="fill:#b37d45;fill-opacity:1;fill-rule:nonzero;stroke:none;stroke-width:0.167947"
         id="path476" />
      <path
         d="m 59.709693,77.845371 c -0.360099,-1.802068 -3.114242,-1.531803 -3.114242,-1.531803 0,0 -2.753324,-0.270408 -3.114241,1.531803 -0.21447,1.074729 3.114241,2.725979 3.114241,2.725979 0,0 3.329384,-1.65125 3.114242,-2.725979"
         style="fill:#eaaba5;fill-opacity:1;fill-rule:nonzero;stroke:none;stroke-width:0.167947"
         id="path478" />
      <path
         d="m 50.823619,81.462791 c 0,0.218517 -0.177194,0.395138 -0.39552,0.395138 -0.218516,0 -0.395662,-0.176621 -0.395662,-0.395138 0,-0.218515 0.177193,-0.39609 0.395662,-0.39609 0.218326,0 0.39552,0.17805 0.39552,0.39609"
         style="fill:#b37d45;fill-opacity:1;fill-rule:nonzero;stroke:none;stroke-width:0.167947"
         id="path480" />
      <path
         d="m 50.428099,84.494407 c 0,0.218516 -0.177194,0.394186 -0.395662,0.394186 -0.218517,0 -0.395519,-0.17567 -0.395519,-0.394186 0,-0.218517 0.177002,-0.396091 0.395519,-0.396091 0.218516,0 0.395662,0.177574 0.395662,0.396091"
         style="fill:#b37d45;fill-opacity:1;fill-rule:nonzero;stroke:none;stroke-width:0.167947"
         id="path482" />
      <path
         d="m 52.239408,83.021684 c 0,0.217564 -0.176527,0.396089 -0.395662,0.396089 -0.217802,0 -0.394852,-0.178525 -0.394852,-0.396089 0,-0.218517 0.177002,-0.395138 0.394852,-0.395138 0.219183,0 0.395662,0.176621 0.395662,0.395138"
         style="fill:#b37d45;fill-opacity:1;fill-rule:nonzero;stroke:none;stroke-width:0.167947"
         id="path484" />
      <path
         d="m 53.866983,82.074304 c 0,0.218516 -0.177194,0.396091 -0.395519,0.396091 -0.21785,0 -0.395662,-0.177575 -0.395662,-0.396091 0,-0.218516 0.17786,-0.395138 0.395662,-0.395138 0.218325,0 0.395519,0.176622 0.395519,0.395138"
         style="fill:#b37d45;fill-opacity:1;fill-rule:nonzero;stroke:none;stroke-width:0.167947"
         id="path486" />
      <path
         d="m 61.817595,83.703226 c 0,0.218516 -0.177193,0.395138 -0.39552,0.395138 -0.218516,0 -0.395662,-0.176622 -0.395662,-0.395138 0,-0.218517 0.177194,-0.396091 0.395662,-0.396091 0.218327,0 0.39552,0.177574 0.39552,0.396091"
         style="fill:#b37d45;fill-opacity:1;fill-rule:nonzero;stroke:none;stroke-width:0.167947"
         id="path488" />
      <path
         d="m 63.40587,81.857835 c 0,0.217564 -0.177194,0.39609 -0.395519,0.39609 -0.218517,0 -0.395662,-0.178526 -0.395662,-0.39609 0,-0.218517 0.177193,-0.395139 0.395662,-0.395139 0.218325,0 0.395519,0.176622 0.395519,0.395139"
         style="fill:#b37d45;fill-opacity:1;fill-rule:nonzero;stroke:none;stroke-width:0.167947"
         id="path490" />
      <path
         d="m 63.80088,84.494407 c 0,0.218516 -0.176528,0.394186 -0.394996,0.394186 -0.218517,0 -0.395519,-0.17567 -0.395519,-0.394186 0,-0.218517 0.177002,-0.396091 0.395519,-0.396091 0.218516,0 0.394996,0.177574 0.394996,0.396091"
         style="fill:#b37d45;fill-opacity:1;fill-rule:nonzero;stroke:none;stroke-width:0.167947"
         id="path492" />
      <path
         d="m 59.7196,82.470489 c 0,0.218517 -0.177192,0.395138 -0.395661,0.395138 -0.218326,0 -0.394853,-0.176621 -0.394853,-0.395138 0,-0.218516 0.176527,-0.39609 0.394853,-0.39609 0.218516,0 0.395661,0.17805 0.395661,0.39609"
         style="fill:#b37d45;fill-opacity:1;fill-rule:nonzero;stroke:none;stroke-width:0.167947"
         id="path494" />
      <path
         d="m 54.420034,84.062802 c 0.01951,0.216612 -0.140393,0.409421 -0.357576,0.429415 -0.21785,0.01905 -0.409945,-0.140917 -0.429607,-0.357529 -0.02047,-0.218516 0.140394,-0.409896 0.357577,-0.429415 0.217659,-0.01905 0.409944,0.139013 0.429606,0.357529"
         style="fill:#b37d45;fill-opacity:1;fill-rule:nonzero;stroke:none;stroke-width:0.167947"
         id="path496" />
      <path
         d="m 60.338149,85.285635 c 0,0.218041 -0.177002,0.394187 -0.395519,0.394187 -0.218516,0 -0.395662,-0.176623 -0.395662,-0.394187 0,-0.218516 0.177194,-0.397042 0.395662,-0.397042 0.218517,0 0.395519,0.178526 0.395519,0.397042"
         style="fill:#b37d45;fill-opacity:1;fill-rule:nonzero;stroke:none;stroke-width:0.167947"
         id="path498" />
      <path
         d="m 50.032418,51.067752 c 0,0 -0.327345,0.413229 -0.766845,2.873417 -0.505858,2.833428 1.232732,2.666804 2.578154,1.64268 2.196412,-1.67091 1.343575,5.359362 3.967075,5.359362 2.623499,0 2.586889,-4.842253 3.736152,-5.359362 1.1501,-0.518773 3.246752,2.383494 3.281009,-1.319904 0.02428,-2.636572 -0.893645,-3.48355 -0.893645,-3.48355 0,0 -2.123521,-0.753761 -5.483135,-0.753761 -2.278535,0 -4.819236,0.525534 -6.418765,1.041118"
         style="fill:#b37d45;fill-opacity:1;fill-rule:nonzero;stroke:none;stroke-width:0.167947"
         id="path500" />
      <path
         d="m 60.920088,120.8746 c 0,0 6.095299,9.84404 5.369768,17.57614 -0.726203,7.73394 -2.79934,15.46609 -4.750381,19.33426 -1.951712,3.86598 -1.951712,3.86598 -1.951712,3.86598 0,0 -5.554846,-3.51498 -8.577221,2.46022 -3.022374,5.97588 6.504082,5.43982 10.528933,5.00484 4.024178,-0.43465 12.59401,-14.50695 14.108223,-23.28217 1.514042,-8.77726 7.743868,-18.27933 7.743868,-18.27933 0,0 -8.835526,-13.35721 -22.471478,-6.67994"
         style="fill:#c69759;fill-opacity:1;fill-rule:nonzero;stroke:none;stroke-width:0.167947"
         id="path502" />
      <path
         d="m 112.27391,114.04266 c 0,0 -12.276584,10.00328 -4.02888,19.37625 8.24721,9.37277 15.8028,15.92469 15.8028,15.92469 0,0 -4.49576,11.29449 -6.85239,13.83737 -3.28942,0.45512 -8.75425,-1.52347 -10.78002,3.51492 -2.02595,5.03845 6.06306,4.21717 10.5459,4.21717 4.61065,0 20.62204,-24.88304 20.62204,-24.88304 0,0 -6.95938,-14.10097 -2.34403,-17.13191 4.61585,-3.0303 9.87864,-5.49896 9.84253,-14.85545 -0.0362,-9.35464 -27.0047,-7.57404 -32.80795,0"
         style="fill:#c69759;fill-opacity:1;fill-rule:nonzero;stroke:none;stroke-width:0.167947"
         id="path504" />
      <path
         d="m 141.58907,96.529511 c 0,0 13.90819,7.245409 19.12898,16.033709 5.22014,8.78698 9.75202,28.82326 15.0437,35.50251 5.29167,6.67908 8.78835,9.26528 14.06121,11.57118 5.27186,2.30608 5.29033,6.70797 -1.03607,4.94994 -6.32759,-1.75689 -15.77192,-5.27205 -21.41913,-16.52112 -5.64722,-11.24925 -7.58062,-21.26695 -13.38068,-27.41736 -2.95553,-3.13591 -12.39801,-5.62505 -12.39801,-5.62505 V 96.529511"
         style="fill:#c69759;fill-opacity:1;fill-rule:nonzero;stroke:none;stroke-width:0.167947"
         id="path506" />
    </g>
  </g>
</svg>
