<?xml version="1.0" encoding="UTF-8" standalone="no"?>
<!-- Created with Inkscape (http://www.inkscape.org/) -->

<svg
   width="210mm"
   height="180mm"
   viewBox="0 0 210 180"
   version="1.1"
   id="svg5674"
   inkscape:version="1.2.1 (9c6d41e410, 2022-07-14)"
   sodipodi:docname="american-curl.svg"
   xmlns:inkscape="http://www.inkscape.org/namespaces/inkscape"
   xmlns:sodipodi="http://sodipodi.sourceforge.net/DTD/sodipodi-0.dtd"
   xmlns="http://www.w3.org/2000/svg"
   xmlns:svg="http://www.w3.org/2000/svg">
  <sodipodi:namedview
     id="namedview5676"
     pagecolor="#ffffff"
     bordercolor="#000000"
     borderopacity="0.25"
     inkscape:showpageshadow="2"
     inkscape:pageopacity="0.0"
     inkscape:pagecheckerboard="0"
     inkscape:deskcolor="#d1d1d1"
     inkscape:document-units="mm"
     showgrid="false"
     inkscape:zoom="0.49085999"
     inkscape:cx="349.3868"
     inkscape:cy="301.51164"
     inkscape:window-width="1366"
     inkscape:window-height="705"
     inkscape:window-x="-8"
     inkscape:window-y="-8"
     inkscape:window-maximized="1"
     inkscape:current-layer="layer1" />
  <defs
     id="defs5671" />
  <g
     inkscape:label="Layer 1"
     inkscape:groupmode="layer"
     id="layer1">
    <g
       id="g6208"
       transform="matrix(4.2328788,0,0,4.2328788,-193.89042,-151.85025)">
      <path
         d="m 81.175486,52.318144 c 0,0 0.0889,0.955004 -1.2058,2.213433 -1.29469,1.258676 -2.80211,-0.660082 -5.80566,0.894609 -2.16923,1.122821 -6.02932,3.656895 -7.14234,11.951018 -0.31327,2.334013 5.27121,4.907915 14.16932,2.395326 4.06118,-1.146528 4.38362,-6.533021 7.61753,-9.052877 3.23391,-2.520315 -7.63305,-8.401509 -7.63305,-8.401509"
         style="fill:#ebd7c8;fill-opacity:1;fill-rule:nonzero;stroke:none;stroke-width:0.0352778"
         id="path300" />
      <path
         d="m 81.175486,52.318144 c 0,0 -2.81235,1.602669 1.37125,5.530215 2.09373,1.965642 4.06964,5.530497 4.06964,5.530497 0,0 4.02907,-3.056078 3.68829,-6.438195 -0.40217,-3.989563 -0.48577,-4.622517 -0.48577,-4.622517 h -8.64341"
         style="fill:#cab5a5;fill-opacity:1;fill-rule:nonzero;stroke:none;stroke-width:0.0352778"
         id="path302" />
      <path
         d="m 81.354696,46.939659 c 0,0 -1.95792,1.1938 -2.50684,2.698503 0.42968,-0.215265 1.0982,-0.44704 1.0982,-0.44704 0,0 -0.90735,0.873125 -1.0982,1.736054 0.64453,-0.501332 1.14582,-0.572876 1.14582,-0.572876 0,0 -0.66851,0.429684 -0.74012,1.31371 0.62088,-0.291042 0.81244,0.04932 2.30681,0.956063 1.49437,0.906885 -0.20567,-5.684414 -0.20567,-5.684414"
         style="fill:#ebd7c8;fill-opacity:1;fill-rule:nonzero;stroke:none;stroke-width:0.0352778"
         id="path304" />
      <path
         d="m 81.047076,47.471718 c 0,0 -1.74202,-1.834444 -0.1905,-3.627261 1.69474,-1.959293 1.37513,-0.465349 1.4672,0.141817 0.0921,0.606742 1.81328,1.814724 1.81328,1.814724 l -3.08998,1.67072"
         style="fill:#cab5a5;fill-opacity:1;fill-rule:nonzero;stroke:none;stroke-width:0.0352778"
         id="path306" />
      <path
         d="m 82.175256,44.814596 c -0.39123,-0.264584 -1.19486,-0.381282 -1.99849,0.107209 -0.91828,0.5588 -1.32891,1.235146 -1.32891,1.235146 0,0 1.6637,-0.987108 2.33998,-0.704604 -0.89042,0.31048 -1.68346,1.845769 -1.68346,1.845769 0,0 1.36278,-0.925654 2.14877,-0.88967 0.30621,-0.137266 1.48378,-0.788106 1.48378,-0.788106 0,0 -0.73589,-0.652639 -0.96167,-0.805744"
         style="fill:#ebd7c8;fill-opacity:1;fill-rule:nonzero;stroke:none;stroke-width:0.0352778"
         id="path308" />
      <path
         d="m 90.337126,47.471718 c 0,0 1.74201,-1.834444 0.19085,-3.627261 -1.6951,-1.959293 -1.37513,-0.465349 -1.4672,0.141817 -0.0921,0.606742 -1.81363,1.814724 -1.81363,1.814724 l 3.08998,1.67072"
         style="fill:#cab5a5;fill-opacity:1;fill-rule:nonzero;stroke:none;stroke-width:0.0352778"
         id="path310" />
      <path
         d="m 89.209296,44.814596 c 0.39087,-0.264584 1.19485,-0.381282 1.99813,0.107209 0.91863,0.5588 1.32927,1.235146 1.32927,1.235146 0,0 -1.6637,-0.987108 -2.33998,-0.704604 0.89006,0.31048 1.68346,1.845769 1.68346,1.845769 0,0 -1.36314,-0.925654 -2.14913,-0.88967 -0.30621,-0.137266 -1.48378,-0.788106 -1.48378,-0.788106 0,0 0.7359,-0.652639 0.96203,-0.805744"
         style="fill:#ebd7c8;fill-opacity:1;fill-rule:nonzero;stroke:none;stroke-width:0.0352778"
         id="path312" />
      <path
         d="m 83.428676,45.936747 c 1.83656,-0.226413 0.74154,-0.67303 -0.0825,-0.92135 -1.0668,0.485316 -1.93887,1.288309 -2.47897,2.282719 0.58667,-0.666009 1.43016,-1.221916 2.56152,-1.361369"
         style="fill:#ebd7c8;fill-opacity:1;fill-rule:nonzero;stroke:none;stroke-width:0.0352778"
         id="path314" />
      <path
         d="m 85.692096,44.505245 c -0.1905,0 -0.37853,0.0095 -0.56409,0.02783 0.12912,0.396593 0.23636,0.966964 0.20461,1.7399 -0.0596,1.457008 -0.7306,2.461048 -0.7306,2.461048 0,0 -0.45367,-1.005134 -1.17334,-1.627046 -0.16369,0.33401 0.0628,0.859331 0.0628,0.859331 0,0 -0.90875,-0.138359 -1.50001,-0.01834 -0.0631,1.243154 0.59126,1.748049 0.56374,3.333362 0,0 -1.14229,-1.091142 -2.25778,-1.100914 0.13759,1.238144 0.36619,2.2987 2.25778,2.871964 1.25977,0.381565 0.7299,1.718945 3.1369,1.718945 2.24931,0 1.92899,-0.974654 3.12244,-1.432595 2.30328,-0.88332 2.30328,-2.167114 2.30328,-3.700568 0,-2.834923 -2.42922,-5.132917 -5.42572,-5.132917"
         style="fill:#ebd7c8;fill-opacity:1;fill-rule:nonzero;stroke:none;stroke-width:0.0352778"
         id="path316" />
      <path
         d="m 82.555196,51.28133 c 0.0275,-1.585313 -0.62688,-2.090208 -0.56374,-3.333362 0.59126,-0.120015 1.50001,0.01834 1.50001,0.01834 0,0 -0.22648,-0.525321 -0.0628,-0.859331 0.71967,0.621912 1.17334,1.627046 1.17334,1.627046 0,0 0.67098,-1.00404 0.7306,-2.461048 0.0318,-0.772936 -0.0755,-1.343307 -0.20461,-1.7399 -0.63359,0.06212 -1.2319,0.231775 -1.78188,0.482318 0.82409,0.24832 1.91911,0.694937 0.0825,0.92135 -1.13136,0.139453 -1.97485,0.69536 -2.56152,1.361369 -0.56974,0.435046 -0.89711,1.212533 -0.89711,1.212533 0,0 0.54151,-0.14471 0.69356,0 -0.36619,0.315418 -0.7045,0.879863 -0.69356,1.127513 0.16122,-0.01242 0.69356,-0.186585 0.89711,0 -0.21378,0.09631 -0.75,0.585505 -0.73025,0.763693 1.11548,0.0099 2.41829,0.879475 2.41829,0.879475"
         style="fill:#e3aa63;fill-opacity:1;fill-rule:nonzero;stroke:none;stroke-width:0.0352778"
         id="path318" />
      <path
         d="m 90.029496,46.939659 c 0,0 1.95792,1.1938 2.5072,2.698503 -0.42969,-0.215265 -1.0982,-0.44704 -1.0982,-0.44704 0,0 0.90734,0.873125 1.0982,1.736054 -0.64453,-0.501332 -1.14618,-0.572876 -1.14618,-0.572876 0,0 0.66852,0.429684 0.74013,1.31371 -0.62054,-0.291042 -1.01283,0.275872 -2.4832,1.307041 -1.43122,1.003653 0.38205,-6.035392 0.38205,-6.035392"
         style="fill:#ebd7c8;fill-opacity:1;fill-rule:nonzero;stroke:none;stroke-width:0.0352778"
         id="path320" />
      <path
         d="m 88.828996,51.28133 c -0.0272,-1.585313 0.62689,-2.090208 0.56409,-3.333362 -0.59125,-0.120015 -1.50001,0.01834 -1.50001,0.01834 0,0 0.22649,-0.525321 0.0628,-0.859331 -0.72002,0.621912 -1.17369,1.627046 -1.17369,1.627046 0,0 -0.67063,-1.00404 -0.73061,-2.461048 -0.0317,-0.772936 0.0755,-1.343307 0.20461,-1.7399 0.63395,0.06212 1.23226,0.231775 1.78224,0.482318 -0.82444,0.24832 -1.91911,0.694937 -0.0825,0.92135 1.131,0.139453 1.97485,0.69536 2.56116,1.361369 0.56974,0.435046 0.89747,1.212533 0.89747,1.212533 0,0 -0.54151,-0.14471 -0.69356,0 0.36583,0.315418 0.7045,0.879863 0.69356,1.127513 -0.16122,-0.01242 -0.69356,-0.186585 -0.89747,0 0.21414,0.09631 0.75001,0.585505 0.73025,0.763693 -1.11548,0.0099 -2.41829,0.879475 -2.41829,0.879475"
         style="fill:#e3aa63;fill-opacity:1;fill-rule:nonzero;stroke:none;stroke-width:0.0352778"
         id="path322" />
      <path
         d="m 84.301806,49.191122 c 0,0.482317 -0.39088,0.873125 -0.87313,0.873125 -0.48225,0 -0.87348,-0.390808 -0.87348,-0.873125 0,-0.482177 0.39123,-0.873125 0.87348,-0.873125 0.48225,0 0.87313,0.390948 0.87313,0.873125"
         style="fill:#948231;fill-opacity:1;fill-rule:nonzero;stroke:none;stroke-width:0.0352778"
         id="path324" />
      <path
         d="m 83.136926,49.191122 c 0,0.376061 0.13053,0.680896 0.29175,0.680896 0.16087,0 0.29139,-0.304835 0.29139,-0.680896 0,-0.375673 -0.13052,-0.680473 -0.29139,-0.680473 -0.16122,0 -0.29175,0.3048 -0.29175,0.680473"
         style="fill:#343434;fill-opacity:1;fill-rule:nonzero;stroke:none;stroke-width:0.0352778"
         id="path326" />
      <path
         d="m 83.948666,48.962486 c 0,0.126365 -0.1023,0.228636 -0.2286,0.228636 -0.12629,0 -0.2286,-0.102271 -0.2286,-0.228636 0,-0.126224 0.10231,-0.228459 0.2286,-0.228459 0.1263,0 0.2286,0.102235 0.2286,0.228459"
         style="fill:#ffffff;fill-opacity:1;fill-rule:nonzero;stroke:none;stroke-width:0.0352778"
         id="path328" />
      <path
         d="m 88.814536,49.191122 c 0,0.482317 -0.39088,0.873125 -0.87313,0.873125 -0.48224,0 -0.87312,-0.390808 -0.87312,-0.873125 0,-0.482177 0.39088,-0.873125 0.87312,-0.873125 0.48225,0 0.87313,0.390948 0.87313,0.873125"
         style="fill:#948231;fill-opacity:1;fill-rule:nonzero;stroke:none;stroke-width:0.0352778"
         id="path330" />
      <path
         d="m 87.650016,49.191122 c 0,0.376061 0.13017,0.680896 0.29139,0.680896 0.16087,0 0.2914,-0.304835 0.2914,-0.680896 0,-0.375673 -0.13053,-0.680473 -0.2914,-0.680473 -0.16122,0 -0.29139,0.3048 -0.29139,0.680473"
         style="fill:#343434;fill-opacity:1;fill-rule:nonzero;stroke:none;stroke-width:0.0352778"
         id="path332" />
      <path
         d="m 88.461406,48.962486 c 0,0.126365 -0.10231,0.228636 -0.2286,0.228636 -0.1263,0 -0.2286,-0.102271 -0.2286,-0.228636 0,-0.126224 0.1023,-0.228459 0.2286,-0.228459 0.12629,0 0.2286,0.102235 0.2286,0.228459"
         style="fill:#ffffff;fill-opacity:1;fill-rule:nonzero;stroke:none;stroke-width:0.0352778"
         id="path334" />
      <path
         d="m 85.440566,51.730134 c 0,0 0.43674,1.359182 -0.65652,1.929271 0,0.613516 1.69192,0.851641 1.84715,-0.0423 -0.75389,-0.527791 -0.61878,-1.353926 -0.57044,-1.817511 0.0483,-0.46355 -0.62019,-0.06946 -0.62019,-0.06946"
         style="fill:#cab5a5;fill-opacity:1;fill-rule:nonzero;stroke:none;stroke-width:0.0352778"
         id="path336" />
      <path
         d="m 84.693736,51.588635 c 0,0 0.53446,-1.188156 0.64453,-2.298983 0.109,-1.096503 0.51399,-1.144199 0.70767,0.0423 0.16616,1.017694 0.77893,2.256685 0.77893,2.256685 0,0 -1.03928,1.852753 -2.13113,0"
         style="fill:#cab5a5;fill-opacity:1;fill-rule:nonzero;stroke:none;stroke-width:0.0352778"
         id="path338" />
      <path
         d="m 85.843796,52.709798 c 0,0.562645 -0.47096,1.018504 -1.05234,1.018504 -0.58138,0 -1.05269,-0.455859 -1.05269,-1.018504 0,-0.562363 0.47131,-1.018505 1.05269,-1.018505 0.58138,0 1.05234,0.456142 1.05234,1.018505"
         style="fill:#ffffff;fill-opacity:1;fill-rule:nonzero;stroke:none;stroke-width:0.0352778"
         id="path340" />
      <path
         d="m 87.779486,52.709798 c 0,0.562645 -0.47096,1.018504 -1.05234,1.018504 -0.58138,0 -1.05233,-0.455859 -1.05233,-1.018504 0,-0.562363 0.47095,-1.018505 1.05233,-1.018505 0.58138,0 1.05234,0.456142 1.05234,1.018505"
         style="fill:#ffffff;fill-opacity:1;fill-rule:nonzero;stroke:none;stroke-width:0.0352778"
         id="path342" />
      <path
         d="m 86.490086,51.637283 c -0.0903,-0.452579 -0.78247,-0.384916 -0.78247,-0.384916 0,0 -0.69215,-0.06766 -0.78246,0.384916 -0.054,0.270227 0.78246,0.685412 0.78246,0.685412 0,0 0.83644,-0.415185 0.78247,-0.685412"
         style="fill:#eebcc1;fill-opacity:1;fill-rule:nonzero;stroke:none;stroke-width:0.0352778"
         id="path344" />
      <path
         d="m 76.295506,69.245833 c 1.2573,0.06216 3.41136,-0.08322 3.9176,0.45794 0.7934,0.847337 0.78705,1.367402 -0.11712,1.474894 -0.90417,0.10735 -9.15458,0.614609 -9.71973,-0.373592 -0.56515,-0.988448 -0.6216,-1.327432 -0.6216,-1.327432 l 6.54085,-0.23181"
         style="fill:#cab5a5;fill-opacity:1;fill-rule:nonzero;stroke:none;stroke-width:0.0352778"
         id="path346" />
      <path
         d="m 78.209326,54.921256 c 0,0 0.62759,0.689715 1.07421,2.930278 0.44662,2.240421 1.016,3.954286 1.69192,5.527322 0.67593,1.573001 -0.31997,5.554451 -3.61068,5.918517 -3.29106,0.364349 -5.97711,0.808497 -7.67644,1.507702 -2.16429,0.890094 -6.5719,0.0022 -8.94539,-0.721677 -1.32115,-0.402908 -3.35386,-1.600588 -5.72099,-2.057824 -0.74472,-0.143862 -2.14383,0.918351 -2.14383,0.918351 0,0 0.26176,-0.843915 0.56515,-1.246434 -0.76624,-0.06107 -2.8254,1.246434 -2.8254,1.246434 0,0 0.69109,-1.202337 1.01706,-1.618226 -0.68616,0.01556 -2.31035,0.648758 -2.93829,0.852311 -0.11712,-0.66601 0.78034,-3.068779 2.85821,-4.51418 -0.56974,-0.345616 -0.99343,-1.115801 -0.99343,-1.115801 0,0 1.46897,0.71367 2.34421,0.40072 1.00048,-0.357328 1.8415,-0.522146 3.20358,-0.349179 1.80798,0.229306 3.01307,1.149703 4.00367,2.103579 0.055,-0.565574 0.64841,-1.187062 0.64841,-1.187062 0,0 -0.11324,1.469002 0.22331,2.064737 0.39299,0.695749 1.17298,1.276033 1.75436,1.551517 2.04047,0.966964 3.98674,0.945903 4.27002,-0.259221 0.5708,-2.427111 2.46133,-13.517422 11.20034,-11.951864"
         style="fill:#e3aa63;fill-opacity:1;fill-rule:nonzero;stroke:none;stroke-width:0.0352778"
         id="path348" />
      <path
         d="m 84.693736,60.960529 c 0,0 -0.59231,1.900732 -0.26352,3.826933 0.32914,1.926238 0.50835,4.509488 0.90805,4.458371 0.40005,-0.05069 0.85936,-0.276825 1.53387,0.51442 0.67451,0.790857 0.58985,1.427233 -1.00965,1.418414 -1.32573,-0.0073 -2.17275,-0.08488 -2.76613,-1.164167 -0.74048,-1.34687 -1.65276,-3.348214 -1.05304,-6.964468 0.41028,-2.475089 2.08809,-3.000657 2.65042,-2.089503"
         style="fill:#ebd7c8;fill-opacity:1;fill-rule:nonzero;stroke:none;stroke-width:0.0352778"
         id="path350" />
    </g>
  </g>
</svg>
