<?xml version="1.0" encoding="UTF-8" standalone="no"?>
<!-- Created with Inkscape (http://www.inkscape.org/) -->

<svg
   width="210mm"
   height="180mm"
   viewBox="0 0 210 180"
   version="1.1"
   id="svg5674"
   inkscape:version="1.2.1 (9c6d41e410, 2022-07-14)"
   sodipodi:docname="bengal.svg"
   xmlns:inkscape="http://www.inkscape.org/namespaces/inkscape"
   xmlns:sodipodi="http://sodipodi.sourceforge.net/DTD/sodipodi-0.dtd"
   xmlns="http://www.w3.org/2000/svg"
   xmlns:svg="http://www.w3.org/2000/svg">
  <sodipodi:namedview
     id="namedview5676"
     pagecolor="#ffffff"
     bordercolor="#000000"
     borderopacity="0.25"
     inkscape:showpageshadow="2"
     inkscape:pageopacity="0.0"
     inkscape:pagecheckerboard="0"
     inkscape:deskcolor="#d1d1d1"
     inkscape:document-units="mm"
     showgrid="false"
     inkscape:zoom="0.49085999"
     inkscape:cx="349.3868"
     inkscape:cy="301.51164"
     inkscape:window-width="1366"
     inkscape:window-height="705"
     inkscape:window-x="-8"
     inkscape:window-y="-8"
     inkscape:window-maximized="1"
     inkscape:current-layer="layer1" />
  <defs
     id="defs5671" />
  <g
     inkscape:label="Layer 1"
     inkscape:groupmode="layer"
     id="layer1">
    <g
       id="g8113"
       transform="translate(-7.1161483,7.5299438)">
      <path
         d="m 33.493459,96.982025 c 0.641115,7.459715 5.171386,15.746085 7.256125,21.963915 2.084683,6.21775 1.729834,18.75618 0.153164,21.90741 -0.760103,1.52022 -5.147211,2.3206 -6.15329,4.58274 -1.457683,3.28227 -1.457683,6.82863 5.286315,7.48593 9.921457,0.96572 8.409366,-4.25813 9.979923,-11.42549 1.358869,-6.20976 8.028282,-22.79457 7.943645,-31.74225 C 57.89072,102.37925 50.906844,85.810565 49.045964,81.631092 43.090244,68.257997 31.632465,75.316523 33.493402,96.982025"
         style="fill:#b05836;fill-opacity:1;fill-rule:nonzero;stroke:none;stroke-width:0.201614"
         id="path1010" />
      <path
         d="m 85.272125,140.807 c 0,0 -7.804547,-0.88509 -9.848879,2.65928 -2.219779,3.85286 -2.364946,7.60085 8.076693,7.09078 10.441588,-0.50807 15.362991,-0.78833 15.362991,-0.78833 L 85.272125,140.807"
         style="fill:#b05836;fill-opacity:1;fill-rule:nonzero;stroke:none;stroke-width:0.201614"
         id="path1012" />
      <path
         d="m 30.999465,59.245829 c 0,0 1.550437,10.55452 0.633056,16.070694 -0.919325,5.514158 -3.131053,21.032438 5.459767,30.607127 8.588763,9.57266 28.996216,12.82871 34.820831,20.47191 20.004193,26.26236 29.312761,29.12121 45.070951,29.05069 15.75819,-0.0726 21.53446,-31.0285 9.45368,-53.67588 C 114.35903,79.12301 103.32869,70.092691 89.145104,69.036228 74.963534,67.981787 61.850556,66.522098 58.73156,57.080483 56.205335,49.429213 30.999465,59.245829 30.999465,59.245829"
         style="fill:#cd7247;fill-opacity:1;fill-rule:nonzero;stroke:none;stroke-width:0.201614"
         id="path1014" />
      <path
         d="m 52.57627,20.558003 c 0,0 11.262213,-10.7964613 13.984009,-13.3932584 3.780226,-3.6048648 6.923452,-3.5443823 6.925453,5.1210134 0,11.030333 -5.546409,24.359074 -5.546409,24.359074 L 52.57627,20.558003"
         style="fill:#cd7247;fill-opacity:1;fill-rule:nonzero;stroke:none;stroke-width:0.201614"
         id="path1016" />
      <path
         d="m 40.394737,20.558003 c 0,0 -11.262211,-10.7964613 -13.984007,-13.3932584 -3.780284,-3.6048648 -6.925452,-3.5443823 -6.925452,5.1210134 0,11.030333 5.546408,24.359074 5.546408,24.359074 L 40.394737,20.558003"
         style="fill:#cd7247;fill-opacity:1;fill-rule:nonzero;stroke:none;stroke-width:0.201614"
         id="path1018" />
      <path
         d="m 56.390843,20.777764 c 0,0 8.004052,-8.885157 10.367008,-11.2500934 2.362889,-2.362926 5.514175,-3.9375333 5.120976,3.7439814 -0.393197,7.681513 -4.727844,21.431632 -4.727844,21.431632 l -10.76014,-13.92552"
         style="fill:#f6a36d;fill-opacity:1;fill-rule:nonzero;stroke:none;stroke-width:0.201614"
         id="path1020" />
      <path
         d="m 37.701171,20.777764 c 0,0 -8.004112,-8.885157 -10.36706,-11.2500934 -2.362891,-2.362926 -5.516176,-3.9375333 -5.120978,3.7439814 0.393195,7.681513 4.727839,21.431632 4.727839,21.431632 l 10.760199,-13.92552"
         style="fill:#f6a36d;fill-opacity:1;fill-rule:nonzero;stroke:none;stroke-width:0.201614"
         id="path1022" />
      <path
         d="m 66.298185,46.830398 c -2.264131,-2.614941 -1.969814,-3.094784 -0.195457,-2.439535 0.939502,0.348791 2.342719,1.459689 3.461725,2.431473 0.262322,-1.352835 0.411491,-2.766152 0.411491,-4.256085 0,-11.610984 -7.143203,-21.393324 -16.911438,-24.492138 -0.473776,1.2863 -1.298403,3.552446 -1.973808,5.540367 -1.004021,2.953657 -2.667332,2.754059 -1.596787,-2.836716 0.266321,-1.389125 0.393196,-2.629052 0.453776,-3.431481 -0.677464,-0.108868 -1.362928,-0.18551 -2.058508,-0.231859 -0.165165,1.931466 -0.624999,7.302478 -0.685464,7.877076 -0.300612,2.840751 -1.27423,3.643179 -1.733892,1.06251 -0.278323,-1.568561 -1.127009,-6.897235 -1.441567,-8.879105 -0.52007,0.05847 -1.028196,0.161279 -1.538322,0.256036 0.06458,0.802422 0.191454,2.004048 0.44749,3.346801 1.070544,5.590773 -0.59071,5.790372 -1.596789,2.836715 -0.65123,-1.91534 -1.441567,-4.096806 -1.923402,-5.405285 -9.534377,3.254057 -16.451771,12.925508 -16.451771,24.357056 0,1.24598 0.165166,2.473809 0.437774,3.67947 0.969731,-0.798394 2.02416,-1.574614 2.780262,-1.854857 1.772183,-0.65525 2.066508,-0.175396 -0.19774,2.439535 -0.679407,0.784283 -1.288289,1.485899 -1.784241,2.054456 0.224029,0.590731 0.473777,1.17541 0.745928,1.75203 1.1553,-1.205659 2.62304,-2.717767 3.401262,-3.423416 1.592729,-1.443562 1.592729,0 -0.294327,3.086721 -0.667347,1.092748 -1.24194,2.167355 -1.659252,2.985912 2.179437,3.534301 5.082687,6.649248 7.764192,9.076685 4.076609,3.689545 6.590779,5.729884 12.310581,5.729884 4.905235,0 8.645223,-2.203646 12.262179,-5.185524 3.151219,-2.596798 5.899247,-5.421413 7.893232,-8.64725 -0.3629,-0.760087 -1.15124,-2.340746 -2.139144,-3.959707 -1.887112,-3.086721 -1.887112,-4.530283 -0.296612,-3.086721 0.92338,0.838713 2.816552,2.808487 4.004085,4.056486 0.221743,-0.512127 0.419484,-1.036301 0.602822,-1.568562 -0.534355,-0.610894 -1.435507,-1.643159 -2.497995,-2.870994"
         style="fill:#dc844c;fill-opacity:1;fill-rule:nonzero;stroke:none;stroke-width:0.201614"
         id="path1024" />
      <path
         d="m 42.937079,20.777764 c -0.256034,-1.342752 -0.382909,-2.544378 -0.447488,-3.346801 -1.046369,0.193569 -2.076624,0.439488 -3.072588,0.778231 0.48178,1.30848 1.272174,3.489946 1.923404,5.405286 1.006079,2.953657 2.667333,2.754059 1.596787,-2.836716"
         style="fill:#824c3c;fill-opacity:1;fill-rule:nonzero;stroke:none;stroke-width:0.201614"
         id="path1026" />
      <path
         d="m 51.090355,23.61448 c 0.675406,-1.987921 1.500035,-4.254067 1.973812,-5.540367 -1.012087,-0.320557 -2.054452,-0.554417 -3.116938,-0.72783 -0.06058,0.802429 -0.187454,2.042356 -0.453777,3.431481 -1.070544,5.590775 0.592767,5.790373 1.596789,2.836716"
         style="fill:#824c3c;fill-opacity:1;fill-rule:nonzero;stroke:none;stroke-width:0.201614"
         id="path1028" />
      <path
         d="m 47.203258,24.991506 c 0.06058,-0.574598 0.52007,-5.94561 0.685464,-7.877077 -0.472063,-0.03028 -0.939499,-0.07664 -1.419336,-0.07664 -0.824625,0 -1.637135,0.04859 -2.441587,0.137105 0.314328,1.981867 1.163357,7.310542 1.441567,8.879104 0.459491,2.580669 1.433451,1.77824 1.733892,-1.06251"
         style="fill:#824c3c;fill-opacity:1;fill-rule:nonzero;stroke:none;stroke-width:0.201614"
         id="path1030" />
      <path
         d="m 26.182927,44.390863 c -0.756103,0.280267 -1.810531,1.056463 -2.780262,1.854857 0.203455,0.893149 0.471492,1.774206 0.798393,2.639135 0.496068,-0.568535 1.104835,-1.270172 1.784242,-2.054457 2.264135,-2.614941 1.96981,-3.094784 0.197741,-2.439535"
         style="fill:#824c3c;fill-opacity:1;fill-rule:nonzero;stroke:none;stroke-width:0.201614"
         id="path1032" />
      <path
         d="m 28.348248,47.213468 c -0.778219,0.70565 -2.245961,2.217758 -3.40126,3.423418 0.431487,0.905248 0.915325,1.790333 1.447625,2.649216 0.417199,-0.818558 0.991905,-1.893165 1.659253,-2.985913 1.887112,-3.086721 1.887112,-4.530282 0.294326,-3.086721"
         style="fill:#824c3c;fill-opacity:1;fill-rule:nonzero;stroke:none;stroke-width:0.201614"
         id="path1034" />
      <path
         d="m 64.189273,47.213468 c -1.590735,-1.443561 -1.590735,0 0.296611,3.086721 0.987905,1.618963 1.776235,3.199621 2.139145,3.959707 0.592705,-0.959684 1.11895,-1.95566 1.568554,-2.989942 C 67.006051,50.021956 65.11288,48.052181 64.1895,47.213468"
         style="fill:#824c3c;fill-opacity:1;fill-rule:nonzero;stroke:none;stroke-width:0.201614"
         id="path1036" />
      <path
         d="m 66.298185,46.830398 c 1.062488,1.227835 1.963697,2.260101 2.497995,2.870996 0.31833,-0.925412 0.576592,-1.885102 0.768161,-2.879058 -1.119008,-0.971784 -2.522225,-2.082676 -3.461726,-2.431473 -1.774244,-0.655249 -2.068561,-0.175395 0.195457,2.439535"
         style="fill:#824c3c;fill-opacity:1;fill-rule:nonzero;stroke:none;stroke-width:0.201614"
         id="path1038" />
      <path
         d="m 43.16694,53.431265 c 0,0 1.185474,-9.417419 0.995963,-13.923508 -0.187454,-4.504067 4.570619,-6.000047 4.685492,0 0.117158,6.000052 1.018194,13.923508 1.018194,13.923508 H 43.16694"
         style="fill:#cd7247;fill-opacity:1;fill-rule:nonzero;stroke:none;stroke-width:0.201614"
         id="path1040" />
      <path
         d="m 30.055908,36.644832 c 0,0 4.572619,-3.205674 8.141216,-1.379044 5.514175,2.822606 2.889134,11.55453 2.889134,11.55453 0,0 -5.879081,0.245976 -8.600879,-1.772189 -3.348796,-2.483896 -2.429471,-8.403297 -2.429471,-8.403297"
         style="fill:#faba9a;fill-opacity:1;fill-rule:nonzero;stroke:none;stroke-width:0.201614"
         id="path1042" />
      <path
         d="m 40.03583,40.84648 c 0,2.320583 -1.881054,4.201649 -4.201655,4.201649 -2.320541,0 -4.201654,-1.881066 -4.201654,-4.201649 0,-2.320588 1.881113,-4.201648 4.201654,-4.201648 2.320601,0 4.201655,1.88106 4.201655,4.201648"
         style="fill:#948231;fill-opacity:1;fill-rule:nonzero;stroke:none;stroke-width:0.201614"
         id="path1044" />
      <path
         d="m 34.749515,40.84648 c 0,1.43348 0.485779,2.596792 1.08466,2.596792 0.596825,0 1.082719,-1.163312 1.082719,-2.596792 0,-1.433479 -0.48578,-2.596796 -1.082719,-2.596796 -0.598766,0 -1.08466,1.163317 -1.08466,2.596796"
         style="fill:#343434;fill-opacity:1;fill-rule:nonzero;stroke:none;stroke-width:0.201614"
         id="path1046" />
      <path
         d="m 38.350344,39.507757 c 0,0.695574 -0.562362,1.258078 -1.258056,1.258078 -0.695579,0 -1.258113,-0.562532 -1.258113,-1.258078 0,-0.693552 0.562362,-1.258073 1.258113,-1.258073 0.695581,0 1.258056,0.564534 1.258056,1.258073"
         style="fill:#ffffff;fill-opacity:1;fill-rule:nonzero;stroke:none;stroke-width:0.201614"
         id="path1048" />
      <path
         d="m 63.425171,36.644832 c 0,0 -4.572625,-3.205674 -8.141216,-1.379044 -5.514179,2.822606 -2.887134,11.55453 -2.887134,11.55453 0,0 5.877075,0.245976 8.600872,-1.772189 3.3468,-2.483896 2.427478,-8.403297 2.427478,-8.403297"
         style="fill:#faba9a;fill-opacity:1;fill-rule:nonzero;stroke:none;stroke-width:0.201614"
         id="path1050" />
      <path
         d="m 53.447246,40.84648 c 0,2.320583 1.881052,4.201649 4.201655,4.201649 2.320595,0 4.201655,-1.881066 4.201655,-4.201649 0,-2.320588 -1.88106,-4.201648 -4.201655,-4.201648 -2.320603,0 -4.201655,1.88106 -4.201655,4.201648"
         style="fill:#948231;fill-opacity:1;fill-rule:nonzero;stroke:none;stroke-width:0.201614"
         id="path1052" />
      <path
         d="m 58.73156,40.84648 c 0,1.43348 -0.485782,2.596792 -1.082659,2.596792 -0.59883,0 -1.084716,-1.163312 -1.084716,-2.596792 0,-1.433479 0.485773,-2.596796 1.084716,-2.596796 0.596763,0 1.082659,1.163317 1.082659,2.596796"
         style="fill:#343434;fill-opacity:1;fill-rule:nonzero;stroke:none;stroke-width:0.201614"
         id="path1054" />
      <path
         d="m 55.132728,39.507757 c 0,0.695574 0.562368,1.258078 1.258115,1.258078 0.69352,0 1.258058,-0.562532 1.258058,-1.258078 0,-0.693552 -0.564652,-1.258073 -1.258058,-1.258073 -0.695577,0 -1.258115,0.564534 -1.258115,1.258073"
         style="fill:#ffffff;fill-opacity:1;fill-rule:nonzero;stroke:none;stroke-width:0.201614"
         id="path1056" />
      <path
         d="m 47.203258,57.588553 c 0,2.637122 -2.137146,4.774234 -4.774246,4.774234 -2.6371,0 -4.774247,-2.137112 -4.774247,-4.774234 0,-2.637118 2.137147,-4.77423 4.774247,-4.77423 2.6371,0 4.774246,2.137112 4.774246,4.77423"
         style="fill:#faba9a;fill-opacity:1;fill-rule:nonzero;stroke:none;stroke-width:0.201614"
         id="path1058" />
      <path
         d="m 55.358531,57.588553 c 0,2.637122 -2.137088,4.774234 -4.774187,4.774234 -2.637157,0 -4.774246,-2.137112 -4.774246,-4.774234 0,-2.637118 2.137089,-4.77423 4.774246,-4.77423 2.637099,0 4.774187,2.137112 4.774187,4.77423"
         style="fill:#faba9a;fill-opacity:1;fill-rule:nonzero;stroke:none;stroke-width:0.201614"
         id="path1060" />
      <path
         d="m 46.515736,51.971569 c 0.913324,-0.01829 3.364969,-0.262092 3.350853,1.459696 -0.01147,1.564525 -3.350853,2.256064 -3.350853,2.256064 0,0 -3.052471,-0.586697 -3.348796,-2.256064 -0.282325,-1.594777 2.435472,-1.44155 3.348796,-1.459696"
         style="fill:#e97c76;fill-opacity:1;fill-rule:nonzero;stroke:none;stroke-width:0.201614"
         id="path1062" />
      <path
         d="m 41.054025,56.195398 c 0,0.280267 -0.22803,0.508069 -0.510354,0.508069 -0.280038,0 -0.50807,-0.227802 -0.50807,-0.508069 0,-0.280266 0.228032,-0.508069 0.50807,-0.508069 0.282324,0 0.510354,0.227803 0.510354,0.508069"
         style="fill:#cd7247;fill-opacity:1;fill-rule:nonzero;stroke:none;stroke-width:0.201614"
         id="path1064" />
      <path
         d="m 40.902804,59.755908 c 0,0.280267 -0.22803,0.508069 -0.508067,0.508069 -0.280038,0 -0.50807,-0.227802 -0.50807,-0.508069 0,-0.282266 0.228032,-0.510069 0.50807,-0.510069 0.280037,0 0.508067,0.227803 0.508067,0.510069"
         style="fill:#cd7247;fill-opacity:1;fill-rule:nonzero;stroke:none;stroke-width:0.201614"
         id="path1066" />
      <path
         d="m 42.937079,57.588553 c 0,0.280265 -0.22803,0.508068 -0.508067,0.508068 -0.282325,0 -0.510355,-0.227803 -0.510355,-0.508068 0,-0.280268 0.22803,-0.50807 0.510355,-0.50807 0.280037,0 0.508067,0.227802 0.508067,0.50807"
         style="fill:#cd7247;fill-opacity:1;fill-rule:nonzero;stroke:none;stroke-width:0.201614"
         id="path1068" />
      <path
         d="m 44.162903,60.263977 c 0,0.280268 -0.228031,0.51007 -0.508068,0.51007 -0.280038,0 -0.508069,-0.229861 -0.508069,-0.51007 0,-0.280267 0.228031,-0.508069 0.508069,-0.508069 0.280037,0 0.508068,0.227802 0.508068,0.508069"
         style="fill:#cd7247;fill-opacity:1;fill-rule:nonzero;stroke:none;stroke-width:0.201614"
         id="path1070" />
      <path
         d="m 49.866589,59.755908 c 0,0.280267 -0.22803,0.508069 -0.508068,0.508069 -0.282324,0 -0.510355,-0.227802 -0.510355,-0.508069 0,-0.282266 0.228031,-0.510069 0.510355,-0.510069 0.280038,0 0.508068,0.227803 0.508068,0.510069"
         style="fill:#cd7247;fill-opacity:1;fill-rule:nonzero;stroke:none;stroke-width:0.201614"
         id="path1072" />
      <path
         d="m 51.092412,57.080483 c 0,0.280268 -0.22803,0.50807 -0.508068,0.50807 -0.280039,0 -0.508069,-0.227802 -0.508069,-0.50807 0,-0.282266 0.22803,-0.510067 0.508069,-0.510067 0.280038,0 0.508068,0.227801 0.508068,0.510067"
         style="fill:#cd7247;fill-opacity:1;fill-rule:nonzero;stroke:none;stroke-width:0.201614"
         id="path1074" />
      <path
         d="m 53.084337,59.245829 c 0,0.282266 -0.22803,0.510067 -0.508067,0.510067 -0.282322,0 -0.509786,-0.227801 -0.509786,-0.510067 0,-0.280268 0.228031,-0.50807 0.509786,-0.50807 0.280037,0 0.508067,0.227802 0.508067,0.50807"
         style="fill:#cd7247;fill-opacity:1;fill-rule:nonzero;stroke:none;stroke-width:0.201614"
         id="path1076" />
      <path
         d="m 53.955313,56.195398 c 0,0.280267 -0.228029,0.508069 -0.508067,0.508069 -0.282321,0 -0.509784,-0.227802 -0.509784,-0.508069 0,-0.280266 0.228029,-0.508069 0.509784,-0.508069 0.280038,0 0.508067,0.227803 0.508067,0.508069"
         style="fill:#cd7247;fill-opacity:1;fill-rule:nonzero;stroke:none;stroke-width:0.201614"
         id="path1078" />
      <path
         d="m 42.00764,101.58085 c 2.304426,7.12306 12.955757,13.24812 15.04044,19.46587 2.082682,6.21982 0.544067,23.89941 -1.032256,27.05064 -0.760109,1.52021 -4.717783,1.55244 -5.737979,3.80852 -1.836705,4.0706 0.225745,6.50813 5.385131,6.69764 9.961803,0.36291 9.782354,-1.57666 10.604921,-7.87912 0.824622,-6.30245 8.074692,-29.91959 7.989997,-38.86926 -0.07032,-7.37505 -7.05244,-23.941732 -8.915379,-28.123221 C 59.388854,70.360835 36.031803,83.106915 42.00764,101.58085"
         style="fill:#cd7247;fill-opacity:1;fill-rule:nonzero;stroke:none;stroke-width:0.201614"
         id="path1080" />
      <path
         d="m 113.04451,112.53255 c -5.12704,-4.06255 -18.455819,-6.00207 -24.030452,5.88514 -7.215779,15.39128 9.848872,31.35104 9.848872,31.35104 0,0 -15.756179,-3.13305 -18.514268,0.79639 -2.758088,3.93151 -3.546371,7.89524 3.544418,8.08075 7.090791,0.18346 24.42359,-0.18573 29.15143,0 4.72784,0.18346 7.01015,-4.33676 8.27226,-8.48194 2.25608,-7.40329 5.90932,-26.39335 -8.27226,-37.63138"
         style="fill:#cd7247;fill-opacity:1;fill-rule:nonzero;stroke:none;stroke-width:0.201614"
         id="path1082" />
      <path
         d="m 62.65501,62.661176 c 0,0 -5.377079,6.955701 -11.562598,8.935558 -5.465769,1.750014 -6.756114,5.538355 1.991925,3.250028 8.74804,-2.288327 15.10902,-9.193627 15.10902,-9.193627 L 62.65501,62.661176"
         style="fill:#824c3c;fill-opacity:1;fill-rule:nonzero;stroke:none;stroke-width:0.201614"
         id="path1084" />
      <path
         d="m 31.816032,67.423312 c 1.35687,1.643159 3.296389,3.610918 5.276256,4.346812 3.647181,1.356868 4.826654,3.707689 0,3.076638 -2.409296,-0.316556 -4.088781,-1.266137 -5.211733,-2.225827 0.0783,-1.834688 0.0783,-2.754052 -0.06458,-5.197623"
         style="fill:#824c3c;fill-opacity:1;fill-rule:nonzero;stroke:none;stroke-width:0.201614"
         id="path1086" />
      <path
         d="m 31.229324,77.977838 c 1.356869,1.643158 2.750029,2.969784 4.729897,3.705672 3.647181,1.358887 4.826654,3.707697 0,3.07664 -2.409297,-0.3145 -4.088781,-1.26412 -5.209734,-2.225821 0.07659,-1.834695 0.24975,-2.612926 0.480065,-4.556491"
         style="fill:#824c3c;fill-opacity:1;fill-rule:nonzero;stroke:none;stroke-width:0.201614"
         id="path1088" />
      <path
         d="m 71.439342,66.669272 c -0.707697,0.935493 -1.35287,2.417361 -1.463748,4.737944 -0.264028,5.48392 -0.195456,7.848858 1.937525,12.574703 2.133084,4.727862 2.558515,7.879101 2.344775,11.818643 -0.211464,3.939552 3.675466,4.727858 4.094781,0 0.419485,-4.727864 0.08684,-8.663376 -1.745955,-14.969881 -1.899222,-6.530295 0.933442,-11.237995 2.086684,-12.800509 -2.546397,-0.330674 -4.409279,-0.717749 -7.254062,-1.3609"
         style="fill:#824c3c;fill-opacity:1;fill-rule:nonzero;stroke:none;stroke-width:0.201614"
         id="path1090" />
      <path
         d="m 48.848395,93.373131 c -2.185496,1.268148 -6.20364,3.582683 -4.685492,6.550452 1.518148,2.967777 3.838748,-1.245977 6.421441,-3.274215 2.582639,-2.03026 1.316519,-5.048432 -1.735949,-3.276237"
         style="fill:#824c3c;fill-opacity:1;fill-rule:nonzero;stroke:none;stroke-width:0.201614"
         id="path1092" />
      <path
         d="m 56.390843,99.31471 c -2.104854,-2.038319 -6.76823,1.21371 -2.43553,3.57665 4.332702,2.36289 5.657286,-0.45766 2.43553,-3.57665"
         style="fill:#824c3c;fill-opacity:1;fill-rule:nonzero;stroke:none;stroke-width:0.201614"
         id="path1094" />
      <path
         d="m 45.043937,113.8229 c -2.104856,-2.03633 -6.768173,1.2137 -2.435473,3.57665 4.3327,2.36495 5.659281,-0.45777 2.435473,-3.57665"
         style="fill:#824c3c;fill-opacity:1;fill-rule:nonzero;stroke:none;stroke-width:0.201614"
         id="path1096" />
      <path
         d="m 57.959398,109.75428 c -2.822611,2.19761 -3.905271,6.11701 0.772162,2.77827 4.677433,-3.33874 2.052449,-4.97582 -0.772162,-2.77827"
         style="fill:#824c3c;fill-opacity:1;fill-rule:nonzero;stroke:none;stroke-width:0.201614"
         id="path1098" />
      <path
         d="m 120.25423,100.47399 c 0.68351,3.51214 3.68958,6.25006 2.82867,0.56853 -0.86086,-5.681491 -3.51008,-4.082695 -2.82867,-0.56853"
         style="fill:#824c3c;fill-opacity:1;fill-rule:nonzero;stroke:none;stroke-width:0.201614"
         id="path1100" />
      <path
         d="m 68.193357,118.41769 c -3.133107,-3.83269 -5.538347,-1.01814 -6.342801,0 -0.804452,1.01813 1.235879,3.38308 3.760104,4.95769 2.526235,1.57662 6.578663,-0.0663 2.582697,-4.95769"
         style="fill:#824c3c;fill-opacity:1;fill-rule:nonzero;stroke:none;stroke-width:0.201614"
         id="path1102" />
      <path
         d="m 48.918975,122.02864 c -3.393144,0.8185 -6.122999,3.57054 0.149164,3.75405 6.27022,0.18345 3.243979,-4.57063 -0.149164,-3.75405"
         style="fill:#824c3c;fill-opacity:1;fill-rule:nonzero;stroke:none;stroke-width:0.201614"
         id="path1104" />
      <path
         d="m 83.862848,68.602757 c -0.735927,1.641142 -1.959695,5.506094 0.425195,9.588789 3.15123,5.397222 7.877074,8.784352 5.121044,13.59084 -2.758088,4.806488 -6.16135,7.348855 -7.610977,11.986004 -1.449627,4.63715 1.223824,8.73193 4.219768,2.15526 2.99601,-6.578698 6.542423,-7.492017 8.51218,-12.550519 1.969812,-5.056501 0.788335,-12.699706 -1.969757,-15.181585 -2.316529,-2.084693 -2.131077,-5.709721 -1.312514,-8.935558 -2.798429,-0.377022 -4.925464,-0.570591 -7.385108,-0.653231"
         style="fill:#824c3c;fill-opacity:1;fill-rule:nonzero;stroke:none;stroke-width:0.201614"
         id="path1106" />
      <path
         d="m 100.37303,74.256031 c -0.91128,-1.52219 -2.83873,3.30043 -2.0504,8.816605 0.78828,5.514158 3.15123,9.846861 4.72784,5.121017 1.57661,-4.727866 0.0686,-9.35694 -2.67744,-13.937622"
         style="fill:#824c3c;fill-opacity:1;fill-rule:nonzero;stroke:none;stroke-width:0.201614"
         id="path1108" />
      <path
         d="m 99.25608,95.679595 c -1.4738,-1.703641 -5.120984,4.207696 -6.6956,6.875055 -1.576609,2.66737 -0.788335,5.42545 3.3488,2.27422 4.13512,-3.15123 5.3166,-6.875062 3.3468,-9.149275"
         style="fill:#824c3c;fill-opacity:1;fill-rule:nonzero;stroke:none;stroke-width:0.201614"
         id="path1110" />
      <path
         d="m 83.862848,112.61724 c -3.177459,0.10059 -4.770243,1.48993 -5.143214,4.47787 -0.373189,2.98788 4.354883,4.53227 5.143214,1.7903 0.788275,-2.74192 1.866941,-6.32662 0,-6.26817"
         style="fill:#824c3c;fill-opacity:1;fill-rule:nonzero;stroke:none;stroke-width:0.201614"
         id="path1112" />
      <path
         d="m 116.36307,113.85918 c 2.24602,2.24802 4.34881,2.45971 6.78234,0.68752 2.43347,-1.77424 0.32634,-6.27827 -2.21172,-4.97587 -2.54034,1.30041 -5.89119,2.96578 -4.57062,4.28835"
         style="fill:#824c3c;fill-opacity:1;fill-rule:nonzero;stroke:none;stroke-width:0.201614"
         id="path1114" />
      <path
         d="m 61.296079,104.08489 c 2.681502,1.70566 4.780305,1.45368 6.770233,-0.80645 1.987926,-2.26211 -1.050426,-6.19964 -3.243984,-4.375031 -2.193559,1.824621 -5.102864,4.179461 -3.526249,5.181481"
         style="fill:#824c3c;fill-opacity:1;fill-rule:nonzero;stroke:none;stroke-width:0.201614"
         id="path1116" />
      <path
         d="m 109.50014,85.520242 c -2.35888,-0.211687 -6.69764,6.796422 -3.15123,11.01622 3.54437,4.219788 5.90726,1.467748 6.6956,-2.080662 0.78834,-3.54641 2.61292,-8.37911 -3.54437,-8.935558"
         style="fill:#824c3c;fill-opacity:1;fill-rule:nonzero;stroke:none;stroke-width:0.201614"
         id="path1118" />
      <path
         d="m 118.05062,101.82077 c -0.57666,-2.661308 -5.12105,-1.77823 -6.69565,1.0363 -1.57662,2.81255 -2.75809,7.00409 0,6.4839 2.75608,-0.51836 7.48392,-3.88509 6.69565,-7.5202"
         style="fill:#824c3c;fill-opacity:1;fill-rule:nonzero;stroke:none;stroke-width:0.201614"
         id="path1120" />
      <path
         d="m 100.91338,108.75227 c -4.17142,-0.51607 -6.651305,7.99604 -2.77625,6.97791 3.87703,-1.02019 8.7662,-6.23998 2.77625,-6.97791"
         style="fill:#824c3c;fill-opacity:1;fill-rule:nonzero;stroke:none;stroke-width:0.201614"
         id="path1122" />
      <path
         d="m 109.69971,116.46606 c -3.3508,1.39515 -5.70768,5.11697 0,3.84679 5.70975,-1.27016 3.35285,-5.24396 0,-3.84679"
         style="fill:#824c3c;fill-opacity:1;fill-rule:nonzero;stroke:none;stroke-width:0.201614"
         id="path1124" />
      <path
         d="m 126.43775,120.21004 c -4.18548,5.06858 -3.93751,7.59685 0,5.5787 3.93956,-2.01816 2.55246,-8.66945 0,-5.5787"
         style="fill:#824c3c;fill-opacity:1;fill-rule:nonzero;stroke:none;stroke-width:0.201614"
         id="path1126" />
      <path
         d="m 113.91954,123.95403 c 3.02419,-1.93951 5.55848,2.57259 2.14514,4.1492 -3.4133,1.57461 -7.90123,-0.45778 -2.14514,-4.1492"
         style="fill:#824c3c;fill-opacity:1;fill-rule:nonzero;stroke:none;stroke-width:0.201614"
         id="path1128" />
      <path
         d="m 95.508079,122.94395 c -2.548396,0.18345 -7.119016,-0.44348 -8.971837,3.54032 -1.854886,3.98191 -0.213748,4.66536 5.270194,2.15731 5.481884,-2.50811 8.715804,-6.06054 3.701643,-5.69763"
         style="fill:#824c3c;fill-opacity:1;fill-rule:nonzero;stroke:none;stroke-width:0.201614"
         id="path1130" />
      <path
         d="m 123.3914,133.50653 c -4.04444,-0.67541 -7.69967,3.98391 -1.70166,4.83876 5.99807,0.85482 5.74404,-4.16336 1.70166,-4.83876"
         style="fill:#824c3c;fill-opacity:1;fill-rule:nonzero;stroke:none;stroke-width:0.201614"
         id="path1132" />
      <path
         d="m 100.91338,128.64158 c -1.96375,0.60682 -6.635118,2.22379 -9.106944,4.79842 -2.473821,2.57259 4.524214,1.79031 8.155334,0 3.62906,-1.79235 5.22585,-6.117 0.95161,-4.79842"
         style="fill:#824c3c;fill-opacity:1;fill-rule:nonzero;stroke:none;stroke-width:0.201614"
         id="path1134" />
      <path
         d="m 63.542098,74.846762 c -4.5041,1.959695 -0.262322,5.506094 0,10.669444 0.260036,5.163351 5.364958,6.572637 3.582654,2.393163 -1.782237,-4.17745 -0.693518,-14.320679 -3.582654,-13.062607"
         style="fill:#824c3c;fill-opacity:1;fill-rule:nonzero;stroke:none;stroke-width:0.201614"
         id="path1136" />
      <path
         d="m 178.31723,146.44011 c -0.0572,0.84474 -0.17946,1.80648 -0.4052,2.93754 -1.17335,5.90525 -3.9375,1.96975 -4.33269,-3.32462 -0.006,-0.10453 -0.012,-0.19546 -0.0228,-0.29661 -1.08266,-0.13489 -2.20968,-0.26004 -3.37704,-0.37491 0.079,0.621 0.14117,1.23588 0.17146,1.82459 0.30061,5.97789 -3.46779,5.58275 -4.0525,-0.64311 -0.0515,-0.53436 -0.22575,-1.05043 -0.46748,-1.55245 -1.74195,-0.12688 -3.56661,-0.23602 -5.49201,-0.32061 0.73188,1.42739 1.29641,2.92942 1.4234,3.89722 0.66534,5.14115 -1.83872,2.75808 -2.62704,2.0161 -0.67136,-0.631 -2.63305,-3.37298 -3.10483,-6.06254 -1.68348,-0.0456 -3.43555,-0.0726 -5.25814,-0.0846 0.63712,1.98187 1.17141,4.21371 1.66537,6.14718 1.56855,6.14723 -2.18755,3.12505 -4.13713,-1.62096 -0.74799,-1.82259 -2.43353,-3.28227 -3.46979,-4.6815 -1.58872,-0.26403 -3.1835,-0.87702 -4.71983,-1.67942 0.20574,1.50809 0.32062,3.34274 -0.27833,6.36092 -1.17541,5.9053 -3.93956,1.9698 -4.3347,-3.32662 -0.22573,-3.05042 -0.3309,-4.78031 -0.29832,-6.29439 -3.30451,-2.63716 -5.60894,-5.31256 -5.60894,-5.31256 l -6.11699,16.55453 c 0,0 15.43358,6.18153 23.84294,5.86296 9.04443,-0.3429 21.95989,-1.90523 33.80674,-0.80644 0.0583,-2.67745 0.50407,-6.00008 1.63508,-8.38114 -1.39316,-0.29833 -2.86896,-0.57859 -4.44156,-0.83868"
         style="fill:#cd7247;fill-opacity:1;fill-rule:nonzero;stroke:none;stroke-width:0.201614"
         id="path1138" />
      <path
         d="m 194.51896,150.76069 c -1.42538,-0.55265 -2.93548,-1.08671 -4.56655,-1.59879 -0.91534,1.91735 -2.11092,4.82061 -2.42542,7.40729 1.87906,0.36921 3.69964,0.83269 5.44559,1.40728 -0.49378,-2.73386 0.3349,-5.46977 1.54638,-7.21578"
         style="fill:#cd7247;fill-opacity:1;fill-rule:nonzero;stroke:none;stroke-width:0.201614"
         id="path1140" />
      <path
         d="m 135.49834,145.65583 c 0.39492,5.29643 3.15929,9.23193 4.33471,3.32663 0.59877,-3.01818 0.48407,-4.85284 0.27833,-6.36092 -1.76008,-0.92138 -3.43551,-2.08068 -4.9113,-3.2601 -0.0343,1.51409 0.0726,3.24398 0.29832,6.29439"
         style="fill:#824c3c;fill-opacity:1;fill-rule:nonzero;stroke:none;stroke-width:0.201614"
         id="path1142" />
      <path
         d="m 177.91197,149.37765 c 0.22574,-1.13106 0.34861,-2.0928 0.4052,-2.93754 -1.49397,-0.24804 -3.0827,-0.47607 -4.76014,-0.68347 0.006,0.10059 0.0119,0.19146 0.0228,0.29662 0.39549,5.29437 3.15935,9.22987 4.33271,3.32461"
         style="fill:#824c3c;fill-opacity:1;fill-rule:nonzero;stroke:none;stroke-width:0.201614"
         id="path1144" />
      <path
         d="m 152.43801,150.60341 c -0.49378,-1.93346 -1.02825,-4.1653 -1.66537,-6.14717 -1.37704,-0.012 -2.78226,-0.012 -4.24399,-0.004 -0.56237,0.002 -1.12902,-0.0583 -1.69755,-0.15146 1.03625,1.39923 2.7218,2.85891 3.46978,4.6815 1.94958,4.746 5.70568,7.7682 4.13713,1.62096"
         style="fill:#824c3c;fill-opacity:1;fill-rule:nonzero;stroke:none;stroke-width:0.201614"
         id="path1146" />
      <path
         d="m 170.35146,147.20621 c -0.0285,-0.58871 -0.0926,-1.20358 -0.17144,-1.82458 -1.38711,-0.13888 -2.83473,-0.26233 -4.34883,-0.37091 0.24175,0.50178 0.4172,1.01814 0.46751,1.55243 0.58469,6.22588 4.35287,6.62101 4.05248,0.64312"
         style="fill:#824c3c;fill-opacity:1;fill-rule:nonzero;stroke:none;stroke-width:0.201614"
         id="path1148" />
      <path
         d="m 161.76265,148.58732 c -0.12687,-0.9678 -0.69152,-2.46983 -1.4234,-3.89723 -1.38304,-0.0606 -2.82461,-0.11086 -4.30847,-0.14915 0.47149,2.68956 2.43347,5.43153 3.10482,6.06253 0.78834,0.74199 3.29239,3.12505 2.62705,-2.01609"
         style="fill:#824c3c;fill-opacity:1;fill-rule:nonzero;stroke:none;stroke-width:0.201614"
         id="path1150" />
      <path
         d="m 199.90815,153.03694 c -1.70567,-0.77016 -3.47384,-1.53632 -5.38919,-2.27625 -1.21171,1.74601 -2.04033,4.48192 -1.54638,7.21578 0.64718,0.21374 1.30041,0.42349 1.92747,0.6694 10.43152,4.09256 13.33476,-1.84881 5.0081,-5.60893"
         style="fill:#824c3c;fill-opacity:1;fill-rule:nonzero;stroke:none;stroke-width:0.201614"
         id="path1152" />
      <path
         d="m 182.7588,147.2788 c -1.13106,2.38106 -1.57661,5.70368 -1.63508,8.38112 2.18349,0.20175 4.32465,0.50008 6.40327,0.90927 0.31434,-2.58668 1.51008,-5.48994 2.42542,-7.40729 -2.15527,-0.67741 -4.52222,-1.31252 -7.19361,-1.8831"
         style="fill:#824c3c;fill-opacity:1;fill-rule:nonzero;stroke:none;stroke-width:0.201614"
         id="path1154" />
    </g>
  </g>
</svg>
