<?xml version="1.0" encoding="UTF-8" standalone="no"?>
<!-- Created with Inkscape (http://www.inkscape.org/) -->

<svg
   width="200mm"
   height="220mm"
   viewBox="0 0 200 220"
   version="1.1"
   id="svg5674"
   inkscape:version="1.2.1 (9c6d41e410, 2022-07-14)"
   sodipodi:docname="british-sh.svg"
   xmlns:inkscape="http://www.inkscape.org/namespaces/inkscape"
   xmlns:sodipodi="http://sodipodi.sourceforge.net/DTD/sodipodi-0.dtd"
   xmlns="http://www.w3.org/2000/svg"
   xmlns:svg="http://www.w3.org/2000/svg">
  <sodipodi:namedview
     id="namedview5676"
     pagecolor="#ffffff"
     bordercolor="#000000"
     borderopacity="0.25"
     inkscape:showpageshadow="2"
     inkscape:pageopacity="0.0"
     inkscape:pagecheckerboard="0"
     inkscape:deskcolor="#d1d1d1"
     inkscape:document-units="mm"
     showgrid="false"
     inkscape:zoom="0.49085999"
     inkscape:cx="423.74609"
     inkscape:cy="301.51164"
     inkscape:window-width="1366"
     inkscape:window-height="705"
     inkscape:window-x="-8"
     inkscape:window-y="-8"
     inkscape:window-maximized="1"
     inkscape:current-layer="layer1" />
  <defs
     id="defs5671" />
  <g
     inkscape:label="Layer 1"
     inkscape:groupmode="layer"
     id="layer1">
    <g
       id="g8445"
       transform="matrix(7.7230728,0,0,7.7230728,-1357.0117,-435.33862)">
      <path
         d="m 191.75408,77.778393 c 0,0 4.71287,-1.152172 7.17116,0.617714 0.68654,0.494242 0.90523,1.879247 -1.33974,0.962731 -2.83944,-1.159228 -6.9916,0.557388 -6.9916,0.557388 l 1.16018,-2.137833"
         style="fill:#5e7983;fill-opacity:1;fill-rule:nonzero;stroke:none;stroke-width:0.0352778"
         id="path2472" />
      <path
         d="m 180.70925,79.34261 c 0,0 -1.92681,0.497769 -2.22183,1.290814 -0.29489,0.792691 1.23818,1.176514 2.43032,0.807861 1.19228,-0.368653 -0.20849,-2.098675 -0.20849,-2.098675"
         style="fill:#4b646a;fill-opacity:1;fill-rule:nonzero;stroke:none;stroke-width:0.0352778"
         id="path2474" />
      <path
         d="m 189.53462,69.984474 c 0,0 2.16489,2.780242 2.62099,4.282016 0.82049,2.701573 0.69441,4.423834 -0.64216,5.758392 -1.492,1.489781 -1.86228,1.667933 -6.60795,1.416403 -1.30072,-0.06879 -2.51008,0.356658 -3.15641,0 -1.80248,-0.994481 -0.45875,-2.774597 -0.33016,-4.569178 0.0883,-1.232958 -1.26806,-2.511425 -1.11361,-3.392311 0.37937,-2.163586 9.2293,-3.495322 9.2293,-3.495322"
         style="fill:#4b646a;fill-opacity:1;fill-rule:nonzero;stroke:none;stroke-width:0.0352778"
         id="path2476" />
      <path
         d="m 178.68116,68.685899 c 0,0 -0.915,5.186892 1.23254,6.95713 2.14767,1.769886 5.75923,1.828095 8.19217,-0.19685 2.00861,-1.671461 1.42875,-7.710311 1.42875,-7.710311 l -10.85346,0.950031"
         style="fill:#5e7983;fill-opacity:1;fill-rule:nonzero;stroke:none;stroke-width:0.0352778"
         id="path2478" />
      <path
         d="m 179.45551,69.152977 c 0,0 0,3.595511 3.73736,4.179358 3.845,0.600075 5.09983,-2.827161 5.438,-4.179358 0.33831,-1.351845 -9.17536,0 -9.17536,0"
         style="fill:#9babac;fill-opacity:1;fill-rule:nonzero;stroke:none;stroke-width:0.0352778"
         id="path2480" />
      <path
         d="m 189.47313,63.162457 h -10.9026 c 0,0 -1.23747,3.499203 0.11063,5.523442 1.07322,1.611489 3.87107,1.099961 5.29759,1.105958 1.67171,0.0074 4.30929,0.877359 5.55587,-1.142647 1.33971,-2.170994 -0.0615,-5.486753 -0.0615,-5.486753"
         style="fill:#485e65;fill-opacity:1;fill-rule:nonzero;stroke:none;stroke-width:0.0352778"
         id="path2482" />
      <path
         d="m 185.81913,59.651613 c 0,0 2.81809,-2.433461 3.88747,-1.548694 1.22188,1.011413 -0.77435,4.314472 -0.77435,4.314472 l -3.11312,-2.765778"
         style="fill:#4b646a;fill-opacity:1;fill-rule:nonzero;stroke:none;stroke-width:0.0352778"
         id="path2484" />
      <path
         d="m 186.56066,59.873157 c 0,0 2.33479,-1.742722 2.97396,-1.069622 0.5111,0.538339 -0.82353,3.208161 -0.82353,3.208161 l -2.15043,-2.138539"
         style="fill:#798f94;fill-opacity:1;fill-rule:nonzero;stroke:none;stroke-width:0.0352778"
         id="path2486" />
      <path
         d="m 182.2004,59.651613 c 0,0 -2.81809,-2.433461 -3.88729,-1.548694 -1.22192,1.011413 0.77431,4.314472 0.77431,4.314472 l 3.11298,-2.765778"
         style="fill:#4b646a;fill-opacity:1;fill-rule:nonzero;stroke:none;stroke-width:0.0352778"
         id="path2488" />
      <path
         d="m 181.45904,59.873157 c 0,0 -2.33482,-1.742722 -2.97395,-1.069622 -0.51114,0.538339 0.82352,3.208161 0.82352,3.208161 l 2.15043,-2.138539"
         style="fill:#798f94;fill-opacity:1;fill-rule:nonzero;stroke:none;stroke-width:0.0352778"
         id="path2490" />
      <path
         d="m 189.53462,64.088852 c 0,1.509183 -0.63917,3.269544 -2.18793,3.63855 -1.22604,0.291747 -1.95502,1.425575 -3.36794,1.425575 -1.53416,0 -2.33217,-1.26612 -3.63826,-1.64712 -1.76996,-0.516114 -1.91742,-2.018241 -1.91742,-3.417005 0,-2.796822 2.48736,-5.064125 5.55568,-5.064125 3.0685,0 5.55587,2.267303 5.55587,5.064125"
         style="fill:#5e7983;fill-opacity:1;fill-rule:nonzero;stroke:none;stroke-width:0.0352778"
         id="path2492" />
      <path
         d="m 184.71726,63.843319 c 0,0 0.14041,-1.425928 1.44378,-1.425928 1.31462,0 1.44374,1.277408 1.44374,1.277408 0,0 -0.20158,0.611717 -1.11855,1.008592 -0.55862,0.242005 -1.59784,0 -1.76897,-0.860072"
         style="fill:#485e65;fill-opacity:1;fill-rule:nonzero;stroke:none;stroke-width:0.0352778"
         id="path2494" />
      <path
         d="m 183.19287,63.843319 c 0,0 -0.1404,-1.425928 -1.44378,-1.425928 -1.31476,0 -1.44377,1.277408 -1.44377,1.277408 0,0 0.20161,0.611717 1.11855,1.008592 0.55852,0.242005 1.59783,0 1.769,-0.860072"
         style="fill:#485e65;fill-opacity:1;fill-rule:nonzero;stroke:none;stroke-width:0.0352778"
         id="path2496" />
      <path
         d="m 182.9363,63.694799 c 0,0.557036 -0.45174,1.008592 -1.00902,1.008592 -0.55728,0 -1.00901,-0.451556 -1.00901,-1.008592 0,-0.557389 0.45173,-1.009297 1.00901,-1.009297 0.55728,0 1.00902,0.451908 1.00902,1.009297"
         style="fill:#f7922c;fill-opacity:1;fill-rule:nonzero;stroke:none;stroke-width:0.0352778"
         id="path2498" />
      <path
         d="m 187.03938,63.694799 c 0,0.557036 -0.45173,1.008592 -1.00898,1.008592 -0.55714,0 -1.00887,-0.451556 -1.00887,-1.008592 0,-0.557389 0.45173,-1.009297 1.00887,-1.009297 0.55725,0 1.00898,0.451908 1.00898,1.009297"
         style="fill:#f7922c;fill-opacity:1;fill-rule:nonzero;stroke:none;stroke-width:0.0352778"
         id="path2500" />
      <path
         d="m 181.59585,63.706088 c 0,0.413103 0.14841,0.748242 0.33143,0.748242 0.18299,0 0.3313,-0.335139 0.3313,-0.748242 0,-0.413103 -0.14831,-0.747889 -0.3313,-0.747889 -0.18302,0 -0.33143,0.334786 -0.33143,0.747889"
         style="fill:#343434;fill-opacity:1;fill-rule:nonzero;stroke:none;stroke-width:0.0352778"
         id="path2502" />
      <path
         d="m 185.69911,63.706088 c 0,0.413103 0.14827,0.748242 0.33129,0.748242 0.18299,0 0.3314,-0.335139 0.3314,-0.748242 0,-0.413103 -0.14841,-0.747889 -0.3314,-0.747889 -0.18302,0 -0.33129,0.334786 -0.33129,0.747889"
         style="fill:#343434;fill-opacity:1;fill-rule:nonzero;stroke:none;stroke-width:0.0352778"
         id="path2504" />
      <path
         d="m 180.91827,66.506791 c 0,0.678744 0.73339,1.229077 1.63794,1.229077 0.9047,0 1.63809,-0.550333 1.63809,-1.229077 0,-0.678745 -0.73339,-1.229078 -1.63809,-1.229078 -0.90455,0 -1.63794,0.550333 -1.63794,1.229078"
         style="fill:#9babac;fill-opacity:1;fill-rule:nonzero;stroke:none;stroke-width:0.0352778"
         id="path2506" />
      <path
         d="m 183.76338,66.506791 c 0,0.678744 0.73339,1.229077 1.63806,1.229077 0.9047,0 1.63794,-0.550333 1.63794,-1.229077 0,-0.678745 -0.73324,-1.229078 -1.63794,-1.229078 -0.90467,0 -1.63806,0.550333 -1.63806,1.229078"
         style="fill:#9babac;fill-opacity:1;fill-rule:nonzero;stroke:none;stroke-width:0.0352778"
         id="path2508" />
      <path
         d="m 184.69175,65.342624 c -0.19692,-0.314678 -0.81124,-0.282575 -0.81124,-0.282575 0,0 -0.65141,-0.01976 -0.84819,0.294922 -0.19678,0.315031 0.84819,0.649817 0.84819,0.649817 0,0 1.00802,-0.347133 0.81124,-0.662164"
         style="fill:#343434;fill-opacity:1;fill-rule:nonzero;stroke:none;stroke-width:0.0352778"
         id="path2510" />
      <path
         d="m 186.01111,63.195619 c 0,0.131233 0.10636,0.237419 0.23756,0.237419 0.1312,0 0.23756,-0.106186 0.23756,-0.237419 0,-0.131234 -0.10636,-0.23742 -0.23756,-0.23742 -0.1312,0 -0.23756,0.106186 -0.23756,0.23742"
         style="fill:#ffffff;fill-opacity:1;fill-rule:nonzero;stroke:none;stroke-width:0.0352778"
         id="path2512" />
      <path
         d="m 181.92728,63.195619 c 0,0.131233 0.1064,0.237419 0.23756,0.237419 0.1312,0 0.2376,-0.106186 0.2376,-0.237419 0,-0.131234 -0.1064,-0.23742 -0.2376,-0.23742 -0.13116,0 -0.23756,0.106186 -0.23756,0.23742"
         style="fill:#ffffff;fill-opacity:1;fill-rule:nonzero;stroke:none;stroke-width:0.0352778"
         id="path2514" />
      <path
         d="m 182.05146,66.113443 c 0,0.05997 -0.0486,0.109009 -0.10876,0.109009 -0.0602,0 -0.10883,-0.04904 -0.10883,-0.109009 0,-0.05997 0.0486,-0.108655 0.10883,-0.108655 0.0601,0 0.10876,0.04868 0.10876,0.108655"
         style="fill:#485e65;fill-opacity:1;fill-rule:nonzero;stroke:none;stroke-width:0.0352778"
         id="path2516" />
      <path
         d="m 181.5278,66.620385 c 0,0.06033 -0.0487,0.109008 -0.10887,0.109008 -0.0601,0 -0.10887,-0.04868 -0.10887,-0.109008 0,-0.05997 0.0488,-0.108655 0.10887,-0.108655 0.0602,0 0.10887,0.04868 0.10887,0.108655"
         style="fill:#485e65;fill-opacity:1;fill-rule:nonzero;stroke:none;stroke-width:0.0352778"
         id="path2518" />
      <path
         d="m 182.75536,66.838049 c 0,0.06033 -0.0488,0.109008 -0.10901,0.109008 -0.0601,0 -0.10873,-0.04868 -0.10873,-0.109008 0,-0.05997 0.0487,-0.108656 0.10873,-0.108656 0.0602,0 0.10901,0.04868 0.10901,0.108656"
         style="fill:#485e65;fill-opacity:1;fill-rule:nonzero;stroke:none;stroke-width:0.0352778"
         id="path2520" />
      <path
         d="m 182.16043,66.838049 c 0,0.06033 -0.0487,0.109008 -0.10897,0.109008 -0.0601,0 -0.10876,-0.04868 -0.10876,-0.109008 0,-0.05997 0.0487,-0.108656 0.10876,-0.108656 0.0602,0 0.10897,0.04868 0.10897,0.108656"
         style="fill:#485e65;fill-opacity:1;fill-rule:nonzero;stroke:none;stroke-width:0.0352778"
         id="path2522" />
      <path
         d="m 185.81913,66.149427 c 0,0.05997 0.0488,0.108655 0.10886,0.108655 0.0602,0 0.10887,-0.04868 0.10887,-0.108655 0,-0.06033 -0.0486,-0.109009 -0.10887,-0.109009 -0.0601,0 -0.10886,0.04868 -0.10886,0.109009"
         style="fill:#485e65;fill-opacity:1;fill-rule:nonzero;stroke:none;stroke-width:0.0352778"
         id="path2524" />
      <path
         d="m 186.34293,66.656368 c 0,0.05997 0.0488,0.108656 0.10887,0.108656 0.0601,0 0.10886,-0.04868 0.10886,-0.108656 0,-0.05997 -0.0488,-0.109008 -0.10886,-0.109008 -0.0601,0 -0.10887,0.04904 -0.10887,0.109008"
         style="fill:#485e65;fill-opacity:1;fill-rule:nonzero;stroke:none;stroke-width:0.0352778"
         id="path2526" />
      <path
         d="m 185.11551,66.874032 c 0,0.05997 0.0487,0.109009 0.10887,0.109009 0.0601,0 0.10887,-0.04904 0.10887,-0.109009 0,-0.05997 -0.0488,-0.109008 -0.10887,-0.109008 -0.0602,0 -0.10887,0.04904 -0.10887,0.109008"
         style="fill:#485e65;fill-opacity:1;fill-rule:nonzero;stroke:none;stroke-width:0.0352778"
         id="path2528" />
      <path
         d="m 185.71026,66.874032 c 0,0.05997 0.0488,0.109009 0.10887,0.109009 0.0602,0 0.10886,-0.04904 0.10886,-0.109009 0,-0.05997 -0.0486,-0.109008 -0.10886,-0.109008 -0.0601,0 -0.10887,0.04904 -0.10887,0.109008"
         style="fill:#485e65;fill-opacity:1;fill-rule:nonzero;stroke:none;stroke-width:0.0352778"
         id="path2530" />
      <path
         d="m 179.14104,74.644668 c 0,0 0.0952,2.662767 0.91775,4.334581 0.82258,1.671814 0.68365,2.145594 0.24653,2.39148 -0.36322,0.204611 -1.16428,0.663928 -0.93388,1.381125 0.27118,0.844903 2.02445,0.630767 2.46243,0.05715 1.02002,-1.337028 0.92149,-4.594225 0.7772,-5.94995 -1.99443,-0.281164 -3.47003,-2.214386 -3.47003,-2.214386"
         style="fill:#5e7983;fill-opacity:1;fill-rule:nonzero;stroke:none;stroke-width:0.0352778"
         id="path2532" />
      <path
         d="m 188.71991,74.644668 c 0,0 -0.0952,2.662767 -0.91778,4.334581 -0.82254,1.671814 -0.68365,2.145594 -0.24653,2.39148 0.36326,0.204611 1.16431,0.663928 0.93391,1.381125 -0.27121,0.844903 -2.02448,0.630767 -2.46242,0.05715 -1.02002,-1.337028 -1.25416,-4.271786 -1.05833,-5.936897 1.92387,-0.221192 3.75115,-2.227439 3.75115,-2.227439"
         style="fill:#5e7983;fill-opacity:1;fill-rule:nonzero;stroke:none;stroke-width:0.0352778"
         id="path2534" />
      <path
         d="m 189.19754,80.190688 c -0.42348,0.246238 -1.12889,1.734608 0.21911,1.816805 1.348,0.0822 2.528,-0.08361 2.04872,-1.152878 -0.47943,-1.069269 -1.47503,-1.124655 -2.26783,-0.663927"
         style="fill:#5e7983;fill-opacity:1;fill-rule:nonzero;stroke:none;stroke-width:0.0352778"
         id="path2536" />
    </g>
  </g>
</svg>
