<?xml version="1.0" encoding="UTF-8" standalone="no"?>
<!-- Created with Inkscape (http://www.inkscape.org/) -->

<svg
   width="210mm"
   height="160mm"
   viewBox="0 0 210 160"
   version="1.1"
   id="svg7154"
   inkscape:version="1.2.1 (9c6d41e410, 2022-07-14)"
   sodipodi:docname="burmese.svg"
   xmlns:inkscape="http://www.inkscape.org/namespaces/inkscape"
   xmlns:sodipodi="http://sodipodi.sourceforge.net/DTD/sodipodi-0.dtd"
   xmlns="http://www.w3.org/2000/svg"
   xmlns:svg="http://www.w3.org/2000/svg">
  <sodipodi:namedview
     id="namedview7156"
     pagecolor="#ffffff"
     bordercolor="#000000"
     borderopacity="0.25"
     inkscape:showpageshadow="2"
     inkscape:pageopacity="0.0"
     inkscape:pagecheckerboard="0"
     inkscape:deskcolor="#d1d1d1"
     inkscape:document-units="mm"
     showgrid="false"
     inkscape:zoom="0.49085999"
     inkscape:cx="143.62548"
     inkscape:cy="399.2992"
     inkscape:window-width="1366"
     inkscape:window-height="705"
     inkscape:window-x="-8"
     inkscape:window-y="-8"
     inkscape:window-maximized="1"
     inkscape:current-layer="layer1" />
  <defs
     id="defs7151" />
  <g
     inkscape:label="Layer 1"
     inkscape:groupmode="layer"
     id="layer1">
    <g
       id="g7394"
       transform="matrix(1.2833876,0,0,1.2833876,-31.278997,-50.053048)">
      <path
         d="m 96.561761,122.90459 c 0,0 -19.158324,-2.72226 -39.512054,1.55621 -14.725864,3.09623 -16.529947,5.62342 -20.956504,8.65658 -3.320666,2.27489 -3.685915,6.49465 4.868015,3.78856 15.783443,-4.99419 40.219019,-6.34651 40.219019,-6.34651 l 15.381524,-7.65484"
         style="fill:#95715d;fill-opacity:1;fill-rule:nonzero;stroke:none;stroke-width:0.146673"
         id="path508" />
      <path
         d="m 128.17259,109.38727 c 0,0 -12.27792,-3.90735 -29.21125,7.62108 -16.934773,11.52697 -21.521233,11.99783 -27.235577,14.23164 -1.408068,0.54852 -6.874534,3.13146 -8.194585,5.62192 -2.198602,4.14937 0.809617,9.06142 7.911491,7.31163 5.721703,-1.40952 10.641106,-2.53009 14.183208,-4.72873 5.947589,-3.69174 8.19313,-4.7595 12.077033,-6.32743 -0.22285,3.36465 1.50486,11.88191 11.31281,12.36154 11.63258,0.56764 45.22349,-0.10727 58.2113,-0.10727 13.58921,0 12.78105,-23.11411 8.33249,-29.86687 -4.44714,-6.7528 -11.85701,-12.28824 -11.85701,-12.28824 l -35.52991,6.17053"
         style="fill:#c0976c;fill-opacity:1;fill-rule:nonzero;stroke:none;stroke-width:0.146673"
         id="path510" />
      <path
         d="m 132.48623,98.445532 c 0,0 -8.46005,13.272348 -3.58613,22.741538 4.87392,9.47061 13.67132,12.52726 21.95393,11.36271 8.28255,-1.1646 13.13157,-6.89653 16.12661,-13.52173 3.73867,-8.26647 -2.67823,-23.994118 -2.67823,-23.994118 l -31.81618,3.4116"
         style="fill:#d0aa80;fill-opacity:1;fill-rule:nonzero;stroke:none;stroke-width:0.146673"
         id="path512" />
      <path
         d="m 156.64316,65.937059 c 0,0 11.52407,-6.980138 15.59714,-9.593839 4.07307,-2.612246 6.22769,-0.5412 4.87392,4.254971 -1.26138,4.467634 -4.50726,17.481881 -8.1227,20.447611 -3.61694,2.96569 -12.34836,-15.108743 -12.34836,-15.108743"
         style="fill:#95715d;fill-opacity:1;fill-rule:nonzero;stroke:none;stroke-width:0.146673"
         id="path514" />
      <path
         d="m 137.81042,66.429864 c 0,0 -11.52402,-6.980096 -15.59714,-9.592342 -4.07307,-2.612246 -6.22769,-0.541242 -4.87392,4.253474 1.26139,4.467634 4.50726,17.483336 8.1242,20.449066 3.61694,2.96573 12.34686,-15.110198 12.34686,-15.110198"
         style="fill:#95715d;fill-opacity:1;fill-rule:nonzero;stroke:none;stroke-width:0.146673"
         id="path516" />
      <path
         d="m 158.77869,66.633754 c 0,0 3.04053,-1.760053 6.89657,-4.197761 3.85746,-2.436211 8.73138,-6.227688 9.67891,-5.280204 0.94748,0.948982 -0.37835,5.330096 -1.48873,9.477965 -2.03142,7.581498 -4.739,10.859628 -5.28021,11.318718 -0.54269,0.46054 -9.80654,-11.318718 -9.80654,-11.318718"
         style="fill:#d0aa80;fill-opacity:1;fill-rule:nonzero;stroke:none;stroke-width:0.146673"
         id="path518" />
      <path
         d="m 136.07532,67.930356 c 0,0 -3.04053,-1.760095 -6.89803,-4.197761 -3.856,-2.436253 -8.72993,-6.22773 -9.67741,-5.280204 -0.94898,0.947485 0.3771,5.330053 1.48873,9.477965 2.03138,7.581456 4.73896,10.858136 5.2802,11.318676 0.5412,0.46054 9.80651,-11.318676 9.80651,-11.318676"
         style="fill:#d0aa80;fill-opacity:1;fill-rule:nonzero;stroke:none;stroke-width:0.146673"
         id="path520" />
      <path
         d="m 170.60344,83.542132 c 0,8.38234 -4.26229,10.91538 -11.26738,18.026028 -4.46322,4.5307 -6.81586,7.04176 -12.13419,7.04176 -5.31833,0 -9.48528,-3.87804 -12.88516,-8.00979 -5.86252,-7.123858 -9.08635,-8.674198 -9.08635,-17.015468 0,-12.829397 10.35651,-19.384208 22.59341,-19.384208 12.2354,0 22.77967,6.512278 22.77967,19.341678"
         style="fill:#e4c7a2;fill-opacity:1;fill-rule:nonzero;stroke:none;stroke-width:0.146673"
         id="path522" />
      <path
         d="m 158.22136,72.987582 c -3.108,-0.66734 -3.57145,-5.658586 -10.65719,-5.658586 -6.12945,0 -7.34389,4.719916 -11.03127,5.677676 -6.09863,1.5826 -10.02061,7.53896 -5.99303,13.46452 4.78008,7.03439 6.53282,10.6616 10.25241,9.81677 5.32274,-1.20859 6.5944,0 6.5944,0 v -0.0333 c 0.16713,-0.13346 1.60314,-1.11325 6.57531,0.0167 3.71963,0.84484 5.47236,-2.78092 10.2524,-9.81531 4.02909,-5.92705 -1.03259,-12.39971 -5.99303,-13.46602"
         style="fill:#95715d;fill-opacity:1;fill-rule:nonzero;stroke:none;stroke-width:0.146673"
         id="path524" />
      <path
         d="m 141.40246,82.211812 c 0,2.35264 -1.90824,4.25938 -4.25938,4.25938 -2.35264,0 -4.26083,-1.90674 -4.26083,-4.25938 0,-2.3526 1.90819,-4.25934 4.26083,-4.25934 2.35114,0 4.25938,1.90674 4.25938,4.25934"
         style="fill:#f3ca3d;fill-opacity:1;fill-rule:nonzero;stroke:none;stroke-width:0.146673"
         id="path526" />
      <path
         d="m 136.07532,82.211812 c 0,1.57379 0.47667,2.8484 1.06776,2.8484 0.58964,0 1.06777,-1.27461 1.06777,-2.8484 0,-1.5723 -0.47813,-2.8469 -1.06777,-2.8469 -0.59109,0 -1.06776,1.2746 -1.06776,2.8469"
         style="fill:#343434;fill-opacity:1;fill-rule:nonzero;stroke:none;stroke-width:0.146673"
         id="path528" />
      <path
         d="m 139.47368,81.045802 c 0,0.64385 -0.52215,1.16601 -1.166,1.16601 -0.6439,0 -1.1646,-0.52216 -1.1646,-1.16601 0,-0.6439 0.5207,-1.1646 1.1646,-1.1646 0.64385,0 1.166,0.5207 1.166,1.1646"
         style="fill:#ffffff;fill-opacity:1;fill-rule:nonzero;stroke:none;stroke-width:0.146673"
         id="path530" />
      <path
         d="m 153.45159,82.211812 c 0,2.35264 1.90674,4.25938 4.25934,4.25938 2.35264,0 4.25938,-1.90674 4.25938,-4.25938 0,-2.3526 -1.90674,-4.25934 -4.25938,-4.25934 -2.3526,0 -4.25934,1.90674 -4.25934,4.25934"
         style="fill:#f3ca3d;fill-opacity:1;fill-rule:nonzero;stroke:none;stroke-width:0.146673"
         id="path532" />
      <path
         d="m 158.77869,82.211812 c 0,1.57379 -0.47813,2.8484 -1.06776,2.8484 -0.5896,0 -1.06777,-1.27461 -1.06777,-2.8484 0,-1.5723 0.47817,-2.8469 1.06777,-2.8469 0.58963,0 1.06776,1.2746 1.06776,2.8469"
         style="fill:#343434;fill-opacity:1;fill-rule:nonzero;stroke:none;stroke-width:0.146673"
         id="path534" />
      <path
         d="m 155.37887,81.045802 c 0,0.64385 0.52211,1.16601 1.16601,1.16601 0.64389,0 1.16605,-0.52216 1.16605,-1.16601 0,-0.6439 -0.52216,-1.1646 -1.16605,-1.1646 -0.6439,0 -1.16601,0.5207 -1.16601,1.1646"
         style="fill:#ffffff;fill-opacity:1;fill-rule:nonzero;stroke:none;stroke-width:0.146673"
         id="path536" />
      <path
         d="m 137.81042,98.445532 c 0,3.019978 2.44798,5.467918 5.46797,5.467918 3.01998,0 5.46646,-2.44794 5.46646,-5.467918 0,-3.01999 -2.44648,-5.46647 -5.46646,-5.46647 -3.01999,0 -5.46797,2.44648 -5.46797,5.46647"
         style="fill:#d0aa80;fill-opacity:1;fill-rule:nonzero;stroke:none;stroke-width:0.146673"
         id="path538" />
      <path
         d="m 146.37022,98.445532 c 0,3.019978 2.44797,5.467918 5.46795,5.467918 3.01854,0 5.46648,-2.44794 5.46648,-5.467918 0,-3.01999 -2.44794,-5.46647 -5.46648,-5.46647 -3.01998,0 -5.46795,2.44648 -5.46795,5.46647"
         style="fill:#d0aa80;fill-opacity:1;fill-rule:nonzero;stroke:none;stroke-width:0.146673"
         id="path540" />
      <path
         d="m 146.37022,95.950612 c 0,0 1.41834,3.58908 -0.50599,7.311618 1.52245,1.87447 3.39837,0.004 3.39837,0.004 0,0 -2.06073,-4.234428 -0.51775,-7.464118 0.86833,-1.81582 -2.37463,0.14676 -2.37463,0.14676"
         style="fill:#835c49;fill-opacity:1;fill-rule:nonzero;stroke:none;stroke-width:0.146673"
         id="path542" />
      <path
         d="m 147.38668,92.122462 c -0.92404,0 -3.47176,0.025 -3.46735,1.27752 0.008,2.071 3.46735,2.88798 3.46735,2.88798 0,0 3.45999,-0.81698 3.46735,-2.88798 0.004,-1.25257 -2.54332,-1.27752 -3.46735,-1.27752"
         style="fill:#343434;fill-opacity:1;fill-rule:nonzero;stroke:none;stroke-width:0.146673"
         id="path544" />
      <path
         d="m 97.70291,133.11738 c -2.502236,-1.53712 -9.508775,-1.65445 -15.042719,0.6747 -4.642172,1.95367 -6.303981,5.59406 -4.609909,8.69034 2.393679,4.37817 22.735638,-0.87564 22.735638,-0.87564 0,0 -3.09478,-5.12475 -3.08301,-8.4894"
         style="fill:#d0aa80;fill-opacity:1;fill-rule:nonzero;stroke:none;stroke-width:0.146673"
         id="path546" />
      <path
         d="m 122.03438,137.32836 c 0,0 7.13118,-6.04583 12.59474,-2.32769 5.46206,3.71667 6.56213,9.20809 4.44418,11.26296 -1.12351,1.09126 -17.25163,2.28367 -18.52328,-0.56469 -1.77764,-3.98364 -0.44732,-6.63988 1.48436,-8.37058"
         style="fill:#d0aa80;fill-opacity:1;fill-rule:nonzero;stroke:none;stroke-width:0.146673"
         id="path548" />
      <path
         d="m 171.1021,137.32836 c 0,0 -7.13263,-6.04583 -12.59474,-2.32769 -5.46355,3.71667 -6.56213,9.20809 -4.44564,11.26296 1.12352,1.09126 17.25159,2.28367 18.52325,-0.56469 1.77914,-3.98364 0.44736,-6.63988 -1.48287,-8.37058"
         style="fill:#d0aa80;fill-opacity:1;fill-rule:nonzero;stroke:none;stroke-width:0.146673"
         id="path550" />
    </g>
  </g>
</svg>
