<?xml version="1.0" encoding="UTF-8" standalone="no"?>
<!-- Created with Inkscape (http://www.inkscape.org/) -->

<svg
   width="210mm"
   height="210mm"
   viewBox="0 0 210 210"
   version="1.1"
   id="svg7562"
   inkscape:version="1.2.1 (9c6d41e410, 2022-07-14)"
   sodipodi:docname="cornish rex.svg"
   xmlns:inkscape="http://www.inkscape.org/namespaces/inkscape"
   xmlns:sodipodi="http://sodipodi.sourceforge.net/DTD/sodipodi-0.dtd"
   xmlns="http://www.w3.org/2000/svg"
   xmlns:svg="http://www.w3.org/2000/svg">
  <sodipodi:namedview
     id="namedview7564"
     pagecolor="#ffffff"
     bordercolor="#000000"
     borderopacity="0.25"
     inkscape:showpageshadow="2"
     inkscape:pageopacity="0.0"
     inkscape:pagecheckerboard="0"
     inkscape:deskcolor="#d1d1d1"
     inkscape:document-units="mm"
     showgrid="false"
     inkscape:zoom="0.34709043"
     inkscape:cx="857.12534"
     inkscape:cy="521.47794"
     inkscape:window-width="1366"
     inkscape:window-height="705"
     inkscape:window-x="-8"
     inkscape:window-y="-8"
     inkscape:window-maximized="1"
     inkscape:current-layer="layer1" />
  <defs
     id="defs7559" />
  <g
     inkscape:label="Layer 1"
     inkscape:groupmode="layer"
     id="layer1">
    <g
       id="g27205"
       transform="translate(-16.27949,-9.5828459)">
      <path
         d="m 157.65429,174.01496 c -2.43501,-0.79622 -6.17015,-8.82886 -8.93771,-15.60971 h -12.50955 c 3.18284,5.47061 6.45636,11.11869 8.86714,16.54096 2.39468,5.38598 2.79579,9.78633 6.26284,10.27812 2.68899,0.38283 10.03425,0.46168 13.25332,-0.37711 5.74082,-1.4916 4.69667,-6.31323 1.99762,-8.98 -2.34834,-2.31805 -7.11551,-1.25779 -8.93366,-1.85243"
         style="fill:#ebdddc;fill-opacity:1;fill-rule:nonzero;stroke:none;stroke-width:0.201572"
         id="path846" />
      <path
         d="m 173.25389,69.876907 c 0,0 0.29655,-4.44063 1.81821,-7.631528 3.93872,-8.252337 10.83248,-14.948566 13.94475,-18.163633 3.11222,-3.217067 8.7643,-4.468857 7.09934,4.553536 -1.66501,9.020335 -0.31654,19.961609 -1.04009,21.683077 -1.57633,3.739141 -2.7051,5.506948 -2.23143,9.219863 0.28627,2.231429 -1.4856,6.188268 -3.23318,7.722207 -1.74763,1.533996 -16.3576,-17.383522 -16.3576,-17.383522"
         style="fill:#383838;fill-opacity:1;fill-rule:nonzero;stroke:none;stroke-width:0.201572"
         id="path848" />
      <path
         d="m 175.28374,70.675132 c 0,0 3.54361,-12.608346 8.16566,-17.778635 4.6241,-5.172345 7.56302,-8.365243 9.36705,-6.657945 1.80209,1.707354 -0.68532,7.040945 -0.89696,10.901048 -0.21199,3.860103 -1.78192,20.465571 -4.18465,23.051715 -2.40273,2.586201 -12.4511,-9.516183 -12.4511,-9.516183"
         style="fill:#f8c0c2;fill-opacity:1;fill-rule:nonzero;stroke:none;stroke-width:0.201572"
         id="path850" />
      <path
         d="m 148.95445,69.330663 c 0,0 -0.48797,-4.424517 -2.14475,-7.546848 -4.29145,-8.07498 -11.46941,-14.466832 -14.71676,-17.544824 -3.24729,-3.077992 -8.94977,-4.083858 -6.89575,4.855856 2.05201,8.939713 1.17716,19.929383 1.97539,21.618567 1.73552,3.666576 2.94091,5.385987 2.62648,9.115072 -0.1897,2.241484 1.75164,6.117701 3.56378,7.575075 1.81215,1.457373 15.59161,-18.072898 15.59161,-18.072898"
         style="fill:#383838;fill-opacity:1;fill-rule:nonzero;stroke:none;stroke-width:0.201572"
         id="path852" />
      <path
         d="m 146.96089,70.21351 c 0,0 -4.08386,-12.440987 -8.9256,-17.407749 -4.84175,-4.966704 -7.91574,-8.030583 -9.64521,-6.248719 -1.72746,1.78392 0.9897,7.006661 1.36664,10.854651 0.37711,3.845991 2.66277,20.368836 5.1764,22.848188 2.51158,2.479295 12.02777,-10.046371 12.02777,-10.046371"
         style="fill:#f8c0c2;fill-opacity:1;fill-rule:nonzero;stroke:none;stroke-width:0.201572"
         id="path854" />
      <path
         d="m 169.34436,114.20294 c -1.20745,5.0151 -17.55454,-4.85284 -17.55454,-4.85284 0,0 1.28838,0.29737 -20.04759,0.34329 -5.71713,0.0123 -9.63315,1.72747 -15.75085,4.79335 -4.91431,2.46324 -16.506676,-5.76293 -35.039195,-3.37431 -27.956024,3.60212 -34.952572,34.7127 -32.148731,50.32241 3.261464,18.16164 9.260203,21.49161 30.693357,21.95723 21.433149,0.46568 21.491609,-16.42405 32.386539,-15.89998 11.24971,0.53996 23.00338,-2.64865 34.89812,-5.44444 11.89474,-2.79584 17.91371,-9.4215 19.45371,-16.93607 2.24754,-10.96755 8.47419,-23.68237 7.20661,-26.62173"
         style="fill:#ebdddc;fill-opacity:1;fill-rule:nonzero;stroke:none;stroke-width:0.201572"
         id="path856"
         sodipodi:nodetypes="ccscccccccc" />
      <path
         d="m 174.9028,103.47084 -27.65571,1.82626 c 0,0 1.438,3.66697 -4.61925,4.15276 1.62612,4.70516 1.67628,4.78957 4.26117,8.77938 7.01472,4.98687 14.03228,9.07679 23.97683,-1.67404 1.36879,-7.22524 4.03696,-13.08436 4.03696,-13.08436"
         style="fill:#e3d1d0;fill-opacity:1;fill-rule:nonzero;stroke:none;stroke-width:0;stroke-dasharray:none"
         id="path858"
         sodipodi:nodetypes="cccccc" />
      <path
         d="m 189.51876,89.213707 c 0,10.399087 -5.28925,13.543593 -13.98104,22.364393 -5.53718,5.6198 -8.45592,8.73608 -15.05542,8.73608 -6.59743,0 -11.76572,-4.81152 -15.9846,-9.93747 -7.27475,-8.83892 -11.27393,-10.761916 -11.27393,-21.110607 0,-15.918148 12.85021,-24.049524 28.03059,-24.049524 15.18237,0 28.2644,8.07898 28.2644,23.997128"
         style="fill:#ebdddc;fill-opacity:1;fill-rule:nonzero;stroke:none;stroke-width:0.201572"
         id="path860" />
      <path
         d="m 175.95079,104.82761 c -7.42374,-5.346707 -7.8605,-26.341417 -15.26853,-26.476172 -6.59634,-0.11999 -4.43319,15.513165 -12.91512,26.013372 -5.22252,6.03031 -15.01718,-4.534452 -15.01718,-14.883143 0,-15.918148 12.85021,-24.049524 28.03059,-24.049524 15.18237,0 26.79365,6.019122 28.9906,21.841629 0.91678,8.478359 -5.12238,19.501788 -13.82036,17.553838 z"
         style="fill:#343434;fill-opacity:1;fill-rule:nonzero;stroke:none;stroke-width:0.201572"
         id="path14949"
         sodipodi:nodetypes="cscsscc" />
      <path
         d="m 138.33766,83.853891 c 0,0 7.68793,-6.522871 12.81187,-1.862543 5.12601,4.658328 3.9609,11.150972 3.9609,11.150972 0,0 -6.98849,3.759311 -12.11444,0 -4.49908,-3.29769 -4.65833,-9.288429 -4.65833,-9.288429"
         style="fill:#2c2c2c;fill-opacity:1;fill-rule:nonzero;stroke:none;stroke-width:0.201572"
         id="path862" />
      <path
         d="m 152.53234,87.562806 c 0,2.918747 -2.36644,5.285194 -5.28525,5.285194 -2.91875,0 -5.28519,-2.366447 -5.28519,-5.285194 0,-2.918748 2.36644,-5.285194 5.28519,-5.285194 2.91881,0 5.28525,2.366446 5.28525,5.285194"
         style="fill:#ebe694;fill-opacity:1;fill-rule:nonzero;stroke:none;stroke-width:0.201572"
         id="path864" />
      <path
         d="m 145.92279,87.562806 c 0,1.951221 0.59264,3.533557 1.3243,3.533557 0.73172,0 1.32436,-1.582336 1.32436,-3.533557 0,-1.951222 -0.59264,-3.531558 -1.32436,-3.531558 -0.73166,0 -1.3243,1.580336 -1.3243,3.531558"
         style="fill:#343434;fill-opacity:1;fill-rule:nonzero;stroke:none;stroke-width:0.201572"
         id="path866" />
      <path
         d="m 150.13967,86.117545 c 0,0.798225 -0.64704,1.445261 -1.44526,1.445261 -0.80023,0 -1.44732,-0.647036 -1.44732,-1.445261 0,-0.800224 0.64709,-1.447317 1.44732,-1.447317 0.79822,0 1.44526,0.647093 1.44526,1.447317"
         style="fill:#ffffff;fill-opacity:1;fill-rule:nonzero;stroke:none;stroke-width:0.201572"
         id="path868" />
      <path
         d="m 183.12285,83.853891 c 0,0 -7.68792,-6.522871 -12.81387,-1.862543 -5.12601,4.658328 -3.9609,11.150972 -3.9609,11.150972 0,0 6.99049,3.759311 12.11444,0 4.49909,-3.29769 4.66033,-9.288429 4.66033,-9.288429"
         style="fill:#2c2c2c;fill-opacity:1;fill-rule:nonzero;stroke:none;stroke-width:0.201572"
         id="path870" />
      <path
         d="m 168.92817,87.562806 c 0,2.918747 2.36645,5.285194 5.28525,5.285194 2.91875,0 5.28319,-2.366447 5.28319,-5.285194 0,-2.918748 -2.36444,-5.285194 -5.28319,-5.285194 -2.9188,0 -5.28525,2.366446 -5.28525,5.285194"
         style="fill:#ebe694;fill-opacity:1;fill-rule:nonzero;stroke:none;stroke-width:0.201572"
         id="path872" />
      <path
         d="m 175.53772,87.562806 c 0,1.951221 -0.59264,3.533557 -1.3243,3.533557 -0.73172,0 -1.32636,-1.582336 -1.32636,-3.533557 0,-1.951222 0.59464,-3.531558 1.32636,-3.531558 0.73166,0 1.3243,1.580336 1.3243,3.531558"
         style="fill:#343434;fill-opacity:1;fill-rule:nonzero;stroke:none;stroke-width:0.201572"
         id="path874" />
      <path
         d="m 171.31884,86.117545 c 0,0.798225 0.64904,1.445261 1.44726,1.445261 0.79823,0 1.44732,-0.647036 1.44732,-1.445261 0,-0.800224 -0.64909,-1.447317 -1.44732,-1.447317 -0.79822,0 -1.44726,0.647093 -1.44726,1.447317"
         style="fill:#ffffff;fill-opacity:1;fill-rule:nonzero;stroke:none;stroke-width:0.201572"
         id="path876" />
      <path
         d="m 148.83148,107.70389 c 0,3.74519 3.03766,6.78285 6.78291,6.78285 3.7472,0 6.78491,-3.03766 6.78491,-6.78285 0,-3.74726 -3.03771,-6.78291 -6.78491,-6.78291 -3.74525,0 -6.78291,3.03565 -6.78291,6.78291"
         style="fill:#f8c0c2;fill-opacity:1;fill-rule:nonzero;stroke:none;stroke-width:0.201572"
         id="path880" />
      <path
         d="m 159.45227,107.70389 c 0,3.74519 3.03571,6.78285 6.78291,6.78285 3.74519,0 6.7829,-3.03766 6.7829,-6.78285 0,-3.74726 -3.03771,-6.78291 -6.7829,-6.78291 -3.7472,0 -6.78291,3.03565 -6.78291,6.78291"
         style="fill:#f8c0c2;fill-opacity:1;fill-rule:nonzero;stroke:none;stroke-width:0.201572"
         id="path882" />
      <path
         d="m 160.71211,99.858718 c -1.14694,0 -4.30761,0.02857 -4.30155,1.586332 0.006,2.56803 4.30155,3.58196 4.30155,3.58196 0,0 4.2935,-1.01393 4.30156,-3.58196 0.006,-1.556106 -3.15462,-1.586332 -4.30156,-1.586332"
         style="fill:#343434;fill-opacity:1;fill-rule:nonzero;stroke:none;stroke-width:0.201572"
         id="path886" />
      <path
         d="m 119.16011,130.91485 c -7.42589,-3.84599 -21.924948,-10.60067 -21.666968,3.02965 0.191414,10.00803 13.047738,26.32529 19.570608,41.00171 2.39268,5.38598 2.79579,9.78633 6.26284,10.27812 2.68899,0.38283 12.92278,1.67507 15.01107,0.17942 3.66458,-2.62649 2.36239,-6.32329 0,-9.29243 -1.74564,-2.19109 -6.87564,-1.50172 -8.69379,-2.09636 -4.27938,-1.39692 -12.58012,-25.16023 -12.58012,-25.16023 0,0 13.63027,10.28218 23.35615,8.40152 9.72583,-1.87865 -4.16654,-17.48837 -21.25979,-26.3414"
         style="fill:#ebdddc;fill-opacity:1;fill-rule:nonzero;stroke:none;stroke-width:0.201572"
         id="path888" />
      <path
         d="m 119.232,131.03711 c -7.42589,-3.84599 -21.924953,-10.60067 -21.666973,3.02965 0.19141,10.00803 14.851873,30.79042 21.374743,45.46684 0.55817,1.59744 1.23937,4.80236 3.16795,4.26898 -8.86149,-23.29962 -25.310889,-37.7291 -20.76365,-53.33819 4.13842,-2.95054 20.87518,3.54751 17.88793,0.57272"
         style="fill:#e1cdcb;fill-opacity:0.760784;fill-rule:nonzero;stroke:none;stroke-width:0.201572"
         id="path888-5"
         sodipodi:nodetypes="cccccc" />
      <path
         d="m 101.71608,171.6888 c 0,0 6.2306,-1.49766 9.3771,0.81434 3.68275,2.70916 3.96496,6.74262 1.46343,7.72226 -2.50152,0.97758 -17.308952,1.08038 -17.308952,1.08038 l 6.468422,-9.61698"
         style="fill:#ebdddc;fill-opacity:1;fill-rule:nonzero;stroke:none;stroke-width:0.201572"
         id="path890" />
      <path
         d="m 48.402342,158.40525 c 0,0 -5.519004,10.93322 0.691376,20.09468 8.377356,12.35837 39.58873,11.23154 49.699553,1.09655 9.810499,-9.83873 11.787949,-21.0945 5.359819,-28.24829 -6.426137,-7.15379 -19.939499,-10.51799 -32.519618,-5.80727 -12.580062,4.71073 -6.522813,5.64197 0.9333,3.77948 7.454113,-1.86454 23.118281,0.2257 26.149934,6.63572 3.031594,6.40997 2.749444,11.53192 -3.319917,17.82498 -9.435561,9.78633 -30.475659,5.82749 -35.470589,2.79584 -9.213864,-5.58963 -11.523858,-18.17169 -11.523858,-18.17169"
         style="fill:#424242;fill-opacity:1;fill-rule:nonzero;stroke:none;stroke-width:0.201572"
         id="path892" />
    </g>
  </g>
</svg>
