<?xml version="1.0" encoding="UTF-8" standalone="no"?>
<!-- Created with Inkscape (http://www.inkscape.org/) -->

<svg
   width="210mm"
   height="170mm"
   viewBox="0 0 210 170"
   version="1.1"
   id="svg27831"
   inkscape:version="1.2.1 (9c6d41e410, 2022-07-14)"
   sodipodi:docname="european.svg"
   xmlns:inkscape="http://www.inkscape.org/namespaces/inkscape"
   xmlns:sodipodi="http://sodipodi.sourceforge.net/DTD/sodipodi-0.dtd"
   xmlns="http://www.w3.org/2000/svg"
   xmlns:svg="http://www.w3.org/2000/svg">
  <sodipodi:namedview
     id="namedview27833"
     pagecolor="#ffffff"
     bordercolor="#000000"
     borderopacity="0.25"
     inkscape:showpageshadow="2"
     inkscape:pageopacity="0.0"
     inkscape:pagecheckerboard="0"
     inkscape:deskcolor="#d1d1d1"
     inkscape:document-units="mm"
     showgrid="false"
     inkscape:zoom="0.69418085"
     inkscape:cx="408.39502"
     inkscape:cy="394.70982"
     inkscape:window-width="1366"
     inkscape:window-height="705"
     inkscape:window-x="-8"
     inkscape:window-y="-8"
     inkscape:window-maximized="1"
     inkscape:current-layer="layer1" />
  <defs
     id="defs27828" />
  <g
     inkscape:label="Layer 1"
     inkscape:groupmode="layer"
     id="layer1">
    <path
       d="m 140.89778,125.51485 c 0.78681,0.71584 2.11762,0.52411 2.89941,1.24493 0.61498,0.56769 0.6785,1.56735 0.32254,2.3255 -0.35479,0.75815 -1.04448,1.30841 -1.77027,1.72669 -2.08772,1.20134 -4.56635,0.26255 -6.97524,0.20785 -2.51973,-0.0586 -4.30371,-1.7852 -5.37557,-3.94262 -1.22873,-2.47365 -1.23744,-5.37556 -0.90255,-8.11684 0.52785,-4.33852 1.87109,-8.62355 4.285,-12.26614 2.41514,-3.64263 5.94573,-6.61177 10.09874,-7.974944 -2.09768,7.935104 -3.19944,16.132854 -3.27411,24.339324 -0.007,0.87767 0.0423,1.86612 0.69216,2.45622"
       style="fill:#66422a;fill-opacity:1;fill-rule:nonzero;stroke:none;stroke-width:0.124492"
       id="path494" />
    <path
       d="m 70.826756,128.03953 c -2.30793,-2.28814 -2.885574,-5.73406 -3.654943,-8.89115 -1.107331,-4.54394 -2.843369,-8.93353 -5.143607,-13.00439 -1.476841,-2.61431 -3.256179,-5.16887 -5.789217,-6.78228 -2.533144,-1.613409 -8.030699,-4.740642 -8.531166,-0.537803 4.859037,3.566653 7.613901,9.807423 6.975384,15.800433 -0.222674,2.0902 -0.82562,4.19659 -0.436101,6.26442 0.413339,2.19603 1.88531,4.02106 3.308265,5.74405 2.359982,2.85829 4.813832,5.79257 8.111334,7.48442 3.297537,1.69182 7.692701,1.8213 10.413477,-0.69466 -0.574786,-2.49235 -3.436082,-3.58288 -5.253426,-5.38304"
       style="fill:#66422a;fill-opacity:1;fill-rule:nonzero;stroke:none;stroke-width:0.124492"
       id="path496" />
    <path
       d="m 134.59727,129.14626 c 1.34824,-0.77184 2.21346,-2.19603 2.68778,-3.67499 0.47431,-1.48019 0.61,-3.04257 0.84654,-4.57754 0.58883,-3.82066 1.80888,-7.50683 3.10232,-11.15567 -0.64113,4.41073 -0.98721,8.8638 -1.02828,13.32058 -0.007,0.87767 0.0423,1.86611 0.69215,2.45621 0.78681,0.71584 2.11762,0.52411 2.89941,1.24493 0.61498,0.56769 0.6785,1.56735 0.32254,2.3255 -0.35479,0.75815 -1.04448,1.30841 -1.77027,1.72669 -2.08772,1.20134 -4.56635,0.26255 -6.97524,0.20785 -1.40178,-0.0318 -2.57574,-0.58135 -3.52562,-1.43414 0.91378,0.19303 1.92965,0.0282 2.74877,-0.43946"
       style="fill:#28170f;fill-opacity:1;fill-rule:nonzero;stroke:none;stroke-width:0.124492"
       id="path498" />
    <path
       d="m 121.14847,99.112712 c 2.65415,9.855978 0.88014,16.427908 1.54368,27.254898 0.096,1.56859 1.38682,5.42285 2.25577,6.73252 1.70431,2.56329 5.35315,2.69897 8.4281,2.56202 1.58352,-0.0709 4.18664,0.6822 4.69456,-1.83376 0.50668,-2.51596 -3.88538,-4.20157 -4.44058,-5.1116 -2.75255,-4.51655 -1.38687,-14.49954 3.14586,-21.35526 6.33662,-9.585845 12.91599,-8.466692 20.73655,-17.77492 4.95851,-5.899636 6.84703,-10.461011 8.39198,-17.1574 1.27478,-5.528644 5.70918,-6.499689 7.28522,-10.949021 -6.01789,-0.93618 -21.40255,-8.679556 -24.719,-17.443735 -8.81524,10.16349 -19.61988,11.221664 -30.70211,13.389038 -11.0822,2.168645 -22.407692,2.808539 -33.551541,4.632341 -11.144487,1.822567 -22.346741,4.948529 -31.554255,11.485589 -9.208007,6.537025 -15.057603,13.594455 -15.191313,24.885849 -0.0674,5.714119 0.140097,15.735719 -3.903554,19.774209 -2.352147,2.35039 -6.644726,4.99956 -9.968519,5.04935 -12.286683,0.18315 -13.49561,6.21212 -11.728977,9.02814 1.630595,2.59938 5.267612,2.94296 8.314175,2.58442 8.64829,-1.01459 17.101996,-3.59904 22.562709,-10.38133 5.460571,-6.78228 7.699406,-15.68592 7.009861,-26.348604 6.745935,5.280914 9.914632,16.097994 8.24656,22.935044 -0.573762,2.35041 13.327918,15.51413 23.123803,17.52341 2.853074,0.58513 7.784209,1.84995 9.913609,-0.13798 5.9771,-5.57847 -6.347064,-6.28559 -9.944239,-7.85418 -3.59707,-1.56736 -5.989659,-6.4337 -3.61849,-9.5597 1.89018,-2.49231 3.155111,-3.15461 5.748035,-4.90371 3.755164,-2.53215 22.551136,0.29008 37.922106,-17.025452"
       style="fill:#755239;fill-opacity:1;fill-rule:nonzero;stroke:none;stroke-width:0.124492"
       id="path500" />
    <path
       d="m 119.2512,81.134915 c -2.22589,1.864878 -3.43097,4.643527 -5.12283,7.003862 -5.49878,7.674915 -15.998012,10.400031 -25.353922,9.1327 -9.355794,-1.268566 -24.236,-4.53646 -26.196229,-10.334041 -1.960758,-5.79631 3.058879,-9.58334 7.284232,-12.215082 4.225883,-2.631741 9.225052,-3.66253 14.105015,-4.646032 8.157032,-1.64577 16.314244,-3.291539 24.471664,-4.936073 8.32473,-1.680634 17.60307,-3.203175 24.79496,1.312148 2.22715,1.58599 2.11137,5.162627 0.44196,7.328802 -1.6707,2.163669 -4.37341,3.226818 -6.9815,4.04845 -2.6081,0.822902 -5.34815,1.54869 -7.44335,3.305266"
       style="fill:#976e52;fill-opacity:1;fill-rule:nonzero;stroke:none;stroke-width:0.124492"
       id="path502" />
    <path
       d="m 95.702268,69.963044 c 1.36691,1.112942 2.32638,2.064049 2.90015,3.749695 0.3959,1.241146 1.04176,2.054097 2.103292,2.829676 0.21526,0.166917 3.33886,2.223414 1.94579,2.171116 -3.625442,-0.136921 -6.231532,-1.74786 -8.163032,-4.805362 -0.88363,-1.399277 -1.79638,-2.931768 -2.12467,-4.572562 -0.13304,-0.667278 -0.14328,-1.365681 0.0399,-2.024242 0.11928,-0.426996 1.46315,-1.050693 1.37027,-0.377204 -0.0141,0.103397 -0.007,0.06458 -4.9e-4,0.01412 -0.13904,1.203846 1.10736,2.322999 1.92875,3.015191"
       style="fill:#201a17;fill-opacity:1;fill-rule:nonzero;stroke:none;stroke-width:0.124492"
       id="path504" />
    <path
       d="m 93.773518,66.947853 c 4.9e-4,-0.0035 0,-0.01059 4.9e-4,-0.01412 0.0177,-0.123158 0.007,-0.04588 -4.9e-4,0.01412"
       style="fill:#201a17;fill-opacity:1;fill-rule:nonzero;stroke:none;stroke-width:0.124492"
       id="path506" />
    <path
       d="m 76.839317,91.358149 c -3.043669,-0.368487 -5.204339,-1.862408 -6.524074,-4.649773 -0.679347,-1.436612 -1.399064,-3.089862 -1.451574,-4.703272 -0.02117,-0.611274 0.0854,-1.232465 0.365629,-1.778984 0.180326,-0.35356 1.600952,-0.727023 1.410744,-0.176798 -0.02823,0.08963 -0.01764,0.0547 -0.0029,0.01059 -0.333128,1.03827 0.716824,2.151212 1.380643,2.819725 1.101367,1.073136 1.918412,1.976921 2.068143,3.555464 0.126687,1.147843 0.555871,1.930869 1.39857,2.740079 0.170798,0.170445 2.709659,2.346642 1.354812,2.182337"
       style="fill:#201a17;fill-opacity:1;fill-rule:nonzero;stroke:none;stroke-width:0.124492"
       id="path508" />
    <path
       d="m 75.865308,80.29458 c -0.01059,-1.03453 0.134097,-1.872359 -0.21985,-2.886951 -0.108337,-0.311248 -1.388337,-3.299019 -0.398236,-3.190718 1.49925,0.161976 3.580096,3.627665 4.057661,4.816584 0.502338,1.1976 1.198235,2.281923 1.72831,3.45962 0.257256,0.597547 0.457521,1.224984 0.412809,1.886051 -0.01764,0.290075 -1.015826,1.374362 -1.124269,0.883882 0.01412,0.08963 0.0247,0.164446 -0.0035,-0.01765 -0.342302,-2.276947 -4.425301,-2.092703 -4.45205,-4.9498"
       style="fill:#201a17;fill-opacity:1;fill-rule:nonzero;stroke:none;stroke-width:0.124492"
       id="path510" />
    <path
       d="m 70.637149,80.060544 c 0.0014,-0.0035 0.0014,-0.0071 0.0029,-0.01059 0.03599,-0.103396 0.01412,-0.03988 -0.0029,0.01059"
       style="fill:#201a17;fill-opacity:1;fill-rule:nonzero;stroke:none;stroke-width:0.124492"
       id="path512" />
    <path
       d="m 100.04965,89.911551 c -3.406972,0.997158 -6.316472,0.257609 -8.987662,-2.060344 -1.21814,-1.056938 -2.503893,-2.23834 -3.256217,-3.686174 -0.306308,-0.590101 -0.501809,-1.246157 -0.500432,-1.914671 4.94e-4,-0.432007 1.124904,-1.393065 1.211398,-0.74449 0.01412,0.100926 0.01059,0.06352 0.0029,0.01412 0.183503,1.16524 1.674781,1.856161 2.630371,2.258278 1.59026,0.637389 2.73831,1.231195 3.73424,2.647904 0.7081,1.049493 1.52988,1.61842 2.74131,2.027984 0.24596,0.08963 3.754922,1.068125 2.424102,1.45655"
       style="fill:#201a17;fill-opacity:1;fill-rule:nonzero;stroke:none;stroke-width:0.124492"
       id="path514" />
    <path
       d="m 88.51963,81.520835 c -5.29e-4,-0.0035 -0.0024,-0.01059 -0.0029,-0.01412 -0.01765,-0.119629 -0.0071,-0.04341 0.0029,0.01412"
       style="fill:#201a17;fill-opacity:1;fill-rule:nonzero;stroke:none;stroke-width:0.124492"
       id="path516" />
    <path
       d="m 65.813119,67.725939 c 0.01411,-0.352184 0.0071,-0.683476 -0.0247,-1.005911 0.901173,-0.33595 1.809474,-0.653586 2.725221,-0.954847 0.433736,0.697168 0.823785,1.449104 1.175827,2.293144 0.411963,0.956083 0.996453,1.81632 1.424931,2.761216 0.275607,0.636154 0.506184,1.303432 0.478412,2.008046 -0.01059,0.311248 -1.005134,1.414238 -1.130622,0.87393 0.01764,0.09457 0.03176,0.174327 -0.0035,-0.01765 -0.208204,-1.213797 -2.065319,-1.935844 -2.931909,-2.5919 -1.136867,-0.861508 -1.774503,-1.904719 -1.713629,-3.36501"
       style="fill:#201a17;fill-opacity:1;fill-rule:nonzero;stroke:none;stroke-width:0.124492"
       id="path518" />
    <path
       d="m 139.14992,93.699816 c -1.86487,-0.70959 -3.63761,-1.463996 -5.5797,-1.961993 -1.3333,-0.341244 -6.34782,-0.990949 -6.82214,-2.440017 -0.0423,-0.130569 6.70512,0.09951 7.46951,0.160564 3.12473,0.254081 6.19592,0.867684 9.30449,1.253639 2.61184,0.325011 5.24481,0.26996 7.86039,0.532792 0.92994,0.09352 1.86612,0.216674 2.76743,0.469343 0.32995,0.09351 0.60129,0.392165 0.72081,0.693427 -0.25514,0.242788 -0.50918,0.476788 -0.76065,0.702143 -2.09394,-0.283722 -4.39703,0.51663 -6.42375,0.910031 -2.88448,0.530322 -5.74154,0.743185 -8.53639,-0.320071"
       style="fill:#201a17;fill-opacity:1;fill-rule:nonzero;stroke:none;stroke-width:0.124492"
       id="path520" />
    <path
       d="m 144.89023,71.127049 c 0.0522,0.0247 0.0921,0.0434 -0.0141,-0.0035 -1.43789,-0.678464 -3.56419,0.1221 -5.0556,0.25408 -1.80263,0.139392 -3.38491,-0.271371 -4.71947,-1.518799 -1.0557,-1.00464 -2.16864,-1.764023 -3.46461,-2.441252 -0.42576,-0.212792 -3.64386,-2.699002 -2.2533,-2.411433 3.0737,0.637424 5.8897,1.257379 8.82644,2.400211 1.62961,0.634918 3.33886,0.891363 4.98467,1.451574 0.61872,0.210322 1.23493,0.468072 1.7715,0.846546 0.34477,0.242788 0.61498,1.724216 -0.0759,1.42419"
       style="fill:#201a17;fill-opacity:1;fill-rule:nonzero;stroke:none;stroke-width:0.124492"
       id="path522" />
    <path
       d="m 150.43758,77.202212 c -1.99312,-0.282664 -4.12941,-0.446934 -6.00547,-1.2337 -2.58071,-1.022073 2.89316,-1.012122 3.46707,-1.050728 2.45,-0.117159 4.87759,-0.226554 7.32883,-0.233965 2.5172,-0.0071 4.95351,-0.209263 7.42839,-0.68097 0.98721,-0.171857 1.97943,-0.365982 2.98033,-0.45438 -0.16304,0.666007 -0.33243,1.310877 -0.51042,1.938314 -2.89691,1.156524 -5.44028,3.346342 -8.93473,3.017696 -1.95452,-0.191619 -3.80323,-1.020838 -5.754,-1.302196"
       style="fill:#201a17;fill-opacity:1;fill-rule:nonzero;stroke:none;stroke-width:0.124492"
       id="path524" />
    <path
       d="m 47.278957,84.452602 c 0.434724,-1.156523 5.05062,3.015191 5.4226,3.433471 0.704261,0.794247 1.658862,1.324604 2.277829,2.196029 0.437195,0.641129 -0.06775,2.325504 -0.253727,2.059073 0.02117,0.03599 0.04199,0.06846 -0.0034,-0.0035 -1.102849,-1.788972 -4.643139,0.08328 -5.450831,-2.624296 -0.232554,-0.778085 -0.243494,-1.5549 -0.66629,-2.276946 -0.347243,-0.577645 -1.626608,-1.986872 -1.326087,-2.783625"
       style="fill:#201a17;fill-opacity:1;fill-rule:nonzero;stroke:none;stroke-width:0.124492"
       id="path526" />
    <path
       d="m 116.59581,92.242031 c -1.1615,-0.77558 -3.07123,-0.57888 -4.40575,-0.687182 -1.91471,-0.186678 -3.80573,-0.641129 -5.09544,-2.178596 -0.97725,-1.203846 -1.76155,-2.394 -2.90315,-3.469606 -0.27384,-0.257609 -3.60028,-3.579108 -2.63922,-3.734732 0.89511,-0.145743 3.40485,1.630842 4.22649,2.081481 1.50013,0.851522 2.90561,1.795183 4.33729,2.755006 1.41049,0.944896 2.91433,1.680635 4.46549,2.36037 0.83162,0.375968 1.67192,0.860238 2.3392,1.48891 0.32854,0.309836 0.36975,1.810109 -0.30737,1.3943 0.0498,0.03176 0.0847,0.05611 -0.0176,-0.01059"
       style="fill:#201a17;fill-opacity:1;fill-rule:nonzero;stroke:none;stroke-width:0.124492"
       id="path528" />
    <path
       d="m 78.156687,98.335897 c 10e-4,0.01411 10e-4,0.01411 0,0 z m 0.500468,4.980893 c 0.666643,1.19513 1.335297,2.38277 2.465425,3.20564 0.588478,0.4295 2.446615,1.74412 3.206668,1.54993 0.867578,-0.22162 -0.642399,-2.01052 -0.829642,-2.267 -0.714319,-0.97973 -0.872413,-1.79515 -0.977009,-2.97658 -0.225144,-2.54462 -4.251115,-2.45622 -4.371238,-4.587493 -0.001,-0.01764 -0.0015,-0.03529 -0.0024,-0.04729 8.47e-4,0.01412 0.0013,0.03176 0.0024,0.04729 -0.02823,-0.486775 -0.965823,0.299956 -0.973057,0.308778 -0.406069,0.468108 -0.267843,1.239947 -0.115395,1.772775 0.31019,1.08556 1.05034,2.0205 1.594107,2.99402"
       style="fill:#201a17;fill-opacity:1;fill-rule:nonzero;stroke:none;stroke-width:0.124492"
       id="path530" />
    <path
       d="m 111.38957,101.65733 c -1.09925,-0.64985 -2.90813,0.21914 -4.04471,0.38341 -1.47028,0.21526 -2.74629,-0.10693 -3.75467,-1.22001 -1.07187,-1.20381 -4.418702,-2.232129 -4.834512,-3.673752 -0.22091,-0.764358 3.519852,-0.150684 3.994172,-0.07587 1.49763,0.235377 2.82474,0.900079 4.23273,1.419214 1.03203,0.380944 2.13999,0.520371 3.15959,0.934945 0.48925,0.199029 0.96106,0.456885 1.35446,0.814153 0.23644,0.21667 0.42453,1.71052 -0.0984,1.42295 0.0409,0.0247 0.0759,0.0448 -0.007,-0.004"
       style="fill:#201a17;fill-opacity:1;fill-rule:nonzero;stroke:none;stroke-width:0.124492"
       id="path532" />
    <path
       d="m 101.23977,106.10913 c -2.215692,-1.75658 -5.891562,-1.10299 -8.351762,-2.65539 -1.65187,-1.04324 -2.29138,-2.82346 -3.50616,-4.2539 -1.149046,-1.374362 -3.76586,-3.216832 -4.023081,-5.100413 -0.119277,-0.866448 2.886598,1.236206 3.264436,1.470242 1.829515,1.170251 3.572405,2.377803 5.246685,3.767127 1.70876,1.361944 3.48626,2.524674 5.39546,3.585354 0.877292,0.50047 1.759052,1.10423 2.449972,1.84745 0.34972,0.3772 0.23397,1.86364 -0.45812,1.35198 0.0512,0.0399 0.0882,0.0695 -0.0176,-0.0141"
       style="fill:#201a17;fill-opacity:1;fill-rule:nonzero;stroke:none;stroke-width:0.124492"
       id="path534" />
    <path
       d="m 78.147971,98.176532 c -9.88e-4,-0.01764 -0.002,-0.03176 -0.002,-0.03741 0,0.0035 4.94e-4,0.01764 0.002,0.03741"
       style="fill:#201a17;fill-opacity:1;fill-rule:nonzero;stroke:none;stroke-width:0.124492"
       id="path536" />
    <path
       d="m 78.145995,98.139197 c -4.94e-4,-0.0035 -4.94e-4,-0.0035 0,0 v 0"
       style="fill:#201a17;fill-opacity:1;fill-rule:nonzero;stroke:none;stroke-width:0.124492"
       id="path538" />
    <path
       d="m 62.704201,74.561755 c 0.151389,0.189148 2.328362,2.642963 1.002275,2.294379 -3.223219,-0.845311 -5.048749,-2.745054 -6.142918,-5.851114 -0.05187,-0.146802 -0.104455,-0.295015 -0.157035,-0.443193 1.021332,-0.568893 2.059955,-1.104226 3.114776,-1.608399 0.857379,1.018333 1.037282,1.919647 1.112589,3.311442 0.0487,0.900079 0.50816,1.619655 1.070383,2.296885"
       style="fill:#201a17;fill-opacity:1;fill-rule:nonzero;stroke:none;stroke-width:0.124492"
       id="path540" />
    <path
       d="m 78.148994,98.193965 c -5.29e-4,-0.0071 -5.29e-4,-0.01412 -0.001,-0.01765 4.94e-4,0.0035 4.94e-4,0.01412 0.001,0.01765"
       style="fill:#201a17;fill-opacity:1;fill-rule:nonzero;stroke:none;stroke-width:0.124492"
       id="path542" />
    <path
       d="m 149.08809,88.67785 c -1.30343,-0.266431 -2.67906,-0.491751 -3.90157,-1.03827 -0.5901,-0.26502 -1.15032,-0.622462 -1.59598,-1.095509 -0.2876,-0.306308 -0.18315,-1.798924 0.36602,-1.374398 0.17679,0.136921 0.10092,0.07728 0.0141,0.01059 1.17022,0.883881 3.1795,0.207852 4.45678,-0.01059 1.50761,-0.255139 2.85583,-0.135862 4.18791,0.667278 1.35944,0.800459 2.62677,0.967305 4.18788,1.007146 0.91501,0.0247 3.71232,0.2015 1.60843,1.154018 -3.18076,1.439117 -5.94075,1.389325 -9.32315,0.679735"
       style="fill:#201a17;fill-opacity:1;fill-rule:nonzero;stroke:none;stroke-width:0.124492"
       id="path544" />
    <path
       d="m 140.94511,100.78714 c 0.0487,0.0106 0.0935,0.0176 -0.007,0 -1.24242,-0.25408 -2.65539,1.16273 -3.66627,1.68808 -1.30841,0.68845 -2.61057,0.80296 -3.92021,0.0833 -0.61375,-0.34372 -6.13249,-1.79268 -5.74159,-2.27197 0.59634,-0.730768 3.63765,-1.022078 4.56388,-1.109241 1.44036,-0.149273 2.87948,0.130569 4.31987,0.0547 1.02828,-0.0247 2.02795,-0.225496 3.05873,-0.09846 0.4818,0.06705 1.12293,0.18315 1.41798,0.624932 0.0385,0.05717 0.49048,1.120419 -0.0247,1.028319"
       style="fill:#201a17;fill-opacity:1;fill-rule:nonzero;stroke:none;stroke-width:0.124492"
       id="path546" />
    <path
       d="m 143.97025,85.179625 c -0.004,-0.0035 -0.007,-0.0071 -0.0141,-0.01059 -0.18915,-0.146802 -0.0808,-0.06352 0.0141,0.01059"
       style="fill:#201a17;fill-opacity:1;fill-rule:nonzero;stroke:none;stroke-width:0.124492"
       id="path548" />
    <path
       d="m 130.77786,120.16421 c -0.65482,-0.10446 -2.66286,0.25019 -3.07617,-0.48674 -0.53533,-0.94988 4.1082,-2.50852 4.84146,-2.65666 0.096,-0.0176 0.19056,-0.0434 0.28373,-0.0699 -0.27773,1.27728 -0.46311,2.54461 -0.55151,3.76339 -0.50294,-0.1768 -0.9623,-0.46935 -1.49763,-0.55026"
       style="fill:#201a17;fill-opacity:1;fill-rule:nonzero;stroke:none;stroke-width:0.124492"
       id="path550" />
    <path
       d="m 119.10556,59.239343 c 1.17396,1.213797 1.65572,2.879505 2.88321,4.073364 0.66354,0.643634 3.99492,2.696497 3.72976,3.740978 -0.14575,0.570163 -4.05594,-1.206316 -4.51282,-1.430401 -2.02672,-0.994689 -3.72478,-2.486104 -5.28215,-4.100748 -0.98223,-1.018368 -1.9844,-2.076541 -2.73758,-3.282858 1.18141,-0.19056 2.36037,-0.393401 3.5368,-0.613745 0.97479,0.600053 1.91344,1.12914 2.38278,1.61341"
       style="fill:#201a17;fill-opacity:1;fill-rule:nonzero;stroke:none;stroke-width:0.124492"
       id="path552" />
    <path
       d="m 109.28691,65.206204 c 3.05129,0.832854 5.84363,1.637088 8.72437,2.97288 1.60096,0.740714 3.304,1.111706 4.92613,1.78022 0.60749,0.25161 1.21005,0.549025 1.72668,0.964799 0.33242,0.265019 0.50418,1.761552 -0.17044,1.415473 0.0512,0.02823 0.091,0.04976 -0.0141,-0.0071 -1.40055,-0.774344 -3.58535,-0.115747 -5.09297,-0.08222 -1.81879,0.02117 -3.38117,-0.494221 -4.64599,-1.826272 -0.99843,-1.073136 -2.07153,-1.903484 -3.33142,-2.664136 -0.41454,-0.240318 -3.49321,-2.928028 -2.12256,-2.554565"
       style="fill:#201a17;fill-opacity:1;fill-rule:nonzero;stroke:none;stroke-width:0.124492"
       id="path554" />
    <path
       d="m 63.964685,97.689792 c -0.0247,0.08222 -0.01412,0.05117 -0.0024,0.01059 -0.281606,0.958588 0.8373,1.869854 1.498756,2.370318 1.392183,1.01459 1.887286,1.68808 2.248539,3.37369 0.17468,0.81168 0.731398,1.3582 1.383996,1.83005 0.66142,0.50668 2.95714,1.7715 0.881623,1.85616 -2.995994,0.12069 -5.012156,-1.49762 -6.377201,-4.05593 -0.572881,-1.07186 -1.177803,-2.22341 -1.295951,-3.453407 -0.0547,-0.565187 0.02117,-1.144066 0.26749,-1.659461 0.161271,-0.33595 1.547913,-0.74569 1.395183,-0.271372"
       style="fill:#201a17;fill-opacity:1;fill-rule:nonzero;stroke:none;stroke-width:0.124492"
       id="path556" />
    <path
       d="m 57.15463,78.525547 c 4.94e-4,-0.0035 4.94e-4,-0.0071 9.89e-4,-0.01412 0.01764,-0.12951 0.0071,-0.05117 -9.89e-4,0.01412"
       style="fill:#201a17;fill-opacity:1;fill-rule:nonzero;stroke:none;stroke-width:0.124492"
       id="path558" />
    <path
       d="m 122.58882,124.21393 c -0.0473,-1.34328 -0.061,-2.62179 -0.0561,-3.85426 0.95485,0.17186 1.84498,0.4793 2.4438,1.22996 0.7158,0.89387 1.52377,1.44039 2.64917,1.75908 0.26008,0.0773 3.46706,1.18638 2.11635,1.5001 -2.68404,0.62373 -4.79916,0.47929 -7.15328,-0.63488"
       style="fill:#201a17;fill-opacity:1;fill-rule:nonzero;stroke:none;stroke-width:0.124492"
       id="path560" />
    <path
       d="m 57.357401,85.939042 c -0.71146,-1.581049 -1.481323,-3.254238 -1.71176,-4.98837 -0.09387,-0.702144 -0.07693,-1.430437 0.125982,-2.112642 0.132333,-0.444429 1.493391,-1.056938 1.38396,-0.325011 -0.01764,0.114689 -0.01059,0.06846 -9.88e-4,0.01412 -0.173621,1.295985 1.006122,2.574503 1.808981,3.460889 1.285257,1.385584 2.277299,2.655386 2.571997,4.56134 0.230436,1.384349 0.765487,2.415138 1.685963,3.489509 0.197265,0.238906 2.833171,3.265424 1.494415,2.779884 -3.549394,-1.284728 -5.809791,-3.43347 -7.358586,-6.878127"
       style="fill:#201a17;fill-opacity:1;fill-rule:nonzero;stroke:none;stroke-width:0.124492"
       id="path562" />
    <path
       d="m 63.962321,97.699744 c 8.47e-4,-0.0035 0.0013,-0.0071 0.0024,-0.01059 0.03176,-0.09599 0.01412,-0.03599 -0.0024,0.01059"
       style="fill:#201a17;fill-opacity:1;fill-rule:nonzero;stroke:none;stroke-width:0.124492"
       id="path564" />
    <path
       d="m 116.22358,82.75203 c -1.70304,-0.12457 -3.15338,-0.918747 -4.45056,-1.993083 -1.07314,-0.929969 -2.20475,-1.859902 -3.07621,-2.990277 -0.48674,-0.606299 -0.81916,-1.36194 -0.88014,-2.142531 -0.0282,-0.378439 0.97228,-1.454045 1.10546,-0.893833 0.061,0.259021 0.0212,0.09105 0,0.0025 0.52288,2.174856 4.56388,1.725452 5.74655,3.641358 0.57264,0.924957 0.88388,1.648274 1.89848,2.214697 0.33101,0.185619 3.41356,1.213797 2.84961,1.857432 -0.47806,0.545249 -2.54461,0.351125 -3.19319,0.303837"
       style="fill:#201a17;fill-opacity:1;fill-rule:nonzero;stroke:none;stroke-width:0.124492"
       id="path566" />
    <path
       d="m 78.532655,65.689239 c 0.01765,0.06458 1.490428,3.674988 0.288311,2.884481 -1.936479,-1.273542 -3.054432,-2.705213 -3.519258,-4.731926 1.180167,-0.286193 2.365346,-0.551496 3.554229,-0.796753 -0.199735,0.941155 -0.632659,1.546183 -0.323246,2.644198"
       style="fill:#201a17;fill-opacity:1;fill-rule:nonzero;stroke:none;stroke-width:0.124492"
       id="path568" />
    <path
       d="m 124.1686,104.60028 c 1.63832,-0.27137 1.7877,0.51666 3.02144,1.29846 1.25858,0.83408 5.28712,-0.18315 2.22091,1.9483 -2.04539,1.35199 -4.02481,0.8764 -6.13368,-0.0536 -0.24278,-0.10199 -0.49298,-0.20786 -0.73948,-0.32502 -0.0596,-0.88014 -0.14574,-1.76899 -0.26255,-2.67779 0.65359,0.0748 1.45405,-0.11575 1.8935,-0.19056"
       style="fill:#201a17;fill-opacity:1;fill-rule:nonzero;stroke:none;stroke-width:0.124492"
       id="path570" />
    <path
       d="m 126.70326,111.33902 c 0.95736,0.95858 1.71176,1.4304 3.04632,1.76031 0.18068,0.0434 2.7363,0.8926 1.46029,1.27354 -3.05627,0.91501 -4.99959,0.55771 -7.94879,-0.47431 -0.20186,-0.0709 -0.40586,-0.13834 -0.61001,-0.2068 0.0141,-0.8951 0.0212,-1.78145 0.0141,-2.66537 1.38061,-0.24526 2.93427,-0.79051 4.03726,0.31231"
       style="fill:#201a17;fill-opacity:1;fill-rule:nonzero;stroke:none;stroke-width:0.124492"
       id="path572" />
    <path
       d="m 103.96241,63.864202 c 0.16939,1.310913 0.65606,2.260749 1.54742,3.254203 0.18174,0.211733 2.80978,2.959152 1.45779,2.579478 -3.50193,-0.980996 -5.7216,-3.04508 -7.101722,-6.403844 -0.41531,-1.010886 -0.84182,-2.0728 -1.11072,-3.158358 1.03975,-0.122099 2.080002,-0.242788 3.119512,-0.366016 1.07934,1.246157 1.89226,2.391494 2.08772,4.094537"
       style="fill:#201a17;fill-opacity:1;fill-rule:nonzero;stroke:none;stroke-width:0.124492"
       id="path574" />
    <path
       d="m 85.03972,64.36841 c 0.891327,1.466502 1.385443,3.094838 2.051239,4.664665 0.507172,1.19513 1.250745,2.274477 1.736529,3.477053 0.2262,0.561446 0.40657,1.151547 0.4469,1.757811 0.0247,0.379709 -0.931308,1.547454 -1.122892,0.878941 0.01412,0.05223 0.0247,0.09599 -0.0034,-0.01059 -0.363758,-1.421684 -2.314318,-2.332985 -3.323792,-3.239275 -1.245417,-1.111707 -1.95303,-2.421349 -1.901508,-4.109465 0.04517,-1.115447 -0.03741,-2.122558 -0.325364,-3.210621 -0.0427,-0.160564 -0.327128,-1.192624 -0.489246,-2.157423 0.541297,-0.09704 1.082594,-0.19056 1.623749,-0.280194 0.548143,0.842805 1.053304,1.811345 1.307666,2.22966"
       style="fill:#201a17;fill-opacity:1;fill-rule:nonzero;stroke:none;stroke-width:0.124492"
       id="path576" />
    <path
       d="m 108.92213,74.734811 c 0,-0.0013 0,-0.0025 0,-0.0025 -0.0176,-0.06705 -0.0106,-0.04235 0,0.0025"
       style="fill:#201a17;fill-opacity:1;fill-rule:nonzero;stroke:none;stroke-width:0.124492"
       id="path578" />
    <path
       d="m 120.65174,91.907139 c -0.003,-0.0012 -0.004,-0.0035 -0.007,-0.0035 0.003,0.0012 0.004,0.0035 0.007,0.0035"
       style="fill:#201a17;fill-opacity:1;fill-rule:nonzero;stroke:none;stroke-width:0.124492"
       id="path580" />
    <path
       d="m 151.3252,81.209586 c -2.6442,-1.00464 -6.01669,0.38592 -8.80155,-0.09457 -2.10018,-0.361006 -3.48079,-1.605928 -5.15395,-2.797317 -2.01055,-1.431636 -4.48292,-2.151212 -6.35283,-3.792006 -1.952,-1.655756 2.82101,-0.174327 3.38994,-0.03529 2.33295,0.61251 4.5925,1.303432 6.84079,2.183573 2.28193,0.847816 4.57507,1.486439 6.95534,1.994353 1.09181,0.243846 2.22095,0.581385 3.20692,1.121693 0.51412,0.281253 0.81542,1.729157 -0.0646,1.425425 0.0674,0.0247 0.11716,0.04341 -0.0212,-0.0071"
       style="fill:#201a17;fill-opacity:1;fill-rule:nonzero;stroke:none;stroke-width:0.124492"
       id="path582" />
    <path
       d="m 118.73831,77.986508 c -0.2502,-0.512889 0.39961,-1.84995 0.88264,-1.114176 0.0734,0.110807 0.0473,0.06952 0.0106,0.01764 1.77401,2.62179 6.40508,2.103925 8.88247,3.753435 1.37065,0.878906 2.29812,2.001799 3.86918,2.575703 0.98101,0.367251 5.09175,0.578914 5.47018,1.592271 0.21915,0.586325 -4.02106,0.871424 -4.4879,0.872659 -2.48862,0.0035 -4.78424,-0.728257 -6.99145,-1.839964 -1.85119,-0.934944 -3.85553,-1.958252 -5.45151,-3.299019 -0.87018,-0.718341 -1.68437,-1.530022 -2.1848,-2.55707"
       style="fill:#201a17;fill-opacity:1;fill-rule:nonzero;stroke:none;stroke-width:0.124492"
       id="path584" />
    <path
       d="m 120.82603,92.051541 c -0.004,-0.0035 -0.0106,-0.01059 -0.0212,-0.01764 0.0106,0.0071 0.0176,0.01412 0.0212,0.01764 z m 0.79051,2.290674 c 1.2138,0.670984 2.61558,0.947366 3.92148,1.381843 3.23554,1.074371 5.80503,1.258615 9.14016,0.524111 1.42296,-0.312307 -2.18979,-1.409262 -2.44624,-1.469007 -1.43167,-0.33101 -2.38031,-0.916241 -3.52187,-1.807604 -2.40268,-1.874864 -5.89716,0.719541 -7.97868,-0.998429 -0.0399,-0.03529 -0.0646,-0.05364 -0.0797,-0.06599 0.0176,0.01412 0.0487,0.03988 0.0797,0.06599 -0.42947,-0.354795 -0.60252,0.734503 -0.5913,0.857732 0.061,0.703379 0.94239,1.216303 1.47645,1.511354"
       style="fill:#201a17;fill-opacity:1;fill-rule:nonzero;stroke:none;stroke-width:0.124492"
       id="path586" />
    <path
       d="m 119.63214,76.888494 c -0.004,-0.0035 -0.007,-0.01059 -0.0106,-0.01765 -0.0872,-0.133392 -0.0318,-0.0487 0.0106,0.01765"
       style="fill:#201a17;fill-opacity:1;fill-rule:nonzero;stroke:none;stroke-width:0.124492"
       id="path588" />
    <path
       d="m 120.6455,91.902163 c -0.0177,-0.01412 -0.0212,-0.01764 0,0 v 0"
       style="fill:#201a17;fill-opacity:1;fill-rule:nonzero;stroke:none;stroke-width:0.124492"
       id="path590" />
    <path
       d="m 68.505734,127.66109 c 0.632695,-1.07935 2.065707,-1.41424 2.863307,-2.37653 0.846546,-1.02335 0.797494,-2.50354 1.294468,-3.73477 0.786802,-1.95077 2.81662,-3.05126 4.697202,-3.99368 2.819972,-1.4142 5.711405,-2.85085 8.843719,-3.2318 2.029219,-0.24525 4.080988,-0.0385 6.125878,-0.0385 -4.419447,0.72078 -7.745745,0.93614 -9.103944,1.85242 -2.592924,1.7491 -3.857855,2.4114 -5.748035,4.90371 -2.371169,3.126 0.02117,7.99234 3.61849,9.5597 3.597175,1.56859 15.921339,2.27571 9.944239,7.85418 -2.1294,1.98811 -7.060535,0.72328 -9.913609,0.13798 -4.221507,-0.86645 -9.205043,-3.80442 -13.464521,-7.05492 0.304897,-0.52909 0.373004,-1.18017 0.409952,-1.80012 0.0434,-0.71337 0.07164,-1.46157 0.432854,-2.07778"
       style="fill:#28170f;fill-opacity:1;fill-rule:nonzero;stroke:none;stroke-width:0.124492"
       id="path592" />
    <path
       d="m 123.51752,129.13631 c 0.86521,0.27772 1.79391,0.27384 2.70147,0.22302 2.25705,-0.1281 4.49789,-0.53159 6.65656,-1.1976 0.12952,-0.0399 0.26008,-0.0808 0.39217,-0.12068 0.11222,0.23643 0.23291,0.46186 0.36228,0.67599 0.5552,0.91003 4.94726,2.59564 4.44058,5.1116 -0.50792,2.51596 -3.11104,1.76279 -4.69456,1.83375 -3.07495,0.13692 -6.72379,0.001 -8.4281,-2.56201 -0.52037,-0.78429 -1.19139,-2.47862 -1.66694,-4.04972 0.0783,0.0318 0.15668,0.061 0.23643,0.0857"
       style="fill:#28170f;fill-opacity:1;fill-rule:nonzero;stroke:none;stroke-width:0.124492"
       id="path594" />
    <path
       d="m 11.870341,132.28097 c -1.766633,-2.81602 -0.557706,-8.84513 11.728977,-9.02814 0.03529,-0.001 0.06917,-0.004 0.103397,-0.004 -0.21491,0.20186 -0.398236,0.42947 -0.483882,0.70836 -0.162329,0.52909 0.06952,1.09053 0.297133,1.59598 0.485787,1.07807 1.009016,2.20474 1.95977,2.90685 0.776568,0.5739 1.753082,0.79926 2.707189,0.9474 3.400722,0.53156 6.920474,0.25655 10.204425,-0.7706 -5.127938,3.76585 -11.60783,5.4552 -18.203011,6.22828 -3.046562,0.35853 -6.683579,0.0141 -8.314174,-2.58442"
       style="fill:#28170f;fill-opacity:1;fill-rule:nonzero;stroke:none;stroke-width:0.124492"
       id="path596" />
    <path
       d="m 40.948337,103.66537 c -0.02823,1.96323 -0.05823,3.93267 -0.322541,5.87846 -0.497997,3.67626 -1.842998,7.23546 -3.901436,10.32286 -1.0364,1.5549 -2.317317,3.04007 -4.035782,3.77457 -1.982637,0.84778 -4.242045,0.57764 -6.379671,0.29396 -0.740256,-0.0995 -1.552783,-0.24138 -2.093586,-0.71958 3.22269,-0.33348 7.143183,-2.8048 9.35241,-5.01202 4.043616,-4.03849 3.835976,-14.06009 3.903554,-19.774207 0.08258,-6.979019 2.349783,-12.339617 6.242503,-16.960735 -0.52524,1.012121 -0.967657,2.067789 -1.314865,3.154617 -1.216303,3.804463 -1.285751,7.866605 -1.344649,11.859052 -0.03564,2.395235 -0.07058,4.789203 -0.105866,7.183163"
       style="fill:#976e52;fill-opacity:1;fill-rule:nonzero;stroke:none;stroke-width:0.124492"
       id="path598" />
    <path
       d="m 117.7685,57.425492 c 11.08223,-2.167374 21.88687,-3.225548 30.70211,-13.389038 3.31645,8.764179 18.70111,16.507555 24.719,17.443735 -0.91373,2.578208 -2.78609,3.989941 -4.4493,5.79631 -4.78298,0.627437 -9.62321,2.959187 -14.48084,2.433806 -3.51068,-0.380944 -6.66403,-2.215932 -9.8112,-3.818119 -8.43055,-4.293744 -17.59312,-7.137113 -26.96858,-8.410655 0.097,-0.01764 0.19303,-0.03741 0.28867,-0.05611"
       style="fill:#976e52;fill-opacity:1;fill-rule:nonzero;stroke:none;stroke-width:0.124492"
       id="path600" />
    <path
       d="m 136.77586,107.36153 c -1.4665,2.21717 -2.60061,4.76302 -3.37122,7.34373 -0.90256,-4.83028 1.49018,-9.99664 4.8091,-13.77746 3.71607,-4.231461 8.53142,-7.364905 12.39065,-11.465654 3.85923,-4.102019 6.80345,-9.787522 5.42906,-15.25021 -0.81542,-3.241746 -3.03633,-5.945724 -4.22649,-9.070452 -1.75904,-4.613637 -1.0009,-10.072585 1.82631,-14.101133 6.04404,5.56725 15.2253,9.766349 19.55634,10.439838 -1.57604,4.449332 -6.01044,5.420377 -7.28522,10.949021 -1.54495,6.696389 -3.43347,11.257764 -8.39198,17.1574 -7.82056,9.308228 -14.39993,8.189075 -20.73655,17.77492"
       style="fill:#976e52;fill-opacity:1;fill-rule:nonzero;stroke:none;stroke-width:0.124492"
       id="path602" />
    <path
       d="m 176.55088,47.997776 c 0,0 1.43414,5.82493 0.65235,8.207708 -1.82503,5.561039 -4.66593,8.430557 -11.94745,11.13824 -6.00296,2.23213 -7.44582,1.671919 -9.02313,0.896339 -1.57731,-0.774309 -6.81591,-3.323898 -8.72186,-5.706676 -2.38402,-2.981561 -3.80944,-8.2214 -1.97195,-17.367793 0.91624,-4.56261 -2.39273,-13.559625 -0.10692,-14.528164 2.28689,-0.96854 5.77266,2.314317 10.44357,7.367408 4.49041,-1.248663 9.79127,0.468072 12.10308,0.587595 2.31178,0.11963 8.11059,-6.804691 10.72617,-5.330708 2.61558,1.473983 -2.15372,14.736051 -2.15372,14.736051"
       style="fill:#755239;fill-opacity:1;fill-rule:nonzero;stroke:none;stroke-width:0.124492"
       id="path604" />
    <path
       d="m 145.51767,31.726728 c -0.32995,0.242788 -0.34725,0.722046 -0.32254,1.130374 0.0748,1.16524 0.25161,2.320529 0.42826,3.474582 0.34372,2.243317 0.68595,4.485433 1.02952,6.72875 0.98724,-0.847781 1.98066,-1.699303 3.09735,-2.369086 1.11544,-0.668514 2.37159,-1.152783 3.67251,-1.195095 -1.33455,-2.303096 -2.97535,-4.428159 -4.86761,-6.301753 -0.58636,-0.581385 -1.2138,-1.149078 -1.97568,-1.466537 -0.34231,-0.141861 -0.7644,-0.220203 -1.06192,-0.0012"
       style="fill:#fbc7a3;fill-opacity:1;fill-rule:nonzero;stroke:none;stroke-width:0.124492"
       id="path606" />
    <path
       d="m 178.7768,34.003675 c 0.1655,0.09951 0.2142,0.312306 0.24279,0.502937 0.30983,2.067825 -0.0547,4.191653 -0.73948,6.167338 -0.68471,1.97565 -1.68187,3.826836 -2.67405,5.666835 -0.54282,-1.571097 -1.6047,-2.900643 -2.64794,-4.195358 -0.75942,-0.944896 -1.60096,-1.943325 -2.77491,-2.247057 2.46242,-2.206016 4.97468,-4.444356 7.97614,-5.82994 0.19656,-0.09105 0.43201,-0.175386 0.61749,-0.06458"
       style="fill:#fbc7a3;fill-opacity:1;fill-rule:nonzero;stroke:none;stroke-width:0.124492"
       id="path608" />
    <path
       d="m 152.1319,59.431067 c 1.06689,-0.698403 1.7292,-1.900978 2.8023,-2.588195 0.76312,-0.489245 1.71797,-0.710824 2.3093,-1.395535 0.63743,-0.740714 0.67102,-1.802628 0.79178,-2.772438 0.26008,-2.106396 1.08683,-4.13932 2.37032,-5.829906 1.06192,0.210322 1.77648,1.269801 1.97442,2.334186 0.19797,1.064419 -0.004,2.154953 -0.11716,3.231794 -0.11328,1.076876 -0.12563,2.224684 0.40212,3.16958 0.48677,0.87393 1.3607,1.447833 2.20224,1.986871 2.77864,1.781491 5.55606,3.562946 8.33471,5.344436 -1.84247,1.719206 -4.35345,3.096073 -7.94629,4.431864 -6.00296,2.23213 -7.44582,1.671919 -9.02313,0.896339 -1.57731,-0.774309 -6.81591,-3.323898 -8.72187,-5.706676 -0.35218,-0.441959 -0.68347,-0.932439 -0.98597,-1.477724 0.61001,-0.299956 1.30467,-0.478023 1.97692,-0.596312 1.24863,-0.220203 2.56949,-0.33348 3.63017,-1.028284"
       style="fill:#ffffff;fill-opacity:1;fill-rule:nonzero;stroke:none;stroke-width:0.124492"
       id="path610" />
    <path
       d="m 156.86507,65.702931 c 0.30489,0.206793 1.06438,-0.184208 1.36441,-0.281253 0.37596,-0.123158 0.74946,-0.186678 1.14036,-0.172915 0,-0.0071 -0.003,-0.01764 -0.001,-0.0247 0.0872,-0.908795 0.0759,-1.822566 0.16304,-2.730091 0.0353,-0.35356 0.70835,-0.166917 0.67973,0.134451 -0.0872,0.907525 -0.0759,1.822566 -0.16444,2.730091 0,0.0071 -0.004,0.01765 -0.004,0.0247 0.82537,0.297486 1.55239,0.977256 2.44626,0.673525 0.16939,-0.05717 0.76312,0.266431 0.51663,0.351124 -1.42793,0.48427 -2.30684,-0.94366 -3.6638,-0.78179 -1.04572,0.125628 -1.8935,0.835324 -2.89316,0.160564 -0.37721,-0.255139 0.24772,-0.194089 0.41704,-0.08081"
       style="fill:#595347;fill-opacity:1;fill-rule:nonzero;stroke:none;stroke-width:0.124492"
       id="path612" />
    <path
       d="m 171.59614,53.289914 c -0.097,1.246157 -1.01463,2.339196 -2.15746,2.845874 -1.14283,0.506679 -2.46863,0.48427 -3.67371,0.151743 -0.78307,-0.216674 -1.57608,-0.597547 -1.99312,-1.29595 -0.54031,-0.903785 -0.26996,-2.139991 0.44566,-2.9131 0.71707,-0.773075 1.784,-1.139091 2.83218,-1.239912 1.02335,-0.09704 2.06659,0.03176 3.03263,0.378439 0.47679,0.170445 0.95608,0.410833 1.23867,0.830348 0.24138,0.358535 0.31019,0.810445 0.27526,1.242452"
       style="fill:#f3a158;fill-opacity:1;fill-rule:nonzero;stroke:none;stroke-width:0.124492"
       id="path614" />
    <path
       d="m 163.51043,54.065494 c 2.51098,-4.831512 7.03251,-2.55333 7.7782,-1.497662 -0.58262,3.271635 -5.90711,5.302124 -7.7782,1.497662"
       style="fill:#201a17;fill-opacity:1;fill-rule:nonzero;stroke:none;stroke-width:0.124492"
       id="path616" />
    <path
       d="m 163.97603,54.064223 c 2.1263,-4.092032 5.9544,-2.162399 6.58558,-1.267295 -0.49422,2.768662 -5.00206,4.487903 -6.58558,1.267295"
       style="fill:#c0c02f;fill-opacity:1;fill-rule:nonzero;stroke:none;stroke-width:0.124492"
       id="path618" />
    <path
       d="m 166.61151,51.682715 c 0.40582,-0.111865 0.81168,-0.145743 1.20134,-0.123158 0.007,0.332422 -0.0106,0.705884 -0.0561,1.099285 -0.15562,1.308407 -0.53406,2.086457 -0.88886,2.044146 -0.35479,-0.04235 -0.55273,-0.887622 -0.39587,-2.197264 0.0353,-0.292546 0.0822,-0.567693 0.1394,-0.822903"
       style="fill:#201a17;fill-opacity:1;fill-rule:nonzero;stroke:none;stroke-width:0.124492"
       id="path620" />
    <path
       d="m 167.09204,52.814325 c -0.0399,0.338774 0.20291,0.647375 0.54278,0.687216 0.34124,0.04094 0.64984,-0.201852 0.68969,-0.540308 0.0399,-0.339832 -0.20292,-0.64734 -0.54278,-0.688416 -0.33984,-0.03988 -0.64861,0.201499 -0.68969,0.541508"
       style="fill:#ffffff;fill-opacity:1;fill-rule:nonzero;stroke:none;stroke-width:0.124492"
       id="path622" />
    <path
       d="m 156.58247,50.661878 c 0.38716,0.496727 0.55771,1.127904 0.6598,1.749095 0.0773,0.475589 0.11963,0.976021 -0.0459,1.427931 -0.20538,0.561446 -0.70962,0.974785 -1.26609,1.191389 -0.55647,0.217732 -1.16524,0.26149 -1.76279,0.26996 -1.11421,0.01412 -2.26947,-0.100927 -3.238,-0.652316 -0.96981,-0.551495 -1.70679,-1.625866 -1.58105,-2.733832 0.10939,-0.962329 0.85275,-1.772774 1.7379,-2.164904 0.88512,-0.393401 1.89227,-0.422056 2.85456,-0.304897 0.98848,0.11963 2.02922,0.431972 2.64173,1.217503"
       style="fill:#f3a158;fill-opacity:1;fill-rule:nonzero;stroke:none;stroke-width:0.124492"
       id="path624" />
    <path
       d="m 157.31073,53.71691 c -1.3059,-5.003333 -6.20587,-3.345107 -7.17194,-2.411398 -0.19656,3.249227 4.47922,5.875993 7.17194,2.411398"
       style="fill:#201a17;fill-opacity:1;fill-rule:nonzero;stroke:none;stroke-width:0.124492"
       id="path626" />
    <path
       d="m 157.00449,53.58867 c -1.11919,-4.294944 -5.327,-2.872024 -6.15735,-2.069025 -0.16797,2.789836 3.84554,5.04561 6.15735,2.069025"
       style="fill:#c0c02f;fill-opacity:1;fill-rule:nonzero;stroke:none;stroke-width:0.124492"
       id="path628" />
    <path
       d="m 154.74374,50.822478 c -0.007,0.232906 -0.0212,0.479294 -0.0536,0.735738 -0.15315,1.287234 -0.56271,2.296885 -0.91377,2.254538 -0.35112,-0.04093 -0.51165,-1.119152 -0.35977,-2.406421 0.0353,-0.272784 0.0783,-0.530322 0.13057,-0.770604 0.39838,-0.0012 0.80544,0.05364 1.19637,0.186678"
       style="fill:#201a17;fill-opacity:1;fill-rule:nonzero;stroke:none;stroke-width:0.124492"
       id="path630" />
    <path
       d="m 153.99555,51.845786 c -0.0409,0.339832 0.20291,0.647375 0.54278,0.688451 0.33983,0.04094 0.64857,-0.201853 0.68968,-0.541544 0.0399,-0.339832 -0.20291,-0.64734 -0.54405,-0.687181 -0.33983,-0.04093 -0.64857,0.201853 -0.68841,0.540274"
       style="fill:#ffffff;fill-opacity:1;fill-rule:nonzero;stroke:none;stroke-width:0.124492"
       id="path632" />
    <path
       d="m 159.81053,62.918071 c -0.30737,-0.07975 -2.46868,-1.52501 -2.15993,-2.347913 0.58886,-1.568592 4.13935,-1.030789 4.53646,0.476789 0.25267,0.961093 -2.06779,1.949536 -2.37653,1.871124"
       style="fill:#4e3427;fill-opacity:1;fill-rule:nonzero;stroke:none;stroke-width:0.124492"
       id="path634" />
    <path
       d="m 157.6506,60.570158 c 0.0522,-0.139391 0.12951,-0.262549 0.22408,-0.369722 0.60379,1.548654 2.69526,1.928363 4.23397,1.342002 -0.41331,0.77558 -2.04292,1.440353 -2.29812,1.375633 -0.30737,-0.07975 -2.46868,-1.52501 -2.15993,-2.347913"
       style="fill:#332017;fill-opacity:1;fill-rule:nonzero;stroke:none;stroke-width:0.124492"
       id="path636" />
    <path
       d="m 158.94905,60.439448 c -0.1408,-0.02117 -0.30878,-0.06105 -0.35218,-0.196559 -0.0448,-0.141862 0.0858,-0.280194 0.22161,-0.342303 0.23644,-0.106925 0.50792,-0.09704 0.76563,-0.06705 0.59878,0.06705 1.18638,0.224085 1.73915,0.463097 0.0808,0.03529 0.16444,0.07481 0.22161,0.141861 0.0572,0.06705 0.0808,0.171857 0.0318,0.245258 -0.0646,0.09705 -0.20679,0.0921 -0.32113,0.07587 -0.76937,-0.106925 -1.53874,-0.214203 -2.30684,-0.32007"
       style="fill:#7c5240;fill-opacity:1;fill-rule:nonzero;stroke:none;stroke-width:0.124492"
       id="path638" />
    <path
       d="m 144.94002,54.128978 c 0.10587,0.01412 0.2128,0.01059 0.31866,0.01765 0.20185,0 0.39961,0 0.60129,0 0.20044,-0.0025 0.39838,-0.01412 0.60132,0.01764 0.40957,0.06705 0.82785,0.191619 1.25361,0.575139 0.21173,0.189149 0.35112,0.571433 0.40088,0.890128 0.0498,0.3176 0.004,0.573903 -0.12951,0.505443 -0.26396,-0.136921 -0.52164,-0.0487 -0.75691,0.09105 -0.26643,0.151743 -0.52161,0.342303 -0.78056,0.565187 -0.12951,0.108337 -0.26008,0.227967 -0.39464,0.335951 -0.13445,0.104455 -0.27278,0.207852 -0.4133,0.304896 -0.13092,0.08822 -0.26643,0.171857 -0.40586,0.245258 -0.25514,-1.058173 -0.42699,-2.245822 -0.49672,-3.572897 0.067,0.0071 0.13445,0.01765 0.20185,0.02823"
       style="fill:#201a17;fill-opacity:1;fill-rule:nonzero;stroke:none;stroke-width:0.124492"
       id="path640" />
    <path
       d="m 171.31852,57.901046 c -0.18668,-0.560212 0.39464,-1.571063 0.54529,-1.313383 0.15068,0.259021 0.42449,0.327481 0.69964,0.33595 0.62119,0.02117 1.29344,-0.214203 1.94579,-0.344772 0.65359,-0.130569 1.32086,-0.146802 1.77648,0.273842 0.18174,0.169387 0.32113,0.400847 0.45565,0.637388 -0.44069,1.130375 -0.9449,2.141261 -1.54742,3.057502 -0.56395,-0.229025 -1.09801,-0.545284 -1.65201,-0.802964 -0.43198,-0.200441 -0.88141,-0.364781 -1.28226,-0.633683 -0.40088,-0.26749 -0.75441,-0.648575 -0.94116,-1.210057"
       style="fill:#201a17;fill-opacity:1;fill-rule:nonzero;stroke:none;stroke-width:0.124492"
       id="path642" />
    <path
       d="m 176.62682,48.321446 c 0.13445,0.592572 0.42079,1.932104 0.61502,3.398605 -0.18421,-0.0247 -0.37099,-0.05117 -0.54652,-0.07587 -0.0946,-0.01059 -0.18915,-0.02117 -0.28267,-0.02823 -0.096,-0.01412 -0.19056,-0.02117 -0.28513,-0.02823 -0.19162,-0.01059 -0.37844,-0.01059 -0.56519,0.0035 -0.18562,0.01411 -0.37346,0.02117 -0.55897,0.04729 -0.36973,0.05717 -0.74322,0.111866 -1.11919,0.180679 -0.18809,0.03988 -0.37844,0.05717 -0.56766,0.08469 -0.19056,0.02117 -0.38094,0.05117 -0.57267,0.05964 -0.38218,0.01059 -0.76439,0.02117 -1.13785,-0.05964 -0.13939,-0.02823 -0.28373,-0.06211 -0.3909,-0.153153 -0.10834,-0.08963 -0.16797,-0.247729 -0.10834,-0.378474 0.0459,-0.103397 0.15069,-0.163035 0.24632,-0.215262 0.33348,-0.18315 0.65482,-0.362276 0.96854,-0.565188 0.15704,-0.09704 0.31125,-0.19303 0.4631,-0.287604 0.15174,-0.101985 0.30242,-0.200441 0.45191,-0.296427 0.29889,-0.181738 0.5901,-0.38592 0.88264,-0.552766 0.1468,-0.07975 0.29114,-0.175386 0.43822,-0.255139 0.14574,-0.08328 0.29396,-0.153154 0.44319,-0.226555 0.30737,-0.163034 0.62494,-0.276312 0.93865,-0.405857 0.15704,-0.06352 0.31866,-0.109396 0.47679,-0.170446 0.0699,-0.0247 0.14081,-0.04976 0.21032,-0.0734"
       style="fill:#201a17;fill-opacity:1;fill-rule:nonzero;stroke:none;stroke-width:0.124492"
       id="path644" />
    <path
       d="m 165.694,38.265023 c -0.11575,0.255139 -0.25514,0.497962 -0.39838,0.735738 -0.10339,0.172916 -0.20926,0.343715 -0.30878,0.516665 -0.0497,0.08716 -0.097,0.174328 -0.14327,0.26255 -0.0498,0.08858 -0.097,0.176797 -0.1408,0.267843 -0.3573,0.730763 -0.45812,1.529986 -0.59758,2.336691 -0.0646,0.403352 -0.11575,0.81295 -0.19797,1.213797 -0.091,0.398377 -0.19903,0.791778 -0.35219,1.166475 -0.0561,0.140803 -0.12316,0.282665 -0.23537,0.378474 -0.11187,0.09599 -0.2802,0.130569 -0.39464,0.04235 -0.0921,-0.06846 -0.12704,-0.193031 -0.15668,-0.307367 -0.1034,-0.397141 -0.2068,-0.795518 -0.30631,-1.182672 -0.0995,-0.407093 -0.19656,-0.802964 -0.28761,-1.175192 -0.0896,-0.392166 -0.1655,-0.783061 -0.21773,-1.173956 -0.0547,-0.390931 -0.10834,-0.786802 -0.11963,-1.181438 -0.0141,-0.825372 0.0448,-1.643299 0.17045,-2.459955 0,-0.0025 0,-0.0035 0,-0.0071 1.34327,0.145744 2.60686,0.377239 3.68621,0.567693"
       style="fill:#201a17;fill-opacity:1;fill-rule:nonzero;stroke:none;stroke-width:0.124492"
       id="path646" />
    <path
       d="m 157.79376,37.645067 c 1.22499,-0.134451 2.46991,-0.108337 3.6638,-0.0025 0.13834,0.450674 0.1768,0.908795 0.002,1.337061 -0.20539,0.509149 -0.68969,0.928699 -0.95235,1.420415 -0.53159,0.993453 -0.11327,2.156223 -0.42452,3.20441 -0.0282,0.09846 -0.0674,0.19797 -0.1581,0.272783 -0.0921,0.0734 -0.25161,0.113277 -0.38094,0.06599 -0.10199,-0.03741 -0.16057,-0.117159 -0.21173,-0.19056 -0.70585,-1.024578 -1.42169,-2.070295 -1.65322,-3.184507 -0.20291,-0.977256 -0.0212,-1.950771 0.11469,-2.923052"
       style="fill:#201a17;fill-opacity:1;fill-rule:nonzero;stroke:none;stroke-width:0.124492"
       id="path648" />
    <path
       d="m 176.36043,56.312551 c -0.15316,-0.04976 -0.30737,-0.103397 -0.46437,-0.140803 -0.31478,-0.06846 -0.63241,-0.144332 -0.95732,-0.206793 -0.16303,-0.0247 -0.32254,-0.07587 -0.48303,-0.115748 -0.16057,-0.0434 -0.3236,-0.08081 -0.47806,-0.139391 -0.30878,-0.123158 -0.61749,-0.24667 -0.88014,-0.45318 -0.0995,-0.07481 -0.19797,-0.157036 -0.2442,-0.276313 -0.0473,-0.119629 -0.0247,-0.282664 0.0773,-0.379708 0.0808,-0.07728 0.18809,-0.09599 0.28372,-0.109396 0.3349,-0.05117 0.65483,-0.104455 0.97352,-0.186678 0.15562,-0.03741 0.30984,-0.07481 0.46063,-0.110807 0.15421,-0.04341 0.30489,-0.08716 0.45067,-0.127041 0.28866,-0.07234 0.57637,-0.169386 0.84778,-0.231495 0.13551,-0.02823 0.27384,-0.0734 0.40709,-0.100926 0.13304,-0.03176 0.26397,-0.0487 0.39588,-0.07234 0.22796,-0.04482 0.44816,-0.05611 0.66851,-0.07093 0.0487,1.00464 0.004,1.94456 -0.21526,2.614309 -0.0473,0.141861 -0.0946,0.281252 -0.14328,0.420785 -0.007,-0.0035 -0.0141,-0.0071 -0.0176,-0.01059 -0.0748,-0.04376 -0.14821,-0.08328 -0.22267,-0.120688 -0.15175,-0.07481 -0.30384,-0.134451 -0.45813,-0.18315"
       style="fill:#201a17;fill-opacity:1;fill-rule:nonzero;stroke:none;stroke-width:0.124492"
       id="path650" />
    <path
       d="m 148.3598,48.738491 c -0.1468,0.0071 -0.29643,0.01412 -0.44443,0.01412 -0.29889,0.0013 -0.59881,-0.01764 -0.89634,-0.06105 -0.29501,-0.04623 -0.56769,-0.141861 -0.8403,-0.255138 -0.41333,-0.165505 -0.76188,-0.426996 -1.08432,-0.720812 0.11963,-0.815421 0.26643,-1.664437 0.44443,-2.550824 0.0995,-0.492986 0.14821,-1.03827 0.16198,-1.62089 0.10692,0.03529 0.21279,0.06493 0.31513,0.09599 0.15315,0.04976 0.30136,0.101985 0.43945,0.163034 0.0699,0.02823 0.13586,0.06352 0.19938,0.09705 0.066,0.03529 0.13304,0.06458 0.19409,0.100926 0.24773,0.143273 0.43448,0.33101 0.53283,0.605029 0.0872,0.202911 0.12316,0.445699 0.15562,0.702143 0.0177,0.128099 0.0353,0.257609 0.0572,0.38592 0.0106,0.06458 0.0247,0.128099 0.0399,0.189148 0.0176,0.05964 0.0399,0.11716 0.0635,0.171857 0.19938,0.443194 0.56148,0.754442 0.9835,0.967305 0.20679,0.112219 0.41207,0.227966 0.61498,0.343714 0.20785,0.105867 0.40335,0.227966 0.57641,0.390895 0.066,0.05964 0.1281,0.130569 0.15068,0.240318 0.0212,0.110807 -0.007,0.272783 -0.096,0.374697 -0.0699,0.08081 -0.1581,0.105867 -0.24032,0.125629 -0.28267,0.06599 -0.5739,0.12704 -0.87393,0.176797 -0.14927,0.0247 -0.30137,0.04729 -0.45315,0.06352"
       style="fill:#201a17;fill-opacity:1;fill-rule:nonzero;stroke:none;stroke-width:0.124492"
       id="path652" />
    <path
       d="m 144.97612,48.595324 c 0.33243,-0.01765 0.59632,0.03176 0.71831,0.303837 0.14433,0.277724 0.11469,0.797988 0.2689,1.139091 0.16057,0.339832 0.44694,0.486775 0.76814,0.590101 0.15809,0.05223 0.3176,0.100927 0.47181,0.164447 0.15703,0.06352 0.30489,0.143273 0.432,0.263961 0.0473,0.04623 0.0921,0.100926 0.10199,0.199029 0.0106,0.09846 -0.0247,0.252669 -0.10199,0.363511 -0.0596,0.08822 -0.12951,0.128099 -0.19303,0.160565 -0.43945,0.226555 -0.88261,0.464331 -1.32456,0.619956 -0.22021,0.08081 -0.43822,0.145743 -0.65359,0.186678 -0.2142,0.04235 -0.42823,0.04587 -0.63241,0.02823 -0.0434,-0.0035 -0.0872,-0.01059 -0.12951,-0.01764 0.007,-1.223749 0.0946,-2.5558 0.27384,-4.002399"
       style="fill:#201a17;fill-opacity:1;fill-rule:nonzero;stroke:none;stroke-width:0.124492"
       id="path654" />
    <path
       d="m 156.99578,38.411931 c 0.0547,0.186678 0.10974,0.372227 0.15703,0.555235 0.0487,0.18315 0.0896,0.367252 0.11822,0.54899 0.0141,0.09105 0.0247,0.181738 0.0353,0.271372 0.0106,0.08963 0.0212,0.180679 0.0247,0.268901 0.0176,0.358536 -0.0399,0.698403 -0.21526,1.012122 -0.12563,0.248787 -0.31372,0.471813 -0.51289,0.697132 -0.0995,0.113278 -0.20044,0.226555 -0.29643,0.343714 -0.0473,0.05717 -0.0946,0.11716 -0.13833,0.177856 -0.0399,0.06105 -0.0783,0.123159 -0.11328,0.186679 -0.27525,0.5179 -0.3423,1.095544 -0.31513,1.676894 0.007,0.290075 0.0141,0.581385 0.0177,0.870224 0.0106,0.288664 -0.001,0.575139 -0.0572,0.860238 -0.0212,0.106926 -0.0512,0.217733 -0.13586,0.306308 -0.0847,0.08822 -0.24032,0.149272 -0.37347,0.113278 -0.10586,-0.02823 -0.16938,-0.108337 -0.22655,-0.18315 -0.19656,-0.260079 -0.39464,-0.527816 -0.58509,-0.804199 -0.0946,-0.139391 -0.18915,-0.278782 -0.27878,-0.42202 -0.0833,-0.141862 -0.16445,-0.287605 -0.24032,-0.434477 -0.15457,-0.293957 -0.29255,-0.597583 -0.40833,-0.910031 -0.11328,-0.31266 -0.18068,-0.631177 -0.23044,-0.958588 -0.10939,-0.685946 -0.0176,-1.370657 0.10446,-2.047886 0.0646,-0.338774 0.16445,-0.671019 0.25161,-1.00464 0.0459,-0.166917 0.091,-0.333481 0.13586,-0.499233 0.0434,-0.165505 0.10093,-0.32854 0.1468,-0.494221 0.0882,-0.311248 0.17539,-0.618721 0.26396,-0.929933 0.097,-0.307367 0.21915,-0.606299 0.35977,-0.896339 0.0212,-0.04482 0.0434,-0.08716 0.066,-0.130569 0.43198,0.454415 0.87393,0.928734 1.32831,1.419214 0.32008,-0.08857 0.64487,-0.160564 0.97105,-0.221614 0.004,0.02117 0.007,0.04623 0.0141,0.06846 0.0423,0.189148 0.0847,0.373462 0.13551,0.560211"
       style="fill:#201a17;fill-opacity:1;fill-rule:nonzero;stroke:none;stroke-width:0.124492"
       id="path656" />
    <path
       d="m 167.18291,47.331733 c -0.0857,0.250199 -0.18068,0.506679 -0.31478,0.690922 -0.13445,0.18562 -0.3176,0.275254 -0.42202,0.146802 -0.0833,-0.101985 -0.0984,-0.307367 -0.10834,-0.499197 -0.0353,-0.662302 -0.0699,-1.328345 -0.10339,-1.983167 -0.0141,-0.33348 -0.0282,-0.664772 -0.0399,-0.990948 -0.0247,-0.334891 -0.0473,-0.668513 -0.066,-1.003405 -0.036,-0.669748 -0.0572,-1.342002 -0.0536,-2.019231 0.007,-0.337362 -0.0141,-0.682241 -0.007,-1.025814 -0.001,-0.344773 0.004,-0.692192 0.0177,-1.040741 0.0247,-0.418314 0.0522,-0.837829 0.0797,-1.258614 0.7121,0.123158 1.32958,0.219144 1.81385,0.243846 0.36351,0.01765 0.81415,-0.136921 1.32457,-0.405822 -0.0399,0.112219 -0.0783,0.225496 -0.11575,0.338773 -0.0596,0.159506 -0.11574,0.320071 -0.16938,0.48427 -0.4432,1.315889 -0.6063,2.726387 -0.87894,4.136849 -0.12457,0.70712 -0.22903,1.421685 -0.37968,2.123828 -0.1655,0.699638 -0.34971,1.39183 -0.57641,2.061579"
       style="fill:#201a17;fill-opacity:1;fill-rule:nonzero;stroke:none;stroke-width:0.124492"
       id="path658" />
    <path
       d="m 195.60432,54.959327 c -0.33736,-0.01059 -0.70091,-0.02117 -1.08432,-0.03529 -0.38345,-0.01412 -0.7868,-0.0071 -1.20258,-0.01059 -0.41708,-0.0012 -0.84654,-0.0012 -1.28353,-0.0025 -0.43571,0.01059 -0.8789,0.02117 -1.3221,0.03529 -0.88638,0.01412 -1.77026,0.07093 -2.60312,0.117159 -0.20926,0.01411 -0.4133,0.0247 -0.61374,0.03529 -0.20186,0.01764 -0.39711,0.03529 -0.58883,0.04976 -0.38345,0.03176 -0.74569,0.06352 -1.08309,0.0921 -1.59598,0.149272 -3.01392,0.321129 -4.42816,0.532792 -0.70959,0.0921 -1.41297,0.225496 -2.14126,0.347243 -0.72826,0.117159 -1.47395,0.275254 -2.26326,0.434477 -0.80169,0.151743 -1.69305,0.379709 -2.63548,0.601288 -0.11822,0.02823 -0.23643,0.05717 -0.35603,0.08575 -0.11822,0.03176 -0.23785,0.06352 -0.3573,0.09599 -0.2389,0.06458 -0.48176,0.12951 -0.72452,0.195501 -0.24278,0.06599 -0.48801,0.13198 -0.73326,0.199029 l -0.36976,0.09951 -0.36722,0.109396 c -0.97976,0.295015 -1.96076,0.581384 -2.88571,0.898844 -0.46186,0.154212 -0.91504,0.295015 -1.34578,0.446934 -0.43074,0.153154 -0.84404,0.299955 -1.2337,0.438182 -0.60379,0.196559 -2.11758,0.815421 -2.7139,1.040776 -0.32254,0.123158 -0.20432,0.105867 0.26397,-0.0434 0.23396,-0.07481 0.55523,-0.18315 0.95361,-0.322541 0.19797,-0.07093 0.41704,-0.149272 0.65235,-0.233965 0.23643,-0.08716 0.49298,-0.167976 0.76436,-0.263962 0.30983,-0.105866 0.64363,-0.219144 1.00093,-0.341243 0.17786,-0.06105 0.36224,-0.123159 0.55273,-0.186679 0.19056,-0.05858 0.38716,-0.118218 0.58883,-0.180679 0.40335,-0.125629 0.82788,-0.25655 1.27231,-0.394636 0.22161,-0.07093 0.44817,-0.138332 0.6822,-0.202911 0.23291,-0.06705 0.47058,-0.13551 0.7121,-0.205382 1.93461,-0.571433 3.83809,-1.080582 6.10756,-1.564887 1.48891,-0.309836 3.08118,-0.591301 4.64977,-0.81168 0.7843,-0.108337 1.56111,-0.224085 2.31679,-0.298897 0.75564,-0.08328 1.4864,-0.174327 2.17983,-0.226555 0.52909,-0.0434 1.10423,-0.103396 1.71053,-0.149272 0.60502,-0.04093 1.24118,-0.08328 1.88852,-0.125629 0.64734,-0.03599 1.3059,-0.0547 1.95948,-0.08469 0.16304,-0.0071 0.32502,-0.01412 0.48801,-0.02117 0.16198,-0.0025 0.3236,-0.0035 0.48427,-0.0071 0.32008,-0.0035 0.63739,-0.0071 0.94864,-0.01412 0.31125,-0.0035 0.61622,-0.01059 0.9125,-0.01059 0.29643,0.0035 0.58513,0.0071 0.86151,0.01059 0.55524,0.01059 1.06813,0.0071 1.52004,0.0247 0.90254,0.03988 1.56361,0.06952 1.83749,0.08222 0.32748,0.01764 0.26008,-0.0071 -0.22656,-0.05717 -0.24278,-0.0247 -0.59006,-0.05611 -1.04695,-0.09069 -0.22796,-0.01764 -0.48427,-0.03529 -0.76686,-0.0547 -0.28267,-0.01059 -0.59261,-0.02117 -0.9312,-0.03529"
       style="fill:#ffffff;fill-opacity:1;fill-rule:evenodd;stroke:none;stroke-width:0.124492"
       id="path660" />
    <path
       d="m 193.09207,62.722606 c -0.2862,-0.06105 -0.59508,-0.125629 -0.91999,-0.195501 -0.16197,-0.03741 -0.32995,-0.06705 -0.5017,-0.09457 -0.17186,-0.02823 -0.34618,-0.05717 -0.52411,-0.08716 -0.71086,-0.117159 -1.4665,-0.242788 -2.22341,-0.368487 -0.18915,-0.03176 -0.37721,-0.06211 -0.56643,-0.09352 -0.0935,-0.01412 -0.18809,-0.02823 -0.28125,-0.04482 -0.0946,-0.01059 -0.18809,-0.02117 -0.28266,-0.03529 -0.3735,-0.04482 -0.74199,-0.08822 -1.09929,-0.130569 -0.71456,-0.08469 -1.38431,-0.163035 -1.96323,-0.231495 -0.17044,-0.02117 -0.33983,-0.03847 -0.50791,-0.05858 -0.16692,-0.01412 -0.33242,-0.0247 -0.49546,-0.03599 -0.32853,-0.0247 -0.64861,-0.04729 -0.96356,-0.06987 -0.63118,-0.04482 -1.24369,-0.08963 -1.8562,-0.133039 -0.61247,-0.05611 -1.22622,-0.05611 -1.85863,-0.07587 -0.63241,-0.01412 -1.28353,-0.03176 -1.97194,-0.0487 -0.69841,-0.03176 -1.48147,0.01412 -2.30807,0.03176 -0.41207,0.01412 -0.83536,0.0247 -1.26486,0.03988 -0.21421,0.0071 -0.42947,0.01412 -0.64611,0.02117 l -0.32501,0.01059 -0.32501,0.0247 c -0.86768,0.0674 -1.73417,0.133039 -2.55831,0.196559 -0.41206,0.03529 -0.81415,0.05364 -1.19883,0.09704 -0.38345,0.04482 -0.75194,0.08716 -1.09925,0.12704 -0.53533,0.06599 -1.90101,0.231495 -2.43631,0.296427 -0.57888,0.06599 0.40833,0.06105 2.3454,-0.143273 0.27632,-0.02823 0.57391,-0.05717 0.89137,-0.08822 0.1595,-0.01764 0.3236,-0.03176 0.49175,-0.04729 0.16939,-0.0071 0.34371,-0.01764 0.52287,-0.02823 0.71457,-0.03741 1.50635,-0.08081 2.36161,-0.136921 0.2142,-0.01412 0.427,-0.02823 0.63986,-0.0434 l 0.32007,-0.02117 c 0.10692,-0.0071 0.2142,-0.0071 0.32113,-0.01059 0.4295,-0.01412 0.86151,-0.0247 1.30219,-0.03988 0.44069,-0.01412 0.88886,-0.0247 1.35199,-0.04129 0.4631,-0.0071 0.93865,-0.03529 1.43538,-0.01411 0.64984,0.01764 1.32086,0.03741 1.99933,0.0547 0.67846,0.0247 1.36441,0.02823 2.04291,0.09352 0.67846,0.05117 1.35072,0.101985 2.00307,0.151742 0.65108,0.05117 1.28349,0.08575 1.87857,0.165505 0.90879,0.09846 1.98189,0.215263 3.0936,0.335951 1.10924,0.151742 2.25581,0.33101 3.32019,0.482999 0.26502,0.04129 0.52662,0.0734 0.77932,0.118218 0.25267,0.0487 0.49797,0.09457 0.73451,0.139391 0.47181,0.09069 0.90879,0.174328 1.29221,0.247729 0.76937,0.149272 1.33205,0.25902 1.56485,0.304896 0.55523,0.115747 -0.21667,-0.131981 -2.51472,-0.622461"
       style="fill:#ffffff;fill-opacity:1;fill-rule:evenodd;stroke:none;stroke-width:0.124492"
       id="path662" />
    <path
       d="m 186.80277,73.618094 c -0.85276,-0.591337 -2.00805,-1.280988 -3.15211,-1.996824 -0.5702,-0.363511 -1.15406,-0.692192 -1.70181,-1.00591 -0.54775,-0.313719 -1.06068,-0.607499 -1.50387,-0.861473 -0.13198,-0.07481 -0.26149,-0.148214 -0.38966,-0.221615 -0.12951,-0.06846 -0.25761,-0.136921 -0.38465,-0.204322 -0.25267,-0.13304 -0.5017,-0.26502 -0.74573,-0.394636 -0.48924,-0.257609 -0.96356,-0.509149 -1.43788,-0.759383 -0.47058,-0.257609 -0.95485,-0.480564 -1.44907,-0.723316 -0.49422,-0.238906 -1.00464,-0.485505 -1.54495,-0.746926 -0.54401,-0.273842 -1.16898,-0.529086 -1.82503,-0.815421 -0.32748,-0.139391 -0.66354,-0.283722 -1.00464,-0.430736 -0.17045,-0.07234 -0.34231,-0.145743 -0.51416,-0.219144 -0.17186,-0.07481 -0.34478,-0.145743 -0.51914,-0.211734 -0.69713,-0.26996 -1.3943,-0.540273 -2.0566,-0.796718 -0.33242,-0.12704 -0.65232,-0.260079 -0.9648,-0.370992 -0.31125,-0.110807 -0.61124,-0.217733 -0.8926,-0.318659 -0.43448,-0.151742 -1.54618,-0.539038 -1.98066,-0.690922 -0.46934,-0.167975 0.29996,0.219145 1.86611,0.797989 0.22303,0.08469 0.46314,0.174327 0.71958,0.271371 0.1281,0.0487 0.26008,0.09951 0.39714,0.151743 0.13445,0.05611 0.27384,0.114689 0.41578,0.174327 0.57019,0.238906 1.20134,0.501703 1.88605,0.778085 0.34124,0.140803 0.68594,0.263961 1.02581,0.414539 0.34124,0.146802 0.68348,0.293957 1.03453,0.444429 0.34971,0.149272 0.70585,0.302426 1.07437,0.460626 0.36598,0.161976 0.74693,0.3176 1.13285,0.511654 0.50795,0.247728 1.03329,0.504208 1.56488,0.763158 0.52909,0.263961 1.06936,0.515395 1.591,0.805434 0.52412,0.280194 1.04449,0.557742 1.54866,0.826643 0.50294,0.26996 0.99469,0.522841 1.44907,0.789272 0.69967,0.392131 1.52377,0.852757 2.37903,1.332051 0.84655,0.500467 1.72299,1.020838 2.53467,1.501367 0.20291,0.120688 0.40335,0.235377 0.59507,0.354794 0.19162,0.120689 0.37721,0.238906 0.55524,0.352184 0.35726,0.227966 0.68718,0.436947 0.97849,0.622461 0.58262,0.369722 1.00715,0.641129 1.18267,0.756912 0.41705,0.276312 -0.13939,-0.18809 -1.86364,-1.340802"
       style="fill:#ffffff;fill-opacity:1;fill-rule:evenodd;stroke:none;stroke-width:0.124492"
       id="path664" />
    <path
       d="m 128.49343,57.027116 c 0.28902,-0.06705 0.60133,-0.140803 0.92997,-0.216674 0.16445,-0.04094 0.33348,-0.0734 0.50792,-0.104455 0.17291,-0.03176 0.34971,-0.06599 0.53035,-0.09952 0.35854,-0.06705 0.7295,-0.136921 1.10673,-0.206793 0.37844,-0.0547 0.76189,-0.108337 1.14655,-0.163035 0.19162,-0.02823 0.38345,-0.0547 0.57518,-0.08222 0.096,-0.01412 0.19162,-0.02823 0.28619,-0.03988 0.096,-0.01059 0.19056,-0.01765 0.2862,-0.02823 0.37847,-0.03741 0.7532,-0.0734 1.11544,-0.108337 0.18174,-0.01764 0.35981,-0.03599 0.5341,-0.05364 0.17539,-0.0071 0.34724,-0.01764 0.51412,-0.02823 0.3349,-0.01764 0.65112,-0.03599 0.94614,-0.05223 1.3943,-0.06105 2.63798,-0.05611 3.87916,0 0.62123,0.0071 1.24119,0.07481 1.87981,0.120688 0.63989,0.03599 1.29472,0.128098 1.98938,0.210322 0.70588,0.06846 1.49018,0.217732 2.32053,0.342302 0.10339,0.01765 0.20785,0.03176 0.3123,0.04976 0.10446,0.02117 0.21032,0.04235 0.31513,0.06352 0.21174,0.04235 0.42453,0.08469 0.63866,0.128099 0.21526,0.04235 0.43074,0.08575 0.64734,0.129511 l 0.32501,0.06458 0.3236,0.07975 c 0.43197,0.105867 0.86394,0.212792 1.28971,0.3176 0.10692,0.02823 0.21279,0.05223 0.31865,0.07834 0.10587,0.03176 0.21033,0.06211 0.31372,0.0921 0.20927,0.06105 0.41454,0.1221 0.61872,0.181738 0.40583,0.12457 0.80544,0.230436 1.18268,0.35977 0.3772,0.131981 0.73821,0.257609 1.07807,0.375968 0.53032,0.161977 1.85493,0.699638 2.3753,0.90255 0.28019,0.112218 0.19056,0.0487 -0.20432,-0.140803 -0.19656,-0.09457 -0.47058,-0.220203 -0.81168,-0.370992 -0.17186,-0.0734 -0.35977,-0.154213 -0.56269,-0.242788 -0.20432,-0.08716 -0.42826,-0.161976 -0.6648,-0.24914 -0.27137,-0.09951 -0.56268,-0.206793 -0.8739,-0.32007 -0.15562,-0.05717 -0.31619,-0.115748 -0.4818,-0.177856 -0.16691,-0.05364 -0.33877,-0.108337 -0.51416,-0.164447 -0.35356,-0.112219 -0.72451,-0.230436 -1.11417,-0.353524 -0.097,-0.03176 -0.1955,-0.06211 -0.29502,-0.09352 -0.10093,-0.0247 -0.20185,-0.05223 -0.3049,-0.07975 -0.20538,-0.05364 -0.41457,-0.108337 -0.62743,-0.164446 -1.70679,-0.455615 -3.40111,-0.739479 -5.40542,-1.019567 -0.32854,-0.03988 -0.66353,-0.08081 -1.00217,-0.123159 -0.16938,-0.02117 -0.33842,-0.04235 -0.50918,-0.06211 -0.17186,-0.01412 -0.34371,-0.02823 -0.5154,-0.04235 -0.68965,-0.05117 -1.38681,-0.131981 -2.07897,-0.144332 -0.69219,-0.0247 -1.3769,-0.06599 -2.04168,-0.0487 -0.66604,0.0071 -1.31087,0 -1.91964,0.04588 -0.46314,0.02823 -0.96981,0.04976 -1.50137,0.09846 -0.53036,0.05717 -1.08683,0.118218 -1.65325,0.18068 -0.56395,0.07481 -1.13787,0.175385 -1.70556,0.262549 -0.14186,0.02117 -0.28373,0.04482 -0.42449,0.06705 -0.14081,0.02823 -0.2802,0.05858 -0.41832,0.08716 -0.27772,0.05717 -0.55273,0.113277 -0.82163,0.169386 -0.2689,0.05717 -0.53283,0.105867 -0.78804,0.166917 -0.25408,0.06458 -0.5017,0.12704 -0.73948,0.18809 -0.47555,0.125628 -0.91751,0.225496 -1.30219,0.341244 -0.76934,0.229025 -1.33205,0.397106 -1.56609,0.468072 -0.27878,0.07834 -0.21667,0.08222 0.20432,-0.01412 0.20927,-0.0487 0.50915,-0.122099 0.90005,-0.224084 0.1955,-0.05117 0.41334,-0.109749 0.65485,-0.172916 0.24385,-0.05611 0.51039,-0.117159 0.8017,-0.183149"
       style="fill:#ffffff;fill-opacity:1;fill-rule:evenodd;stroke:none;stroke-width:0.124492"
       id="path666" />
    <path
       d="m 135.48242,61.991843 c 0.20291,-0.07728 0.42202,-0.160565 0.65231,-0.248787 0.22903,-0.09104 0.47683,-0.163035 0.72953,-0.25161 0.25267,-0.08469 0.51416,-0.171857 0.77809,-0.261491 0.26784,-0.07728 0.53903,-0.155624 0.81044,-0.235377 0.54027,-0.166916 1.08803,-0.293957 1.60219,-0.420785 0.1281,-0.03176 0.25514,-0.06211 0.37847,-0.09352 0.12457,-0.0247 0.24667,-0.04976 0.36598,-0.07481 0.23785,-0.0487 0.46437,-0.09457 0.67353,-0.136921 0.99342,-0.19303 1.88354,-0.323599 2.77491,-0.418315 0.44443,-0.06105 0.89259,-0.08222 1.35322,-0.119629 0.45936,-0.04341 0.93491,-0.05117 1.43785,-0.06987 0.50918,-0.02823 1.08061,-0.01412 1.68314,-0.01765 0.0759,0 0.15174,-0.0012 0.22796,-0.0012 0.0759,0.0025 0.15316,0.0071 0.23044,0.0071 0.15421,0.0071 0.30878,0.01412 0.4656,0.01764 0.15704,0.0071 0.31478,0.01059 0.47182,0.01765 l 0.23784,0.0071 0.23785,0.01764 c 0.63241,0.04976 1.2673,0.09105 1.86611,0.179268 0.29996,0.03988 0.59381,0.06846 0.87393,0.115747 0.27879,0.04976 0.54776,0.09705 0.79923,0.141862 0.39216,0.05364 1.3806,0.273842 1.76779,0.3573 0.20927,0.04729 0.14187,0.0035 -0.15315,-0.0921 -0.14821,-0.04729 -0.35218,-0.108337 -0.60873,-0.179268 -0.12704,-0.03529 -0.26785,-0.07093 -0.41955,-0.110807 -0.15316,-0.03988 -0.31866,-0.06705 -0.49549,-0.103396 -0.20045,-0.03988 -0.41705,-0.08222 -0.64858,-0.128099 -0.11575,-0.0247 -0.23538,-0.0487 -0.3573,-0.0734 -0.12316,-0.01765 -0.2502,-0.03847 -0.38094,-0.05964 -0.26149,-0.03988 -0.53657,-0.08222 -0.82414,-0.128099 -0.14327,-0.0247 -0.29113,-0.04129 -0.44192,-0.0547 -0.15069,-0.01412 -0.3049,-0.02823 -0.46187,-0.04623 -1.25487,-0.129511 -2.48861,-0.130569 -3.94388,-0.105867 -0.95489,0.02117 -1.97195,0.07481 -2.96664,0.180679 -0.49672,0.05611 -0.99098,0.100926 -1.46653,0.184208 -0.47556,0.07587 -0.93865,0.139391 -1.37063,0.238906 -0.33101,0.06987 -0.69219,0.139391 -1.06939,0.231495 -0.37597,0.09846 -0.76937,0.202912 -1.17145,0.308778 -0.39965,0.113278 -0.80173,0.247729 -1.20261,0.370993 -0.10093,0.03176 -0.20044,0.06352 -0.29996,0.09599 -0.0985,0.03529 -0.1955,0.07093 -0.2936,0.105866 -0.19409,0.07093 -0.38719,0.140803 -0.57518,0.210322 -0.18915,0.06987 -0.37469,0.13304 -0.55273,0.204323 -0.17821,0.0734 -0.35112,0.144332 -0.51663,0.214204 -0.33242,0.139391 -0.6424,0.257609 -0.90879,0.382179 -0.5353,0.246669 -0.92623,0.426996 -1.09054,0.497962 -0.19408,0.08469 -0.14821,0.08716 0.14928,-0.01765 0.14821,-0.05223 0.35853,-0.13198 0.63241,-0.241376 0.13692,-0.05611 0.29007,-0.118218 0.45939,-0.18809 0.17045,-0.06352 0.35727,-0.134451 0.56145,-0.210322"
       style="fill:#ffffff;fill-opacity:1;fill-rule:evenodd;stroke:none;stroke-width:0.124492"
       id="path668" />
    <path
       d="m 132.23815,67.725939 c 0.2255,-0.131981 0.46685,-0.275254 0.72206,-0.424526 0.25408,-0.154213 0.5316,-0.290075 0.81168,-0.445664 0.28126,-0.151742 0.57144,-0.308778 0.86649,-0.466872 0.29889,-0.146802 0.60252,-0.296427 0.90629,-0.445664 0.60376,-0.308778 1.22124,-0.572668 1.79888,-0.829113 0.14434,-0.06352 0.2862,-0.128099 0.42577,-0.189148 0.1408,-0.05611 0.27878,-0.111866 0.4133,-0.165505 0.27031,-0.106926 0.52411,-0.209264 0.76189,-0.303838 1.12416,-0.436983 2.13628,-0.781791 3.15588,-1.086828 0.50792,-0.166917 1.02331,-0.291134 1.55116,-0.435712 0.52659,-0.150684 1.07685,-0.26502 1.65573,-0.397106 0.58636,-0.145744 1.25113,-0.254081 1.9483,-0.394636 0.0872,-0.01764 0.17538,-0.03529 0.26396,-0.05117 0.0882,-0.01412 0.17785,-0.02823 0.26749,-0.03988 0.17926,-0.02823 0.3598,-0.05611 0.54154,-0.08469 0.18315,-0.02823 0.36602,-0.05611 0.55026,-0.08469 l 0.27631,-0.04235 0.27773,-0.03176 c 0.36972,-0.04235 0.74071,-0.08328 1.10546,-0.12457 0.0921,-0.01059 0.18315,-0.02117 0.27384,-0.03176 0.091,-0.0071 0.18174,-0.01412 0.27278,-0.01765 0.18068,-0.01411 0.35854,-0.0247 0.53534,-0.03741 0.35356,-0.02117 0.69713,-0.05364 1.02828,-0.06211 0.33101,-0.0071 0.64861,-0.01412 0.9474,-0.01765 0.46059,-0.0247 1.63829,0.0035 2.09891,0.01059 0.24879,0.0071 0.16445,-0.02117 -0.19161,-0.05964 -0.17786,-0.02117 -0.42453,-0.03988 -0.73077,-0.06105 -0.15315,-0.0071 -0.32113,-0.01765 -0.50293,-0.02823 -0.18315,-0.01059 -0.37848,-0.0035 -0.5876,-0.0035 -0.23891,0 -0.49549,0 -0.7706,0.0012 -0.13693,0 -0.27773,-0.0012 -0.42453,-0.0012 -0.14574,0.0071 -0.29502,0.01411 -0.4494,0.01764 -0.30737,0.01412 -0.63242,0.02823 -0.97105,0.04094 -0.0847,0.0035 -0.17044,0.0071 -0.25761,0.01412 -0.0858,0.0071 -0.17433,0.01411 -0.26255,0.0247 -0.1768,0.01765 -0.35603,0.03529 -0.54031,0.05223 -1.47147,0.133039 -2.90064,0.400882 -4.58127,0.750701 -1.10176,0.237847 -2.2707,0.524111 -3.40733,0.865213 -0.56769,0.172916 -1.13288,0.334892 -1.67191,0.534063 -0.54031,0.19056 -1.06689,0.366017 -1.55367,0.571398 -0.37346,0.153154 -0.78179,0.311248 -1.20631,0.496727 -0.42079,0.194089 -0.86398,0.398376 -1.31339,0.605028 -0.44817,0.215263 -0.89634,0.455651 -1.34451,0.682241 -0.11221,0.05717 -0.22302,0.114689 -0.33348,0.171857 -0.10974,0.06211 -0.21773,0.123158 -0.32607,0.184208 -0.21667,0.1221 -0.4295,0.242788 -0.63989,0.362276 -0.20785,0.119629 -0.41457,0.231495 -0.61251,0.349713 -0.19656,0.1221 -0.38715,0.240318 -0.57141,0.35356 -0.36602,0.230436 -0.70836,0.431971 -1.00217,0.628672 -0.5876,0.393401 -1.01833,0.68097 -1.19637,0.800494 -0.21526,0.139391 -0.16197,0.128098 0.16551,-0.05858 0.16445,-0.09352 0.39714,-0.231495 0.69964,-0.417044 0.15068,-0.09352 0.31866,-0.197971 0.50544,-0.313719 0.18915,-0.109395 0.39714,-0.231495 0.62246,-0.362276"
       style="fill:#ffffff;fill-opacity:1;fill-rule:evenodd;stroke:none;stroke-width:0.124492"
       id="path670" />
    <path
       d="m 141.70699,67.674876 c 0.26008,-0.18068 0.55895,-0.393366 0.88763,-0.600053 0.16303,-0.105867 0.33101,-0.214204 0.5017,-0.325011 0.17291,-0.104455 0.34865,-0.211733 0.52534,-0.3176 0.70215,-0.426996 1.42169,-0.80794 1.97195,-1.088063 0.65482,-0.329952 1.24365,-0.600053 1.84,-0.849016 0.29501,-0.131981 0.59631,-0.240318 0.90502,-0.362276 0.30878,-0.12457 0.62994,-0.231496 0.96981,-0.351125 0.3423,-0.12704 0.73323,-0.242788 1.14159,-0.379709 0.20433,-0.06987 0.41705,-0.123158 0.63115,-0.18809 0.2142,-0.05964 0.4295,-0.130569 0.64861,-0.181738 0.43698,-0.109395 0.87269,-0.225496 1.29221,-0.304896 0.20926,-0.04094 0.41207,-0.08822 0.60877,-0.120688 0.19655,-0.03176 0.38592,-0.06105 0.56395,-0.08963 0.27278,-0.05223 0.97478,-0.140803 1.25113,-0.174327 0.14821,-0.01765 0.096,-0.03741 -0.11963,-0.04235 -0.10834,-0.0025 -0.25655,0 -0.43945,0.0071 -0.18421,0.0071 -0.40462,0.02117 -0.65359,0.05858 -0.56893,0.07587 -1.31836,0.156682 -2.18858,0.35977 -0.87266,0.191619 -1.71049,0.471848 -2.69897,0.797988 -1.29471,0.433242 -2.74255,1.014627 -3.88411,1.605964 -0.8752,0.436947 -2.02675,1.141596 -2.98406,1.825036 -0.12069,0.08328 -0.23891,0.164447 -0.35219,0.247729 -0.11327,0.08469 -0.22161,0.166916 -0.32748,0.245258 -0.21032,0.160564 -0.40709,0.302426 -0.57514,0.438217 -0.33595,0.271372 -0.58138,0.468073 -0.68594,0.54652 -0.12316,0.09457 -0.0882,0.0921 0.10586,-0.02823 0.097,-0.06105 0.23397,-0.151743 0.4096,-0.273842 0.0882,-0.06211 0.18668,-0.13304 0.29502,-0.210322 0.10939,-0.07481 0.22902,-0.157036 0.3598,-0.24667"
       style="fill:#ffffff;fill-opacity:1;fill-rule:evenodd;stroke:none;stroke-width:0.124492"
       id="path672" />
    <path
       d="m 183.35434,68.650896 c -0.15422,-0.12704 -0.32007,-0.262549 -0.49546,-0.407092 -0.17292,-0.148214 -0.36725,-0.281253 -0.56021,-0.431972 -0.1955,-0.145743 -0.39714,-0.297486 -0.60256,-0.450675 -0.20926,-0.144331 -0.42202,-0.290075 -0.63365,-0.435712 -0.42202,-0.299956 -0.86023,-0.562682 -1.26856,-0.816656 -0.10199,-0.06458 -0.20291,-0.12704 -0.30243,-0.186678 -0.0995,-0.05717 -0.19797,-0.111866 -0.29396,-0.165506 -0.19303,-0.106925 -0.37473,-0.209263 -0.54401,-0.303837 -0.80547,-0.434442 -1.535,-0.788002 -2.27324,-1.106696 -0.36725,-0.170445 -0.74319,-0.304896 -1.12663,-0.456885 -0.38345,-0.157036 -0.78681,-0.283723 -1.2113,-0.425761 -0.42826,-0.153154 -0.92001,-0.270313 -1.43414,-0.410834 -0.1281,-0.03599 -0.26008,-0.0674 -0.39216,-0.09351 -0.13304,-0.02823 -0.26785,-0.05717 -0.40212,-0.08575 -0.13445,-0.02823 -0.26996,-0.05717 -0.40706,-0.08575 -0.13586,-0.03176 -0.27278,-0.05717 -0.4096,-0.07728 -0.55026,-0.08963 -1.09801,-0.18562 -1.62336,-0.233966 -0.26149,-0.02823 -0.51663,-0.06599 -0.76189,-0.08328 -0.24525,-0.01765 -0.48052,-0.03529 -0.70337,-0.04976 -0.34125,-0.04235 -1.21627,-0.03176 -1.55865,-0.04235 -0.1842,-0.0035 -0.12068,0.0247 0.14328,0.05858 0.13198,0.01764 0.31513,0.03741 0.54031,0.05611 0.22655,0.01765 0.49672,0.03176 0.80547,0.06458 0.17538,0.01764 0.36474,0.03529 0.56642,0.0547 0.10092,0.01059 0.20538,0.02117 0.31231,0.03176 0.10586,0.01764 0.21667,0.03529 0.32853,0.05117 0.22656,0.03529 0.46437,0.06846 0.71334,0.104455 0.24913,0.03176 0.50667,0.0921 0.77557,0.136921 1.07685,0.184208 2.12881,0.412069 3.35009,0.794248 0.79922,0.257609 1.64203,0.577644 2.45371,0.941155 0.40585,0.184208 0.80921,0.358535 1.19015,0.560212 0.38341,0.1955 0.75815,0.374697 1.10299,0.572668 0.26396,0.149272 0.55524,0.299956 0.85526,0.473048 0.2989,0.177856 0.61248,0.364782 0.93117,0.555236 0.3176,0.196559 0.63368,0.409563 0.95114,0.613745 0.0784,0.05117 0.15669,0.101985 0.23644,0.154212 0.0759,0.05364 0.15315,0.108337 0.22902,0.163035 0.15175,0.108337 0.30243,0.215262 0.45064,0.318659 0.14681,0.106925 0.29255,0.205381 0.43074,0.309837 0.13833,0.106925 0.27137,0.210322 0.39961,0.311248 0.25655,0.201852 0.498,0.378438 0.70215,0.551495 0.40709,0.346184 0.70461,0.600017 0.82664,0.708354 0.14574,0.129511 0.12563,0.08575 -0.0797,-0.125628 -0.1034,-0.105867 -0.25408,-0.252669 -0.45315,-0.440723 -0.0995,-0.09352 -0.21173,-0.197971 -0.33489,-0.313719 -0.12951,-0.108337 -0.26996,-0.226555 -0.42329,-0.354795"
       style="fill:#ffffff;fill-opacity:1;fill-rule:evenodd;stroke:none;stroke-width:0.124492"
       id="path674" />
    <path
       d="m 150.78616,44.627791 c 0.0911,0.06846 0.19656,0.145743 0.30243,0.237847 0.0536,0.04482 0.10833,0.0921 0.1655,0.138333 0.0536,0.05117 0.10834,0.100926 0.16198,0.151742 0.2202,0.201853 0.42078,0.42075 0.56893,0.592571 0.34724,0.408328 0.58512,0.755642 0.85152,1.220009 0.13586,0.235377 0.29148,0.535297 0.42826,0.84531 0.0646,0.157036 0.13304,0.313719 0.18174,0.466838 0.0561,0.151742 0.0971,0.299955 0.13198,0.431971 0.0318,0.09951 0.0896,0.363511 0.11328,0.466837 0.0212,0.112219 0.0423,-0.08716 -0.0399,-0.464331 -0.0498,-0.214204 -0.10939,-0.497962 -0.23149,-0.815421 -0.11822,-0.320071 -0.27773,-0.613745 -0.46433,-0.957353 -0.24667,-0.45191 -0.57267,-0.939921 -0.88763,-1.29595 -0.23537,-0.276313 -0.60005,-0.61124 -0.94366,-0.861473 -0.0833,-0.06599 -0.16691,-0.123159 -0.24667,-0.175386 -0.0797,-0.05117 -0.14927,-0.101985 -0.21667,-0.141862 -0.13198,-0.07834 -0.22797,-0.135862 -0.26784,-0.161976 -0.0946,-0.05717 0.0247,0.0547 0.39216,0.322541"
       style="fill:#ffffff;fill-opacity:1;fill-rule:evenodd;stroke:none;stroke-width:0.124492"
       id="path676" />
    <path
       d="m 150.50604,46.310896 c 0.14186,0.06352 0.29995,0.19303 0.46811,0.304896 0.0857,0.05223 0.15809,0.123158 0.23043,0.18562 0.0709,0.06211 0.13833,0.120688 0.1955,0.171857 0.13304,0.122099 0.23397,0.25161 0.34619,0.367251 0.0572,0.05717 0.0995,0.12704 0.14927,0.193031 0.0498,0.0674 0.0995,0.136921 0.15315,0.209263 0.0596,0.07093 0.10587,0.164446 0.16445,0.255139 0.0547,0.09457 0.12316,0.189148 0.17539,0.291133 0.0487,0.103397 0.0985,0.207852 0.14433,0.307367 0.0212,0.04976 0.0487,0.09704 0.0646,0.145743 0.0141,0.04976 0.0282,0.09599 0.0423,0.140803 0.0212,0.06846 0.0783,0.242788 0.10093,0.311248 0.0212,0.07481 0.0374,-0.06211 -0.0282,-0.318659 -0.0212,-0.07093 -0.0282,-0.160564 -0.067,-0.250198 -0.0318,-0.09105 -0.0709,-0.191619 -0.11575,-0.299956 -0.0399,-0.109396 -0.1034,-0.206793 -0.16692,-0.307367 -0.067,-0.100926 -0.1221,-0.211733 -0.2015,-0.32007 -0.0512,-0.07234 -0.10339,-0.145743 -0.15703,-0.220203 -0.0547,-0.07481 -0.10199,-0.155624 -0.16692,-0.221614 -0.061,-0.06987 -0.12069,-0.138333 -0.17927,-0.205382 -0.0596,-0.06599 -0.11468,-0.133039 -0.17926,-0.183149 -0.0946,-0.08081 -0.20927,-0.172916 -0.32748,-0.26749 -0.12704,-0.08328 -0.26397,-0.161976 -0.38719,-0.236436 -0.0611,-0.03988 -0.12457,-0.06846 -0.18421,-0.09352 -0.0596,-0.0247 -0.11434,-0.04976 -0.16304,-0.07093 -0.096,-0.04235 -0.1655,-0.0734 -0.19409,-0.08822 -0.067,-0.03529 0.0141,0.0547 0.28514,0.200442"
       style="fill:#ffffff;fill-opacity:1;fill-rule:evenodd;stroke:none;stroke-width:0.124492"
       id="path678" />
    <path
       d="m 169.60426,46.700556 c -0.0723,0.04729 -0.15704,0.101985 -0.24138,0.167975 -0.0423,0.03529 -0.0858,0.06599 -0.13057,0.100926 -0.0434,0.03599 -0.0858,0.0734 -0.12951,0.110808 -0.17291,0.149272 -0.33101,0.3176 -0.44443,0.449404 -0.26502,0.3176 -0.44689,0.587596 -0.63364,0.958588 -0.0946,0.186678 -0.18421,0.433242 -0.25267,0.684711 -0.067,0.25161 -0.11469,0.506678 -0.13939,0.71333 -0.0177,0.07834 -0.0177,0.283723 -0.0247,0.363511 -0.004,0.08575 0.0522,-0.05717 0.0935,-0.337362 0.0247,-0.161976 0.0797,-0.368487 0.15174,-0.608769 0.0671,-0.241376 0.13939,-0.478059 0.26502,-0.740714 0.16692,-0.344773 0.42326,-0.695898 0.65108,-0.962329 0.16939,-0.206793 0.41955,-0.470578 0.66107,-0.673489 0.11716,-0.105867 0.23644,-0.18809 0.32854,-0.257609 0.096,-0.06352 0.1655,-0.109396 0.19656,-0.12704 0.0734,-0.03846 -0.0547,-0.0247 -0.35113,0.158094"
       style="fill:#ffffff;fill-opacity:1;fill-rule:evenodd;stroke:none;stroke-width:0.124492"
       id="path680" />
    <path
       d="m 170.73216,48.41108 c -0.22796,0.09599 -0.57641,0.297486 -0.77932,0.439453 -0.12069,0.08328 -0.22161,0.166917 -0.32607,0.245258 -0.10339,0.07975 -0.19656,0.171857 -0.30631,0.26996 -0.10833,0.101985 -0.22549,0.24667 -0.3423,0.38966 -0.10586,0.151743 -0.2202,0.295016 -0.2989,0.420785 -0.0282,0.0487 -0.10586,0.171857 -0.1355,0.220203 -0.0353,0.05117 0.0685,-0.0071 0.18809,-0.169387 0.0646,-0.09704 0.17538,-0.201852 0.28866,-0.341243 0.0536,-0.07093 0.11186,-0.138333 0.17186,-0.207852 0.061,-0.06846 0.11963,-0.145743 0.1955,-0.215262 0.10198,-0.09105 0.20785,-0.189149 0.32254,-0.273842 0.11574,-0.08222 0.22408,-0.170446 0.32854,-0.238906 0.0783,-0.05364 0.16938,-0.118218 0.26396,-0.18809 0.097,-0.06352 0.19903,-0.130569 0.29254,-0.19056 0.19056,-0.11963 0.35977,-0.206794 0.40336,-0.229026 0.0536,-0.0247 -0.0385,-0.02823 -0.26644,0.06846"
       style="fill:#ffffff;fill-opacity:1;fill-rule:evenodd;stroke:none;stroke-width:0.124492"
       id="path682" />
  </g>
</svg>
