<?xml version="1.0" encoding="UTF-8" standalone="no"?>
<!-- Created with Inkscape (http://www.inkscape.org/) -->

<svg
   width="210mm"
   height="210mm"
   viewBox="0 0 210 210"
   version="1.1"
   id="svg33263"
   inkscape:version="1.2.1 (9c6d41e410, 2022-07-14)"
   sodipodi:docname="house-cat2.svg"
   xmlns:inkscape="http://www.inkscape.org/namespaces/inkscape"
   xmlns:sodipodi="http://sodipodi.sourceforge.net/DTD/sodipodi-0.dtd"
   xmlns="http://www.w3.org/2000/svg"
   xmlns:svg="http://www.w3.org/2000/svg">
  <sodipodi:namedview
     id="namedview33265"
     pagecolor="#ffffff"
     bordercolor="#000000"
     borderopacity="0.25"
     inkscape:showpageshadow="2"
     inkscape:pageopacity="0.0"
     inkscape:pagecheckerboard="0"
     inkscape:deskcolor="#d1d1d1"
     inkscape:document-units="mm"
     showgrid="false"
     inkscape:zoom="0.49085999"
     inkscape:cx="143.62548"
     inkscape:cy="399.2992"
     inkscape:window-width="1366"
     inkscape:window-height="705"
     inkscape:window-x="-8"
     inkscape:window-y="-8"
     inkscape:window-maximized="1"
     inkscape:current-layer="layer1" />
  <defs
     id="defs33260" />
  <g
     inkscape:label="Layer 1"
     inkscape:groupmode="layer"
     id="layer1">
    <g
       id="g33653"
       transform="matrix(1.2020236,0,0,1.2020236,-28.11881,-11.189124)">
      <path
         d="m 86.785068,118.83143 c -4.04522,-4.04671 -8.583515,-7.60178 -13.482148,-10.55875 1.451482,9.54779 0.684162,19.42528 -2.224674,28.63465 -0.395322,1.25163 -1.035734,2.68124 -2.323836,2.93509 -1.0445,0.20552 -7.571145,0.5879 -6.090469,5.05908 0.767321,2.31511 6.385141,2.01167 8.815498,1.81327 3.972275,-0.32379 4.23341,-2.59374 6.100641,-6.11524 1.867272,-3.52154 2.615612,-7.50697 3.679092,-11.34795 1.063439,-3.84247 2.56599,-7.74912 5.525896,-10.42015"
         style="fill:#c0b5ab;fill-opacity:1;fill-rule:evenodd;stroke:none;stroke-width:0.145879"
         id="path840" />
      <path
         d="m 97.55972,68.221554 c -4.768789,-0.901548 -10.421634,-2.285916 -12.042327,-6.859237 -1.028455,-2.903005 0.02068,-6.074424 0.843159,-9.041607 2.390949,-8.628754 2.304896,-23.736019 0.395321,-25.746203 -1.909533,-2.010224 -8.00728,7.298308 -10.547053,10.582079 -2.959864,-0.341151 -6.122558,-0.590832 -8.707528,-0.214615 -3.82494,-2.366179 -5.908109,-11.574062 -10.344307,-12.31074 -2.202758,-0.365962 -2.691451,10.832958 -2.870875,13.05908 -1.539024,19.047451 3.223935,20.935151 4.28299,30.866604 0.926359,8.691484 0.666671,15.47484 3.461707,23.757894 2.79359,8.283011 7.629493,16.150281 14.90303,20.999291 2.159008,1.43982 4.568937,2.65502 6.126941,4.73087 2.509132,3.33918 2.164839,8.01753 1.028456,12.03649 -1.524468,5.39171 -1.203497,8.7017 -4.905912,12.90741 -1.339171,1.52297 -5.918322,2.85048 -5.959177,4.8782 -0.05996,2.99051 3.178697,4.78773 6.166307,4.66376 6.856342,-0.2874 8.525168,-1.63533 10.163394,-8.29761 1.639673,-6.66232 4.977408,-17.85711 9.768072,-22.76885 3.209342,8.5427 9.501102,15.88918 17.448632,20.37352 -3.12767,0.8563 -6.36765,-0.56896 -9.57554,-1.04599 -3.2064,-0.47699 -7.347926,0.77757 -7.724267,3.99857 -0.243561,2.06857 1.326017,4.00585 3.219547,4.87527 1.89205,0.86946 4.04667,0.90738 6.12839,0.9307 10.5354,0.11951 32.35307,0.71191 42.75428,-0.76294 7.62362,-1.08097 4.00436,-3.51422 10.97302,-6.8388 3.28956,-0.64186 6.44787,2.63165 6.45514,5.98394 0.008,3.35085 -2.42742,6.33407 -5.39022,7.90084 -2.96429,1.56529 -6.38952,1.96499 -9.7316,2.21442 -16.36034,1.21665 -37.86296,-1.08386 -44.18392,-1.79867 -6.31948,-0.71335 -5.4398,3.60322 -3.99709,5.05619 1.44421,1.45293 3.47486,2.13275 5.44278,2.69877 18.58791,5.34936 38.8243,4.80377 57.09567,-1.53903 5.16266,-1.79288 10.91905,-5.00949 11.40481,-10.45227 0.29318,-3.27497 -1.53026,-6.40408 -3.81617,-8.76877 -2.28596,-2.36473 -5.06495,-4.20281 -7.39611,-6.52375 -8.95551,-8.9176 -12.31946,-21.70975 -17.68636,-33.15103 -4.84612,-10.33265 -10.9891,-19.788518 -20.91328,-25.42383 -9.92562,-5.636801 -21.05474,-8.851969 -32.26991,-10.970122"
         style="fill:#f3eee9;fill-opacity:1;fill-rule:evenodd;stroke:none;stroke-width:0.145879"
         id="path842" />
      <path
         d="m 168.42927,137.76653 c -4.32529,-4.30635 -7.34499,-9.51715 -9.91685,-15.0416 -0.1315,2.05691 -0.67395,3.99564 -2.05981,5.49381 -1.17872,1.2721 -2.81401,2.02337 -4.09922,3.18746 -3.0795,2.78776 -3.53172,8.01171 -0.97739,11.28667 0.73085,0.93802 1.65866,1.71266 2.3618,2.67251 0.70314,0.9599 1.17285,2.20718 0.80524,3.33918 -0.0641,0.19684 -0.15176,0.38209 -0.25225,0.56164 4.0642,-1.25456 2.3195,-3.43983 8.25531,-6.27134 3.28956,-0.64186 6.44787,2.63166 6.45515,5.98395 0.008,3.35084 -2.42742,6.33407 -5.39022,7.90084 -2.96429,1.56528 -6.38953,1.96499 -9.7316,2.21442 -1.74909,0.12984 -3.55653,0.21875 -5.39899,0.27581 -0.30642,0.53245 -0.52078,1.13056 -0.64624,1.72867 -0.27871,1.32023 -0.21586,2.68417 -0.32668,4.02917 -0.086,1.04305 -0.28285,2.07589 -0.58058,3.07954 7.25311,-0.73817 14.42162,-2.3049 21.31005,-4.69585 5.16266,-1.79288 10.91905,-5.0095 11.40481,-10.45227 0.29318,-3.27646 -1.53026,-6.40408 -3.81618,-8.76877 -2.28595,-2.36474 -5.06494,-4.20281 -7.3961,-6.52376"
         style="fill:#000000;fill-opacity:1;fill-rule:nonzero;stroke:none;stroke-width:0.145879"
         id="path844" />
      <path
         d="m 126.86394,86.526455 c -1.02701,2.078785 -2.53833,3.877497 -3.72578,5.870189 -1.18745,1.992733 -2.06125,4.331165 -1.61048,6.60542 0.42158,2.128366 1.92703,3.870176 2.71188,5.893506 1.0299,2.65941 0.75421,5.61782 0.5135,8.4581 -0.24232,2.84172 -0.40979,5.83078 0.79796,8.41286 1.20933,2.58203 4.27278,4.52663 6.93363,3.50545 3.81183,-1.46169 3.84975,-7.17871 7.08973,-9.66304 1.54341,-1.18306 3.59155,-1.4442 5.53466,-1.52153 2.5631,-0.10338 5.67762,-0.26423 6.85486,-2.54118 0.4989,-0.96427 0.4989,-2.09338 0.4566,-3.18456 -0.54121,-1.25891 -1.09701,-2.51058 -1.67759,-3.74617 -4.84612,-10.332645 -10.9891,-19.788513 -20.91473,-25.423825 -0.53537,-0.304761 -1.07514,-0.599556 -1.61635,-0.889886 0.35728,2.793589 -0.10048,5.696595 -1.34789,8.224666"
         style="fill:#000000;fill-opacity:1;fill-rule:nonzero;stroke:none;stroke-width:0.145879"
         id="path846" />
      <path
         d="m 99.714345,81.334639 c 0.886955,3.215168 4.032115,5.231224 7.075135,6.596653 2.03648,0.914656 4.22319,1.69219 6.44932,1.514213 2.22467,-0.177812 4.48726,-1.536088 5.10431,-3.681987 0.6448,-2.247997 -0.60394,-4.558723 -0.94236,-6.873833 -0.25224,-1.727215 0.0438,-3.520054 0.7892,-5.096997 -6.66232,-2.498918 -13.62949,-4.249455 -20.63023,-5.571134 -0.40111,-0.07567 -0.808175,-0.156309 -1.218093,-0.240667 1.59737,1.665932 2.815464,3.719907 3.120349,5.991267 0.328332,2.442018 -0.402764,4.987622 0.252245,7.362526"
         style="fill:#000000;fill-opacity:1;fill-rule:nonzero;stroke:none;stroke-width:0.145879"
         id="path848" />
      <path
         d="m 74.043981,48.908583 c 0.60394,1.49821 2.275702,2.487257 3.878945,2.294683 1.382921,-0.166234 2.717709,-1.104294 4.061264,-0.735232 1.10723,0.303521 1.791392,1.397519 2.247996,2.452232 0.376299,0.870906 0.698759,1.810373 1.289549,2.533943 0.243561,-1.056161 0.55436,-2.106491 0.838817,-3.133499 2.390949,-8.628754 2.304896,-23.736019 0.395321,-25.746203 -1.909533,-2.010224 -8.00728,7.298308 -10.547053,10.582079 -2.930711,-0.33867 -6.059827,-0.585001 -8.631648,-0.223299 0.184014,0.719187 0.650584,1.400454 1.202008,1.919789 0.88112,0.830051 1.981072,1.401902 2.857808,2.236335 1.028414,0.977387 1.717001,2.304855 1.924131,3.708245 0.202623,1.371261 -0.03308,2.825679 0.482862,4.110845"
         style="fill:#000000;fill-opacity:1;fill-rule:nonzero;stroke:none;stroke-width:0.145879"
         id="path850" />
      <path
         d="m 133.34534,112.62133 c 1.83225,1.20937 4.03063,1.96648 6.21738,1.76514 2.18671,-0.20138 4.32823,-1.46898 5.25455,-3.46022 0.85048,-1.82642 0.62437,-4.00002 1.4019,-5.85853 0.61854,-1.47629 1.80016,-2.6054 2.88696,-3.79868 -1.48212,-2.903005 -3.09409,-5.708256 -4.8957,-8.345743 -1.47484,-0.0083 -2.95114,0.353143 -4.10799,1.247247 -3.0503,2.360307 -2.83002,7.323116 -5.70093,9.899366 -1.22687,1.10284 -2.99638,1.74764 -3.62658,3.27351 -0.80962,1.96354 0.79796,4.10506 2.57041,5.27791"
         style="fill:#df8022;fill-opacity:1;fill-rule:nonzero;stroke:none;stroke-width:0.145879"
         id="path852" />
      <path
         d="m 117.05501,161.54779 c 0.9161,1.9752 4.49306,2.10939 6.95112,2.15901 1.17579,0.0248 2.36035,-0.10958 3.52737,0.0414 1.16703,0.15011 1.06493,1.1889 3.01094,1.62363 1.94604,0.43324 1.34066,-3.19623 1.21081,-4.8957 -0.0331,-0.45954 -0.1224,-0.91759 -0.25969,-1.3596 -5.03869,-0.25679 -9.76079,-0.62875 -13.63974,-0.9847 -0.26671,1.13931 -1.71844,1.44275 -0.80085,3.41651"
         style="fill:#df8022;fill-opacity:1;fill-rule:nonzero;stroke:none;stroke-width:0.145879"
         id="path854" />
      <path
         d="m 112.79385,79.089537 c -1.19617,1.692231 -0.6608,4.043772 0.22041,5.919811 0.88112,1.875997 2.0861,3.714075 2.11819,5.785542 0.0289,1.878933 -0.87091,3.979594 0.23033,5.502573 0.87674,1.209327 2.76001,1.361046 4.03794,0.58496 1.27789,-0.776046 1.99852,-2.246508 2.25821,-3.718459 0.25969,-1.470463 0.1253,-2.978845 0.0715,-4.47263 -0.1559,-4.313673 0.38085,-8.650669 1.56673,-12.800922 -1.76658,-0.792131 -3.56091,-1.521531 -5.37856,-2.196927 -0.008,0.444943 -0.0976,0.882567 -0.29773,1.301252 -0.92053,1.928514 -3.59449,2.350094 -4.82718,4.0948"
         style="fill:#df8022;fill-opacity:1;fill-rule:nonzero;stroke:none;stroke-width:0.145879"
         id="path856" />
      <path
         d="m 67.501292,36.942136 c -3.82494,-2.366179 -5.908109,-11.574061 -10.344307,-12.31074 -2.202758,-0.365961 -2.691451,10.832959 -2.870875,13.05908 -0.746934,9.242907 -0.0083,14.444979 1.067822,18.487303 0.236531,-1.381474 0.570403,-2.741073 1.126169,-4.024833 0.869458,-2.008736 2.347199,-3.835153 4.357424,-4.701675 1.025519,-0.442007 2.217354,-0.66084 2.959905,-1.495274 0.678331,-0.761489 0.808175,-1.846803 1.013858,-2.846106 0.205518,-1.000708 0.608323,-2.090447 1.537576,-2.513473 0.430346,-0.195593 0.919039,-0.21751 1.358111,-0.390773 0.599556,-0.237771 1.053266,-0.735231 1.483612,-1.215158 0.665181,-0.74255 1.330405,-1.483612 1.995628,-2.226121 -1.295422,-0.02895 -2.547052,0.0124 -3.684923,0.177812"
         style="fill:#df8022;fill-opacity:1;fill-rule:nonzero;stroke:none;stroke-width:0.145879"
         id="path858" />
      <path
         d="m 157.64589,163.74616 c -1.97958,-1.10429 -4.51642,-1.44126 -6.50328,-0.35148 -0.0802,1.44858 0.31221,2.85048 0.98905,4.13714 2.7615,-0.43473 5.50257,-0.99198 8.21445,-1.67032 -0.80817,-0.82277 -1.69363,-1.55506 -2.70022,-2.11525"
         style="fill:#df8022;fill-opacity:1;fill-rule:nonzero;stroke:none;stroke-width:0.145879"
         id="path860" />
      <path
         d="m 156.25859,128.245 c -1.21665,1.49821 -1.83663,3.73599 -0.78485,5.35379 1.91685,2.9482 6.91324,1.21077 9.67325,3.39021 2.48287,1.95915 2.28885,6.43476 5.18747,7.6995 1.56967,0.68565 3.42818,0.008 4.66087,-1.21661 -2.10798,-1.9869 -4.51059,-3.66011 -6.56606,-5.70536 -3.66883,-3.65424 -6.39969,-7.9577 -8.71336,-12.55434 -1.21371,0.95257 -2.49015,1.83808 -3.45732,3.03281"
         style="fill:#df8022;fill-opacity:1;fill-rule:nonzero;stroke:none;stroke-width:0.145879"
         id="path862" />
      <path
         d="m 66.442195,48.25068 c -0.357278,-0.69876 -0.284499,-1.531746 -0.466777,-2.294683 -0.21875,-0.913208 -0.827156,-1.727214 -1.641162,-2.19548 -0.814006,-0.468265 -1.823481,-0.583512 -2.722092,-0.312204 -1.649887,0.497418 -2.748392,2.151688 -4.392449,2.662298 0.0641,0.726464 0.634582,1.289549 1.169961,1.785561 0.659392,0.608282 1.323127,1.222436 2.090447,1.689254 0.765873,0.466818 1.651375,0.781917 2.547051,0.735231 1.215199,-0.06409 2.291788,-0.76732 3.301263,-1.447098 0.08767,-0.05996 0.176571,-0.498907 0.113716,-0.622921"
         style="fill:#5d1801;fill-opacity:1;fill-rule:evenodd;stroke:none;stroke-width:0.145879"
         id="path864" />
      <path
         d="m 66.024999,48.272555 c -0.04135,0.395321 -1.444205,1.253118 -3.225383,1.253118 -1.782667,0 -3.178697,-2.007289 -3.226871,-2.796525 -0.04797,-0.787748 1.444204,-2.796484 3.226871,-2.796484 1.781178,0 3.225383,2.008736 3.225383,4.339891"
         style="fill:#df8022;fill-opacity:1;fill-rule:evenodd;stroke:none;stroke-width:0.145879"
         id="path866" />
      <path
         d="m 65.069487,46.634329 c 0,1.148085 -0.898611,2.078785 -2.005841,2.078785 -1.108678,0 -2.005842,-0.9307 -2.005842,-2.078785 0,-1.148045 0.897164,-2.078745 2.005842,-2.078745 1.10723,0 2.005841,0.9307 2.005841,2.078745"
         style="fill:#000000;fill-opacity:1;fill-rule:evenodd;stroke:none;stroke-width:0.145879"
         id="path868" />
      <path
         d="m 64.305062,46.777322 c 0,0.382089 -0.27871,0.692929 -0.621432,0.692929 -0.342804,0 -0.619984,-0.31055 -0.619984,-0.692929 0,-0.382088 0.277056,-0.692928 0.619984,-0.692928 0.342805,0 0.621432,0.31055 0.621432,0.692928"
         style="fill:#ffffff;fill-opacity:1;fill-rule:evenodd;stroke:none;stroke-width:0.145879"
         id="path870" />
      <path
         d="m 73.68658,49.731356 c 0.780428,0.313858 1.277888,1.110125 2.045208,1.455865 0.9876,0.446391 2.135685,0.03722 3.123285,-0.406899 1.473399,-0.662287 2.908837,-1.406285 4.299077,-2.229058 0.665182,-0.39408 -0.862181,-2.745414 -1.982519,-3.377101 -1.120339,-0.631646 -2.322388,-1.206392 -3.607595,-1.263291 -1.283719,-0.05707 -2.672512,0.520782 -3.231214,1.67904 -0.431793,0.894269 -0.335361,2.018991 -0.946744,2.800908 -0.208412,0.264237 0.02895,1.232691 0.300626,1.340619"
         style="fill:#5d1801;fill-opacity:1;fill-rule:evenodd;stroke:none;stroke-width:0.145879"
         id="path872" />
      <path
         d="m 73.671983,48.373204 c -0.05707,0.392427 1.101399,1.559451 2.827125,1.983967 1.727215,0.424515 3.559462,-1.191836 3.794339,-1.946006 0.234877,-0.754212 -0.732337,-3.059108 -2.45951,-3.483623 -1.725767,-0.424474 -3.6047,1.180174 -4.161954,3.445662"
         style="fill:#df8022;fill-opacity:1;fill-rule:evenodd;stroke:none;stroke-width:0.145879"
         id="path874" />
      <path
         d="m 79.316061,47.547537 c 0,1.148086 -0.898611,2.080233 -2.005842,2.080233 -1.10723,0 -2.005841,-0.932147 -2.005841,-2.080233 0,-1.148044 0.898611,-2.078786 2.005841,-2.078786 1.107231,0 2.005842,0.930742 2.005842,2.078786"
         style="fill:#000000;fill-opacity:1;fill-rule:evenodd;stroke:none;stroke-width:0.145879"
         id="path876" />
      <path
         d="m 78.551636,47.691978 c 0,0.382089 -0.27871,0.692929 -0.621432,0.692929 -0.342805,0 -0.619985,-0.310551 -0.619985,-0.692929 0,-0.383743 0.277056,-0.692928 0.619985,-0.692928 0.342804,0 0.621432,0.30931 0.621432,0.692928"
         style="fill:#ffffff;fill-opacity:1;fill-rule:evenodd;stroke:none;stroke-width:0.145879"
         id="path878" />
      <path
         d="m 83.555302,30.513246 c -1.607585,2.246508 -2.878195,4.735212 -3.756379,7.35376 -0.237771,0.708973 -0.449326,1.463185 -0.307655,2.196927 0.201382,1.040117 1.054713,1.813309 1.8877,2.468277 1.099911,0.866522 2.250891,1.66742 3.442726,2.401162 0.373405,0.229088 0.849031,0.455157 1.226861,0.231983 0.277055,-0.164993 0.380848,-0.509121 0.455115,-0.822773 1.153916,-4.827136 1.003686,-9.857061 0.847584,-14.816936 -0.01241,-0.423068 -0.05831,-0.911761 -0.4069,-1.152469 -0.30931,-0.215855 -0.733743,-0.140181 -1.079483,0.0041 -0.980322,0.409794 -1.690743,1.272057 -2.30928,2.135685"
         style="fill:#e1ac76;fill-opacity:1;fill-rule:evenodd;stroke:none;stroke-width:0.145879"
         id="path880" />
      <path
         d="m 56.576409,44.234613 c -0.242321,0.212961 -0.488693,0.430346 -0.789195,0.548529 -0.298972,0.118266 -0.665223,0.118266 -0.917592,-0.08312 -0.229088,-0.18236 -0.277056,-5.664506 -0.06285,-10.468278 0.144317,-3.202061 1.232691,-7.934378 2.090447,-8.936575 0.856309,-1.00075 2.814017,2.442018 3.480688,3.940186 1.034286,2.319493 1.935792,4.697334 2.69877,7.117477 0.179466,0.567468 0.350248,1.190347 0.133979,1.744706 -0.154655,0.39987 -0.487246,0.698759 -0.808176,0.98177 -1.941622,1.719895 -3.884733,3.436896 -5.826397,5.155344"
         style="fill:#e1ac76;fill-opacity:1;fill-rule:evenodd;stroke:none;stroke-width:0.145879"
         id="path882" />
      <path
         d="m 70.462644,62.816735 c -0.784811,0.417197 -1.712617,0.560149 -2.586459,0.39987 -0.8738,-0.160444 -1.689254,-0.62292 -2.274254,-1.291038 -0.91172,-1.040116 -1.216606,-2.462445 -1.838079,-3.698031 1.791434,-0.307656 3.556568,-0.805239 5.371282,-0.907378 1.814756,-0.103379 3.741823,0.237772 5.129127,1.412116 -0.482862,0.60977 -0.965725,1.219541 -1.44714,1.829311 -0.679779,0.859245 -1.388752,1.741812 -2.354477,2.255316"
         style="fill:#ffffff;fill-opacity:1;fill-rule:evenodd;stroke:none;stroke-width:0.145879"
         id="path884" />
      <path
         d="m 69.117643,59.7066 c 0.75417,0.09635 1.464632,0.395321 2.192544,0.612665 0.488693,0.145971 1.99418,-0.375059 2.237782,-0.681268 -0.0014,-0.214614 -0.0029,-0.428857 -0.0029,-0.643306 -2.904453,-1.396071 -6.500388,-1.234138 -9.269166,0.411448 0.0041,0.01654 0.01241,0.03308 0.02068,0.05252 0.703142,0.383742 1.549237,0.412688 2.351582,0.353142 0.822731,-0.06285 1.649887,-0.207171 2.469724,-0.105033"
         style="fill:#e8d1d3;fill-opacity:1;fill-rule:evenodd;stroke:none;stroke-width:0.145879"
         id="path886" />
      <path
         d="m 67.267903,53.109905 c 0.580577,0.300626 1.382922,0.406899 2.020398,0.552912 0.978874,0.221644 1.972305,-0.18815 2.949691,-0.411448 1.14515,-0.264237 2.386566,-0.282845 3.464643,0.186909 1.983967,0.866522 2.0321,3.44711 0.312205,5.248716 -0.589343,0.618537 -1.569665,0.687098 -2.405546,0.863628 -0.835881,0.177811 -1.461696,0.126949 -2.24655,-0.208826 -0.516398,-0.221645 -0.978833,-0.615601 -1.47774,-0.875289 -0.49746,-0.260929 -1.066375,-0.229088 -1.590093,-0.02895 -0.440559,0.167887 -1.034286,0.452221 -1.422329,0.720634 -0.63454,0.439112 -1.468974,0.529548 -2.220249,0.351488 -0.751276,-0.177811 -1.425266,-0.602451 -2.002947,-1.114508 -0.612665,-0.544145 -1.143703,-1.216646 -1.347897,-2.010224 -0.375059,-1.461696 0.519294,-3.067833 1.867231,-3.746165 1.347938,-0.678331 2.760053,-0.224539 4.099225,0.469713"
         style="fill:#ffffff;fill-opacity:1;fill-rule:evenodd;stroke:none;stroke-width:0.145879"
         id="path888" />
      <path
         d="m 72.687319,59.369584 c -0.679821,0.303521 -1.452971,-0.379194 -1.989798,-0.719187 -0.411448,-0.259688 -0.840264,-0.455115 -1.321679,-0.503248 -0.01654,-0.749829 -0.03308,-1.499657 -0.04673,-2.250933 -0.0041,-0.18815 -0.606835,-0.07154 -0.601004,0.162098 0.01654,0.710421 0.02895,1.420841 0.04383,2.131303 -1.10723,0.271266 -2.192544,1.435437 -3.199124,0.749787 -0.150106,-0.100485 -0.672501,0.138528 -0.564573,0.21296 0.526654,0.358932 1.059097,0.390773 1.661589,0.212961 0.743957,-0.220404 1.404797,-0.869458 2.1765,-0.933636 0.231982,-0.04135 0.376299,0.01241 0.452221,0.03308 0.72357,0.172023 1.318743,0.765873 1.983966,1.080972 0.580618,0.277056 1.193283,0.185255 1.759304,-0.06864 0.363067,-0.163338 -0.198488,-0.176571 -0.354383,-0.106687"
         style="fill:#9e9e9e;fill-opacity:1;fill-rule:nonzero;stroke:none;stroke-width:0.145879"
         id="path890" />
      <path
         d="m 68.987799,56.358651 c 0.717739,0.04797 3.010933,-1.816203 3.107241,-2.723581 0.0947,-0.907337 -1.099953,-1.768029 -2.294683,-1.864336 -1.194771,-0.0947 -3.632406,0 -3.536098,1.242904 0.0947,1.242905 2.007289,3.298327 2.72354,3.345013"
         style="fill:#fb7274;fill-opacity:1;fill-rule:evenodd;stroke:none;stroke-width:0.145879"
         id="path892" />
      <path
         d="m 71.642819,53.775128 c -1.333341,2.061294 -3.62364,1.569665 -5.099933,0.113717 0.574746,1.149532 1.880381,2.433251 2.444913,2.469723 0.717739,0.04797 3.010933,-1.816203 3.107241,-2.723581 0.02068,-0.184014 -0.01654,-0.364721 -0.0918,-0.538273 -0.12819,0.226193 -0.284499,0.452221 -0.360172,0.678331"
         style="fill:#f4474f;fill-opacity:1;fill-rule:evenodd;stroke:none;stroke-width:0.145879"
         id="path894" />
      <path
         d="m 67.476481,52.478259 c 0.07154,0.173677 0.30352,0.196834 0.491629,0.193939 0.859244,-0.01654 1.718448,-0.03308 2.577692,-0.04797 0.01241,-0.145971 -0.08188,-0.284499 -0.204276,-0.365961 -0.122401,-0.08022 -0.268372,-0.113717 -0.412689,-0.141423 -0.621432,-0.12116 -1.258908,-0.159203 -1.892042,-0.113716 -0.143077,0.01241 -0.293183,0.02895 -0.414302,0.106687 -0.12116,0.07733 -0.201382,0.236117 -0.145971,0.368856"
         style="fill:#fca4a9;fill-opacity:1;fill-rule:evenodd;stroke:none;stroke-width:0.145879"
         id="path896" />
      <path
         d="m 81.066598,91.673073 c 2.199863,-2.442018 1.606137,-6.245082 0.638965,-9.387306 -0.965725,-3.140778 -2.159008,-6.605421 -0.783365,-9.590096 0.491588,-1.064927 1.276441,-1.967922 1.824928,-3.005102 0.547041,-1.037222 0.834434,-2.335538 0.268372,-3.363993 -0.564532,-1.028456 -2.240677,-1.391688 -2.910283,-0.428899 -3.924142,2.299066 -8.739617,3.027019 -13.167049,1.989797 -3.854134,-0.902995 -7.377124,-3.134947 -9.870211,-6.205674 0.640412,2.033547 1.209369,4.151699 1.501104,6.87528 0.926358,8.691484 0.66667,15.47484 3.461707,23.757894 1.417946,4.207152 3.36544,8.304886 5.890617,11.957726 0.143076,-0.76298 0.322542,-1.51864 0.555806,-2.26115 0.847542,-2.690004 2.471171,-5.245822 4.927786,-6.63019 2.494535,-1.406285 5.743281,-1.581368 7.661581,-3.708287"
         style="fill:#e8e3df;fill-opacity:1;fill-rule:evenodd;stroke:none;stroke-width:0.145879"
         id="path898" />
      <path
         d="m 94.290546,59.585481 c -0.184014,-0.129844 -0.383742,-0.271267 -0.593726,-0.420132 -0.103792,-0.07567 -0.214614,-0.147212 -0.328331,-0.21875 -0.113717,-0.07154 -0.230329,-0.145971 -0.348594,-0.220404 -0.236531,-0.148866 -0.479927,-0.303521 -0.727912,-0.45954 -0.255139,-0.144317 -0.513504,-0.290288 -0.773192,-0.436177 -0.129844,-0.07278 -0.259688,-0.144317 -0.387878,-0.217509 l -0.193939,-0.107928 -0.196834,-0.09759 c -0.262582,-0.129844 -0.522229,-0.258034 -0.77315,-0.382088 -0.125296,-0.06285 -0.24811,-0.124055 -0.36927,-0.184015 -0.124055,-0.05376 -0.245215,-0.106273 -0.36348,-0.157549 -0.236118,-0.103793 -0.460947,-0.199729 -0.669565,-0.290289 -0.991984,-0.412688 -1.893531,-0.738167 -2.808187,-1.018241 -0.452221,-0.156309 -0.919039,-0.264237 -1.396071,-0.394081 -0.474096,-0.135633 -0.97445,-0.231982 -1.499615,-0.342804 -0.530996,-0.125296 -1.139319,-0.196834 -1.775348,-0.296078 -0.08022,-0.01241 -0.160444,-0.02481 -0.240666,-0.03308 -0.08188,-0.0083 -0.163339,-0.01654 -0.245215,-0.02481 -0.163339,-0.01654 -0.329572,-0.03308 -0.495971,-0.04673 -0.166233,-0.01654 -0.334121,-0.03308 -0.501843,-0.04797 l -0.252245,-0.02481 -0.253898,-0.01241 c -0.33867,-0.01654 -0.676885,-0.02895 -1.010964,-0.04383 -0.08312,-0.0041 -0.166233,-0.0083 -0.24935,-0.01241 -0.08312,0.0014 -0.164993,0.0014 -0.24811,0.0014 -0.163338,0.0014 -0.326677,0.0014 -0.487245,0.0029 -0.322543,0.0041 -0.634582,-0.0041 -0.935084,0.0083 -0.300626,0.01654 -0.587895,0.02895 -0.859245,0.04383 -0.420132,0 -1.480676,0.144317 -1.896425,0.18236 -0.224539,0.02481 -0.143076,0.04135 0.18112,0.03722 0.161685,-0.0015 0.384983,-0.0083 0.660799,-0.02481 0.138527,-0.0083 0.290288,-0.02067 0.453709,-0.02895 0.164993,-0.01241 0.341151,-0.01241 0.529549,-0.02068 0.214614,-0.0041 0.44639,-0.01241 0.694376,-0.02068 0.1224,-0.0041 0.251004,-0.0083 0.382088,-0.0083 0.131498,0.0029 0.265477,0.0041 0.405659,0.0083 0.277056,0.0041 0.568915,0.01241 0.875248,0.02068 0.07567,0.0014 0.153001,0.0029 0.230328,0.0041 0.07857,0.0041 0.15755,0.0083 0.236118,0.01654 0.160444,0.0083 0.322542,0.02068 0.488693,0.02895 1.324616,0.0641 2.622931,0.196834 4.134249,0.485799 0.989048,0.198488 2.0321,0.462435 3.035744,0.786259 0.500355,0.164993 1.000709,0.316753 1.470463,0.506226 0.472649,0.182361 0.935083,0.344045 1.356663,0.536827 0.323783,0.141422 0.682715,0.284498 1.051778,0.452221 0.365961,0.173676 0.748381,0.357277 1.139319,0.542698 0.386637,0.193939 0.771703,0.409794 1.156852,0.612665 0.09635,0.05086 0.192698,0.102138 0.288634,0.153001 0.0918,0.05541 0.185255,0.110822 0.277055,0.166233 0.184015,0.109582 0.366375,0.21875 0.544146,0.325437 0.177812,0.107928 0.354383,0.208412 0.522229,0.315099 0.164993,0.110823 0.323783,0.21751 0.478479,0.320889 0.306416,0.208825 0.59811,0.389532 0.840265,0.570403 0.484351,0.361827 0.837369,0.627263 0.981769,0.739615 0.172023,0.134393 0.150106,0.09056 -0.09345,-0.126949 -0.12116,-0.109582 -0.298972,-0.262583 -0.535379,-0.458052 -0.118265,-0.09759 -0.251004,-0.205517 -0.398215,-0.326678 -0.153001,-0.110822 -0.322543,-0.231982 -0.507674,-0.364721"
         style="fill:#ffffff;fill-opacity:1;fill-rule:evenodd;stroke:none;stroke-width:0.145879"
         id="path900" />
      <path
         d="m 90.593963,62.578922 c -0.145972,-0.129844 -0.303521,-0.268371 -0.469713,-0.415748 -0.164993,-0.148866 -0.354383,-0.28574 -0.539762,-0.437624 -0.189804,-0.150107 -0.383743,-0.304762 -0.582065,-0.462435 -0.205518,-0.147212 -0.412689,-0.296077 -0.621432,-0.446391 -0.411448,-0.306415 -0.847542,-0.576234 -1.254566,-0.837369 -0.102138,-0.06575 -0.201382,-0.129844 -0.298972,-0.192699 -0.102138,-0.05707 -0.199728,-0.113716 -0.296077,-0.169128 -0.193939,-0.110822 -0.3763,-0.214614 -0.54704,-0.312204 -0.811112,-0.447838 -1.552174,-0.812559 -2.30928,-1.142214 -0.373405,-0.176571 -0.761489,-0.316753 -1.158299,-0.472648 -0.392427,-0.163339 -0.81107,-0.294837 -1.25163,-0.44056 -0.442007,-0.159204 -0.956959,-0.281605 -1.492338,-0.427452 -0.06699,-0.01654 -0.135633,-0.03308 -0.202623,-0.05252 -0.06864,-0.01654 -0.138527,-0.02895 -0.207171,-0.04507 -0.140182,-0.02895 -0.27995,-0.05831 -0.421621,-0.08891 C 78.801192,56.607 78.658529,56.57764 78.5169,56.54704 L 78.302285,56.50197 78.08643,56.46889 c -0.577682,-0.09056 -1.152469,-0.191044 -1.705339,-0.240666 -0.275816,-0.02895 -0.542657,-0.06699 -0.800898,-0.08477 -0.259688,-0.01654 -0.507632,-0.03308 -0.741062,-0.04962 -0.358932,-0.04218 -1.280824,-0.02481 -1.64112,-0.03308 -0.195593,-0.0041 -0.12695,0.02481 0.150106,0.05665 0.140182,0.01654 0.331226,0.03308 0.568956,0.05252 0.118266,0.0083 0.249351,0.01654 0.390773,0.02481 0.141422,0.0041 0.293183,0.02481 0.455157,0.03722 0.184014,0.01654 0.382089,0.03308 0.595173,0.05376 0.106274,0.0083 0.214615,0.02068 0.328332,0.02895 0.110822,0.01654 0.227434,0.03308 0.345699,0.05086 0.236531,0.03308 0.485757,0.06864 0.745404,0.106687 0.131498,0.01654 0.264237,0.03722 0.39987,0.06409 0.133979,0.02481 0.27292,0.04962 0.412689,0.07443 1.127658,0.18815 2.226121,0.425963 3.492348,0.821284 0.827156,0.265477 1.693679,0.596662 2.520793,0.970108 0.412689,0.191045 0.825667,0.36927 1.210816,0.577682 0.386637,0.199728 0.76732,0.383743 1.110125,0.587896 0.264236,0.153001 0.557254,0.307656 0.857756,0.487204 0.297731,0.182361 0.608323,0.375059 0.926358,0.568957 0.313859,0.202622 0.622879,0.421579 0.935083,0.630198 0.07857,0.05252 0.155896,0.105033 0.233223,0.157549 0.07443,0.05541 0.148866,0.112477 0.223299,0.167888 0.147212,0.110822 0.293183,0.220404 0.436177,0.326677 0.143076,0.107928 0.285739,0.210067 0.420132,0.317994 0.131498,0.107928 0.258034,0.214615 0.382088,0.316753 0.243561,0.205518 0.477032,0.386638 0.669565,0.563085 0.382089,0.351488 0.662287,0.611218 0.776087,0.720634 0.135633,0.131498 0.122401,0.08891 -0.06409,-0.122401 -0.09346,-0.105033 -0.230328,-0.252244 -0.414302,-0.443495 -0.0918,-0.0947 -0.195593,-0.199729 -0.31055,-0.31634 -0.122401,-0.109582 -0.255139,-0.229088 -0.40111,-0.360172"
         style="fill:#ffffff;fill-opacity:1;fill-rule:evenodd;stroke:none;stroke-width:0.145879"
         id="path902" />
      <path
         d="m 84.226355,64.279879 c -0.191044,-0.21875 -0.412688,-0.474096 -0.663775,-0.730848 -0.124055,-0.129844 -0.252245,-0.264237 -0.382089,-0.39987 -0.135633,-0.132739 -0.27292,-0.265477 -0.409794,-0.39987 -0.547082,-0.535379 -1.127658,-1.035733 -1.579879,-1.404838 -1.075141,-0.867969 -1.960644,-1.495232 -3.146608,-2.207141 -0.297731,-0.185255 -0.649178,-0.363067 -1.013858,-0.560148 -0.182361,-0.100485 -0.377954,-0.185255 -0.570404,-0.27995 -0.195593,-0.0918 -0.387878,-0.192699 -0.589343,-0.277056 -0.39987,-0.173677 -0.796514,-0.351489 -1.184557,-0.497418 -0.192699,-0.07443 -0.377954,-0.154655 -0.56019,-0.220404 -0.182361,-0.06575 -0.356038,-0.129844 -0.520782,-0.189804 -0.24935,-0.100485 -0.91172,-0.290288 -1.165578,-0.375059 -0.138527,-0.04507 -0.09924,-0.0041 0.09056,0.08767 0.09346,0.04507 0.226194,0.103379 0.390773,0.170782 0.164993,0.06575 0.363067,0.143077 0.589343,0.230329 0.51644,0.196833 1.178727,0.491629 1.951878,0.853414 0.777533,0.353142 1.53464,0.71042 2.388054,1.209327 1.120338,0.657904 2.300513,1.536129 3.222446,2.290299 0.711909,0.564573 1.646993,1.375643 2.405546,2.128366 0.09635,0.09345 0.191045,0.183601 0.281605,0.274161 0.08767,0.0918 0.173676,0.180707 0.255139,0.267132 0.164993,0.173676 0.320888,0.329572 0.450732,0.474096 0.256794,0.290288 0.446391,0.50329 0.520824,0.595173 0.09056,0.107928 0.08767,0.07154 -0.02895,-0.103379 -0.05996,-0.08767 -0.145972,-0.210066 -0.265478,-0.36927 -0.05996,-0.07733 -0.12819,-0.164992 -0.202622,-0.260928 -0.07898,-0.09345 -0.166234,-0.193939 -0.262583,-0.304761"
         style="fill:#ffffff;fill-opacity:1;fill-rule:evenodd;stroke:none;stroke-width:0.145879"
         id="path904" />
      <path
         d="m 44.544295,59.408992 c 0.176572,-0.124054 0.36927,-0.256793 0.570363,-0.396975 0.09924,-0.07154 0.205517,-0.138528 0.316753,-0.205517 0.107928,-0.06699 0.220404,-0.137288 0.334121,-0.205518 0.226193,-0.141422 0.45954,-0.285739 0.697312,-0.431793 0.243561,-0.135633 0.491629,-0.27292 0.739614,-0.408554 0.124055,-0.06864 0.24935,-0.137287 0.372165,-0.205517 l 0.185255,-0.100484 0.189804,-0.0918 c 0.251004,-0.12116 0.497459,-0.24232 0.736678,-0.357278 0.119506,-0.05831 0.237772,-0.115371 0.353143,-0.172022 0.118265,-0.04962 0.234877,-0.09924 0.347353,-0.147212 0.226193,-0.09635 0.439071,-0.18815 0.637476,-0.271266 0.945297,-0.389532 1.804542,-0.691482 2.676895,-0.949681 0.431793,-0.145971 0.875248,-0.243561 1.328958,-0.363067 0.450773,-0.12819 0.926317,-0.215855 1.426671,-0.319648 0.50329,-0.118265 1.080972,-0.191044 1.683464,-0.296077 0.07567,-0.01241 0.151761,-0.02481 0.229088,-0.03722 0.07733,-0.0083 0.154655,-0.01654 0.231983,-0.02481 0.156309,-0.01654 0.312204,-0.03722 0.471201,-0.05376 0.157549,-0.02068 0.31634,-0.03722 0.47699,-0.05541 l 0.239426,-0.02895 0.240666,-0.01654 c 0.322543,-0.02068 0.644796,-0.04135 0.962789,-0.0612 0.07857,-0.0041 0.15755,-0.0083 0.237772,-0.01654 0.07898,-0.0015 0.15755,-0.0029 0.236531,-0.0029 0.156309,-0.0029 0.312205,-0.0029 0.465371,-0.0041 0.306415,0.0014 0.605387,-0.01241 0.892781,0.0014 0.287393,0.01654 0.561637,0.02895 0.821284,0.04135 0.40111,0.0014 1.416498,0.113717 1.816203,0.153001 0.214615,0.02068 0.144317,-0.01241 -0.160444,-0.07278 -0.151761,-0.02895 -0.363481,-0.06864 -0.627304,-0.109581 -0.132739,-0.02068 -0.277056,-0.04135 -0.434729,-0.06285 -0.155896,-0.02481 -0.328332,-0.02895 -0.509121,-0.04218 -0.207171,-0.01654 -0.430305,-0.02895 -0.668118,-0.04797 -0.119506,-0.0083 -0.24232,-0.02068 -0.369269,-0.02895 -0.12695,-0.0029 -0.256794,-0.0041 -0.390773,-0.0083 -0.268372,-0.0041 -0.551423,-0.0124 -0.847583,-0.01654 -0.07278,-0.0014 -0.147212,-0.0029 -0.223299,-0.0029 -0.07567,0.0029 -0.15176,0.0041 -0.229088,0.0083 -0.154655,0.0083 -0.312204,0.01654 -0.472648,0.02068 -1.283719,0.04962 -2.52956,0.243561 -3.98832,0.512057 -0.955511,0.183601 -1.966475,0.415749 -2.942413,0.707526 -0.487205,0.150106 -0.973003,0.285739 -1.429608,0.463882 -0.460987,0.167887 -0.910272,0.320888 -1.318743,0.507673 -0.312205,0.137288 -0.657904,0.277056 -1.012411,0.446391 -0.350248,0.176571 -0.716251,0.363067 -1.089697,0.551423 -0.367616,0.198488 -0.732337,0.418644 -1.098464,0.62871 -0.09056,0.05252 -0.18236,0.105033 -0.27292,0.157549 -0.08767,0.05707 -0.173677,0.113717 -0.260929,0.170782 -0.173676,0.113717 -0.344459,0.226193 -0.512056,0.335362 -0.166234,0.112476 -0.334121,0.215855 -0.490141,0.325437 -0.153001,0.113717 -0.303521,0.223298 -0.447838,0.329572 -0.285739,0.214615 -0.557254,0.40111 -0.783364,0.586407 -0.449326,0.368856 -0.777534,0.638964 -0.917592,0.748381 -0.164993,0.129844 -0.116611,0.118265 0.143077,-0.05831 0.131498,-0.08767 0.313858,-0.217509 0.549976,-0.390772 0.116611,-0.08891 0.248109,-0.18691 0.39408,-0.294837 0.150107,-0.102139 0.313445,-0.214615 0.493077,-0.337016"
         style="fill:#ffffff;fill-opacity:1;fill-rule:evenodd;stroke:none;stroke-width:0.145879"
         id="path906" />
      <path
         d="m 43.580018,64.710225 c 0.37051,-0.270026 0.796514,-0.583513 1.269163,-0.894228 0.233223,-0.15755 0.474096,-0.320889 0.719187,-0.487246 0.251004,-0.15755 0.504737,-0.31634 0.758553,-0.477032 1.013858,-0.643307 2.064189,-1.228266 2.86947,-1.660101 0.956958,-0.509121 1.824928,-0.9307 2.7046,-1.326021 0.434688,-0.207172 0.884015,-0.384984 1.340619,-0.579129 0.455115,-0.199729 0.936531,-0.3763 1.441268,-0.570404 0.509121,-0.205518 1.094122,-0.398216 1.703892,-0.621432 0.304761,-0.113717 0.625815,-0.204277 0.945298,-0.312204 0.322542,-0.100485 0.644754,-0.21751 0.97445,-0.306416 0.656456,-0.186909 1.312913,-0.383742 1.946047,-0.530995 0.31634,-0.07567 0.621432,-0.159204 0.919039,-0.221645 0.298972,-0.05996 0.58496,-0.119506 0.853373,-0.174917 0.412689,-0.09759 1.479229,-0.27995 1.897914,-0.353143 0.226193,-0.03722 0.144317,-0.05128 -0.183601,-0.02481 -0.164993,0.01241 -0.390773,0.03722 -0.671054,0.06988 -0.27995,0.03308 -0.614154,0.07733 -0.990536,0.154655 -0.215855,0.04135 -0.449285,0.08312 -0.69727,0.129844 -0.124055,0.02068 -0.252245,0.04507 -0.383743,0.06988 -0.131498,0.02895 -0.266718,0.05707 -0.404005,0.08767 -0.55436,0.119506 -1.168513,0.248109 -1.822034,0.434688 -1.312913,0.347353 -2.566031,0.79362 -4.037941,1.333341 -0.962831,0.360172 -1.98252,0.765872 -2.964289,1.206432 -0.49014,0.221645 -0.980281,0.434729 -1.439821,0.669606 -0.463882,0.231983 -0.916103,0.447838 -1.328957,0.681226 -0.31634,0.174918 -0.663735,0.360173 -1.021136,0.568957 -0.354384,0.214201 -0.726506,0.439071 -1.104336,0.668118 -0.743956,0.477032 -1.509829,0.980322 -2.193991,1.480676 -0.172023,0.124055 -0.342805,0.24232 -0.504779,0.361826 -0.160444,0.124055 -0.31634,0.243561 -0.466777,0.357278 -0.298972,0.231983 -0.57917,0.439071 -0.816942,0.634582 -0.475584,0.390772 -0.82422,0.675395 -0.971555,0.792089 -0.174918,0.137288 -0.124055,0.124055 0.150106,-0.06409 0.137287,-0.09345 0.329572,-0.231982 0.579129,-0.417196 0.124055,-0.0918 0.262582,-0.196833 0.417196,-0.312204 0.156309,-0.112477 0.326678,-0.234877 0.513504,-0.367616"
         style="fill:#ffffff;fill-opacity:1;fill-rule:evenodd;stroke:none;stroke-width:0.145879"
         id="path908" />
      <path
         d="m 49.149705,67.751799 c 0.12116,-0.155895 0.251004,-0.325437 0.386637,-0.503248 0.134393,-0.179466 0.294837,-0.353143 0.447879,-0.54121 0.15755,-0.186909 0.319648,-0.377953 0.482821,-0.57334 0.172023,-0.188149 0.347354,-0.379194 0.522271,-0.568915 0.342804,-0.387878 0.714803,-0.74834 1.057608,-1.092633 0.08601,-0.08601 0.170782,-0.170782 0.253899,-0.253899 0.08601,-0.07898 0.170782,-0.157549 0.252244,-0.231982 0.164993,-0.15176 0.320889,-0.296077 0.46533,-0.428899 0.692928,-0.625815 1.336276,-1.152469 1.998564,-1.65427 0.323782,-0.261342 0.669564,-0.491629 1.016752,-0.741062 0.3457,-0.253899 0.719187,-0.487246 1.110167,-0.741062 0.390772,-0.267131 0.853372,-0.526654 1.330404,-0.819836 0.118266,-0.07443 0.240666,-0.144317 0.367616,-0.211721 0.125295,-0.06988 0.251004,-0.138527 0.379194,-0.208412 0.126949,-0.06988 0.255139,-0.141422 0.383743,-0.21296 0.126949,-0.07154 0.256793,-0.141423 0.389532,-0.204277 0.528059,-0.261342 1.051777,-0.530996 1.569665,-0.746892 0.258033,-0.110823 0.504737,-0.227434 0.749787,-0.322543 0.245215,-0.0918 0.479967,-0.18236 0.701695,-0.265477 0.337015,-0.143077 1.223924,-0.433282 1.571112,-0.549976 0.18815,-0.0612 0.115371,-0.06575 -0.162098,-0.0041 -0.138528,0.02895 -0.329572,0.07567 -0.564532,0.138527 -0.236531,0.06285 -0.51644,0.141423 -0.827156,0.259688 -0.179466,0.06285 -0.37051,0.131085 -0.576193,0.204277 -0.103379,0.03722 -0.210066,0.07278 -0.319648,0.110823 -0.107927,0.04383 -0.217509,0.08766 -0.331226,0.132738 -0.227434,0.0918 -0.466818,0.18815 -0.71774,0.288634 -0.251004,0.09635 -0.501842,0.227434 -0.768767,0.350248 -1.06348,0.494524 -2.048144,1.086803 -3.197677,1.801606 -0.749828,0.475585 -1.536129,1.005133 -2.277191,1.565282 -0.368856,0.281604 -0.741061,0.554359 -1.079483,0.847583 -0.34115,0.287394 -0.678373,0.560149 -0.973044,0.844607 -0.227434,0.21296 -0.481374,0.442048 -0.733743,0.694417 -0.24935,0.256793 -0.50912,0.526612 -0.774639,0.800856 -0.259688,0.27995 -0.510568,0.577682 -0.764425,0.865075 -0.0641,0.07278 -0.12695,0.144317 -0.189804,0.21751 -0.05996,0.07443 -0.118266,0.148865 -0.176572,0.223298 -0.118265,0.147212 -0.234877,0.293183 -0.348593,0.437624 -0.112477,0.143077 -0.227434,0.281605 -0.331227,0.42158 -0.102138,0.141422 -0.201382,0.278709 -0.297731,0.411448 -0.18815,0.265477 -0.372164,0.504737 -0.517887,0.726465 -0.291943,0.444943 -0.504738,0.768767 -0.596663,0.901547 -0.109581,0.15755 -0.06988,0.137287 0.112477,-0.08601 0.09056,-0.112477 0.215855,-0.274161 0.375059,-0.488693 0.08022,-0.107928 0.167887,-0.229088 0.265477,-0.363067 0.102138,-0.129844 0.214615,-0.274161 0.335361,-0.428899"
         style="fill:#ffffff;fill-opacity:1;fill-rule:evenodd;stroke:none;stroke-width:0.145879"
         id="path910" />
    </g>
  </g>
</svg>
