<?xml version="1.0" encoding="UTF-8" standalone="no"?>
<!-- Created with Inkscape (http://www.inkscape.org/) -->

<svg
   width="210mm"
   height="210mm"
   viewBox="0 0 210 210"
   version="1.1"
   id="svg31912"
   inkscape:version="1.2.1 (9c6d41e410, 2022-07-14)"
   sodipodi:docname="house-cat.svg"
   xmlns:inkscape="http://www.inkscape.org/namespaces/inkscape"
   xmlns:sodipodi="http://sodipodi.sourceforge.net/DTD/sodipodi-0.dtd"
   xmlns="http://www.w3.org/2000/svg"
   xmlns:svg="http://www.w3.org/2000/svg">
  <sodipodi:namedview
     id="namedview31914"
     pagecolor="#ffffff"
     bordercolor="#000000"
     borderopacity="0.25"
     inkscape:showpageshadow="2"
     inkscape:pageopacity="0.0"
     inkscape:pagecheckerboard="0"
     inkscape:deskcolor="#d1d1d1"
     inkscape:document-units="mm"
     showgrid="false"
     inkscape:zoom="0.49085999"
     inkscape:cx="143.62548"
     inkscape:cy="399.2992"
     inkscape:window-width="1366"
     inkscape:window-height="705"
     inkscape:window-x="-8"
     inkscape:window-y="-8"
     inkscape:window-maximized="1"
     inkscape:current-layer="layer1" />
  <defs
     id="defs31909" />
  <g
     inkscape:label="Layer 1"
     inkscape:groupmode="layer"
     id="layer1">
    <path
       d="m 113.86268,173.29839 c 16.64083,0.0553 33.28162,-0.0101 49.92009,-0.20874 0.3779,-0.003 0.80393,-0.0271 1.05424,-0.31174 0.40881,-0.46083 0.0489,-1.17438 -0.31607,-1.67167 -8.24003,-11.30756 -15.41914,-23.38976 -21.41264,-36.03424 -1.24779,-2.63179 -2.65245,-5.50267 -5.30836,-6.69621 -2.13988,-0.96397 -4.66513,-0.59671 -6.8415,0.27922 -3.95594,1.58942 -7.09249,4.67832 -10.03625,7.7634 -7.91722,8.29517 -15.56703,17.7092 -17.49693,29.01298 -0.1187,0.69429 -0.21524,1.40963 -0.0808,2.10197 0.54108,2.78485 10.51799,5.76471 10.51799,5.76471"
       style="fill:#b2b2b2;fill-opacity:1;fill-rule:nonzero;stroke:none;stroke-width:0.191265"
       id="path642" />
    <path
       d="m 168.6407,158.24781 c -1.55249,-4.64393 -3.10515,-9.28977 -4.65688,-13.93365 -0.61494,-1.83994 -3.78727,-8.94164 -1.3134,-15.12712 3.37846,-8.44627 6.80175,-14.44812 7.75883,-20.13063 0.27109,-6.37675 -1.01161,-10.234544 -2.58569,-15.63204 -2.55589,-1.660171 -6.69735,-3.381552 -9.71645,-2.962674 -2.70602,0.374638 -5.03718,2.119225 -6.88994,4.12557 -5.98161,6.474294 -7.9287,15.597614 -9.60589,24.252344 -1.12826,5.81827 -2.24144,11.64419 -3.01087,17.52177 -0.17296,1.3178 -0.32585,2.67582 0.0169,3.96107 0.26728,1.01375 0.82777,1.92416 1.38074,2.81544 4.67027,7.53965 9.34138,15.07739 14.01167,22.61706 1.68105,2.71213 3.50322,5.55814 6.35724,6.98691 1.55173,0.7765 3.29854,1.07105 5.02664,1.22789 2.97873,0.26946 5.99268,0.16047 8.94392,-0.32691 0.54601,-0.09 1.12137,-0.20874 1.52474,-0.58717 0.40065,-0.37465 0.55735,-0.9391 0.64263,-1.48229 0.47277,-2.98566 -0.82702,-6.18548 -3.24862,-7.99485 -1.06611,-0.79759 -2.33684,-1.35228 -3.20138,-2.36597 -0.7157,-0.83966 -1.08178,-1.91645 -1.43143,-2.96458"
       style="fill:#b2b2b2;fill-opacity:1;fill-rule:nonzero;stroke:none;stroke-width:0.191265"
       id="path644" />
    <path
       d="m 83.305316,172.8241 c -2.726295,0.27543 -5.45183,0.50476 -8.184787,0.69426 h -0.03788 c -4.210865,0.29656 -8.421543,0.50692 -12.63836,0.63504 -2.422192,0.0727 -4.845145,0.128 -7.267337,0.16046 -5.566914,0.0823 -11.14056,0.0553 -16.714043,-0.0216 -3.724419,-0.0379 -7.442118,-0.11498 -11.160573,-0.18921 -1.193908,-0.0271 -2.435635,-0.0612 -3.521975,-0.5528 -1.565239,-0.72298 -2.442357,-2.46345 -2.442357,-4.17143 v -0.0216 c 0.0054,-1.10744 0.384939,-2.19383 1.187185,-2.97608 0.998888,-0.97735 2.38185,-1.42302 3.718456,-1.83425 1.538346,-0.48036 3.08336,-0.95249 4.635154,-1.38474 2.868229,-0.80904 5.776036,-1.47086 8.745163,-1.7195 2.204832,-0.18162 4.419315,-0.13172 6.633799,-0.0823 1.980538,0.0433 3.961999,0.0878 5.936627,-0.0325 3.313451,-0.21037 6.734644,-0.95824 9.480233,-2.74657 l 0.269457,-0.17621 h 0.0051 c 0.303072,-0.2082 0.593293,-0.4321 0.870444,-0.66752 0.175665,-0.13561 0.343738,-0.283 0.505842,-0.44566 l 0.357839,-0.33669 0.05428,0.4305 c 0.02705,0.18378 0.07423,0.35782 0.134424,0.52805 0.229874,0.61971 0.628261,1.1801 1.107218,1.6927 0.363791,0.40556 0.77633,0.78225 1.180465,1.13992 l 0.09486,0.0878 c 0.283002,0.25048 0.566341,0.49933 0.850391,0.74977 2.301058,2.01783 4.64848,4.03377 7.105047,5.87759 l 0.229333,0.16807 c 0.715172,0.53188 1.450955,1.05198 2.18618,1.53776 2.112137,1.42303 4.325033,2.67195 6.680114,3.65127"
       style="fill:#99846d;fill-opacity:1;fill-rule:nonzero;stroke:none;stroke-width:0.191265"
       id="path646" />
    <path
       d="m 97.726262,141.7302 c -1.038585,-0.22935 -2.233947,-0.42669 -3.078217,0.22174 3.949422,1.86294 8.314085,2.84027 12.681035,2.83646 0.31229,-0.55083 -0.48687,-1.04812 -1.10493,-1.18393 -2.8324,-0.62544 -5.66468,-1.24893 -8.497888,-1.87438"
       style="fill:#3c3c3b;fill-opacity:1;fill-rule:nonzero;stroke:none;stroke-width:0.191265"
       id="path648" />
    <path
       d="m 168.932,91.224851 c -0.21577,3.886474 1.32912,7.66587 1.5787,11.552399 0.0683,1.04427 0.0435,2.08475 -0.0808,3.11756 v 0.005 c -0.405,3.67037 -1.91629,7.20687 -4.09574,10.25565 -0.56044,0.78988 -1.1669,1.54539 -1.80802,2.26071 -1.92318,2.14028 -4.14948,3.96109 -6.55904,5.53332 -2.3214,1.532 -4.81737,2.82687 -7.34799,3.96873 l -0.20928,0.0938 c -0.27651,0.12039 -0.55273,0.24289 -0.8299,0.36541 -0.90411,0.39036 -1.80824,0.76886 -2.71213,1.15904 h -0.005 c -1.4039,0.60821 -2.78008,1.24131 -4.10324,1.98532 -0.38385,0.20873 -0.76218,0.43048 -1.13339,0.66751 -0.19572,0.12039 -0.39146,0.24886 -0.58739,0.37681 -0.41097,0.27759 -0.80907,0.56803 -1.20058,0.87023 -0.31066,0.22935 -0.61417,0.47982 -0.91078,0.73637 -0.26403,0.22933 -0.527,0.45923 -0.78284,0.69431 -0.87718,0.80333 -1.70057,1.66781 -2.46946,2.57827 l -0.005,0.005 c -1.5718,1.8304 -2.96155,3.81956 -4.30481,5.87757 v 0.005 l -0.14795,0.23531 c -0.16215,0.22933 -0.31066,0.4668 -0.46518,0.70193 -1.33677,2.05803 -2.63889,4.14282 -4.02197,6.14152 -0.18216,0.25644 -0.36434,0.51832 -0.54678,0.77465 -0.32367,0.44565 -0.65455,0.89126 -1.0049,1.32928 -0.20277,0.26403 -0.41151,0.5259 -0.62089,0.7842 l -0.0102,0.005 c -0.51994,0.64074 -1.07296,1.26814 -1.64006,1.87634 -3.31269,3.52116 -7.32105,6.34233 -11.82168,7.02325 3.49496,-0.14745 6.99759,-0.30199 10.49255,-0.46466 4.68981,-0.20276 9.93243,-0.2239 13.37367,2.97613 1.84245,1.70604 2.85403,4.72228 1.35602,6.73442 -0.8704,1.17245 -2.28693,1.65254 -3.78494,1.8476 l -0.0216,0.005 h -0.0216 c -0.77633,0.0939 -1.57945,0.11498 -2.34146,0.11498 -12.40909,0.0271 -24.82483,0.0543 -37.233148,0.0727 -5.290368,0.0169 -10.574058,0.0271 -15.863835,0.0325 -0.640942,0 -1.275391,0 -1.916283,-0.0102 h -0.03804 c -2.159177,-0.0271 -4.318354,-0.16807 -6.383417,-0.79564 -1.841698,-0.56042 -3.623743,-1.57987 -4.87208,-3.00284 l -0.127999,-0.13561 h -0.0051 c -0.182175,-0.20277 -0.344279,-0.41693 -0.499873,-0.64648 -0.120897,-0.17621 -0.236401,-0.35187 -0.337244,-0.54108 -0.162155,-0.26946 -0.297645,-0.55855 -0.418542,-0.8569 -0.425068,-1.05196 -0.587341,-2.17849 -0.634398,-3.31844 -0.01015,-0.38657 -0.02164,-0.76316 -0.02164,-1.14761 l 0.0051,-0.35188 c 0.0051,-0.28897 0.01015,-0.58526 0.02705,-0.87597 0.03246,-1.04623 0.07372,-2.09819 0.120897,-3.15206 l 0.0051,-0.283 h 0.0051 c 0.0051,-0.25645 0.02164,-0.51235 0.03246,-0.76885 0.0051,-0.19518 0.01015,-0.39198 0.02705,-0.59487 0.04887,-1.03857 0.107371,-2.0771 0.169155,-3.11567 0.0602,-1.00035 0.127999,-1.99876 0.202229,-2.98946 0.154545,-2.03123 0.337227,-4.06246 0.552915,-6.09369 0.148628,-1.37711 0.310664,-2.75232 0.486312,-4.12177 0.22935,-1.73479 0.492297,-3.46955 0.782299,-5.18904 0.364332,-2.15359 0.776161,-4.2996 1.248388,-6.41693 0.870462,-3.90177 1.929861,-7.74047 3.231985,-11.48545 0.850374,-2.45579 1.808236,-4.86572 2.88101,-7.23358 1.113186,-2.46925 2.361744,-4.89257 3.745351,-7.24705 l 0.189226,-0.32313 c 0.242876,-0.40554 0.48577,-0.80903 0.741904,-1.21451 1.592075,-2.570583 3.374069,-5.03983 5.418148,-7.273777 0.344278,-0.384396 0.70156,-0.755511 1.066281,-1.126571 0.317698,-0.3253 0.647621,-0.640733 0.978711,-0.958226 1.727294,-1.625744 3.59652,-3.090843 5.566758,-4.414384 1.416478,-0.950581 2.894419,-1.828513 4.405772,-2.643283 1.862716,-1.006046 3.785678,-1.916508 5.742525,-2.746566 1.288733,-0.554692 2.597733,-1.073004 3.913473,-1.566485 1.27534,-0.478193 2.56407,-0.931445 3.84614,-1.361763 l 0.35783,-0.122521 c 1.28207,-0.424517 2.57102,-0.862588 3.77825,-1.463202 h 0.005 c 0.39144,-0.183794 0.76294,-0.391988 1.12673,-0.621595 1.03913,-0.654126 1.95739,-1.465099 2.82784,-2.327687 l 0.3638,-0.365422 c 0.30416,-0.310119 0.60745,-0.619698 0.91079,-0.937191 0.91827,-0.950582 1.83578,-1.908809 2.75323,-2.861344 v -0.0054 c 0.68129,-0.701943 1.35668,-1.403835 2.02477,-2.105779 0.68797,-0.709588 1.36942,-1.423026 2.05071,-2.132616 2.44994,-2.536152 4.8922,-5.080002 7.33467,-7.623799 0.80311,-0.837756 1.60623,-1.66787 2.40956,-2.503675 0.50584,-0.525902 1.01156,-1.053865 1.51801,-1.579821 0.23585,-0.248856 0.48577,-0.504759 0.74862,-0.734474 0.53349,-0.485783 1.12673,-0.883625 1.82905,-0.985012 0.84351,-0.12252 1.66614,0.200604 2.42219,0.627343 0.21579,0.114945 0.41802,0.24289 0.62084,0.363252 2.05074,1.268077 4.05541,2.639435 6.03899,4.04907 2.21964,1.572179 4.40582,3.205567 6.6061,4.817973 1.40312,1.032829 2.80702,2.050315 4.21682,3.04297 2.49006,1.761556 5.01401,3.43512 7.61175,4.925103 2.03737,1.181981 4.12941,2.241593 6.2886,3.144355 h 0.005 c 2.03071,0.85115 4.12276,1.553094 6.29534,2.07905 -1.35608,1.49763 -2.73226,3.056417 -3.96721,4.689805 -2.36174,3.104234 -4.21762,6.504926 -4.42685,10.330244"
       style="fill:#ededed;fill-opacity:1;fill-rule:nonzero;stroke:none;stroke-width:0.191265"
       id="path650" />
    <path
       d="m 167.74483,171.5751 c -0.0813,0.53948 -0.2429,1.10744 -0.6409,1.4785 -0.40499,0.37681 -0.97894,0.49933 -1.52496,0.58718 -1.72062,0.28897 -3.46899,0.43807 -5.21634,0.46463 -0.22935,0.005 -0.45218,0.005 -0.68151,0.005 -0.29658,0 -0.5939,-0.005 -0.89051,-0.0101 l -0.42507,-0.0101 c -0.18216,-0.005 -0.37139,-0.0101 -0.55961,-0.0271 l -0.23693,-0.0102 c -0.31663,-0.0216 -0.6268,-0.0435 -0.93757,-0.0747 -0.21579,-0.0216 -0.43212,-0.038 -0.64784,-0.0666 -0.17567,-0.0216 -0.35784,-0.0379 -0.53349,-0.0666 -0.22881,-0.0325 -0.46573,-0.0666 -0.70158,-0.10907 -0.22933,-0.0379 -0.46571,-0.0862 -0.69483,-0.14152 -0.18217,-0.0325 -0.35784,-0.0803 -0.53296,-0.128 l -0.0612,-0.0216 -0.11498,-0.0325 -0.42451,-0.128 -0.22933,-0.0747 -0.10145,-0.0379 -0.0607,-0.0271 -0.3844,-0.14914 c -0.18217,-0.0727 -0.3573,-0.15505 -0.5324,-0.24289 -2.85484,-1.43067 -4.67647,-4.27668 -6.36343,-6.99076 -0.57377,-0.92381 -1.14679,-1.85525 -1.72057,-2.77905 -1.20806,-1.95093 -2.42219,-3.90756 -3.63025,-5.85654 -0.51939,-0.83771 -1.03852,-1.68121 -1.55861,-2.51702 -0.95114,-1.53969 -1.90286,-3.06981 -2.85403,-4.60951 -0.31066,-0.50475 -0.62757,-1.00415 -0.93833,-1.51096 -0.5194,-0.84351 -1.04606,-1.68697 -1.56534,-2.53046 h -0.005 v -0.005 c -0.24289,-0.39957 -0.48578,-0.78989 -0.73522,-1.18772 -0.29061,-0.47223 -0.58717,-0.94484 -0.87772,-1.41729 v -0.005 l -0.12089,-0.1876 c -0.55371,-0.89897 -1.11334,-1.80173 -1.38378,-2.82117 -0.33669,-1.28147 -0.18216,-2.63944 -0.0101,-3.96108 0.10146,-0.7689 0.20982,-1.53205 0.31772,-2.2952 0.0379,-0.27543 0.0808,-0.54511 0.1209,-0.81477 0.68893,-4.56163 1.54501,-9.09656 2.42295,-13.63146 0.0489,-0.26187 0.10078,-0.5183 0.14863,-0.78223 0.0737,-0.39795 0.15454,-0.78994 0.22881,-1.18779 0.43915,-2.21291 0.90465,-4.44691 1.45761,-6.65218 0.16216,-0.64263 0.33777,-1.2891 0.51344,-1.92984 0.32366,-1.14759 0.6815,-2.28751 1.07972,-3.40832 1.42985,-4.08161 3.39336,-7.895437 6.32894,-11.072321 1.0594,-1.147607 2.27412,-2.20722 3.62347,-2.968422 1.01238,-0.581476 2.10544,-1.000354 3.26568,-1.155251 3.01625,-0.416927 6.00549,0.925697 8.56289,2.583971 2.07852,1.350322 4.02842,2.997102 5.6341,4.892574 2.207,2.578229 3.77229,5.607859 4.18392,8.947339 0.39089,3.15206 -0.27705,6.27542 -1.39717,9.27063 -0.62757,1.6812 -1.39722,3.32799 -2.20625,4.91356 -2.02472,3.95342 -4.32509,7.76535 -6.87577,11.40894 -1.32913,1.89736 -2.77335,3.85399 -3.04991,6.1549 -0.22933,1.92984 0.3909,3.8387 1.0049,5.68055 0.31772,0.95249 0.6344,1.90308 0.95195,2.8556 1.23418,3.68951 2.4692,7.38855 3.70419,11.07805 0.35025,1.04623 0.71495,2.12688 1.43084,2.96268 l 0.0737,0.0823 c 0.85705,0.96396 2.09206,1.51096 3.13117,2.28562 2.42219,1.80937 3.71781,5.0073 3.24558,7.99674"
       style="fill:#ededed;fill-opacity:1;fill-rule:nonzero;stroke:none;stroke-width:0.191265"
       id="path652" />
    <path
       d="m 161.085,173.0536 -0.0379,0.0666 c -0.19574,0.34969 -0.42615,0.68085 -0.68205,0.985 -0.22935,0.005 -0.45217,0.005 -0.68151,0.005 -0.29656,0 -0.5939,-0.005 -0.89051,-0.0102 l -0.42505,-0.0101 c -0.18218,-0.005 -0.3714,-0.0102 -0.55963,-0.0271 l -0.23693,-0.0101 c -0.31663,-0.0216 -0.6268,-0.0433 -0.93757,-0.0747 -0.21579,-0.0216 -0.43212,-0.0379 -0.64784,-0.0666 -0.17566,-0.0216 -0.35782,-0.0379 -0.53349,-0.0666 -0.22881,-0.0325 -0.46573,-0.0666 -0.70157,-0.10889 -0.22934,-0.0379 -0.46572,-0.0862 -0.69483,-0.14153 -0.18218,-0.0325 -0.35784,-0.0803 -0.53297,-0.128 l -0.0612,-0.0216 -0.11498,-0.0325 -0.42451,-0.128 -0.22933,-0.0749 h -0.0325 l -0.0673,-0.0379 -0.0607,-0.0271 -0.38441,-0.14913 c -0.18215,-0.0727 -0.35728,-0.15506 -0.5324,-0.24288 -2.85484,-1.43068 -4.67646,-4.27667 -6.36341,-6.99078 -0.57379,-0.92379 -1.14681,-1.85524 -1.72059,-2.77903 -1.20806,-1.95093 -2.42217,-3.90758 -3.63023,-5.85654 -0.5194,-0.83771 -1.03854,-1.68122 -1.55863,-2.51702 -0.95112,-1.53971 -1.90284,-3.06981 -2.85403,-4.60952 -0.31066,-0.50474 -0.62755,-1.00414 -0.93833,-1.51097 -0.52589,-0.84349 -1.04606,-1.68694 -1.572,-2.53045 v -0.005 c -0.2429,-0.39958 -0.48579,-0.78989 -0.73525,-1.18773 -0.29059,-0.47223 -0.58717,-0.94483 -0.87771,-1.41728 l -0.14795,0.23531 c -0.13493,0.2239 -0.27056,0.48577 -0.41151,0.77655 -1.03267,2.07904 -2.49028,5.71498 -5.39811,8.26647 -0.27054,0.24289 -0.55349,0.47223 -0.85017,0.68856 l -0.0102,0.005 c -0.78301,0.56619 -1.65345,1.05962 -2.63884,1.42304 h -0.005 c -0.72912,0.28518 -1.51808,0.49336 -2.37573,0.6216 -2.86075,0.42451 -5.61398,1.21455 -8.30585,2.17853 -2.15918,0.77081 -4.29157,1.65442 -6.4171,2.5457 -4.925851,2.05037 -9.845006,4.14855 -15.127884,5.03217 -3.286498,0.54705 -6.579152,1.09405 -9.865819,1.64679 -1.807256,0.30416 -3.703485,0.58148 -5.593001,0.70964 -0.357823,0.0271 -0.722375,0.0435 -1.079673,0.0543 -4.230969,0.18163 -8.353503,-0.47982 -11.329354,-3.2993 -0.01015,-0.38656 -0.02164,-0.76316 -0.02164,-1.14761 l 0.0051,-0.35187 c 0.0051,-0.28897 0.01015,-0.58526 0.02705,-0.87597 0.03247,-1.04623 0.07372,-2.09819 0.120897,-3.15206 l 0.0051,-0.28302 h 0.0051 c 0.0051,-0.25644 0.02164,-0.51233 0.03246,-0.76884 0.0051,-0.19518 0.01015,-0.39199 0.02705,-0.59486 0.04887,-1.03859 0.107371,-2.07711 0.169155,-3.11567 0.0602,-1.00036 0.127999,-1.99877 0.202229,-2.98947 0.154545,-2.03123 0.337227,-4.06245 0.552915,-6.0937 0.148628,-1.3771 0.310664,-2.7523 0.486312,-4.12177 0.22935,-1.73477 0.492298,-3.46954 0.782299,-5.18904 0.364332,-2.15359 0.776161,-4.2996 1.248388,-6.41693 0.870462,-3.90175 1.929861,-7.74046 3.231985,-11.48544 0.850391,-2.4558 1.808236,-4.86574 2.88101,-7.2336 1.113186,-2.46923 2.361744,-4.89257 3.745351,-7.24703 l 0.189226,-0.32314 c 0.242893,-0.40554 0.48577,-0.80902 0.741904,-1.2145 1.592075,-2.570585 3.374069,-5.039834 5.418148,-7.273781 0.344278,-0.384396 0.70156,-0.755509 1.066281,-1.126569 0.317698,-0.3253 0.647621,-0.640734 0.978711,-0.958228 1.727294,-1.625743 3.596537,-3.090842 5.566759,-4.414381 1.416477,-0.950584 2.894418,-1.828515 4.405771,-2.643284 1.862716,-1.006047 3.785678,-1.916508 5.742525,-2.746568 1.288735,-0.55469 2.597735,-1.073004 3.913475,-1.566483 1.27534,-0.478193 2.56407,-0.931444 3.84614,-1.361763 l 0.35782,-0.122538 c 1.28207,-0.424517 2.57102,-0.862588 3.77826,-1.463201 h 0.005 c 0.39145,-0.183795 0.76294,-0.391987 1.12673,-0.621596 1.03912,-0.654124 1.95739,-1.465099 2.82785,-2.327687 l 0.36379,-0.365421 c 0.30415,-0.31012 0.60745,-0.619697 0.91079,-0.93719 0.91826,-0.950583 1.83578,-1.908809 2.75323,-2.861344 v -0.0054 c 0.68129,-0.701944 1.35667,-1.403833 2.02477,-2.105779 0.68796,-0.709588 1.36942,-1.423026 2.05071,-2.132615 0.56044,1.660172 1.23499,3.285915 2.01805,4.852399 1.78796,3.582373 4.1361,6.889324 6.94311,9.735325 4.05536,4.102635 8.96095,7.201124 13.74482,10.446918 1.30906,0.889372 2.60447,1.786388 3.87981,2.717831 0.29656,0.223915 0.60077,0.445662 0.88384,0.688554 0.70156,0.581474 1.32239,1.248992 1.64677,2.084797 0.38386,1.006045 0.28302,2.126869 0.18218,3.192234 -0.0271,0.2906 -0.0612,0.57377 -0.0884,0.86448 -0.10077,0.9984 -0.19572,1.9968 -0.29656,2.9952 -0.10145,0.97736 -0.19572,1.95668 -0.29005,2.93595 -0.12141,1.15904 -0.23693,2.32004 -0.34428,3.47333 -0.18218,1.77495 -0.35784,3.54991 -0.53349,5.32485 -0.16165,1.61235 -0.32368,3.2247 -0.47873,4.83706 -0.0543,0.53349 -0.10788,1.06725 -0.16165,1.6009 -0.0884,0.88938 -0.18218,1.78064 -0.29712,2.67197 -0.14204,1.1399 -0.33018,2.26648 -0.60728,3.37392 -0.128,0.51233 -0.27651,1.02512 -0.45217,1.52435 -0.10078,0.31013 -0.21577,0.61394 -0.34372,0.91804 -1.08619,2.61076 -2.92865,4.95184 -4.10319,7.48805 v 0.005 c -0.51235,1.10742 -0.89057,2.24734 -1.02503,3.46765 l -0.0216,0.17023 c -0.0607,0.68667 -0.0379,1.37522 0.0435,2.06376 0.18161,1.58557 0.68145,3.15781 1.17378,4.69745 0.19574,0.59867 0.39146,1.19354 0.59406,1.79983 v 0.005 c 0.18922,0.55274 0.37789,1.09972 0.58051,1.65252 0.19463,0.55464 0.39794,1.09405 0.60722,1.64104 v 0.005 c 0.83624,2.15366 1.79468,4.27092 2.9348,6.21416 1.17455,2.01215 2.55741,3.84061 4.21087,5.3172 l 0.005,0.005 c 1.46353,1.30825 3.14382,2.35447 5.0947,3.01625 0.7754,0.26186 1.61908,0.47818 2.18596,1.07299 0.92418,0.96398 0.70156,2.36781 0.0216,3.60342"
       style="fill:#99846d;fill-opacity:1;fill-rule:nonzero;stroke:none;stroke-width:0.191265"
       id="path654" />
    <path
       d="m 132.23904,90.968569 c -2.39595,0.0488 -4.67627,-1.310204 -6.15395,-3.197977 -1.47121,-1.883977 -2.22727,-4.251785 -2.57101,-6.619648 -0.22933,-1.553093 -0.33017,-3.205621 -1.21467,-4.500479 -0.15455,-0.223916 -0.33018,-0.439698 -0.51235,-0.634987 -0.67456,-0.734474 -1.50468,-1.35607 -2.01801,-2.212965 -0.54606,-0.904661 -0.66121,-1.950882 -0.46517,-2.976066 v -0.0054 c 0.68128,-0.701944 1.35667,-1.403834 2.02478,-2.105779 0.0673,1.484184 0.49228,2.949284 1.24168,4.236498 0.22282,0.386566 0.47223,0.757408 0.72161,1.128467 0.51235,0.768848 1.01906,1.545395 1.24168,2.434767 0.16807,0.680908 0.16164,1.390498 0.26294,2.084797 0.70846,4.825617 6.41044,7.598966 7.44289,12.369119"
       style="fill:#3c3c3b;fill-opacity:1;fill-rule:nonzero;stroke:none;stroke-width:0.191265"
       id="path656" />
    <path
       d="m 122.72436,93.504719 c -1.24168,-0.728728 -2.23992,-1.868689 -2.8068,-3.197975 -0.99819,-2.33338 -0.6344,-5.060863 -1.55863,-7.428671 -0.16215,-0.411506 -0.35782,-0.809078 -0.57378,-1.193528 -0.55273,-0.979264 -1.2275,-1.897315 -1.76096,-2.895718 -0.62082,-1.160997 -1.03916,-2.549596 -0.74861,-3.798534 l 0.36379,-0.365421 c 0.40499,1.086396 1.0594,2.092442 1.89617,2.895718 0.60745,0.587221 1.31574,1.086394 1.92985,1.660225 0.38494,0.350239 0.72185,0.734421 0.98561,1.187727 1.11318,1.935593 0.34374,4.391448 0.79645,6.577576 0.46518,2.241647 2.2129,4.399094 1.47691,6.558492"
       style="fill:#3c3c3b;fill-opacity:1;fill-rule:nonzero;stroke:none;stroke-width:0.191265"
       id="path658" />
    <path
       d="m 121.37518,113.84186 c -5.49216,-3.76405 -7.49677,-10.94989 -7.8269,-17.603966 -0.0548,-1.139961 -0.0813,-2.306651 -0.47331,-3.379655 -0.57302,-1.579823 -1.86175,-2.773349 -2.87408,-4.116027 -1.2008,-1.593215 -2.0307,-3.456156 -2.4358,-5.40514 -0.27054,-1.289113 -0.35133,-2.618399 -0.22933,-3.934294 1.28205,-0.424517 2.571,-0.862589 3.77825,-1.463202 -0.0938,1.335034 -0.0271,2.691104 0.20928,4.014643 0.36433,1.975767 1.08634,3.892275 2.16584,5.59262 0.58717,0.931444 1.28207,1.815069 1.62652,2.855543 0.68817,2.077152 0.0742,4.337883 -0.0949,6.516422 -0.405,5.143106 5.42559,8.746526 6.1541,16.923056"
       style="fill:#3c3c3b;fill-opacity:1;fill-rule:nonzero;stroke:none;stroke-width:0.191265"
       id="path660" />
    <path
       d="m 111.75956,115.28017 c -3.00269,-1.67356 -5.19553,-4.74337 -5.80298,-8.12491 -0.53945,-3.00286 0.0884,-6.24095 -1.17358,-9.014304 -0.98559,-2.165091 -2.98929,-3.718185 -4.10936,-5.816373 -0.803098,-1.510966 -1.099727,-3.205565 -1.214724,-4.925049 -0.0607,-0.877879 -0.07423,-1.755811 -0.08725,-2.626044 -0.0051,-0.768902 -0.01015,-1.551141 0.04887,-2.320043 1.288734,-0.554692 2.597734,-1.073004 3.913474,-1.566485 -0.0216,1.511021 -0.16858,3.043024 -0.22935,4.548298 -0.0878,2.065658 -0.0216,4.094991 0.72836,6.005698 0.61416,1.564534 1.6535,2.94164 2.25405,4.521515 1.62576,4.263277 -0.16858,9.404487 1.99719,13.426787 1.09978,2.05226 3.15796,3.61679 3.67724,5.89091"
       style="fill:#3c3c3b;fill-opacity:1;fill-rule:nonzero;stroke:none;stroke-width:0.191265"
       id="path662" />
    <path
       d="m 110.47159,117.91201 c -0.14863,0.37681 -0.29765,0.74782 -0.43916,1.11887 -5.99859,-0.5183 -11.383289,-5.28271 -12.630866,-11.16605 -0.364349,-1.70034 -0.438612,-3.53644 -1.41729,-4.97286 -1.167885,-1.70799 -3.367406,-2.45011 -4.662852,-4.06246 -1.039345,-1.289113 -1.369471,-2.962674 -1.545018,-4.628593 -0.04887,-0.39795 -0.07423,-0.789939 -0.107877,-1.182033 -0.134932,-1.72713 -0.26403,-3.454205 -0.398488,-5.175587 1.416461,-0.950582 2.894419,-1.828514 4.405755,-2.643284 -0.310123,2.077098 -0.518845,4.196323 -0.364333,6.227555 0.148628,2.084797 0.675386,4.081599 1.842443,5.829764 1.613109,2.421429 4.359526,4.209718 4.979606,7.057668 0.47222,2.17274 -0.445125,4.57503 0.4321,6.61964 0.68129,1.59328 2.27429,2.55724 3.7654,3.42749 2.05091,1.18202 4.09575,2.36784 6.14076,3.54988"
       style="fill:#3c3c3b;fill-opacity:1;fill-rule:nonzero;stroke:none;stroke-width:0.191265"
       id="path664" />
    <path
       d="m 91.125366,105.59646 c -2.341453,0.0954 -4.378819,-1.57217 -5.863423,-3.37965 -0.57378,-0.6943 -1.099794,-1.43067 -1.558409,-2.20716 -1.05945,-1.746271 -1.801355,-3.683761 -2.045009,-5.667173 0.344278,-0.384396 0.701577,-0.755511 1.066281,-1.12657 0.317715,-0.325301 0.647621,-0.640734 0.978728,-0.958227 0.418558,2.01784 0.957845,4.047173 1.849121,5.829711 0.741955,1.484238 1.720615,2.792489 3.083408,3.777499 0.661165,0.48578 1.396407,0.87793 1.949898,1.47849 0.553726,0.6082 0.883852,1.51097 0.539472,2.25308"
       style="fill:#3c3c3b;fill-opacity:1;fill-rule:nonzero;stroke:none;stroke-width:0.191265"
       id="path666" />
    <path
       d="m 105.13416,125.57024 c -3.73867,-0.57953 -6.390364,-3.79279 -9.399712,-6.08605 -4.257922,-3.25343 -9.548324,-4.80459 -14.25152,-7.38279 -1.63242,-0.89708 -3.272363,-2.08481 -4.466221,-3.51548 -1.147612,-1.36945 -1.876124,-2.96842 -1.774571,-4.75676 0.01691,-0.22174 0.03788,-0.44566 0.0673,-0.67516 l 0.189226,-0.32313 c 0.242877,-0.40554 0.48577,-0.80902 0.741887,-1.21451 1.012342,1.20112 2.192859,2.22056 3.474929,3.13671 4.251175,3.04303 9.628996,4.95378 13.704642,8.36787 3.367237,2.8211 5.877575,6.70764 9.70289,8.86704 0.70152,0.39795 1.46429,0.7478 1.97018,1.38279 0.50639,0.6331 0.64096,1.65253 0.0433,2.19958"
       style="fill:#3c3c3b;fill-opacity:1;fill-rule:nonzero;stroke:none;stroke-width:0.191265"
       id="path668" />
    <path
       d="m 96.996397,128.96329 c -3.799289,0.0216 -7.591646,-1.13996 -10.72879,-3.28598 -0.883836,-0.6063 -1.720632,-1.28721 -2.638894,-1.84185 -3.751252,-2.26073 -8.568853,-2.17279 -12.441932,-4.09499 -0.446204,-0.21631 -0.877935,-0.4668 -1.289493,-0.74211 -0.432103,-0.28301 -0.84941,-0.61395 -1.092355,-1.07296 l -0.122081,-0.29059 c 0.850391,-2.45581 1.808236,-4.86574 2.881028,-7.2336 0.01015,0.17566 0.02705,0.35187 0.04887,0.52589 0.0673,0.66942 0.147951,1.35033 0.438612,1.96429 0.316633,0.68854 0.870444,1.23559 1.491282,1.68695 0.168073,0.128 0.343738,0.24289 0.519402,0.35782 3.218627,2.04462 7.348043,2.67197 9.999517,5.40515 0.722442,0.74787 1.309767,1.62574 2.105458,2.29326 1.673558,1.41727 3.981346,1.69464 6.086803,2.29521 2.111359,0.60056 4.358698,1.87438 4.743541,4.03378"
       style="fill:#3c3c3b;fill-opacity:1;fill-rule:nonzero;stroke:none;stroke-width:0.191265"
       id="path670" />
    <path
       d="m 72.292696,124.67511 0.08184,0.23911 c 1.254526,2.37551 4.302713,3.01625 6.963385,3.39495 1.775112,0.25265 3.550224,0.50474 5.325387,0.75739 0.385485,-0.65032 -0.07271,-1.5244 -0.727583,-1.89925 -0.655263,-0.37465 -1.44135,-0.41313 -2.184607,-0.54705 -3.020643,-0.547 -5.742525,-2.79819 -8.791524,-2.44242 -0.305777,0.0379 -0.686595,0.19139 -0.667083,0.49717"
       style="fill:#3c3c3b;fill-opacity:1;fill-rule:nonzero;stroke:none;stroke-width:0.191265"
       id="path672" />
    <path
       d="m 108.39981,136.94666 c -13.846639,0.20277 -27.725914,0.39794 -41.504447,-0.91042 l -0.452714,-0.0433 c -0.755516,-0.0727 -1.5519,-0.16807 -2.239916,-0.45704 0.364349,-2.1536 0.776178,-4.2996 1.248405,-6.41693 0.432103,0.28897 0.890498,0.55848 1.335789,0.79568 0.357823,0.18922 0.722595,0.37681 1.086403,0.55274 6.100347,2.96268 13.123979,4.00125 19.817468,2.92256 2.490283,-0.40554 4.993958,-1.09405 7.496822,-0.78994 3.049692,0.37084 5.8701,2.20716 8.94088,2.05801 1.01234,-0.0489 2.05069,-0.31013 3.02964,-0.0271 0.97123,0.2906 1.78774,1.45745 1.24167,2.3143"
       style="fill:#3c3c3b;fill-opacity:1;fill-rule:nonzero;stroke:none;stroke-width:0.191265"
       id="path674" />
    <path
       d="m 88.338622,142.97913 c 0.01014,0.76891 -0.586395,1.44408 -1.295446,1.76155 -0.70156,0.31013 -1.497961,0.33669 -2.266851,0.35784 -6.154151,0.14745 -12.320865,0.11498 -18.475016,-0.10906 -1.119848,-0.0379 -2.24739,-0.0877 -3.367238,-0.14152 0.148628,-1.3771 0.310664,-2.75232 0.486312,-4.12178 0.93764,0.35784 1.942542,0.53946 2.981871,0.61971 1.491299,0.128 3.050453,0.0379 4.534312,-0.0102 5.837197,-0.22174 11.707467,0.33074 17.402005,1.64679"
       style="fill:#3c3c3b;fill-opacity:1;fill-rule:nonzero;stroke:none;stroke-width:0.191265"
       id="path676" />
    <path
       d="m 108.48053,152.16941 h -0.0216 c -4.58808,0.45923 -9.176887,0.91042 -13.765137,1.36946 -2.105238,0.20874 -4.203205,0.4191 -6.308663,0.62735 -7.085044,0.70195 -14.231247,1.4039 -21.315479,0.70959 -0.324208,-0.0271 -0.655315,-0.0612 -0.98561,-0.10145 -1.302124,-0.15675 -2.664917,-0.39957 -3.906575,-0.84346 0.0602,-1.00036 0.127999,-1.99875 0.202228,-2.98945 1.416681,0.33669 2.840632,0.61394 4.284096,0.81666 8.394591,1.20118 17.125666,0.12039 24.946477,-3.17309 0.762177,-0.31554 1.524964,-0.65986 2.340861,-0.80902 3.671341,-0.64074 6.910202,2.84026 10.634502,2.92826 1.52497,0.0379 3.69754,-0.0543 3.88669,1.4383 v 0.005 l 0.005,0.0216"
       style="fill:#3c3c3b;fill-opacity:1;fill-rule:nonzero;stroke:none;stroke-width:0.191265"
       id="path678" />
    <path
       d="m 85.754275,161.81106 c -2.597789,0.95822 -5.30305,-0.88363 -8.015937,-1.41729 -1.396407,-0.27541 -2.833751,-0.20874 -4.25104,-0.16807 -1.909773,0.0543 -3.853009,0.0271 -5.761818,-0.17621 h -0.0051 c -0.924942,-0.10145 -1.842443,-0.24288 -2.73984,-0.43807 -1.045838,-0.22174 -2.065113,-0.52047 -3.04379,-0.91809 l -0.262948,-0.10687 0.269457,-0.1762 h 0.0051 c 0.0051,-0.25644 0.02164,-0.51235 0.03247,-0.76884 0.0051,-0.1952 0.01014,-0.392 0.02705,-0.59487 0.438612,0.0688 0.877174,0.15675 1.315718,0.25047 l 0.411508,0.0938 c 0.229333,0.0489 0.452173,0.10146 0.681506,0.15675 1.072791,0.24886 2.145633,0.47819 3.231968,0.68091 1.072842,0.20277 2.152515,0.38439 3.238918,0.53946 4.831516,0.70959 9.716228,0.96586 14.594987,1.22219 0.08725,0.60632 0.182158,1.21452 0.269999,1.82082"
       style="fill:#3c3c3b;fill-opacity:1;fill-rule:nonzero;stroke:none;stroke-width:0.191265"
       id="path680" />
    <path
       d="m 152.00223,107.09599 c -0.1209,1.15905 -0.23639,2.32005 -0.34372,3.47334 -3.56308,-0.0938 -7.14562,0.33831 -10.58686,1.26239 -2.10546,0.56612 -4.37958,1.31014 -6.39015,0.4668 v -1.26997 c 2.71957,-0.42452 5.43842,-0.85689 8.15111,-1.28722 0.7689,-0.12259 1.53834,-0.24288 2.26685,-0.48795 0.77618,-0.26187 1.49801,-0.65987 2.2474,-0.99075 1.47101,-0.64838 3.0497,-1.04623 4.65537,-1.16669"
       style="fill:#3c3c3b;fill-opacity:1;fill-rule:nonzero;stroke:none;stroke-width:0.191265"
       id="path682" />
    <path
       d="m 152.5894,101.16484 c -0.10078,0.9984 -0.19572,1.99681 -0.29656,2.99521 -3.28598,0.0216 -6.57916,0.0379 -9.87179,0.0612 0.1285,-0.22934 0.25644,-0.45921 0.38494,-0.6962 2.63124,-1.08639 5.39788,-1.84759 8.21156,-2.25308 0.5194,-0.0748 1.05273,-0.13608 1.57202,-0.10735"
       style="fill:#3c3c3b;fill-opacity:1;fill-rule:nonzero;stroke:none;stroke-width:0.191265"
       id="path684" />
    <path
       d="m 151.12507,115.89417 c -0.16165,1.61235 -0.32368,3.2247 -0.47874,4.83707 -3.06998,-0.87024 -6.14,-1.72714 -9.21072,-2.59737 -1.37619,-0.3844 -2.86747,-0.76891 -4.19655,-0.25645 -0.74937,0.29061 -1.36355,0.84345 -2.0785,1.20112 -1.53163,0.78995 -3.41441,0.64074 -5.01993,0.0101 -1.61311,-0.62734 -3.00264,-1.68694 -4.37975,-2.73317 1.82907,-0.0727 3.27329,1.74817 5.0947,1.8572 1.33579,0.0801 2.51707,-0.76316 3.73196,-1.3159 2.45586,-1.13421 5.26954,-1.12846 7.97556,-1.10742 2.61801,0.0216 5.24253,0.0487 7.86727,0.0666 0.22935,0 0.4652,0.005 0.69485,0.0325"
       style="fill:#3c3c3b;fill-opacity:1;fill-rule:nonzero;stroke:none;stroke-width:0.191265"
       id="path686" />
    <path
       d="m 138.61503,105.5448 c -2.39155,0.18 -4.96826,0.3177 -7.00356,-0.95248 -0.63136,-0.39416 -1.18045,-0.90851 -1.80878,-1.30636 -1.62861,-1.02897 -3.77744,-1.18582 -5.5369,-0.39957 -0.45812,1.05961 0.73601,2.02358 1.38818,2.97611 0.84041,1.22791 0.76581,3.00664 -0.17567,4.16001 2.60002,-0.70006 5.29938,-1.03093 7.992,-0.97736 1.26634,0.027 2.59259,0.12259 3.74149,-0.41151 1.14988,-0.53186 1.998,-1.97002 1.40314,-3.08895"
       style="fill:#3c3c3b;fill-opacity:1;fill-rule:nonzero;stroke:none;stroke-width:0.191265"
       id="path688" />
    <path
       d="m 140.01893,148.02661 c -0.54988,0.41313 -1.29925,0.39957 -2.03221,0.3844 -0.84346,-0.0169 -1.66533,-0.0325 -2.13814,0.60055 -0.20279,0.28302 -0.29007,0.62735 -0.36381,0.97737 -0.31067,-0.50476 -0.62755,-1.00416 -0.93832,-1.51098 -0.52591,-0.84349 -1.04606,-1.68695 -1.57202,-2.53046 h 0.005 c 1.68717,0.14914 3.38078,0.29658 5.07463,0.45164 0.76201,0.0688 1.74074,0.45325 1.97002,1.04622 0.0742,0.17621 0.0742,0.37085 -0.005,0.58143"
       style="fill:#3c3c3b;fill-opacity:1;fill-rule:nonzero;stroke:none;stroke-width:0.191265"
       id="path690" />
    <path
       d="m 136.22652,136.02285 c -0.18218,0.47223 -0.3703,0.95059 -0.55297,1.42304 l -0.005,0.005 c -0.72836,1.87634 -1.47026,3.76026 -2.19959,5.6347 -0.24938,0.64838 -0.6476,1.39815 -1.22752,1.66781 -0.17565,0.0879 -0.37138,0.12039 -0.58716,0.10145 -0.34428,-0.0325 -0.63423,-0.22933 -0.85017,-0.50692 l -0.0543,-0.0747 c -0.16858,-0.2353 -0.2841,-0.5183 -0.34428,-0.79562 -0.14204,-0.64844 -0.0742,-1.3293 -0.21578,-1.97773 -0.45217,-2.0637 -2.76663,-3.13096 -3.87309,-4.93843 -0.41151,-0.67517 -0.64784,-1.44408 -0.84351,-2.21292 -0.24289,-0.95823 -0.4321,-1.93755 -0.55371,-2.91491 -0.33018,-2.53041 -0.26892,-5.10099 0.18216,-7.61231 0.736,1.31016 0.95194,2.84026 1.24862,4.3111 0.30416,1.47275 0.73579,2.99711 1.79442,4.07012 0.56044,0.56612 1.35017,0.95822 2.13913,1.04621 l 0.47982,0.0216 c 0.52589,-0.0101 1.03163,-0.1762 1.45761,-0.51235 0.30308,-0.24289 0.64702,-0.5929 1.02496,-0.46463 0.37789,0.128 0.43861,0.62734 0.43212,1.02517 -0.0101,0.87024 -0.0216,1.74818 -0.0325,2.6184 0.86374,0.0271 1.72062,0.0543 2.58435,0.0879"
       style="fill:#3c3c3b;fill-opacity:1;fill-rule:nonzero;stroke:none;stroke-width:0.191265"
       id="path692" />
    <path
       d="m 150.18733,125.00411 c -0.14204,1.1399 -0.33018,2.26648 -0.60728,3.37391 -0.128,0.51236 -0.27651,1.02513 -0.45217,1.52436 -0.79639,0.24885 -1.74069,-0.0101 -2.46252,-0.48579 -0.89052,-0.57378 -1.57945,-1.41722 -2.42962,-2.05796 -2.73221,-2.04462 -6.51794,-1.60665 -9.89201,-1.08064 -0.3703,-1.24135 1.24188,-2.10393 2.5239,-2.32004 4.43335,-0.76891 9.06195,-0.40554 13.3197,1.04621"
       style="fill:#3c3c3b;fill-opacity:1;fill-rule:nonzero;stroke:none;stroke-width:0.191265"
       id="path694" />
    <path
       d="m 139.9621,129.37831 c -1.62498,-0.85304 -3.44406,0.66177 -4.65386,2.04078 1.35321,0.26025 2.4993,1.12083 3.74844,1.70034 1.76173,0.81862 3.78054,1.07112 5.69011,0.71154 0.37898,-0.63693 -0.14254,-1.46509 -0.79048,-1.82662 -0.64784,-0.36325 -1.41956,-0.47058 -2.03889,-0.87982 -0.73294,-0.48199 -1.17818,-1.33882 -1.95532,-1.74622"
       style="fill:#3c3c3b;fill-opacity:1;fill-rule:nonzero;stroke:none;stroke-width:0.191265"
       id="path696" />
    <path
       d="m 143.67612,144.01772 c -1.94329,-0.10145 -3.88654,-0.2082 -5.82978,-0.30958 -0.56037,-0.73638 0.10737,-1.86296 0.97797,-2.1594 0.87712,-0.30415 1.82905,-0.0803 2.74652,0 0.69467,0.0666 1.424,0.0489 2.08516,0.2353 l -0.0216,0.17024 c -0.0607,0.68664 -0.0379,1.3752 0.0435,2.06376"
       style="fill:#3c3c3b;fill-opacity:1;fill-rule:nonzero;stroke:none;stroke-width:0.191265"
       id="path698" />
    <path
       d="m 143.00149,156.49391 c -0.20928,0.25645 -0.56039,0.3253 -0.88384,0.37084 -0.736,0.10889 -1.47789,0.1968 -2.2204,0.25048 -0.51938,-0.8377 -1.03852,-1.68121 -1.55861,-2.51701 1.47794,-0.0216 2.95563,-0.22933 4.3857,-0.62735 -0.23638,0.84921 0.83012,1.84185 0.27705,2.52277"
       style="fill:#3c3c3b;fill-opacity:1;fill-rule:nonzero;stroke:none;stroke-width:0.191265"
       id="path700" />
    <path
       d="m 146.02445,152.17516 c -0.19572,0.005 -0.39849,-0.0101 -0.5941,-0.0325 -1.41723,-0.17024 -2.80007,-0.62735 -4.04197,-1.32928 1.3224,-0.32531 2.69951,-0.4191 4.05558,-0.2982 v 0.005 c 0.18922,0.55275 0.37789,1.09973 0.58049,1.65252"
       style="fill:#3c3c3b;fill-opacity:1;fill-rule:nonzero;stroke:none;stroke-width:0.191265"
       id="path702" />
    <path
       d="m 157.569,174.04435 c -0.31663,-0.0216 -0.6268,-0.0435 -0.93757,-0.0747 -0.21579,-0.0216 -0.43212,-0.0379 -0.64784,-0.0666 -0.17567,-0.0216 -0.35784,-0.0379 -0.53349,-0.0666 -0.22881,-0.0325 -0.46573,-0.0666 -0.70158,-0.1089 -0.22933,-0.038 -0.46571,-0.0862 -0.69483,-0.14152 -0.18217,-0.0325 -0.35784,-0.0803 -0.53296,-0.128 l -0.0612,-0.0216 -0.11498,-0.0325 -0.42451,-0.128 -0.22933,-0.0749 h -0.0325 l -0.0673,-0.0379 -0.0607,-0.0271 -0.3844,-0.14914 c -0.18217,-0.0727 -0.35728,-0.15505 -0.5324,-0.24289 -2.85484,-1.43067 -4.67647,-4.27668 -6.36343,-6.99076 -0.57377,-0.92381 -1.14679,-1.85525 -1.72057,-2.77905 1.66017,0.20277 3.3538,0.70769 3.98825,2.18038 0.35728,0.82247 0.28951,1.81322 0.78208,2.56299 1.11333,1.71368 3.92701,0.83581 5.62737,1.97766 0.45216,0.30417 0.79644,0.74212 1.14088,1.17434 0.83678,1.05771 1.66614,2.11733 2.50292,3.17693"
       style="fill:#3c3c3b;fill-opacity:1;fill-rule:nonzero;stroke:none;stroke-width:0.191265"
       id="path704" />
    <path
       d="m 116.93786,140.80065 c -1.0646,-0.39795 -2.13603,-0.79759 -3.25512,-0.99265 -2.14812,-0.37681 -4.4261,0.0325 -6.30584,1.1399 2.81141,0.39795 5.5557,1.27004 8.08171,2.56678 2.78599,1.43068 5.67139,3.44467 8.74288,2.83646 0.30307,-0.99264 -0.19626,-2.09055 -0.9676,-2.78673 -0.7702,-0.6962 -1.76844,-1.0749 -2.74119,-1.43832 -1.18487,-0.44186 -2.36976,-0.88362 -3.55484,-1.32544"
       style="fill:#3c3c3b;fill-opacity:1;fill-rule:nonzero;stroke:none;stroke-width:0.191265"
       id="path706" />
    <path
       d="m 102.81352,129.66902 c 2.5515,2.40615 6.83848,1.24131 9.98386,2.7925 1.59874,0.78989 3.19391,2.31619 4.87284,1.71753 -0.47711,-1.55499 -1.80135,-2.71214 -3.23142,-3.48673 -3.93967,-2.13452 -8.70255,-1.87445 -13.15538,-1.36758 1.38741,1.02134 0.27705,-0.83774 1.5301,0.34428"
       style="fill:#3c3c3b;fill-opacity:1;fill-rule:nonzero;stroke:none;stroke-width:0.191265"
       id="path708" />
    <path
       d="m 125.4036,152.61508 c -0.27056,0.24289 -0.55351,0.47223 -0.85019,0.68856 l -0.0101,0.005 c -0.783,0.56619 -1.65346,1.05962 -2.63885,1.42304 h -0.005 c -4.23097,-1.91456 -8.34679,-4.27093 -12.85437,-5.30951 2.26019,-0.53349 4.63532,-0.73638 6.92306,-0.30416 1.69361,0.32531 3.30603,0.97927 4.89886,1.63339 1.51134,0.6197 3.02962,1.2413 4.54098,1.86295"
       style="fill:#3c3c3b;fill-opacity:1;fill-rule:nonzero;stroke:none;stroke-width:0.191265"
       id="path710" />
    <path
       d="m 69.310825,168.06734 c -0.951876,0.32314 -1.916452,0.6197 -2.88845,0.87599 -0.903906,0.24288 -1.808016,0.45921 -2.725534,0.64072 h -0.0051 c -4.082358,0.83012 -8.279645,1.09405 -12.436015,0.7823 -1.862562,-0.14153 -3.772131,-0.39795 -5.58015,0.0878 -1.700564,0.45922 -3.158182,1.53971 -4.65619,2.45776 -0.83006,0.51234 -1.68625,0.97161 -2.557405,1.38285 -2.597742,1.23364 -5.371092,2.05037 -8.218393,2.46161 -0.992221,0.14152 -1.990352,0.23692 -2.996019,0.28518 -0.627559,-0.33074 -1.240967,-0.68281 -1.849116,-1.05962 -0.256445,-0.15505 -0.505842,-0.32531 -0.755347,-0.49338 l -0.0054,-0.005 -0.01082,-0.005 -0.02169,-0.0101 -0.425059,-0.31012 c -0.458674,-0.33885 -0.897341,-0.70959 -1.288786,-1.12083 l -0.08728,-0.0938 c -0.310662,-0.3253 -0.580498,-0.67515 -0.816612,-1.05386 l -0.14856,-0.26188 -0.155594,-0.29059 c -0.390903,-0.83012 -0.539458,-1.80748 -0.390903,-2.71215 l 0.0488,-0.23692 v -0.0216 c 0.0054,-1.10743 0.384939,-2.19383 1.187183,-2.97607 0.99889,-0.97737 2.381852,-1.42303 3.718456,-1.83425 1.538348,-0.48037 3.083362,-0.95249 4.635154,-1.38476 2.868229,-0.80902 5.776036,-1.47084 8.745163,-1.71948 2.204832,-0.18164 4.419315,-0.13172 6.633799,-0.0823 1.980539,0.0433 3.961999,0.0879 5.936627,-0.0325 3.313448,-0.21037 6.734641,-0.95822 9.480229,-2.74657 l 0.269458,-0.17619 h 0.0051 c 0.0051,-0.25646 0.02164,-0.51235 0.03246,-0.76886 0.283018,0.0271 0.559628,0.0612 0.836796,0.10145 0.350231,0.0543 0.708222,0.10737 1.05196,0.17621 1.323158,0.24289 2.618773,0.60631 3.867178,1.11887 0.337227,0.1356 0.667894,0.28301 0.998173,0.43969 -0.337228,0.1876 -0.674777,0.3844 -1.011565,0.57189 h -0.0051 c -0.486328,0.26946 -0.97215,0.53349 -1.464498,0.78994 -1.444225,0.7555 -2.921963,1.43066 -4.466982,1.88203 -0.499331,0.14372 -0.998984,0.26403 -1.504673,0.35782 l -0.465717,0.0823 c -1.29925,0.19302 -2.611891,0.19139 -3.926866,0.18921 -0.740383,0 -1.481526,-0.002 -2.220552,0.0325 -3.683976,0.16807 -7.321053,1.22221 -10.51957,3.05072 6.464155,1.40385 13.090521,2.06371 19.703338,1.96238 2.159177,-0.0271 4.311641,-0.14153 6.457443,-0.3291"
       style="fill:#3c3c3b;fill-opacity:1;fill-rule:nonzero;stroke:none;stroke-width:0.191265"
       id="path712" />
    <path
       d="m 182.31899,31.075912 -0.038,0.290601 c -0.47223,3.75836 -1.26845,7.468901 -2.13815,11.167947 -0.11498,0.499337 -0.23692,0.990759 -0.35131,1.489986 -0.13493,0.554638 -0.27056,1.115076 -0.40501,1.667815 -0.0884,0.370843 -0.18216,0.755511 -0.32421,1.11318 -0.0808,0.202769 -0.17513,0.39795 -0.28951,0.587167 -0.32423,0.499337 -0.81002,0.883625 -1.27534,1.254684 -0.22935,0.181627 -0.47225,0.363253 -0.71519,0.552741 -0.93832,0.696251 -1.94324,1.356068 -2.99596,1.761556 -0.95839,0.370842 -1.94323,0.525902 -2.95563,0.304156 -1.50466,-0.330723 -2.69852,-1.451653 -3.81245,-2.517013 -0.86373,-0.837758 -1.73418,-1.665919 -2.59774,-2.503677 -0.27001,-0.256444 -0.53296,-0.512348 -0.80333,-0.768846 0.1285,-0.290602 0.27759,-0.566186 0.43861,-0.837759 0.56039,-0.942937 1.28965,-1.780695 2.07173,-2.570579 l 0.28301,-0.28301 0.48632,-0.464638 0.41096,-0.384397 c 0.56712,-0.51994 1.14088,-1.03283 1.72063,-1.532003 0.46626,-0.405542 0.93853,-0.80333 1.41056,-1.195425 0.18269,-0.155053 0.35782,-0.301988 0.54704,-0.443494 0.45216,-0.370842 0.91057,-0.736372 1.36941,-1.086396 0.87717,-0.688552 1.7744,-1.357967 2.67846,-1.991055 1.5114,-1.09404 3.06389,-2.119225 4.64931,-3.090844 0.80328,-0.491745 1.81566,-0.977365 2.63808,-0.520481"
       style="fill:#8a7762;fill-opacity:1;fill-rule:nonzero;stroke:none;stroke-width:0.191265"
       id="path714" />
    <path
       d="m 182.31899,31.075912 -0.038,0.290601 -0.0102,0.02169 c -1.49128,1.753858 -3.63691,2.893819 -5.22914,4.519563 -0.38441,0.391988 -0.73584,0.816667 -1.03918,1.283365 -0.21579,0.323133 -0.41856,0.680908 -0.66789,0.971618 -0.18923,0.221748 -0.41205,0.403373 -0.68819,0.51235 -0.60077,0.229336 -1.26866,0 -1.86939,-0.229339 -0.59389,-0.229336 -1.19466,-0.451082 -1.78775,-0.680853 l -0.10145,-0.04337 -0.27649,-0.181627 -0.005,-0.336686 c 0.10787,-0.397951 0.32366,-0.728728 0.60071,-0.998402 0.39146,0.133918 0.77542,0.296566 1.15352,0.472229 0.87717,-0.688554 1.77442,-1.357967 2.67847,-1.991057 1.51141,-1.09404 3.0639,-2.119224 4.64931,-3.090842 0.80327,-0.491747 1.81566,-0.977367 2.63809,-0.520481"
       style="fill:#3c3c3b;fill-opacity:1;fill-rule:nonzero;stroke:none;stroke-width:0.191265"
       id="path716" />
    <path
       d="m 188.77057,71.880312 c 0,0.248854 -0.0169,0.499337 -0.0435,0.742119 -0.0737,0.809076 -0.26946,1.59896 -0.55963,2.346826 -0.39144,1.032829 -0.95844,1.998701 -1.66689,2.855597 -1.9903,2.421374 -5.06102,4.001251 -8.20485,3.804227 -1.66689,-0.101385 -3.27236,-0.627343 -4.93919,-0.734475 l -0.0489,-0.0054 c -0.9661,-0.06126 -1.9381,0.02169 -2.90781,0.0976 -1.39488,0.112764 -2.78387,0.22554 -4.13683,-0.07644 -1.30908,-0.290602 -2.49702,-0.958228 -3.66409,-1.612352 -0.59389,-0.330723 -1.18106,-0.669415 -1.78183,-0.998403 l -0.43212,-0.24289 c -1.34245,-0.757408 -2.68513,-1.505274 -4.02759,-2.260731 -2.29461,-1.289165 -4.6024,-2.578278 -6.77498,-4.070106 -0.22283,-0.147478 -0.43862,-0.301987 -0.65451,-0.459216 -3.54224,-2.509422 -6.71381,-5.525663 -9.39305,-8.939693 -0.5998,-0.763155 -1.17357,-1.545447 -1.72729,-2.348777 -0.49879,-0.734421 -1.1057,-1.315895 -1.64585,-1.887773 l -0.33127,-0.365422 c -0.71496,-0.789938 -1.24092,-1.619996 -1.19391,-2.847898 0.128,-0.248854 0.27651,-0.525902 0.43861,-0.822467 0.55292,-1.011793 1.28873,-2.287514 2.13219,-3.651228 0.57324,-0.9238 1.18718,-1.889725 1.83502,-2.840308 0.29005,-0.424518 0.58049,-0.84345 0.87044,-1.254684 0.70233,-0.979264 1.41729,-1.9241 2.12552,-2.759959 0.58739,-0.701944 1.17456,-1.329286 1.73417,-1.855242 0.24941,-0.236929 0.51995,-0.472229 0.80985,-0.70959 h 0.005 c 2.38185,-1.983411 6.06599,-4.0816 11.20107,-5.167995 0.95838,-0.202772 1.96328,-0.370843 3.02274,-0.493373 h 0.005 c 0.8769,-0.101385 1.79442,-0.174035 2.74635,-0.214156 1.046,-0.0488 2.13912,-0.0488 3.27902,0 h 0.0271 c 0.29005,0.01082 0.573,0.0271 0.86295,0.04337 h 0.0169 c 0.7823,0.05529 1.55099,0.13554 2.32065,0.256444 0.74933,0.122538 1.47767,0.277591 2.19284,0.485783 0.31066,0.09542 0.62083,0.196806 0.9316,0.311746 0.39145,0.133917 0.77542,0.296566 1.15351,0.472227 l 0.36435,0.174037 c 1.03267,0.525902 1.87611,0.931444 2.61135,1.310147 0.43156,0.221748 0.8299,0.445662 1.20133,0.673265 1.26792,0.789937 2.25331,1.729025 3.56898,3.645535 l 0.0433,0.05421 c 0.16807,0.248854 0.35024,0.491747 0.53242,0.734475 1.93655,2.511319 4.5209,4.716586 5.2762,7.759611 0.72239,2.89577 0,7.329238 1.22162,12.753515 0.60728,2.685357 1.62633,5.338184 1.59955,8.098141"
       style="fill:#ededed;fill-opacity:1;fill-rule:nonzero;stroke:none;stroke-width:0.191265"
       id="path718" />
    <path
       d="m 183.41211,58.486062 c -0.20169,1.025185 -0.26892,2.071406 -0.29657,3.104235 -0.0872,2.52276 0.0102,5.01879 -1.30885,7.204918 -3.90008,-0.545095 -10.80946,-0.539456 -14.43298,1.019437 -0.87717,0.378976 -1.74762,0.816722 -2.63813,1.166746 -0.81,0.31771 -1.63989,0.546993 -2.51034,0.587168 -2.96919,0.127948 -5.55336,-2.098189 -7.17244,-4.594166 -0.81668,-1.262383 -1.47118,-2.618399 -2.1458,-3.961077 -0.6679,-1.315949 -1.3501,-2.618451 -2.22705,-3.806178 -0.5933,-0.809077 -1.36969,-1.60666 -2.36175,-1.719486 -0.7689,-0.08782 -1.42341,0.221748 -2.01729,0.707692 -0.76945,0.606306 -1.44423,1.491829 -2.15918,2.172737 -1.25529,1.201172 -2.88103,1.822768 -4.60242,1.956683 -1.96253,0.168073 -4.03432,-0.290602 -5.81631,-1.206919 -0.2429,-0.127949 -0.48577,-0.264037 -0.72169,-0.413133 -0.82338,-0.504758 -1.58534,-1.092087 -2.28766,-1.746213 0.80311,-0.837757 1.60623,-1.66787 2.40954,-2.503676 0.50584,-0.525902 1.01158,-1.053865 1.51802,-1.579821 0.128,-0.248856 0.27651,-0.525903 0.43861,-0.822469 0.55292,-1.011793 1.28873,-2.287512 2.13219,-3.651227 0.57324,-0.923799 1.18718,-1.889726 1.83502,-2.840307 0.29005,-0.424518 0.58049,-0.843452 0.87044,-1.254686 0.70234,-0.979262 1.41729,-1.924098 2.12553,-2.759957 0.58738,-0.701945 1.17455,-1.329286 1.73418,-1.855244 0.24939,-0.236927 0.51993,-0.472227 0.80983,-0.709588 h 0.005 c 2.38185,-1.983413 6.06599,-4.081601 11.20107,-5.167996 0.95838,-0.202771 1.9633,-0.370843 3.02275,-0.493372 h 0.005 c 0.87691,-0.101385 1.79443,-0.174037 2.74635,-0.214156 1.04601,-0.0488 2.13913,-0.0488 3.27905,0 h 0.0271 c 0.29005,0.01082 0.57302,0.02711 0.86297,0.04337 h 0.0169 c 0.78228,0.05531 1.55097,0.13554 2.32064,0.256446 0.74932,0.122537 1.47767,0.277589 2.19283,0.485781 0.31066,0.09542 0.62084,0.196807 0.9316,0.311746 0.39146,0.133917 0.77542,0.296566 1.15353,0.472229 l 0.36434,0.174036 c 1.03266,0.525902 1.8761,0.931443 2.61135,1.310147 0.43156,0.221747 0.82989,0.445662 1.20133,0.673264 1.26792,0.789938 2.25331,1.729027 3.56897,3.645535 l 0.0435,0.05421 c 0.16807,0.248856 0.35025,0.491747 0.53242,0.734475 -0.31663,0.250482 -0.62084,0.499336 -0.88385,0.75551 -0.69564,0.669415 -1.1476,1.390498 -0.91155,2.321942 l 0.18217,0.459216 c 0.35133,0.688552 1.06628,1.180082 1.66017,1.713737 2.69187,2.394592 3.40087,6.43027 2.69187,9.966776"
       style="fill:#99846d;fill-opacity:1;fill-rule:nonzero;stroke:none;stroke-width:0.191265"
       id="path720" />
    <path
       d="m 174.43393,57.59669 c 0.52535,1.486135 1.08102,3.023886 2.1846,4.150455 0.53403,0.545095 1.1759,0.969667 1.76541,1.453606 1.08179,0.887473 1.99567,1.979562 2.67846,3.199818 -0.0759,-0.72298 -0.15184,-1.444009 -0.22771,-2.165092 -0.0325,-0.334517 -0.0688,-0.680907 0.038,-0.998401 0.2136,-0.627342 0.94885,-1.055764 0.93084,-1.717532 -2.06583,-1.000354 -4.03015,-2.209117 -5.85384,-3.601512 -0.44837,-0.342107 -1.0967,-0.69625 -1.51806,-0.321504"
       style="fill:#3c3c3b;fill-opacity:1;fill-rule:nonzero;stroke:none;stroke-width:0.191265"
       id="path722" />
    <path
       d="m 188.72941,72.622431 c -0.0737,0.809076 -0.26946,1.59896 -0.55961,2.346826 -0.39146,1.032829 -0.95846,1.998701 -1.6669,2.855597 l -0.31771,-0.264037 0.0683,-0.304156 c 0.23584,-0.606304 0.41802,-1.233647 0.54607,-1.876278 0.16215,-0.862643 0.21687,-1.74052 0.16215,-2.6165 l 0.0884,-0.357831 0.29657,-0.06126 c 0.47222,0.03253 0.93091,0.127949 1.38286,0.277591"
       style="fill:#3c3c3b;fill-opacity:1;fill-rule:nonzero;stroke:none;stroke-width:0.191265"
       id="path724" />
    <path
       d="m 139.30993,57.594791 c -0.89057,0.525904 -1.93658,0.533494 -2.9616,0.269458 -0.17565,-0.03253 -0.34426,-0.08782 -0.51342,-0.141509 -0.45217,-0.141509 -0.89724,-0.330721 -1.30902,-0.533493 -0.46518,-0.2353 -0.93089,-0.491746 -1.4029,-0.734474 0.50584,-0.525902 1.01156,-1.053865 1.51801,-1.579821 0.128,-0.248856 0.2765,-0.525904 0.43862,-0.822469 l 0.3101,0.08782 c 0.75611,0.202772 1.50469,0.459218 2.22729,0.761204 0.2559,0.108977 0.52591,0.256446 0.77542,0.432108 0.83677,0.587221 1.47116,1.491882 0.9175,2.260785"
       style="fill:#3c3c3b;fill-opacity:1;fill-rule:nonzero;stroke:none;stroke-width:0.191265"
       id="path726" />
    <path
       d="m 155.22156,57.736297 c -1.92387,-1.510965 -2.86149,-4.196321 -5.09468,-5.188977 -1.57716,-0.700047 -3.3217,-0.355661 -5.06851,-0.01082 -1.55787,0.305783 -3.11628,0.612054 -4.5605,0.180001 l -0.39144,-0.133917 c -1.12653,-0.459216 -1.98358,-1.35607 -2.89442,-2.180435 0.57324,-0.9238 1.18718,-1.889726 1.83502,-2.840308 1.14761,0.965925 2.20625,2.065658 3.59001,2.509423 l 0.28302,0.08241 c 0.99151,0.248854 2.0129,0.116569 3.03787,-0.01623 0.81061,-0.103549 1.62348,-0.208734 2.42809,-0.124161 1.92243,0.202771 3.57593,1.463202 4.89909,2.880483 1.23418,1.329286 2.32732,3.077396 1.93652,4.8447"
       style="fill:#3c3c3b;fill-opacity:1;fill-rule:nonzero;stroke:none;stroke-width:0.191265"
       id="path728" />
    <path
       d="m 154.85013,51.170214 c -1.61977,-1.935645 -4.0957,-3.115727 -6.61943,-3.1578 -0.62393,-0.0054 -1.24785,0.04337 -1.86945,0.101385 -0.74401,0.06669 -1.48516,0.131753 -2.21964,0.08782 -0.27651,-0.01082 -0.55371,-0.0488 -0.83005,-0.101385 -1.28207,-0.256446 -2.38852,-0.94489 -3.39419,-1.794087 0.70232,-0.979263 1.41728,-1.924098 2.12551,-2.759957 0.80312,0.229336 1.57279,0.587222 2.32807,0.944888 0.68818,0.323133 1.36947,0.640735 2.05173,0.963975 0.41746,0.196806 0.84345,0.397951 1.26097,0.594812 1.82905,0.862589 3.65736,1.727129 5.48624,2.589717 1.03935,0.493373 2.26763,1.545396 1.68024,2.530459"
       style="fill:#3c3c3b;fill-opacity:1;fill-rule:nonzero;stroke:none;stroke-width:0.191265"
       id="path730" />
    <path
       d="m 165.15299,37.837121 c -0.47872,0.330723 -1.0183,0.554691 -1.55763,0.784192 h -0.005 c -0.41096,0.174034 -0.81591,0.363251 -1.18712,0.61395 -0.31067,0.208192 -0.57384,0.451626 -0.80317,0.721083 -1.18046,1.396243 -1.34935,3.496329 -1.16041,5.519917 0.0543,0.606306 0.13442,1.206865 0.23638,1.780641 0.0737,0.413131 0.14102,0.877931 -0.0884,1.227955 -0.29007,0.445662 -0.92418,0.512349 -1.4368,0.391987 -1.85584,-0.445662 -2.69929,-2.530404 -3.92687,-3.993606 -1.21489,-1.451655 -2.87506,-2.316195 -4.70319,-2.86129 -1.782,-0.541083 -3.72523,-0.784191 -5.56693,-0.985009 l -0.35782,-0.05531 c 2.38184,-1.983412 6.06599,-4.081601 11.20106,-5.167995 0.95839,-0.202771 1.96331,-0.370844 3.02276,-0.493373 h 0.005 c 0.20223,-0.336687 0.405,-0.673263 0.61396,-1.004148 h 0.005 c 0.80312,0.06669 1.60547,0.147477 2.40858,0.248854 1.01238,0.122537 2.02472,0.271627 3.02962,0.432107 h 0.005 c 0.2841,0.05421 0.56705,0.101385 0.85034,0.155053 h 0.0169 l 0.2288,0.03794 c 0.61415,0.830114 0.0216,2.058016 -0.83012,2.645183"
       style="fill:#3c3c3b;fill-opacity:1;fill-rule:nonzero;stroke:none;stroke-width:0.191265"
       id="path732" />
    <path
       d="m 158.98394,63.556467 c -0.76559,0.300362 -1.56817,1.000354 -1.35813,1.795984 2.50439,1.222209 5.26949,-1.29101 8.05471,-1.325436 2.07922,-0.0271 4.16824,1.342678 6.12714,0.644528 -0.24994,-2.333434 2.5052,-4.408636 4.67929,-3.52306 0.7322,-1.822767 -0.31175,-4.152352 -2.15994,-4.819869 -1.84912,-0.667516 -4.13973,0.459217 -4.74125,2.329586 -0.15015,0.468432 -0.20549,0.963973 -0.37192,1.426823 -0.64324,1.782592 -2.72327,2.593567 -4.60913,2.784843 -1.88643,0.191385 -3.85666,-0.0054 -5.62072,0.686601"
       style="fill:#3c3c3b;fill-opacity:1;fill-rule:nonzero;stroke:none;stroke-width:0.191265"
       id="path734" />
    <path
       d="m 165.3414,41.693016 c 1.73863,0.814771 3.49882,1.642986 4.97058,2.876635 1.47253,1.23175 2.64866,2.93589 2.83457,4.846651 0.0543,0.550843 0.0754,1.203072 0.54108,1.501426 0.48632,0.31012 1.11491,0.01623 1.68945,-0.04337 2.23839,-0.233132 3.38063,3.021989 5.59657,3.415982 0.0906,-2.008298 -1.86999,-3.408337 -3.51448,-4.567383 -1.64429,-1.157201 -3.36053,-3.071758 -2.58284,-4.927002 0.88021,0.0054 1.32035,-1.197323 0.95784,-2.000653 -0.36217,-0.801377 -1.17585,-1.281467 -1.90056,-1.780641 -0.72472,-0.499337 -1.45913,-1.176286 -1.50181,-2.056116 -1.09078,-0.535662 -2.10318,0.768902 -2.99005,1.59896 -1.07663,1.007998 -2.65895,1.445961 -4.10013,1.134215"
       style="fill:#3c3c3b;fill-opacity:1;fill-rule:nonzero;stroke:none;stroke-width:0.191265"
       id="path736" />
    <path
       d="m 92.900647,173.49731 c -3.064064,-1.78065 -6.532247,-2.91485 -10.040622,-3.56898 -2.058384,-0.38439 -4.142976,-0.61969 -6.234822,-0.75552 -3.01623,-0.20277 -6.052598,-0.21631 -9.081999,-0.22174 -0.206574,0 -0.414771,0 -0.623171,-0.002 2.053024,-0.56423 4.10089,-1.1457 6.216865,-1.28721 0.362168,-0.0271 0.725486,-0.0325 1.087756,-0.0325 2.286161,0 4.562008,0.4321 6.833323,0.72873 3.173025,0.41313 6.361621,0.56423 9.557861,0.56423 4.361792,0 8.739259,-0.28138 13.115962,-0.56234 4.37518,-0.28139 8.75091,-0.56424 13.10754,-0.56424 3.57419,0 7.13515,0.18922 10.67645,0.72488 0.51938,-1.43062 -1.4443,-2.40994 -2.94899,-2.66621 -4.57464,-0.7689 -9.14337,-1.5454 -13.71113,-2.32004 -2.02398,-0.34428 -4.05542,-0.68281 -6.07938,-1.0252 2.30111,-1.444 4.45281,-3.11188 6.4372,-4.97476 v 0 c 2.69187,-0.96397 5.4451,-1.75391 8.30585,-2.17854 0.85765,-0.128 1.64661,-0.33669 2.37571,-0.6216 v 0 h 0.005 c 0.98539,-0.36325 1.85583,-0.85683 2.63884,-1.42302 -0.51994,0.64074 -1.07296,1.26814 -1.64006,1.87633 -3.31269,3.52117 -7.32106,6.34234 -11.82169,7.02324 v 0 0 c 3.49497,-0.14744 6.99759,-0.30199 10.49256,-0.46464 0.96148,-0.0433 1.94709,-0.0764 2.93476,-0.0764 3.82971,0 7.70286,0.50854 10.43891,3.05261 1.22313,1.13226 2.08072,2.8441 2.07996,4.45456 -7.6e-4,0.81478 -0.22012,1.60276 -0.72395,2.27987 -0.87039,1.17243 -2.28692,1.65252 -3.78493,1.8476 l -0.0216,0.005 h -0.0216 c -0.77633,0.0938 -1.57944,0.11498 -2.34145,0.11498 -12.40909,0.0271 -24.82483,0.0543 -37.233151,0.0727 v 0"
       style="fill:#d8d8d8;fill-opacity:1;fill-rule:nonzero;stroke:none;stroke-width:0.191265"
       id="path738" />
    <path
       d="m 160.36263,174.10556 c 0.25589,-0.30415 0.48631,-0.63502 0.68204,-0.985 l 0.0379,-0.0666 c 0.68129,-1.2356 0.90391,-2.63943 -0.0216,-3.6034 -0.56688,-0.59487 -1.41055,-0.81098 -2.18596,-1.07301 -1.95088,-0.66178 -3.63117,-1.70799 -5.09469,-3.01625 l -0.005,-0.005 c -1.65345,-1.47661 -3.0363,-3.30506 -4.21085,-5.3172 0.97579,0.57572 2.03062,0.93339 3.1386,0.93339 0.2185,0 0.43861,-0.0101 0.66047,-0.0433 0.0379,-1.05198 0.0737,-2.09819 0.11447,-3.15206 1.03857,2.31619 3.57727,3.7813 6.09141,3.7813 0.60744,0 1.21398,-0.084 1.79675,-0.26405 0.85705,0.96398 2.09205,1.51098 3.13118,2.28562 2.0913,1.56264 3.34273,4.15811 3.34121,6.7631 0,0.41313 -0.0325,0.82437 -0.0954,1.23366 -0.0813,0.53946 -0.2429,1.10742 -0.64091,1.47849 -0.405,0.37681 -0.97893,0.49933 -1.52495,0.58717 -0.44783,0.0749 -0.89587,0.13983 -1.34631,0.1968 -1.28283,0.16046 -2.57616,0.24886 -3.87005,0.26783"
       style="fill:#d8d8d8;fill-opacity:1;fill-rule:nonzero;stroke:none;stroke-width:0.191265"
       id="path740" />
    <path
       d="m 159.68112,174.11126 c -0.29658,0 -0.5939,-0.005 -0.89051,-0.0101 l -0.42507,-0.0102 c -0.18216,-0.005 -0.37139,-0.0101 -0.55961,-0.0271 l -0.23693,-0.0102 v 0 c -0.83679,-1.05962 -1.66613,-2.11922 -2.50293,-3.17693 -0.34426,-0.43212 -0.68871,-0.87024 -1.14088,-1.17434 -1.70034,-1.14187 -4.51402,-0.26403 -5.62738,-1.97767 -0.49228,-0.74976 -0.42505,-1.74051 -0.78206,-2.56299 -0.63445,-1.47268 -2.32808,-1.97766 -3.98825,-2.18038 v 0 c -1.20806,-1.95093 -2.42219,-3.90755 -3.63025,-5.85654 0.74251,-0.0543 1.4844,-0.14152 2.2204,-0.25048 0.32367,-0.0433 0.67461,-0.11498 0.88384,-0.37084 0.55297,-0.68092 -0.51343,-1.67356 -0.27705,-2.52277 -1.43007,0.39795 -2.90774,0.60631 -4.3857,0.62735 v 0 c -0.95112,-1.53971 -1.90284,-3.06982 -2.85402,-4.60951 0.0742,-0.35024 0.16164,-0.6943 0.36379,-0.97737 0.39578,-0.53187 1.03684,-0.6063 1.72963,-0.6063 0.13442,0 0.27108,0.002 0.40826,0.005 0.13662,0.002 0.27432,0.005 0.4104,0.005 0.59541,0 1.1744,-0.0543 1.62196,-0.39038 0.0808,-0.21034 0.0808,-0.40553 0.005,-0.5814 -0.22935,-0.59292 -1.20801,-0.97738 -1.97002,-1.04623 -1.69385,-0.15505 -3.38748,-0.30199 -5.07465,-0.45163 h -0.005 v 0 -0.005 0 c -0.24289,-0.39959 -0.48579,-0.7899 -0.73524,-1.18774 0.5799,-0.26946 0.97814,-1.01943 1.22752,-1.66781 0.72933,-1.87443 1.47123,-3.75835 2.19957,-5.6347 l 0.005,-0.005 c 0.18271,-0.47223 0.37084,-0.95064 0.55295,-1.42304 -0.86372,-0.0325 -1.72062,-0.0612 -2.58435,-0.0878 0.0101,-0.87024 0.0216,-1.74815 0.0325,-2.6184 0.005,-0.39794 -0.0543,-0.897 -0.4321,-1.02517 -0.0553,-0.0216 -0.11058,-0.0271 -0.16435,-0.0271 -0.31391,0 -0.60212,0.28681 -0.86069,0.49338 -0.42615,0.33669 -0.93165,0.49934 -1.45762,0.51235 1.84836,-2.42143 3.69081,-4.83711 5.53251,-7.26043 10e-4,0 0.002,-0.002 0.003,-0.003 0.31391,-0.0379 0.62772,-0.0688 0.94141,-0.0938 0,0 7.6e-4,0.002 7.6e-4,0.003 0.0938,1.19346 0.19572,2.39464 0.31012,3.6034 0,0.002 7.6e-4,0.003 7.6e-4,0.005 -0.8352,0.43969 -1.61903,1.18582 -2.24144,1.89542 0.91084,0.17404 1.72752,0.62164 2.54478,1.07299 0.0884,0.79375 0.18216,1.58942 0.29006,2.37551 0.29656,2.21291 0.66118,4.41439 1.1468,6.56615 v 0 c -0.15725,0.027 -0.31229,0.0612 -0.46574,0.11497 -0.87044,0.29658 -1.53834,1.42304 -0.97795,2.15942 0.67456,0.0325 1.34934,0.0705 2.02396,0.10737 v 0 c 0.30307,1.12653 0.64784,2.23395 1.03245,3.32035 0.41151,1.18772 0.88385,2.35447 1.4098,3.48862 7.6e-4,0 7.6e-4,0 7.6e-4,0 -0.31067,0.0543 -0.61932,0.11498 -0.92494,0.18923 0.4229,0.23909 0.86221,0.44945 1.31416,0.63119 0.91003,1.83806 1.98152,3.59575 3.25381,5.25208 0.98556,1.28146 2.22056,2.5381 3.61014,3.33948 v 0 c 1.17456,2.01215 2.55741,3.84061 4.21086,5.3172 l 0.005,0.005 c 1.46354,1.30825 3.14383,2.35447 5.0947,3.01625 0.7754,0.26186 1.61908,0.47818 2.18596,1.07299 0.92418,0.96399 0.70158,2.36782 0.0216,3.60342 l -0.0379,0.0666 c -0.19572,0.34971 -0.42613,0.68086 -0.68205,0.98502 v 0 c -0.22933,0.005 -0.45215,0.005 -0.68149,0.005 m -48.46763,-16.57879 c 1.80726,-1.68891 3.47182,-3.53265 4.97499,-5.50078 1.90979,0.88174 3.7962,1.83617 5.70658,2.70065 -0.72911,0.28518 -1.51807,0.49338 -2.37573,0.6216 -2.86074,0.42451 -5.61397,1.21457 -8.30584,2.17853 m 14.19009,-4.91741 c -1.51133,-0.62165 -3.02962,-1.24323 -4.54097,-1.86293 -0.97433,-0.39957 -1.95663,-0.80138 -2.96023,-1.12656 0.80929,-1.21452 1.55938,-2.4711 2.2468,-3.75832 0.95178,0.35946 1.91938,0.59481 2.90553,0.59481 0.37952,0 0.76196,-0.0325 1.14678,-0.11109 0.30307,-0.99266 -0.19626,-2.09054 -0.9676,-2.78674 -0.44458,-0.40174 -0.96512,-0.6981 -1.51367,-0.94674 1.55271,-3.56708 2.64197,-7.33308 3.19699,-11.18328 v 0 c 0.12208,0.97736 0.31066,1.95668 0.55372,2.91491 0.19572,0.76884 0.4321,1.53775 0.84351,2.21291 1.10646,1.80748 3.42114,2.87473 3.87308,4.93844 0.14203,0.64843 0.0737,1.32929 0.21579,1.97772 0.0602,0.2776 0.17566,0.56038 0.34428,0.79563 l 0.0543,0.0749 c -1.03266,2.07905 -2.49028,5.71498 -5.39809,8.26648 v 0"
       style="fill:#8c7965;fill-opacity:1;fill-rule:nonzero;stroke:none;stroke-width:0.191265"
       id="path742" />
    <path
       d="m 135.48461,149.98898 c -0.31066,-0.50476 -0.62756,-1.00415 -0.93833,-1.51096 -0.52589,-0.84351 -1.04606,-1.68697 -1.57202,-2.53046 v 0 h 0.005 c 1.68717,0.14914 3.3808,0.29656 5.07463,0.45162 0.76203,0.0688 1.74074,0.45325 1.97002,1.04622 0.0742,0.17621 0.0742,0.37085 -0.005,0.58143 -0.44729,0.33668 -1.02655,0.39035 -1.62195,0.39035 -0.13612,0 -0.27326,-0.003 -0.41043,-0.005 -0.13764,-0.003 -0.27378,-0.005 -0.40824,-0.005 -0.69279,0 -1.33368,0.0749 -1.72963,0.60629 -0.20277,0.28302 -0.29005,0.62735 -0.36379,0.97738 v 0"
       style="fill:#393938;fill-opacity:1;fill-rule:nonzero;stroke:none;stroke-width:0.191265"
       id="path744" />
    <path
       d="m 131.77141,144.86116 c -0.0379,0 -0.0791,-0.002 -0.11989,-0.005 -0.34427,-0.0325 -0.63422,-0.22934 -0.85017,-0.50693 v 0 l -0.0543,-0.0747 c -0.16858,-0.23531 -0.2841,-0.51831 -0.34428,-0.79563 -0.14203,-0.64843 -0.0742,-1.32928 -0.21579,-1.97771 -0.45217,-2.06371 -2.76662,-3.13097 -3.8731,-4.93845 -0.4115,-0.67516 -0.64784,-1.44407 -0.84351,-2.21291 -0.24287,-0.95823 -0.4321,-1.93754 -0.55371,-2.91491 0.14204,-0.95822 0.25049,-1.9241 0.31772,-2.89572 0.10788,2.71978 1.67356,5.33818 4.02191,6.71339 0.30361,-0.39795 0.59985,-0.78803 0.90396,-1.18777 0.20277,-0.26187 0.40499,-0.53187 0.60078,-0.79564 v 0 c 0.5259,-0.0102 1.03164,-0.17621 1.45762,-0.51235 0.25862,-0.20656 0.54683,-0.49337 0.86069,-0.49337 0.0543,0 0.10906,0.0102 0.16435,0.0271 0.37787,0.128 0.43861,0.62734 0.4321,1.02519 -0.0101,0.87022 -0.0216,1.74816 -0.0325,2.61838 0.86373,0.0271 1.72061,0.0543 2.58434,0.0879 -0.18215,0.47223 -0.3703,0.95057 -0.55295,1.42302 l -0.005,0.005 c -0.72834,1.87633 -1.47025,3.76025 -2.19957,5.6347 -0.2494,0.64837 -0.64762,1.39813 -1.22752,1.66781 v 0 c -0.14254,0.0705 -0.29819,0.10686 -0.4679,0.10686"
       style="fill:#393938;fill-opacity:1;fill-rule:nonzero;stroke:none;stroke-width:0.191265"
       id="path746" />
    <path
       d="m 136.29672,126.00441 c 0.28897,-0.37681 0.57167,-0.75362 0.86069,-1.12847 0.0271,0.34265 0.0543,0.69045 0.0808,1.03473 -0.31393,0.0271 -0.62757,0.0575 -0.94143,0.0938"
       style="fill:#393938;fill-opacity:1;fill-rule:nonzero;stroke:none;stroke-width:0.191265"
       id="path748" />
    <path
       d="m 137.85302,132.49209 c -0.81727,-0.45108 -1.63394,-0.8989 -2.54478,-1.073 0.62241,-0.70959 1.40623,-1.4555 2.24144,-1.89541 0.0943,0.9831 0.18812,1.97387 0.30253,2.96267 7.6e-4,0.002 7.6e-4,0.003 7.6e-4,0.005"
       style="fill:#393938;fill-opacity:1;fill-rule:nonzero;stroke:none;stroke-width:0.191265"
       id="path750" />
    <path
       d="m 139.87032,143.815 c -0.67463,-0.038 -1.3494,-0.0727 -2.02398,-0.10737 -0.56037,-0.73638 0.10737,-1.86294 0.97797,-2.1594 0.15285,-0.0543 0.3085,-0.09 0.46572,-0.11498 0.17566,0.80329 0.37138,1.59896 0.58051,2.38126"
       style="fill:#393938;fill-opacity:1;fill-rule:nonzero;stroke:none;stroke-width:0.191265"
       id="path752" />
    <path
       d="m 139.89725,157.11551 c -0.51938,-0.83771 -1.03852,-1.68121 -1.55861,-2.51702 v 0 c 1.47794,-0.0216 2.95563,-0.22933 4.3857,-0.62735 -0.23638,0.84921 0.83012,1.84185 0.27705,2.52277 -0.20928,0.25645 -0.56039,0.3253 -0.88385,0.37084 -0.73599,0.10889 -1.47789,0.1968 -2.22039,0.25048 v 0"
       style="fill:#393938;fill-opacity:1;fill-rule:nonzero;stroke:none;stroke-width:0.191265"
       id="path754" />
    <path
       d="m 142.70254,151.44454 c -0.45217,-0.18164 -0.89127,-0.39198 -1.31416,-0.63119 0.30578,-0.0747 0.61418,-0.13764 0.92494,-0.18922 0.1209,0.26999 0.25644,0.53945 0.38385,0.80908 0.002,0.003 0.003,0.005 0.005,0.0101"
       style="fill:#393938;fill-opacity:1;fill-rule:nonzero;stroke:none;stroke-width:0.191265"
       id="path756" />
    <path
       d="m 157.569,174.04435 c -0.31663,-0.0216 -0.6268,-0.0435 -0.93757,-0.0747 -0.21579,-0.0216 -0.43212,-0.0379 -0.64784,-0.0666 -0.17567,-0.0216 -0.35784,-0.0379 -0.53349,-0.0666 -0.22881,-0.0325 -0.46573,-0.0666 -0.70158,-0.1089 -0.22933,-0.038 -0.46571,-0.0862 -0.69483,-0.14152 -0.18217,-0.0325 -0.35784,-0.0803 -0.53296,-0.128 l -0.0612,-0.0216 -0.11498,-0.0325 -0.42451,-0.128 -0.22771,-0.0727 -0.002,-0.002 h -0.0325 l -0.0673,-0.0379 -0.0607,-0.0271 -0.38441,-0.14913 c -0.18216,-0.0727 -0.35728,-0.15505 -0.5324,-0.2429 -2.85484,-1.43068 -4.67647,-4.27667 -6.36342,-6.99076 -0.57378,-0.9238 -1.1468,-1.85524 -1.72058,-2.77905 v 0 c 1.66019,0.20277 3.3538,0.7077 3.98825,2.18038 0.35728,0.82248 0.28951,1.81323 0.78208,2.56299 1.11333,1.71369 3.92703,0.83582 5.62737,1.97767 0.45216,0.30415 0.79644,0.74212 1.14089,1.17434 0.83677,1.05771 1.66613,2.11733 2.50291,3.17693 v 0"
       style="fill:#393938;fill-opacity:1;fill-rule:nonzero;stroke:none;stroke-width:0.191265"
       id="path758" />
    <path
       d="m 123.05471,146.46208 c -0.98616,0 -1.95376,-0.2353 -2.90553,-0.59482 0.56619,-1.06156 1.09078,-2.146 1.57104,-3.24958 0.54855,0.24884 1.0692,0.54508 1.51367,0.94673 0.77117,0.69618 1.27094,1.79409 0.9676,2.78673 -0.38493,0.0764 -0.76732,0.11109 -1.14678,0.11109"
       style="fill:#393938;fill-opacity:1;fill-rule:nonzero;stroke:none;stroke-width:0.191265"
       id="path760" />
    <path
       d="m 121.90119,154.73236 h -0.005 v 0 c -1.91038,-0.8645 -3.7968,-1.81893 -5.70658,-2.70065 0.59768,-0.78419 1.16939,-1.58556 1.71389,-2.40615 1.00362,0.32531 1.98591,0.72684 2.96024,1.12658 1.51136,0.61969 3.02964,1.24129 4.54098,1.86294 v 0 c -0.27054,0.24289 -0.55349,0.47223 -0.85017,0.68856 l -0.0101,0.005 v 0 c -0.78301,0.56619 -1.65345,1.05962 -2.63884,1.42304"
       style="fill:#393938;fill-opacity:1;fill-rule:nonzero;stroke:none;stroke-width:0.191265"
       id="path762" />
    <path
       d="m 166.33427,116.15621 c 1.12001,-2.99521 1.78791,-6.11857 1.39716,-9.27063 -0.4115,-3.33948 -1.9769,-6.36912 -4.18391,-8.947339 v 0 c -0.33723,-1.321642 -0.6545,-2.658573 -0.60743,-3.980215 0.12191,-3.549897 2.84811,-6.822421 2.20027,-10.311105 -0.45867,-2.52276 -2.46994,-4.236499 -4.81813,-5.47779 -1.07301,-0.568084 -2.2064,-1.040475 -3.29931,-1.444065 -3.11112,-1.160997 -6.62636,-2.618397 -8.09066,-5.460602 v 0 0 c 0.21579,0.156693 0.43156,0.311746 0.6545,0.459216 2.17259,1.491828 4.48038,2.780939 6.77499,4.070106 1.34245,0.755457 2.68514,1.503321 4.02759,2.260731 l 0.43212,0.24289 c 0.60077,0.329096 1.18794,0.667516 1.78183,0.998401 1.16707,0.654126 2.35501,1.321642 3.66408,1.612352 0.64687,0.143674 1.30213,0.193012 1.96253,0.193012 0.72033,0 1.44656,-0.05747 2.1743,-0.116569 0.72759,-0.0591 1.45686,-0.118733 2.1837,-0.118733 0.24125,0 0.48252,0.0054 0.72412,0.02169 l 0.0489,0.0054 c -2.36174,3.104236 -4.21762,6.504928 -4.42685,10.330245 -0.0169,0.258071 -0.0216,0.516685 -0.0216,0.772697 0.003,3.6168 1.36561,7.151407 1.59875,10.779698 0.0271,0.37464 0.0379,0.74971 0.0379,1.12462 0,0.66752 -0.0379,1.33118 -0.11768,1.99296 v 0.005 c -0.405,3.67036 -1.91628,7.20687 -4.09575,10.25563"
       style="fill:#d8d8d8;fill-opacity:1;fill-rule:nonzero;stroke:none;stroke-width:0.191265"
       id="path764" />
    <path
       d="m 156.1592,147.16976 c -2.38852,-3.50207 -4.66287,-7.34268 -4.39985,-11.53136 0.28408,-4.48134 3.39417,-8.18613 6.20787,-11.68816 l 0.13493,-0.16047 c 2.85402,-3.54983 5.66104,-7.79402 4.97287,-12.29445 -0.23584,-1.53206 -0.87712,-3.09849 -0.43861,-4.58272 0.26295,-0.87599 0.87045,-1.60472 1.24166,-2.44246 0.90413,-2.05802 0.2494,-4.27668 -0.33072,-6.531666 v 0 0 c 2.207,2.578226 3.77229,5.607856 4.18391,8.947346 0.3909,3.15204 -0.27704,6.27541 -1.39716,9.27063 v 0 c -0.62757,1.6812 -1.39722,3.32797 -2.20625,4.91354 -2.02472,3.95344 -4.32509,7.76537 -6.87577,11.40894 -1.32913,1.89738 -2.77335,3.85401 -3.04991,6.15491 -0.0325,0.27922 -0.0489,0.55659 -0.0489,0.8358 -7.4e-4,1.64488 0.52916,3.26873 1.05409,4.84476 0.31772,0.95248 0.63439,1.90306 0.95195,2.85559"
       style="fill:#d8d8d8;fill-opacity:1;fill-rule:nonzero;stroke:none;stroke-width:0.191265"
       id="path766" />
    <path
       d="m 178.82477,81.646323 c -0.17567,0 -0.35131,-0.0054 -0.52644,-0.01623 -1.66689,-0.101385 -3.27236,-0.627341 -4.93921,-0.734474 v 0 l -0.0489,-0.0054 c -0.24126,-0.01623 -0.48253,-0.02169 -0.72412,-0.02169 -0.72682,0 -1.45609,0.0591 -2.18368,0.118733 -0.72774,0.0591 -1.45399,0.116569 -2.1743,0.116569 -0.66042,0 -1.31568,-0.0488 -1.96254,-0.193013 -1.30906,-0.290602 -2.497,-0.958226 -3.66407,-1.612352 -0.59391,-0.330721 -1.18106,-0.669413 -1.78185,-0.998401 l -0.4321,-0.242891 c -1.34247,-0.757409 -2.68514,-1.505274 -4.02761,-2.26073 -2.29461,-1.289167 -4.6024,-2.578279 -6.77497,-4.070107 -0.22284,-0.147478 -0.43861,-0.301988 -0.6545,-0.459216 v 0 c -0.18218,-0.342107 -0.33018,-0.707691 -0.44512,-1.092143 4.79883,2.876633 10.3895,4.399095 15.98169,4.399095 0.98099,0 1.96124,-0.04337 2.9386,-0.141509 1.20133,-0.114946 2.40858,-0.304156 3.61678,-0.304156 h 0.005 c 0.45868,0 0.90395,0.0271 1.36279,0.09542 1.13422,0.174034 2.20701,0.600613 3.30006,0.93719 1.92605,0.583373 3.93814,0.874083 5.95008,0.874083 1.73705,0 3.4741,-0.216326 5.15591,-0.652173 -0.128,0.642631 -0.31013,1.269974 -0.54607,1.876278 l -0.0683,0.304156 0.31771,0.264037 c -1.87893,2.285615 -4.72098,3.821468 -7.67811,3.821468"
       style="fill:#d8d8d8;fill-opacity:1;fill-rule:nonzero;stroke:none;stroke-width:0.191265"
       id="path768" />
    <path
       d="m 186.5029,77.824854 v 0 l -0.31771,-0.264037 0.0683,-0.304156 c 0.23584,-0.606304 0.41802,-1.233647 0.54607,-1.876278 v 0 c 0.46627,-0.120356 0.91827,-0.254277 1.37023,-0.411506 -0.39146,1.032831 -0.95846,1.998701 -1.6669,2.855596"
       style="fill:#393938;fill-opacity:1;fill-rule:nonzero;stroke:none;stroke-width:0.191265"
       id="path770" />
    <path
       d="m 97.44835,186.21646 c -0.85017,0.31174 -1.788672,0.26403 -2.69263,0.16266 -5.560029,-0.61394 -10.72879,-3.13101 -16.193995,-4.34553 -0.22284,-0.0435 -0.452173,-0.0938 -0.674573,-0.13392 -4.763798,-0.96591 -9.682783,-0.96591 -14.548134,-0.79758 -6.484277,0.21633 -12.975432,0.71534 -19.44707,0.25049 -5.755054,-0.41151 -11.564705,-1.62574 -16.645953,-4.3111 -0.627559,-0.33072 -1.240967,-0.68281 -1.849117,-1.05961 -0.262951,-0.16266 -0.519397,-0.33073 -0.775517,-0.50694 -1.208111,-0.83585 -2.314622,-1.83426 -2.942181,-3.14439 -0.432107,-0.91042 -0.566347,-1.99681 -0.343734,-2.96843 0.162104,-0.72874 0.525904,-1.39624 1.113234,-1.86869 0.782184,-0.62735 1.814742,-0.83771 2.806963,-0.97162 2.732959,-0.36542 5.513031,-0.31175 8.225117,0.16046 2.172628,0.37843 4.291472,1.0118 6.45071,1.43063 3.941123,0.7555 7.975447,0.76889 11.984017,0.78228 3.757926,0.0101 7.516668,0.0271 11.27487,0.0435 1.079453,0 2.152447,0.005 3.231968,0.005 0.371383,0.005 0.749377,0.005 1.120811,0.005 3.029419,0.005 6.065769,0.0216 9.082016,0.22174 2.091846,0.13561 4.176422,0.37085 6.234822,0.75552 3.508358,0.65411 6.976558,1.78833 10.040622,3.56898 0.350231,0.20277 0.70156,0.41313 1.038416,0.63504 0.965268,0.61395 1.88277,1.30824 2.739839,2.07899 0.965116,0.8569 1.862564,1.8419 2.483402,2.96079 0.351312,0.63504 0.614159,1.31594 0.748617,2.03892 0.37138,1.99105 -0.56044,4.32449 -2.46257,5.00541"
       style="fill:#3c3c3b;fill-opacity:1;fill-rule:nonzero;stroke:none;stroke-width:0.191265"
       id="path772" />
    <path
       d="m 97.44835,186.21646 c -0.85017,0.31174 -1.788672,0.26403 -2.69263,0.16266 -5.560029,-0.61394 -10.72879,-3.13101 -16.193995,-4.34553 -0.22284,-0.0435 -0.452173,-0.0938 -0.674573,-0.13392 2.138903,-0.31174 4.284705,-0.60061 6.43049,-0.86452 -1.221554,-1.39051 -2.915403,-2.35447 -4.730893,-2.69111 0.742648,-0.24452 1.492043,-0.47982 2.233947,-0.71534 0.55371,-0.17621 1.099778,-0.35782 1.653505,-0.53349 -0.304171,-0.87793 -0.863783,-1.66782 -1.599735,-2.23969 2.780031,-0.89897 5.789548,-0.15675 8.617431,0.59292 -0.128506,-0.49935 -0.26403,-0.99271 -0.391437,-1.49189 1.28131,-0.0939 2.570786,-0.0325 3.838704,0.1762 0.965285,0.61396 1.882787,1.30825 2.739839,2.079 0.965117,0.8569 1.862564,1.8419 2.483402,2.96077 0.351329,0.63504 0.614176,1.31595 0.748634,2.03894 0.371381,1.99105 -0.56044,4.32449 -2.462587,5.00538"
       style="fill:#ededed;fill-opacity:1;fill-rule:nonzero;stroke:none;stroke-width:0.191265"
       id="path774" />
    <path
       d="m 77.887152,181.89961 v 0 c -3.359156,-0.6809 -6.796007,-0.88173 -10.235732,-0.88173 -1.438865,0 -2.877933,0.0325 -4.312402,0.084 -4.544068,0.15286 -9.092532,0.44186 -13.634328,0.44186 -1.938846,0 -3.876173,-0.0543 -5.812742,-0.19137 -5.755054,-0.41151 -11.564705,-1.62576 -16.645953,-4.3111 -0.627559,-0.33074 -1.240967,-0.68281 -1.849117,-1.05962 -0.262951,-0.16266 -0.519397,-0.33072 -0.775517,-0.50693 5.295623,1.47844 10.799707,2.2397 16.302384,2.2397 1.858117,0 3.716069,-0.0862 5.566758,-0.26187 1.666081,-0.15505 3.353036,-0.39199 4.865358,-1.09404 1.153517,-0.53946 2.171816,-1.32928 3.339704,-1.8476 1.260968,-0.56044 2.599852,-0.76891 3.967193,-0.76891 2.041965,0 4.147964,0.46301 6.160813,0.90278 5.620714,1.23553 11.288266,2.2263 16.997125,2.98371 -0.741904,0.23528 -1.491299,0.47059 -2.233947,0.71532 1.81549,0.33669 3.509339,1.30061 4.730893,2.69111 -2.145785,0.26403 -4.291587,0.55275 -6.43049,0.86455"
       style="fill:#393938;fill-opacity:1;fill-rule:nonzero;stroke:none;stroke-width:0.191265"
       id="path776" />
    <path
       d="m 95.921323,186.45549 c -0.388731,0 -0.780016,-0.0325 -1.165603,-0.0764 -5.560029,-0.61396 -10.72879,-3.13103 -16.193995,-4.34553 -0.22284,-0.0433 -0.452173,-0.0938 -0.674573,-0.13392 v 0 c 2.138903,-0.31174 4.284705,-0.60061 6.43049,-0.86454 -1.221554,-1.39049 -2.915403,-2.35447 -4.730893,-2.69109 0.742648,-0.24452 1.492043,-0.47982 2.233947,-0.71534 v 0 c 5.755917,0.76126 11.538617,1.28146 17.341607,1.54349 0.35133,0.63505 0.614159,1.31596 0.748617,2.03893 0.05428,0.2868 0.07964,0.58142 0.08082,0.87788 7.61e-4,1.75202 -0.915946,3.54605 -2.543258,4.12752 -0.487952,0.18 -1.004903,0.23909 -1.527011,0.23909"
       style="fill:#d8d8d8;fill-opacity:1;fill-rule:nonzero;stroke:none;stroke-width:0.191265"
       id="path778" />
    <path
       d="m 60.282597,163.07913 v 0 c 0.505841,-0.0938 1.005443,-0.21415 1.504674,-0.35782 l -0.0051,0.35185 v 0 0 c -0.499349,0 -0.998951,0.005 -1.497961,0.005 v 0"
       style="fill:#a89683;fill-opacity:1;fill-rule:nonzero;stroke:none;stroke-width:0.191265"
       id="path780" />
    <path
       d="m 125.39692,71.434704 v 0 c -0.78304,-1.566485 -1.45762,-3.192229 -2.01806,-4.8524 2.44996,-2.536152 4.8922,-5.080002 7.33467,-7.623798 v 0 c 0.70234,0.654126 1.4643,1.241293 2.28768,1.746213 0.23585,0.149101 0.47874,0.285181 0.72168,0.413133 v 0 0 c -2.61786,3.243842 -5.22921,6.483889 -7.84706,9.729631 -0.15557,0.195179 -0.31772,0.39036 -0.47874,0.587221"
       style="fill:#f0f0f0;fill-opacity:1;fill-rule:nonzero;stroke:none;stroke-width:0.191265"
       id="path782" />
    <path
       d="M 62.319946,163.07338 H 61.78049 v 0 l 0.0051,-0.35187 v 0 c 1.545018,-0.45108 3.022756,-1.12651 4.466981,-1.88203 0.492281,-0.25643 0.978119,-0.52046 1.464499,-0.78992 h 0.0051 v 0 0 0 c -0.06121,0.44566 -0.182157,0.86452 -0.419082,1.24898 l -0.201688,0.29061 c -1.032666,1.31589 -3.057402,1.47654 -4.784679,1.48418 m 5.330696,-4.84471 c -1.086352,-0.20277 -2.159194,-0.4321 -3.231968,-0.68089 -0.22935,-0.0553 -0.452173,-0.1089 -0.681506,-0.15675 l -0.411508,-0.0938 c -0.438612,-0.0938 -0.877174,-0.18163 -1.315736,-0.25049 0.04887,-1.03857 0.107371,-2.0771 0.169155,-3.11567 v 0 c 1.241676,0.44349 2.604468,0.6866 3.906593,0.84344 0.330176,0.0379 0.661232,0.0727 0.985609,0.10146 v 0 c 0.114472,0.79564 0.256438,1.58558 0.403916,2.37361 0.06121,0.32531 0.128506,0.64838 0.175665,0.97927 m -0.98539,-6.4705 c -1.443481,-0.20277 -2.867416,-0.47982 -4.284114,-0.81667 0.154546,-2.03123 0.337228,-4.06246 0.552916,-6.09369 v 0 c 1.119848,0.0543 2.247389,0.10145 3.367237,0.14153 v 0 0 c 0,2.26073 0.120898,4.52151 0.363792,6.76885 M 66.39913,141.34587 v 0 c -1.039346,-0.0803 -2.044248,-0.26186 -2.981871,-0.61968 0.229333,-1.73479 0.492281,-3.46956 0.782299,-5.18904 v 0 c 0.688,0.28897 1.484401,0.38439 2.239899,0.45704 l 0.452715,0.0433 v 0 0 c -0.236925,1.75961 -0.404998,3.53455 -0.492822,5.30951 m 1.471008,-10.87725 v 0 c -0.363808,-0.17565 -0.72836,-0.36325 -1.086402,-0.55273 -0.445122,-0.23746 -0.903907,-0.50692 -1.33579,-0.79569 0.870445,-3.90176 1.929844,-7.74048 3.231968,-11.48544 v 0 l 0.121912,0.29061 c 0.242894,0.45921 0.660472,0.78988 1.092372,1.07294 0.411507,0.27543 0.843441,0.5259 1.289493,0.74213 v 0 0 c -1.403898,3.47528 -2.510354,7.0634 -3.313468,10.72803 m 5.668482,-15.89028 v 0 c -0.620838,-0.45109 -1.174565,-0.99841 -1.491299,-1.68697 -0.290594,-0.61394 -0.371384,-1.29485 -0.438613,-1.96427 -0.02164,-0.17402 -0.03247,-0.35023 -0.04887,-0.52589 1.113169,-2.46925 2.361726,-4.89257 3.745334,-7.24705 -0.02705,0.22934 -0.05428,0.45325 -0.0673,0.67516 -0.101452,1.78834 0.626976,3.3873 1.774571,4.75677 v 0 0 c -0.479819,0.72297 -0.938333,1.45745 -1.383777,2.19957 -0.741735,1.24318 -1.436633,2.50362 -2.091136,3.79273 m 6.173495,-9.82527 v 0 c -1.282054,-0.91615 -2.46257,-1.93559 -3.474913,-3.13671 1.592075,-2.570576 3.374069,-5.039824 5.418148,-7.273773 v 0 c 0.243435,1.983413 0.985559,3.920903 2.045009,5.667173 v 0 0 c -1.40388,1.51861 -2.733008,3.10418 -3.988244,4.74331 m 5.837366,-6.665568 v 0 c -0.891276,-1.782538 -1.430834,-3.811871 -1.849122,-5.829712 1.727294,-1.625743 3.59652,-3.090842 5.566759,-4.414381 v 0 c 0.134424,1.721381 0.262948,3.448457 0.398488,5.175585 0.03247,0.391987 0.0607,0.784191 0.107878,1.182034 v 0 0 c -1.46455,1.233648 -2.874349,2.530404 -4.22353,3.886474 m 7.75884,-6.659824 v 0 c -0.154546,-2.03123 0.05478,-4.150455 0.364349,-6.227553 v 0 c 1.862716,-1.006046 3.785678,-1.916508 5.742525,-2.746567 -0.0607,0.768902 -0.05428,1.551142 -0.04887,2.320043 0.01014,0.870234 0.02705,1.748166 0.08725,2.626043 v 0 0 c -2.12568,1.220258 -4.176438,2.562936 -6.147421,4.028034 m 21.288698,-3.982111 c -1.78125,-1.287216 -2.59775,-3.771752 -1.92313,-5.869941 -0.38384,0.122521 -0.76874,0.242891 -1.15351,0.378975 v 0 c -0.23639,-1.323539 -0.30307,-2.679608 -0.20928,-4.014642 v 0 h 0.005 c 0.39144,-0.183794 0.76294,-0.391988 1.12673,-0.621595 1.0391,-0.654126 1.95739,-1.465099 2.82783,-2.327688 -0.29059,1.248936 0.128,2.637537 0.74864,3.798534 0.53348,0.998401 1.20821,1.916454 1.76096,2.895718 v 0 0 c -1.18047,1.847652 -2.25997,3.764105 -3.18497,5.760909 m -11.49745,-2.010245 v 0 c 0.0607,-1.505274 0.20928,-3.037276 0.22933,-4.548297 v 0 c 1.27534,-0.478193 2.56407,-0.931445 3.84614,-1.361763 l 0.35783,-0.122538 c -0.12192,1.315895 -0.0433,2.645181 0.22933,3.934292 v 0 0 c -1.57928,0.640734 -3.13784,1.342678 -4.66263,2.098189 v 0 m 16.36266,-6.254337 v 0 c -0.61411,-0.57383 -1.3224,-1.073002 -1.92985,-1.660226 -0.83678,-0.803274 -1.49106,-1.809321 -1.89618,-2.895715 0.30418,-0.31012 0.60745,-0.619698 0.91079,-0.937192 0.91828,-0.950581 1.83578,-1.908809 2.75325,-2.861344 -0.19573,1.025185 -0.0808,2.071406 0.46518,2.976066 0.51343,0.856897 1.34343,1.478493 2.018,2.212966 v 0 0 c -0.79645,1.038576 -1.57868,2.092443 -2.3214,3.165445 m 3.82608,-5.101036 v 0 c -0.24941,-0.370844 -0.49879,-0.742119 -0.72163,-1.128469 -0.74938,-1.287214 -1.17455,-2.752314 -1.24168,-4.236496 0.68797,-0.70959 1.36942,-1.423029 2.05071,-2.132617 v 0 c 0.56044,1.660172 1.23499,3.285915 2.01805,4.852399 v 0 0 c -0.70233,0.87598 -1.41056,1.759605 -2.10545,2.645183"
       style="fill:#a89683;fill-opacity:1;fill-rule:nonzero;stroke:none;stroke-width:0.191265"
       id="path784" />
    <path
       d="m 121.78679,76.015478 v 0 c -0.67456,-0.734474 -1.50468,-1.35607 -2.01801,-2.212965 -0.54607,-0.904661 -0.66121,-1.950882 -0.46517,-2.976066 v 0 -0.0054 c 0.68128,-0.701944 1.35667,-1.403834 2.02478,-2.105779 v 0 c 0.0673,1.484184 0.49228,2.949284 1.24168,4.236498 0.22282,0.386566 0.47222,0.757408 0.72161,1.128467 v 0 0 c -0.50584,0.640734 -1.01232,1.281468 -1.50467,1.935593"
       style="fill:#595958;fill-opacity:1;fill-rule:nonzero;stroke:none;stroke-width:0.191265"
       id="path786" />
    <path
       d="m 117.78515,81.684545 v 0 c -0.55273,-0.979264 -1.2275,-1.897315 -1.76096,-2.895718 -0.62082,-1.160997 -1.03916,-2.549596 -0.74861,-3.798534 v 0 l 0.36379,-0.365421 v 0 c 0.40499,1.086396 1.0594,2.092442 1.89617,2.895718 0.60745,0.587221 1.31574,1.086394 1.92985,1.660225 v 0 0 c -0.58044,0.822414 -1.14012,1.652526 -1.68024,2.503621"
       style="fill:#595958;fill-opacity:1;fill-rule:nonzero;stroke:none;stroke-width:0.191265"
       id="path788" />
    <path
       d="m 107.76536,83.337072 v 0 c -0.27054,-1.289113 -0.35133,-2.618399 -0.22933,-3.934294 v 0 c 1.28205,-0.424517 2.571,-0.862589 3.77825,-1.463202 -0.0938,1.335034 -0.027,2.691104 0.20928,4.014643 v 0 0 c -1.26792,0.416927 -2.5232,0.883678 -3.7582,1.382853"
       style="fill:#595958;fill-opacity:1;fill-rule:nonzero;stroke:none;stroke-width:0.191265"
       id="path790" />
    <path
       d="m 99.458916,87.399534 v 0 c -0.0607,-0.877879 -0.07423,-1.755811 -0.08725,-2.626044 -0.0051,-0.768902 -0.01015,-1.551141 0.04887,-2.320043 v 0 c 1.288734,-0.554692 2.597734,-1.073004 3.913474,-1.566485 -0.0216,1.511021 -0.16858,3.043024 -0.22935,4.548298 v 0 c -1.23517,0.613951 -2.44913,1.268076 -3.643797,1.964274"
       style="fill:#595958;fill-opacity:1;fill-rule:nonzero;stroke:none;stroke-width:0.191265"
       id="path792" />
    <path
       d="m 89.776185,94.200917 v 0 c -0.04887,-0.39795 -0.07423,-0.789939 -0.107878,-1.182033 -0.134932,-1.72713 -0.26403,-3.454205 -0.398488,-5.175587 1.416461,-0.950582 2.894419,-1.828514 4.405755,-2.643284 -0.310106,2.077098 -0.518844,4.196323 -0.364333,6.227555 v 0 0 c -1.207232,0.875978 -2.387748,1.807477 -3.53531,2.773349"
       style="fill:#595958;fill-opacity:1;fill-rule:nonzero;stroke:none;stroke-width:0.191265"
       id="path794" />
    <path
       d="m 83.703534,100.00965 v 0 c -1.05945,-1.746271 -1.801355,-3.683761 -2.045009,-5.667173 0.344278,-0.384396 0.701577,-0.755511 1.066281,-1.12657 0.317715,-0.325301 0.647621,-0.640734 0.978728,-0.958227 v 0 c 0.418558,2.01784 0.957845,4.047173 1.849121,5.829711 v 0 0 c -0.628277,0.627397 -1.248557,1.268129 -1.849121,1.922259"
       style="fill:#595958;fill-opacity:1;fill-rule:nonzero;stroke:none;stroke-width:0.191265"
       id="path796" />
    <path
       d="m 77.016707,108.58592 v 0 c -1.147612,-1.36945 -1.876124,-2.96843 -1.774571,-4.75676 0.01691,-0.22174 0.03788,-0.44566 0.0673,-0.67516 v 0 l 0.189226,-0.32313 c 0.242877,-0.40554 0.48577,-0.80902 0.741887,-1.21451 v 0 c 1.012342,1.20112 2.192859,2.22055 3.474929,3.13671 v 0 0 c -0.944301,1.24325 -1.848411,2.52471 -2.698599,3.83295"
       style="fill:#595958;fill-opacity:1;fill-rule:nonzero;stroke:none;stroke-width:0.191265"
       id="path798" />
    <path
       d="m 71.186781,119.74047 v 0 c -0.446204,-0.21631 -0.877935,-0.4668 -1.289493,-0.74211 -0.432103,-0.28301 -0.84941,-0.61395 -1.092355,-1.07296 l -0.122081,-0.29059 c 0.850391,-2.45581 1.808236,-4.86574 2.881028,-7.2336 v 0 c 0.01015,0.17566 0.02705,0.35187 0.04887,0.52589 0.0673,0.66942 0.147951,1.35033 0.438612,1.96429 0.316633,0.68854 0.870444,1.23559 1.491282,1.68695 v 0 0 c -0.857813,1.68695 -1.646775,3.40832 -2.355013,5.16225"
       style="fill:#595958;fill-opacity:1;fill-rule:nonzero;stroke:none;stroke-width:0.191265"
       id="path800" />
    <path
       d="m 66.895363,136.03624 v 0 l -0.452714,-0.0433 c -0.755516,-0.0727 -1.5519,-0.16807 -2.239916,-0.45704 0.364349,-2.1536 0.776178,-4.2996 1.248405,-6.41693 v 0 c 0.432103,0.28897 0.890498,0.55848 1.335789,0.79568 0.357823,0.18922 0.722595,0.37681 1.086403,0.55274 v 0 0 c -0.405015,1.83615 -0.735242,3.69715 -0.977967,5.56774"
       style="fill:#595958;fill-opacity:1;fill-rule:nonzero;stroke:none;stroke-width:0.191265"
       id="path802" />
    <path
       d="m 66.301309,144.98933 v 0 c -1.119848,-0.0379 -2.24739,-0.0878 -3.367238,-0.14153 0.148628,-1.3771 0.310664,-2.7523 0.486312,-4.12177 v 0 c 0.93764,0.35784 1.942542,0.53945 2.981871,0.6197 v 0 0 c -0.0673,1.21451 -0.100776,2.42908 -0.100776,3.64358"
       style="fill:#595958;fill-opacity:1;fill-rule:nonzero;stroke:none;stroke-width:0.191265"
       id="path804" />
    <path
       d="m 67.07096,154.87581 c -0.324208,-0.0271 -0.655314,-0.0612 -0.985593,-0.10145 -1.302124,-0.15675 -2.664916,-0.39957 -3.906592,-0.84346 0.0602,-1.00036 0.127999,-1.99875 0.202229,-2.98945 v 0 c 1.41668,0.33669 2.840632,0.61394 4.284096,0.81666 v 0 c 0.101452,1.04433 0.236925,2.0848 0.405539,3.11763"
       style="fill:#595958;fill-opacity:1;fill-rule:nonzero;stroke:none;stroke-width:0.191265"
       id="path806" />
    <path
       d="m 67.72548,160.04949 v 0 0 0 m 0.01015,-1.01178 c -1.248405,-0.51236 -2.544019,-0.87599 -3.867178,-1.11887 -0.343737,-0.0688 -0.70156,-0.12259 -1.051959,-0.17621 -0.27705,-0.038 -0.553558,-0.0749 -0.836779,-0.10145 0.0051,-0.19518 0.01015,-0.39199 0.02705,-0.59487 v 0 c 0.438612,0.0688 0.877174,0.15675 1.315735,0.25047 l 0.411491,0.0939 c 0.22935,0.0489 0.452173,0.10145 0.681506,0.15674 1.072792,0.24886 2.145633,0.4782 3.231968,0.68092 v 0 c 0.03788,0.26945 0.07474,0.53945 0.08843,0.80901"
       style="fill:#595958;fill-opacity:1;fill-rule:nonzero;stroke:none;stroke-width:0.191265"
       id="path808" />
    <path
       d="m 30.876295,163.16712 c 2.868229,-0.80901 5.776036,-1.47084 8.745163,-1.71948 1.182739,-0.0976 2.369163,-0.1302 3.556348,-0.1302 1.024967,0 2.050911,0.0271 3.077451,0.0489 1.025728,0.0216 2.052267,0.0433 3.077397,0.0433 0.954053,0 1.907293,-0.0216 2.85923,-0.0786 3.313456,-0.21036 6.73465,-0.95822 9.480238,-2.74657 l 0.269458,-0.17621 h 0.0051 c 0.0051,-0.25643 0.02164,-0.51233 0.03247,-0.76884 v 0 c 0.283018,0.0271 0.559628,0.0612 0.836779,0.10146 0.350247,0.0543 0.708239,0.10737 1.051977,0.1762 1.323158,0.2429 2.618772,0.6063 3.867178,1.11887 v 0 c 0.02705,0.34428 0.02705,0.68286 -0.01015,1.0118 v 0 0 h -0.0051 c -0.486329,0.26946 -0.972168,0.53349 -1.464516,0.78993 -1.444225,0.75551 -2.921946,1.43068 -4.466964,1.88202 v 0 0 c -0.499332,0.14373 -0.999002,0.26405 -1.504674,0.35784 v 0 c -9.804618,0.0271 -19.601803,0.0553 -29.406308,0.0878"
       style="fill:#595958;fill-opacity:1;fill-rule:nonzero;stroke:none;stroke-width:0.191265"
       id="path810" />
    <path
       d="m 133.72289,61.117852 v 0 c -0.24289,-0.127949 -0.48578,-0.264037 -0.72168,-0.413133 -0.82338,-0.504758 -1.58534,-1.092087 -2.28768,-1.746213 0.80311,-0.837757 1.60623,-1.66787 2.40956,-2.503676 v 0 c 0.47223,0.242893 0.93757,0.499337 1.40292,0.734475 0.41205,0.202771 0.85705,0.391987 1.309,0.533492 0.16858,0.05423 0.33777,0.107354 0.51344,0.141509 v 0 0 l -0.18218,0.223916 c -0.81665,1.011793 -1.63316,2.015943 -2.44316,3.029633 m 4.66952,-5.783843 v 0 c -0.24939,-0.175663 -0.51939,-0.323133 -0.7754,-0.432108 -0.7226,-0.301988 -1.47118,-0.558487 -2.22729,-0.761204 l -0.31012,-0.08782 c 0.55292,-1.011794 1.28873,-2.287514 2.13219,-3.651228 v 0 c 0.91084,0.824367 1.76789,1.721383 2.89442,2.180436 l 0.39144,0.133918 v 0 0 c -0.283,0.357829 -0.57383,0.709588 -0.85689,1.067256 -0.41856,0.518312 -0.83679,1.030931 -1.24855,1.551141 m 4.24451,-5.26358 v 0 c -1.38378,-0.444035 -2.44242,-1.543497 -3.59001,-2.509423 0.29005,-0.424517 0.58049,-0.843449 0.87044,-1.254683 v 0 c 1.00567,0.849197 2.11212,1.537749 3.39419,1.794087 0.27651,0.05421 0.55371,0.08782 0.83005,0.101384 v 0 c -0.50638,0.62165 -1.00566,1.248993 -1.50467,1.868689"
       style="fill:#a89683;fill-opacity:1;fill-rule:nonzero;stroke:none;stroke-width:0.191265"
       id="path812" />
    <path
       d="m 136.34833,57.864467 v 0 c -0.17565,-0.03253 -0.34426,-0.08782 -0.51342,-0.141509 -0.45217,-0.141509 -0.89724,-0.330723 -1.30902,-0.533494 -0.46518,-0.2353 -0.93089,-0.491745 -1.4029,-0.734475 0.50584,-0.525902 1.01156,-1.053865 1.51801,-1.579821 0.128,-0.248856 0.2765,-0.525902 0.43862,-0.822469 v 0 l 0.3101,0.08784 c 0.75611,0.202769 1.50469,0.459215 2.22729,0.761202 0.2559,0.108977 0.52591,0.256446 0.77542,0.432108 v 0 0 c -0.68802,0.843505 -1.36948,1.686954 -2.0441,2.530458"
       style="fill:#595958;fill-opacity:1;fill-rule:nonzero;stroke:none;stroke-width:0.191265"
       id="path814" />
    <path
       d="m 140.49787,52.715609 v 0 l -0.39144,-0.133917 c -1.12653,-0.459216 -1.98358,-1.35607 -2.89442,-2.180434 0.57324,-0.9238 1.18718,-1.889727 1.83502,-2.840308 v 0 c 1.14761,0.965924 2.20625,2.065658 3.59001,2.509423 v 0 0 c -0.71571,0.885521 -1.43083,1.761556 -2.13906,2.64518"
       style="fill:#595958;fill-opacity:1;fill-rule:nonzero;stroke:none;stroke-width:0.191265"
       id="path816" />
    <path
       d="m 146.42268,45.455226 v 0 c -0.68226,-0.323132 -1.36355,-0.640788 -2.05173,-0.963974 -0.75528,-0.35783 -1.52495,-0.715336 -2.32807,-0.944889 0.5874,-0.701945 1.17455,-1.329286 1.73418,-1.855244 0.2494,-0.236927 0.51994,-0.472227 0.80984,-0.709588 h 0.005 v 0 l 0.35784,0.05529 c 1.84168,0.200604 3.78491,0.443494 5.56692,0.985011 v 0 c -1.57278,0.856842 -2.88846,2.084797 -4.0957,3.433223"
       style="fill:#a89683;fill-opacity:1;fill-rule:nonzero;stroke:none;stroke-width:0.191265"
       id="path818" />
    <path
       d="m 170.26802,35.893884 c -0.71518,-0.208735 -1.44352,-0.363252 -2.19285,-0.485783 -0.76967,-0.120356 -1.53834,-0.200601 -2.32064,-0.256444 h -0.0169 v 0 c -0.28302,-0.05421 -0.56635,-0.101385 -0.85035,-0.155053 h -0.005 c -1.00492,-0.160481 -2.01724,-0.309579 -3.02964,-0.432108 -0.80311,-0.101384 -1.60546,-0.181626 -2.40858,-0.248856 0.62084,-0.985009 1.26178,-1.956628 1.92968,-2.909161 0.72256,0.0054 1.44422,0.0271 2.15934,0.08241 0.84351,0.05423 1.68697,0.147478 2.51707,0.269457 0.44512,0.06723 0.89052,0.141509 1.32908,0.229338 0.88383,0.168073 1.75429,0.376806 2.61112,0.633089 0.10078,1.09404 0.18922,2.180381 0.27651,3.272523"
       style="fill:#ffffff;fill-opacity:1;fill-rule:nonzero;stroke:none;stroke-width:0.191265"
       id="path820" />
    <path
       d="m 161.59757,39.956346 v 0 c 0.22934,-0.269457 0.49228,-0.512348 0.80317,-0.721083 0.37138,-0.250482 0.77611,-0.439698 1.18713,-0.61395 h 0.005 c 0.53945,-0.229337 1.07874,-0.453253 1.55765,-0.784192 0.85113,-0.587167 1.44427,-1.815069 0.8301,-2.645181 l -0.22879,-0.03796 h -0.0169 v 0 0 h 0.0169 c 0.78229,0.05529 1.55098,0.135541 2.32063,0.256445 0.74933,0.122537 1.47769,0.27759 2.19285,0.485782 v 0 c 0.31067,0.09542 0.62084,0.196806 0.93161,0.311747 0.39143,0.133917 0.7754,0.296565 1.15351,0.472227 l 0.36433,0.174036 c 1.03267,0.525902 1.87613,0.931444 2.61135,1.310147 0.43158,0.221748 0.8299,0.445662 1.20135,0.673265 -1.3635,0.101385 -2.71956,0.20277 -4.07564,0.311747 -0.002,0 -0.003,0 -0.003,0 -0.0101,-0.06126 -0.0169,-0.124161 -0.0216,-0.187591 -0.17729,-0.0862 -0.35187,-0.124161 -0.52427,-0.124161 -0.37084,0 -0.72933,0.176204 -1.07665,0.432108 l -0.33234,0.02168 c -0.49338,0.03253 -0.9856,0.07482 -1.47198,0.114945 -0.39741,0.02711 -0.79569,0.05421 -1.18718,0.08782 h -0.005 c -1.55168,0.114946 -3.09004,0.229337 -4.63511,0.350241 h -0.005 c -0.5335,0.03253 -1.05945,0.07482 -1.59288,0.114945 v 0"
       style="fill:#a89683;fill-opacity:1;fill-rule:nonzero;stroke:none;stroke-width:0.191265"
       id="path822" />
    <path
       d="m 144.14161,48.201738 v 0 c -0.27651,-0.01082 -0.55371,-0.0488 -0.83005,-0.101385 -1.28207,-0.256444 -2.38852,-0.94489 -3.39419,-1.794087 0.70232,-0.979262 1.41728,-1.924098 2.12551,-2.759957 v 0 c 0.80312,0.229336 1.57279,0.587221 2.32807,0.944888 0.68818,0.323133 1.36947,0.640735 2.05173,0.963975 v 0 0 c -0.66199,0.742065 -1.29644,1.526256 -1.91728,2.295159 l -0.36379,0.451082"
       style="fill:#595958;fill-opacity:1;fill-rule:nonzero;stroke:none;stroke-width:0.191265"
       id="path824" />
    <path
       d="m 150.51837,42.022004 v 0 c -1.782,-0.541082 -3.72523,-0.784191 -5.56691,-0.985009 l -0.35784,-0.05531 c 2.38184,-1.983412 6.06599,-4.081601 11.20108,-5.167995 0.95839,-0.202771 1.96329,-0.370842 3.02274,-0.493373 h 0.005 c 0.20223,-0.336686 0.405,-0.673263 0.61394,-1.004148 h 0.005 v 0 c 0.80312,0.06669 1.60547,0.147478 2.40859,0.248854 1.01239,0.122537 2.02471,0.271627 3.02963,0.432107 h 0.005 c 0.2841,0.05421 0.56705,0.101385 0.85034,0.155053 v 0 0 h 0.0169 l 0.2288,0.03796 c 0.61417,0.830112 0.0216,2.058014 -0.83012,2.645181 -0.47872,0.330722 -1.01829,0.554691 -1.55763,0.784192 h -0.005 c -0.41096,0.174035 -0.81591,0.363252 -1.18712,0.613951 -0.31067,0.208192 -0.57383,0.451625 -0.80317,0.721082 v 0 c -0.7419,0.05421 -1.4913,0.114946 -2.2332,0.168073 l -0.35131,0.02711 c -0.97873,0.06885 -1.97024,0.141509 -2.95563,0.271627 -0.76218,0.09379 -1.52497,0.214156 -2.26685,0.39036 -1.09383,0.256446 -2.15247,0.614005 -3.14459,1.134215 l -0.128,0.07482"
       style="fill:#595958;fill-opacity:1;fill-rule:nonzero;stroke:none;stroke-width:0.191265"
       id="path826" />
    <path
       d="m 170.83051,39.267792 c 0.34754,-0.256444 0.70595,-0.432107 1.07664,-0.432107 0.17241,0 0.34753,0.03796 0.52428,0.124161 0.003,0.06288 0.0101,0.126325 0.0216,0.187588 -0.53892,0.03253 -1.07741,0.07482 -1.6162,0.120357 h -0.005"
       style="fill:#595958;fill-opacity:1;fill-rule:nonzero;stroke:none;stroke-width:0.191265"
       id="path828" />
    <path
       d="m 170.49812,39.288829 -0.0169,0.261867 c -0.0101,0.216325 -0.038,0.432107 -0.10078,0.642631 -0.15505,0.571879 -0.49229,1.086396 -0.83011,1.585623 -0.33668,0.499336 -0.69484,1.011794 -1.0795,1.503322 -1.09307,1.40389 -2.39536,2.645181 -4.05537,2.962675 l -0.405,0.06126 c -1.23424,0.120357 -2.42886,-0.310119 -3.57571,-0.830058 -0.27649,-0.127948 -0.55349,-0.264036 -0.83005,-0.397952 l -1.03244,-0.506927 c -1.06613,-0.525902 -2.13241,-1.04622 -3.20525,-1.572176 0.10838,-0.889372 0.35783,-1.748165 0.68818,-2.576327 0.39849,-0.992654 0.91809,-1.943292 1.44406,-2.874734 0.42506,-0.749764 0.86373,-1.491829 1.31573,-2.228202 h 0.005 c 0.20223,-0.336685 0.405,-0.673263 0.61394,-1.004148 h 0.005 c 0.62083,-0.98501 1.26178,-1.956627 1.92967,-2.909162 1.56529,-2.266478 3.25226,-4.446912 5.04688,-6.537402 0.3779,-0.439698 0.83678,-0.897017 1.34344,-1.139963 0.31663,-0.156693 0.6545,-0.229337 1.01239,-0.156693 0.57302,2.997102 0.93757,6.01909 1.2139,9.048724 0.10196,1.09404 0.18923,2.18038 0.27651,3.272523 0.0543,0.770799 0.11498,1.545393 0.16858,2.314296 l 0.0169,0.176204 c 0.0271,0.296566 0.0489,0.600559 0.0489,0.904661"
       style="fill:#99846d;fill-opacity:1;fill-rule:nonzero;stroke:none;stroke-width:0.191265"
       id="path830" />
    <path
       d="m 167.7651,23.729433 c -0.0884,0.181625 -0.18216,0.357831 -0.27705,0.531866 -1.31552,2.409935 -2.63813,4.825563 -3.95363,7.227853 -0.33725,0.613951 -0.66807,1.220256 -1.00568,1.834261 -0.22283,0.410963 -0.45216,0.824312 -0.67478,1.241293 -0.0944,0.183794 -0.18921,0.357831 -0.28302,0.541083 -0.85705,1.625797 -1.65349,3.299361 -2.20623,5.018791 -0.47277,1.451708 -0.77633,2.941694 -0.78972,4.446914 0,0.485781 0.0216,0.971617 0.0808,1.465098 -0.34374,-0.675162 -1.19391,-0.870233 -1.90237,-1.160997 -1.62628,-0.680909 -2.73295,-2.327689 -2.96229,-4.062462 -0.10838,-0.835805 -0.0216,-1.692648 0.31662,-2.469193 0.31771,-0.742119 0.81672,-1.390498 1.30902,-2.036979 l 0.37788,-0.493371 c 0.9584,-0.202772 1.9633,-0.370844 3.02275,-0.493373 h 0.005 c 0.20222,-0.336687 0.40499,-0.673264 0.61394,-1.004149 h 0.005 c 0.62084,-0.985011 1.26178,-1.956629 1.92967,-2.909163 1.56529,-2.266478 3.25226,-4.446912 5.04689,-6.537403 0.37789,-0.439698 0.83677,-0.897016 1.34343,-1.139961"
       style="fill:#3c3c3b;fill-opacity:1;fill-rule:nonzero;stroke:none;stroke-width:0.191265"
       id="path832" />
    <path
       d="m 168.08493,36.20563 c -0.0379,-0.466806 0.78436,-0.514517 0.99131,-0.09379 0.20709,0.419095 -0.005,0.916154 -0.21525,1.33498 -0.42669,0.849251 -0.85322,1.698448 -1.27974,2.549596 -0.71055,1.413431 -1.43907,2.853645 -2.54476,3.985962 -0.41694,0.426687 -0.98925,0.830059 -1.56377,0.671312 -0.77255,-0.212529 -0.94354,-1.229799 -0.86894,-2.027382 0.15776,-1.698448 0.73903,-3.326088 1.31573,-4.930796 1.30228,-3.624499 2.60366,-7.248944 3.90523,-10.873443 -0.38385,2.327743 -0.52373,4.697503 -0.4153,7.053871 0.0216,-0.378975 0.29223,-0.732575 0.65298,-0.853045 0.005,1.061509 0.0169,2.121122 0.0216,3.182631"
       style="fill:#3c3c3b;fill-opacity:1;fill-rule:nonzero;stroke:none;stroke-width:0.191265"
       id="path834" />
  </g>
</svg>
