<?xml version="1.0" encoding="UTF-8" standalone="no"?>
<!-- Created with Inkscape (http://www.inkscape.org/) -->

<svg
   width="210mm"
   height="130mm"
   viewBox="0 0 210 130"
   version="1.1"
   id="svg8621"
   inkscape:version="1.2.1 (9c6d41e410, 2022-07-14)"
   sodipodi:docname="koorat.svg"
   xmlns:inkscape="http://www.inkscape.org/namespaces/inkscape"
   xmlns:sodipodi="http://sodipodi.sourceforge.net/DTD/sodipodi-0.dtd"
   xmlns="http://www.w3.org/2000/svg"
   xmlns:svg="http://www.w3.org/2000/svg">
  <sodipodi:namedview
     id="namedview8623"
     pagecolor="#ffffff"
     bordercolor="#000000"
     borderopacity="0.25"
     inkscape:showpageshadow="2"
     inkscape:pageopacity="0.0"
     inkscape:pagecheckerboard="0"
     inkscape:deskcolor="#d1d1d1"
     inkscape:document-units="mm"
     showgrid="false"
     inkscape:zoom="0.49085999"
     inkscape:cx="143.62548"
     inkscape:cy="399.2992"
     inkscape:window-width="1366"
     inkscape:window-height="705"
     inkscape:window-x="-8"
     inkscape:window-y="-8"
     inkscape:window-maximized="1"
     inkscape:current-layer="layer1" />
  <defs
     id="defs8618" />
  <g
     inkscape:label="Layer 1"
     inkscape:groupmode="layer"
     id="layer1">
    <g
       id="g8941"
       transform="translate(-0.91741795,13.184537)">
      <path
         d="m 12.319504,81.711116 h 37.33 c -0.210552,-2.398238 -0.616539,-4.778666 -1.23073,-7.106231 -0.228062,-0.862917 -0.539501,-1.795474 -1.300018,-2.264283 -0.873489,-0.536352 -1.998759,-0.261651 -2.9763,0.04594 -6.891151,2.171639 -13.856989,5.288387 -21.026582,4.39471 -2.047851,-0.254993 -4.069394,-0.838482 -6.132395,-0.7752 -2.062411,0.06324 -4.28043,0.95829 -5.152508,2.828931 -0.336691,0.72257 -0.434397,1.608856 -0.03619,2.299636 0.136218,0.236018 0.319208,0.42024 0.524704,0.576664"
         style="fill:#706f6f;fill-opacity:1;fill-rule:nonzero;stroke:none;stroke-width:0.117436"
         id="path12" />
      <path
         d="m 39.022478,28.596925 c -0.396818,0.406458 -0.903673,0.67763 -1.401835,0.940913 -1.604646,0.853763 -3.208941,1.7014 -4.81359,2.554231 L 32.488678,30.865902 29.533047,19.555773 c -0.1752,-0.669741 0.5395,-1.232158 1.134551,-0.890413 1.853726,1.060554 3.444164,2.577598 4.988686,4.085489 l 0.005,0.0066 0.179328,0.176098 c 0.871609,0.852798 1.73864,1.710222 2.610252,2.563851 l 0.221139,0.216045 c 0.21185,0.207723 0.433456,0.428529 0.604091,0.673036 0.142676,0.203064 0.253662,0.429794 0.299568,0.673836 0.101335,0.557823 -0.161485,1.129861 -0.553243,1.534888"
         style="fill:#878787;fill-opacity:1;fill-rule:nonzero;stroke:none;stroke-width:0.117436"
         id="path14" />
      <path
         d="m 58.679285,34.877524 c -0.281625,0.79271 -0.609258,1.572471 -0.972957,2.33359 -0.27247,0.557823 -0.57203,1.120207 -1.028506,1.544042 -0.461055,0.419375 -1.106482,0.682191 -1.710574,0.539048 -0.844131,-0.198735 -1.318926,-1.060586 -1.696952,-1.834489 -0.765567,-1.581758 -1.53078,-3.15879 -2.296347,-4.740549 -0.424414,-0.871605 -0.857401,-1.862419 -0.534921,-2.775368 0.198237,-0.545008 0.636739,-0.963783 1.060567,-1.365648 0.322937,-0.304261 0.645427,-0.603629 0.968376,-0.90779 0.156892,-0.147803 0.31791,-0.299601 0.479375,-0.447304 1.323506,-1.24494 2.65159,-2.489549 3.979557,-3.73459 0.368869,-0.350899 0.737618,-0.696272 1.106482,-1.04271 0.258256,-0.244675 0.567452,-0.501332 0.922109,-0.474335 0.553126,0.04561 0.783889,0.724335 0.866915,1.273003 0.581308,3.891482 0.175333,7.92564 -1.143124,11.6331"
         style="fill:#878787;fill-opacity:1;fill-rule:nonzero;stroke:none;stroke-width:0.117436"
         id="path16" />
      <path
         d="m 144.5717,80.861981 c -0.1069,0.35556 -0.30425,0.631691 -0.5672,0.849135 H 42.854298 c -1.023922,-1.043143 -1.835407,-2.310154 -2.471676,-3.657027 -0.244507,-0.507324 -0.456475,-1.023935 -0.650007,-1.544509 -0.290413,-0.793642 -0.539501,-1.590913 -0.746778,-2.402398 -0.770264,-2.978165 -1.010184,-6.063587 -0.968376,-9.1802 0.05496,-3.554797 0.474794,-7.142583 0.903669,-10.660629 0.02763,-0.221039 0.05556,-0.438049 0.08303,-0.659154 0.06011,-0.424767 0.119674,-0.848603 0.202697,-1.267977 0.08772,-0.443077 0.189081,-0.88076 0.327629,-1.305061 0.211852,-0.664682 0.507324,-1.296373 0.926573,-1.854196 l 0.08762,-0.119841 c 1.217461,-1.544076 3.011178,-2.130294 4.998434,-2.396872 h 0.0046 c 3.790013,-0.507325 8.295334,0.132489 10.89995,-2.577632 0.230758,0.579793 0.466102,1.166145 0.714714,1.756958 0.982117,2.336754 2.125831,4.66575 3.610691,6.652535 0.414785,0.554195 0.85282,1.079463 1.332665,1.572572 1.00044,1.060587 2.148729,1.964715 3.476227,2.646906 4.071745,2.09411 8.97799,1.613817 13.422594,0.526232 4.445191,-1.088615 8.816046,-2.740148 13.394641,-2.859789 8.691675,-0.225366 16.474995,5.040583 24.871665,7.299806 7.52062,2.023537 16.29544,1.968478 21.72216,7.55267 1.52196,1.567411 2.62822,3.448737 3.55479,5.436022 l 0.10589,0.239348 c 0.58602,1.273004 1.09804,2.582659 1.60067,3.882659 0.10083,0.267644 0.20672,0.544542 0.27596,0.825335 0.11618,0.414681 0.15747,0.839914 0.0376,1.24494"
         style="fill:#878787;fill-opacity:1;fill-rule:nonzero;stroke:none;stroke-width:0.117436"
         id="path18" />
      <path
         d="m 200.29981,81.711116 h -65.99203 c 0.26306,-2.762053 1.3787,-5.440983 3.17195,-7.563188 l 0.78917,0.08356 c 1.21665,0.134154 2.43447,0.258322 3.6558,0.373469 0.20772,0.02331 0.41924,0.04594 0.6271,0.06458 3.99282,0.377897 7.99974,0.700834 12.01136,0.991247 14.59379,1.06012 29.27565,1.706026 43.75786,3.292811 0.51674,0.05493 1.71105,0.761087 1.93652,1.525269 0.0976,0.304261 0.0333,0.614281 -0.28063,0.899633 -0.11051,0.100863 0.22537,0.207725 0.3229,0.332558"
         style="fill:#878787;fill-opacity:1;fill-rule:nonzero;stroke:none;stroke-width:0.117436"
         id="path20" />
      <path
         d="m 100.31038,81.596003 h 33.69911 c -0.77037,-1.335421 -2.04221,-2.385388 -3.44791,-3.057026 -1.80266,-0.860554 -3.80963,-1.182558 -5.79314,-1.416147 -3.5219,-0.415613 -7.06848,-0.587184 -10.61152,-0.757357 -3.36102,-0.163449 -6.72286,-0.325566 -10.08495,-0.487584 -1.63623,-0.0799 -3.5455,-0.03862 -4.5423,1.261486 -0.968024,1.263383 -0.508736,3.20473 0.6257,4.321275 l 0.15502,0.135486"
         style="fill:#878787;fill-opacity:1;fill-rule:nonzero;stroke:none;stroke-width:0.117436"
         id="path22" />
      <path
         d="m 38.984428,74.107182 c -0.768855,-2.979464 -1.010656,-6.065917 -0.966967,-9.1802 -0.0418,3.116613 0.198103,6.200736 0.967907,9.178801 -4.7e-4,0 -4.7e-4,0 -9.4e-4,0.0014 m -0.06331,-19.840829 c 0.01964,-0.158788 0.03944,-0.318242 0.06012,-0.477963 -0.01964,0.158455 -0.03992,0.316912 -0.06012,0.477963"
         style="fill:#d2d2d1;fill-opacity:1;fill-rule:nonzero;stroke:none;stroke-width:0.117436"
         id="path24" />
      <path
         d="m 41.703309,80.32989 c -0.830274,-1.162518 -1.478051,-2.481327 -1.970694,-3.82031 -0.291711,-0.79271 -0.539501,-1.593276 -0.748187,-2.402398 4.7e-4,-0.0013 4.7e-4,-0.0013 9.4e-4,-0.0013 0,0.0013 0,0.0013 4.69e-4,0.0013 0.20729,0.811485 0.456359,1.608756 0.746778,2.402398 0.193542,0.520574 0.405506,1.037185 0.650007,1.544509 0.376618,0.796339 0.814302,1.565182 1.320687,2.275801"
         style="fill:#5f5f5e;fill-opacity:1;fill-rule:nonzero;stroke:none;stroke-width:0.117436"
         id="path26" />
      <path
         d="M 122.96698,81.711116 H 42.854298 v 0 C 42.436815,81.284485 42.053855,80.822067 41.703309,80.32989 41.196924,79.619271 40.75924,78.850428 40.382622,78.054089 40.138115,77.546765 39.926147,77.030154 39.732615,76.50958 c -0.290413,-0.793642 -0.539501,-1.590913 -0.746778,-2.402398 -4.69e-4,0 -4.69e-4,0 -4.69e-4,-0.0013 -0.769795,-2.978065 -1.009715,-6.062188 -0.967907,-9.178802 v 0 c 0.05496,-3.554797 0.474794,-7.142582 0.903669,-10.660628 v 0 c 0.02031,-0.161119 0.04041,-0.319575 0.06012,-0.477963 0.0077,-0.06025 0.01564,-0.118841 0.02397,-0.178429 0.661519,-0.229361 1.168371,-0.669841 1.587618,-1.16518 2.055601,-0.05193 3.981907,-1.033556 5.4892,-2.858425 0,0 6.851692,-0.456924 8.746757,-1.618377 0.682187,-0.419375 1.534419,-1.202431 2.33592,-2.124402 0.98353,2.339549 2.127123,4.665716 3.612454,6.65157 -1.434013,-0.893576 -2.605085,-2.752832 -4.334568,-2.872606 -0.06059,-0.0032 -0.121072,-0.0066 -0.180725,-0.0066 -1.633537,0 -2.864387,1.539914 -4.30568,2.375733 -1.867468,1.084023 -4.209846,0.987618 -6.183244,1.873437 -1.946034,0.87114 -3.365838,2.628098 -4.366275,4.509425 -1.000557,1.880294 -1.651033,3.928132 -2.517596,5.878633 -0.10183,0.2257 -0.212316,0.455992 -0.33209,0.677597 0.854698,4.657528 2.417069,10.097145 4.168159,10.097145 0.119208,0 0.238982,-0.02664 0.359587,-0.07757 1.093683,-0.471971 2.266165,-0.648137 3.481395,-0.648137 1.805581,0 3.706049,0.388948 5.587844,0.778862 1.88168,0.389514 3.744098,0.778462 5.472641,0.778462 0.12247,0 0.244508,-0.0014 0.365576,-0.0066 1.747335,-0.06025 6.482945,-1.314348 7.962756,-2.240581 1.480401,-0.931626 2.388651,-3.011054 1.448223,-4.486389 1.492731,0.754163 3.124973,0.955094 4.808068,0.955094 0.961921,0 1.940397,-0.06591 2.919815,-0.131824 0.978477,-0.06558 1.957894,-0.131491 2.921225,-0.131491 1.636236,0 3.226673,0.189081 4.690982,0.888982 3.264843,1.559655 5.017229,5.26585 8.157236,7.064953 0.461055,0.264314 0.891333,0.372503 1.303774,0.372503 1.71104,0 3.127561,-1.871107 5.289675,-2.29128 1.318809,-0.255992 12.785383,-2.595575 14.611523,-2.595575 0.0447,0 0.0834,0.0014 0.11627,0.0066 v 0 c 2.32641,1.337684 4.76674,2.471674 7.28809,3.390016 -1.78268,-0.11751 -3.56771,-0.203062 -5.35274,-0.288615 -3.36102,-0.163449 -6.72286,-0.325567 -10.08494,-0.487584 -0.29218,-0.01331 -0.59353,-0.02331 -0.89674,-0.02331 -1.39279,0 -2.82727,0.217377 -3.645577,1.286286 -0.968024,1.263384 -0.508735,3.20473 0.625707,4.321276 l 0.15502,0.135486 h 22.79047 c -0.0458,0.03762 -0.0904,0.07523 -0.13389,0.115179"
         style="fill:#727271;fill-opacity:1;fill-rule:nonzero;stroke:none;stroke-width:0.117436"
         id="path28" />
      <path
         d="m 123.10085,81.596003 h -22.79047 l -0.15502,-0.135486 c -1.134437,-1.116546 -1.593726,-3.057892 -0.625702,-4.321276 0.818302,-1.068909 2.252782,-1.286286 3.645572,-1.286286 0.30323,0 0.60455,0.01002 0.89674,0.02331 3.36208,0.162118 6.72392,0.324235 10.08494,0.487584 1.78503,0.08522 3.57006,0.171105 5.35274,0.288615 2.13264,0.778962 4.32165,1.402431 6.54471,1.862419 0.7011,0.341844 1.2918,0.656924 1.72162,0.929028 -1.61593,0.422904 -3.19309,0.989048 -4.50133,2.00829 -0.0587,0.04594 -0.11628,0.09255 -0.1738,0.142145"
         style="fill:#727271;fill-opacity:1;fill-rule:nonzero;stroke:none;stroke-width:0.117436"
         id="path30" />
      <path
         d="m 40.381684,81.711116 h 46.276282 c 2.420709,-6.917282 -4.980464,-10.253637 -8.069152,-13.372514 -0.628049,-0.634022 -10.882099,1.050001 -11.642615,0.582491 -0.873019,-0.536685 4.205622,4.873605 3.228085,5.181029 -6.891151,2.171639 -11.82711,3.572639 -18.996699,2.678963 -2.047735,-0.254993 -4.069398,-0.838482 -6.131926,-0.7752 -2.062416,0.06458 -4.280899,0.95829 -5.152511,2.828931 -0.337158,0.72257 -0.434394,1.608856 -0.03665,2.299636 0.136219,0.236018 0.319175,0.42024 0.525174,0.576664"
         style="fill:#878787;fill-opacity:1;fill-rule:nonzero;stroke:none;stroke-width:0.117436"
         id="path32" />
      <path
         d="m 200.29981,81.711116 h -60.4103 c 0.0299,-0.01002 0.06,-0.01664 0.0892,-0.02664 1.0957,-0.315579 2.38279,-0.883123 2.55426,-1.980794 0.66702,-0.03329 1.33406,-0.06091 2.00111,-0.08721 2.98052,-0.117511 5.96338,-0.162117 8.94627,-0.162117 4.77494,0 9.55224,0.11518 14.32605,0.231025 6.03502,0.148136 12.07124,0.29494 18.10158,0.442743 4.7503,0.11518 9.4994,0.23036 14.25324,0.345373 l 0.0962,0.0034 c 0.0267,0.08589 0.0423,0.171439 0.0423,0.257324 -0.001,0.219708 -0.0976,0.436685 -0.32291,0.642211 -0.0167,0.01331 -0.0233,0.02996 -0.0233,0.04228 -0.001,0.08821 0.26065,0.182091 0.34524,0.29028"
         style="fill:#727271;fill-opacity:1;fill-rule:nonzero;stroke:none;stroke-width:0.117436"
         id="path34" />
      <path
         d="m 134.9666,72.463905 c -1.49497,-0.40729 -3.07448,-0.322903 -4.62228,-0.233356 -6.04091,0.344075 -12.08183,0.68815 -18.12392,1.032124 5.25291,3.021741 11.09889,5.007595 17.10457,5.812156 -2.13264,0.479029 -4.32635,1.03542 -6.05031,2.37903 -1.72279,1.343643 -2.85604,3.690083 -2.14321,5.755764 1.33877,0.941778 3.22128,1.040413 4.65165,0.244008 0.83614,0.937184 2.38982,0.813782 3.46906,0.171438 1.08041,-0.643609 1.86253,-1.674835 2.80908,-2.500102 2.18782,-1.908357 5.12843,-2.636819 7.91752,-3.44005 1.13446,-0.326232 2.47557,-0.923868 2.56834,-2.100567 0.0622,-0.789414 -0.49441,-1.478996 -1.01701,-2.073004 -1.85077,-2.10423 -3.86012,-4.311189 -6.56349,-5.047508"
         style="fill:#878787;fill-opacity:1;fill-rule:nonzero;stroke:none;stroke-width:0.117436"
         id="path36" />
      <path
         d="m 41.085006,51.797477 c 0.403629,-0.578929 0.783067,-1.285786 0.409618,-1.876267 -0.211984,-0.336218 -0.6257,-0.554527 -1.032614,-0.739847 -1.956956,-0.896373 -4.184601,-1.409222 -6.436087,-1.48086 -0.86785,-0.02996 -1.938634,0.118509 -2.222126,0.777065 -0.281624,0.655525 0.420304,1.282657 0.88359,1.86618 0.311917,0.392243 0.529873,0.828029 0.824753,1.229428 0.712015,0.966511 1.883088,1.711053 3.219394,2.043643 0.664807,0.165446 1.391383,0.231358 2.05337,0.05959 1.066556,-0.276964 1.752382,-1.094042 2.300102,-1.878996"
         style="fill:#706f6f;fill-opacity:1;fill-rule:nonzero;stroke:none;stroke-width:0.117436"
         id="path38" />
      <path
         d="m 59.762399,41.517243 c -0.248736,1.199134 -1.369423,2.91841 -2.596044,4.325402 -0.802322,0.921639 -1.655146,1.705062 -2.337682,2.125368 -1.895065,1.161452 -8.746758,1.618377 -8.746758,1.618377 -1.507761,1.826267 -3.435359,2.807925 -5.491429,2.858424 -0.456945,0.01331 -0.918001,-0.02331 -1.383633,-0.105522 -2.033055,-0.349967 -4.135866,-1.601 -6.035512,-3.827233 -0.350429,0.667977 -0.710136,1.019342 -1.060567,1.134556 -1.636821,0.538915 -3.098783,-3.997873 -2.245494,-5.514919 -0.419834,-0.986818 -0.61795,-3.605296 -0.576728,-4.11262 0.06472,-0.770606 0.383076,-1.462418 0.655178,-1.923969 0.207257,-0.354527 0.382486,-0.570607 0.382486,-0.570607 v -1.245877 c 0,-1.516213 0.456476,-3.001567 1.318926,-4.251202 0.249068,-0.359587 0.530224,-0.751832 0.843542,-1.161452 0.120274,-0.161119 0.244508,-0.322903 0.382607,-0.488517 v -0.0034 c 0.424415,-0.535754 0.889931,-1.088516 1.392795,-1.62297 0.797743,-0.853664 1.683093,-1.674869 2.632681,-2.338151 0.502744,-0.354661 1.019228,-0.663284 1.55415,-0.912485 0.875719,-0.411019 1.783972,-0.655527 2.71113,-0.655527 1.429432,-0.11984 2.807895,-0.09121 4.140562,0.06458 2.715709,0.313915 5.242348,1.148636 7.644737,2.314783 0.12024,0.05493 0.239914,0.115179 0.359708,0.174767 0.549131,0.277297 1.092743,0.567443 1.627547,0.871605 0.617947,0.351032 1.226736,0.719774 1.830827,1.107424 l 0.06472,0.156125 0.0046,0.01001 c 0.239449,0.617478 1.106483,2.872606 1.84457,5.335124 0.755936,2.503764 1.378467,5.219945 1.083113,6.639719"
         style="fill:#878787;fill-opacity:1;fill-rule:nonzero;stroke:none;stroke-width:0.117436"
         id="path40" />
      <path
         d="m 34.080061,47.898738 c -0.334338,0 -0.654588,-0.08588 -0.940427,-0.294606 -0.347257,-0.253663 -0.560054,-0.645907 -0.761924,-1.025335 -0.316479,-0.594474 -0.633454,-1.189381 -0.950059,-1.783956 0.02996,-0.02331 0.06013,-0.05059 0.09088,-0.07757 1.625668,0.480326 3.250982,0.960653 4.876769,1.440847 l 0.271638,0.139813 c 0.207757,0.237017 -0.08901,0.576598 -0.354657,0.746771 -0.666565,0.427564 -1.484861,0.853763 -2.232226,0.853763 m -2.65652,-3.112053 c -0.02064,-0.03861 -0.04121,-0.07757 -0.06188,-0.116179 0.04311,0.01331 0.08572,0.02664 0.128828,0.03861 -0.02164,0.02664 -0.04405,0.0526 -0.06695,0.07757"
         style="fill:#525251;fill-opacity:1;fill-rule:nonzero;stroke:none;stroke-width:0.117436"
         id="path42" />
      <path
         d="m 37.14808,46.033957 c 0,-1.141346 2.19089,-3.808459 2.896443,-5.284625 0.286319,-0.597737 0.583073,-1.211918 1.067025,-1.666646 0.680306,-0.63755 1.625317,-0.864215 2.574905,-0.864215 0.31791,0 0.636269,0.02664 0.945477,0.06924 1.232611,0.173769 2.43175,0.590847 3.675399,0.635353 -0.360176,0.110518 -0.731276,0.152797 -1.106482,0.152797 -0.561113,0 -1.130324,-0.09255 -1.685913,-0.184421 -0.536685,-0.08955 -1.087578,-0.174767 -1.629895,-0.174767 -0.394941,0 -0.784358,0.04561 -1.160504,0.168775 -0.89322,0.293609 -1.667594,1.175633 -1.506589,2.100934 0.118376,0.684887 0.712484,1.208289 1.365194,1.445507 0.601039,0.217377 1.251516,0.236351 1.892834,0.236351 0.05542,0 0.110518,0 0.16558,0 -1.174831,0.483956 -2.500568,0.341746 -3.762537,0.49078 -1.261968,0.150467 -3.436414,1.638217 -3.730944,2.874936"
         style="fill:#727271;fill-opacity:1;fill-rule:nonzero;stroke:none;stroke-width:0.117436"
         id="path44" />
      <path
         d="m 31.391011,44.822039 c 0.01103,-0.01331 0.02164,-0.0233 0.03262,-0.03529 0.0015,0.0023 0.0028,0.0066 0.0039,0.0066 -0.01232,0.01002 -0.02463,0.01998 -0.03665,0.02664 m 0.12753,-0.104531 c -0.0093,-0.0034 -0.01865,-0.0066 -0.02796,-0.0066 0.785883,-0.967544 0.982235,-3.040516 0.556532,-3.868113 -0.443206,-0.86325 -1.150524,-1.593609 -1.284049,-2.600135 0.309222,0.427597 0.627581,0.862917 1.110593,1.124902 0.2505,0.135152 0.556412,0.216045 0.877601,0.216045 0.297703,0 0.609141,-0.06924 0.90097,-0.227364 0.820643,-0.446372 1.187161,-1.441413 1.025686,-2.162019 -0.16195,-0.721172 -0.713306,-1.230827 -1.251868,-1.710222 -0.538094,-0.478895 -1.095913,-0.981624 -1.273477,-1.695407 0.591293,0.737151 1.464312,1.228031 2.156127,1.882125 0.691698,0.654129 1.21335,1.571673 0.93021,2.62953 -0.150899,0.565113 -0.514134,1.107291 -0.870669,1.635753 -0.838023,1.242712 -1.948147,3.954331 -2.849587,4.783293"
         style="fill:#727271;fill-opacity:1;fill-rule:nonzero;stroke:none;stroke-width:0.117436"
         id="path46" />
      <path
         d="m 31.427651,44.794907 c -0.0012,-0.0023 -0.0027,-0.0066 -0.0039,-0.0066 0.02297,-0.02331 0.04544,-0.05059 0.06695,-0.07757 0.0093,0.0022 0.01897,0.0034 0.02796,0.0066 -0.03063,0.02664 -0.06105,0.05426 -0.09088,0.07757"
         style="fill:#474746;fill-opacity:1;fill-rule:nonzero;stroke:none;stroke-width:0.117436"
         id="path48" />
      <path
         d="m 58.476119,31.918266 c -0.546898,-0.791877 -1.094152,-1.583157 -1.640933,-2.373504 0,-0.0013 -4.69e-4,-0.0013 -4.69e-4,-0.0024 l -0.0046,-0.01002 -0.06472,-0.156126 c -0.604092,-0.387649 -1.212411,-0.756391 -1.830358,-1.106492 0.203762,-0.368375 0.467514,-0.71518 0.725284,-1.046338 0.97848,-1.258789 1.956955,-2.516647 2.935904,-3.775336 0.464225,0.98765 0.710134,2.076167 0.714714,3.167013 -0.261518,-0.269641 -0.523412,-0.539847 -0.785412,-0.809122 0.252363,0.659155 0.373448,1.366013 0.355599,2.070607 -0.237218,-0.190412 -0.473856,-0.381657 -0.711076,-0.573303 0.117443,0.659156 0.235353,1.317877 0.352776,1.976666 -0.469275,-0.497802 -0.938079,-0.995972 -1.407354,-1.493642 0.641672,1.304594 1.101316,2.699602 1.360614,4.131395"
         style="fill:#525251;fill-opacity:1;fill-rule:nonzero;stroke:none;stroke-width:0.117436"
         id="path50" />
      <path
         d="m 56.877346,33.971997 c -0.62476,-0.81385 -1.189981,-1.674403 -1.688144,-2.573039 -0.338922,-0.609254 -0.655061,-1.273004 -0.618302,-1.969409 0.02164,-0.413249 0.164181,-0.797271 0.364171,-1.159221 0.617946,0.3501 1.226266,0.718841 1.830357,1.106492 l 0.06472,0.156125 0.0046,0.01001 c 0,9.66e-4 4.71e-4,9.66e-4 4.71e-4,0.0024 -0.03162,-0.04694 -0.06331,-0.09255 -0.09547,-0.138483 0.227597,0.753696 0.455067,1.508823 0.683126,2.262985 -0.409265,-0.260653 -0.718003,-0.673935 -0.850942,-1.139116 0.14444,0.601399 0.183887,1.228496 0.11508,1.845042 -0.251799,-0.790347 -0.6459,-1.534889 -1.157335,-2.188185 0.449545,1.261619 0.898622,2.52264 1.347697,3.78509"
         style="fill:#525251;fill-opacity:1;fill-rule:nonzero;stroke:none;stroke-width:0.117436"
         id="path52" />
      <path
         d="m 32.870353,30.378685 c -0.773786,-2.851468 -1.547221,-5.702934 -2.321124,-8.554069 -0.218775,-0.80819 -0.439917,-1.630227 -0.416548,-2.466147 0.802324,2.580894 1.627548,5.210391 3.191444,7.415985 0.339861,0.477963 0.721059,0.951332 0.872434,1.518443 0.03992,0.148136 0.06295,0.300267 0.06927,0.454595 -9.38e-4,8.32e-4 -0.0012,8.32e-4 -0.0018,0.0023 -0.502863,0.534454 -0.96838,1.087217 -1.392795,1.62297 v 0.0034 c -4.69e-4,0 -4.69e-4,0.0013 -9.38e-4,0.0013"
         style="fill:#525251;fill-opacity:1;fill-rule:nonzero;stroke:none;stroke-width:0.117436"
         id="path54" />
      <path
         d="m 32.870822,30.379616 c -4.69e-4,0 -4.69e-4,-9.31e-4 -4.69e-4,-9.31e-4 4.69e-4,0 4.69e-4,-0.0014 9.38e-4,-0.0014 v -0.0034 c 0.424415,-0.535753 0.889931,-1.088516 1.392795,-1.622971 4.69e-4,-0.0013 8.21e-4,-0.0013 0.0018,-0.0023 0.0019,0.04328 0.0019,0.08655 9.39e-4,0.13016 -0.450487,0.514248 -0.91612,1.01558 -1.395964,1.501899"
         style="fill:#525251;fill-opacity:1;fill-rule:nonzero;stroke:none;stroke-width:0.117436"
         id="path56" />
      <path
         d="m 45.505303,41.651264 c -0.271971,0.29494 -0.691229,0.395872 -1.088047,0.438015 -0.585417,0.06924 -1.17577,0.04095 -1.751908,-0.0739 -0.498166,-0.102202 -1.037668,-0.322904 -1.226739,-0.792678 -0.128829,-0.318242 -0.06458,-0.687118 0.07846,-1.000933 0.08762,-0.198069 0.20739,-0.38259 0.350548,-0.544541 0.400927,-0.460586 0.986696,-0.761086 1.600066,-0.792677 0.161018,-0.01002 0.322469,0 0.479374,0.02664 0.659168,0.11152 1.267957,0.521173 1.604649,1.102364 0.290312,0.507324 0.350429,1.20879 -0.04641,1.637319"
         style="fill:#ffffff;fill-opacity:1;fill-rule:nonzero;stroke:none;stroke-width:0.117436"
         id="path58" />
      <path
         d="m 44.163594,40.692042 c -0.355127,0.322903 -0.875837,0.418775 -1.346402,0.322903 -0.272105,-0.05559 -0.534451,-0.175433 -0.719299,-0.378496 -0.211983,-0.23036 -0.308722,-0.562418 -0.253662,-0.871139 l 0.02331,-0.08821 c 0.244507,-0.280959 0.5624,-0.507324 0.91283,-0.641313 0.184388,-0.0729 0.382607,-0.1245 0.585417,-0.142144 l 0.10183,-0.01002 c 0.161019,-0.01002 0.32247,0 0.479375,0.02664 0.21185,0.106523 0.396348,0.262983 0.502273,0.475267 0.217011,0.428995 0.06928,0.986818 -0.285719,1.305194"
         style="fill:#3aaa35;fill-opacity:1;fill-rule:nonzero;stroke:none;stroke-width:0.117436"
         id="path60" />
      <path
         d="m 43.347415,39.769937 c -0.07387,0.26265 -0.193542,0.515647 -0.313316,0.760986 l -0.110518,0.170107 -0.184387,0.04594 -0.133989,-0.216046 c -0.101335,-0.502763 -0.03675,-1.033456 0.1752,-1.494975 0.184387,-0.0729 0.382607,-0.124501 0.585417,-0.142144 l 0.01431,0.05493 c 0.0688,0.267976 0.04121,0.553263 -0.03262,0.821139"
         style="fill:#3c3c3b;fill-opacity:1;fill-rule:nonzero;stroke:none;stroke-width:0.117436"
         id="path62" />
      <path
         d="m 44.634161,40.153926 c 0.01299,-0.241679 -0.201399,-0.472071 -0.444025,-0.476665 -0.235353,-0.0066 -0.454126,0.204061 -0.461053,0.438981 -0.0073,0.23502 0.198702,0.456958 0.434042,0.466113 0.235353,0.01002 0.458705,-0.193409 0.471036,-0.428429"
         style="fill:#ffffff;fill-opacity:1;fill-rule:nonzero;stroke:none;stroke-width:0.117436"
         id="path64" />
      <path
         d="m 34.351692,37.630354 c 0.01365,0.696407 -0.442733,1.474869 -1.180351,1.548737 -0.59493,0.152797 -1.267957,-0.07856 -1.646452,-0.562383 -0.460939,-0.820774 -0.271505,-1.946041 0.415253,-2.577732 l 0.08303,-0.07757 c 0.304028,-0.249001 0.70544,-0.415612 1.092628,-0.337183 0.355126,0.06924 0.645426,0.337183 0.829921,0.6505 0.188948,0.313915 0.276564,0.668442 0.364167,1.02297 0.02796,0.10686 0.04181,0.217377 0.04181,0.332557"
         style="fill:#ffffff;fill-opacity:1;fill-rule:nonzero;stroke:none;stroke-width:0.117436"
         id="path66" />
      <path
         d="m 34.351692,37.630354 c -0.05097,0.258324 -0.156891,0.506959 -0.341389,0.686753 -0.21185,0.207723 -0.521062,0.299601 -0.820643,0.289947 -0.553239,-0.01664 -1.069724,-0.387184 -1.309644,-0.888616 -0.239448,-0.502764 -0.211985,-1.112352 0.02796,-1.614748 l 0.03229,-0.06458 0.08303,-0.07757 c 0.262815,-0.217377 0.594461,-0.370173 0.931152,-0.355959 l 0.161484,0.01997 c 0.138582,0.02996 0.272105,0.08821 0.387185,0.165446 0.179794,0.119841 0.332124,0.295939 0.442736,0.484887 0.07387,0.124834 0.133889,0.253662 0.184855,0.391279 0.0734,0.203395 0.12896,0.420206 0.179326,0.631691 l 0.03722,0.244674 0.0046,0.08821"
         style="fill:#3aaa35;fill-opacity:1;fill-rule:nonzero;stroke:none;stroke-width:0.117436"
         id="path68" />
      <path
         d="m 33.502979,35.789907 -0.02763,0.236353 c -0.07846,0.418774 -0.151832,0.833555 -0.230294,1.249134 l -0.07387,0.249002 -0.198236,0.146804 -0.23522,-0.110191 -0.10147,-0.249002 c -0.1247,-0.548669 -0.02763,-1.148636 0.26751,-1.632592 l 0.0504,-0.0739 0.161485,0.01998 c 0.138582,0.02996 0.272104,0.08821 0.387184,0.165446"
         style="fill:#3c3c3b;fill-opacity:1;fill-rule:nonzero;stroke:none;stroke-width:0.117436"
         id="path70" />
      <path
         d="m 34.347112,37.542272 -0.08762,0.07856 c -0.124833,0.08821 -0.295006,0.11984 -0.442732,0.0739 -0.119674,-0.04094 -0.216545,-0.138482 -0.262817,-0.244008 -0.05097,-0.110518 -0.05965,-0.231358 -0.04641,-0.346305 0.01865,-0.151797 0.07846,-0.309255 0.217011,-0.400466 0.11508,-0.07424 0.26741,-0.0789 0.405976,-0.03762 0.0734,0.203396 0.128961,0.420208 0.179327,0.631693 l 0.03721,0.244674"
         style="fill:#ffffff;fill-opacity:1;fill-rule:nonzero;stroke:none;stroke-width:0.117436"
         id="path72" />
      <path
         d="m 36.896767,26.411571 c 0.0093,-1.151931 -0.313315,-2.310221 -0.94043,-3.274004 -0.09677,-0.124834 -0.193642,-0.253662 -0.295007,-0.378496 l 0.179328,0.176099 c 0.871608,0.852797 1.73864,1.710221 2.610252,2.56385 -0.534921,0.249334 -1.051405,0.557823 -1.55415,0.912484"
         style="fill:#9f9f9f;fill-opacity:1;fill-rule:nonzero;stroke:none;stroke-width:0.117436"
         id="path74" />
      <path
         d="m 53.307054,27.39779 v 0 c -0.119774,-0.05959 -0.239448,-0.11984 -0.359708,-0.174767 1.323506,-1.244941 2.65159,-2.489549 3.979557,-3.734591 -0.682537,1.419809 -1.554149,2.738718 -2.881763,3.540583 -0.239913,0.143475 -0.489005,0.267976 -0.738086,0.368742"
         style="fill:#9f9f9f;fill-opacity:1;fill-rule:nonzero;stroke:none;stroke-width:0.117436"
         id="path76" />
      <path
         d="m 50.729448,27.865301 c -1.800061,0 -3.702526,-0.533023 -5.464065,-1.015714 -1.32844,-0.360519 -2.793218,-0.650466 -4.189535,-0.650466 -0.619357,0 -1.224857,0.05593 -1.799708,0.189081 -0.96838,0.221372 -1.84915,0.655061 -2.559286,1.392677 0.115679,-0.447204 0.175333,-0.90779 0.179927,-1.369308 v 0 c 0.502743,-0.35466 1.019228,-0.663283 1.554148,-0.912484 v 0 c 0.875721,-0.41102 1.783973,-0.655527 2.711131,-0.655527 0.595869,-0.04927 1.18352,-0.0739 1.762482,-0.0739 0.809132,0 1.601356,0.0466 2.378081,0.138482 2.715707,0.313915 5.242348,1.148636 7.644736,2.314783 v 0 c 0.12024,0.05493 0.239914,0.115179 0.359708,0.174767 v 0 0 c -0.276665,0.11518 -0.553243,0.203395 -0.839082,0.272636 -0.562401,0.137484 -1.145001,0.195073 -1.738524,0.195073"
         style="fill:#9f9f9f;fill-opacity:1;fill-rule:nonzero;stroke:none;stroke-width:0.117436"
         id="path78" />
      <path
         d="m 142.5518,74.669599 c -0.20773,-0.01998 -0.41924,-0.04128 -0.6271,-0.06458 v 0 c -3.91884,-1.673469 -7.45603,-4.145609 -11.20459,-6.187488 -3.54774,-1.929828 -7.46541,-3.509224 -11.46177,-3.509224 -0.49087,0 -0.98293,0.0233 -1.47616,0.07424 -0.17497,0.409721 -0.35466,0.825333 -0.53081,1.23998 -6.78899,-6.139652 -15.95194,-9.491185 -25.091756,-9.491185 -3.262611,0 -6.522285,0.427496 -9.669691,1.306958 -1.526199,0.423836 -3.094204,0.995873 -4.14514,2.185388 -1.051405,1.184921 -1.369774,3.154663 -0.300066,4.325403 -2.75693,-2.678598 -6.584173,-3.868479 -10.014599,-5.607594 -2.282721,-1.151932 -4.551119,-2.784523 -5.920424,-4.873606 1.00044,1.060586 2.148729,1.964715 3.476228,2.646906 2.050551,1.054695 4.313076,1.455959 6.6214,1.455959 2.274852,0 4.594687,-0.389414 6.801193,-0.929727 4.445191,-1.088616 8.816046,-2.740148 13.394641,-2.859789 0.18166,-0.0034 0.363355,-0.0066 0.544081,-0.0066 8.473723,0 16.105893,5.094279 24.327603,7.306764 7.5206,2.023537 16.29543,1.968476 21.72217,7.552669 1.52196,1.567411 2.62822,3.448738 3.55479,5.436023"
         style="fill:#9f9f9f;fill-opacity:1;fill-rule:nonzero;stroke:none;stroke-width:0.117436"
         id="path80" />
      <path
         d="m 150.01369,76.412343 c -2.49081,0 -5.03213,-0.585886 -7.3562,-1.503296 l -0.007,-0.0034 c -0.24534,-0.09654 -0.48502,-0.192744 -0.72457,-0.299601 v 0 0 c 0.20773,0.0233 0.41924,0.04594 0.6271,0.06458 v 0 c 3.99282,0.377896 7.99974,0.700832 12.01136,0.991245 -1.4527,0.521206 -2.99108,0.751498 -4.54947,0.751498"
         style="fill:#9f9f9f;fill-opacity:1;fill-rule:nonzero;stroke:none;stroke-width:0.117436"
         id="path82" />
      <path
         d="m 112.51282,16.455204 c 0.0576,0.448603 0.0728,0.911419 0.0163,1.375302 -0.0292,0.212383 -0.10454,0.471971 -0.31121,0.521538 -0.10927,0.02331 -0.21845,-0.0066 -0.31003,-0.07523 -0.0551,-0.11152 -0.0986,-0.219707 -0.13389,-0.332556 -0.13858,-0.359122 -0.22666,-0.73855 -0.24897,-1.1261 -0.0223,-0.335852 0.0101,-0.683589 0.0998,-1.002797 0.0293,-0.10919 0.0575,-0.217377 0.10218,-0.316245 0.16675,0.0066 0.33,0.0729 0.44978,0.188082 0.21491,0.192743 0.28536,0.489947 0.33587,0.767911"
         style="fill:#3aaa35;fill-opacity:1;fill-rule:nonzero;stroke:none;stroke-width:0.117436"
         id="path940" />
      <path
         d="m 111.8446,15.89282 c 0.15737,0.389881 0.11861,0.832624 0.19847,1.248237 0.0282,0.137484 0.0693,0.276964 0.0986,0.414648 0.0209,0.140812 0.005,0.305593 -0.11391,0.383888 l -0.25366,0.0034 c -0.13859,-0.35912 -0.22667,-0.738548 -0.24897,-1.126099 -0.0223,-0.335852 0.0101,-0.683589 0.0998,-1.002797 l 0.13739,-0.02664 0.0821,0.105522"
         style="fill:#3c3c3b;fill-opacity:1;fill-rule:nonzero;stroke:none;stroke-width:0.117436"
         id="path942" />
    </g>
  </g>
</svg>
