<?xml version="1.0" encoding="UTF-8" standalone="no"?>
<!-- Created with Inkscape (http://www.inkscape.org/) -->

<svg
   width="210mm"
   height="270mm"
   viewBox="0 0 210 270"
   version="1.1"
   id="svg10563"
   inkscape:version="1.2.1 (9c6d41e410, 2022-07-14)"
   sodipodi:docname="norwegian-forest.svg"
   xmlns:inkscape="http://www.inkscape.org/namespaces/inkscape"
   xmlns:sodipodi="http://sodipodi.sourceforge.net/DTD/sodipodi-0.dtd"
   xmlns="http://www.w3.org/2000/svg"
   xmlns:svg="http://www.w3.org/2000/svg">
  <sodipodi:namedview
     id="namedview10565"
     pagecolor="#ffffff"
     bordercolor="#000000"
     borderopacity="0.25"
     inkscape:showpageshadow="2"
     inkscape:pageopacity="0.0"
     inkscape:pagecheckerboard="0"
     inkscape:deskcolor="#d1d1d1"
     inkscape:document-units="mm"
     showgrid="false"
     inkscape:zoom="0.49085999"
     inkscape:cx="143.62548"
     inkscape:cy="399.2992"
     inkscape:window-width="1366"
     inkscape:window-height="705"
     inkscape:window-x="-8"
     inkscape:window-y="-8"
     inkscape:window-maximized="1"
     inkscape:current-layer="layer1" />
  <defs
     id="defs10560" />
  <g
     inkscape:label="Layer 1"
     inkscape:groupmode="layer"
     id="layer1">
    <g
       id="g10486"
       transform="matrix(2.8389077,0,0,-2.8389077,-17.685767,509.20922)">
      <path
         d="m 65.3352,117.689 c -0.1122,-1.91 -0.2204,-3.816 -0.3321,-5.726 l -0.6047,0.897 c 0.5485,-2.987 0.3723,-6.102 -0.5125,-9.005 -0.18,0.252 -0.3562,0.505 -0.5324,0.761 L 63.025,101.513 62.809,99.491 62.3883,95.527 C 62,95.607 61.6879,95.9512 61.6398,96.3441 61.5438,95.7992 61.4395,95.2469 61.3234,94.6898 60.7188,91.827 59.7258,88.9449 57.2875,87.4629 56.991,87.2832 56.6828,87.1352 56.3668,87.007 H 17.7891 c -0.6203,0.684 -1.0047,1.5493 -1.3653,2.4059 -1.0687,2.5351 -2.034,5.1172 -2.8867,7.732 -0.4324,1.3133 -0.8367,2.6301 -1.2133,3.9591 l -0.148,-0.06 c -0.2723,0.036 -0.3805,0.365 -0.4281,0.633 -0.1286,0.697 -0.2567,1.393 -0.3848,2.09 v 0.004 l -0.0117,0.056 v 0.004 c -0.1684,0.933 -0.3407,1.866 -0.5125,2.799 -0.7168,0.728 -1.02112,1.834 -0.7809,2.827 0.0883,0.36 0.2363,0.752 0.0719,1.085 -0.14806,0.3 -0.6965,0.296 -0.76876,0.024 0.05625,2.034 0.11211,4.06 0.16836,6.094 0.32812,2.522 1.2449,4.968 2.6703,7.074 1.5859,2.343 3.8918,4.645 3.5996,7.456 l -0.6004,-1.013 0.7848,6.842 c 0.0238,0.216 0.0359,0.473 -0.132,0.617 -0.1043,0.092 -0.2844,0.04 -0.3688,-0.052 0.0684,0.929 0.2485,1.838 0.5246,2.722 v 0.004 c 0.0281,0.097 0.0602,0.189 0.0961,0.285 v 0.004 c 0.0723,0.208 0.1481,0.416 0.2285,0.62 0.0641,0.16 0.1278,0.317 0.2,0.473 l 0.0082,0.02 0.1039,0.228 c 0.0883,0.192 0.1801,0.38 0.2762,0.565 0.0883,0.172 0.1805,0.344 0.2766,0.512 0.8285,1.477 1.9058,2.835 3.1148,4.016 0.6649,0.649 1.3653,1.257 2.0981,1.826 2.1582,1.685 4.5644,3.063 6.9668,4.4 2.0418,1.137 4.1879,2.278 6.5222,2.386 1.5774,0.076 3.1391,-0.336 4.6325,-0.857 4.1,-1.433 7.8675,-3.791 10.9906,-6.806 1.4855,-1.426 2.8265,-2.999 3.9918,-4.689 0.9289,-1.341 1.7418,-2.754 2.4304,-4.228 l 0.1204,-0.256 c 0.6765,-1.481 1.2289,-3.019 1.6375,-4.601 0.0839,-0.32 -0.1204,-0.848 -0.3805,-0.64 0.2762,-0.697 0.4484,-1.437 0.5086,-2.186 -0.2805,0.276 -0.5606,0.548 -0.8371,0.821 -1.2172,-2.499 0.5687,-5.39 2.4547,-7.432 1.8816,-2.042 4.116,-4.312 3.8875,-7.082"
         style="fill:#9e7c51;fill-opacity:1;fill-rule:nonzero;stroke:none;stroke-width:0.1"
         id="path1906" />
      <path
         d="m 29.3965,168.474 c -0.1402,-0.161 -0.2883,-0.313 -0.4445,-0.453 -1.2372,-1.173 -2.8586,-1.898 -4.4282,-2.59 -0.9808,-0.433 -1.966,-0.865 -2.9468,-1.298 l -0.0282,0.121 c -0.1761,0.76 -0.3203,1.529 -0.4324,2.306 -0.4125,2.887 -0.3562,5.842 0.1684,8.708 0.1601,0.881 0.4004,1.814 1.0769,2.399 0.1641,0.144 0.3805,0.264 0.5887,0.204 0.1398,-0.04 0.2441,-0.156 0.3402,-0.268 0.2723,-0.317 0.5446,-0.633 0.8168,-0.949 1.2973,-1.514 2.5864,-3.035 3.8637,-4.569 0.4965,-0.596 0.9891,-1.193 1.4812,-1.79 0.1805,-0.22 0.3688,-0.456 0.4125,-0.74 0.0563,-0.401 -0.2,-0.777 -0.4683,-1.081"
         style="fill:#9e7c51;fill-opacity:1;fill-rule:nonzero;stroke:none;stroke-width:0.1"
         id="path1908" />
      <path
         d="m 50.3449,168.133 c -0.1121,-1.349 -0.3285,-2.686 -0.6406,-4 -0.9813,0.433 -1.9621,0.865 -2.943,1.298 -1.6457,0.72 -3.3394,1.481 -4.6004,2.75 -0.0961,0.092 -0.1882,0.193 -0.2765,0.293 -0.268,0.304 -0.5242,0.68 -0.4645,1.081 0.0403,0.284 0.2285,0.52 0.4086,0.74 0.4285,0.521 0.857,1.037 1.2895,1.558 1.405,1.686 2.8226,3.367 4.2519,5.029 0.2082,0.24 0.4125,0.48 0.6207,0.721 0.0961,0.112 0.2,0.228 0.3403,0.268 0.2082,0.06 0.4242,-0.06 0.5886,-0.204 0.6766,-0.585 0.9168,-1.518 1.077,-2.399 0.4324,-2.35 0.5484,-4.756 0.3484,-7.135"
         style="fill:#9e7c51;fill-opacity:1;fill-rule:nonzero;stroke:none;stroke-width:0.1"
         id="path1910" />
      <path
         d="m 77.9594,85.7422 c -1.5094,0.1558 -3.0227,0.316 -4.5321,0.4758 -4.9851,0.5211 -9.9937,1.0449 -14.9988,0.773 -0.6805,-0.0359 -1.3652,-0.0879 -2.05,-0.148 -3.7273,-0.3328 -7.4711,-0.909 -11.1629,-0.6969 -0.9968,0.0559 -1.9937,0.1719 -2.9867,0.3641 -1.4012,0.2769 -2.8148,0.4046 -4.232,0.4367 -0.5727,0.0121 -1.1449,0.0082 -1.7215,-0.0039 -2.8871,-0.0719 -5.7981,-0.441 -8.7008,-0.661 -2.7226,-0.2078 -5.4371,-0.28 -8.1195,0.152 -1.0692,0.1719 -2.2582,0.4012 -3.1473,-0.216 -0.4523,0.6492 -1.3933,0.8929 -2.098,0.548 -1.0532,-0.5078 -2.134,0.5969 -2.7828,1.5699 -0.3,-0.1519 -0.6004,-0.3078 -0.9008,-0.4597 -0.5164,0.9289 -0.66878,2.05 -0.4203,3.0828 C 9.78164,90.8219 9.45313,90.6859 9.125,90.5539 9.20898,91.1391 9.29297,91.727 9.38125,92.316 9.07695,92.2242 8.77656,92.132 8.47227,92.0398 c 0.54843,1.3934 1.49336,2.5782 2.64253,3.5313 0.7368,0.6211 1.5614,1.1449 2.4223,1.5738 0.1563,0.0801 0.3164,0.1563 0.4766,0.2281 2.398,1.077 5.0207,1.5211 7.6152,1.954 -0.6726,-1.0571 -1.5976,-1.954 -2.6746,-2.595 1.141,-0.5121 2.4344,-0.5078 3.6836,-0.5 1.7457,0.016 3.4914,0.0321 5.2371,0.0481 0.1883,0 0.3805,0.0039 0.5688,0.0039 0.1441,0.0039 0.2921,0.0039 0.4363,0.0039 2.1301,0.0242 4.2558,0.0441 6.3859,0.0641 0.6086,0.0039 1.2215,0.0121 1.8301,0.016 h 0.084 c 3.0871,0.0281 6.1781,0.0601 9.2648,0.0879 0.7649,0.0043 1.5297,0.0121 2.2942,0.0203 l -0.0039,-0.136 c 4.2519,0.1039 8.5445,-0.373 12.5882,-1.6504 0.9852,-0.3039 1.9539,-0.6597 2.9067,-1.0687 -0.5446,0.084 -1.0848,0.1719 -1.6293,0.2598 1.7976,-0.2957 3.539,-0.9039 5.1328,-1.7887 h 0.0082 c 0.9969,-0.557 1.9379,-1.2133 2.7906,-1.9703 -0.2844,-0.084 -0.5726,-0.1637 -0.8609,-0.2477 2.166,-0.6371 4.2801,-1.4422 6.3183,-2.4113 -0.2246,-0.0957 -0.4527,-0.1957 -0.6769,-0.2918 0.8809,-0.4762 1.7656,-0.9531 2.6465,-1.4289"
         style="fill:#9e7c51;fill-opacity:1;fill-rule:nonzero;stroke:none;stroke-width:0.1"
         id="path1912" />
      <path
         d="m 39.9547,115.995 c -0.0824,0.124 -0.0629,0.335 0.0746,0.335 0.0094,0 0.0191,-0.001 0.0297,-0.003 -0.032,-0.112 -0.0684,-0.22 -0.1043,-0.332"
         style="fill:#91724b;fill-opacity:1;fill-rule:nonzero;stroke:none;stroke-width:0.1"
         id="path1914" />
      <path
         d="m 61.3234,94.6898 c -3.6875,1.1653 -7.5808,1.6641 -11.4629,1.6641 -0.375,0 -0.7507,-0.0047 -1.1253,-0.0137 l 0.0039,0.136 c -0.7645,-0.0082 -1.5293,-0.016 -2.2942,-0.0203 0.2364,0.8691 0.6367,1.7183 1.0371,2.5222 0.7446,1.5059 1.4895,3.0069 2.2301,4.5129 0.0149,-0.112 0.0828,-0.158 0.1731,-0.158 0.1765,0 0.4375,0.176 0.5437,0.37 0.6125,1.129 1.225,2.258 1.8336,3.391 0.0641,-0.188 0.1281,-0.372 0.1883,-0.56 2.2941,4.216 3.7918,8.864 4.4004,13.625 -0.0563,-4.156 -0.7047,-8.3 -1.9219,-12.276 0.2656,0.337 0.6922,0.541 1.1242,0.541 0.0043,0 0.0086,0 0.0129,0 -0.4687,-1.642 -1.1211,-3.232 -1.9418,-4.729 0.2281,0.184 0.4563,0.368 0.6805,0.552 0.0961,-0.684 -0.1641,-1.361 -0.3485,-2.025 -0.18,-0.665 -0.2761,-1.426 0.1,-2.006 0.2082,-0.3148 0.6063,-0.498 0.9747,-0.498 0.3058,0 0.5914,0.1261 0.7312,0.405 -0.2281,-0.4601 0.1281,-1.0488 0.6125,-1.2289 0.1672,-0.0621 0.341,-0.0878 0.5172,-0.0878 0.3351,0 0.6789,0.0937 0.9965,0.2117 1.0371,0.3812 1.9859,1.013 2.7426,1.822 -0.1161,-0.6 -0.2364,-1.2009 -0.3524,-1.8021 0.6926,0.0773 1.3734,0.2293 2.0301,0.4531 l -0.4207,-3.964 c -0.3883,0.08 -0.7004,0.4242 -0.7485,0.8171 -0.096,-0.5449 -0.2003,-1.0972 -0.3164,-1.6543 v 0 m -39.1281,1.5403 c -1.109,0 -2.2344,0.05 -3.241,0.5019 1.077,0.641 2.002,1.5379 2.6746,2.595 -2.5945,-0.4329 -5.2172,-0.877 -7.6152,-1.954 -0.1602,-0.0718 -0.3203,-0.148 -0.4766,-0.2281 v 0 c -0.4324,1.3133 -0.8367,2.6301 -1.2133,3.9591 l -0.148,-0.06 c -0.2723,0.036 -0.3805,0.365 -0.4281,0.633 -0.1286,0.697 -0.2567,1.393 -0.3848,2.09 v 0.004 0.048 0 c 0.7648,-0.701 1.5855,-1.329 2.4586,-1.89 0.0961,0.589 0.1922,1.173 0.2883,1.758 0.4484,-0.993 1.3293,-1.786 2.3664,-2.118 -0.1699,0.284 0.1711,0.49 0.5211,0.49 0.1535,0 0.309,-0.039 0.4234,-0.13 0.3426,-0.276 0.6508,-0.727 1.0621,-0.727 0.0363,0 0.0731,0.003 0.1113,0.011 0.0321,0.464 0.0641,0.932 0.0961,1.397 0.6407,-0.136 1.2774,-0.268 1.9137,-0.404 0.0281,3.567 -0.9449,7.134 -2.7746,10.197 -0.032,-0.528 -0.0641,-1.057 -0.0922,-1.581 -0.6246,3.339 -0.8566,6.754 -0.6926,10.15 v 0 c 0.0762,0.172 0.1524,0.344 0.2321,0.512 0.4847,-5.221 2.0422,-10.342 4.5488,-14.95 0.0598,0.188 0.1238,0.372 0.1879,0.56 0.6086,-1.133 1.2211,-2.262 1.834,-3.391 0.1058,-0.194 0.3668,-0.37 0.5437,-0.37 0.0899,0 0.1578,0.046 0.1731,0.158 0.7406,-1.506 1.4851,-3.007 2.23,-4.5129 0.4243,-0.8562 0.8567,-1.7691 1.0809,-2.698 -1.7457,-0.016 -3.4914,-0.0321 -5.2371,-0.0481 -0.1469,-0.0011 -0.2945,-0.0019 -0.4426,-0.0019 m 14.9445,1.739 v 0 c -0.0199,0.6168 -0.0558,1.234 -0.1878,1.834 -0.2723,1.2129 -0.929,2.2939 -1.4778,3.4109 -0.6363,1.298 -1.1289,2.663 -1.4691,4.068 0.1242,-0.26 0.3683,-0.464 0.6566,-0.512 -0.6367,1.461 -1.2734,2.927 -1.914,4.392 0.2281,-0.336 0.5726,-0.584 0.9609,-0.693 -0.8648,2.791 -3.3711,4.977 -3.7676,7.86 0.0723,-0.344 0.3242,-0.645 0.6528,-0.765 -0.1805,0.793 -0.3645,1.594 -0.5965,2.383 v 0 0 c 1.189,-1.986 2.2461,-4.104 4.0277,-5.542 0.0602,0.693 0.1199,1.382 0.184,2.074 0.4246,-0.869 0.9851,-1.673 1.6578,-2.366 0.2805,0.32 0.5605,0.645 0.8367,0.965 0.1403,-1.489 0.5688,-2.951 1.2613,-4.28 0.7727,1.69 1.4375,3.427 1.9899,5.197 l 0.1441,-0.088 c 0.0078,-10e-4 0.0157,-10e-4 0.0235,-10e-4 0.2164,0 0.3769,0.212 0.4929,0.397 0.5649,0.909 1.1293,1.814 1.6938,2.719 0.0082,-0.272 0.0121,-0.541 0.016,-0.813 0.6125,1.073 1.3934,1.994 2.2941,2.799 v 0 0 c -0.4003,-1.113 -0.6765,-2.29 -0.9367,-3.444 0.3281,0.12 0.5805,0.421 0.6528,0.765 -0.3965,-2.883 -2.9032,-5.069 -3.768,-7.86 0.3887,0.109 0.7328,0.357 0.9609,0.693 -0.6406,-1.465 -1.2769,-2.931 -1.9176,-4.392 0.2883,0.048 0.5364,0.252 0.6606,0.512 -0.3402,-1.405 -0.8328,-2.77 -1.4695,-4.068 -0.5485,-1.117 -1.2051,-2.198 -1.4774,-3.4109 -0.132,-0.6 -0.1683,-1.2172 -0.1844,-1.834"
         style="fill:#846946;fill-opacity:1;fill-rule:nonzero;stroke:none;stroke-width:0.1"
         id="path1916" />
      <path
         d="m 24.752,87.507 c -0.861,0.7731 -1.5454,1.7461 -1.986,2.8192 -0.5484,-0.3481 -0.989,-0.8653 -1.241,-1.461 -0.6328,0.5399 -1.1094,1.261 -1.3613,2.0539 C 19.7992,90.034 19.6551,89.057 19.7473,88.1 c -1.3735,0.548 -2.4465,1.7859 -2.795,3.223 -0.1359,-0.5011 -0.4043,-0.9648 -0.7683,-1.3328 -0.2086,-0.2132 -0.4449,-0.3933 -0.7051,-0.5332 0.0641,0.6051 0.1242,1.209 0.1844,1.8141 0.0879,0.8769 0.1801,1.7539 0.268,2.6301 -0.2879,-0.3282 -0.6004,-0.6403 -0.9329,-0.9203 -0.7328,-0.6368 -1.5656,-1.1539 -2.4582,-1.5258 -0.0082,0.6808 -0.016,1.3609 -0.0242,2.0379 -0.5445,-0.4 -1.089,-0.8008 -1.6336,-1.2008 0.0762,1.093 0.1563,2.1859 0.2324,3.2789 C 9.96563,94.618 9.0207,93.4332 8.47227,92.0398 v 0 c 0.54843,1.3934 1.49336,2.5782 2.64253,3.5313 0.7368,0.6211 1.5614,1.1449 2.4223,1.5738 v 0 0 0 c 0.1563,0.0801 0.3164,0.1563 0.4766,0.2281 2.398,1.077 5.0207,1.5211 7.6152,1.954 -0.6726,-1.0571 -1.5976,-1.954 -2.6746,-2.595 1.0066,-0.4519 2.132,-0.5019 3.241,-0.5019 0.1481,0 0.2957,8e-4 0.4426,0.0019 1.7457,0.016 3.4914,0.0321 5.2371,0.0481 v 0 c 0.1082,-0.441 0.1723,-0.8891 0.1602,-1.334 C 28.0313,94.6422 27.991,94.3379 27.9109,94.034 27.659,93.0691 27.0301,92.2559 26.4738,91.427 26.041,90.7742 25.6406,90.0742 25.4848,89.309 v 0 l -0.1082,0.0441 C 25.1684,88.7359 24.9602,88.1199 24.752,87.507 m 23.9152,0.1321 -0.0039,0.0078 v 0 0 c 0.1347,0.3203 0.1976,0.673 0.1976,1.025 4e-4,0.1613 -0.0125,0.3203 -0.0375,0.4773 -0.064,0.3918 -0.1921,0.7727 -0.3644,1.1328 -0.1801,0.4 -0.4164,0.7809 -0.6606,1.145 -0.5527,0.8289 -1.1812,1.6421 -1.4336,2.607 -0.2082,0.8039 -0.1359,1.6211 0.0801,2.4219 v 0 c 0.7649,0.0043 1.5297,0.0121 2.2942,0.0203 l -0.0039,-0.136 c 0.3746,0.009 0.7503,0.0137 1.1253,0.0137 3.8821,0 7.7754,-0.4988 11.4629,-1.6641 v 0 0 0 c 0.9852,-0.3039 1.9539,-0.6597 2.9067,-1.0687 -0.5446,0.084 -1.0848,0.1719 -1.6293,0.2598 v 0 0 c 1.7976,-0.2957 3.539,-0.9039 5.1328,-1.7887 h 0.0082 c 0.9969,-0.557 1.9379,-1.2133 2.7906,-1.9703 v 0 c -0.8527,0.757 -1.7937,1.4133 -2.7906,1.9703 h -0.0082 c -0.2,0.0277 -0.4043,0.0519 -0.6086,0.0719 -2.098,0.216 -4.2242,0.1839 -6.298,0.5519 -0.1524,0.0281 -0.3043,0.0559 -0.4524,0.0879 0.1481,-0.048 0.2883,-0.116 0.4242,-0.1918 0.6649,-0.3879 1.1492,-1.0969 1.2371,-1.866 -0.5363,0.2691 -1.0687,0.5371 -1.6054,0.8008 -0.2684,0.1363 -0.5407,0.273 -0.8086,0.4051 0.2121,-0.4368 0.2761,-0.9411 0.184,-1.418 -0.8688,0.3332 -1.7336,0.6691 -2.5985,1.0051 0.7125,-0.62 1.2211,-1.4731 1.4211,-2.3981 -1.9414,0.7199 -3.7676,1.7539 -5.389,3.043 -0.0118,-1.0168 -0.0282,-2.0379 -0.0442,-3.0551 -0.9527,0.857 -1.9055,1.7102 -2.8586,2.566 0.3004,-1.5168 -0.3883,-3.1867 -1.6695,-4.0558"
         style="fill:#846946;fill-opacity:1;fill-rule:nonzero;stroke:none;stroke-width:0.1"
         id="path1918" />
      <path
         d="M 37.2762,88.6441 C 37.2441,88.468 37.2,88.2922 37.1398,88.1199 37.0961,88.0039 37.048,87.8879 36.9879,87.775 36.8238,87.4672 36.6074,87.2152 36.3555,87.007 l -0.0801,-0.064 c -0.9691,-0.7532 -2.4465,-0.909 -3.7399,-0.909 -1.3933,0 -2.7906,0.0519 -4.1839,0.1601 -0.2563,0.02 -0.5207,0.0438 -0.777,0.0879 -0.5125,0.0801 -1.009,0.236 -1.4012,0.5692 l -0.1601,0.1558 c -0.5164,0.552 -0.6809,1.3852 -0.5606,2.1422 l 0.0321,0.1598 c 0.1558,0.7652 0.5562,1.4652 0.989,2.118 0.5563,0.8289 1.1852,1.6421 1.4371,2.607 0.0801,0.3039 0.1204,0.6082 0.1243,0.9121 0.0121,0.4449 -0.052,0.893 -0.1602,1.334 -0.2242,0.9289 -0.6566,1.8418 -1.0809,2.698 -0.7449,1.5059 -1.4894,3.0069 -2.23,4.5129 -0.0442,-0.333 -0.5567,-0.08 -0.7168,0.212 -0.6129,1.129 -1.2254,2.258 -1.834,3.391 -0.0641,-0.188 -0.1281,-0.372 -0.1879,-0.56 -2.5066,4.608 -4.0641,9.729 -4.5488,14.95 -0.0797,-0.168 -0.1559,-0.34 -0.2321,-0.512 -0.0761,-0.168 -0.1519,-0.333 -0.2281,-0.501 -0.0402,2.07 -0.0762,4.136 -0.116,6.206 -0.016,0.941 0.0519,2.054 0.8484,2.559 0.7129,0.448 1.6457,0.168 2.4227,-0.156 1.9336,-0.797 3.7875,-1.782 5.5293,-2.935 0.8406,-0.553 1.6617,-1.153 2.3344,-1.906 1.0847,-1.209 1.7093,-2.719 2.1621,-4.292 0.232,-0.789 0.416,-1.59 0.5965,-2.383 -0.3286,0.12 -0.5805,0.421 -0.6528,0.765 0.3965,-2.883 2.9028,-5.069 3.7676,-7.86 -0.3883,0.109 -0.7328,0.357 -0.9609,0.693 0.6406,-1.465 1.2773,-2.931 1.914,-4.392 -0.2883,0.048 -0.5324,0.252 -0.6566,0.512 0.3402,-1.405 0.8328,-2.77 1.4691,-4.068 0.5488,-1.117 1.2055,-2.198 1.4778,-3.4109 0.132,-0.6 0.1679,-1.2172 0.1878,-1.834 0,-0.1121 0.0043,-0.2281 0.0082,-0.3402 0.0122,-0.4199 0.02,-0.841 0.0321,-1.2609 0.0398,-1.5059 0.084,-3.0149 0.1199,-4.5239 0.016,-0.541 0.032,-1.082 0.0441,-1.6222 0.0122,-0.5207 0.0243,-1.0649 -0.0679,-1.5778"
         style="fill:#9e7c51;fill-opacity:1;fill-rule:nonzero;stroke:none;stroke-width:0.1"
         id="path1920" />
      <path
         d="m 57.5758,126.677 c -0.0399,-2.07 -0.0762,-4.136 -0.116,-6.206 -0.1524,0.337 -0.3043,0.677 -0.4606,1.013 -0.0398,-0.444 -0.0922,-0.885 -0.148,-1.325 -0.6086,-4.761 -2.1063,-9.409 -4.4004,-13.625 -0.0602,0.188 -0.1242,0.372 -0.1883,0.56 -0.6086,-1.133 -1.2211,-2.262 -1.8336,-3.391 -0.1601,-0.292 -0.6726,-0.545 -0.7168,-0.212 -0.7406,-1.506 -1.4855,-3.007 -2.2301,-4.5129 -0.4004,-0.8039 -0.8007,-1.6531 -1.0371,-2.5222 -0.216,-0.8008 -0.2883,-1.618 -0.0801,-2.4219 0.2524,-0.9649 0.8809,-1.7781 1.4336,-2.607 0.2442,-0.3641 0.4805,-0.745 0.6606,-1.145 0.1723,-0.3601 0.3004,-0.741 0.3644,-1.1328 0.0797,-0.5012 0.036,-1.0371 -0.1601,-1.5023 -0.0922,-0.236 -0.2285,-0.452 -0.4004,-0.6399 l -0.1602,-0.1558 c -0.5886,-0.5012 -1.4093,-0.5973 -2.1781,-0.6571 -0.2363,-0.0199 -0.4726,-0.0359 -0.709,-0.048 -1.157,-0.0762 -2.3179,-0.1121 -3.4754,-0.1121 -1.2929,0 -2.7746,0.1558 -3.7433,0.9129 l -0.0762,0.0601 c -0.2523,0.2039 -0.4684,0.4602 -0.6324,0.768 -0.0602,0.1129 -0.1082,0.2289 -0.1485,0.3449 -0.0679,0.184 -0.116,0.3762 -0.148,0.5723 v 0.0039 c -0.084,0.4969 -0.0723,1.0211 -0.0602,1.5258 0.0039,0.2203 0.0122,0.4441 0.0161,0.6652 0.0484,1.8289 0.1003,3.6551 0.1484,5.4809 0.0117,0.4199 0.0199,0.841 0.032,1.2609 0.0039,0.1121 0.0078,0.2281 0.0117,0.3402 0.0161,0.6168 0.0524,1.234 0.1844,1.834 0.2723,1.2129 0.9289,2.2939 1.4774,3.4109 0.6367,1.298 1.1293,2.663 1.4695,4.068 -0.1242,-0.26 -0.3723,-0.464 -0.6606,-0.512 0.6407,1.461 1.277,2.927 1.9176,4.392 -0.2281,-0.336 -0.5722,-0.584 -0.9609,-0.693 0.8648,2.791 3.3715,4.977 3.768,7.86 -0.0723,-0.344 -0.3247,-0.645 -0.6528,-0.765 0.2602,1.154 0.5364,2.331 0.9367,3.444 0.4204,1.185 0.9852,2.298 1.8219,3.231 0.6727,0.753 1.4934,1.353 2.3344,1.906 1.7418,1.153 3.5953,2.138 5.5254,2.935 0.7805,0.324 1.7137,0.604 2.4262,0.156 0.7968,-0.505 0.8648,-1.618 0.8488,-2.559"
         style="fill:#9e7c51;fill-opacity:1;fill-rule:nonzero;stroke:none;stroke-width:0.1"
         id="path1922" />
      <path
         d="m 32.5395,128.379 c -3.6915,2.066 -7.311,4.252 -10.8586,6.554 -0.0039,0 -0.0079,0 -0.0121,0 -0.2715,0 -0.5157,-0.264 -0.4844,-0.536 -1.009,0.901 -1.8375,1.998 -2.4223,3.211 -0.3965,-0.289 -0.7008,-0.701 -0.8605,-1.161 -0.7852,1.057 -1.3657,2.242 -1.7782,3.491 v 0 c -0.0078,0.216 -0.016,0.436 -0.0199,0.657 -0.0359,-0.096 -0.068,-0.188 -0.0961,-0.285 v -0.004 0 0.004 c 0.0281,0.097 0.0602,0.189 0.0961,0.285 v 0.004 c 0.0723,0.208 0.1481,0.416 0.2285,0.62 0.0641,0.16 0.1278,0.317 0.2,0.473 l 0.0082,0.02 0.1039,0.228 c 0.0883,0.192 0.1801,0.38 0.2762,0.565 0.0883,0.172 0.1805,0.344 0.2766,0.512 v 0 c 0.2039,-0.761 0.464,-1.505 0.7844,-2.226 0.3285,0.977 0.7488,1.918 1.2574,2.811 0.2601,-1.954 0.8328,-3.864 1.6894,-5.638 0.2684,0.34 0.5407,0.677 0.8129,1.017 1.1813,-1.946 2.5387,-3.784 4.0481,-5.489 -0.0883,0.52 0.0519,1.077 0.3683,1.501 1.4492,-1.637 4.0598,-3.631 5.6977,-5.081 0.2867,0.55 -0.152,1.358 0.4551,1.358 0.0031,0 0.0062,0 0.0089,0 0.7731,-0.845 1.5055,-1.718 2.1985,-2.627 -0.7969,0.112 -1.5778,0.372 -2.2781,0.765 0.1,-0.341 0.2,-0.685 0.3,-1.029"
         style="fill:#91724b;fill-opacity:1;fill-rule:nonzero;stroke:none;stroke-width:0.1"
         id="path1924" />
      <path
         d="m 42.293,129.404 c -0.052,0.4 0.3441,0.709 0.4644,1.093 0.0563,0.18 -0.0558,0.368 -0.2004,0.48 0.6727,1.178 1.3575,2.347 2.0461,3.512 0.2121,-0.785 0.3364,-1.59 0.3766,-2.399 0.8808,1.63 1.7617,3.26 2.6387,4.889 -0.0602,-1.165 -0.0364,-2.338 0.0796,-3.499 0.9692,1.713 1.9422,3.431 2.911,5.145 0.6207,-0.897 0.8527,-2.05 0.6285,-3.115 1.025,2.654 2.0543,5.305 3.0793,7.959 0.3441,-0.548 0.6043,-1.149 0.7727,-1.773 0.148,0.528 0.2921,1.061 0.4242,1.597 v 0 c 0.9289,-1.341 1.7418,-2.754 2.4304,-4.228 l 0.1204,-0.256 -0.1204,0.256 c 0.0122,-0.168 0.0161,-0.336 0.0161,-0.508 -0.3325,-0.773 -0.8411,-1.442 -1.6137,-1.726 -0.7969,-0.292 -1.7535,-0.112 -2.4582,-0.589 -0.5445,-0.368 -0.8086,-1.045 -1.3453,-1.417 -0.1469,-0.1 -0.3305,-0.145 -0.5149,-0.145 -0.4933,0 -0.9933,0.321 -0.8183,0.762 -0.7289,-1.017 -1.4618,-2.034 -2.1903,-3.051 -0.016,0.857 -0.0281,1.717 -0.0441,2.574 -0.4125,-0.504 -0.8246,-1.009 -1.241,-1.513 -1.0211,-1.249 -2.05,-2.495 -3.0789,-3.74 -0.0602,0.416 -0.1203,0.833 -0.1805,1.245 -0.8367,-0.332 -1.5934,-0.869 -2.182,-1.553"
         style="fill:#91724b;fill-opacity:1;fill-rule:nonzero;stroke:none;stroke-width:0.1"
         id="path1926" />
      <path
         d="m 17.3449,162.12 c -0.132,-0.189 -0.2562,-0.385 -0.3804,-0.577 0.1043,0.208 0.2281,0.4 0.3804,0.577"
         style="fill:#9e7c51;fill-opacity:1;fill-rule:nonzero;stroke:none;stroke-width:0.1"
         id="path1928" />
      <path
         d="m 58.3086,153.703 c 0.4043,-1.573 0.6484,-3.187 0.7246,-4.808 -0.2883,0.52 -0.6887,0.977 -1.1609,1.337 -0.1403,-0.448 -0.2524,-0.905 -0.3285,-1.369 -0.1641,-0.981 -0.1801,-1.986 -0.0481,-2.975 -0.2082,0.096 -0.4004,0.22 -0.5766,0.372 -0.2441,0.2 -0.4484,0.453 -0.5964,0.733 -0.2286,-1.241 -0.4965,-2.474 -0.809,-3.7 -0.1321,-0.536 -0.2762,-1.069 -0.4242,-1.597 -0.1684,0.624 -0.4286,1.225 -0.7727,1.773 -1.025,-2.654 -2.0543,-5.305 -3.0793,-7.959 0.2242,1.065 -0.0078,2.218 -0.6285,3.115 -0.9688,-1.714 -1.9418,-3.432 -2.911,-5.145 -0.116,1.161 -0.1398,2.334 -0.0796,3.499 -0.877,-1.629 -1.7579,-3.259 -2.6387,-4.889 -0.0402,0.809 -0.1645,1.614 -0.3766,2.399 -0.6886,-1.165 -1.3734,-2.334 -2.0461,-3.512 -0.2601,-0.448 -0.5164,-0.896 -0.7726,-1.349 -0.0321,0.585 -0.0641,1.169 -0.1,1.754 -0.861,-0.869 -1.5696,-1.894 -2.0781,-3.007 -0.1442,0.636 -0.2883,1.277 -0.4325,1.918 -0.8847,-1.578 -1.3011,-3.416 -1.189,-5.221 -0.2762,0.604 -0.5485,1.205 -0.8246,1.809 -0.1043,-0.544 -0.2043,-1.085 -0.3082,-1.625 -0.7168,1.169 -1.4977,2.298 -2.3344,3.387 -0.693,0.909 -1.4254,1.782 -2.1985,2.627 -0.6203,0.008 -0.1761,-0.805 -0.464,-1.358 -1.6379,1.45 -4.2485,3.444 -5.6977,5.081 -0.3164,-0.424 -0.4566,-0.981 -0.3683,-1.501 -1.5094,1.705 -2.8668,3.543 -4.0481,5.489 -0.2722,-0.34 -0.5445,-0.677 -0.8129,-1.017 -0.8566,1.774 -1.4293,3.684 -1.6894,5.638 -0.5086,-0.893 -0.9289,-1.834 -1.2574,-2.811 -0.3204,0.721 -0.5805,1.465 -0.7844,2.226 -0.0364,0.128 -0.0684,0.26 -0.1004,0.392 -0.0277,0.113 -0.052,0.229 -0.0762,0.345 l -0.0039,0.016 v 0.008 c -0.048,0.224 -0.0922,0.456 -0.132,0.684 l -0.0239,0.157 -0.0242,0.16 c -0.0199,0.12 -0.0359,0.24 -0.048,0.356 l -0.0039,0.044 -0.0082,0.044 c -0.016,0.152 -0.0321,0.305 -0.0438,0.457 -0.0281,0.296 -0.0441,0.592 -0.0523,0.888 -0.0238,0.845 0.0242,1.694 0.1402,2.531 -0.5726,-0.777 -1.057,-1.614 -1.4492,-2.494 0.2562,1.837 0.5125,3.679 0.7684,5.517 -0.1399,-0.124 -0.2801,-0.252 -0.4204,-0.381 -0.3082,-0.276 -0.6207,-0.556 -0.9289,-0.836 0.0922,1.721 0.4446,3.431 1.0371,5.049 -0.5605,-0.617 -1.0289,-1.31 -1.3972,-2.054 0.8605,3.263 2.3101,6.37 4.2558,9.128 -0.5203,-0.168 -0.9886,-0.492 -1.341,-0.908 0.8688,1.289 1.8535,2.502 2.9387,3.619 0.2684,0.28 0.5484,0.557 0.8328,0.821 0.2645,0.256 0.5324,0.5 0.809,0.737 0.7726,0.676 1.5812,1.309 2.4301,1.889 l 0.2445,0.165 c 0.1281,0.092 0.2602,0.176 0.3922,0.264 0.8687,0.56 1.7738,1.077 2.7066,1.529 0.1801,0.092 0.3645,0.18 0.5485,0.264 -0.3922,0.245 -0.7844,0.493 -1.1731,0.741 0.3004,-0.016 0.5965,-0.036 0.8969,-0.064 1.5137,-0.128 3.0148,-0.364 4.4922,-0.717 -0.4961,0.477 -0.9969,0.957 -1.4934,1.434 1.2012,-0.1 2.3864,-0.373 3.5074,-0.805 -0.296,0.509 -0.5964,1.017 -0.8925,1.522 1.0367,-0.421 1.9937,-1.037 2.8023,-1.81 0.1965,0.428 0.2606,0.921 0.1844,1.389 0.4683,-0.436 0.7008,-1.113 0.5965,-1.746 1.173,0.317 2.3465,0.629 3.5195,0.945 -0.4363,-0.588 -0.9809,-1.097 -1.6055,-1.485 1.3453,0.348 2.6907,0.693 4.036,1.041 0.2519,0.064 0.5082,0.132 0.7605,0.196 -0.4363,-0.132 -0.8289,-0.404 -1.109,-0.765 0.4883,-0.108 0.977,-0.228 1.4575,-0.372 0.3683,-0.1 0.7367,-0.216 1.0968,-0.344 0.1922,-0.064 0.3805,-0.132 0.5649,-0.205 h 0.0039 c 0.3523,-0.128 0.6965,-0.268 1.041,-0.42 0.8648,-0.364 1.7055,-0.789 2.5184,-1.265 h 0.0039 c 0.3004,-0.176 0.5964,-0.356 0.889,-0.545 0.3039,-0.192 0.6043,-0.396 0.8969,-0.612 0.4602,-0.325 0.9086,-0.669 1.3453,-1.029 -0.3887,0.12 -0.7769,0.236 -1.1652,0.352 2.5105,-2.058 4.6203,-4.6 6.1777,-7.447 -0.4683,0.296 -0.9367,0.596 -1.409,0.893 1.7496,-2.014 2.8867,-4.553 3.2231,-7.195 -0.4407,-0.004 -0.8731,0.236 -1.1051,0.608"
         style="fill:#9e7c51;fill-opacity:1;fill-rule:nonzero;stroke:none;stroke-width:0.1"
         id="path1930" />
      <path
         d="m 37.0113,129.846 c -1.334,2.239 -2.7574,4.426 -4.266,6.552 -0.0117,-0.37 -0.0238,-0.739 -0.0355,-1.109 -0.884,1.506 -1.8461,2.966 -2.8817,4.373 -0.0312,-0.358 -0.0629,-0.716 -0.0941,-1.074 -1.6195,2.288 -2.8055,4.882 -3.4766,7.604 -0.2695,-0.454 -0.539,-0.908 -0.8086,-1.362 -0.8566,1.897 -1.189,4.028 -0.9508,6.095 -0.307,-0.727 -0.6144,-1.455 -0.9218,-2.182 -0.2949,3.342 -0.0071,6.734 0.8468,9.978 -0.2976,-0.323 -0.5953,-0.646 -0.8925,-0.97 0.2218,0.795 0.4441,1.59 0.6664,2.385 -0.5422,-0.579 -1.084,-1.158 -1.6266,-1.737 0.7656,2.336 2.1039,4.483 3.8645,6.2 -0.3422,0.101 -0.6848,0.203 -1.0274,0.304 0.5606,0.113 1.1321,0.17 1.7039,0.17 0.9375,0 1.8754,-0.152 2.7637,-0.452 -0.7637,0.534 -1.4687,1.152 -2.0977,1.839 2.2059,-0.503 4.3157,-1.425 6.1844,-2.7 -0.3472,0.871 -0.6367,1.766 -0.8652,2.675 0.8898,-0.694 1.6883,-1.506 2.3672,-2.408 0.2808,0.636 0.7058,1.372 1.4004,1.379 0.014,-0.599 0.0277,-1.199 0.0418,-1.798 0.6687,0.6 1.4164,1.113 2.2175,1.521 -0.073,-0.233 -0.1461,-0.465 -0.2191,-0.697 1.1969,0.727 2.5832,1.205 3.9734,1.205 0.3094,0 0.6192,-0.024 0.927,-0.074 1.9488,-0.316 3.6152,-1.648 4.7664,-3.253 1.1512,-1.604 1.8586,-3.476 2.5539,-5.325 -0.475,0.373 -0.9496,0.745 -1.4246,1.117 0.6266,-1.547 1.1019,-3.155 1.4176,-4.794 -0.4645,0.535 -0.9289,1.071 -1.3934,1.606 0.3633,-2.376 0.3629,-4.808 -0.0012,-7.184 -0.4468,0.4 -0.7992,0.904 -1.0207,1.461 0.3645,-3.006 -0.3582,-6.133 -2.0047,-8.675 -0.2832,0.397 -0.4617,0.868 -0.5132,1.354 -1.0403,-1.879 -2.011,-3.797 -2.9094,-5.748 -0.0852,0.556 -0.1703,1.112 -0.2555,1.667 -1.0543,-1.603 -1.9562,-3.305 -2.6914,-5.077 -0.1324,0.48 -0.2648,0.96 -0.3976,1.439 -0.7536,-0.65 -1.2735,-1.566 -1.4465,-2.547 -0.3656,0.538 -0.6614,1.124 -0.8778,1.737 -0.3859,-1.122 -0.5878,-2.308 -0.5953,-3.495 M 36.7891,141.2 c 0.1906,-0.29 0.3808,-0.58 0.5714,-0.87 0.2336,0.368 0.5067,0.711 0.8137,1.02 -0.0019,-0.197 0.1184,-0.391 0.2965,-0.475 0.9516,1.021 1.9856,1.967 3.0887,2.823 -0.0989,-0.18 -0.0614,-0.425 0.0871,-0.567 1.616,1.199 2.5789,3.228 2.4855,5.239 -0.0097,-0.004 -0.0191,-0.008 -0.0285,-0.011 0.0094,0.198 0.018,0.397 0.0512,0.592 0.1402,0.809 0.6687,1.489 1.1773,2.13 -0.905,-0.348 -1.7015,-0.981 -2.2343,-1.794 0.0203,0.397 0.0402,0.789 0.064,1.185 -0.2121,-0.624 -0.6804,-1.153 -1.273,-1.433 0.1039,0.777 -0.1203,1.589 -0.6008,2.206 -0.0559,-0.272 -0.7926,-1.826 -1.0449,-1.95 -0.3235,0.39 -0.5594,1.007 -0.9278,1.354 0.0239,0.037 0.0453,0.075 0.0637,0.115 0.0953,0.21 0.082,0.486 -0.0894,0.64 -0.1098,0.099 -0.2618,0.133 -0.4063,0.162 -0.6523,0.135 -1.309,0.27 -1.9738,0.301 -0.6645,-0.031 -1.3215,-0.166 -1.9739,-0.301 -0.1445,-0.029 -0.2964,-0.063 -0.4062,-0.162 -0.1715,-0.154 -0.1848,-0.43 -0.0895,-0.64 0.0313,-0.069 0.0715,-0.132 0.118,-0.19 -0.4344,-0.324 -0.8301,-0.702 -1.1734,-1.119 -0.0242,0.313 -0.1723,0.613 -0.4004,0.829 -0.2805,-0.4 -0.5645,-0.801 -0.8449,-1.201 -0.0961,-0.132 -0.2121,-0.276 -0.3762,-0.276 -0.3484,0.004 -0.3723,0.632 -0.7168,0.696 -0.0883,-0.196 -0.0039,-0.416 0.0199,-0.628 0.0238,-0.211 -0.0785,-0.481 -0.2875,-0.481 -0.0015,0 -0.0031,0 -0.0047,0 l -0.2324,0.1 c -0.6285,0.413 -1.2531,0.829 -1.8816,1.246 0.2992,-0.505 0.598,-1.01 0.8988,-1.515 -0.0453,0.026 -0.0898,0.053 -0.1344,0.081 0.0641,-1.056 0.1887,-2.238 1.0055,-2.91 0.3383,-0.279 0.7594,-0.433 1.1355,-0.658 0.7797,-0.464 1.343,-1.21 1.8856,-1.938 v 0 0 c -0.0641,0.135 0.0898,0.284 0.2387,0.284 0.0093,0 0.0191,-0.001 0.0285,-0.002 0.1566,-0.021 0.2754,-0.148 0.38,-0.266 0.7188,-0.817 1.4372,-1.634 2.1559,-2.45 0.0441,0.356 0.1774,0.804 0.5352,0.834 m 9.0097,16.865 c -0.7945,-0.331 -1.641,-0.537 -2.4992,-0.608 -0.6699,-0.055 -1.3488,-0.028 -2.0101,-0.15 -0.661,-0.122 -1.3266,-0.42 -1.7043,-0.976 -0.3711,-0.547 -0.4082,-1.248 -0.4122,-1.909 -0.005,-0.98 0.036,-1.961 0.1239,-2.937 0.0371,0.377 0.3078,0.698 0.6304,0.896 0.3231,0.198 0.6965,0.294 1.0622,0.393 1.5445,0.42 3.1832,1.048 4.0074,2.42 0.1304,0.217 0.1937,0.572 -0.0434,0.66 0.1594,0.22 0.2977,0.456 0.4113,0.704 -0.1375,0.051 -0.2753,0.103 -0.4128,0.155 0.1699,0.509 0.4628,0.977 0.8468,1.352 m -17.8597,0 c 0.3839,-0.375 0.6769,-0.843 0.8468,-1.352 -0.1375,-0.052 -0.2754,-0.104 -0.4129,-0.155 0.1137,-0.248 0.252,-0.484 0.4114,-0.704 -0.2367,-0.088 -0.1739,-0.443 -0.0434,-0.66 0.8242,-1.372 2.4629,-2 4.0078,-2.42 0.3653,-0.099 0.7387,-0.195 1.0617,-0.393 0.3227,-0.198 0.5934,-0.519 0.6305,-0.896 0.0879,0.976 0.1289,1.957 0.1238,2.937 -0.0039,0.661 -0.041,1.362 -0.4121,1.909 -0.3777,0.556 -1.0433,0.854 -1.7043,0.976 -0.6613,0.122 -1.3402,0.095 -2.0101,0.15 -0.8582,0.071 -1.7047,0.277 -2.4992,0.608"
         style="fill:#a88963;fill-opacity:1;fill-rule:nonzero;stroke:none;stroke-width:0.1"
         id="path1932" />
      <path
         d="m 30.3336,87.4109 c -1.6137,0.6332 -3.2313,1.2653 -4.8488,1.8981 v 0 c 0.1558,0.7652 0.5562,1.4652 0.989,2.118 0.5563,0.8289 1.1852,1.6421 1.4371,2.607 0.0801,0.3039 0.1204,0.6082 0.1243,0.9121 0.1601,0.4371 0.2964,0.8848 0.4086,1.3379 0.1921,0.7879 0.316,1.593 0.3562,2.4058 0.0641,-0.8007 0.0922,-1.6007 0.0801,-2.4019 -0.0082,-1.0289 -0.0762,-2.0617 -0.2082,-3.0828 0.5484,0.6359 1.1008,1.273 1.6496,1.9101 0.068,-1.5261 -0.0203,-3.055 -0.2602,-4.5652 0.7285,0.2852 1.3492,0.8332 1.7176,1.5219 0.1121,-0.5649 0.2242,-1.125 0.3363,-1.686 0.7926,0.5852 1.4414,1.361 1.8739,2.2461 0.08,-0.7121 0.1558,-1.4289 0.2363,-2.1461 0.0551,-0.0449 0.1113,-0.064 0.1676,-0.064 0.2492,0 0.4879,0.3902 0.5367,0.7011 0.2644,1.729 0.3805,3.479 0.3363,5.229 0.8051,-1.834 1.1211,-3.8801 0.9051,-5.87 0.0543,-0.0148 0.1066,-0.0218 0.1574,-0.0218 0.2531,0 0.4625,0.18 0.6192,0.4269 -0.0039,-0.2211 -0.0122,-0.4449 -0.0161,-0.6652 -0.0121,-0.5047 -0.0238,-1.0289 0.0602,-1.5258 v 0 c -0.7527,0.1531 -1.4652,0.4969 -2.0379,1.009 -0.1844,-0.4602 -0.3723,-0.9199 -0.5566,-1.3809 -0.5285,0.4117 -1.1571,0.693 -1.8176,0.8047 -0.3125,-0.316 -0.4727,-0.7769 -0.4207,-1.2207 -0.3961,0.484 -0.9848,0.8 -1.6012,0.8637 -0.1965,-0.4239 -0.2765,-0.9 -0.2242,-1.361"
         style="fill:#97774e;fill-opacity:1;fill-rule:nonzero;stroke:none;stroke-width:0.1"
         id="path1934" />
      <path
         d="m 43.2938,87.275 c -0.1559,0.5129 -0.3122,1.025 -0.4684,1.5379 -0.2051,-0.6949 -0.9094,-1.0367 -1.6184,-1.0367 -0.7453,0 -1.4961,0.3777 -1.6765,1.1207 -0.5071,-0.202 -1.0477,-0.3008 -1.5918,-0.3008 -0.2211,0 -0.4426,0.016 -0.6625,0.048 -0.0922,0.0118 -0.1883,0.0278 -0.2844,0.0481 v 0 0.0039 0 c -0.084,0.4969 -0.0723,1.0211 -0.0602,1.5258 0.0039,0.2203 0.0122,0.4441 0.0161,0.6652 v 0 c 0.1441,0.2199 0.2484,0.4961 0.3043,0.7438 l 0.048,0.2132 c 0.3004,1.325 0.6047,2.6539 0.909,3.9829 -0.1039,-2.6258 1.3012,-5.261 3.5433,-6.6301 -0.2043,0.773 -0.2679,1.5812 -0.1839,2.3781 0.5363,-0.7129 1.2492,-1.293 2.0578,-1.673 0.0402,0.7199 0.0801,1.4449 0.1242,2.166 0.5887,-1.27 1.6894,-2.291 2.9988,-2.7789 0,1.3531 -0.3922,2.707 -1.1129,3.8519 0.9407,-0.9531 1.8817,-1.9058 2.8227,-2.859 0.1723,-0.3601 0.3004,-0.741 0.3644,-1.1328 0.025,-0.157 0.0379,-0.316 0.0375,-0.4773 0,-0.352 -0.0629,-0.7047 -0.1976,-1.025 v 0 c -0.1723,0.573 -0.3485,1.1453 -0.5246,1.7183 -0.3125,-0.4843 -0.6606,-0.9972 -1.1934,-1.2132 -0.1277,-0.052 -0.2683,-0.0758 -0.409,-0.0758 -0.4508,0 -0.9054,0.2519 -0.9601,0.689 -0.6246,-0.6773 -1.4172,-1.1941 -2.2824,-1.4902"
         style="fill:#97774e;fill-opacity:1;fill-rule:nonzero;stroke:none;stroke-width:0.1"
         id="path1936" />
      <path
         d="m 21.927,167.298 c -0.4711,3.089 -0.3579,6.267 0.3343,9.314 0.6946,-1.577 1.5832,-3.061 2.4696,-4.539 -0.4313,0.12 -0.843,0.308 -1.2161,0.555 0.2672,-0.58 0.5754,-1.141 0.9211,-1.678 -0.3046,0.125 -0.6097,0.251 -0.9148,0.377 0.4566,-0.599 0.9484,-1.171 1.4727,-1.711 -4e-4,-0.001 -0.0012,-0.001 -0.0016,-0.001 -0.132,-0.088 -0.2641,-0.172 -0.3922,-0.264 l -0.0027,-0.002 c -0.1723,0.054 -0.3418,0.116 -0.5082,0.186 0.0855,-0.119 0.1742,-0.235 0.266,-0.349 -0.8481,-0.58 -1.6563,-1.212 -2.4281,-1.888"
         style="fill:#5d4c36;fill-opacity:1;fill-rule:nonzero;stroke:none;stroke-width:0.1"
         id="path1938" />
      <path
         d="m 22.0137,166.768 c -0.0309,0.176 -0.0598,0.353 -0.0867,0.53 0.7718,0.676 1.58,1.308 2.4281,1.888 0.284,-0.353 0.5969,-0.683 0.9347,-0.985 -1.1808,-0.225 -2.3093,-0.719 -3.2761,-1.433 m 3.4543,2.375 c -0.295,0.047 -0.5864,0.116 -0.8707,0.206 l 0.0027,0.002 c 0.1281,0.092 0.2602,0.176 0.3922,0.264 4e-4,0 0.0012,0 0.0016,0.001 0.155,-0.161 0.3132,-0.318 0.4742,-0.473"
         style="fill:#5d4c36;fill-opacity:1;fill-rule:nonzero;stroke:none;stroke-width:0.1"
         id="path1940" />
      <path
         d="m 49.457,168.677 c -4e-4,0 -7e-4,0.001 -0.0011,0.001 H 49.452 c -0.8122,0.476 -1.6524,0.9 -2.5165,1.264 -0.0035,0.613 -0.0925,1.226 -0.2652,1.815 0.1879,-0.358 0.4961,-0.652 0.8633,-0.822 -0.1734,0.68 -0.2391,1.388 -0.193,2.088 0.1004,-0.539 0.3727,-1.046 0.7676,-1.427 -0.1555,1.683 8e-4,3.395 0.4594,5.021 0.3015,-0.544 0.3984,-1.175 0.4789,-1.793 0.2652,-2.037 0.4023,-4.092 0.4105,-6.147 m -3.5566,1.684 c -0.0027,0.001 -0.0055,0.002 -0.0078,0.002 h -0.0039 c -0.1844,0.073 -0.3727,0.141 -0.5649,0.205 -0.0023,10e-4 -0.005,0.002 -0.0078,0.002 -0.0211,0.051 -0.0414,0.102 -0.0605,0.153 0.2281,-0.095 0.4445,-0.217 0.6449,-0.362"
         style="fill:#5d4c36;fill-opacity:1;fill-rule:nonzero;stroke:none;stroke-width:0.1"
         id="path1942" />
      <path
         d="m 49.4121,166.364 c -1.425,1.369 -3.334,2.401 -4.0961,4.206 0.0028,0 0.0055,-0.001 0.0078,-0.002 0.1922,-0.064 0.3805,-0.132 0.5649,-0.205 h 0.0039 c 0.0023,0 0.0051,-0.001 0.0078,-0.002 0.4168,-0.302 0.7633,-0.701 0.9976,-1.16 0.0266,0.246 0.0391,0.494 0.0375,0.741 0.8641,-0.364 1.7043,-0.788 2.5165,-1.264 h 0.0039 c 4e-4,0 7e-4,-0.001 0.0011,-0.001 0.0032,-0.771 -0.0117,-1.543 -0.0449,-2.313"
         style="fill:#5d4c36;fill-opacity:1;fill-rule:nonzero;stroke:none;stroke-width:0.1"
         id="path1944" />
      <path
         d="m 37.3605,140.33 c -0.1906,0.29 -0.3808,0.58 -0.5714,0.87 -0.3578,-0.03 -0.4911,-0.478 -0.5352,-0.834 -0.7187,0.816 -1.4371,1.633 -2.1559,2.45 -0.1046,0.118 -0.2234,0.245 -0.38,0.266 -0.0094,0.001 -0.0192,0.002 -0.0285,0.002 -0.1489,0 -0.3028,-0.149 -0.2387,-0.284 -0.5426,0.728 -1.1059,1.474 -1.8856,1.938 -0.3761,0.225 -0.7972,0.379 -1.1355,0.658 -0.8168,0.672 -0.9414,1.854 -1.0055,2.91 0.0446,-0.028 0.0891,-0.055 0.1344,-0.081 0.1258,-0.212 0.2519,-0.424 0.3785,-0.636 0.3641,-0.616 0.7606,-1.265 1.3934,-1.617 0.5246,-0.288 1.1488,-0.336 1.7015,-0.573 0.0961,-0.04 0.1883,-0.084 0.2762,-0.136 v 0 0 c 0.3164,-0.164 0.6047,-0.384 0.8969,-0.584 0.8871,-0.616 1.9875,-1.129 3.0281,-1.129 0.4625,0 0.9133,0.101 1.3281,0.34 0.4125,0.236 0.7407,0.588 1.125,0.865 0.2563,0.18 0.4727,0.384 0.7008,0.556 v 0 0 c 0.2563,0.192 0.5285,0.349 0.8809,0.373 0.4523,0.032 0.9328,-0.012 1.3211,0.212 0.2086,0.12 0.3726,0.304 0.5125,0.5 0.3925,0.553 0.9132,0.953 0.9812,1.63 0.0102,0.11 0.0152,0.222 0.0207,0.333 0.0094,0.003 0.0188,0.007 0.0285,0.011 0.0934,-2.011 -0.8695,-4.04 -2.4855,-5.239 -0.1485,0.142 -0.186,0.387 -0.0871,0.567 -1.1031,-0.856 -2.1371,-1.802 -3.0887,-2.823 -0.1781,0.084 -0.2984,0.278 -0.2965,0.475 -0.307,-0.309 -0.5801,-0.652 -0.8137,-1.02"
         style="fill:#9a7e5c;fill-opacity:1;fill-rule:nonzero;stroke:none;stroke-width:0.1"
         id="path1946" />
      <path
         d="m 45.332,151.081 c -0.5086,-0.641 -1.0371,-1.321 -1.1773,-2.13 -0.052,-0.305 -0.0442,-0.617 -0.0719,-0.925 -0.068,-0.677 -0.5887,-1.077 -0.9812,-1.63 -0.1399,-0.196 -0.3039,-0.38 -0.5125,-0.5 -0.3883,-0.224 -0.8688,-0.18 -1.3211,-0.212 -0.3524,-0.024 -0.6246,-0.181 -0.8809,-0.373 -0.2281,-0.172 -0.4445,-0.376 -0.7008,-0.556 -0.3843,-0.277 -0.7125,-0.629 -1.125,-0.865 -1.3492,-0.777 -3.075,-0.1 -4.3562,0.789 -0.2922,0.2 -0.5805,0.42 -0.8969,0.584 -0.0879,0.052 -0.1801,0.096 -0.2762,0.136 -0.5527,0.237 -1.1769,0.285 -1.7015,0.573 -0.6328,0.352 -1.0293,1.001 -1.3934,1.617 -0.4285,0.717 -0.8527,1.434 -1.2773,2.151 0.6285,-0.417 1.2531,-0.833 1.8816,-1.246 l 0.2324,-0.1 c 0.2121,-0.004 0.3164,0.269 0.2922,0.481 -0.0238,0.212 -0.1082,0.432 -0.0199,0.628 0.3445,-0.064 0.3684,-0.692 0.7168,-0.696 0.1641,0 0.2801,0.144 0.3762,0.276 0.2804,0.4 0.5644,0.801 0.8449,1.201 0.2281,-0.216 0.3762,-0.516 0.4004,-0.829 0.3926,0.477 0.8527,0.901 1.3613,1.254 0.3484,0.236 0.9527,0.364 1.077,-0.037 0.2382,0.323 0.4125,0.244 0.5867,0.165 0.1742,-0.079 0.348,-0.159 0.5867,0.164 0.2707,-0.37 0.5809,-0.312 0.9344,-0.254 0.2633,0.044 0.5504,0.087 0.8629,-0.047 -0.0399,0.149 0.064,0.049 0.0242,0.201 0.6969,-0.088 0.9769,-1.065 1.4254,-1.606 0.2523,0.124 0.989,1.678 1.0449,1.95 0.4805,-0.617 0.7047,-1.429 0.6008,-2.206 0.5926,0.28 1.0609,0.809 1.273,1.433 -0.0238,-0.396 -0.0437,-0.788 -0.064,-1.185 0.5328,0.813 1.3293,1.446 2.2343,1.794"
         style="fill:#ffffff;fill-opacity:1;fill-rule:nonzero;stroke:none;stroke-width:0.1"
         id="path1948" />
      <path
         d="m 36.9094,148.655 -0.0821,-0.01 c -0.1156,0.011 -0.1941,0.122 -0.2418,0.228 -0.1339,0.301 -0.15,0.642 -0.2609,0.952 -0.1113,0.31 -0.3762,0.612 -0.7051,0.59 -0.0765,-0.102 -0.1207,-0.228 -0.1238,-0.356 -0.2059,-0.076 -0.4254,0.059 -0.598,0.195 -0.1813,0.142 -0.3622,0.3 -0.4579,0.51 -0.0953,0.21 -0.082,0.486 0.0895,0.64 0.1098,0.099 0.2617,0.133 0.4062,0.162 0.6524,0.135 1.3094,0.27 1.9739,0.301 0.6648,-0.031 1.3215,-0.166 1.9738,-0.301 0.1445,-0.029 0.2965,-0.063 0.4063,-0.162 0.1714,-0.154 0.1847,-0.43 0.0894,-0.64 -0.0953,-0.21 -0.2766,-0.368 -0.4578,-0.51 -0.1727,-0.136 -0.3922,-0.271 -0.5981,-0.195 -0.0031,0.128 -0.0468,0.254 -0.1238,0.356 -0.3289,0.022 -0.5937,-0.28 -0.7047,-0.59 -0.1113,-0.31 -0.1269,-0.651 -0.2613,-0.952 -0.0473,-0.106 -0.1262,-0.217 -0.2418,-0.228 l -0.082,0.01"
         style="fill:#7b6a58;fill-opacity:1;fill-rule:nonzero;stroke:none;stroke-width:0.1"
         id="path1950" />
      <path
         d="m 34.441,151.485 c -0.0371,0.377 -0.3078,0.698 -0.6305,0.896 -0.323,0.198 -0.6964,0.294 -1.0617,0.393 -1.5449,0.42 -3.1836,1.048 -4.0078,2.42 -0.1305,0.217 -0.1933,0.572 0.0434,0.66 -0.1594,0.22 -0.2977,0.456 -0.4114,0.704 0.1375,0.051 0.2754,0.103 0.4129,0.155 -0.1699,0.509 -0.4629,0.977 -0.8468,1.352 0.7945,-0.331 1.641,-0.537 2.4992,-0.608 0.6699,-0.055 1.3488,-0.028 2.0101,-0.15 0.661,-0.122 1.3266,-0.42 1.7043,-0.976 0.3711,-0.547 0.4082,-1.248 0.4121,-1.909 0.0051,-0.98 -0.0359,-1.961 -0.1238,-2.937"
         style="fill:#9a7e5c;fill-opacity:1;fill-rule:nonzero;stroke:none;stroke-width:0.1"
         id="path1952" />
      <path
         d="m 39.2969,151.485 c -0.0879,0.976 -0.1289,1.957 -0.1239,2.937 0.004,0.661 0.0411,1.362 0.4122,1.909 0.3777,0.556 1.0433,0.854 1.7043,0.976 0.6613,0.122 1.3402,0.095 2.0101,0.15 0.8582,0.071 1.7047,0.277 2.4992,0.608 -0.384,-0.375 -0.6769,-0.843 -0.8468,-1.352 0.1375,-0.052 0.2753,-0.104 0.4128,-0.155 -0.1136,-0.248 -0.2519,-0.484 -0.4113,-0.704 0.2371,-0.088 0.1738,-0.443 0.0434,-0.66 -0.8242,-1.372 -2.4629,-2 -4.0074,-2.42 -0.3657,-0.099 -0.7391,-0.195 -1.0622,-0.393 -0.3226,-0.198 -0.5933,-0.519 -0.6304,-0.896"
         style="fill:#9a7e5c;fill-opacity:1;fill-rule:nonzero;stroke:none;stroke-width:0.1"
         id="path1954" />
      <path
         d="m 43.8844,154.821 c -0.1418,-0.389 -0.5004,-0.652 -0.8614,-0.849 -0.5292,-0.298 -1.1015,-0.506 -1.6957,-0.625 -0.5136,-0.101 -1.1148,-0.105 -1.4812,0.268 -0.2492,0.251 -0.334,0.628 -0.3227,0.983 0.0047,0.223 0.0457,0.446 0.1176,0.656 0.1985,0.598 0.6363,1.115 1.207,1.389 0.1497,0.073 0.3071,0.128 0.4672,0.164 0.6707,0.157 1.4125,0.008 1.9633,-0.411 0.4778,-0.367 0.8129,-1.01 0.6059,-1.575"
         style="fill:#ffffff;fill-opacity:1;fill-rule:nonzero;stroke:none;stroke-width:0.1"
         id="path1956" />
      <path
         d="m 42.2273,155.201 c -0.2093,-0.448 -0.6664,-0.747 -1.1523,-0.842 -0.2809,-0.055 -0.5781,-0.045 -0.8344,0.074 -0.2929,0.135 -0.5168,0.413 -0.5867,0.729 l -0.0129,0.092 c 0.1207,0.365 0.3336,0.706 0.6141,0.972 0.1461,0.143 0.3144,0.27 0.5,0.368 l 0.0929,0.049 c 0.1497,0.073 0.3071,0.128 0.4672,0.164 0.2438,-0.016 0.4813,-0.092 0.6664,-0.252 0.3762,-0.322 0.4575,-0.911 0.2457,-1.354"
         style="fill:#3aaa35;fill-opacity:1;fill-rule:nonzero;stroke:none;stroke-width:0.1"
         id="path1958" />
      <path
         d="m 41.0852,155.754 c 0.0343,-0.28 0.0211,-0.568 0.0039,-0.848 l -0.0375,-0.206 -0.1575,-0.118 -0.2128,0.154 c -0.2961,0.437 -0.445,0.967 -0.4262,1.49 0.1461,0.143 0.3144,0.27 0.5,0.368 l 0.0351,-0.047 c 0.1719,-0.227 0.259,-0.51 0.295,-0.793"
         style="fill:#3c3c3b;fill-opacity:1;fill-rule:nonzero;stroke:none;stroke-width:0.1"
         id="path1960" />
      <path
         d="m 42.4613,155.899 c -0.0836,0.235 -0.3789,0.369 -0.6109,0.277 -0.2262,-0.089 -0.3516,-0.374 -0.2649,-0.601 0.0868,-0.227 0.3704,-0.355 0.5981,-0.271 0.2277,0.084 0.3598,0.366 0.2777,0.595"
         style="fill:#ffffff;fill-opacity:1;fill-rule:nonzero;stroke:none;stroke-width:0.1"
         id="path1962" />
      <path
         d="m 34.1391,154.6 c 0.0078,-0.357 -0.0762,-0.733 -0.3246,-0.985 -0.368,-0.373 -0.9688,-0.369 -1.4813,-0.268 -0.5926,0.12 -1.1652,0.328 -1.6937,0.624 -0.3641,0.2 -0.7207,0.461 -0.8649,0.849 -0.2043,0.564 0.1281,1.209 0.6086,1.577 0.5484,0.417 1.2934,0.565 1.9621,0.409 0.1602,-0.036 0.316,-0.088 0.4684,-0.164 0.4082,-0.196 0.7527,-0.521 0.9847,-0.909 0.0922,-0.152 0.1645,-0.312 0.2204,-0.481 0.0402,-0.116 0.0722,-0.24 0.0921,-0.364 0.0161,-0.096 0.0239,-0.192 0.0282,-0.288"
         style="fill:#ffffff;fill-opacity:1;fill-rule:nonzero;stroke:none;stroke-width:0.1"
         id="path1964" />
      <path
         d="m 31.4332,155.201 c 0.2098,-0.448 0.6668,-0.747 1.1523,-0.842 0.2809,-0.055 0.5786,-0.045 0.8344,0.075 0.2934,0.135 0.5172,0.412 0.5871,0.728 l 0.0129,0.092 c -0.1211,0.365 -0.334,0.706 -0.614,0.972 -0.1461,0.144 -0.3149,0.27 -0.5004,0.369 l -0.0926,0.049 c -0.15,0.072 -0.307,0.128 -0.4672,0.164 -0.2437,-0.017 -0.4816,-0.093 -0.6664,-0.253 -0.3766,-0.322 -0.4574,-0.911 -0.2461,-1.354"
         style="fill:#3aaa35;fill-opacity:1;fill-rule:nonzero;stroke:none;stroke-width:0.1"
         id="path1966" />
      <path
         d="m 32.5754,155.754 c -0.034,-0.279 -0.0207,-0.568 -0.0035,-0.848 l 0.0375,-0.206 0.157,-0.117 0.2133,0.153 c 0.2957,0.438 0.4449,0.967 0.4262,1.49 -0.1461,0.144 -0.3149,0.27 -0.5004,0.369 l -0.0352,-0.048 c -0.1719,-0.226 -0.259,-0.509 -0.2949,-0.793"
         style="fill:#3c3c3b;fill-opacity:1;fill-rule:nonzero;stroke:none;stroke-width:0.1"
         id="path1968" />
      <path
         d="m 34.1109,154.888 c -0.1203,-0.076 -0.2683,-0.096 -0.4004,-0.048 -0.2281,0.084 -0.3601,0.368 -0.28,0.597 0.0558,0.156 0.2082,0.264 0.3679,0.296 0.0922,-0.152 0.1645,-0.312 0.2204,-0.481 0.0402,-0.116 0.0722,-0.24 0.0921,-0.364"
         style="fill:#ffffff;fill-opacity:1;fill-rule:nonzero;stroke:none;stroke-width:0.1"
         id="path1970" />
      <path
         d="m 37.2332,143.55 c -1.0406,0 -2.141,0.513 -3.0281,1.129 -0.2922,0.2 -0.5805,0.42 -0.8969,0.584 0.075,-0.002 0.1484,-0.002 0.2199,-0.002 2.9403,0 3.3918,1.462 3.4199,2.502 0.0715,-1.011 0.5235,-2.451 3.4391,-2.452 -0.2281,-0.172 -0.4445,-0.376 -0.7008,-0.556 -0.3843,-0.277 -0.7125,-0.629 -1.125,-0.865 -0.4148,-0.239 -0.8656,-0.34 -1.3281,-0.34 m -0.2852,4.213 c -0.0136,0.188 -0.0136,0.362 -0.014,0.508 0.0101,-0.148 0.0187,-0.321 0.014,-0.508 m -0.014,0.508 c -0.0113,0.162 -0.0246,0.294 -0.0246,0.384 0.023,-0.078 0.0242,-0.212 0.0246,-0.384"
         style="fill:#e8e8e8;fill-opacity:1;fill-rule:nonzero;stroke:none;stroke-width:0.1"
         id="path1972" />
      <path
         d="m 77.9594,85.7422 c -1.5094,0.1558 -3.0227,0.316 -4.5321,0.4758 -4.0441,0.4222 -8.1039,0.8468 -12.1644,0.8468 -0.9449,0 -1.8895,-0.0226 -2.8344,-0.0738 -0.6805,-0.0359 -1.3652,-0.0879 -2.05,-0.148 C 53.207,86.5602 50.023,86.1 46.8699,86.1 c -0.5523,0 -1.1039,0.0141 -1.6543,0.0461 0.2364,0.0121 0.4727,0.0281 0.709,0.048 0.7688,0.0598 1.5895,0.1559 2.1781,0.6571 l 0.1602,0.1558 c 0.1719,0.1879 0.3082,0.4039 0.4004,0.6399 v 0 l 0.0039,-0.0078 c 1.2812,0.8691 1.9699,2.539 1.6695,4.0558 0.9531,-0.8558 1.9059,-1.709 2.8586,-2.566 0.016,1.0172 0.0324,2.0383 0.0442,3.0551 1.6214,-1.2891 3.4476,-2.3231 5.389,-3.043 -0.2,0.925 -0.7086,1.7781 -1.4211,2.3981 0.8649,-0.336 1.7297,-0.6719 2.5985,-1.0051 0.0921,0.4769 0.0281,0.9812 -0.184,1.418 0.2679,-0.1321 0.5402,-0.2688 0.8086,-0.4051 0.5367,-0.2637 1.0691,-0.5317 1.6054,-0.8008 -0.0879,0.7691 -0.5722,1.4781 -1.2371,1.866 -0.1359,0.0758 -0.2761,0.1438 -0.4242,0.1918 0.1481,-0.032 0.3,-0.0598 0.4524,-0.0879 2.0738,-0.368 4.2,-0.3359 6.298,-0.5519 0.2043,-0.02 0.4086,-0.0442 0.6086,-0.0719 h 0.0082 c 0.9969,-0.557 1.9379,-1.2133 2.7906,-1.9703 -0.2844,-0.084 -0.5726,-0.1637 -0.8609,-0.2477 v 0 0 0 0 c 2.166,-0.6371 4.2801,-1.4422 6.3183,-2.4113 -0.2246,-0.0957 -0.4527,-0.1957 -0.6769,-0.2918 v 0 0 0 0 c 0.8809,-0.4762 1.7656,-0.9531 2.6465,-1.4289 m -54.2004,0.375 c -1.4414,0 -2.8774,0.0867 -4.3039,0.3168 -0.5387,0.0871 -1.1078,0.1879 -1.6535,0.1879 -0.5375,0 -1.0528,-0.0977 -1.4938,-0.4039 -0.3133,0.4492 -0.8613,0.705 -1.4023,0.705 -0.2403,0 -0.4789,-0.0511 -0.6957,-0.157 -0.1832,-0.0879 -0.3672,-0.1281 -0.5496,-0.1281 -0.8664,0 -1.6973,0.8941 -2.2332,1.698 -0.3,-0.1519 -0.6004,-0.3078 -0.9008,-0.4597 -0.3532,0.6347 -0.53597,1.359 -0.53675,2.0847 -7.8e-4,0.3352 0.03785,0.6711 0.11645,0.9981 v 0 0 0 0 C 9.78164,90.8219 9.45313,90.6859 9.125,90.5539 9.20898,91.1391 9.29297,91.727 9.38125,92.316 v 0 0 0 0 c -0.3043,-0.0918 -0.60469,-0.184 -0.90898,-0.2762 0.54843,1.3934 1.49336,2.5782 2.64253,3.5313 -0.0761,-1.093 -0.1562,-2.1859 -0.2324,-3.2789 0.5446,0.4 1.0891,0.8008 1.6336,1.2008 0.0082,-0.677 0.016,-1.3571 0.0242,-2.0379 0.8926,0.3719 1.7254,0.889 2.4582,1.5258 0.3325,0.28 0.645,0.5921 0.9329,0.9203 -0.0879,-0.8762 -0.1801,-1.7532 -0.268,-2.6301 -0.0602,-0.6051 -0.1203,-1.209 -0.1844,-1.8141 0.2602,0.1399 0.4965,0.32 0.7051,0.5332 0.364,0.368 0.6324,0.8317 0.7683,1.3328 0.3485,-1.4371 1.4215,-2.675 2.795,-3.223 -0.0922,0.957 0.0519,1.934 0.4164,2.8191 0.2519,-0.7929 0.7285,-1.514 1.3613,-2.0539 0.252,0.5957 0.6926,1.1129 1.241,1.461 0.4406,-1.0731 1.125,-2.0461 1.986,-2.8192 0.2082,0.6129 0.4164,1.2289 0.6246,1.8461 l 0.1082,-0.0441 -0.0321,-0.1598 c -0.025,-0.157 -0.0375,-0.3172 -0.0375,-0.4773 4e-4,-0.6129 0.1883,-1.227 0.5981,-1.6649 l 0.1601,-0.1558 c 0.3922,-0.3332 0.8887,-0.4891 1.4012,-0.5692 -1.2742,-0.0968 -2.5473,-0.1648 -3.8156,-0.1648 m 12.5164,0.8258 0.0801,0.064 c 0.2519,0.2082 0.4683,0.4602 0.6324,0.768 0.0601,0.1129 0.1082,0.2289 0.1519,0.3449 0.0403,-0.116 0.0883,-0.232 0.1485,-0.3449 0.164,-0.3078 0.3801,-0.5641 0.6324,-0.768 l 0.0762,-0.0601 c -0.2403,0.0051 -0.4805,0.007 -0.7207,0.007 -0.3328,0 -0.6664,-0.0039 -1.0008,-0.0109"
         style="fill:#6f5a3d;fill-opacity:1;fill-rule:nonzero;stroke:none;stroke-width:0.1"
         id="path1974" />
      <path
         d="m 32.5355,86.034 c -1.3933,0 -2.7906,0.0519 -4.1839,0.1601 -0.2563,0.02 -0.5207,0.0438 -0.777,0.0879 v 0 c -0.5125,0.0801 -1.009,0.236 -1.4012,0.5692 l -0.1601,0.1558 c -0.4098,0.4379 -0.5977,1.052 -0.5981,1.6649 0,0.1601 0.0125,0.3203 0.0375,0.4773 l 0.0321,0.1598 c 1.6175,-0.6328 3.2351,-1.2649 4.8488,-1.8981 -0.0523,0.461 0.0277,0.9371 0.2242,1.361 0.6164,-0.0637 1.2051,-0.3797 1.6012,-0.8637 -0.052,0.4438 0.1082,0.9047 0.4207,1.2207 0.6605,-0.1117 1.2891,-0.393 1.8176,-0.8047 0.1843,0.461 0.3722,0.9207 0.5566,1.3809 0.5727,-0.5121 1.2852,-0.8559 2.0379,-1.009 v -0.0039 0 0 c 0.032,-0.1961 0.0801,-0.3883 0.148,-0.5723 -0.0437,-0.116 -0.0918,-0.232 -0.1519,-0.3449 -0.1641,-0.3078 -0.3805,-0.5598 -0.6324,-0.768 l -0.0801,-0.064 c -0.9691,-0.7532 -2.4465,-0.909 -3.7399,-0.909"
         style="fill:#7f6544;fill-opacity:1;fill-rule:nonzero;stroke:none;stroke-width:0.1"
         id="path1976" />
      <path
         d="m 41.7402,86.034 c -1.2929,0 -2.7746,0.1558 -3.7433,0.9129 l -0.0762,0.0601 c -0.2523,0.2039 -0.4684,0.4602 -0.6324,0.768 -0.0602,0.1129 -0.1082,0.2289 -0.1485,0.3449 v 0 c -0.0679,0.184 -0.116,0.3762 -0.148,0.5723 0.0961,-0.0203 0.1922,-0.0363 0.2844,-0.0481 0.2199,-0.032 0.4414,-0.048 0.6625,-0.048 0.5441,0 1.0847,0.0988 1.5918,0.3008 0.1804,-0.743 0.9312,-1.1207 1.6765,-1.1207 0.709,0 1.4133,0.3418 1.6184,1.0367 0.1562,-0.5129 0.3125,-1.025 0.4684,-1.5379 0.8652,0.2961 1.6578,0.8129 2.2824,1.4902 0.0547,-0.4371 0.5093,-0.689 0.9601,-0.689 0.1407,0 0.2813,0.0238 0.409,0.0758 0.5328,0.216 0.8809,0.7289 1.1934,1.2132 0.1761,-0.573 0.3523,-1.1453 0.5246,-1.7183 -0.0922,-0.236 -0.2285,-0.452 -0.4004,-0.6399 L 48.1027,86.8512 C 47.5141,86.35 46.6934,86.2539 45.9246,86.1941 45.6883,86.1742 45.452,86.1582 45.2156,86.1461 v 0 C 44.0586,86.0699 42.8977,86.034 41.7402,86.034 m -4.7484,2.6582 v 0 0.0039 0 -0.0039"
         style="fill:#7f6544;fill-opacity:1;fill-rule:nonzero;stroke:none;stroke-width:0.1"
         id="path1978" />
      <path
         d="m 12.2719,103.715 c -0.4727,0.497 -0.7848,1.137 -0.9008,1.814 -0.0039,-0.569 -0.0039,-1.141 -0.0082,-1.71 v 0 l -0.0117,0.008 v 0.004 0 c -0.1684,0.933 -0.3407,1.866 -0.5125,2.799 -0.5543,0.563 -0.86214,1.352 -0.86175,2.14 0,0.231 0.02655,0.462 0.08085,0.687 0.0594,0.242 0.1453,0.498 0.1457,0.741 4e-4,0.119 -0.0199,0.235 -0.0738,0.344 -0.0754,0.152 -0.25431,0.226 -0.4215,0.226 -0.16132,0 -0.31172,-0.069 -0.34726,-0.202 0.05625,2.034 0.11211,4.06 0.16836,6.094 0.32812,2.522 1.2449,4.968 2.6703,7.074 1.493,2.205 3.6242,4.375 3.625,6.967 0,0.161 -0.0082,0.324 -0.0254,0.489 l -0.6004,-1.013 0.7848,6.842 c 0.0074,0.068 0.0137,0.139 0.0137,0.21 0,0.156 -0.0301,0.308 -0.1457,0.407 -0.0387,0.034 -0.0871,0.048 -0.1379,0.048 -0.0864,0 -0.1778,-0.042 -0.2309,-0.1 0.0684,0.929 0.2485,1.838 0.5246,2.722 v 0 c 0.0364,-0.124 0.0762,-0.248 0.116,-0.368 v 0 c 0.1524,-3.582 0.9043,-7.136 2.2289,-10.47 -0.0843,-0.003 -0.1675,-0.011 -0.2496,-0.025 -4e-4,10e-4 -7e-4,10e-4 -0.0011,10e-4 -0.2844,0.172 -0.5286,0.412 -0.7047,0.697 0.0922,-0.281 0.1761,-0.561 0.2441,-0.849 4e-4,-0.001 4e-4,-0.002 8e-4,-0.003 -0.0313,-0.016 -0.0621,-0.034 -0.093,-0.053 -0.7965,-0.505 -0.8644,-1.618 -0.8484,-2.559 0.0082,-0.435 0.0164,-0.869 0.0246,-1.304 -4e-4,0 -8e-4,-0.001 -8e-4,-0.001 -1.9621,-2.783 -3.0187,-6.198 -2.959,-9.605 -0.1238,0.977 -0.4082,1.933 -0.8406,2.818 -0.5445,-1.757 -0.8488,-3.587 -0.9051,-5.421 -0.1601,0.733 -0.3203,1.47 -0.4843,2.202 0.0242,-3.896 0.2683,-7.787 0.7367,-11.651"
         style="fill:#b19674;fill-opacity:1;fill-rule:nonzero;stroke:none;stroke-width:0.1"
         id="path1980" />
      <path
         d="m 11.3629,103.771 v 0 l -0.0117,0.056 0.0117,-0.008 v 0 0 -0.048"
         style="fill:#9d876b;fill-opacity:1;fill-rule:nonzero;stroke:none;stroke-width:0.1"
         id="path1982" />
      <path
         d="m 17.6609,124.143 c -0.116,0.676 -0.2281,1.349 -0.3402,2.026 -0.2078,-0.26 -0.4078,-0.524 -0.5957,-0.796 -0.0082,0.435 -0.0164,0.869 -0.0246,1.304 -0.016,0.941 0.0519,2.054 0.8484,2.559 0.0309,0.019 0.0617,0.037 0.093,0.053 0.4156,-1.681 0.4273,-3.461 0.0191,-5.146 m 0.761,5.145 c -0.1117,0.044 -0.2196,0.095 -0.3192,0.155 0.0821,0.014 0.1653,0.022 0.2496,0.025 4e-4,-10e-4 8e-4,-0.003 0.0016,-0.004 l 0.068,-0.176"
         style="fill:#b19674;fill-opacity:1;fill-rule:nonzero;stroke:none;stroke-width:0.1"
         id="path1984" />
      <path
         d="m 16.1234,139.938 c -0.0398,0.12 -0.0796,0.244 -0.116,0.368 v 0.004 c 0.0281,0.097 0.0602,0.189 0.0961,0.285 0.0039,-0.221 0.0121,-0.441 0.0199,-0.657"
         style="fill:#a78e6f;fill-opacity:1;fill-rule:nonzero;stroke:none;stroke-width:0.1"
         id="path1986" />
      <path
         d="m 63.025,101.513 c -0.4562,1.818 -0.6965,3.691 -0.7086,5.565 -0.0039,0.345 0.0641,0.781 0.4004,0.877 h 0.116 c 0.0281,2.679 -0.0117,5.361 -0.116,8.04 -0.4484,-0.336 -0.7367,-0.877 -0.7609,-1.434 -0.084,2.135 -0.1641,4.273 -0.2481,6.411 -0.1683,-0.405 -0.3363,-0.809 -0.5047,-1.213 -0.8367,1.549 -1.5652,3.158 -2.1777,4.812 -0.2082,-0.272 -0.4168,-0.54 -0.6289,-0.813 -0.3512,0.911 -0.627,1.845 -0.8231,2.802 8e-4,0.039 0.0016,0.078 0.0024,0.117 0.0109,0.654 -0.0184,1.391 -0.3047,1.949 -0.0438,0.503 -0.0676,1.011 -0.0676,1.519 -0.1883,-0.297 -0.3164,-0.629 -0.3844,-0.973 -0.0171,0.013 -0.0343,0.025 -0.0523,0.037 -0.1035,2.198 0.5488,4.359 0.9371,6.529 0.1641,0.921 0.2723,1.878 0.2563,2.819 v 0 0 l 0.1043,0.252 c 0.6765,-1.481 1.2289,-3.019 1.6375,-4.601 0.0128,-0.049 0.0191,-0.104 0.0191,-0.16 4e-4,-0.249 -0.1191,-0.527 -0.282,-0.527 -0.0371,0 -0.0766,0.014 -0.1176,0.047 v 0 0 c 0.2762,-0.697 0.4484,-1.437 0.5086,-2.186 -0.2805,0.276 -0.5606,0.548 -0.8371,0.821 -0.2782,-0.571 -0.3992,-1.163 -0.3985,-1.76 0.0028,-2.016 1.3981,-4.096 2.8532,-5.672 1.7933,-1.946 3.907,-4.099 3.9039,-6.696 -4e-4,-0.128 -0.0055,-0.257 -0.0164,-0.386 -0.1122,-1.91 -0.2204,-3.816 -0.3321,-5.726 l -0.6047,0.897 v 0 c 0.2079,-1.132 0.3118,-2.282 0.3121,-3.432 0.0012,-1.885 -0.275,-3.77 -0.8246,-5.573 -0.18,0.252 -0.3562,0.505 -0.5324,0.761 l -0.3285,-3.103"
         style="fill:#b19674;fill-opacity:1;fill-rule:nonzero;stroke:none;stroke-width:0.1"
         id="path1988" />
      <path
         d="m 57.5734,126.56 c -4e-4,0.003 -0.0011,0.006 -0.0015,0.009 -0.1403,0.677 -0.2403,1.361 -0.3004,2.054 0,0.001 0,0.002 -4e-4,0.003 0.2863,-0.558 0.3156,-1.295 0.3047,-1.949 -8e-4,-0.039 -0.0016,-0.078 -0.0024,-0.117 m -0.7906,2.379 c -0.0078,0.092 -0.0117,0.181 -0.0156,0.269 0,0 0,0.001 -4e-4,0.001 0.018,-0.012 0.0352,-0.024 0.0523,-0.037 v 0 l -0.0363,-0.233"
         style="fill:#b19674;fill-opacity:1;fill-rule:nonzero;stroke:none;stroke-width:0.1"
         id="path1990" />
      <path
         d="m 57.9602,138.557 c 0,0.172 -0.0039,0.34 -0.0161,0.508 l 0.1204,-0.256 -0.1043,-0.252 v 0"
         style="fill:#a78e6f;fill-opacity:1;fill-rule:nonzero;stroke:none;stroke-width:0.1"
         id="path1992" />
      <path
         d="m 27.3023,168.694 c 0.1403,0.104 0.2883,0.196 0.4407,0.276 -0.116,-0.128 -0.2645,-0.224 -0.4407,-0.276"
         style="fill:#b19674;fill-opacity:1;fill-rule:nonzero;stroke:none;stroke-width:0.1"
         id="path1994" />
      <path
         d="m 27.6988,171.144 c -0.2965,0.441 -0.7086,0.817 -1.0808,1.205 -1.1614,1.214 -2.0262,2.703 -2.5106,4.305 1.2973,-1.514 2.5864,-3.035 3.8637,-4.569 -0.3004,0.028 -0.5965,0.048 -0.8969,0.064 0.3887,-0.248 0.7809,-0.496 1.1731,-0.741 -0.184,-0.084 -0.3684,-0.172 -0.5485,-0.264 v 0"
         style="fill:#b19674;fill-opacity:1;fill-rule:nonzero;stroke:none;stroke-width:0.1"
         id="path1996" />
      <path
         d="m 44.227,170.912 v 0 c -0.4805,0.144 -0.9692,0.264 -1.4575,0.372 0.2801,0.361 0.6727,0.633 1.109,0.765 -0.2523,-0.064 -0.5086,-0.132 -0.7605,-0.196 1.405,1.686 2.8226,3.367 4.2519,5.029 -0.2965,-0.965 -0.8769,-1.906 -1.4535,-2.739 -0.6844,-0.989 -1.4055,-2.094 -1.6894,-3.231"
         style="fill:#b19674;fill-opacity:1;fill-rule:nonzero;stroke:none;stroke-width:0.1"
         id="path1998" />
      <path
         d="m 44.3309,165.479 c -1.9778,1.573 -4.236,2.794 -6.6344,3.583 -0.1563,-0.512 -0.316,-1.025 -0.4723,-1.537 0.1223,0.612 -0.5554,1.208 -1.2176,1.208 -0.0738,0 -0.1476,-0.007 -0.2199,-0.023 -0.7687,-0.172 -1.2812,-0.909 -1.5734,-1.642 -0.0082,0.537 -0.016,1.073 -0.0281,1.61 -1.0129,-0.409 -1.9258,-1.061 -2.6426,-1.886 0.5726,0.857 1.1453,1.714 1.7176,2.571 -1.5012,-0.193 -2.9629,-0.649 -4.3082,-1.342 -0.2321,-0.116 -0.4602,-0.244 -0.6844,-0.376 0.4965,0.596 0.9887,1.189 1.4812,1.786 -0.057,0.002 -0.1144,0.004 -0.1715,0.004 -0.6394,0 -1.2757,-0.163 -1.8343,-0.465 0.3683,0.397 0.4562,1.081 0.2562,1.614 -0.0762,0.2 -0.1762,0.388 -0.3004,0.56 v 0 0 c 0.1801,0.092 0.3645,0.18 0.5485,0.264 -0.3922,0.245 -0.7844,0.493 -1.1731,0.741 0.3004,-0.016 0.5965,-0.036 0.8969,-0.064 v 0 c 1.5137,-0.128 3.0148,-0.364 4.4922,-0.717 v 0 0 c -0.4961,0.477 -0.9969,0.957 -1.4934,1.434 1.2012,-0.1 2.3864,-0.373 3.5074,-0.805 v 0 0 c -0.296,0.509 -0.5964,1.017 -0.8925,1.522 1.0367,-0.421 1.9937,-1.037 2.8023,-1.81 0.1426,0.311 0.2156,0.656 0.2156,1.001 0,0.13 -0.0105,0.26 -0.0312,0.388 0.3933,-0.366 0.6203,-0.902 0.6211,-1.439 4e-4,-0.103 -0.0078,-0.205 -0.0246,-0.307 v 0 0 c 1.173,0.317 2.3465,0.629 3.5195,0.945 -0.4363,-0.588 -0.9809,-1.097 -1.6055,-1.485 v 0 0 c 1.3453,0.348 2.6907,0.693 4.036,1.041 v 0 c 0.2519,0.064 0.5082,0.132 0.7605,0.196 -0.4363,-0.132 -0.8289,-0.404 -1.109,-0.765 0.4883,-0.108 0.977,-0.228 1.4575,-0.372 v 0 0 c -0.1641,-0.657 -0.1844,-1.321 0.032,-1.978 -0.3567,0.368 -0.7168,0.737 -1.077,1.105 0.3082,-1.077 0.8489,-2.086 1.5696,-2.943 -0.9051,0.769 -1.9262,1.398 -3.0192,1.858 0.1321,-0.264 0.2762,-0.52 0.4285,-0.773 0.5926,-0.997 1.325,-1.905 2.17,-2.702"
         style="fill:#b19674;fill-opacity:1;fill-rule:nonzero;stroke:none;stroke-width:0.1"
         id="path2000" />
      <path
         d="m 16.9645,161.543 c 0.1043,0.208 0.2281,0.4 0.3804,0.577 -0.132,-0.189 -0.2562,-0.385 -0.3804,-0.577"
         style="fill:#b19674;fill-opacity:1;fill-rule:nonzero;stroke:none;stroke-width:0.1"
         id="path2002" />
      <path
         d="m 17.1406,144.503 c -0.048,0.736 -0.0961,1.473 -0.1441,2.214 -0.1121,-0.036 -0.2203,-0.084 -0.3164,-0.149 v 0 c -0.0039,0.146 -0.0063,0.291 -0.0059,0.436 4e-4,0.701 0.05,1.402 0.1461,2.095 v 0 0 c -0.5726,-0.777 -1.057,-1.614 -1.4492,-2.494 0.2562,1.837 0.5125,3.679 0.7684,5.517 v 0 0 c -0.1399,-0.124 -0.2801,-0.252 -0.4204,-0.381 -0.3082,-0.276 -0.6207,-0.556 -0.9289,-0.836 0.0922,1.721 0.4446,3.431 1.0371,5.049 v 0 0 c -0.5605,-0.617 -1.0289,-1.31 -1.3972,-2.054 0.8605,3.263 2.3101,6.37 4.2558,9.128 v 0 0 c -0.5203,-0.168 -0.9886,-0.492 -1.341,-0.908 0.8688,1.289 1.8535,2.502 2.9387,3.619 -0.0602,-0.593 -0.0641,-1.189 -0.016,-1.786 0.4164,0.096 0.8371,0.197 1.2531,0.293 -1.9578,-2.607 -3.4992,-5.526 -4.5523,-8.609 0.4445,0.16 0.8289,0.485 1.057,0.893 -0.6004,-1.285 -0.9129,-2.703 -0.9246,-4.116 -0.0082,-0.096 -0.0043,-0.188 -0.0043,-0.28 l 0.1801,0.224 c 0.3886,0.509 0.841,0.977 1.3414,1.389 -0.0961,-0.608 -0.1961,-1.221 -0.2922,-1.829 -0.3965,-2.471 -0.7887,-4.941 -1.1852,-7.415"
         style="fill:#b19674;fill-opacity:1;fill-rule:nonzero;stroke:none;stroke-width:0.1"
         id="path2004" />
      <path
         d="m 57.4957,145.888 c -0.2082,0.096 -0.4004,0.22 -0.5766,0.372 v 0 c 0,1.345 -0.016,2.691 -0.0519,4.036 -0.0359,1.329 -0.0922,2.663 -0.1684,3.988 -0.264,-0.581 -0.5246,-1.161 -0.7847,-1.742 0.1363,1.714 -0.0399,3.452 -0.5082,5.101 -0.1446,-0.544 -0.2844,-1.093 -0.4286,-1.641 -0.1761,2.094 -0.7128,4.16 -1.5777,6.074 0.0121,-0.457 0.0242,-0.917 0.0363,-1.374 -0.941,1.458 -1.8781,2.915 -2.8187,4.376 0.0922,0.01 0.1851,0.014 0.2777,0.014 0.3133,0 0.6258,-0.052 0.9192,-0.154 -0.3883,0.801 -0.5844,1.694 -0.5723,2.583 0.4602,-0.325 0.9086,-0.669 1.3453,-1.029 -0.3887,0.12 -0.7769,0.236 -1.1652,0.352 v 0 0 c 2.5105,-2.058 4.6203,-4.6 6.1777,-7.447 -0.4683,0.296 -0.9367,0.596 -1.409,0.893 v 0 0 c 1.7496,-2.014 2.8867,-4.553 3.2231,-7.195 -0.0035,0 -0.0074,0 -0.011,0 -0.4367,0 -0.864,0.239 -1.0941,0.608 v 0 0 c 0.4043,-1.573 0.6484,-3.187 0.7246,-4.808 -0.2883,0.52 -0.6887,0.977 -1.1609,1.337 -0.1403,-0.448 -0.2524,-0.905 -0.3285,-1.369 -0.0911,-0.544 -0.1368,-1.096 -0.1364,-1.648 0,-0.443 0.0293,-0.887 0.0883,-1.327"
         style="fill:#b19674;fill-opacity:1;fill-rule:nonzero;stroke:none;stroke-width:0.1"
         id="path2006" />
      <path
         d="m 27.3758,124.71 c -0.5723,0.541 -1.2172,1.003 -1.875,1.435 -1.1278,0.746 -2.3028,1.423 -3.5156,2.023 0.0324,0.85 0.0652,1.7 0.098,2.55 2.209,-0.416 4.1637,-1.997 5.0324,-4.07 -0.4351,0.315 -0.8703,0.63 -1.3054,0.945 0.5804,-0.927 1.1035,-1.891 1.5656,-2.883"
         style="fill:#a88963;fill-opacity:1;fill-rule:nonzero;stroke:none;stroke-width:0.1"
         id="path2008" />
      <path
         d="m 34.1934,99.3871 c -1.4821,3.0649 -3.1793,6.0249 -5.0758,8.8519 0.0324,-0.56 0.0648,-1.12 0.0972,-1.68 -2.0519,3.496 -3.8644,7.131 -5.4207,10.874 -0.2941,-0.196 -0.4269,-0.603 -0.3058,-0.934 -0.6574,1.754 -1.052,3.607 -1.1664,5.478 -0.2125,-0.536 -0.4246,-1.072 -0.6371,-1.608 0.1,2.6 0.2,5.199 0.3004,7.799 1.2128,-0.6 2.3878,-1.277 3.5156,-2.023 0.6578,-0.432 1.3027,-0.894 1.875,-1.435 0.7422,-1.593 1.3277,-3.26 1.7437,-4.968 -0.4117,0.376 -0.823,0.751 -1.2343,1.126 1.2375,-2.907 2.4753,-5.814 3.7128,-8.721 -0.3117,0.247 -0.6238,0.494 -0.9355,0.741 1.3262,-2.353 2.268,-4.923 2.7773,-7.576 -0.2984,0.392 -0.5968,0.784 -0.8953,1.176 0.5496,-2.367 1.0993,-4.734 1.6489,-7.1009"
         style="fill:#a88963;fill-opacity:1;fill-rule:nonzero;stroke:none;stroke-width:0.1"
         id="path2010" />
      <path
         d="m 45.3254,122.628 c 0.1871,0.97 0.3742,1.941 0.5613,2.911 0.175,0.908 0.3594,1.84 0.852,2.623 0.4582,0.728 1.2496,1.307 2.0976,1.307 0.0645,0 0.1289,-0.003 0.1934,-0.01 1.0023,-0.106 1.6633,-0.942 2.0598,-1.917 -0.7903,-0.434 -1.5629,-0.9 -2.3141,-1.397 -0.841,-0.553 -1.6617,-1.153 -2.3344,-1.906 -0.4414,-0.492 -0.807,-1.034 -1.1156,-1.611"
         style="fill:#a88963;fill-opacity:1;fill-rule:nonzero;stroke:none;stroke-width:0.1"
         id="path2012" />
      <path
         d="m 40.1004,98.6539 c 0.9273,2.7261 1.8551,5.4521 2.7824,8.1781 -0.334,-0.248 -0.668,-0.496 -1.0019,-0.744 1.3703,3.891 2.6511,7.814 3.841,11.765 -0.4571,-0.271 -0.7793,-0.758 -0.8477,-1.285 0.1895,2.125 0.6961,4.222 1.4973,6.199 -0.4844,-0.119 -0.918,-0.431 -1.184,-0.853 0.0461,0.238 0.0918,0.476 0.1379,0.714 0.3086,0.577 0.6742,1.119 1.1156,1.611 0.6727,0.753 1.4934,1.353 2.3344,1.906 0.7512,0.497 1.5238,0.963 2.3141,1.397 0.1656,-0.408 0.2851,-0.84 0.3644,-1.253 0.3578,-1.87 0.391,-3.803 0.0969,-5.684 -0.0285,0.662 -0.232,1.317 -0.584,1.879 -0.2688,-2.53 -0.6031,-5.052 -1.0035,-7.565 -0.1528,0.424 -0.3059,0.848 -0.4586,1.271 -0.5195,-1.926 -1.0391,-3.852 -1.5586,-5.778 -0.0797,0.553 -0.1594,1.105 -0.2391,1.658 -0.5742,-2.747 -1.6574,-5.387 -3.1781,-7.746 -0.0328,0.51 -0.0656,1.02 -0.098,1.529 -1.5723,-2.319 -3.0184,-4.724 -4.3305,-7.1991"
         style="fill:#a88963;fill-opacity:1;fill-rule:nonzero;stroke:none;stroke-width:0.1"
         id="path2014" />
      <path
         d="m 32.9926,148.518 c -6.8766,0.328 -13.7723,1.242 -20.4953,2.716 l 0.0215,0.098 c 6.7179,-1.474 13.6074,-2.387 20.4785,-2.714 l -0.0047,-0.1"
         style="fill:#7b6a58;fill-opacity:1;fill-rule:nonzero;stroke:none;stroke-width:0.1"
         id="path2016" />
      <path
         d="m 25.048,147.385 c -4.8667,0 -9.7328,0.39 -14.539,1.168 l 0.0156,0.099 c 7.2324,-1.172 14.6,-1.464 21.9016,-0.867 l 0.0078,-0.1 c -2.4567,-0.2 -4.9215,-0.3 -7.386,-0.3"
         style="fill:#7b6a58;fill-opacity:1;fill-rule:nonzero;stroke:none;stroke-width:0.1"
         id="path2018" />
      <path
         d="m 11.6199,144.92 c -0.2355,0 -0.4691,0.001 -0.7047,0.003 l 0.0012,0.099 c 0.234,-0.001 0.4691,-0.002 0.7031,-0.002 6.8559,0 13.7364,0.661 20.4645,1.966 l 0.0191,-0.098 C 25.3695,145.582 18.4813,144.92 11.6199,144.92"
         style="fill:#7b6a58;fill-opacity:1;fill-rule:nonzero;stroke:none;stroke-width:0.1"
         id="path2020" />
      <path
         d="m 12.8891,141.1 -0.0235,0.098 20.8657,5.119 0.0234,-0.097 -20.8656,-5.12"
         style="fill:#7b6a58;fill-opacity:1;fill-rule:nonzero;stroke:none;stroke-width:0.1"
         id="path2022" />
      <path
         d="m 41.7422,148.518 -0.0051,0.1 c 6.8711,0.327 13.7606,1.24 20.4785,2.714 l 0.0215,-0.098 c -6.723,-1.474 -13.6187,-2.388 -20.4949,-2.716"
         style="fill:#7b6a58;fill-opacity:1;fill-rule:nonzero;stroke:none;stroke-width:0.1"
         id="path2024" />
      <path
         d="m 49.6863,147.385 c -2.4648,0 -4.9289,0.1 -7.3855,0.3 l 0.0078,0.1 c 7.3016,-0.596 14.6687,-0.304 21.9012,0.867 l 0.0156,-0.099 c -4.8059,-0.778 -9.6731,-1.168 -14.5391,-1.168"
         style="fill:#7b6a58;fill-opacity:1;fill-rule:nonzero;stroke:none;stroke-width:0.1"
         id="path2026" />
      <path
         d="m 63.1145,144.92 c -6.8618,0 -13.7489,0.662 -20.4832,1.968 l 0.0195,0.098 c 6.7273,-1.305 13.6086,-1.966 20.464,-1.966 0.2344,0 0.4692,10e-4 0.7032,0.002 l 0.0011,-0.099 c -0.2347,-0.002 -0.4699,-0.003 -0.7046,-0.003"
         style="fill:#7b6a58;fill-opacity:1;fill-rule:nonzero;stroke:none;stroke-width:0.1"
         id="path2028" />
      <path
         d="m 61.8453,141.1 -20.8656,5.12 0.0234,0.097 20.8657,-5.119 -0.0235,-0.098"
         style="fill:#7b6a58;fill-opacity:1;fill-rule:nonzero;stroke:none;stroke-width:0.1"
         id="path2030" />
    </g>
  </g>
</svg>
