<?xml version="1.0" encoding="UTF-8" standalone="no"?>
<!-- Created with Inkscape (http://www.inkscape.org/) -->

<svg
   width="210mm"
   height="210mm"
   viewBox="0 0 210 210"
   version="1.1"
   id="svg11088"
   inkscape:version="1.2.1 (9c6d41e410, 2022-07-14)"
   sodipodi:docname="oriental.svg"
   xmlns:inkscape="http://www.inkscape.org/namespaces/inkscape"
   xmlns:sodipodi="http://sodipodi.sourceforge.net/DTD/sodipodi-0.dtd"
   xmlns="http://www.w3.org/2000/svg"
   xmlns:svg="http://www.w3.org/2000/svg">
  <sodipodi:namedview
     id="namedview11090"
     pagecolor="#ffffff"
     bordercolor="#000000"
     borderopacity="0.25"
     inkscape:showpageshadow="2"
     inkscape:pageopacity="0.0"
     inkscape:pagecheckerboard="0"
     inkscape:deskcolor="#d1d1d1"
     inkscape:document-units="mm"
     showgrid="false"
     inkscape:zoom="0.49085999"
     inkscape:cx="510.32882"
     inkscape:cy="517.45917"
     inkscape:window-width="1366"
     inkscape:window-height="705"
     inkscape:window-x="-8"
     inkscape:window-y="-8"
     inkscape:window-maximized="1"
     inkscape:current-layer="layer1" />
  <defs
     id="defs11085" />
  <g
     inkscape:label="Layer 1"
     inkscape:groupmode="layer"
     id="layer1">
    <g
       id="g29675"
       transform="matrix(1.1178749,0,0,1.1178749,-12.590813,13.395924)">
      <path
         d="m 117.42466,110.20344 c 0.069,2.57124 -2.29078,4.50906 -4.56373,5.72019 -1.06871,0.5706 -2.16715,1.07502 -3.29768,1.51616 -1.67737,0.65097 -3.40942,1.15991 -5.17952,1.51428 -0.24252,0.0495 -0.49096,0.0997 -0.73941,0.15534 -0.5837,0.13109 -1.1555,0.31642 -1.62031,0.68356 -1.28626,1.00584 -1.27319,2.91859 -1.14361,4.54626 0.19972,2.41559 0.3923,4.8368 0.58369,7.25987 0.0499,0.59534 0.0939,1.22316 -0.16761,1.76273 -0.42796,0.87017 -1.477658,1.20553 -2.415607,1.43485 -0.849978,0.21196 -1.701145,0.41013 -2.552312,0.59678 -6.296972,1.3778 -12.718763,2.1732 -19.158387,2.37151 -2.006662,0.0623 -4.018079,0.0691 -6.024741,0.0135 -0.819071,-0.0236 -1.639331,-0.0559 -2.452456,-0.12468 -0.335225,-0.0303 -0.677604,-0.0677 -1.012839,-0.11187 -0.514743,-0.0677 -1.055639,-0.16748 -1.459823,-0.49681 -0.794107,-0.63945 -0.726344,-1.96849 -0.04873,-2.73895 0.670474,-0.76939 1.751075,-1.05585 2.775803,-1.06751 1.018783,-0.0135 2.024492,0.19814 3.049222,0.25442 0.776274,0.0367 1.546604,-0.0202 2.315745,-0.13109 0.211588,-0.0303 0.42915,-0.0617 0.646696,-0.10581 h 0.01887 c 0.707322,-0.12333 1.408703,-0.27901 2.111273,-0.43365 3.968149,-0.89397 7.967209,-1.79532 11.680957,-3.44748 -1.427725,-3.46507 -2.856639,-6.93071 -4.284365,-10.39578 -0.677604,-1.64526 -1.367096,-3.47717 -0.789349,-5.16047 0.608655,-1.80138 2.446509,-2.83182 4.129824,-3.70806 2.26106,-1.1674 4.528064,-2.33475 6.831923,-3.42144 3.278657,-1.54042 6.694026,-2.92533 10.303166,-3.28556 1.59534,-0.16175 3.2418,-0.0997 4.81932,0.22948 1.9805,0.39824 3.85046,1.2173 5.38398,2.52855 1.21137,1.03044 2.21708,2.45231 2.25988,4.04184"
         style="fill:#cbcabb;fill-opacity:1;fill-rule:nonzero;stroke:none;stroke-width:0.118878"
         id="path836" />
      <path
         d="m 57.542212,134.59853 c 1.197102,-2.6297 0.301966,-6.69199 0.221125,-9.58026 -0.197334,-7.10297 -0.888019,-14.25147 0.10699,-21.2889 0.55516,-3.925382 1.632196,-7.780587 1.883029,-11.738037 0.232986,-3.688788 -0.2651,-7.421559 -1.456257,-10.92014 -1.106755,-3.250125 -2.969575,-6.453892 -6.002154,-8.0635 -2.155259,-1.143607 -4.78603,-1.355208 -7.098209,-0.571804 -0.896343,0.304324 -1.802191,0.810751 -2.192111,1.672617 -0.267459,0.589633 -0.254384,1.263671 -0.200906,1.909181 0.490966,5.94509 3.936052,11.204256 5.578948,16.938934 0.583691,2.035194 0.937949,4.127449 1.260109,6.220893 1.223254,7.927726 2.271759,15.664556 2.930344,23.819366 0.216373,2.6631 0.962912,6.78197 -0.853547,8.74264 -0.499285,0.53815 -1.862816,0.99978 -2.124348,1.68654 -0.470757,1.23431 0.546837,2.63111 1.795057,3.06015 1.249407,0.42999 2.617697,0.16748 3.911089,-0.0991 0.527818,-0.10817 1.619118,-0.42536 2.240851,-1.78877"
         style="fill:#cbcabb;fill-opacity:1;fill-rule:nonzero;stroke:none;stroke-width:0.118878"
         id="path838" />
      <path
         d="m 125.11369,107.81292 c -0.0189,0.22949 -0.0678,0.45971 -0.13074,0.68356 -0.11771,0.48336 -0.29719,0.95567 -0.52188,1.4024 -0.0618,0.12502 -0.12364,0.24835 -0.1914,0.37341 -0.15572,0.27935 -0.32337,0.5586 -0.50999,0.8205 v 0.007 c -0.26746,0.40303 -0.56467,0.78853 -0.88208,1.15445 -0.5397,0.63386 -1.14836,1.2054 -1.80694,1.72741 -2.94937,2.34641 -6.90563,3.60212 -10.71329,4.17973 -1.44675,0.21634 -2.90657,0.36033 -4.36521,0.42773 -0.94389,0.0441 -1.89372,0.0623 -2.84475,0.0441 l -0.006,-0.007 c -4.434155,-0.0805 -8.862365,-0.83213 -13.092046,-2.1983 -2.179036,-0.70112 -4.309328,-1.57143 -6.358787,-2.59628 -2.713987,-1.34666 -5.297207,-2.97422 -7.675956,-4.8558 -0.813126,-0.63389 -1.602478,-1.30448 -2.35973,-1.99966 -0.348313,-0.31002 -0.689492,-0.63385 -1.024731,-0.96291 -2.161203,-2.10533 -4.104857,-4.42822 -6.192357,-6.614392 C 63.295795,96.120261 59.824556,93.151876 56.085841,90.568656 55.390404,90.083631 54.681893,89.611688 53.967434,89.15876 48.893719,85.9229 42.85709,82.706061 41.429365,76.862014 40.590086,73.433571 41.591046,69.869606 42.329272,66.416199 43.33617,61.727647 43.856854,56.933297 43.881821,52.133 c 0.01887,-2.53448 -0.09867,-5.061829 -0.354258,-7.583231 -0.08677,-0.826204 -0.03686,-1.198291 0.224663,-1.814079 4.756312,-0.732289 8.067065,-0.104632 12.630795,1.428914 0.186652,0.912983 0.379221,1.825965 0.565859,2.738948 0.266279,1.29815 0.533761,2.589164 0.801237,3.88137 0.235379,1.142417 0.471947,2.278893 0.707325,3.415365 0.379221,1.86282 0.951024,3.968153 2.652169,4.800298 0.435095,0.211588 0.893964,0.317399 1.36591,0.354257 0.834524,0.05826 1.713034,-0.09631 2.589165,-0.252025 1.452688,-0.256777 2.898246,-0.514743 4.117935,0.202085 0.764386,0.44817 1.280318,1.211369 1.839043,1.900862 3.558021,4.353314 9.352138,6.079422 14.818151,7.421555 5.464823,1.346891 11.270829,2.719932 15.271075,6.676192 1.27318,1.266054 2.3098,2.744895 3.34642,4.203531 5.93083,8.347616 12.25395,16.414682 18.94203,24.171478 0.64551,0.74536 1.31004,1.52165 1.60248,2.46553 0.16761,0.54661 0.19258,1.11128 0.11174,1.67036"
         style="fill:#e2e1d4;fill-opacity:1;fill-rule:nonzero;stroke:none;stroke-width:0.118878"
         id="path840" />
      <path
         d="m 189.78812,42.976716 c -1.45982,3.316698 -4.26654,5.825025 -7.47743,7.589178 h -0.007 l -0.0428,0.02494 c -0.42318,0.235379 -0.85711,0.452925 -1.29814,0.664529 l -0.0236,0.01179 c -0.49691,0.230627 -0.99974,0.454117 -1.50976,0.65264 -4.34734,1.732056 -9.01687,2.452456 -13.5509,3.613895 -4.53281,1.161439 -9.09774,2.869715 -12.44534,6.142431 -2.25394,2.205185 -3.83143,5.005954 -5.12959,7.880424 -4.62079,10.278199 -5.9118,21.786785 -10.30316,32.163637 -1.07466,2.52736 -2.35973,5.03056 -4.31646,6.96231 -2.68902,2.65111 -6.59536,3.98018 -10.34596,3.62628 -0.14979,-0.0135 -0.30432,-0.0303 -0.46006,-0.0559 -0.46481,-0.0556 -0.93081,-0.14255 -1.39087,-0.26015 l -0.17354,-0.0442 c 0.36019,-1.57739 0.7204,-3.15393 1.0806,-4.73833 l 0.31622,0.12502 c 0.43509,0.16141 0.88207,0.28508 1.32905,0.35989 0.35426,0.0677 0.71446,0.10581 1.07466,0.11794 3.11698,0.1176 6.34096,-1.53982 8.48314,-3.93734 2.76986,-3.10508 4.12982,-7.190932 5.41608,-11.154327 0.93082,-2.868528 1.74513,-6.116277 2.57015,-9.346194 v -0.01179 c 0.7525,-2.956496 1.50975,-5.899918 2.36091,-8.52712 1.94961,-6.017611 4.15479,-11.247056 8.96106,-15.345972 4.90608,-4.185695 11.14124,-6.030682 17.32646,-7.086321 3.7518,-0.632432 7.17309,-1.415836 10.78819,-2.608183 3.60794,-1.198291 7.07918,-3.415368 8.76845,-6.818848"
         style="fill:#e2e1d4;fill-opacity:1;fill-rule:nonzero;stroke:none;stroke-width:0.118878"
         id="path842" />
      <path
         d="m 83.691821,113.834 c -0.952213,-0.47423 -1.886597,-0.98077 -2.801958,-1.52176 0.915361,0.53957 1.849745,1.04625 2.800769,1.51795 0.0012,0.001 0.0012,0.001 0.0012,0.001 0,9.4e-4 0,0.002 0,0.002 m -4.457928,-2.54758 c -1.107944,-0.72026 -2.181412,-1.48964 -3.220407,-2.30742 0.0012,-0.001 0.0012,-0.002 0.0024,-0.003 1.035427,0.81919 2.111273,1.59097 3.218028,2.31123"
         style="fill:#d5d3d1;fill-opacity:1;fill-rule:nonzero;stroke:none;stroke-width:0.118878"
         id="path844" />
      <path
         d="m 90.050608,116.42792 c -0.256776,-0.0832 -0.513553,-0.16917 -0.76914,-0.25678 0.255597,0.0876 0.511174,0.17219 0.767951,0.25543 v 0 c 0.0012,0 0.0012,0 0.0012,0.001 m -3.535433,-1.30397 c -0.955779,-0.39837 -1.897293,-0.82752 -2.823354,-1.28995 0,0 0,-0.001 0,-0.002 0.926061,0.46257 1.867575,0.89397 2.823354,1.29234"
         style="fill:#968974;fill-opacity:1;fill-rule:nonzero;stroke:none;stroke-width:0.118878"
         id="path846" />
      <path
         d="m 55.561703,90.205782 c -0.526628,-0.356633 -1.058014,-0.706136 -1.594155,-1.048504 -3.405855,-2.171903 -7.244427,-4.335482 -9.833591,-7.290792 v 0 c 2.589164,2.95531 6.427736,5.118889 9.833591,7.290792 0.536141,0.339993 1.067527,0.690681 1.594155,1.048504"
         style="fill:#968974;fill-opacity:1;fill-rule:nonzero;stroke:none;stroke-width:0.118878"
         id="path848" />
      <path
         d="m 90.049419,116.42647 c -0.256777,-0.0832 -0.512364,-0.16748 -0.767951,-0.25543 -0.933195,-0.31845 -1.855686,-0.66823 -2.766293,-1.04719 -0.955779,-0.39838 -1.897293,-0.82978 -2.823354,-1.29234 0,0 0,0 -0.0012,-10e-4 -0.951024,-0.4717 -1.885408,-0.97838 -2.800769,-1.51795 -0.558725,-0.32922 -1.111509,-0.67156 -1.65597,-1.02582 -1.106755,-0.72026 -2.182601,-1.49204 -3.218028,-2.31123 0.652641,-1.27283 1.148361,-2.60925 1.148361,-3.99048 0,-0.23184 -0.01415,-0.46483 -0.04398,-0.69899 -0.180688,-1.46579 -0.962913,-2.78296 -1.720165,-4.04902 C 73.213917,96.590624 71.02775,92.951765 68.841583,89.311718 68.207962,88.256083 67.574344,87.1945 66.934778,86.138865 v -0.01314 C 66.78024,85.867767 66.62331,85.607415 66.467589,85.348259 l 0.0012,0.0012 c 1.923449,1.757019 3.645993,2.728251 4.72778,2.728251 0.813126,0 1.266054,-0.54684 1.172138,-1.721353 1.906806,7.52617 5.148611,14.712353 9.532833,21.121183 0.471946,0.68912 1.056828,1.3099 1.825968,1.6271 1.425349,0.59675 2.948176,0.83452 4.497156,0.83452 3.059921,0 6.222078,-0.92928 8.936066,-1.8589 1.37423,-0.47089 2.634336,-0.94175 3.7078,-1.29234 -2.236089,1.05551 -4.428203,2.19176 -6.620314,3.32253 -1.689257,0.87624 -3.521169,1.90668 -4.135769,3.70806 -0.286498,0.84365 -0.254384,1.72596 -0.06301,2.6078 M 56.089524,90.567008 c -0.175936,-0.121244 -0.351882,-0.241309 -0.527821,-0.361391 -0.526628,-0.357823 -1.058014,-0.708511 -1.594155,-1.048505 -3.405855,-2.171902 -7.244427,-4.335481 -9.833591,-7.290791 -1.267243,-1.446744 -2.23491,-3.084885 -2.704478,-5.005955 -0.225876,-0.923681 -0.318578,-1.858065 -0.318578,-2.7972 0,-2.543989 0.678793,-5.126023 1.218499,-7.648614 0.754876,-3.514036 1.236333,-7.08751 1.440804,-10.678818 0.471943,0.112921 0.955778,0.171185 1.438424,0.171185 0.71208,0 1.420591,-0.125996 2.082741,-0.39111 2.664058,-1.068713 4.210662,-3.881367 6.633396,-5.427971 1.04375,-0.666905 2.227777,-1.077036 3.349985,-1.602478 0.159289,0.766764 0.317399,1.532339 0.475512,2.297915 -0.558725,1.061579 -1.652405,1.415836 -3.391591,2.19211 -1.545415,0.689493 -3.918219,3.155024 -5.403008,3.962205 -3.69473,2.005476 -4.328351,6.961501 -4.44604,11.166218 -0.117707,4.166676 -1.702332,7.533304 1.235142,10.489801 0.504044,0.507608 0.872566,0.726344 1.134097,0.726344 1.281507,0 0.04519,-5.215181 -0.02123,-7.272959 0.911797,2.979084 2.07918,5.241333 3.487883,7.121986 1.359966,4.043043 3.436766,7.845952 5.744191,11.398028"
         style="fill:#cbcabb;fill-opacity:1;fill-rule:nonzero;stroke:none;stroke-width:0.118878"
         id="path850" />
      <path
         d="m 62.463764,41.976952 c -0.02494,0.124816 -0.04994,0.248453 -0.08084,0.366146 -0.552784,2.303856 -2.030435,4.391355 -4.073949,5.601535 -1.396818,0.832145 -3.012371,1.267239 -4.384225,2.14337 -2.422735,1.546604 -3.969339,4.359258 -6.633397,5.427971 -1.533525,0.6146 -3.315508,0.483836 -4.800294,-0.236558 -0.751311,-0.360198 -1.421784,-0.868996 -1.949601,-1.508562 l -0.04994,-0.06302 -0.186652,-0.235379 c -1.396818,-1.943654 -1.055635,-5.775095 -3.024256,-7.13625 -1.428915,-0.980742 -1.471711,-2.353786 -1.943657,-3.906331 -0.031,-0.123636 -0.07491,-0.254417 -0.117707,-0.383978 -0.230627,-0.652641 -0.342368,-1.336189 -0.354257,-2.018548 -0.02494,-0.851167 0.105811,-1.708279 0.366146,-2.534483 0.404184,-1.279125 1.124587,-2.471475 2.055403,-3.434387 0.285318,-0.291249 0.590822,-0.564669 0.907038,-0.819067 0.452924,-0.367335 0.932004,-0.689496 1.440803,-0.968857 1.652405,-0.932004 3.546132,-1.459822 5.43986,-1.658349 2.881603,-0.298393 5.788173,0.117707 8.632924,0.651452 1.260106,0.236557 2.527346,0.496909 3.700674,1.018783 0.255597,0.111741 0.504044,0.242522 0.745367,0.391109 0.37922,0.205657 0.733478,0.454114 1.074657,0.733478 1.949598,1.546604 3.247749,3.937242 3.390402,6.433683 0.04397,0.714456 -0.01179,1.434856 -0.154538,2.136237"
         style="fill:#e2e1d4;fill-opacity:1;fill-rule:nonzero;stroke:none;stroke-width:0.118878"
         id="path852" />
      <path
         d="m 66.397328,42.116349 c -1.426355,0.319856 -1.648981,0.369 -4.014401,0.226749 -0.279354,0.09392 -0.558725,0.192582 -0.838089,0.286498 -0.435095,0.148607 -0.962913,0.285318 -1.31717,-0.0071 -0.173577,-0.142642 -0.260349,-0.347127 -0.347124,-0.552784 -0.37922,-0.899908 -0.764385,-1.793871 -1.143606,-2.694965 -0.570617,-1.346891 -1.14242,-2.800769 -1.179272,-4.22255 -0.02494,-0.590826 0.04994,-1.174514 0.254384,-1.745131 0.09274,-0.254384 0.204478,-0.49691 0.341179,-0.733478 0.254385,-0.458868 0.565859,-0.880885 0.876131,-1.304091 1.745131,-2.384694 1.90834,-2.383709 3.74095,-3.096239 1.83261,-0.712529 3.535079,-1.064472 6.147619,-1.072213 2.61254,-0.0077 7.830485,0.903395 10.601457,3.653165 -2.437266,4.204473 -5.975574,6.207542 -9.820255,8.649739 -0.376354,0.665559 -1.982648,2.026114 -3.301803,2.6124 z"
         style="fill:#12110f;fill-opacity:1;fill-rule:nonzero;stroke:none;stroke-width:0.118878"
         id="path11510"
         sodipodi:nodetypes="cccccccccczzccc" />
      <path
         d="m 38.684584,39.592259 c -0.471947,0.851167 -0.94389,1.708278 -1.42297,2.558256 -0.105811,0.192583 -0.216373,0.385165 -0.397054,0.509985 -0.385165,0.254418 -0.901094,0.0618 -1.317166,-0.130747 0,0 -0.727469,-0.180723 -1.052628,-0.301983 -0.409381,-0.222326 -0.58163,-0.36861 -1.23807,-0.425111 -0.997019,-0.238124 -8.453415,-0.592435 -12.662398,-13.785637 1.292491,-1.503086 5.274747,-2.32843 8.065933,-1.767905 4.639345,0.702303 7.64381,1.147663 9.445691,4.207559 0.130747,0.223483 1.404962,1.590414 1.528599,1.813907 0.148607,0.279355 0.285318,0.56467 0.39705,0.857109 0.08677,0.204477 0.155717,0.408942 0.205657,0.626487 0.489776,2.006663 -0.54684,4.031158 -1.552548,5.838103"
         style="fill:#12110f;fill-opacity:1;fill-rule:nonzero;stroke:none;stroke-width:0.118878"
         id="path856"
         sodipodi:nodetypes="ccccccccccccc" />
      <path
         d="m 62.590963,41.187603 c -0.216373,0 -0.425582,-0.02494 -0.624109,-0.07966 -0.526631,-0.143856 -0.707325,-0.816695 -0.909417,-1.323115 -0.18901,-0.470757 -0.378031,-0.948648 -0.433905,-1.451502 -0.05469,-0.50404 0.0428,-1.046125 0.372087,-1.43129 0.578937,-0.677604 1.695204,-0.701381 2.238475,-1.407517 -0.350689,0.05705 -0.706136,0.08559 -1.060393,0.08559 -0.284105,0 -0.568238,-0.01887 -0.848788,-0.05469 -0.124817,-0.01651 -0.262708,-0.04398 -0.332866,-0.148607 -0.114134,-0.167613 0.02965,-0.38992 0.180687,-0.524252 1.292206,-1.147175 3.39397,-0.77865 4.81813,-1.75702 -1.017597,0.336438 -2.089878,0.507613 -3.162157,0.507613 -0.469567,0 -0.937949,-0.03201 -1.402762,-0.09867 0.942704,-0.191403 1.885408,-0.3816 2.829298,-0.572993 -0.227055,0.02157 -0.454114,0.03201 -0.682359,0.03201 -0.435095,0 -0.869,-0.03922 -1.296961,-0.118886 -0.196154,-0.03686 -0.425582,-0.112921 -0.476701,-0.305503 l 0.03447,-0.279354 c 0.261528,-0.678794 1.024728,-1.021162 1.739187,-1.159064 0.715645,-0.13907 1.471711,-0.148607 2.124351,-0.471943 -0.539709,0.05944 -1.08298,0.08916 -1.626252,0.08916 -0.309075,0 -0.619357,-0.0094 -0.928439,-0.02864 1.037805,-1.168569 2.718742,-1.461012 4.264156,-1.683312 -1.101999,-0.0071 -2.208754,-0.01415 -3.298865,-0.179508 1.015218,-0.15811 2.007849,-0.454117 2.943419,-0.87732 -1.321302,-0.216231 -1.645613,0.188606 -2.567352,0.386476 0.268542,-0.271221 1.057891,-0.59852 1.522026,-0.730152 8.699096,0.351384 10.008179,1.501231 13.049964,3.297203 -1.527561,2.207504 -7.019556,7.354333 -9.277647,7.93361 -5.189012,4.82406 -5.499328,2.351004 -7.187398,2.351004"
         style="fill:#fbd9d9;fill-opacity:1;fill-rule:nonzero;stroke:none;stroke-width:0.118878"
         id="path858"
         sodipodi:nodetypes="ccccccsccccsccscccccsccccccccc" />
      <path
         d="m 34.522663,40.39112 c -0.627674,0 -3.404587,0.794216 -4.861136,-0.154846 -1.456549,-0.949062 -4.250509,-1.501535 -8.862165,-12.186336 6.364326,-1.715675 10.270084,-1.763731 14.693868,0.665088 -1.118775,-0.391069 -2.566578,-0.386822 -3.709155,-0.641934 1.135286,0.500475 2.056178,0.357772 3.191464,0.859436 0.172364,0.07609 0.366143,0.175936 0.406563,0.360199 0.03923,0.178328 -0.0951,0.359012 -0.261528,0.432719 -0.108169,0.04755 -0.224696,0.06062 -0.343555,0.06062 -0.06537,0 -0.13196,-0.0037 -0.197333,-0.0094 -1.015222,-0.07727 -2.013796,-0.288891 -3.009995,-0.500476 1.260109,0.871376 2.68189,1.50856 4.17143,1.867572 0.129568,0.209229 -0.217552,0.3816 -0.464813,0.387544 -0.454113,0.01078 -0.908227,0.02123 -1.362341,0.03336 0.727534,0.140283 1.421781,0.454113 2.007852,0.908227 -0.369712,0.07609 -0.745367,0.112921 -1.122212,0.112921 -0.82858,0 -1.65716,-0.179507 -2.406091,-0.531386 1.157874,0.584881 2.315744,1.168573 3.473618,1.753451 0.325722,0.16404 0.701381,0.406563 0.688303,0.772709 -0.0094,0.298393 -0.301932,0.525442 -0.596767,0.568238 -0.04994,0.0071 -0.09985,0.01078 -0.149786,0.01078 -0.246094,0 -0.48978,-0.07966 -0.725158,-0.15811 -0.927247,-0.307896 -1.854497,-0.615788 -2.780557,-0.923681 0.904662,0.543271 1.809325,1.085356 2.715177,1.628628 0.170005,0.102238 0.367332,0.272243 0.298393,0.458871 -0.0951,0.01179 -0.19019,0.01786 -0.284106,0.01786 -0.860676,0 -1.676181,-0.4874 -2.417979,-0.956968 0.42915,0.464813 0.915361,0.87732 1.443179,1.226823 0.401808,0.2651 0.841657,0.506419 1.106754,0.908228 0.29718,0.451738 0.318578,1.04137 0.181867,1.564437 -0.136712,0.523062 -0.416073,0.996195 -0.693058,1.462198 -0.04398,0.0024 -0.08798,0.0037 -0.130781,0.0037"
         style="fill:#fbd9d9;fill-opacity:1;fill-rule:nonzero;stroke:none;stroke-width:0.118878"
         id="path860"
         sodipodi:nodetypes="czccccccsccccccsccccsccccscccscc" />
      <path
         d="m 47.415708,42.303192 c 0.03781,-0.786994 0.07683,-1.158819 0.257302,-1.880227 0.29718,-0.637187 0.750118,-1.224444 1.370662,-1.554924 0.517121,-0.276996 1.107944,-0.356637 1.699959,-0.356637 0.212801,0 0.425582,0.01078 0.634807,0.02494 0.968857,0.07013 1.221926,0.112717 2.312665,0.5633 -0.355387,0.848446 -0.265585,1.450493 -0.764874,2.170893 -0.709701,1.024731 -2.022113,1.450313 -3.283412,1.450313 -0.124816,0 -0.248453,-0.0047 -0.372087,-0.01314"
         style="fill:#12110f;fill-opacity:1;fill-rule:nonzero;stroke:none;stroke-width:0.118878"
         id="path862"
         sodipodi:nodetypes="cccscccsc" />
      <path
         d="m 39.594615,42.348615 c -2.088932,-0.303569 -1.910552,-2.713449 -2.174611,-4.000613 0.906304,-0.377638 2.899535,-0.282775 3.653356,0.241703 0.509985,0.391109 0.77033,1.016408 0.858298,1.676179 0.08916,0.658585 0.02022,1.35759 -0.04873,2.049458"
         style="fill:#12110f;fill-opacity:1;fill-rule:nonzero;stroke:none;stroke-width:0.118878"
         id="path864"
         sodipodi:nodetypes="ccccc" />
      <path
         d="m 44.926871,54.125101 c -0.915361,0 -1.742752,-0.293642 -2.156448,-1.174514 -0.318579,0.582502 -0.926058,0.961723 -1.566813,0.961723 -0.219911,0 -0.444604,-0.04519 -0.66215,-0.141463 v 0 l -0.04994,-0.06302 c 0.165254,0.05351 0.334045,0.07966 0.501668,0.07966 0.704946,0 1.368286,-0.454114 1.528771,-1.172138 l 0.01314,-0.155718 c 0.031,-0.216373 0.05587,-0.433905 0.06777,-0.651454 0.01314,-0.180687 0.01887,-0.360198 -0.031,-0.533762 -0.136712,-0.49691 -0.443379,-0.366065 -1.086546,-1.04375 -0.435095,-0.267458 -0.89375,-4.004363 0.202707,-6.248132 -0.509807,2.637931 -0.332558,6.193739 1.095289,6.162551 1.490233,0.156139 1.817745,-0.473852 4.285127,-4.82887 -1.824644,4.391915 -2.491492,4.865953 -3.185193,5.369249 -0.435095,0.273424 -0.758605,0.09204 -0.901258,0.588952 -0.04398,0.173577 -0.04398,0.353068 -0.031,0.533762 0.01179,0.192582 0.03687,0.391109 0.06777,0.583692 0.200905,1.239897 1.204235,1.590589 2.286026,1.590589 0.526628,0 1.072278,-0.0832 1.552545,-0.186651 -0.611031,0.186651 -1.292203,0.329294 -1.93058,0.329294"
         style="fill:#12110f;fill-opacity:1;fill-rule:nonzero;stroke:none;stroke-width:0.118878"
         id="path868"
         sodipodi:nodetypes="ccssccsccccccccccccscc" />
      <path
         d="m 48.545572,40.327863 c -0.0428,0.20805 -0.08677,0.419638 -0.06655,0.632429 0.03686,0.389923 0.292429,0.738232 0.621733,0.948648 0.330474,0.210408 0.727534,0.29718 1.118643,0.313827 0.628864,0.0273 1.331434,-0.166434 1.650026,-0.708512 0.137891,-0.234199 0.18901,-0.507609 0.221124,-0.777464 0.03201,-0.273423 0.04398,-0.562293 -0.07727,-0.809557 -0.09034,-0.185439 -0.249632,-0.328115 -0.419637,-0.446983 -0.581316,-0.405374 -1.333813,-0.557539 -2.026871,-0.408939 -0.200906,0.04397 -0.401808,0.112921 -0.559918,0.244881 -0.29007,0.242523 -0.383975,0.641942 -0.461247,1.011653"
         style="fill:#ffffff;fill-opacity:1;fill-rule:nonzero;stroke:none;stroke-width:0.118878"
         id="path870" />
      <path
         d="m 38.290513,40.263484 -0.0037,-0.01887 c 0.135532,0.656209 0.122458,1.527585 1.76296,1.648839 0.350689,0.02494 0.729913,0.0047 0.998575,-0.223483 0.244881,-0.206837 0.356636,-0.534951 0.38992,-0.853543 0.124816,-1.187592 -0.718021,-2.049458 -1.713031,-2.211133 -0.355447,-0.05705 -0.751311,0.02022 -0.999764,0.280533 -0.10699,0.112921 -0.180687,0.253205 -0.24013,0.398243 -0.128388,0.309076 -0.194975,0.644321 -0.194975,0.979556"
         style="fill:#ffffff;fill-opacity:1;fill-rule:nonzero;stroke:none;stroke-width:0.118878"
         id="path872" />
      <path
         d="m 49.003255,40.119827 c -0.0155,0.178328 -0.0273,0.357822 -0.0094,0.534951 0.04755,0.492155 0.350689,0.970043 0.809558,1.150737 0.458872,0.180687 1.054448,0 1.273184,-0.442226 0.06777,-0.135532 0.09985,-0.286498 0.117706,-0.43747 0.03686,-0.303145 0.02258,-0.611034 -0.04162,-0.909417 l -0.03687,-0.06659 c -0.06659,-0.248453 -0.2651,-0.445791 -0.494534,-0.561104 -0.229448,-0.115314 -0.488587,-0.159289 -0.744174,-0.18308 -0.150966,-0.01415 -0.307896,-0.02123 -0.446983,0.03922 -0.313827,0.135532 -0.397054,0.534952 -0.426772,0.874945"
         style="fill:#00a19a;fill-opacity:1;fill-rule:nonzero;stroke:none;stroke-width:0.118878"
         id="path874" />
      <path
         d="m 39.026367,39.82839 c -0.01314,0.178328 -0.02393,0.357822 -0.0084,0.53614 0.0404,0.490966 0.300752,0.970047 0.694247,1.149551 0.393489,0.180687 0.903473,0 1.091301,-0.441036 0.05826,-0.136711 0.08559,-0.287677 0.101059,-0.43866 0.031,-0.301965 0.01887,-0.611034 -0.03565,-0.908231 l -0.031,-0.06777 c -0.05829,-0.24727 -0.228263,-0.4446 -0.425614,-0.559911 -0.196154,-0.116493 -0.418452,-0.160468 -0.637187,-0.184259 -0.129568,-0.01415 -0.26392,-0.02022 -0.382786,0.0404 -0.268672,0.135532 -0.341179,0.533762 -0.366146,0.873751"
         style="fill:#00a19a;fill-opacity:1;fill-rule:nonzero;stroke:none;stroke-width:0.118878"
         id="path876" />
      <path
         d="m 50.392938,39.707319 c -0.0618,-0.146214 -0.161681,-0.286498 -0.307896,-0.349502 -0.146214,-0.06302 -0.342368,-0.02494 -0.419641,0.114134 l -0.04873,0.174756 c -0.06777,0.480267 -0.06062,0.970046 0.01887,1.446748 0.02258,0.129568 0.04994,0.260348 0.120065,0.370897 0.06895,0.110562 0.187831,0.199727 0.318612,0.199727 0.142643,0 0.269851,-0.105811 0.334046,-0.23302 0.06537,-0.127209 0.08084,-0.273423 0.09034,-0.417262 0.01179,-0.167613 0.01786,-0.335225 0.01786,-0.502854 0,-0.273424 -0.01651,-0.552781 -0.123637,-0.803614"
         style="fill:#3c3c3b;fill-opacity:1;fill-rule:nonzero;stroke:none;stroke-width:0.118878"
         id="path878" />
      <path
         d="m 40.431508,39.456303 c -0.0618,-0.147428 -0.161682,-0.286498 -0.307896,-0.349503 -0.145035,-0.06419 -0.342369,-0.02628 -0.419638,0.112921 l -0.04873,0.175936 c -0.06777,0.47908 -0.06062,0.968857 0.02022,1.446747 0.02123,0.128389 0.04994,0.260349 0.118885,0.370898 0.06895,0.110562 0.187831,0.198513 0.318578,0.198513 0.142643,0.0012 0.269852,-0.104598 0.335225,-0.231807 0.06537,-0.128388 0.07966,-0.274602 0.08916,-0.417262 0.01179,-0.167612 0.01786,-0.335224 0.01786,-0.504043 0,-0.272244 -0.01651,-0.551595 -0.123637,-0.802427"
         style="fill:#3c3c3b;fill-opacity:1;fill-rule:nonzero;stroke:none;stroke-width:0.118878"
         id="path880" />
      <path
         d="m 49.346813,41.057772 -0.197334,0.05944 -0.05705,0.331653 0.174756,0.06062 c 0.148607,-0.0012 0.317399,-0.105811 0.306717,-0.254418 l -0.185439,-0.190189 -0.04162,-0.0071"
         style="fill:#ffffff;fill-opacity:1;fill-rule:nonzero;stroke:none;stroke-width:0.118878"
         id="path882" />
      <path
         d="m 51.071732,39.803611 c -0.194975,-0.03687 -0.407753,0.09274 -0.463623,0.282926 -0.0523,0.178328 0.031,0.382786 0.1819,0.490965 0.150966,0.10817 0.356633,0.125996 0.532572,0.06537 l 0.204478,-0.150966 0.04519,-0.148607 -0.0094,-0.24013 C 51.516479,39.965278 51.377411,39.873721 51.234734,39.844 51.092092,39.81435 51.215864,39.83086 51.071873,39.8036"
         style="fill:#ffffff;fill-opacity:1;fill-rule:nonzero;stroke:none;stroke-width:0.118878"
         id="path884" />
      <path
         d="m 39.107204,41.109897 0.145035,0.152145 -0.0155,-0.0012 0.02123,0.01887 c 0.109382,0.02864 0.228234,-0.08441 0.208049,-0.196154 -0.02022,-0.111742 -0.165253,-0.177115 -0.26392,-0.122458 l -0.0951,0.148607"
         style="fill:#ffffff;fill-opacity:1;fill-rule:nonzero;stroke:none;stroke-width:0.118878"
         id="path886" />
      <path
         d="m 40.483813,39.764195 -0.0037,0.15929 0.03923,0.109382 0.109382,0.118886 c 0.123637,0.08441 0.300753,0.08202 0.422017,-0.0061 0.122458,-0.08798 0.179508,-0.255597 0.137891,-0.399429 -0.04162,-0.143855 -0.180687,-0.254418 -0.330473,-0.262707 -0.170005,-0.0094 -0.336438,0.115313 -0.374466,0.280567"
         style="fill:#ffffff;fill-opacity:1;fill-rule:nonzero;stroke:none;stroke-width:0.118878"
         id="path888" />
      <path
         d="m 74.920996,110.90007 c -1.321925,2.19784 -2.645035,4.39611 -3.974094,6.59536 -0.347123,0.57633 -0.695436,1.16001 -1.043749,1.73765 -1.067524,1.77628 -2.179033,3.80788 -1.633383,5.80743 0.267493,0.98074 0.907038,1.81287 1.361152,2.71981 0.458869,0.91298 0.7204,2.03767 0.210409,2.91856 -0.49691,0.87021 -1.63933,1.21757 -2.614128,0.99372 -0.968856,-0.22342 -1.776038,-0.92454 -2.353786,-1.73908 -0.304324,-0.42759 -0.552784,-0.88089 -0.757255,-1.36007 -0.646696,-1.51427 -0.801237,-3.24789 -0.621733,-4.89254 0.229448,-2.17465 0.980745,-4.24908 1.733242,-6.29733 0.782219,-2.15517 1.564437,-4.30471 2.346656,-6.45237 0.348313,-0.95708 0.702567,-1.97597 0.509984,-2.97574 -0.130747,-0.68949 -0.509984,-1.30434 -0.888019,-1.89371 -5.04994,-7.837653 -14.960803,-17.948232 -17.749684,-30.05834 3.13006,-1.993584 9.049,4.048986 12.724711,4.526877 0.857108,0.112921 1.702331,1.689257 2.397768,2.199245 0.564672,0.410128 0.937949,1.024727 1.29815,1.620308 0.353068,0.590825 0.713267,1.186402 1.067524,1.776038 v 0.01314 c 0.639566,1.055635 1.273184,2.117218 1.906806,3.172853 2.186166,3.640048 4.372333,7.278906 6.558503,10.924889 0.757251,1.26605 1.53947,2.58323 1.720164,4.04901 0.298393,2.35379 -0.974801,4.58273 -2.199245,6.61436"
         style="fill:#e2e1d4;fill-opacity:1;fill-rule:nonzero;stroke:none;stroke-width:0.118878"
         id="path890" />
      <path
         d="m 123.84051,110.20344 c 0.006,0.30429 -0.0189,0.60285 -0.0808,0.88935 -0.0749,0.42773 -0.22349,0.83213 -0.42202,1.21612 -0.49691,0.95102 -1.31004,1.77722 -2.24204,2.4723 -0.57775,0.43426 -1.19829,0.81312 -1.81289,1.14242 -2.65811,1.41584 -5.52783,2.44069 -8.47719,3.03044 -0.83215,0.16747 -1.70234,0.31709 -2.36687,0.83903 -1.28507,1.00585 -1.26724,2.9186 -1.13647,4.54627 0.19258,2.41558 0.38516,4.8368 0.58369,7.25987 0.044,0.59533 0.0868,1.22316 -0.17358,1.76272 -0.42201,0.87018 -1.47171,1.20554 -2.4156,1.43485 -9.054938,2.22897 -18.41421,3.23576 -27.735437,2.98171 -0.130781,-0.007 -0.261528,-0.007 -0.39111,-0.0135 -1.02473,-0.0303 -2.056592,-0.0863 -3.068244,-0.22341 -0.521874,-0.0677 -1.06158,-0.16748 -1.465767,-0.49681 -0.173577,-0.14254 -0.304324,-0.31036 -0.39705,-0.50904 -0.335225,-0.68912 -0.174756,-1.62706 0.347124,-2.22991 0.44698,-0.5089 1.062768,-0.80147 1.726108,-0.94401 0.199726,-0.0556 0.410128,-0.0869 0.615789,-0.0984 l 0.031,-0.007 h 0.01887 c 0.129568,-0.0101 0.254384,-0.0169 0.383976,-0.0169 1.018783,-0.0135 2.031625,0.19814 3.049222,0.25441 1.71422,0.0805 3.422499,-0.29856 5.098681,-0.67058 3.962205,-0.89397 7.962451,-1.79531 11.676203,-3.44748 -1.428915,-3.46507 -2.85664,-6.93071 -4.279611,-10.39578 -0.341179,-0.81919 -0.676418,-1.6833 -0.857112,-2.55267 -0.191403,-0.88183 -0.223483,-1.76414 0.06301,-2.6078 0.614599,-1.80138 2.446512,-2.83182 4.135769,-3.70806 2.19211,-1.13076 4.384225,-2.26702 6.620319,-3.32253 l 0.20448,-0.0991 c 2.78888,-1.31098 5.68237,-2.50927 8.70782,-3.05611 0.52782,-0.0987 1.06158,-0.17355 1.59534,-0.22949 3.4653,-0.3483 7.16716,0.34834 9.89303,2.50954 l 0.31029,0.24835 c 0.41013,0.34689 0.79529,0.73788 1.13053,1.17356 0.57775,0.73919 0.99382,1.58905 1.10557,2.50192 0.0131,0.12502 0.0189,0.24296 0.0249,0.36636"
         style="fill:#e2e1d4;fill-opacity:1;fill-rule:nonzero;stroke:none;stroke-width:0.118878"
         id="path892" />
      <path
         d="m 67.818032,131.73952 c -0.199726,0 -0.39824,-0.0236 -0.590822,-0.0671 -0.968857,-0.22342 -1.776038,-0.92453 -2.353786,-1.73907 -0.304324,-0.42759 -0.552784,-0.88089 -0.757255,-1.36007 0.111742,0.11187 0.223483,0.21768 0.347124,0.31776 0.650265,0.53961 1.499053,0.8999 2.328822,0.8999 0.343558,0 0.683548,-0.0617 1.005709,-0.19881 -0.378032,-0.69522 -0.452925,-1.54639 -0.198514,-2.29162 -0.483835,-0.76345 -0.849978,-1.59558 -1.080601,-2.47183 -0.154538,-0.57026 -0.248454,-1.17298 -0.142643,-1.75679 0.155717,-0.90132 0.751308,-1.64658 1.298148,-2.37279 0.893963,-1.17905 1.714219,-2.40966 2.46553,-3.68903 1.254165,-2.11699 2.297912,-4.35903 3.124116,-6.68179 0.328115,-0.91893 0.620543,-1.88815 0.49691,-2.85069 -0.211588,-1.60852 -1.509752,-2.81992 -2.733007,-3.88743 0.876131,-0.0236 2.415601,0.13681 2.602243,-1.04376 0.179508,-1.18046 -0.54684,-2.28484 -1.205425,-3.285794 -2.502382,-3.825483 -4.334295,-8.700674 -5.48979,-13.121747 0.639566,1.055635 1.273184,2.117217 1.906806,3.172852 2.186166,3.640048 4.372333,7.278907 6.558503,10.924879 0.757252,1.26606 1.53947,2.58324 1.720164,4.04902 0.02965,0.2342 0.04398,0.46718 0.04398,0.69899 0,1.38124 -0.495721,2.71766 -1.148361,3.99049 -0.0012,0.001 -0.0012,0.002 -0.0024,0.003 -0.337614,0.65751 -0.716834,1.2979 -1.09249,1.92107 -1.321924,2.19783 -2.645035,4.3961 -3.974093,6.59535 -0.347124,0.57633 -0.695437,1.16001 -1.04375,1.73766 -0.873751,1.45399 -1.777224,3.07785 -1.777224,4.71613 0,0.36363 0.04516,0.72763 0.143855,1.0913 0.267493,0.98074 0.907038,1.81287 1.361152,2.71981 0.281747,0.56002 0.48859,1.19947 0.48859,1.81287 0.0012,0.38779 -0.08084,0.76571 -0.278175,1.10569 -0.398243,0.69795 -1.213744,1.06063 -2.023305,1.06063"
         style="fill:#cbcabb;fill-opacity:1;fill-rule:nonzero;stroke:none;stroke-width:0.118878"
         id="path894" />
      <path
         d="m 80.389388,137.8162 v 0 0 0 m 0.0084,0 c 8.281046,0 16.565661,-0.99237 24.612522,-2.94923 -8.046861,1.95686 -16.330286,2.94923 -24.612522,2.94923"
         style="fill:#d5d3d1;fill-opacity:1;fill-rule:nonzero;stroke:none;stroke-width:0.118878"
         id="path896" />
      <path
         d="m 124.53832,112.36562 v 0 0 0 m 0.009,0 c 3.34047,-0.002 6.68689,-1.29699 9.08466,-3.63281 -2.39777,2.33582 -5.74419,3.63042 -9.08466,3.63281"
         style="fill:#d5d3d1;fill-opacity:1;fill-rule:nonzero;stroke:none;stroke-width:0.118878"
         id="path898" />
      <path
         d="m 124.53832,112.36562 v 0 c -0.40061,0 -0.80242,-0.0202 -1.20067,-0.0566 v 0 c 0.19852,-0.38399 0.34713,-0.78839 0.42202,-1.21612 0.0618,-0.28643 0.0868,-0.58512 0.0808,-0.88935 -0.006,-0.12367 -0.0118,-0.24161 -0.0249,-0.36636 0.21158,0.0381 0.42915,0.0563 0.6455,0.0617 0.0594,0.003 0.11771,0.003 0.17712,0.003 1.39087,0 2.88279,-0.55157 4.15835,-1.19567 2.204,-1.11175 4.3343,-2.45282 5.9867,-4.28449 2.81979,-3.13005 4.01214,-7.359725 5.11057,-11.427734 1.12459,-4.135769 2.24917,-8.277481 3.36663,-12.414436 1.31598,-4.850227 3.33453,-9.432975 5.35307,-14.034746 5.78222,-13.209729 24.40685,-13.103928 33.69121,-15.979587 l -0.0428,0.02494 v 0 c -0.40417,0.198514 -0.83331,0.422017 -1.29814,0.664529 v 0 l -0.0236,0.0118 c -0.49691,0.230627 -0.99975,0.454117 -1.50976,0.65264 -4.34735,1.732056 -9.01687,2.452456 -13.5509,3.613895 -4.53282,1.161439 -9.09774,2.869715 -12.44534,6.142431 -2.25394,2.205185 -3.83143,5.005955 -5.12958,7.880424 -4.62078,10.278199 -5.9118,21.786786 -10.30316,32.163634 -1.07465,2.52736 -2.35973,5.03056 -4.31646,6.96232 v 0 c -0.0165,0.0169 -0.0345,0.0337 -0.0511,0.0502 -2.39777,2.33582 -5.74419,3.63042 -9.08466,3.63281 -0.004,0 -0.006,0 -0.009,0"
         style="fill:#cbcabb;fill-opacity:1;fill-rule:nonzero;stroke:none;stroke-width:0.118878"
         id="path900" />
      <path
         d="m 80.389388,137.8162 v 0 c -0.942704,0 -1.886594,-0.0135 -2.828108,-0.0378 v 0 c -0.130781,-0.007 -0.261528,-0.007 -0.39111,-0.0135 v 0 c -1.02473,-0.0303 -2.056592,-0.0863 -3.068244,-0.22341 -0.521874,-0.0677 -1.06158,-0.16748 -1.465767,-0.49681 -0.173577,-0.14254 -0.304324,-0.31035 -0.39705,-0.50903 2.612938,0.23184 5.236578,0.34833 7.861405,0.34833 5.437484,0 10.87853,-0.49788 16.228043,-1.49062 1.571571,-0.28643 3.136005,-0.62186 4.688553,-1.00072 1.14955,-0.27969 2.37875,-0.62648 3.13719,-1.53982 0.75726,-0.91856 0.70138,-2.57124 -0.38516,-3.0491 0.12245,0.0549 0.25084,0.0799 0.38041,0.0799 0.42915,0 0.86662,-0.27362 1.10913,-0.64585 0.3174,-0.4779 0.38516,-1.08058 0.42915,-1.65692 0.23538,-2.96957 -0.13078,-6.36603 -2.04351,-8.4715 -0.15572,-0.16748 -0.32215,-0.32923 -0.50286,-0.48478 -0.24252,-0.21027 -0.5088,-0.40299 -0.7953,-0.57667 0.61817,0.0822 1.23634,0.11896 1.85569,0.11896 1.79744,0 3.59606,-0.31272 5.3614,-0.7272 0.27343,-0.0633 0.54565,-0.13108 0.81313,-0.20016 2.71399,-0.68211 5.45888,-1.57002 7.65099,-3.31515 0.67048,-0.53495 1.27913,-1.1618 1.78911,-1.85698 1.17333,-1.58346 1.84381,-3.51525 1.58346,-5.447 -0.031,-0.23555 -0.0808,-0.47194 -0.13078,-0.70732 l 0.31029,0.24835 c 0.41013,0.34689 0.79529,0.73788 1.13053,1.17356 0.57775,0.73919 0.99382,1.58905 1.10556,2.50192 v 0 c 0.0131,0.12502 0.0189,0.24296 0.0249,0.36636 0.006,0.30429 -0.0189,0.60285 -0.0808,0.88935 -0.0749,0.42773 -0.22348,0.83213 -0.42202,1.21612 v 0 c -0.49691,0.95102 -1.31003,1.77722 -2.24204,2.4723 -0.57774,0.43426 -1.19829,0.81313 -1.81289,1.14242 -2.65811,1.41584 -5.52783,2.44069 -8.47719,3.03044 -0.83215,0.16747 -1.70234,0.31709 -2.36687,0.83904 -0.96409,0.75368 -1.19472,2.01866 -1.19472,3.29054 0,0.42355 0.0263,0.84797 0.0583,1.25572 0.19258,2.41558 0.38516,4.8368 0.58369,7.25987 0.0165,0.22341 0.0334,0.45043 0.0334,0.67749 0,0.37661 -0.044,0.74762 -0.20684,1.08523 -0.42201,0.87018 -1.47171,1.20554 -2.4156,1.43485 v 0 c -0.0963,0.0236 -0.1914,0.0465 -0.2865,0.0701 -8.046851,1.95687 -16.331465,2.94923 -24.612512,2.94923 -0.0024,0 -0.0061,0 -0.0084,0"
         style="fill:#cbcabb;fill-opacity:1;fill-rule:nonzero;stroke:none;stroke-width:0.118878"
         id="path902" />
      <path
         d="m 57.274737,48.485525 v 0 c 0.353068,-0.165254 0.700191,-0.341179 1.03424,-0.540892 2.043514,-1.21018 3.521166,-3.297679 4.07395,-5.601535 v 0 h 0.0012 c -0.552784,2.303856 -2.02806,4.392545 -4.075139,5.601535 -0.334046,0.199726 -0.681172,0.375652 -1.03424,0.540892"
         style="fill:#d5d3d1;fill-opacity:1;fill-rule:nonzero;stroke:none;stroke-width:0.118878"
         id="path904" />
      <path
         d="m 45.208614,55.907084 c -0.93557,0 -1.874708,-0.218732 -2.717552,-0.627678 0.450545,0.08559 0.908227,0.128389 1.36472,0.128389 0.677604,0 1.355208,-0.09392 2.007849,-0.282926 1.490733,-0.429148 2.868528,-1.39206 3.546132,-2.782933 0.666908,-1.370665 0.531386,-3.157403 -0.506419,-4.266536 0.231806,0.223483 0.551594,0.29718 0.888019,0.29718 0.243702,0 0.49691,-0.03804 0.729913,-0.08559 1.080601,-0.211588 2.167144,-0.485025 3.130056,-1.030675 1.980509,-1.112699 3.22873,-3.385647 3.147893,-5.645517 0.04994,0.739419 0.09392,1.477651 0.143855,2.21113 0.02393,0.402997 0.0618,0.838092 0.34118,1.123397 0.204477,0.211622 0.502854,0.298394 0.788162,0.335225 0.09985,0.01179 0.199727,0.01786 0.298394,0.01786 0.731099,0 1.458632,-0.313827 1.950788,-0.849978 0.418451,-0.455303 0.659774,-1.061579 0.688306,-1.674992 0.181866,-0.02965 0.364956,-0.08677 0.534951,-0.143856 0.279354,-0.09392 0.558725,-0.192582 0.838089,-0.286498 -0.552784,2.303856 -2.030435,4.391356 -4.073949,5.601535 -0.334046,0.199727 -0.681173,0.375652 -1.034241,0.540892 -1.122208,0.525442 -2.306235,0.935574 -3.349984,1.602479 -2.422735,1.546604 -3.969339,4.359258 -6.633397,5.427971 -0.66215,0.2651 -1.370661,0.391109 -2.082741,0.391109"
         style="fill:#cbcabb;fill-opacity:1;fill-rule:nonzero;stroke:none;stroke-width:0.118878"
         id="path906" />
      <path
         d="m 61.009886,42.773434 c 0.01078,-0.215159 -0.0061,-0.430336 -0.04873,-0.640752 0.02494,0 0.05112,0 0.07609,0 0.482642,0 0.954589,-0.05587 1.426536,-0.155717 -0.02393,0.122458 -0.05112,0.244882 -0.07966,0.366146 h -0.0012 v 0 c -0.279355,0.09392 -0.558725,0.192583 -0.83809,0.286498 -0.170005,0.05705 -0.353068,0.114134 -0.534951,0.143856"
         style="fill:#cbcabb;fill-opacity:1;fill-rule:nonzero;stroke:none;stroke-width:0.118878"
         id="path908" />
      <path
         d="m 50.453026,44.437012 c -0.0155,-0.0155 -0.031,-0.03201 -0.04637,-0.04994 0.0155,0.01651 0.031,0.03336 0.04637,0.04994"
         style="fill:#cbcabb;fill-opacity:1;fill-rule:nonzero;stroke:none;stroke-width:0.118878"
         id="path910" />
      <path
         d="m 58.675876,38.988593 c -2.435233,-1.731589 -4.303198,-1.968019 -7.885781,-4.098726 -0.849503,-0.483775 -0.391515,-2.482212 -1.064146,-2.759525 -2.042325,-0.845223 -4.327618,-0.600406 -5.056446,0.04463 -1.33621,1.128573 -0.0037,1.726712 -2.042475,2.583811 -2.038786,0.857099 -2.136153,1.255039 -2.752265,2.279665 -1.359474,-0.550429 -1.275687,-3.454218 -0.240341,-4.767894 1.652405,-0.932004 3.546132,-1.459822 5.43986,-1.658349 0.665715,-0.06894 1.332623,-0.09985 2.000718,-0.09985 2.220642,0 4.44485,0.341183 6.632206,0.751311 1.260106,0.236558 2.527346,0.49691 3.700674,1.018783 0.255597,0.111742 0.504043,0.242523 0.745366,0.391109 -0.136711,0.236558 -0.248453,0.479081 -0.341179,0.733478"
         style="fill:#12110f;fill-opacity:1;fill-rule:nonzero;stroke:none;stroke-width:0.118878"
         id="path912"
         sodipodi:nodetypes="cccczcccscccc" />
      <path
         d="m 58.459219,36.321356 c -0.329294,-0.49691 -0.701381,-0.962913 -1.111509,-1.384929 v 0 c -0.02494,-0.590826 0.04994,-1.174514 0.254384,-1.745131 0.09274,-0.254384 0.204478,-0.49691 0.341179,-0.733478 v 0 c 0.254385,-0.458869 0.616392,-0.948262 0.926664,-1.371469 1.980952,-2.115184 2.43394,-2.485573 5.933027,-3.469378 -2.309993,0.957687 -2.959301,1.152062 -4.411993,3.338228 -0.471946,0.71446 -0.981931,1.459823 -1.37304,2.236097 -0.49691,0.999764 -0.795293,2.049458 -0.558729,3.13006"
         style="fill:#12110f;fill-opacity:1;fill-rule:nonzero;stroke:none;stroke-width:0.118878"
         id="path914"
         sodipodi:nodetypes="csscssccccc" />
      <path
         d="m 37.895235,34.890631 c 0.211588,-0.539706 0.298394,-1.09249 0.298394,-1.651215 0.499226,-4.077734 -3.158657,-4.912262 -3.641557,-5.711114 1.494721,0.577996 3.337229,1.723943 4.697195,4.071784 0.130747,0.223483 0.261528,0.44698 0.385165,0.670473 v 0 c 0.148607,0.279355 0.285318,0.56467 0.39705,0.857109 0,0 0.01174,0.82542 1.118911,1.337392 -1.911977,1.029916 -3.687464,2.637226 -5.065585,4.570519"
         style="fill:#12110f;fill-opacity:1;fill-rule:nonzero;stroke:none;stroke-width:0.118878"
         id="path916"
         sodipodi:nodetypes="ccccssscc" />
      <path
         d="m 125.11369,107.81292 c -0.3602,-0.0135 -0.7204,-0.0502 -1.07466,-0.11794 v 0 c -0.41012,-0.59678 -0.65858,-1.35973 -0.98074,-2.02439 -0.9748,-2.01856 -2.91251,-3.35353 -4.6089,-4.81338 -4.91799,-4.229667 -8.22161,-9.979799 -12.01025,-15.246099 -0.93795,-1.304091 -1.93177,-2.596294 -2.99335,-3.838571 0.10581,0.534951 0.19258,1.068713 0.29839,1.596531 0.47195,2.272948 1.82597,3.763681 3.09202,5.707335 1.08774,1.652409 2.01261,3.90039 2.41679,5.838103 -1.06871,-2.391827 -2.54637,-4.60177 -4.3545,-6.496684 -1.99359,-2.092254 -4.43415,-3.881371 -5.682372,-6.489554 -0.949837,-1.981699 -1.14242,-4.316462 -2.384696,-6.129353 -1.577512,-1.018786 -3.266768,-1.84499 -5.085603,-2.384696 0.701381,1.005708 0.968857,2.297915 0.726344,3.50215 -1.285072,-2.999296 -3.981227,-5.359026 -7.123172,-6.241101 -2.024495,-0.565859 -4.179754,-0.540895 -6.229212,-1.024727 -2.496438,-0.589636 -4.807428,-1.950788 -6.527592,-3.856404 -1.645274,-1.81408 -2.912514,-4.210662 -5.21637,-5.049941 -1.329058,-0.483835 -2.837621,-0.366146 -4.129824,-0.943893 -0.279354,-0.123637 -0.533762,-0.273423 -0.77033,-0.44698 0.123637,0.0084 0.247274,0.01314 0.372087,0.01314 0.721589,0 1.470521,-0.13196 2.217077,-0.2651 0.746553,-0.13196 1.49192,-0.26392 2.204,-0.26392 0.675228,0 1.320735,0.117706 1.913936,0.466002 0.764385,0.448169 1.280318,1.211369 1.839043,1.900861 3.558021,4.353314 9.352138,6.079423 14.818151,7.421556 5.464823,1.346891 11.270829,2.719931 15.271073,6.676192 1.27319,1.266054 2.3098,2.744895 3.34642,4.203531 5.93083,8.347616 12.25395,16.414682 18.94203,24.171482 0.64551,0.74536 1.31004,1.52165 1.60248,2.46553 0.10699,0.34927 0.15571,0.70735 0.15571,1.06623 0,0.20185 -0.0155,0.40312 -0.044,0.60413 v 0"
         style="fill:#12110f;fill-opacity:1;fill-rule:nonzero;stroke:none;stroke-width:0.118878"
         id="path918" />
      <path
         d="m 125.8864,108.67255 c -0.31147,0 -0.61579,-0.0516 -0.90347,-0.17624 l -0.14861,-0.0691 c -0.32929,-0.17927 -0.58369,-0.43369 -0.79529,-0.73228 v 0 0 c 0.35426,0.0677 0.71446,0.10581 1.07466,0.11794 v 0 0 0 c 0.10463,0.003 0.20922,0.007 0.31382,0.007 3.0195,0 6.09845,-1.62602 8.1693,-3.94294 2.76986,-3.10511 4.12982,-7.190941 5.41609,-11.154335 0.93081,-2.868529 1.74513,-6.116278 2.57014,-9.346194 -0.40894,2.322878 -3.27866,15.712121 -6.91751,20.326959 -1.70234,2.15527 -4.17976,3.4961 -6.74514,4.47684 -0.6467,0.25071 -1.35641,0.49371 -2.03401,0.49371"
         style="fill:#dbd0bd;fill-opacity:1;fill-rule:nonzero;stroke:none;stroke-width:0.118878"
         id="path920" />
    </g>
  </g>
</svg>
