<?xml version="1.0" encoding="UTF-8" standalone="no"?>
<!-- Created with Inkscape (http://www.inkscape.org/) -->

<svg
   width="210mm"
   height="160mm"
   viewBox="0 0 210 160"
   version="1.1"
   id="svg6710"
   inkscape:version="1.2.1 (9c6d41e410, 2022-07-14)"
   sodipodi:docname="persian.svg"
   xmlns:inkscape="http://www.inkscape.org/namespaces/inkscape"
   xmlns:sodipodi="http://sodipodi.sourceforge.net/DTD/sodipodi-0.dtd"
   xmlns="http://www.w3.org/2000/svg"
   xmlns:svg="http://www.w3.org/2000/svg">
  <sodipodi:namedview
     id="namedview6712"
     pagecolor="#ffffff"
     bordercolor="#000000"
     borderopacity="0.25"
     inkscape:showpageshadow="2"
     inkscape:pageopacity="0.0"
     inkscape:pagecheckerboard="0"
     inkscape:deskcolor="#d1d1d1"
     inkscape:document-units="mm"
     showgrid="false"
     inkscape:zoom="0.49085999"
     inkscape:cx="143.62548"
     inkscape:cy="366.70335"
     inkscape:window-width="1366"
     inkscape:window-height="705"
     inkscape:window-x="-8"
     inkscape:window-y="-8"
     inkscape:window-maximized="1"
     inkscape:current-layer="layer1" />
  <defs
     id="defs6707" />
  <g
     inkscape:label="Layer 1"
     inkscape:groupmode="layer"
     id="layer1">
    <g
       id="g6945"
       transform="matrix(4.6037639,0,0,4.6037639,52.888064,-215.30096)">
      <path
         d="m 8.4842682,72.163594 c 0,0 0.4903611,1.540581 0.88265,1.730022 0.3922889,0.189089 2.7954108,1.016 3.4819168,0.476603 0.01975,-1.029758 -1.434395,-1.66758 -1.434395,-1.66758 v -2.466623 l -2.9301718,1.927578"
         style="fill:#e7b38d;fill-opacity:1;fill-rule:nonzero;stroke:none;stroke-width:0.0352778"
         id="path1158" />
      <path
         d="m 15.010304,60.936089 c 0,0 -6.5704858,-0.843492 -8.9725496,0.70238 -2.4024166,1.545873 -2.9950833,6.833306 -2.1353639,10.020653 0.8004528,2.969331 0.7337778,3.303058 1.6682861,3.703461 0.9341555,0.400403 3.4889722,0.580672 4.0703499,-0.06668 -0.3002139,-1.00083 -1.6016111,-1.734961 -1.6016111,-1.734961 l 2.4024166,-2.210858 c 0,0 -0.117828,0.53093 0.0889,1.043164 0.355953,-0.414867 0.623006,-0.645231 1.057981,-0.69215 -0.212725,0.402872 0.07655,0.847725 0.07655,0.847725 0,0 0.155575,-0.400403 0.575028,-0.696384 0.06985,0.451556 0.336903,0.851959 0.336903,0.851959 0,0 0.244475,-0.622653 0.73413,-0.726017 -0.267052,1.982964 -0.357363,3.393722 0.160162,3.684411 0.934155,0.525286 3.276247,1.001183 4.777669,0.367242 -0.02822,-1.008239 -1.467908,-1.83515 -1.467908,-1.83515 0,0 1.334911,-0.782461 2.345619,-1.580092 0.156633,0.278694 0.734483,0.8128 0.734483,0.8128 0,0 0.244123,-0.544336 0.317148,-1.030464 0.389113,0.200025 0.480483,0.763411 0.480483,0.763411 0,0 0.613833,-0.409575 0.751064,-0.833966 0.326319,0.290336 0.445558,0.607836 0.642761,1.039283 0.547511,1.198033 -0.156281,2.549525 0.936272,2.751314 1.0922,0.202141 3.639255,0.348191 4.472869,0.01623 -0.237066,-0.874183 -0.913341,-1.518708 -2.351969,-1.998838 0.05539,-0.512586 0.265994,-1.467909 0.490714,-2.414059 0.373944,-0.07937 0.95638,0.257881 0.95638,0.257881 0,0 -0.221191,-1.225197 -0.572558,-1.828447 0.296333,-1.201209 3.378906,-2.681111 2.17805,-6.164792 -1.201208,-3.48368 -13.152261,-3.049058 -13.152261,-3.049058"
         style="fill:#f2cca5;fill-opacity:1;fill-rule:nonzero;stroke:none;stroke-width:0.0352778"
         id="path1160" />
      <path
         d="m 18.58606,58.260622 c 0,0 -4.241447,-0.0039 -5.916789,4.108097 -0.44062,1.081264 -0.384175,1.924756 -0.376061,2.958042 0.0095,1.177219 -0.883709,1.561042 -0.883709,1.561042 0,0 1.034345,0.770114 1.825625,0.805391 -0.324202,0.826559 0.395464,2.222147 0.395464,2.222147 0,0 0.470959,-0.56268 0.953206,-0.758119 -0.138289,0.933803 0.920044,1.867958 0.920044,1.867958 0,0 0.308681,-0.736247 0.743303,-1.034344 0.06703,0.533753 0.967669,1.468261 0.967669,1.468261 0,0 0.333728,-1.001183 1.017059,-1.129947 0.08396,0.944739 1.05163,1.630186 1.05163,1.630186 0,0 0.333728,-0.691797 0.835025,-1.304925 -0.01305,0.637822 0.798689,1.505303 0.798689,1.505303 0,0 0.268111,-0.667456 0.779639,-1.309159 0.422628,0.392642 0.689681,1.542698 0.689681,1.542698 0,0 1.534583,-0.83432 1.901825,-1.534937 0.258233,0.462492 0.333727,1.12007 0.333727,1.12007 0,0 0.867481,-0.652992 1.067506,-1.320095 0.249766,0.289631 0.467078,0.900642 0.467078,0.900642 0,0 0.467077,-0.467078 0.527755,-1.010355 0.485775,0.142875 0.540456,0.843491 0.540456,0.843491 0,0 0.900289,-0.967316 0.700264,-2.2352 0.437444,0.233539 0.667102,1.067506 0.667102,1.067506 0,0 0.704145,-1.704622 0.257881,-2.544233 0.3429,-0.02223 0.976842,-0.291748 0.976842,-0.291748 0,0 -0.667456,-0.500591 -0.538339,-1.668639 0.16263,-1.469319 -0.378531,-2.878313 -0.926042,-3.803297 -1.501422,-2.535766 -9.77653,-3.655836 -9.77653,-3.655836"
         style="fill:#e7b38d;fill-opacity:1;fill-rule:nonzero;stroke:none;stroke-width:0.0352778"
         id="path1162" />
      <path
         d="m 25.015082,54.730728 c 0,0 3.0988,-1.890183 3.913011,-1.310569 1.087966,0.775052 -0.402167,4.784724 -0.402167,4.784724 l -3.510844,-3.474155"
         style="fill:#dba270;fill-opacity:1;fill-rule:nonzero;stroke:none;stroke-width:0.0352778"
         id="path1164" />
      <path
         d="m 19.179079,54.770239 c 0,0 -3.160183,-1.784703 -3.954639,-1.177925 -1.061155,0.810683 0.562681,4.768144 0.562681,4.768144 l 3.391958,-3.590219"
         style="fill:#dba270;fill-opacity:1;fill-rule:nonzero;stroke:none;stroke-width:0.0352778"
         id="path1166" />
      <path
         d="m 18.58606,55.090208 c 0,0 -1.969559,-1.268588 -2.821517,-0.730249 -0.851605,0.538338 0.656872,3.702049 0.656872,3.702049 l 2.164645,-2.9718"
         style="fill:#feecdd;fill-opacity:1;fill-rule:nonzero;stroke:none;stroke-width:0.0352778"
         id="path1168" />
      <path
         d="m 25.689593,55.113845 c 0,0 1.810103,-1.487311 2.718153,-1.050925 0.90805,0.436386 -0.22472,3.753202 -0.22472,3.753202 l -2.493433,-2.702277"
         style="fill:#feecdd;fill-opacity:1;fill-rule:nonzero;stroke:none;stroke-width:0.0352778"
         id="path1170" />
      <path
         d="m 29.228659,60.936089 c 0.431448,-0.454378 0.971903,-0.430742 1.53917,-0.360186 0,-0.525286 -1.174397,-1.5621 -1.762478,-1.851731 0.03175,-0.388761 0.543631,-0.789164 0.543631,-0.789164 0,0 -0.302684,-0.178152 -0.889,-0.03739 -0.536223,-1.051278 -1.391003,-1.981553 -2.395714,-2.664883 -0.07126,-0.04868 0.05927,-0.678745 0.05927,-0.678745 0,0 -0.581024,-0.0056 -0.82303,0.222603 -0.0081,-0.290336 0.200378,-0.712611 0.200378,-0.712611 0,0 -0.645231,0 -0.945445,0.436739 0.191206,-0.658636 -0.211314,-1.195564 -0.211314,-1.195564 0,0 -0.222602,0.536928 -1.014941,0.879828 -0.455789,-0.07937 -0.9271,-0.121003 -1.4097,-0.121003 -0.4826,0 -0.953911,0.04163 -1.409347,0.121003 -0.792692,-0.3429 -1.014942,-0.879828 -1.014942,-0.879828 0,0 -0.402519,0.536928 -0.211314,1.195564 -0.300567,-0.436739 -0.945444,-0.436739 -0.945444,-0.436739 0,0 0.208491,0.422275 0.200025,0.712611 -0.242006,-0.228247 -0.823031,-0.222603 -0.823031,-0.222603 0,0 0.130881,0.630061 0.05927,0.678745 -1.004359,0.68333 -1.859139,1.613605 -2.395361,2.664883 -0.58667,-0.140758 -0.889,0.03739 -0.889,0.03739 0,0 0.511528,0.400403 0.543278,0.789164 -0.587728,0.289631 -1.762125,1.326445 -1.762125,1.851731 0.566913,-0.07056 1.107722,-0.09419 1.538816,0.360186 -0.831497,0.146403 -1.465439,1.225197 -1.465439,1.225197 0,0 1.078795,-0.355953 1.914878,0.349956 -0.880533,0.206022 -1.047397,0.706614 -1.047397,0.706614 0,0 0.833967,-0.255764 1.532114,0.168627 -0.475545,0.242711 -0.787047,0.910167 -0.787047,0.910167 0,0 0.95638,-0.289278 1.565627,0.03598 0.327025,0.327731 1.571978,-0.12065 1.97097,0.141817 1.196975,0.787047 1.809044,1.468261 3.425472,1.468261 1.538111,0 2.059869,-0.615597 3.225447,-1.334911 0.467431,-0.288219 1.796344,0.100189 2.171347,-0.275167 0.608895,-0.325261 1.565275,-0.03598 1.565275,-0.03598 0,0 -0.31115,-0.667456 -0.786694,-0.910167 0.697794,-0.424391 1.532114,-0.168627 1.532114,-0.168627 0,0 -0.166864,-0.500592 -1.04775,-0.706614 0.836436,-0.705909 1.91523,-0.349956 1.91523,-0.349956 0,0 -0.633942,-1.078794 -1.465792,-1.225197"
         style="fill:#f2cca5;fill-opacity:1;fill-rule:nonzero;stroke:none;stroke-width:0.0352778"
         id="path1172" />
      <path
         d="m 22.119482,61.415867 c 0.266347,0.639939 0.09878,2.0447 -0.709436,2.925233 -0.660753,0.720372 -1.807281,1.737078 -4.02837,0.934155 -1.265766,-0.457552 -1.467908,-1.290108 -1.467908,-1.290108 0,0 0.814564,0.05574 1.245658,-0.378178 -0.912283,0.06668 -1.312333,-0.600427 -1.312333,-0.600427 0,0 0.756003,-0.0889 1.17475,-0.357011 -0.90805,-0.04339 -1.308453,-0.733073 -1.308453,-0.733073 0,0 0.950031,0.1016 2.202039,-0.277989 2.035528,-0.616655 3.810353,-1.167694 4.204053,-0.222602"
         style="fill:#feecdd;fill-opacity:1;fill-rule:nonzero;stroke:none;stroke-width:0.0352778"
         id="path1174" />
      <path
         d="m 21.956498,61.415867 c -0.266347,0.639939 0.0049,2.257072 0.696737,2.947458 0.69215,0.690386 1.81998,1.714853 4.041069,0.91193 1.265767,-0.457552 1.468261,-1.290108 1.468261,-1.290108 0,0 -0.814917,0.05574 -1.245658,-0.378178 0.91193,0.06668 1.312333,-0.600427 1.312333,-0.600427 0,0 -0.756356,-0.0889 -1.175103,-0.357011 0.90805,-0.04339 1.308453,-0.733073 1.308453,-0.733073 0,0 -0.950031,0.1016 -2.202039,-0.277989 -2.035175,-0.616655 -3.810353,-1.167694 -4.204053,-0.222602"
         style="fill:#feecdd;fill-opacity:1;fill-rule:nonzero;stroke:none;stroke-width:0.0352778"
         id="path1176" />
      <path
         d="m 21.979429,61.3693 c 0,0 0.122767,2.093031 -0.569383,2.9718 0.242358,0.711905 1.143352,0.366889 1.243189,0.02223 0,0 -0.553509,-2.073275 -0.393348,-2.994025 -0.08184,-0.343606 -0.280458,0 -0.280458,0"
         style="fill:#dba270;fill-opacity:1;fill-rule:nonzero;stroke:none;stroke-width:0.0352778"
         id="path1178" />
      <path
         d="m 22.820098,60.915628 c -0.09984,-0.267053 -0.700616,-0.280106 -0.700616,-0.280106 0,0 -0.600428,0.01305 -0.700617,0.280106 -0.100189,0.267053 0.700617,0.500239 0.700617,0.500239 0,0 0.800805,-0.233186 0.700616,-0.500239"
         style="fill:#f57f89;fill-opacity:1;fill-rule:nonzero;stroke:none;stroke-width:0.0352778"
         id="path1180" />
      <path
         d="m 20.896048,59.736644 c -0.09243,-0.458611 -0.400402,-1.201208 -1.467908,-1.04528 -0.925689,0.134761 -1.356783,0.93345 -2.113139,0.689328 0.02646,0.182386 0.47237,0.350308 0.667456,0.667455 -0.197908,0.0822 -0.534106,0.149931 -0.767645,0.45332 0.734131,-0.236714 1.067859,0.614186 2.213328,0.524227 1.152172,-0.09066 1.595614,-0.656519 1.467908,-1.28905"
         style="fill:#e7b38d;fill-opacity:1;fill-rule:nonzero;stroke:none;stroke-width:0.0352778"
         id="path1182" />
      <path
         d="m 23.280121,59.736644 c 0.09243,-0.458611 0.400402,-1.201208 1.467908,-1.04528 0.925689,0.134761 1.357136,0.93345 2.113139,0.689328 -0.02646,0.182386 -0.472017,0.350308 -0.667103,0.667455 0.197556,0.0822 0.533753,0.149931 0.767292,0.45332 -0.734131,-0.236714 -1.067506,0.614186 -2.213328,0.524227 -1.152172,-0.09066 -1.595614,-0.656519 -1.467908,-1.28905"
         style="fill:#e7b38d;fill-opacity:1;fill-rule:nonzero;stroke:none;stroke-width:0.0352778"
         id="path1184" />
      <path
         d="m 20.684735,59.88975 c 0,0.522464 -0.478014,0.945797 -1.067506,0.945797 -0.589844,0 -1.067858,-0.423333 -1.067858,-0.945797 0,-0.522111 0.478014,-0.945797 1.067858,-0.945797 0.589492,0 1.067506,0.423686 1.067506,0.945797"
         style="fill:#df8029;fill-opacity:1;fill-rule:nonzero;stroke:none;stroke-width:0.0352778"
         id="path1186" />
      <path
         d="m 19.950957,59.88975 c 0,0.337961 -0.149578,0.611717 -0.333728,0.611717 -0.184503,0 -0.333728,-0.273756 -0.333728,-0.611717 0,-0.337608 0.149225,-0.611717 0.333728,-0.611717 0.18415,0 0.333728,0.274109 0.333728,0.611717"
         style="fill:#343434;fill-opacity:1;fill-rule:nonzero;stroke:none;stroke-width:0.0352778"
         id="path1188" />
      <path
         d="m 20.105474,59.492522 c 0,0.134761 -0.109362,0.244122 -0.244123,0.244122 -0.134761,0 -0.244122,-0.109361 -0.244122,-0.244122 0,-0.134761 0.109361,-0.244122 0.244122,-0.244122 0.134761,0 0.244123,0.109361 0.244123,0.244122"
         style="fill:#ffffff;fill-opacity:1;fill-rule:nonzero;stroke:none;stroke-width:0.0352778"
         id="path1190" />
      <path
         d="m 25.689593,59.88975 c 0,0.522464 -0.478014,0.945797 -1.067506,0.945797 -0.589844,0 -1.067858,-0.423333 -1.067858,-0.945797 0,-0.522111 0.478014,-0.945797 1.067858,-0.945797 0.589492,0 1.067506,0.423686 1.067506,0.945797"
         style="fill:#df8029;fill-opacity:1;fill-rule:nonzero;stroke:none;stroke-width:0.0352778"
         id="path1192" />
      <path
         d="m 24.955462,59.88975 c 0,0.337961 -0.149225,0.611717 -0.333375,0.611717 -0.184502,0 -0.333727,-0.273756 -0.333727,-0.611717 0,-0.337608 0.149225,-0.611717 0.333727,-0.611717 0.18415,0 0.333375,0.274109 0.333375,0.611717"
         style="fill:#343434;fill-opacity:1;fill-rule:nonzero;stroke:none;stroke-width:0.0352778"
         id="path1194" />
      <path
         d="m 25.109979,59.492522 c 0,0.134761 -0.109008,0.244122 -0.243769,0.244122 -0.135114,0 -0.244123,-0.109361 -0.244123,-0.244122 0,-0.134761 0.109009,-0.244122 0.244123,-0.244122 0.134761,0 0.243769,0.109361 0.243769,0.244122"
         style="fill:#ffffff;fill-opacity:1;fill-rule:nonzero;stroke:none;stroke-width:0.0352778"
         id="path1196" />
      <path
         d="m 7.535296,61.844139 c 0,0 0.2945695,-4.288367 -1.7398999,-6.554258 -0.8583084,-0.956028 -2.3579667,-2.268714 -2.3579667,-2.268714 0,0 -0.4004027,0.744008 0.3474861,1.506714 -3.59480543,-0.762706 -5.0186165,-2.574572 -5.0186165,-2.574572 0,0 0.016228,1.008944 0.2240139,1.717322 -2.0478397,-1.27247 -4.4500447,-0.385939 -4.4500447,-0.385939 0,0 1.156582,0.0049 1.4641689,0.548922 -2.0526022,0.251531 -3.7157377,0.754239 -4.1334266,1.2573 0.1135592,0.693914 0.8896703,1.906411 2.0018728,2.112081 -0.4893381,0.548216 -2.0018728,-0.20567 -2.0018728,-0.20567 0,0 1.1626497,1.890536 3.0607705,2.417586 -0.1156405,0.454731 -0.6140802,1.066095 -0.6140802,1.066095 0,0 1.7794816,0 2.6247724,-0.877359 0.051647,0.877359 -0.6672439,2.270125 -0.6672439,2.270125 0,0 2.295278,0.127 3.44991966,-1.258711 -0.0186972,0.581378 -1.05692216,1.892653 -1.05692216,1.892653 0,0 1.06291939,0.516114 2.4560388,-0.188736 1.8238611,-0.92322 1.1154833,3.287889 3.4254721,4.135261 2.3099889,0.847019 2.9855583,-4.6101 2.9855583,-4.6101"
         style="fill:#f2cca5;fill-opacity:1;fill-rule:nonzero;stroke:none;stroke-width:0.0352778"
         id="path1198" />
    </g>
  </g>
</svg>
