<?xml version="1.0" encoding="UTF-8" standalone="no"?>
<!-- Created with Inkscape (http://www.inkscape.org/) -->

<svg
   width="210mm"
   height="240mm"
   viewBox="0 0 210 240"
   version="1.1"
   id="svg7003"
   inkscape:version="1.2.1 (9c6d41e410, 2022-07-14)"
   sodipodi:docname="ragdoll.svg"
   xmlns:inkscape="http://www.inkscape.org/namespaces/inkscape"
   xmlns:sodipodi="http://sodipodi.sourceforge.net/DTD/sodipodi-0.dtd"
   xmlns="http://www.w3.org/2000/svg"
   xmlns:svg="http://www.w3.org/2000/svg">
  <sodipodi:namedview
     id="namedview7005"
     pagecolor="#ffffff"
     bordercolor="#000000"
     borderopacity="0.25"
     inkscape:showpageshadow="2"
     inkscape:pageopacity="0.0"
     inkscape:pagecheckerboard="0"
     inkscape:deskcolor="#d1d1d1"
     inkscape:document-units="mm"
     showgrid="false"
     inkscape:zoom="0.49085999"
     inkscape:cx="133.43927"
     inkscape:cy="399.2992"
     inkscape:window-width="1366"
     inkscape:window-height="705"
     inkscape:window-x="-8"
     inkscape:window-y="-8"
     inkscape:window-maximized="1"
     inkscape:current-layer="layer1" />
  <defs
     id="defs7000" />
  <g
     inkscape:label="Layer 1"
     inkscape:groupmode="layer"
     id="layer1">
    <g
       id="g7398"
       transform="matrix(5.8161939,0,0,5.8161939,-481.25335,-726.46215)">
      <path
         d="m 97.161151,138.24975 c 0,0 -0.830404,2.06305 -0.876724,3.73874 -0.04614,1.6757 -0.729368,3.15348 -0.729368,3.15348 0,0 0.729368,-0.58102 1.206465,-1.13735 0.366289,0.82938 -0.309774,2.61867 -0.309774,2.61867 0,0 0.982098,-0.43956 1.238426,-0.95991 0.495547,1.01953 0.426932,2.99579 0.426932,2.99579 l 9.957402,-7.4736 -0.94658,-3.16794 -9.966779,0.23212"
         style="fill:#cab5a5;fill-opacity:1;fill-rule:nonzero;stroke:none;stroke-width:0.0352778"
         id="path964" />
      <path
         d="m 103.66852,131.40833 c 0,0 2.75414,-2.41335 3.90716,-1.84714 1.15298,0.56621 -0.35003,4.48557 -0.35003,4.48557 l -3.55713,-2.63843"
         style="fill:#824c3c;fill-opacity:1;fill-rule:nonzero;stroke:none;stroke-width:0.0352778"
         id="path966" />
      <path
         d="m 100.46043,131.40833 c 0,0 -2.754273,-2.41335 -3.907257,-1.84714 -1.152877,0.56621 0.349991,4.48557 0.349991,4.48557 l 3.557266,-2.63843"
         style="fill:#824c3c;fill-opacity:1;fill-rule:nonzero;stroke:none;stroke-width:0.0352778"
         id="path968" />
      <path
         d="m 104.34099,131.76111 c 0,0 1.99058,-1.64182 2.78694,-1.69756 0.79626,-0.0561 -0.43158,3.59057 -0.43158,3.59057 l -2.35536,-1.89301"
         style="fill:#cab5a5;fill-opacity:1;fill-rule:nonzero;stroke:none;stroke-width:0.0352778"
         id="path970" />
      <path
         d="m 99.817038,131.76111 c 0,0 -1.990584,-1.64182 -2.786944,-1.69756 -0.796361,-0.0561 0.431588,3.59057 0.431588,3.59057 l 2.355356,-1.89301"
         style="fill:#cab5a5;fill-opacity:1;fill-rule:nonzero;stroke:none;stroke-width:0.0352778"
         id="path972" />
      <path
         d="m 108.0241,135.75068 c 0.32025,1.99919 -0.89617,3.50449 -3.30677,3.95287 -0.80133,0.14887 -1.32662,0.74648 -2.55224,0.74648 -1.44321,0 -1.90073,-0.68756 -2.863037,-0.87454 -2.140902,-0.41627 -3.183925,-2.14594 -2.995965,-3.82481 0.289383,-2.58304 2.62322,-4.70606 5.859002,-4.70606 3.23575,0 5.44791,2.1396 5.85901,4.70606"
         style="fill:#ebd7c8;fill-opacity:1;fill-rule:nonzero;stroke:none;stroke-width:0.0352778"
         id="path974" />
      <path
         d="m 102.04575,133.05263 -2.284521,3.92854 4.793791,0.23495 z"
         style="fill:#ffffff;fill-opacity:1;fill-rule:nonzero;stroke:none;stroke-width:0.0352778"
         id="path976" />
      <path
         d="m 104.15151,133.21985 c -0.70457,-0.35102 -0.6405,-1.54623 -2.00695,-1.54552 -1.36648,-7.1e-4 -1.30253,1.1945 -2.00713,1.54552 -0.704602,0.35101 -3.138628,0.80116 -2.967742,3.05012 0.140547,1.84996 2.081248,2.74425 2.081248,2.74425 0,0 -0.301096,-2.07257 1.983564,-2.44933 0,0 0.0987,-2.14595 0.90124,-2.91077 0.003,0.002 0.006,0.005 0.009,0.007 0.003,-0.002 0.006,-0.005 0.009,-0.007 0.80243,0.76482 0.96421,2.69487 0.96421,2.69487 2.28463,0.37676 1.80107,2.66523 1.80107,2.66523 0,0 2.06019,-0.89429 2.2006,-2.74425 0.17088,-2.24896 -2.26314,-2.69911 -2.96775,-3.05012"
         style="fill:#824c3c;fill-opacity:1;fill-rule:nonzero;stroke:none;stroke-width:0.0352778"
         id="path978" />
      <path
         d="m 100.88211,134.8324 c 0,0.43638 -0.35373,0.79022 -0.79001,0.79022 -0.436281,0 -0.790047,-0.35384 -0.790047,-0.79022 0,-0.43639 0.353766,-0.78987 0.790047,-0.78987 0.43628,0 0.79001,0.35348 0.79001,0.78987"
         style="fill:#7ccbe0;fill-opacity:1;fill-rule:nonzero;stroke:none;stroke-width:0.0352778"
         id="path980" />
      <path
         d="m 105.13104,134.8324 c 0,0.43638 -0.35373,0.79022 -0.79005,0.79022 -0.43628,0 -0.79001,-0.35384 -0.79001,-0.79022 0,-0.43639 0.35373,-0.78987 0.79001,-0.78987 0.43632,0 0.79005,0.35348 0.79005,0.78987"
         style="fill:#7ccbe0;fill-opacity:1;fill-rule:nonzero;stroke:none;stroke-width:0.0352778"
         id="path982" />
      <path
         d="m 99.900011,134.8324 c 0,0.29174 0.08597,0.52846 0.192089,0.52846 0.10611,0 0.19223,-0.23672 0.19223,-0.52846 0,-0.29175 -0.0861,-0.52847 -0.19223,-0.52847 -0.106117,0 -0.192089,0.23672 -0.192089,0.52847"
         style="fill:#343434;fill-opacity:1;fill-rule:nonzero;stroke:none;stroke-width:0.0352778"
         id="path984" />
      <path
         d="m 104.14876,134.8324 c 0,0.29174 0.0862,0.52846 0.19223,0.52846 0.10612,0 0.19212,-0.23672 0.19212,-0.52846 0,-0.29175 -0.086,-0.52847 -0.19212,-0.52847 -0.10608,0 -0.19223,0.23672 -0.19223,0.52847"
         style="fill:#343434;fill-opacity:1;fill-rule:nonzero;stroke:none;stroke-width:0.0352778"
         id="path986" />
      <path
         d="m 100.46043,134.55511 c 0,0.10196 -0.0824,0.18415 -0.18408,0.18415 -0.1017,0 -0.18425,-0.0822 -0.18425,-0.18415 0,-0.1016 0.0825,-0.18415 0.18425,-0.18415 0.10168,0 0.18408,0.0825 0.18408,0.18415"
         style="fill:#ffffff;fill-opacity:1;fill-rule:nonzero;stroke:none;stroke-width:0.0352778"
         id="path988" />
      <path
         d="m 104.71733,134.55511 c 0,0.10196 -0.0825,0.18415 -0.18422,0.18415 -0.1017,0 -0.18411,-0.0822 -0.18411,-0.18415 0,-0.1016 0.0824,-0.18415 0.18411,-0.18415 0.10167,0 0.18422,0.0825 0.18422,0.18415"
         style="fill:#ffffff;fill-opacity:1;fill-rule:nonzero;stroke:none;stroke-width:0.0352778"
         id="path990" />
      <path
         d="m 103.69788,136.26997 c -0.64425,0 -1.21225,0.27022 -1.55332,0.68227 -0.34121,-0.41205 -0.90925,-0.68227 -1.55335,-0.68227 -1.043588,0 -1.889549,0.70837 -1.889549,1.58256 0,0.87383 0.845961,1.5822 1.889549,1.5822 0.6441,0 1.21214,-0.27022 1.55335,-0.68227 0.34107,0.41205 0.90907,0.68227 1.55332,0.68227 1.04358,0 1.88954,-0.70837 1.88954,-1.5822 0,-0.87419 -0.84596,-1.58256 -1.88954,-1.58256"
         style="fill:#ffffff;fill-opacity:1;fill-rule:nonzero;stroke:none;stroke-width:0.0352778"
         id="path992" />
      <path
         d="m 101.9603,137.57912 c 0,0 -0.01,1.31445 -0.38004,1.62066 0.0787,0.13265 0.30783,0.23178 0.52324,0.23178 0.36103,0 0.58455,-0.24236 0.58455,-0.24236 0,0 -0.45022,-0.41451 -0.34078,-1.5882 0.0357,-0.38418 -0.38697,-0.0219 -0.38697,-0.0219"
         style="fill:#cab5a5;fill-opacity:1;fill-rule:nonzero;stroke:none;stroke-width:0.0352778"
         id="path994" />
      <path
         d="m 102.16509,136.86898 c -0.19431,3.5e-4 -0.69977,-0.0374 -0.69578,0.34714 0.003,0.3055 0.67525,0.53375 0.67525,0.53375 0,0 0.67204,-0.22825 0.67522,-0.53375 0.004,-0.38453 -0.46948,-0.34714 -0.65469,-0.34714"
         style="fill:#db7467;fill-opacity:1;fill-rule:nonzero;stroke:none;stroke-width:0.0352778"
         id="path996" />
      <path
         d="m 106.84779,140.76153 c -2.7675,0.50518 -9.686639,5.24299 -9.686639,13.06583 0,6.6615 4.256189,7.17374 8.707679,7.17374 4.45135,0 8.37558,-1.08232 8.2488,-7.3018 -0.14757,-7.23794 -3.06557,-13.70506 -7.26984,-12.93777"
         style="fill:#ebd7c8;fill-opacity:1;fill-rule:nonzero;stroke:none;stroke-width:0.0352778"
         id="path998" />
      <path
         d="m 105.36584,157.3181 c -2.36897,-0.41628 -4.61119,-0.71861 -7.076647,-0.92887 -1.128042,-0.0959 -2.243138,-0.57643 -3.299954,-1.47214 -0.160161,0.54363 0.832591,1.72861 0.832591,1.72861 0,0 -1.953507,-0.99307 -3.298613,-1.3596 0.06396,0.5588 0.908261,1.04528 0.908261,1.04528 0,0 -1.484841,-0.03 -2.045264,0.0914 -2.507351,0.54328 -3.913364,2.35056 -3.913364,2.35056 0,0 1.347033,-0.0145 2.612623,0.5087 -0.964904,0.16193 -1.234585,0.72708 -1.234585,0.72708 0,0 1.975968,-0.14147 4.90638,0.74894 4.074584,1.2379 8.313842,0.74578 10.979922,0.71791 2.66623,-0.0282 4.85564,-0.86678 4.85564,-0.86678 0,0 0.28885,-2.49766 -4.22699,-3.29106"
         style="fill:#cab5a5;fill-opacity:1;fill-rule:nonzero;stroke:none;stroke-width:0.0352778"
         id="path1000" />
    </g>
  </g>
</svg>
