<?xml version="1.0" encoding="UTF-8" standalone="no"?>
<!-- Created with Inkscape (http://www.inkscape.org/) -->

<svg
   width="190mm"
   height="230mm"
   viewBox="0 0 190 230"
   version="1.1"
   id="svg7958"
   inkscape:version="1.2.1 (9c6d41e410, 2022-07-14)"
   sodipodi:docname="russian-blue.svg"
   xmlns:inkscape="http://www.inkscape.org/namespaces/inkscape"
   xmlns:sodipodi="http://sodipodi.sourceforge.net/DTD/sodipodi-0.dtd"
   xmlns="http://www.w3.org/2000/svg"
   xmlns:svg="http://www.w3.org/2000/svg">
  <sodipodi:namedview
     id="namedview7960"
     pagecolor="#ffffff"
     bordercolor="#000000"
     borderopacity="0.25"
     inkscape:showpageshadow="2"
     inkscape:pageopacity="0.0"
     inkscape:pagecheckerboard="0"
     inkscape:deskcolor="#d1d1d1"
     inkscape:document-units="mm"
     showgrid="false"
     inkscape:zoom="0.49085999"
     inkscape:cx="143.62548"
     inkscape:cy="399.2992"
     inkscape:window-width="1366"
     inkscape:window-height="705"
     inkscape:window-x="-8"
     inkscape:window-y="-8"
     inkscape:window-maximized="1"
     inkscape:current-layer="layer1" />
  <defs
     id="defs7955" />
  <g
     inkscape:label="Layer 1"
     inkscape:groupmode="layer"
     id="layer1">
    <g
       id="g8258"
       transform="matrix(1.2269519,0,0,1.2269519,-0.95114407,2.5702301)">
      <path
         d="m 110.3742,156.98501 c 0.55764,-1.07997 0.36783,-2.37875 0.16493,-3.57638 -0.59691,-3.51995 -1.19382,-7.03845 -1.79073,-10.5585 -12.634232,1.42564 -25.362317,2.01823 -38.074042,1.77489 2.151631,1.10898 3.592596,3.23719 4.630647,5.42311 1.03844,2.18751 1.773324,4.52277 3.01021,6.60453 1.236367,2.07949 3.112449,3.95044 5.486611,4.42551 2.373639,0.47399 5.18593,-0.91369 5.634396,-3.29349 3.867752,-1.58156 8.305054,-1.72528 12.267448,-0.39532 1.5089,0.50527 2.97107,1.22119 4.55367,1.38728 1.5826,0.16772 3.38512,-0.37789 4.11686,-1.79163"
         style="fill:#444444;fill-opacity:1;fill-rule:nonzero;stroke:none;stroke-width:0.130902"
         id="path14" />
      <path
         d="m 31.475875,156.95986 c 1.976876,1.80149 4.886949,2.00802 7.559176,2.12309 2.160268,0.092 4.46597,0.14953 6.313383,-0.97507 1.847414,-1.12446 2.833757,-3.91123 1.368839,-5.50297 -1.031375,-1.12041 -2.732049,-1.19251 -4.237416,-1.42564 -1.504847,-0.23414 -3.238768,-1.00535 -3.413129,-2.51831 -0.141633,-1.22669 0.854918,-2.29337 1.904226,-2.94529 2.28096,-1.41648 5.048876,-1.76613 7.723719,-1.99886 9.087318,-0.79102 18.258677,-0.61158 27.307776,0.53381 0.254064,-1.66127 -0.854529,-3.2919 -2.289732,-4.1653 -1.435336,-0.87284 -3.145305,-1.14642 -4.806577,-1.39644 -5.915704,-0.88765 -11.896206,-1.68992 -17.862441,-1.25942 -5.966231,0.43054 -11.9826,2.18347 -16.649113,5.92594 -2.060127,1.65303 -3.87233,3.75163 -4.621348,6.28471 -0.749151,2.53267 -0.249649,5.54081 1.702637,7.31975"
         style="fill:#5b5e63;fill-opacity:1;fill-rule:nonzero;stroke:none;stroke-width:0.130902"
         id="path16" />
      <path
         d="m 112.31547,56.808479 c -3.21233,-3.301318 -7.95358,-4.036981 -12.373347,-4.351157 -4.038053,-0.285345 -8.159357,-0.345457 -12.055249,0.839077 -3.89642,1.183346 -7.585094,3.766033 -9.450051,7.653811 -2.085129,4.34726 -1.631557,9.554526 -2.522341,14.3573 -1.010429,5.444187 -3.73685,10.295161 -6.034303,15.260756 -4.26556,9.219275 -7.158093,19.180634 -8.532034,29.383214 -0.987394,7.3347 -0.972076,15.54981 3.401344,21.25162 2.630861,3.43004 6.546131,5.47432 10.559572,6.47206 4.013444,0.996 8.169568,1.03686 12.28734,1.07326 6.658573,0.0586 13.405109,0.10612 19.858689,-1.67411 6.45214,-1.78053 12.68699,-5.62471 16.16111,-11.77603 3.42176,-6.06089 3.7896,-13.60304 2.99635,-20.65485 -0.67938,-6.03588 -2.13631,-11.95654 -4.164,-17.625779 -1.92947,-5.394574 -4.39566,-10.648964 -5.22427,-16.364136 -0.59691,-4.123401 -1.79335,-7.850139 -2.14155,-12.007602 -0.34821,-4.156128 0.0289,-8.964134 -2.76726,-11.837434"
         style="fill:#56585b;fill-opacity:1;fill-rule:nonzero;stroke:none;stroke-width:0.130902"
         id="path18" />
      <path
         d="m 88.571486,146.67742 c 0.295067,1.34736 0.620868,2.75716 1.530503,3.79364 1.921506,2.19 5.384376,1.75029 8.229914,1.12591 -0.763419,-8.51675 1.381143,-17.03398 4.234017,-25.09373 1.3077,-3.69794 2.78035,-7.38572 3.27777,-11.27743 0.49612,-3.89182 -0.0995,-8.10517 -2.55781,-11.16288 -2.10176,-2.61557 -5.490411,-4.143439 -8.841621,-3.98648 -3.351868,0.1577 -6.582914,1.99377 -8.431897,4.79386 -2.170217,3.28577 -2.366047,7.4665 -2.221271,11.40167 0.376867,10.26766 2.58269,20.36946 4.780395,30.40544"
         style="fill:#444444;fill-opacity:1;fill-rule:nonzero;stroke:none;stroke-width:0.130902"
         id="path20" />
      <path
         d="m 84.311035,156.14998 c -1.932241,4.11409 -3.389567,6.59978 -1.141725,8.70599 2.247843,2.1061 5.871593,2.92684 8.498394,1.31819 3.453575,-2.11538 3.713284,-6.98739 3.223975,-11.00752 -1.760627,-14.46057 -8.029505,-28.80503 -5.225329,-43.10092 0.412599,-2.10202 1.049175,-4.22667 2.383323,-5.90326 1.333496,-1.67831 3.490362,-2.83442 5.604159,-2.48058 3.610528,0.6045 5.224938,4.9686 5.175198,8.62877 -0.093,6.88921 -3.483686,13.24108 -5.35872,19.8694 -2.521429,8.91207 -2.293921,18.33802 -2.046387,27.59682 0.05577,2.07752 0.131949,4.23991 1.099836,6.07922 0.96802,1.84034 4.869541,2.08119 6.864221,1.49462 2.97408,-0.87536 6.46784,-5.56018 3.08142,-8.19667 -7.425783,-5.77959 5.20858,-30.27101 8.66569,-46.15618 4.19801,-19.285459 3.50685,-39.614591 -1.98971,-58.570471 -0.81552,-2.815675 -1.82476,-5.741332 -4.01213,-7.69177 -1.89677,-1.691253 -4.44804,-2.434782 -6.94852,-2.882466 -7.005198,-1.254033 -14.351003,-0.543231 -20.98562,2.031589 -0.732788,11.605744 -0.08026,20.694257 -3.084827,33.462383 -3.242958,13.782376 -2.821586,28.512855 -1.690069,42.626815 1.270267,15.84313 10.356149,28.91746 7.886821,34.17604"
         style="fill:#5b5e63;fill-opacity:1;fill-rule:nonzero;stroke:none;stroke-width:0.130902"
         id="path22" />
      <path
         d="m 106.75084,106.19611 c -0.10735,1.53047 -0.67283,3.02002 -0.61655,4.55446 0.055,1.53244 1.06424,3.23416 2.5984,3.25931 1.85488,0.0297 2.79868,-2.18346 3.19531,-3.99512 1.84964,-8.45389 2.61017,-17.143919 2.25674,-25.790093 -0.0798,-1.967581 -0.27358,-4.077983 -1.53155,-5.592277 -2.01719,-2.429513 -5.70076,-2.255412 -8.75601,-3.049999 -3.11598,-0.808947 -6.468759,-2.785582 -9.286809,-1.229173 -2.089845,1.155888 -2.806662,3.768668 -3.237718,6.117179 -1.029806,5.61699 -1.557078,11.325594 -1.572915,17.035684 3.534867,1.46698 7.685362,-0.29499 11.369062,0.74442 3.37111,0.95166 5.82945,4.450639 5.58204,7.945609"
         style="fill:#646668;fill-opacity:1;fill-rule:nonzero;stroke:none;stroke-width:0.130902"
         id="path24" />
      <path
         d="M 89.376927,27.617438 C 83.026627,23.764985 72.698752,17.81816 70.32616,16.061452 c -2.372589,-1.756707 -0.55489,2.373224 -0.06861,3.481987 0.486823,1.110025 1.29108,2.043351 1.991143,3.031669 2.596041,3.66785 3.791566,8.300456 3.293485,12.766827 4.140287,-3.322283 8.811902,-6.007085 13.834729,-7.724497"
         style="fill:#56585b;fill-opacity:1;fill-rule:nonzero;stroke:none;stroke-width:0.130902"
         id="path26" />
      <path
         d="m 58.340417,63.189963 c 0.09714,-0.120595 0.219927,-0.240818 0.349241,-0.374399 0.13091,-0.132098 0.270985,-0.274956 0.417709,-0.422823 0.151467,-0.143971 0.315995,-0.286458 0.481194,-0.437182 0.08286,-0.07458 0.166235,-0.149166 0.25054,-0.225234 0.08497,-0.07458 0.176476,-0.142858 0.264417,-0.214843 0.177366,-0.141374 0.354881,-0.282748 0.529235,-0.421487 0.18104,-0.1295 0.358406,-0.256402 0.528712,-0.378295 0.0843,-0.06011 0.167682,-0.120595 0.248461,-0.178109 0.08078,-0.05751 0.164677,-0.106123 0.242414,-0.156958 0.156438,-0.09944 0.301189,-0.19258 0.43106,-0.274955 0.0767,-0.04824 0.150798,-0.09944 0.227496,-0.143971 0.07722,-0.04453 0.153396,-0.08757 0.228536,-0.130985 0.15039,-0.08646 0.298183,-0.170316 0.443364,-0.252691 0.143749,-0.08646 0.292432,-0.156958 0.438259,-0.230428 0.146234,-0.0731 0.291393,-0.146569 0.436162,-0.218554 0.1436,-0.07607 0.29399,-0.137292 0.443758,-0.20297 0.15039,-0.06531 0.301189,-0.130984 0.454622,-0.197775 0.152357,-0.06939 0.312469,-0.125789 0.475565,-0.185901 0.163118,-0.059 0.329204,-0.120223 0.500567,-0.183303 1.391874,-0.489576 2.883894,-0.858744 4.363736,-0.968688 0.142152,-0.0074 0.414696,-0.02226 0.686708,-0.01855 0.272024,0.0074 0.543503,0.01855 0.685663,0.01855 0.308388,-0.0037 0.388125,0.143971 -0.631469,0.166234 -0.145678,-0.0013 -0.301746,0.01855 -0.468367,0.0334 -0.166754,0.01484 -0.343601,0.02968 -0.531327,0.04861 -0.187052,0.01484 -0.381973,0.05232 -0.586965,0.07867 -0.102227,0.01484 -0.207088,0.02969 -0.314028,0.04453 -0.107347,0.01484 -0.216253,0.02969 -0.326198,0.05121 -0.888692,0.145456 -1.93944,0.456849 -2.917668,0.799782 -1.282965,0.451617 -2.497863,1.007947 -3.563401,1.672923 -0.200558,0.130984 -0.417839,0.263081 -0.634612,0.409724 -0.213248,0.151763 -0.433153,0.307609 -0.653986,0.464715 -0.429486,0.331356 -0.865652,0.666275 -1.235973,1.010544 -0.386552,0.326161 -0.700453,0.665013 -0.962781,0.918929 -0.253174,0.263082 -0.426478,0.471246 -0.509862,0.562898 -0.192172,0.222636 -0.594687,0.472544 0.209166,-0.463379"
         style="fill:#ffffff;fill-opacity:1;fill-rule:evenodd;stroke:none;stroke-width:0.130902"
         id="path28" />
      <path
         d="m 61.419615,67.611807 c 0.06965,-0.133582 0.16167,-0.274956 0.257738,-0.428055 0.09714,-0.153248 0.201448,-0.317998 0.310873,-0.490875 0.113508,-0.168832 0.239816,-0.340261 0.365606,-0.517071 0.06297,-0.08906 0.126828,-0.178109 0.190724,-0.268277 0.06494,-0.08905 0.136513,-0.174026 0.205122,-0.261597 0.13744,-0.174027 0.275029,-0.34694 0.410507,-0.517071 0.142672,-0.163638 0.282859,-0.324677 0.416789,-0.477777 0.06753,-0.07718 0.132988,-0.151763 0.196884,-0.225233 0.06338,-0.07347 0.13143,-0.138776 0.193211,-0.204083 0.12527,-0.132097 0.241374,-0.252691 0.345197,-0.361412 0.06193,-0.06419 0.120186,-0.1295 0.182598,-0.189982 0.0623,-0.06011 0.124231,-0.11911 0.185604,-0.178109 0.121597,-0.116513 0.241783,-0.231541 0.359965,-0.344343 0.115437,-0.115029 0.238777,-0.218554 0.358926,-0.323193 0.120706,-0.104639 0.239816,-0.208165 0.359446,-0.31169 0.117552,-0.107237 0.243341,-0.20297 0.36913,-0.30093 0.12527,-0.09944 0.252098,-0.198888 0.380399,-0.298332 0.126309,-0.103525 0.263378,-0.197775 0.401476,-0.295734 0.138479,-0.09685 0.279742,-0.197775 0.425431,-0.299817 1.186229,-0.815514 2.483595,-1.564276 3.833451,-2.086542 0.130909,-0.04712 0.381449,-0.136179 0.636575,-0.209649 0.256179,-0.06939 0.512348,-0.138776 0.644296,-0.181819 0.286421,-0.09276 0.405535,0.02597 -0.538919,0.341746 -0.135474,0.04304 -0.276069,0.104639 -0.42844,0.16475 -0.151467,0.0616 -0.31195,0.126903 -0.482244,0.196291 -0.170836,0.06679 -0.343082,0.155845 -0.527662,0.23822 -0.09202,0.04193 -0.186161,0.08497 -0.282377,0.128387 -0.09607,0.04193 -0.194249,0.08757 -0.291393,0.138776 -0.793655,0.378295 -1.698188,0.950358 -2.533732,1.523682 -1.09368,0.753994 -2.108168,1.573442 -2.964659,2.453113 -0.661707,0.661043 -1.409285,1.551178 -1.982895,2.354893 -0.297664,0.394028 -0.529235,0.78019 -0.726635,1.077335 -0.188758,0.303897 -0.313508,0.5367 -0.374774,0.641413 -0.139667,0.250095 -0.476611,0.56813 0.103674,-0.486941"
         style="fill:#ffffff;fill-opacity:1;fill-rule:evenodd;stroke:none;stroke-width:0.130902"
         id="path30" />
      <path
         d="m 66.520197,68.662944 c 0.06245,-0.225233 0.16271,-0.494808 0.263898,-0.794587 0.05473,-0.148053 0.117032,-0.300929 0.178405,-0.458147 0.06085,-0.155845 0.12475,-0.315401 0.196884,-0.472545 0.07002,-0.156958 0.139667,-0.314287 0.208128,-0.467312 0.0741,-0.151764 0.147273,-0.299816 0.216253,-0.441153 0.135103,-0.286829 0.280262,-0.535402 0.386552,-0.742194 0.262858,-0.484344 0.516014,-0.904532 0.782925,-1.31689 0.12987,-0.208165 0.276068,-0.405791 0.418228,-0.615217 0.143749,-0.208165 0.30683,-0.412359 0.472033,-0.633585 0.682649,-0.882268 1.431147,-1.765873 2.273367,-2.508066 0.08234,-0.06939 0.242822,-0.198888 0.409591,-0.319482 0.168721,-0.119111 0.336402,-0.237108 0.420325,-0.305012 0.181968,-0.145455 0.321635,-0.0679 -0.272543,0.424122 -0.169797,0.141373 -0.351876,0.319482 -0.561963,0.510541 -0.105381,0.09573 -0.207608,0.205567 -0.320558,0.314287 -0.109945,0.111318 -0.23169,0.221152 -0.348314,0.344344 -0.481587,0.481746 -0.998124,1.129691 -1.478272,1.750177 -0.62833,0.815515 -1.205736,1.642792 -1.659702,2.477973 -0.352914,0.633547 -0.737369,1.446465 -1.021163,2.155931 -0.149352,0.352136 -0.258258,0.684605 -0.353286,0.94379 -0.08954,0.261968 -0.145307,0.459484 -0.172914,0.548501 -0.06178,0.213359 -0.291393,0.502637 -0.03785,-0.395327"
         style="fill:#ffffff;fill-opacity:1;fill-rule:evenodd;stroke:none;stroke-width:0.130902"
         id="path32" />
      <path
         d="m 70.408891,67.110431 c 0.03599,-0.625681 0.330911,-1.811662 0.493498,-2.411183 0.09766,-0.356217 0.204454,-0.667611 0.30067,-0.981787 0.106309,-0.310206 0.232098,-0.615217 0.364566,-0.959486 0.147793,-0.344343 0.297553,-0.69377 0.447943,-1.041973 0.08379,-0.171429 0.167682,-0.341746 0.251579,-0.511839 0.08586,-0.168832 0.16924,-0.339149 0.273582,-0.496107 0.07711,-0.123192 0.337479,-0.438518 0.414173,-0.560263 0.08379,-0.132097 0.229464,-0.08497 -0.03673,0.35733 -0.07566,0.12579 -0.159444,0.274956 -0.253545,0.438519 -0.09098,0.167719 -0.18104,0.358814 -0.289946,0.557628 -0.05421,0.100928 -0.108386,0.20668 -0.164157,0.317998 -0.05525,0.111318 -0.09974,0.231542 -0.151318,0.350652 -0.05065,0.120594 -0.101856,0.242302 -0.153433,0.365122 -0.05117,0.123192 -0.108906,0.242302 -0.153433,0.366607 -0.0623,0.159556 -0.126828,0.317999 -0.191244,0.475179 -0.06338,0.156959 -0.135474,0.310206 -0.18668,0.469947 -0.05525,0.156959 -0.109834,0.312804 -0.163638,0.467313 -0.05158,0.154361 -0.109425,0.305011 -0.144639,0.460782 -0.06193,0.234139 -0.13091,0.496107 -0.200928,0.76186 -0.06245,0.267163 -0.115586,0.540596 -0.170317,0.790616 -0.05929,0.24861 -0.08482,0.480411 -0.114546,0.663678 -0.02746,0.183303 -0.04698,0.317998 -0.05473,0.38093 -0.01744,0.148052 -0.183526,0.358814 -0.116624,-0.261969"
         style="fill:#ffffff;fill-opacity:1;fill-rule:evenodd;stroke:none;stroke-width:0.130902"
         id="path34" />
      <path
         d="m 72.178156,43.688217 c 0.08182,-2.480571 0.218888,-5.059324 1.405099,-7.238854 1.014488,-1.86272 2.698928,-3.252895 4.342266,-4.594647 2.126628,-1.734444 4.312685,-3.50425 6.90768,-4.398281 2.606249,-0.8993 5.443672,-0.846944 8.183313,-0.543269 3.646919,0.404493 7.285586,1.254071 10.537706,2.951854 3.2516,1.699082 6.10656,4.297502 7.69178,7.605387 2.06432,4.305332 1.7999,9.499536 -0.0576,13.897818 -1.8588,4.396982 -5.17716,8.057003 -8.95969,10.969562 -5.201767,4.006888 -11.649193,6.785939 -18.197809,6.312059 -4.32237,-0.31169 -8.823031,-2.3366 -10.751339,-6.216511 -1.205213,-2.425617 -1.268044,-5.239993 -1.272234,-7.948358 -0.0045,-3.599798 0.05224,-7.199559 0.170836,-10.79676"
         style="fill:#717477;fill-opacity:1;fill-rule:nonzero;stroke:none;stroke-width:0.130902"
         id="path36" />
      <path
         d="m 77.045995,43.881947 c 1.358627,0.710802 3.015973,0.450318 4.47932,-0.0074 1.462959,-0.459483 2.906411,-1.107427 4.439399,-1.127094 2.191159,-0.02597 4.18021,1.225239 5.910598,2.569626 1.730259,1.34305 3.415092,2.858866 5.504414,3.51861 0.879527,0.277553 1.92373,0.477814 2.357799,1.290694 0.393225,0.735663 0.0767,1.671624 -0.460118,2.309104 -0.537483,0.638817 -1.264642,1.085201 -1.86692,1.662459 -1.764685,1.691253 -2.267738,4.273939 -3.385507,6.448201 -2.187497,4.25431 -6.758845,6.850095 -11.422211,7.91563 -0.01967,0.0037 -0.03889,0.0074 -0.05837,0.01484 -3.831885,-0.625718 -7.557472,-2.60495 -9.264822,-6.041111 -1.205212,-2.425617 -1.268044,-5.239993 -1.272233,-7.948358 -0.0045,-3.599798 0.05224,-7.199559 0.170836,-10.79676 0.03228,-0.976517 0.07358,-1.967432 0.183526,-2.942651 1.923729,-0.06419 2.978533,2.24235 4.684313,3.136382"
         style="fill:#606366;fill-opacity:1;fill-rule:nonzero;stroke:none;stroke-width:0.130902"
         id="path38" />
      <path
         d="m 83.20714,54.700971 c -1.516625,-1.288059 -2.644082,-3.361541 -4.622005,-3.578833 -2.266169,-0.250094 -4.483903,2.180792 -6.556862,1.231769 -0.002,0.0074 -0.0035,0.01484 -0.0056,0.01855 -0.0035,0.704235 -0.01633,1.408506 -0.01521,2.11274 0.0041,2.708364 0.06701,5.522741 1.272234,7.948358 1.241992,2.500237 3.557902,4.220284 6.200414,5.216431 2.512787,0.129499 5.076493,-0.58646 7.027844,-2.182128 1.926613,-1.576076 3.261808,-4.347261 2.129638,-6.563415 -1.054281,-2.063017 -3.664196,-2.703132 -5.430321,-4.203252"
         style="fill:#a7abae;fill-opacity:1;fill-rule:nonzero;stroke:none;stroke-width:0.130902"
         id="path40" />
      <path
         d="m 76.428399,50.807962 c -0.938302,0.233025 -2.018238,0.180706 -2.820536,-0.392693 -0.62741,-0.449019 -1.011475,-1.16112 -1.212411,-1.886319 -0.200409,-0.725162 -0.239816,-1.476558 -0.315995,-2.220087 -0.09974,-0.975219 -0.02152,-3.716274 2.619604,-2.442611 0.951,0.459446 1.972686,0.8993 2.532552,1.78027 0.355401,0.557628 0.528842,1.200341 0.696528,1.83129 0.217292,0.814217 0.420848,1.733146 -0.0256,2.429551 -0.314436,0.489576 -0.894317,0.75659 -1.474083,0.900599"
         style="fill:#444444;fill-opacity:1;fill-rule:nonzero;stroke:none;stroke-width:0.130902"
         id="path42" />
      <path
         d="m 73.041322,44.279909 c -0.401475,0.253805 -0.627937,0.710802 -0.762895,1.166315 -0.383019,1.290694 -0.146754,2.768587 0.683047,3.82889 0.829392,1.060303 2.250458,1.650659 3.575839,1.413737 0.303155,-1.10483 0.460117,-2.269846 0.254584,-3.396902 -0.204974,-1.127057 -0.807404,-2.213557 -1.771755,-2.831408 -0.589057,-0.376997 -1.387818,-0.555031 -1.978839,-0.180706"
         style="fill:#31343a;fill-opacity:1;fill-rule:nonzero;stroke:none;stroke-width:0.130902"
         id="path44" />
      <path
         d="m 73.336374,44.908224 c -0.320707,0.20297 -0.50109,0.56813 -0.609083,0.930729 -0.305791,1.030173 -0.117033,2.208288 0.545071,3.055231 0.662234,0.846944 1.795317,1.316854 2.853264,1.128356 0.241893,-0.88097 0.367163,-1.811662 0.203043,-2.710962 -0.164156,-0.899301 -0.644296,-1.765873 -1.41387,-2.258047 -0.469936,-0.302413 -1.107035,-0.44375 -1.57841,-0.145455"
         style="fill:#81ae74;fill-opacity:1;fill-rule:nonzero;stroke:none;stroke-width:0.130902"
         id="path46" />
      <path
         d="m 73.540319,44.810042 c 0.440352,-0.156958 0.969457,-0.01855 1.374465,0.243415 0.769574,0.492173 1.249718,1.358746 1.413871,2.258046 0.164156,0.899301 0.03889,1.829992 -0.203044,2.710962 -0.774153,0.137663 -1.588228,-0.07866 -2.228863,-0.535365 -0.05929,-0.138776 -0.11154,-0.28015 -0.157997,-0.422822 -0.363527,-1.11266 -0.454099,-2.302574 -0.378436,-3.471523 0.01781,-0.26976 0.04857,-0.549762 0.180001,-0.782787"
         style="fill:#59864b;fill-opacity:1;fill-rule:nonzero;stroke:none;stroke-width:0.130902"
         id="path48" />
      <path
         d="m 75.607125,46.922818 c -0.04241,-0.267163 -0.117551,-0.544567 -0.310354,-0.734364 -0.192691,-0.191095 -0.534341,-0.252691 -0.732264,-0.0679 -0.356329,0.458185 -0.487216,1.083866 -0.343082,1.646763 0.144268,0.561562 0.604898,1.823462 1.093291,1.277596 0.488262,-0.545866 0.405011,-1.404573 0.292432,-2.121905"
         style="fill:#0f0d0d;fill-opacity:1;fill-rule:nonzero;stroke:none;stroke-width:0.130902"
         id="path50" />
      <path
         d="m 74.374294,45.69231 c 0.329873,-0.01855 0.461294,0.289427 0.54049,0.541933 0.07933,0.253805 0.04805,0.5485 -0.134955,0.753993 -0.183526,0.205567 -0.665766,-0.16104 -0.763418,-0.472544 -0.09714,-0.31169 0.0282,-0.803715 0.357887,-0.823382"
         style="fill:#ffffff;fill-opacity:1;fill-rule:nonzero;stroke:none;stroke-width:0.130902"
         id="path52" />
      <path
         d="m 82.835379,47.918965 c 0.793132,-0.7239 1.559564,-1.569508 2.597087,-1.848322 0.845756,-0.226347 1.743086,-0.03785 2.589366,0.187014 1.748322,0.466014 3.455148,1.085201 5.095476,1.849658 0.31247,0.145455 0.632516,0.303527 0.854918,0.566794 0.392181,0.466014 0.388648,1.163717 0.173322,1.733145 -0.331319,0.877037 -1.092114,1.542013 -1.944545,1.934742 -0.851905,0.391394 -1.79479,0.540597 -2.72799,0.634846 -1.188323,0.119111 -2.396151,0.156959 -3.5706,-0.06011 -1.174059,-0.218554 -2.319969,-0.708205 -3.182089,-1.534184 -0.64482,-0.617851 -1.131513,-1.56691 -0.790513,-2.392889 0.180001,-0.435884 0.556853,-0.752695 0.905575,-1.070767"
         style="fill:#444444;fill-opacity:1;fill-rule:nonzero;stroke:none;stroke-width:0.130902"
         id="path54" />
      <path
         d="m 82.427358,49.670441 c 0,0 0.517454,-3.424398 2.71058,-3.522581 3.099227,-0.141373 6.775731,2.789516 6.775731,2.789516 0,0 -2.255045,3.687516 -4.566765,3.746403 -3.269006,0.08386 -4.919546,-3.013338 -4.919546,-3.013338"
         style="fill:#31343a;fill-opacity:1;fill-rule:nonzero;stroke:none;stroke-width:0.130902"
         id="path56" />
      <path
         d="m 83.447475,49.624615 c 0,0 0.405924,-2.687399 2.126628,-2.764654 2.431365,-0.109834 5.316306,2.188695 5.316306,2.188695 0,0 -1.769658,2.89293 -3.583431,2.940054 -2.564364,0.06531 -3.859503,-2.364095 -3.859503,-2.364095"
         style="fill:#81ae74;fill-opacity:1;fill-rule:nonzero;stroke:none;stroke-width:0.130902"
         id="path58" />
      <path
         d="m 85.574103,46.859961 c 0.844183,-0.03785 1.743086,0.214843 2.556639,0.560263 0.270984,0.972621 0.397809,1.984464 0.373853,2.993709 -0.01076,0.466014 -0.06349,0.958225 -0.342191,1.329989 -0.0115,0.01855 -0.02486,0.02968 -0.03785,0.04564 -0.267423,0.117626 -0.54141,0.191095 -0.817611,0.198888 -0.679511,0.01855 -1.268568,-0.141374 -1.769658,-0.383565 -0.385112,-0.413657 -0.640765,-0.956888 -0.811589,-1.504053 -0.217812,-0.697703 -0.32516,-1.430769 -0.316514,-2.1612 0.0026,-0.188498 0.01484,-0.382228 0.05629,-0.565495 0.288907,-0.289426 0.652022,-0.493472 1.108607,-0.514437"
         style="fill:#59864b;fill-opacity:1;fill-rule:nonzero;stroke:none;stroke-width:0.130902"
         id="path60" />
      <path
         d="m 87.020698,48.119226 c 0.228016,0.418889 0.546511,1.816931 0.37778,2.220124 -0.169241,0.404455 -0.803734,0.0679 -1.071168,-0.223749 -0.267423,-0.293137 -0.378436,-0.69377 -0.463784,-1.079932 -0.03889,-0.178108 -0.07514,-0.359928 -0.04961,-0.539335 0.02598,-0.179222 0.124751,-0.358815 0.289946,-0.433249 0.182488,-0.02597 0.688283,-0.362526 0.916837,0.0564"
         style="fill:#0f0d0d;fill-opacity:1;fill-rule:nonzero;stroke:none;stroke-width:0.130902"
         id="path62" />
      <path
         d="m 85.924395,48.871921 c -0.25566,-0.02226 -0.499127,-0.183304 -0.606991,-0.416255 -0.107867,-0.233026 -0.06753,-0.532768 0.111021,-0.717333 0.08182,-0.08386 0.18861,-0.15436 0.305791,-0.162153 0.549131,-0.03785 0.597172,0.420188 0.664716,0.611321 0.06794,0.189983 0.06794,0.426719 -0.0767,0.568092 -0.102227,0.09944 -0.25618,0.1295 -0.39781,0.116513"
         style="fill:#ffffff;fill-opacity:1;fill-rule:nonzero;stroke:none;stroke-width:0.130902"
         id="path64" />
      <path
         d="m 71.010253,56.218123 c 0.555283,-0.701637 2.628241,-0.447684 3.225024,-0.396626 0.596256,0.04972 1.196048,0.286829 1.587182,0.740895 0.457108,0.53017 0.574263,1.301158 0.403438,1.979232 -0.170836,0.679373 -0.599792,1.271065 -1.116199,1.743609 -0.701633,0.64275 -1.722274,1.099562 -2.598134,0.730431 -0.884109,-0.373063 -2.792395,-3.165213 -1.501311,-4.797541"
         style="fill:#000000;fill-opacity:1;fill-rule:nonzero;stroke:none;stroke-width:0.130902"
         id="path66" />
      <path
         d="m 71.178985,56.528366 c -0.423858,0.391393 0.473995,0.08905 1.611267,0.156958 1.356011,0.08126 3.021995,0.47388 2.771448,0.235623 -0.460774,-0.438518 -0.856487,-0.624382 -1.387295,-0.727797 -0.87848,-0.170316 -2.066803,-0.522303 -2.99542,0.335067"
         style="fill:#514d4c;fill-opacity:1;fill-rule:nonzero;stroke:none;stroke-width:0.130902"
         id="path68" />
      <path
         d="m 113.63888,34.904715 c 0.89929,2.128473 0.76447,11.486635 -1.03281,13.125531 -0.86657,0.790617 -1.95305,1.421567 -3.12593,1.442532 -1.34436,0.02597 -2.59316,-0.757927 -3.49115,-1.758007 -0.89798,-1.000117 -1.51453,-2.213556 -2.20307,-3.368108 -2.62995,-4.408783 -6.454758,-8.097561 -10.955942,-10.56637 -0.420325,-0.230428 -0.899033,-0.524938 -0.94956,-1.001415 -0.06193,-0.579893 0.532248,-0.983049 1.000088,-1.332587 1.343313,-1.005312 2.122045,-2.590516 2.679948,-4.171824 0.55738,-1.583905 0.949037,-3.238497 1.748192,-4.713756 0.799285,-1.475259 2.111834,-2.79215 3.766044,-3.073562 2.37219,-0.403193 4.54516,1.383608 6.05184,3.260761 2.889,3.595865 4.719,7.907764 6.51235,12.156805"
         style="fill:#606366;fill-opacity:1;fill-rule:nonzero;stroke:none;stroke-width:0.130902"
         id="path70" />
      <path
         d="m 104.65118,22.352583 c 1.58783,1.378376 2.53425,3.378573 3.00419,5.427156 0.47125,2.049919 0.50528,4.171861 0.5367,6.274137 0.0208,1.418969 0.0432,2.837938 0.0641,4.256907 0.0182,1.220007 -0.11258,2.6992 -1.2056,3.238498 -1.08125,0.532767 -2.32481,-0.239705 -3.27909,-0.976518 -3.42137,-2.637678 -6.843791,-5.275318 -10.265563,-7.914294 1.129944,-1.165053 1.708266,-2.748959 2.156736,-4.308003 0.448471,-1.560343 0.806877,-3.170408 1.609175,-4.581548 0.802294,-1.409804 2.156866,-2.623243 3.773112,-2.76855 1.31412,-0.117626 2.60873,0.48824 3.6062,1.352215"
         style="fill:#444444;fill-opacity:1;fill-rule:nonzero;stroke:none;stroke-width:0.130902"
         id="path72" />
      <path
         d="M 101.88313,67.287166 C 101.41372,67.024085 100.821,66.719037 100.17879,66.370872 99.853633,66.204637 99.513553,66.03061 99.166924,65.8538 98.993083,65.76475 98.817683,65.674578 98.641749,65.585524 98.465273,65.496474 98.284789,65.41261 98.105838,65.32504 97.747951,65.152126 97.389545,64.979583 97.038726,64.810566 96.683845,64.648413 96.3367,64.491083 96.003819,64.33932 95.341065,64.030227 94.7219,63.781692 94.227352,63.568332 93.9344,63.442543 93.646543,63.327515 93.363796,63.217681 93.081457,63.106363 92.80537,62.996529 92.533357,62.889293 c -0.271504,-0.109834 -0.542589,-0.20668 -0.810936,-0.306124 -0.267942,-0.09944 -0.534341,-0.197775 -0.800858,-0.295735 -0.265345,-0.100928 -0.534341,-0.191095 -0.80478,-0.28386 -0.270429,-0.09276 -0.54246,-0.187014 -0.819708,-0.282748 -0.27503,-0.09833 -0.55882,-0.187014 -0.847719,-0.279037 -0.288907,-0.09276 -0.583952,-0.188498 -0.887642,-0.285345 -2.465272,-0.777555 -5.06223,-1.366612 -7.589806,-1.884983 -0.243861,-0.04712 -0.70517,-0.159555 -1.169477,-0.25937 -0.464177,-0.09573 -0.929007,-0.19258 -1.174448,-0.235623 -0.529235,-0.09573 -0.654508,-0.268276 1.126407,0.03933 0.507246,0.08757 1.090151,0.205567 1.744656,0.327275 0.327238,0.06011 0.668386,0.139889 1.026793,0.215956 0.357479,0.07978 0.733837,0.154361 1.119342,0.252692 1.549348,0.366607 3.42792,0.844309 5.186976,1.395407 2.306091,0.725199 4.504323,1.579972 6.556335,2.43738 1.569772,0.645347 3.474521,1.540714 5.062753,2.362796 0.799675,0.401858 1.509425,0.803716 2.079495,1.108727 0.56563,0.314287 0.97758,0.557628 1.17,0.662378 0.45685,0.256402 1.06816,0.760524 -0.81761,-0.29054"
         style="fill:#ffffff;fill-opacity:1;fill-rule:evenodd;stroke:none;stroke-width:0.130902"
         id="path74" />
      <path
         d="m 100.83998,61.765724 c -0.22137,-0.103525 -0.47609,-0.202969 -0.74863,-0.3154 -0.272541,-0.113916 -0.565492,-0.234139 -0.872325,-0.361412 -0.308277,-0.121708 -0.633566,-0.240818 -0.963828,-0.367721 -0.165715,-0.06159 -0.332358,-0.125789 -0.50057,-0.188498 -0.168202,-0.06271 -0.340077,-0.117997 -0.510386,-0.178108 -0.341523,-0.116513 -0.683043,-0.233026 -1.01802,-0.346941 -0.337999,-0.103526 -0.669299,-0.205567 -0.986867,-0.302414 -0.158517,-0.04861 -0.314028,-0.09573 -0.464834,-0.141374 -0.150798,-0.04564 -0.30015,-0.08126 -0.442314,-0.120594 -0.285382,-0.07607 -0.549658,-0.146569 -0.785934,-0.209278 -0.140075,-0.03711 -0.277627,-0.07458 -0.414696,-0.107236 -0.137441,-0.02969 -0.273063,-0.06271 -0.407498,-0.09276 -0.268462,-0.0616 -0.531328,-0.121707 -0.78999,-0.180706 -0.258257,-0.06271 -0.516014,-0.10872 -0.770617,-0.158442 -0.254621,-0.04972 -0.507769,-0.09944 -0.760278,-0.148053 -0.252655,-0.05232 -0.507243,-0.09165 -0.763419,-0.132097 -0.256291,-0.04193 -0.51444,-0.08386 -0.776769,-0.12579 -0.261263,-0.04564 -0.529234,-0.07718 -0.802294,-0.112431 -0.273582,-0.03711 -0.552274,-0.07198 -0.839081,-0.10872 -2.329657,-0.282748 -4.749764,-0.306124 -7.088582,-0.235623 -0.225011,0.01113 -0.656078,0.0037 -1.086615,0.01855 -0.430014,0.01855 -0.860547,0.03339 -1.086092,0.04861 -0.486823,0.03339 -0.637621,-0.104639 1.000088,-0.227831 0.233285,-0.02226 0.48486,-0.02597 0.754256,-0.04193 0.269019,-0.01484 0.554761,-0.02597 0.857015,-0.04045 0.301745,-0.01855 0.620211,-0.01113 0.953092,-0.01855 0.166755,-0.0013 0.337071,-0.0026 0.510909,-0.0037 0.174361,-0.0026 0.351727,-0.0037 0.532248,0.0037 1.447117,0.02226 3.208133,0.103526 4.872547,0.300929 2.182395,0.263082 4.281925,0.710765 6.238771,1.216074 0.372284,0.100928 0.768524,0.200372 1.173536,0.316885 0.403438,0.123192 0.818658,0.250094 1.236363,0.376997 0.829393,0.276068 1.66795,0.556329 2.423773,0.857407 0.762895,0.278666 1.439396,0.585124 1.982371,0.808985 0.53893,0.235622 0.93019,0.425419 1.11267,0.503936 0.43472,0.19629 1.02077,0.613955 -0.768,-0.184417"
         style="fill:#ffffff;fill-opacity:1;fill-rule:evenodd;stroke:none;stroke-width:0.130902"
         id="path76" />
      <path
         d="M 98.498019,70.307073 C 98.317127,70.140838 98.103872,69.965327 97.876757,69.772969 97.64978,69.58076 97.405381,69.373746 97.150256,69.157752 96.891479,68.945506 96.615392,68.730997 96.337227,68.508472 96.19756,68.397154 96.056966,68.284723 95.915328,68.171921 95.772656,68.05949 95.624343,67.953367 95.479166,67.844646 c -0.292024,-0.217441 -0.584478,-0.434585 -0.870758,-0.647944 -0.2931,-0.20297 -0.579896,-0.403193 -0.855051,-0.594289 -0.137441,-0.09425 -0.272024,-0.188498 -0.402916,-0.278666 -0.130909,-0.09017 -0.262858,-0.170316 -0.387597,-0.251207 -0.251059,-0.16104 -0.483157,-0.310206 -0.690769,-0.442452 -0.123303,-0.07866 -0.243341,-0.158442 -0.365085,-0.231541 -0.122784,-0.07199 -0.24349,-0.143971 -0.363119,-0.214844 -0.239297,-0.141373 -0.472949,-0.28015 -0.703596,-0.416291 -0.228536,-0.13989 -0.461691,-0.263082 -0.691292,-0.390095 -0.229611,-0.12579 -0.457108,-0.250095 -0.685139,-0.375661 -0.22605,-0.128387 -0.459201,-0.243415 -0.692338,-0.361412 -0.233656,-0.119111 -0.46889,-0.238221 -0.708179,-0.359928 -0.23681,-0.124305 -0.484336,-0.237107 -0.73593,-0.354733 -0.251467,-0.117997 -0.508682,-0.238221 -0.773102,-0.362526 -2.151108,-0.986981 -4.46898,-1.754073 -6.738815,-2.402017 -0.219408,-0.059 -0.631469,-0.196291 -1.049308,-0.316885 -0.418229,-0.116513 -0.836985,-0.231912 -1.05847,-0.286829 -0.477528,-0.117997 -0.581332,-0.295735 1.030328,0.08905 0.230651,0.05083 0.475042,0.121708 0.737366,0.191096 0.262859,0.0705 0.54154,0.145455 0.836595,0.223749 0.295067,0.07607 0.599788,0.179222 0.921416,0.274955 0.160483,0.04972 0.32464,0.100928 0.492322,0.153248 0.16783,0.05121 0.338517,0.104638 0.509858,0.167719 1.383633,0.464715 3.050663,1.083865 4.589281,1.785502 2.016145,0.924161 3.895239,1.998861 5.619475,3.086659 0.326719,0.210762 0.676498,0.429354 1.029802,0.666275 0.349242,0.242302 0.709225,0.490875 1.071821,0.742231 0.711715,0.519669 1.430758,1.048503 2.063797,1.569508 0.647306,0.503973 1.202593,1.005312 1.655119,1.38754 0.444934,0.39273 0.762372,0.695106 0.9133,0.828614 0.356848,0.32208 0.791956,0.901934 -0.680163,-0.416255"
         style="fill:#ffffff;fill-opacity:1;fill-rule:evenodd;stroke:none;stroke-width:0.130902"
         id="path78" />
      <path
         d="m 92.834038,69.772969 c -0.13091,-0.137292 -0.286941,-0.281263 -0.45253,-0.439817 -0.165715,-0.159555 -0.343082,-0.329872 -0.528712,-0.507906 -0.189277,-0.175511 -0.391263,-0.353249 -0.594159,-0.538 -0.102375,-0.09165 -0.205122,-0.184416 -0.308944,-0.278665 -0.103823,-0.09276 -0.213248,-0.180706 -0.31952,-0.270874 -0.214806,-0.181819 -0.428963,-0.362525 -0.639191,-0.539335 -0.215734,-0.170317 -0.427527,-0.336551 -0.629899,-0.496107 -0.400953,-0.323193 -0.790124,-0.589057 -1.095383,-0.814216 -0.180372,-0.133582 -0.361932,-0.256402 -0.540363,-0.374362 -0.178035,-0.11911 -0.351876,-0.235623 -0.523213,-0.351023 -0.169649,-0.116512 -0.34401,-0.221151 -0.514838,-0.328387 -0.171355,-0.106124 -0.341115,-0.211876 -0.511302,-0.317999 -0.168349,-0.107236 -0.34271,-0.205567 -0.517583,-0.306124 -0.174361,-0.100928 -0.350169,-0.202969 -0.529235,-0.306124 -0.176847,-0.106123 -0.362451,-0.201485 -0.551621,-0.302414 -0.188758,-0.100928 -0.381053,-0.204082 -0.579369,-0.310206 -1.61428,-0.848242 -3.373337,-1.513218 -5.093384,-2.095745 -0.166754,-0.0538 -0.477658,-0.178108 -0.793133,-0.287942 -0.317033,-0.107236 -0.634085,-0.214843 -0.802294,-0.265679 -0.363007,-0.107236 -0.427917,-0.281634 0.800202,0.0705 0.349241,0.100928 0.7481,0.235623 1.197617,0.374362 0.22501,0.06939 0.455539,0.158442 0.700457,0.244899 0.242932,0.09017 0.500696,0.174027 0.759358,0.283861 1.048263,0.409724 2.311331,0.945126 3.467846,1.547282 1.515708,0.79455 2.912169,1.709546 4.191991,2.623243 0.983334,0.68724 2.135793,1.629731 3.06742,2.484541 0.473602,0.418852 0.875994,0.83251 1.205733,1.149283 0.322673,0.323193 0.551227,0.573362 0.661184,0.682008 0.259853,0.265679 0.542066,0.753993 -0.527139,-0.328759"
         style="fill:#ffffff;fill-opacity:1;fill-rule:evenodd;stroke:none;stroke-width:0.130902"
         id="path80" />
    </g>
  </g>
</svg>
