<?xml version="1.0" encoding="UTF-8" standalone="no"?>
<!-- Created with Inkscape (http://www.inkscape.org/) -->

<svg
   width="210mm"
   height="170mm"
   viewBox="0 0 210 170"
   version="1.1"
   id="svg8352"
   inkscape:version="1.2.1 (9c6d41e410, 2022-07-14)"
   sodipodi:docname="siamese.svg"
   xmlns:inkscape="http://www.inkscape.org/namespaces/inkscape"
   xmlns:sodipodi="http://sodipodi.sourceforge.net/DTD/sodipodi-0.dtd"
   xmlns="http://www.w3.org/2000/svg"
   xmlns:svg="http://www.w3.org/2000/svg">
  <sodipodi:namedview
     id="namedview8354"
     pagecolor="#ffffff"
     bordercolor="#000000"
     borderopacity="0.25"
     inkscape:showpageshadow="2"
     inkscape:pageopacity="0.0"
     inkscape:pagecheckerboard="0"
     inkscape:deskcolor="#d1d1d1"
     inkscape:document-units="mm"
     showgrid="false"
     inkscape:zoom="0.49085999"
     inkscape:cx="143.62548"
     inkscape:cy="399.2992"
     inkscape:window-width="1366"
     inkscape:window-height="705"
     inkscape:window-x="-8"
     inkscape:window-y="-8"
     inkscape:window-maximized="1"
     inkscape:current-layer="g8692" />
  <defs
     id="defs8349" />
  <g
     inkscape:label="Layer 1"
     inkscape:groupmode="layer"
     id="layer1">
    <g
       id="g8692">
      <g
         id="g8736"
         transform="translate(-3.6125242,15.851231)">
        <path
           d="m 97.44625,117.38979 c -1.83281,0.40078 -3.951527,-0.21923 -5.48783,0.8578 -1.43552,1.0066 -1.63825,3.21557 -0.746477,4.7261 0.892968,1.50936 2.603866,2.37536 4.325327,2.70817 2.89569,0.559 5.93195,-0.19333 8.52529,-1.59842 2.59218,-1.4039 4.79527,-3.42651 6.85306,-5.53938 4.8714,-5.00384 9.17331,-10.80691 11.07641,-17.52633 -5.71986,-2.424589 -11.4643,-4.857389 -17.47245,-6.437039 -6.00929,-1.57849 -12.334978,-2.28514 -18.453751,-1.20469 0.955884,4.45661 4.544932,8.242869 8.9453,9.435839 1.934721,0.52497 3.980791,0.57889 5.893251,1.18239 1.91367,0.60351 3.79099,1.96638 4.14958,3.93864 0.41133,2.26989 -1.26794,4.33353 -2.83238,6.02805 -1.35118,1.46482 -2.82888,3.00348 -4.77533,3.42887"
           style="fill:#d3cac2;fill-opacity:1;fill-rule:nonzero;stroke:none;stroke-width:0.117186"
           id="path768" />
        <path
           d="m 45.762153,117.40501 c -0.770849,-8.28386 0.958465,-16.59237 3.103089,-24.630149 0.445421,-1.66875 0.873386,-3.58121 -0.09012,-5.01325 -0.564017,-0.83902 -1.501973,-1.33237 -2.401024,-1.792943 -5.615675,-2.876886 -11.231462,-5.752643 -16.846785,-8.629562 4.023701,5.901493 5.983286,13.012325 6.692848,20.119665 0.709093,7.106179 0.232958,14.272089 -0.243987,21.398169 -2.853248,-0.0575 -5.37685,2.85935 -4.90998,5.67415 2.318175,1.21757 4.919587,1.8914 7.537056,1.95232 2.484225,0.0575 5.265988,-0.6246 6.561949,-2.74567 1.126508,-1.84334 0.796982,-4.1812 0.596945,-6.33273"
           style="fill:#d3cac2;fill-opacity:1;fill-rule:nonzero;stroke:none;stroke-width:0.117186"
           id="path770" />
        <path
           d="m 199.87975,62.789282 c -1.19648,-5.983509 -4.79174,-1.202329 -8.39873,2.538261 -2.70701,2.807759 -10.68619,12.155696 -20.59076,14.258003 -9.90458,2.101177 -22.42238,-4.639372 -35.90112,-19.597014 -2.65662,-2.947209 -6.39017,-5.762044 -10.85142,-8.342459 2.79955,3.365558 4.66046,7.509283 5.28274,11.843978 0.49804,3.475742 0.24946,7.130762 0.93044,10.52801 6.75343,4.777658 18.57167,16.81619 40.68934,13.79395 22.17161,-3.029262 30.03596,-19.03922 28.83951,-25.022729"
           style="fill:#382e2a;fill-opacity:1;fill-rule:nonzero;stroke:none;stroke-width:0.117186"
           id="path772" />
        <path
           d="m 130.30054,73.98172 c 0.0166,0.01329 0.0339,0.02325 0.0505,0.03621 -0.68084,-3.397248 -0.4324,-7.052268 -0.93044,-10.52801 -0.62228,-4.334695 -2.48319,-8.47842 -5.28274,-11.843977 C 105.96227,41.133178 75.516526,34.569582 54.778703,39.332027 c 0.07341,-3.817922 0.0299,-5.521811 -0.419312,-8.363585 -0.448577,-2.842938 6.990383,-16.084932 4.936475,-16.60526 -3.413027,-0.863671 -10.463892,5.549946 -11.969027,6.210853 -1.505023,0.659778 -10.918459,-0.676154 -10.918459,-0.676154 0,0 -4.682874,-9.860027 -7.928342,-9.572923 -3.244999,0.286008 -4.33811,13.01352 -4.33811,13.01352 0,0 -3.076131,8.369432 -2.178957,14.202927 0.897646,5.834692 1.441506,14.519363 0.688468,19.15641 -0.753506,4.637046 -0.852409,11.902607 5.978363,21.689986 3.409296,4.885485 14.706849,12.25412 20.793141,13.16466 0,0 3.755944,22.884109 1.661709,26.473489 -2.094241,3.59058 -5.842907,3.57068 -5.543964,6.41243 0.299428,2.84293 2.671489,3.54021 4.675606,3.54021 5.085627,0 7.434412,-1.42147 8.780177,-3.81559 0.825337,-1.46718 3.350344,-12.48499 5.71328,-21.36535 1.493186,-5.609699 3.395686,-10.177619 3.262448,-11.544019 5.153488,2.19373 19.17551,5.78666 27.525376,3.4406 3.009325,-0.8461 4.806955,10.336969 33.208165,9.424109 3.66442,-0.11826 0.92226,14.5744 -0.74764,14.65997 -4.93821,0.24947 -7.10499,3.95033 -4.00308,6.39485 2.20428,1.73667 6.94563,2.13745 10.15184,0.60115 1.9324,-0.92576 4.92063,-12.30804 5.07065,-18.40289 0.14981,-6.09602 1.94412,-11.181909 0,-12.977179 -1.94529,-1.79531 -13.51508,-10.465894 -8.87684,-20.412654"
           style="fill:#f3eee9;fill-opacity:1;fill-rule:nonzero;stroke:none;stroke-width:0.117186"
           id="path774" />
        <path
           d="m 49.58441,92.568601 c 0.01827,-4.72142 -1.286819,-9.448716 -3.770107,-13.465847 -1.632404,-2.640207 -3.777376,-5.03666 -4.698457,-8.000279 -0.872922,-2.812476 -0.541518,-5.888604 0.385891,-8.684671 0.927413,-2.79487 2.420712,-5.36243 3.902883,-7.906537 1.197523,-2.055436 2.394932,-4.112068 3.592923,-6.167504 -4.921812,1.623036 -10.350808,1.666386 -15.297819,0.121911 -4.320764,-1.348821 -8.255171,-3.902296 -11.264508,-7.283134 0.586399,5.390566 0.824403,11.771363 0.216084,15.515441 -0.753038,4.637046 -0.85241,11.902607 5.978363,21.689986 3.409296,4.885485 14.706849,12.254124 20.793141,13.164664 0,0 0.06046,0.36679 0.161606,1.01601"
           style="fill:#ffffff;fill-opacity:1;fill-rule:nonzero;stroke:none;stroke-width:0.117186"
           id="path776" />
        <path
           d="m 54.77857,39.33216 c 0.06444,-3.360907 0.03754,-5.08589 -0.275378,-7.388601 -0.479769,-0.216914 -0.986942,-0.390213 -1.438808,-0.660907 -0.95027,-0.567199 -1.569123,-1.538663 -2.276469,-2.390607 -1.867581,-2.249961 -4.561456,-3.797991 -7.445872,-4.27962 -2.884769,-0.481662 -5.93524,0.107959 -8.432825,1.628883 -1.329711,0.809757 -2.539188,1.88785 -4.039168,2.305036 -2.639968,0.734751 -5.66208,-0.723025 -8.11701,0.494518 -0.08882,0.04451 -0.161141,0.112609 -0.246213,0.162769 -0.553938,2.64137 -0.943467,5.739787 -0.543863,8.337774 0.20097,1.306634 0.382732,2.75976 0.537416,4.273774 1.220844,1.858585 2.807427,3.490989 4.624281,4.774171 3.470699,2.451528 7.692091,3.713616 11.928716,4.042907 2.733717,0.212264 5.576418,0.03322 8.045057,-1.161304 2.196301,-1.061717 3.966985,-2.869877 5.312749,-4.90422 1.093573,-1.652334 2.467839,-5.258158 2.36752,-5.234706"
           style="fill:#a78f81;fill-opacity:1;fill-rule:nonzero;stroke:none;stroke-width:0.117186"
           id="path778" />
        <path
           d="M 54.725953,34.138477 C 54.5107,33.770487 54.225556,33.428308 53.926261,33.131836 52.549337,31.765443 51.377469,29.4815 49.58441,28.791261 c -2.820668,-1.083973 -5.66114,3.051547 -7.766387,1.460135 -3.778312,-2.858151 -8.372358,-2.667147 -10.843811,-0.710137 -1.239593,0.980831 -2.128569,2.472622 -3.614371,3.011686 -0.851941,0.30926 -1.791305,0.256775 -2.67102,0.472261 -0.879834,0.216914 -1.786619,0.865996 -1.793063,1.771853 -0.007,0.922234 0.875612,1.555039 1.568768,2.165588 2.977231,2.620276 3.471639,7.059276 5.679775,10.353382 0.39597,0.590617 0.868348,1.120313 1.371077,1.619515 2.397626,0.945685 4.963883,1.496475 7.537873,1.696846 2.713091,0.210935 5.532942,0.03322 7.988809,-1.137852 0.622022,-0.546106 2.862738,-0.801553 6.078097,-6.173384 0.675556,-1.129647 1.407152,-3.335096 1.682663,-7.069807 -0.0066,-0.761724 -0.03322,-1.446083 -0.07673,-2.11287"
           style="fill:#382e2a;fill-opacity:1;fill-rule:nonzero;stroke:none;stroke-width:0.117186"
           id="path780" />
        <path
           d="m 96.27086,75.815691 c 1.73671,-1.367556 2.26404,-3.72418 3.3234,-5.664781 1.43436,-2.626123 3.87768,-4.516332 5.97062,-6.653817 2.09294,-2.138647 3.96558,-4.876117 3.73123,-7.858504 -0.20264,-2.58161 -1.99452,-4.824562 -4.17067,-6.228425 -2.17615,-1.403897 -4.71909,-2.104666 -7.21633,-2.785537 -8.857274,-2.415188 -17.815197,-4.846785 -26.99133,-5.124522 -1.569721,-0.04817 -3.322473,0.03986 -4.418737,1.163663 -1.562313,1.60191 -0.898117,4.22687 -1.225415,6.440523 -0.303946,2.056632 -1.522485,3.839015 -2.518563,5.664782 -0.995712,1.82457 -1.80723,3.95385 -1.217211,5.947201 0.604204,2.042547 2.519028,3.399573 4.419203,4.361668 1.900639,0.9609 3.971422,1.73435 5.447734,3.269491 0.920971,0.958575 1.550022,2.15622 2.379478,3.195647 1.828224,2.289823 4.56792,3.711292 7.400061,4.463615 2.832142,0.752323 5.785131,0.895294 8.712774,1.033581 2.210133,0.105634 4.634721,0.145495 6.373756,-1.224585"
           style="fill:#f8f7f6;fill-opacity:1;fill-rule:nonzero;stroke:none;stroke-width:0.117186"
           id="path782" />
        <path
           d="m 37.302259,20.019891 c -0.555695,-0.07374 -0.894012,-0.12191 -0.894012,-0.12191 0,0 -4.682874,-9.860027 -7.928341,-9.572923 -3.245,0.286007 -4.338111,13.01352 -4.338111,13.01352 0,0 -0.397378,1.08746 -0.863776,2.738632 0.762528,-0.467578 1.61998,-0.807432 2.480594,-1.048828 1.705058,-0.478108 3.485817,-0.645693 5.187241,-1.135527 2.413328,-0.696085 4.627912,-2.053111 6.356405,-3.872997"
           style="fill:#0f0d0d;fill-opacity:1;fill-rule:nonzero;stroke:none;stroke-width:0.117186"
           id="path784" />
        <path
           d="m 46.703744,20.703087 c 2.607391,1.682796 4.662232,4.221057 5.728865,7.138967 0.283018,0.772255 0.503918,1.580849 0.952628,2.269892 0.249136,0.383204 0.593641,0.716016 0.98681,0.944524 -0.0033,-0.0299 -0.0066,-0.05747 -0.01329,-0.08803 -0.448577,-2.842938 6.990382,-16.084932 4.936475,-16.60526 -3.413027,-0.863671 -10.463893,5.549946 -11.969028,6.210853 -0.138619,0.06079 -0.363396,0.09965 -0.622962,0.128886"
           style="fill:#0f0d0d;fill-opacity:1;fill-rule:nonzero;stroke:none;stroke-width:0.117186"
           id="path786" />
        <path
           d="m 28.322057,11.632887 c -0.52558,0.232195 -0.808934,0.795706 -1.035455,1.324206 -1.635566,3.815563 -2.481531,7.966297 -2.469227,12.11703 2.912307,-2.373 6.444762,-3.978464 10.148078,-4.611269 C 34.37542,17.446485 32.84368,14.62112 30.638241,12.480148 30.010708,11.870762 29.122204,11.280144 28.322057,11.632887"
           style="fill:#605555;fill-opacity:1;fill-rule:nonzero;stroke:none;stroke-width:0.117186"
           id="path788" />
        <path
           d="m 51.079935,22.382362 c 2.196779,-2.750359 6.850335,-6.432352 7.8789,-6.950288 1.028067,-0.515645 -3.939467,10.88424 -4.876483,13.515047 -0.634897,-2.074205 -1.475846,-5.024935 -3.002417,-6.564759"
           style="fill:#605555;fill-opacity:1;fill-rule:nonzero;stroke:none;stroke-width:0.117186"
           id="path790" />
        <path
           d="m 50.556717,37.432583 c -1.38656,-1.004316 -3.311455,-0.822646 -4.528198,-2.083572 -0.882528,-0.914062 -1.121941,-2.281618 -1.332992,-3.676147 -0.221133,-1.462459 -2.541413,-0.8742 -2.460437,0.221565 0.07325,0.990198 0.123172,2.080051 -0.394568,2.87692 -0.308065,0.474586 -0.776357,0.772254 -1.242407,1.026538 -1.509237,0.822646 -3.149842,1.327727 -4.815524,1.482391 -1.137995,0.105301 -2.366221,0.0774 -3.300898,0.828526 -0.869753,0.69841 -1.282717,1.919507 -1.587051,3.085495 -0.363978,1.395692 -0.62261,2.98355 0.01594,4.24215 0.611595,1.204654 1.861267,1.74488 3.02762,2.138648 4.167486,1.407384 8.691455,2.048393 12.829645,0.533183 1.3385,-0.489834 2.633873,-1.214055 3.661126,-2.313241 1.026788,-1.098058 1.76692,-2.601542 1.85621,-4.208168 0.08936,-1.606626 -0.541023,-3.294106 -1.72847,-4.154222"
           style="fill:#2b2120;fill-opacity:1;fill-rule:nonzero;stroke:none;stroke-width:0.117186"
           id="path792" />
        <path
           d="m 48.267007,41.280965 c -3.543942,-1.176551 -2.238488,-5.98002 -5.358098,-5.981183 -2.931059,0 -1.026317,4.457768 -4.365648,5.624919 -0.942531,0.329192 -3.182775,1.538662 -3.244063,2.703488 -0.07653,1.450767 1.289045,1.649976 2.427392,2.095298 2.806135,1.098024 5.045912,-0.406656 5.853444,-0.344538 1.62865,0.125564 2.862735,0.801552 3.634056,0.748835 0.770849,-0.05149 1.918919,-0.858986 2.324971,-1.645292 0.442259,-0.857824 0.165691,-2.723419 -1.272054,-3.201527"
           style="fill:#443834;fill-opacity:1;fill-rule:nonzero;stroke:none;stroke-width:0.117186"
           id="path794" />
        <path
           d="m 45.568914,46.31643 c -1.23268,-0.424195 -2.681099,-0.406623 -3.898193,0.04451 -0.354839,0.13254 -0.693976,0.301288 -0.961279,0.533184 -0.153401,0.133536 -0.287104,0.299959 -0.280194,0.482825 0.006,0.167419 0.131377,0.321219 0.294378,0.423032 0.162437,0.10198 0.359762,0.160443 0.556164,0.20861 1.309673,0.325869 2.723638,0.303613 4.063895,0.07374 0.257341,-0.04451 0.516907,-0.09733 0.743899,-0.204956 0.227445,-0.107959 0.421634,-0.279032 0.481165,-0.487475 0.06773,-0.239171 -0.05132,-0.494518 -0.251362,-0.676155 -0.200039,-0.182699 -0.471906,-0.302284 -0.748467,-0.397288"
           style="fill:#443834;fill-opacity:1;fill-rule:nonzero;stroke:none;stroke-width:0.117186"
           id="path796" />
        <path
           d="m 48.312708,45.576995 c -1.236314,1.240995 -3.083399,-0.10663 -4.453892,-0.19798 -0.02757,-0.0023 -0.05544,-0.0023 -0.08285,-0.0033 0,-0.0033 3.52e-4,-0.0066 3.52e-4,-0.01 -0.02292,-0.53438 0.02292,-1.068726 0,-1.604268 -0.0093,-0.212264 -0.400893,-0.158118 -0.39316,0.02658 0.02292,0.532021 -0.02192,1.062879 0,1.5949 -1.7074,0.127557 -3.395231,1.396854 -4.997399,0.249468 -0.1057,-0.07507 -0.463237,0.07972 -0.307135,0.191004 0.690814,0.494551 1.558693,0.58713 2.384033,0.495713 0.550188,-0.06212 1.088072,-0.31989 1.612715,-0.482825 0.916862,-0.283682 1.861266,-0.305938 2.76805,0.01329 1.190142,0.41599 2.75575,0.824971 3.781126,-0.202631 0.161473,-0.162768 -0.218907,-0.161772 -0.311818,-0.06909"
           style="fill:#000000;fill-opacity:1;fill-rule:nonzero;stroke:none;stroke-width:0.117186"
           id="path798" />
        <path
           d="m 45.360673,39.225529 c -1.285882,-0.371511 -2.67606,-0.372673 -3.96241,-0.0033 -0.393628,0.112609 -0.786788,0.264748 -1.092175,0.536738 -0.305739,0.273052 -0.510814,0.685521 -0.445424,1.088656 0.05448,0.335138 0.280659,0.615232 0.509057,0.865996 0.815262,0.895294 1.774783,1.659343 2.831214,2.251157 0.147422,0.08305 0.30667,0.165094 0.47566,0.155793 0.169346,-0.0066 0.319459,-0.105634 0.460539,-0.199309 0.438512,-0.29398 2.788207,-1.955815 2.554189,-3.547227 -0.04478,-0.306935 -0.234387,-0.581217 -0.483745,-0.767537 -0.249966,-0.185025 -0.547962,-0.292984 -0.846905,-0.379683"
           style="fill:#000000;fill-opacity:1;fill-rule:nonzero;stroke:none;stroke-width:0.117186"
           id="path800" />
        <path
           d="m 45.552507,40.228616 c 0.07232,-0.09035 0.06866,-0.22389 0.01827,-0.326866 -0.05086,-0.102976 -0.140047,-0.182699 -0.231198,-0.252125 -0.591434,-0.439442 -3.526127,-0.595302 -3.998973,-0.03322 -0.114835,0.131211 -0.195455,0.328195 -0.101116,0.473424 0.08696,0.113606 0.242094,0.141841 0.382261,0.151142 1.205258,0.02658 2.410517,0.05282 3.615776,0.0784 0.112609,0.0024 0.237642,-0.01 0.315007,-0.09268"
           style="fill:#5b5959;fill-opacity:1;fill-rule:nonzero;stroke:none;stroke-width:0.117186"
           id="path802" />
        <path
           d="m 47.070418,35.602133 c 0.483393,0.281357 0.97909,0.566003 1.522013,0.65154 0.679327,0.107959 1.368732,-0.108956 1.997205,-0.407819 0.56215,-0.267073 1.101313,-0.604669 1.550853,-1.057 0.449972,-0.453526 0.807499,-1.026538 0.963125,-1.671069 0.08205,-0.338692 0.103309,-0.716016 -0.04883,-1.025376 -0.206617,-0.418349 -0.663299,-0.598823 -1.081648,-0.735947 -1.174193,-0.383204 -2.395037,-0.705453 -3.615414,-0.57537 -0.498975,0.05282 -1.012135,0.193329 -1.390645,0.549593 -0.326368,0.306935 -0.521362,0.744152 -0.693039,1.17303 -0.149648,0.374999 -0.28933,0.760529 -0.33644,1.166022 -0.04724,0.40546 0.0066,0.83786 0.218309,1.175356 0.217512,0.348059 0.57269,0.558994 0.914637,0.75704"
           style="fill:#000000;fill-opacity:1;fill-rule:nonzero;stroke:none;stroke-width:0.117186"
           id="path804" />
        <path
           d="m 34.000072,31.067033 c -0.594717,0.09965 -1.201157,0.128886 -1.802205,0.0867 -0.253587,-0.01661 -0.535186,-0.03986 -0.733817,0.118257 -0.159248,0.127889 -0.220668,0.339854 -0.253587,0.541421 -0.213294,1.310122 0.462299,2.664789 1.506895,3.48511 1.044128,0.820287 2.401492,1.160142 3.728977,1.194124 0.781396,0.01993 1.571465,-0.05979 2.310206,-0.312915 0.709093,-0.243821 1.418655,-0.720699 1.593026,-1.450767 0.161141,-0.670308 -0.171206,-1.351179 -0.492999,-1.961694 -0.361639,-0.685555 -0.751633,-1.402734 -1.40764,-1.815236 -0.644876,-0.406623 -1.456507,-0.455852 -2.211887,-0.35271 -0.755263,0.10198 -1.485334,0.339821 -2.236966,0.467578"
           style="fill:#000000;fill-opacity:1;fill-rule:nonzero;stroke:none;stroke-width:0.117186"
           id="path806" />
        <path
           d="m 39.686292,34.187673 c 0,0 -0.364801,-2.62496 -2.697974,-2.770256 -2.333644,-0.146491 -3.68269,0.948011 -3.68269,1.385128 0,1.422632 1.130142,2.84998 3.026214,2.922628 1.896069,0.07275 2.69809,-0.553115 3.35445,-1.5375"
           style="fill:#489fcb;fill-opacity:1;fill-rule:nonzero;stroke:none;stroke-width:0.117186"
           id="path808" />
        <path
           d="m 33.702889,33.210364 c -0.01129,-0.105634 -0.0103,-0.222561 0.05684,-0.30461 0.09842,-0.119585 0.296139,-0.102976 0.420697,-0.01 0.12397,0.09268 0.19499,0.237841 0.269996,0.373836 0.695381,1.252721 2.192667,2.007369 3.613548,1.822245 -0.87151,0.230866 -1.810875,0.323544 -2.665045,0.03621 -0.85417,-0.287005 -1.598886,-1.021855 -1.696033,-1.917149"
           style="fill:#70c6e8;fill-opacity:1;fill-rule:nonzero;stroke:none;stroke-width:0.117186"
           id="path810" />
        <path
           d="m 38.859543,32.932627 c 0.06142,0.114935 0.09716,0.237842 0.09573,0.360915 -9.37e-4,0.0857 -0.02458,0.177052 -0.112144,0.233191 -0.122675,0.07972 -0.318163,0.05747 -0.465579,0.0033 -0.413316,-0.151142 -0.626244,-0.480467 -0.916394,-0.741793 -0.558977,-0.500398 -1.493655,-0.768767 -2.376651,-0.680872 0.586282,-0.191004 1.260101,-0.210935 1.89279,-0.126561 0.78784,0.105634 1.593847,0.412503 1.88224,0.951566"
           style="fill:#137aa2;fill-opacity:1;fill-rule:nonzero;stroke:none;stroke-width:0.117186"
           id="path812" />
        <path
           d="m 37.828776,33.403726 c 0,0.976147 -0.380856,1.768332 -0.850536,1.768332 -0.470152,0 -0.851004,-0.792185 -0.851004,-1.768332 0,-0.977342 0.380852,-1.768365 0.851004,-1.768365 0.46968,0 0.850536,0.791023 0.850536,1.768365"
           style="fill:#000000;fill-opacity:1;fill-rule:nonzero;stroke:none;stroke-width:0.117186"
           id="path814" />
        <path
           d="m 36.801991,33.203322 c 0,0.342179 -0.302118,0.619916 -0.674755,0.619916 -0.372654,0 -0.67476,-0.277704 -0.67476,-0.619916 0,-0.34218 0.302119,-0.619916 0.67476,-0.619916 0.37265,0 0.674755,0.277703 0.674755,0.619916"
           style="fill:#ffffff;fill-opacity:1;fill-rule:nonzero;stroke:none;stroke-width:0.117186"
           id="path816" />
        <path
           d="m 46.440543,33.781051 c 0,0 0.58136,-2.579252 2.609617,-2.51833 2.02838,0.06079 3.080696,1.267968 3.036283,1.702726 -0.145163,1.414426 -1.265144,2.735111 -2.908549,2.640174 -1.6433,-0.095 -2.271885,-0.787468 -2.737351,-1.82457"
           style="fill:#489fcb;fill-opacity:1;fill-rule:nonzero;stroke:none;stroke-width:0.117186"
           id="path818" />
        <path
           d="m 46.872139,33.350976 c -0.0083,-0.105633 -0.0076,-0.222561 0.03983,-0.30461 0.06913,-0.119585 0.209174,-0.102976 0.296604,-0.01 0.08753,0.09268 0.137357,0.237841 0.190074,0.373836 0.490658,1.252721 1.546272,2.008565 2.548329,1.823408 -0.614757,0.229869 -1.277212,0.322215 -1.879077,0.03521 -0.602454,-0.287004 -1.127917,-1.020659 -1.195769,-1.917149"
           style="fill:#70c6e8;fill-opacity:1;fill-rule:nonzero;stroke:none;stroke-width:0.117186"
           id="path820" />
        <path
           d="m 51.674539,32.627951 c 0.06145,0.115931 0.09733,0.23917 0.09567,0.362077 -9.3e-4,0.08437 -0.02325,0.177053 -0.112277,0.233191 -0.122575,0.07972 -0.318562,0.05747 -0.465485,0.0033 -0.413433,-0.152471 -0.626228,-0.480466 -0.916969,-0.741793 -0.558393,-0.500397 -1.493187,-0.768733 -2.376183,-0.680871 0.586399,-0.192333 1.260218,-0.210935 1.89279,-0.126561 0.787853,0.104305 1.594422,0.411339 1.882356,0.950403"
           style="fill:#137aa2;fill-opacity:1;fill-rule:nonzero;stroke:none;stroke-width:0.117186"
           id="path822" />
        <path
           d="m 50.528349,33.37207 c 0,0.976146 -0.380859,1.768332 -0.85054,1.768332 -0.469684,0 -0.851004,-0.792186 -0.851004,-1.768332 0,-0.977343 0.38132,-1.768332 0.851004,-1.768332 0.469681,0 0.85054,0.790989 0.85054,1.768332"
           style="fill:#000000;fill-opacity:1;fill-rule:nonzero;stroke:none;stroke-width:0.117186"
           id="path824" />
        <path
           d="m 49.445193,32.961926 c 0,0.342179 -0.302119,0.61872 -0.67464,0.61872 -0.37265,0 -0.674755,-0.276707 -0.674755,-0.61872 0,-0.343376 0.302118,-0.619916 0.674755,-0.619916 0.372535,0 0.67464,0.276374 0.67464,0.619916"
           style="fill:#ffffff;fill-opacity:1;fill-rule:nonzero;stroke:none;stroke-width:0.117186"
           id="path826" />
        <path
           d="m 20.346492,42.421176 c 0.366206,-0.113605 0.789132,-0.247142 1.247798,-0.364435 0.228872,-0.06212 0.464641,-0.125565 0.704054,-0.190008 0.241761,-0.05747 0.486672,-0.114934 0.731944,-0.172402 0.980143,-0.233191 1.973882,-0.410143 2.733716,-0.527337 0.900456,-0.135862 1.706111,-0.233191 2.514929,-0.303613 0.403822,-0.04451 0.809754,-0.06112 1.227757,-0.08803 0.417887,-0.03322 0.849599,-0.03754 1.306391,-0.04916 0.462416,-0.01993 0.982372,0 1.530803,0.0066 0.27375,0.0012 0.554759,0.02657 0.839521,0.03853 0.28428,0.01661 0.572686,0.02325 0.860143,0.05282 0.575852,0.05149 1.151236,0.096 1.696388,0.16742 0.272455,0.03388 0.538821,0.05979 0.793348,0.09733 0.254517,0.03621 0.49851,0.07142 0.72831,0.105633 0.355662,0.03887 1.254245,0.22389 1.607207,0.283683 0.190772,0.03388 0.121744,0.04584 -0.154796,0.02325 -0.137822,-0.01329 -0.327763,-0.03322 -0.56296,-0.06079 -0.234852,-0.0299 -0.514565,-0.07275 -0.835419,-0.110284 -0.182699,-0.02325 -0.379566,-0.04684 -0.590149,-0.07374 -0.10477,-0.01329 -0.213294,-0.02325 -0.324973,-0.03853 -0.112144,-0.01 -0.226979,-0.01993 -0.345581,-0.0299 -0.472846,-0.04086 -0.995144,-0.09268 -1.561855,-0.126561 -1.131667,-0.08803 -2.242122,-0.148817 -3.5532,-0.130215 -1.719352,0.02657 -3.651515,0.235516 -5.208799,0.476945 -0.296605,0.04916 -0.621674,0.09367 -0.960811,0.151143 -0.338784,0.06079 -0.693975,0.125564 -1.055611,0.191004 -0.72046,0.145495 -1.466233,0.299959 -2.150131,0.473457 -0.171571,0.04219 -0.340541,0.08072 -0.503078,0.122907 -0.161938,0.04451 -0.319458,0.08803 -0.471441,0.130215 -0.303048,0.0857 -0.58499,0.157122 -0.829911,0.233191 -0.489369,0.152471 -0.847254,0.266077 -0.994676,0.316568 -0.17579,0.05846 -0.145561,0.02658 0.110284,-0.07972 0.128189,-0.05381 0.312184,-0.126561 0.555696,-0.217911 0.122209,-0.04451 0.258636,-0.095 0.41015,-0.149813 0.153402,-0.04916 0.321784,-0.10198 0.504955,-0.159447"
           style="fill:#ffffff;fill-opacity:1;fill-rule:evenodd;stroke:none;stroke-width:0.117186"
           id="path828" />
        <path
           d="m 18.97776,48.303901 c 0.19044,-0.0857 0.394213,-0.181702 0.61206,-0.275378 0.21831,-0.09268 0.447654,-0.190007 0.684838,-0.290658 0.472846,-0.204955 0.983657,-0.400776 1.492715,-0.603506 0.508589,-0.203959 1.024907,-0.385529 1.506895,-0.567166 0.48433,-0.174727 0.94159,-0.328195 1.335803,-0.465219 1.875915,-0.624633 3.354921,-1.068759 5.271499,-1.556235 0.969596,-0.252125 2.191729,-0.502756 3.417613,-0.730067 1.229515,-0.209938 2.462783,-0.396093 3.460621,-0.495714 0.0962,-0.01 0.229338,-0.02325 0.381324,-0.03986 0.151973,-0.01661 0.322747,-0.03322 0.494408,-0.03986 0.342887,-0.01993 0.685771,-0.04352 0.878426,-0.05514 0.208344,-0.01661 0.138287,0.01329 -0.157487,0.06079 -0.147289,0.02325 -0.35156,0.05282 -0.605619,0.08205 -0.126793,0.01661 -0.266376,0.02657 -0.416947,0.04817 -0.150577,0.01993 -0.312648,0.04086 -0.485738,0.06311 -0.196751,0.02325 -0.409214,0.05149 -0.635731,0.08072 -0.226647,0.03322 -0.465582,0.07607 -0.719172,0.11726 -0.252657,0.04219 -0.520072,0.08205 -0.797922,0.13254 -0.278301,0.05149 -0.568468,0.104305 -0.870221,0.159447 -0.302915,0.05149 -0.602337,0.108956 -0.903974,0.170077 -0.302583,0.05747 -0.606555,0.115931 -0.916982,0.175724 -0.30843,0.06677 -0.622959,0.134865 -0.947097,0.204955 -0.161939,0.03621 -0.326368,0.07374 -0.493468,0.111281 -0.166157,0.04086 -0.335038,0.08304 -0.507653,0.126561 -1.808532,0.451168 -3.820851,1.086331 -5.446807,1.632403 -1.242406,0.410177 -2.92004,1.000795 -4.350062,1.563277 -0.717295,0.275378 -1.36639,0.557798 -1.881423,0.773417 -0.509057,0.229869 -0.880303,0.400776 -1.033581,0.473457 -0.182234,0.0877 -0.152471,0.05282 0.111214,-0.096 0.264615,-0.146492 0.757609,-0.42187 1.522482,-0.760561"
           style="fill:#ffffff;fill-opacity:1;fill-rule:evenodd;stroke:none;stroke-width:0.117186"
           id="path830" />
        <path
           d="m 23.48028,50.713276 c 0.576793,-0.338691 1.360882,-0.727742 2.137239,-1.133202 0.386831,-0.206284 0.78421,-0.390246 1.155923,-0.566003 0.372535,-0.175724 0.721398,-0.341017 1.022566,-0.482825 0.178581,-0.08537 0.353434,-0.165094 0.526869,-0.237841 0.172601,-0.07507 0.341482,-0.147489 0.507652,-0.220236 0.332806,-0.144167 0.655536,-0.283683 0.978738,-0.423066 0.320854,-0.144167 0.650497,-0.266077 0.987408,-0.39958 0.33738,-0.132541 0.685186,-0.268403 1.053269,-0.41134 0.370777,-0.151142 0.798271,-0.287004 1.246506,-0.440605 0.449059,-0.14782 0.918739,-0.312914 1.39428,-0.45821 0.476596,-0.141842 0.953545,-0.283683 1.406703,-0.419512 0.227112,-0.06577 0.445893,-0.13719 0.65917,-0.194658 0.213293,-0.05846 0.417887,-0.113606 0.610658,-0.166422 0.297534,-0.0784 1.057837,-0.279032 1.355374,-0.357427 0.320489,-0.08803 -0.196285,0.154796 -1.26432,0.465253 -0.152006,0.04584 -0.315804,0.09368 -0.490658,0.146491 -0.08696,0.02658 -0.177185,0.05381 -0.269631,0.08205 -0.09198,0.03322 -0.18632,0.06444 -0.28335,0.09733 -0.388121,0.131212 -0.817491,0.275378 -1.284946,0.424228 -0.469212,0.141842 -0.928349,0.297635 -1.4067,0.458178 -0.238938,0.07972 -0.482456,0.161772 -0.733236,0.246146 -0.250431,0.0867 -0.510463,0.171073 -0.77366,0.277703 -0.345584,0.137191 -0.703117,0.277703 -1.064752,0.420707 -0.360231,0.146492 -0.727374,0.286008 -1.081628,0.44881 -0.356596,0.157121 -0.709562,0.311585 -1.051981,0.462894 -0.342415,0.151142 -0.676513,0.290658 -0.985534,0.440638 -0.473783,0.220236 -1.035454,0.475749 -1.619159,0.737076 -0.576321,0.277703 -1.17315,0.564841 -1.727089,0.830851 -0.137822,0.0681 -0.27468,0.131212 -0.405111,0.196983 -0.129949,0.06677 -0.256278,0.132541 -0.37851,0.195655 -0.243157,0.126561 -0.467924,0.242492 -0.666086,0.345701 -0.396441,0.206284 -0.685774,0.357426 -0.804718,0.423065 -0.282421,0.157122 0.08145,-0.131211 1.248734,-0.788664"
           style="fill:#ffffff;fill-opacity:1;fill-rule:evenodd;stroke:none;stroke-width:0.117186"
           id="path832" />
        <path
           d="m 60.564631,43.145397 c -0.130547,-0.06444 -0.271392,-0.133536 -0.419777,-0.204955 -0.147489,-0.07607 -0.308929,-0.134866 -0.471897,-0.207281 -0.164097,-0.06909 -0.332812,-0.141841 -0.504483,-0.214589 -0.174063,-0.06345 -0.350617,-0.128886 -0.527337,-0.193329 -0.705353,-0.261427 -1.426385,-0.455852 -1.977506,-0.58826 -0.653666,-0.154796 -1.241493,-0.256775 -1.832908,-0.329191 -0.293648,-0.04684 -0.592279,-0.06079 -0.898118,-0.08803 -0.305274,-0.03322 -0.622042,-0.03521 -0.956714,-0.04584 -0.338659,-0.01993 -0.720932,-0.0012 -1.123336,-0.0023 -0.201302,-0.0033 -0.408284,0.01993 -0.617458,0.0299 -0.209606,0.01661 -0.422103,0.01661 -0.633968,0.04584 -0.424341,0.04817 -0.849612,0.08803 -1.252966,0.167752 -0.201335,0.03754 -0.398199,0.06444 -0.586399,0.107958 -0.188081,0.04451 -0.368432,0.08803 -0.538233,0.128887 -0.262855,0.04916 -0.928818,0.246146 -1.189792,0.321219 -0.140978,0.04219 -0.0961,0.0024 0.102544,-0.0867 0.09939,-0.04451 0.237177,-0.100651 0.409214,-0.165094 0.171671,-0.06444 0.378161,-0.138187 0.616165,-0.195654 0.135597,-0.03621 0.28159,-0.07607 0.43722,-0.118257 0.07829,-0.01993 0.158318,-0.04351 0.241164,-0.06677 0.08331,-0.01993 0.168515,-0.03754 0.25641,-0.05614 0.17579,-0.03754 0.361167,-0.07839 0.554759,-0.119585 0.193695,-0.04584 0.397378,-0.06444 0.607961,-0.096 0.845008,-0.124236 1.67164,-0.13254 2.643934,-0.126561 0.637721,0.01 1.317064,0.04451 1.97847,0.124236 0.329855,0.04219 0.65918,0.07507 0.973223,0.141841 0.31524,0.05979 0.622009,0.110284 0.906323,0.190007 0.217578,0.05747 0.455951,0.113606 0.703592,0.188679 0.245814,0.08205 0.50352,0.167419 0.76581,0.254119 0.520063,0.19798 1.05514,0.412502 1.53946,0.652735 0.121246,0.05747 0.241495,0.111281 0.356596,0.170077 0.113606,0.06212 0.224222,0.12191 0.330852,0.179378 0.212596,0.117259 0.411572,0.216914 0.581848,0.31989 0.339589,0.207281 0.588625,0.358589 0.693029,0.417186 0.124568,0.07142 0.09168,0.07507 -0.100983,-0.01 -0.09666,-0.04219 -0.232527,-0.10663 -0.409214,-0.196983 -0.08803,-0.04584 -0.185689,-0.09733 -0.294976,-0.154796 -0.109952,-0.05149 -0.230866,-0.110284 -0.362576,-0.172402"
           style="fill:#ffffff;fill-opacity:1;fill-rule:evenodd;stroke:none;stroke-width:0.117186"
           id="path834" />
        <path
           d="m 60.621799,47.973448 c -0.118589,-0.102976 -0.24681,-0.214589 -0.381676,-0.331517 -0.133204,-0.119585 -0.28335,-0.226215 -0.433097,-0.346896 -0.150478,-0.118257 -0.306271,-0.240167 -0.46419,-0.364436 -0.161772,-0.113606 -0.326534,-0.229869 -0.490664,-0.345701 -0.325538,-0.241495 -0.665126,-0.445321 -0.981429,-0.645693 -0.07906,-0.05049 -0.157122,-0.09965 -0.233523,-0.147488 -0.07773,-0.04352 -0.154464,-0.0867 -0.228541,-0.12789 -0.148817,-0.08304 -0.290326,-0.162769 -0.421039,-0.235516 -0.623105,-0.339855 -1.189806,-0.605865 -1.764711,-0.840219 -0.284347,-0.128886 -0.577729,-0.222561 -0.876559,-0.332812 -0.297634,-0.115931 -0.612077,-0.20263 -0.94253,-0.302284 -0.332812,-0.111281 -0.715053,-0.192333 -1.113737,-0.298963 -0.09999,-0.02658 -0.201966,-0.05049 -0.305274,-0.06909 -0.103308,-0.01993 -0.207281,-0.04086 -0.31225,-0.06212 -0.105301,-0.01993 -0.210603,-0.04219 -0.316901,-0.06311 -0.105301,-0.02325 -0.211931,-0.04219 -0.319558,-0.05514 -0.428546,-0.05846 -0.856502,-0.12789 -1.268529,-0.147821 -0.205553,-0.01329 -0.40558,-0.03621 -0.598703,-0.03853 -0.19313,-0.0012 -0.378626,-0.0024 -0.553001,-0.0033 -0.268702,-0.01661 -0.958465,0.02325 -1.228578,0.03388 -0.146027,0.0066 -0.09573,-0.01993 0.113905,-0.06212 0.104869,-0.01993 0.249966,-0.04318 0.429838,-0.06677 0.180474,-0.02325 0.395505,-0.04817 0.640422,-0.04584 0.140147,-0.0033 0.290725,-0.0066 0.451869,-0.01329 0.08052,-0.0024 0.163367,-0.0033 0.249003,-0.0066 0.08507,0.0024 0.172967,0.0033 0.262722,0.0066 0.180341,0.0066 0.36984,0.01329 0.568587,0.01993 0.199109,0.0024 0.4037,0.03754 0.617923,0.05846 0.856861,0.09035 1.679507,0.297634 2.643596,0.56132 0.631177,0.179377 1.298993,0.397288 1.942693,0.658582 0.320887,0.133536 0.641741,0.256775 0.942531,0.411339 0.302949,0.147821 0.599188,0.283683 0.868354,0.444126 0.206616,0.119585 0.433961,0.242492 0.666919,0.38905 0.230866,0.152472 0.472362,0.312915 0.718707,0.474621 0.242492,0.171073 0.483855,0.358589 0.725483,0.537867 0.06012,0.04584 0.120582,0.09035 0.180042,0.135862 0.05813,0.04817 0.115599,0.09733 0.173399,0.145163 0.114934,0.096 0.22854,0.192333 0.339588,0.284679 0.110949,0.095 0.221233,0.1827 0.325206,0.276375 0.102643,0.096 0.202298,0.188678 0.29863,0.279032 0.191004,0.181703 0.371711,0.339854 0.522753,0.495713 0.302285,0.310589 0.523252,0.537868 0.616528,0.629284 0.111281,0.108955 0.0784,0.102976 -0.09799,-0.04086 -0.08803,-0.07142 -0.211599,-0.178048 -0.371246,-0.322215 -0.07873,-0.07275 -0.167419,-0.153468 -0.265412,-0.243821 -0.100319,-0.08537 -0.209939,-0.179378 -0.329524,-0.282354"
           style="fill:#ffffff;fill-opacity:1;fill-rule:evenodd;stroke:none;stroke-width:0.117186"
           id="path836" />
        <path
           d="m 56.330819,48.825392 c -0.340552,-0.296305 -0.824407,-0.605864 -1.294078,-0.94336 -0.232526,-0.174727 -0.479303,-0.31524 -0.708176,-0.454656 -0.228873,-0.139516 -0.443063,-0.269399 -0.627988,-0.383204 -0.05514,-0.03322 -0.109288,-0.06677 -0.162437,-0.09966 -0.05481,-0.02657 -0.108955,-0.05614 -0.162768,-0.08437 -0.106963,-0.05514 -0.212596,-0.108955 -0.315904,-0.162768 -0.206949,-0.10663 -0.407786,-0.209939 -0.608788,-0.312915 -0.198312,-0.11128 -0.406955,-0.188678 -0.61789,-0.282353 -0.211932,-0.09135 -0.429842,-0.185025 -0.66011,-0.284679 -0.231198,-0.11261 -0.501328,-0.194658 -0.780472,-0.303614 -0.140613,-0.05282 -0.284281,-0.107626 -0.429839,-0.162768 -0.07288,-0.02657 -0.146127,-0.05514 -0.219738,-0.08305 -0.07288,-0.0299 -0.146957,-0.05614 -0.222993,-0.07607 -0.300225,-0.08902 -0.601048,-0.177053 -0.887099,-0.261427 -0.143303,-0.03986 -0.28149,-0.08803 -0.417532,-0.115931 -0.136393,-0.02657 -0.266841,-0.05149 -0.389997,-0.07507 -0.189476,-0.03986 -0.67335,-0.141841 -0.86284,-0.181703 -0.205553,-0.03853 0.155627,-0.07839 0.850068,0.03521 0.09889,0.01329 0.205554,0.0299 0.319458,0.04817 0.0573,0.0066 0.116363,0.01661 0.176721,0.02325 0.05999,0.01329 0.121279,0.02657 0.184559,0.04086 0.253122,0.05614 0.532726,0.120581 0.833542,0.199308 0.149647,0.04318 0.301155,0.07275 0.447654,0.132541 0.146956,0.05514 0.295308,0.11128 0.446361,0.167751 0.150578,0.05747 0.304344,0.114935 0.462778,0.174727 0.15845,0.05979 0.324209,0.110284 0.489834,0.188679 0.220236,0.09268 0.447182,0.188679 0.676985,0.286008 0.229205,0.09832 0.46605,0.181703 0.68891,0.302284 0.225551,0.113606 0.449075,0.226215 0.665624,0.333975 0.215918,0.111281 0.428447,0.210935 0.617458,0.3363 0.292319,0.181703 0.635396,0.403135 0.989168,0.634 0.345236,0.251794 0.695853,0.529663 1.023151,0.78046 0.08105,0.06444 0.162436,0.122907 0.238173,0.188678 0.07474,0.06577 0.147489,0.131212 0.216915,0.19333 0.139516,0.125232 0.268734,0.240166 0.382174,0.342179 0.227544,0.202631 0.394664,0.350385 0.465086,0.407819 0.16908,0.138187 -0.106962,0.01329 -0.805638,-0.548431"
           style="fill:#ffffff;fill-opacity:1;fill-rule:evenodd;stroke:none;stroke-width:0.117186"
           id="path838" />
        <path
           d="m 67.046544,95.133811 c -1.624664,-0.20164 -3.234114,-0.77342 -4.757064,-1.40858 -2.37991,-0.99372 -4.760684,-2.16091 -7.333259,-2.33786 -1.89197,-0.13022 -3.941327,0.43944 -5.292593,1.69452 0.794172,5.1796 3.1864,21.918459 1.420891,24.944199 -2.094241,3.59057 -5.842906,3.57068 -5.543963,6.41242 0.299427,2.84294 2.671488,3.54022 4.675606,3.54022 5.085627,0 7.434412,-1.42147 8.780176,-3.8156 0.825337,-1.46718 3.350344,-12.48499 5.71328,-21.36535 0.78501,-2.948399 1.680902,-5.603859 2.336926,-7.663969"
           style="fill:#a78f81;fill-opacity:1;fill-rule:nonzero;stroke:none;stroke-width:0.117186"
           id="path840" />
        <path
           d="m 35.421773,92.062361 c 0.354839,1.7859 0.618039,3.59058 0.79839,5.39641 0.709093,7.106179 0.232494,14.272089 -0.243987,21.398169 -2.853248,-0.0575 -5.37685,2.85935 -4.909979,5.67415 2.318174,1.21757 4.919586,1.8914 7.537055,1.95232 2.049819,0.0468 4.289596,-0.42419 5.742585,-1.77653 0.544212,-0.73123 1.005223,-1.53398 1.397561,-2.37653 0.393628,-1.55155 0.170741,-3.29178 0.0186,-4.92534 -0.75714,-8.13505 0.899871,-16.29122 2.990472,-24.194229 -4.412758,1.08045 -9.168403,0.66795 -13.330853,-1.14842"
           style="fill:#937769;fill-opacity:1;fill-rule:nonzero;stroke:none;stroke-width:0.117186"
           id="path842" />
        <path
           d="m 108.9703,115.44448 c -0.66678,-0.14782 -1.36167,-0.31059 -1.88081,-0.75349 -0.51913,-0.44296 0.23552,-1.26561 -0.16642,-3.09137 -0.16974,-0.76758 -1.19412,-0.76405 -2.52185,-0.47931 -0.56484,1.02774 -1.38629,1.98163 -2.17964,2.84061 -1.35118,1.46482 -2.82888,3.00348 -4.77533,3.42887 -1.83281,0.40078 -3.951527,-0.21923 -5.48783,0.8578 -1.43552,1.0066 -1.63825,3.21557 -0.746477,4.7261 0.892968,1.50936 2.603866,2.37536 4.325327,2.70817 2.89569,0.559 5.93195,-0.19333 8.52529,-1.59842 2.59218,-1.4039 4.79527,-3.42651 6.85306,-5.53938 0.70077,-0.71951 1.38865,-1.45545 2.06012,-2.20894 -1.33477,-0.29664 -2.67067,-0.59298 -4.00544,-0.89064"
           style="fill:#382e2a;fill-opacity:1;fill-rule:nonzero;stroke:none;stroke-width:0.117186"
           id="path844" />
        <path
           d="m 44.628729,120.30418 c -1.441034,-0.34218 -2.833557,-1.10739 -4.306586,-0.95505 -1.100964,0.11494 -2.146029,0.74063 -3.244647,0.60703 -0.777646,-0.096 -1.429554,-0.55079 -2.089193,-0.9996 -2.416961,0.5285 -4.334007,3.09018 -3.9221,5.57453 2.318175,1.21757 4.919587,1.8914 7.537056,1.95232 2.484225,0.0575 5.265988,-0.6246 6.561949,-2.74567 0.609249,-0.99724 0.792411,-2.13981 0.800616,-3.31869 -0.452222,0.0266 -0.914169,-0.0133 -1.337095,-0.11493"
           style="fill:#261e1b;fill-opacity:1;fill-rule:nonzero;stroke:none;stroke-width:0.117186"
           id="path846" />
        <path
           d="m 138.40861,109.00747 c -1.09803,-0.22256 -2.20894,-0.73478 -3.29291,-0.45236 -0.98435,0.25777 -1.68748,1.11095 -2.25348,1.95701 -0.56601,0.84494 -1.10155,1.76485 -1.96758,2.29919 -0.24614,0.15114 -0.5285,0.25445 -0.81912,0.30694 -0.52498,3.01052 -1.41559,5.62375 -2.11756,5.66009 -4.9382,0.24947 -7.10498,3.95033 -4.00308,6.39485 2.20429,1.73668 6.94564,2.13745 10.15185,0.60115 1.76365,-0.8449 4.40735,-10.40145 4.9687,-16.69784 -0.22721,-0.002 -0.45353,-0.0266 -0.66682,-0.0691"
           style="fill:#382e2a;fill-opacity:1;fill-rule:nonzero;stroke:none;stroke-width:0.117186"
           id="path848" />
        <path
           d="m 48.4688,120.78233 c -1.638728,1.18123 -3.120547,1.82925 -2.928244,3.65618 0.299427,2.84294 2.671488,3.54022 4.675606,3.54022 5.086092,0 7.434412,-1.42147 8.780176,-3.8156 0.302617,-0.53787 0.833176,-2.35895 1.500561,-4.88548 -4.298853,-0.53319 -8.55728,3.69371 -12.028099,1.50468"
           style="fill:#382e2a;fill-opacity:1;fill-rule:nonzero;stroke:none;stroke-width:0.117186"
           id="path850" />
      </g>
    </g>
  </g>
</svg>
