<?xml version="1.0" encoding="UTF-8" standalone="no"?>
<!-- Created with Inkscape (http://www.inkscape.org/) -->

<svg
   width="210mm"
   height="260mm"
   viewBox="0 0 210 260"
   version="1.1"
   id="svg6158"
   inkscape:version="1.2.1 (9c6d41e410, 2022-07-14)"
   sodipodi:docname="siberian.svg"
   xmlns:inkscape="http://www.inkscape.org/namespaces/inkscape"
   xmlns:sodipodi="http://sodipodi.sourceforge.net/DTD/sodipodi-0.dtd"
   xmlns="http://www.w3.org/2000/svg"
   xmlns:svg="http://www.w3.org/2000/svg">
  <sodipodi:namedview
     id="namedview6160"
     pagecolor="#ffffff"
     bordercolor="#000000"
     borderopacity="0.25"
     inkscape:showpageshadow="2"
     inkscape:pageopacity="0.0"
     inkscape:pagecheckerboard="0"
     inkscape:deskcolor="#d1d1d1"
     inkscape:document-units="mm"
     showgrid="false"
     inkscape:zoom="0.49085999"
     inkscape:cx="143.62548"
     inkscape:cy="562.27846"
     inkscape:window-width="1366"
     inkscape:window-height="705"
     inkscape:window-x="-8"
     inkscape:window-y="-8"
     inkscape:window-maximized="1"
     inkscape:current-layer="layer1" />
  <defs
     id="defs6155" />
  <g
     inkscape:label="Layer 1"
     inkscape:groupmode="layer"
     id="layer1">
    <g
       id="g6498"
       transform="translate(0.71396417,-5.2941105)">
      <path
         d="m 113.95668,141.53503 c 1.58868,-9.45865 4.42636,-18.65528 7.1269,-27.85845 0.89456,-3.04844 1.65832,-6.70684 -0.42826,-9.10337 -1.26588,-1.45555 -3.26808,-2.00853 -5.17324,-2.29948 -2.96216,-0.45571 -5.97284,-0.45822 -8.96876,-0.36924 -8.540468,0.25065 -17.057749,1.2296 -25.431547,2.92567 -1.101319,0.22176 -2.293353,0.51264 -2.989584,1.39457 -0.49794,0.62872 -0.651933,1.45365 -0.786955,2.24337 -2.042288,11.94505 -2.837682,24.35744 0.265835,36.07338 3.105632,11.71361 10.57643,22.70756 21.562163,27.82131 2.006428,0.93463 4.481218,1.6334 6.335738,0.4245 0.96839,-0.63125 1.57602,-1.67709 2.09502,-2.71151 4.39474,-8.75316 4.77238,-18.8802 6.39272,-28.54076"
         style="fill:#ededed;fill-opacity:1;fill-rule:nonzero;stroke:none;stroke-width:0.21098"
         id="path2140" />
      <path
         d="m 143.86311,90.589023 c -1.17727,-0.174693 -2.35243,-0.351895 -3.52969,-0.518393 0.24896,0.84814 0.74475,1.63024 1.41568,2.215287 -0.87137,-0.09556 -1.75958,-0.02393 -2.60773,0.200407 0.40088,0.472164 0.79962,0.936122 1.20048,1.398591 -0.7764,0.200229 -1.59289,0.271935 -2.39251,0.208423 0.86501,0.473 1.72793,0.945193 2.60139,1.415886 -1.37771,0.13755 -2.70477,0.712904 -3.7449,1.616109 -0.75953,0.06585 -1.51273,0.120265 -2.27226,0.177204 0.35231,0.535676 0.96839,0.894981 1.60766,0.919663 -1.1435,0.152561 -2.28069,0.312483 -3.42421,0.473001 1.8714,1.535519 4.08881,2.638939 6.43278,3.215129 -1.69627,0.44746 -3.4474,0.71353 -5.20065,0.80025 0.38402,0.72767 0.9452,1.35153 1.61612,1.82455 -0.92832,0.0545 -1.86297,0.11206 -2.79128,0.16644 1.06335,0.40949 2.12668,0.80848 3.19214,1.21736 -3.14572,0.0484 -6.28088,0.0888 -9.42449,0.13512 0.23839,0.56121 0.80805,0.96839 1.41568,1.02536 -1.58446,-0.27194 -3.21746,-0.26373 -4.80192,0.0227 0.86503,0.52742 1.73638,1.05743 2.60139,1.59311 -2.19207,-0.36099 -4.3926,-0.72113 -6.58468,-1.08043 0.41565,0.93696 1.11187,1.75113 1.97688,2.30433 -1.42411,-0.70468 -3.04866,-0.99161 -4.63312,-0.81693 -0.0718,1.27265 -0.1435,2.53599 -0.21733,3.80842 -0.38187,-0.83148 -1.08655,-1.51062 -1.92625,-1.85431 -0.60129,1.48762 -1.20048,2.96617 -1.80177,4.45611 -0.25532,-0.6015 -0.51055,-1.19246 -0.76797,-1.79334 -0.72788,1.93681 -1.76801,3.76135 -3.04656,5.38422 -0.008,-0.80848 -0.0168,-1.61611 -0.0168,-2.42458 -1.81654,1.38445 -3.32083,3.19254 -4.34408,5.23483 0.095,-1.16039 0.19198,-2.31508 0.28695,-3.47294 -1.35872,2.24673 -2.71955,4.49577 -4.08036,6.74482 -0.28695,-0.7532 -0.57599,-1.50407 -0.862913,-2.25727 -1.303847,1.42411 -2.151995,3.25775 -2.400942,5.17724 0.01677,-0.79286 0.02338,-1.58404 0.04015,-2.37776 -1.544378,1.52961 -2.768058,3.38393 -3.567674,5.40976 -0.561212,-0.32893 -0.905111,-0.99963 -0.84181,-1.64755 -0.951532,1.3583 -1.679397,2.86237 -2.166764,4.43881 -0.424081,-0.27852 -0.727881,-0.72767 -0.839714,-1.22368 -0.664581,1.36884 -1.071781,2.86469 -1.168812,4.39261 -0.592863,-1.8081 -1.192047,-3.61642 -1.784894,-5.42452 -0.455716,0.37576 -0.630833,1.0549 -0.415649,1.60788 -1.41568,-1.92857 -2.327112,-4.20715 -2.63936,-6.57667 -0.352316,0.41625 -0.85658,0.70468 -1.400911,0.80024 -0.200416,-1.00046 -0.398784,-2.00009 -0.607616,-3.00077 -0.1435,0.74519 -0.487367,1.44987 -1.000047,2.01761 -0.335451,-1.40934 -0.679366,-2.82523 -1.025377,-4.2329 -0.822814,1.00638 -1.295408,2.30433 -1.303847,3.59997 -0.639272,-2.34379 -1.160393,-4.71985 -1.559144,-7.12966 -0.481016,0.7937 -0.959961,1.58488 -1.440994,2.37753 -0.447284,-3.81641 -0.894558,-7.63305 -1.343947,-11.44967 -0.447285,0.61647 -1.054901,1.12072 -1.744805,1.44794 -0.0717,-1.27895 -0.143467,-2.55074 -0.206746,-3.82316 -0.673026,0.87936 -1.567583,1.58404 -2.576071,2.02329 -0.521143,-0.74263 -0.776405,-1.67138 -0.713112,-2.57627 -0.791171,0.78464 -1.576022,1.56168 -2.367194,2.34377 0.415648,-2.47226 0.822821,-4.9365 1.240561,-7.40075 -0.713113,0.33712 -1.432553,0.6726 -2.145667,1.00891 0.816493,-0.84899 1.432554,-1.88912 1.801769,-3.009005 -1.497958,0.432695 -3.057102,0.641165 -4.609915,0.615645 0.495788,-0.2787 0.824933,-0.839071 0.824933,-1.406822 -0.824933,0.30405 -1.58446,0.784635 -2.217404,1.400912 0.561214,-0.842234 0.913544,-1.825399 1.008486,-2.833252 -0.871348,-0.06351 -1.736366,-0.128698 -2.607714,-0.191975 0.599185,-1.129168 1.200474,-2.255799 1.79122,-3.384757 -1.103428,0.713538 -2.312339,1.272425 -3.567672,1.656406 0.455717,-0.799401 0.919873,-1.607881 1.384028,-2.415511 -1.071778,-0.06519 -2.135118,-0.13755 -3.209008,-0.200227 0.624499,-0.616481 0.993714,-1.481082 1.000047,-2.353062 -1.81443,0.567972 -3.550796,1.375589 -5.152132,2.401587 0.801721,-1.152163 1.609775,-2.304326 2.41783,-3.464712 -1.105539,0.527424 -2.200521,1.04836 -3.297621,1.567583 0.959961,-1.847765 1.928359,-3.696164 2.896757,-5.544773 -1.455765,0.447464 -2.793378,1.280649 -3.839835,2.384286 0.862908,-1.599017 1.727927,-3.208375 2.590835,-4.808025 -0.67092,0.02273 -1.343946,0.16877 -1.966334,0.424259 0.198315,-0.527424 0.407215,-1.063974 0.613949,-1.601342 -0.622388,0.392442 -1.246894,0.784634 -1.871394,1.16862 1.455764,-2.719537 3.232219,-5.272814 5.280835,-7.576297 -0.487355,0.120443 -0.976839,0.231626 -1.464204,0.351895 0.504219,-0.200229 1.000047,-0.623865 1.000047,-1.176845 0.0084,-0.486934 -0.624499,-0.894975 -1.000047,-0.662476 1.567583,-1.297316 2.911523,-2.793168 4.12888,-4.409277 1.327064,-1.768644 2.495895,-3.679701 3.630971,-5.624728 2.529649,-4.304206 4.905287,-8.760109 8.498281,-12.169548 1.094983,-1.04013 2.272252,-1.951564 3.510708,-2.759618 0.191975,-0.111833 0.386104,-0.232105 0.57808,-0.352314 l 0.327016,-0.191975 c 1.871388,-1.094983 3.88836,-1.943125 5.985502,-2.584502 6.504514,-1.983213 13.863512,-1.951571 20.688705,-0.99161 2.83979,0.407215 5.6817,0.936756 8.37802,1.89671 0.44729,0.1519 0.89455,0.320676 1.33552,0.504219 1.00003,0.415647 1.95999,0.88823 2.89675,1.415678 5.52767,3.111955 9.96037,8.057329 13.92046,13.09765 -0.44094,-0.1519 -0.87134,-0.312243 -1.31229,-0.46415 0.63926,1.166302 1.56758,2.192298 2.67312,2.943174 0.27217,0.200228 0.55912,0.377431 0.85447,0.529157 -0.37552,-0.04784 -0.75108,-0.0964 -1.12663,-0.145144 -0.34389,-0.04007 -0.68148,-0.08647 -1.01693,-0.126796 0.20041,0.232284 0.40088,0.463971 0.61606,0.688008 1.64775,1.776029 3.61621,3.263652 5.77664,4.36729 -0.7764,-0.238207 -1.59924,-0.312485 -2.40096,-0.206988 0.99372,1.246895 2.32922,2.223523 3.81664,2.783044 -0.55069,-0.04664 -1.12032,0.0964 -1.58447,0.400636 l 0.1456,0.360986 c 0.519,1.183388 1.59078,2.120563 2.83136,2.470789 -0.519,-0.07828 -1.04858,-0.158253 -1.56758,-0.239043 1.30385,1.799867 3.22377,3.126722 5.35255,3.78287 0.91145,0.289279 1.8714,0.440766 2.83136,0.45823 -0.59918,0.232284 -1.21525,0.430179 -1.83974,0.598975 -0.64772,0.169009 -1.30387,0.295139 -1.96002,0.384189 1.095,1.06313 2.30391,2.008319 3.60144,2.816799 -1.00848,-0.05742 -2.02541,-0.112011 -3.0339,-0.169011 1.27221,1.263563 2.55287,2.527754 3.82507,3.793636 -1.01691,-0.04845 -2.03173,-0.09724 -3.04866,-0.145805 1.1203,1.168614 2.12879,2.449269 2.98537,3.824645"
         style="fill:#ca9e67;fill-opacity:1;fill-rule:nonzero;stroke:none;stroke-width:0.21098"
         id="path2142" />
      <path
         d="m 83.128254,48.03475 c -2.160426,1.831308 -4.320871,3.662615 -6.481304,5.496033 -4.112004,3.487503 -8.215568,6.977112 -12.321239,10.464197 -0.542196,0.455718 -1.118194,0.977257 -1.230017,1.679612 -0.664588,-0.470669 -1.249001,-1.031908 -1.770121,-1.655773 -1.455764,-1.736576 -2.407286,-3.934991 -3.238545,-6.089097 -3.28074,-8.416002 -5.785079,-17.12948 -7.472918,-26.001191 0.111833,0.575985 0.487354,1.086543 1.006376,1.367151 -0.238385,-1.327065 -0.478923,-2.656239 -0.719441,-3.983308 0.415647,0.527424 0.83337,1.054901 1.249,1.584459 -0.816494,-2.841898 -1.552811,-5.713341 -2.200522,-8.601661 0.552782,0.664589 1.016924,1.40724 1.367152,2.200528 -0.0717,-2.063387 -0.1519,-4.12888 -0.223613,-6.192267 0.753195,2.143556 1.512723,4.280786 2.272252,6.424343 0.0717,-0.607624 0.145563,-1.217357 0.217332,-1.82498 1.310187,2.968494 2.799706,5.905335 4.791363,8.464526 l 0.0084,0.0084 c 0.327017,0.440945 0.679355,0.86502 1.048568,1.272211 5.510804,6.169057 13.831859,8.816857 20.794216,13.312848 1.000047,0.649816 1.966331,1.337613 2.903077,2.073932"
         style="fill:#ca9e67;fill-opacity:1;fill-rule:nonzero;stroke:none;stroke-width:0.21098"
         id="path2144" />
      <path
         d="m 138.31012,29.438963 c -1.1836,12.146128 -2.60139,24.939963 -9.50465,34.923539 l -0.27219,0.384012 -0.35231,0.495367 -0.0484,0.06585 c -0.903,1.214821 -2.16889,2.446949 -3.64786,2.200521 -1.03168,-0.177204 -1.79332,-1.04013 -2.46424,-1.848608 -3.09719,-3.681394 -6.42435,-7.168682 -9.95405,-10.432544 -2.35875,-2.192082 -4.81456,-4.28923 -7.35265,-6.280882 1.56125,-0.616061 3.08874,-1.303853 4.57827,-2.080264 6.5446,-3.384118 12.32757,-8.226112 16.85732,-14.040728 3.19212,-4.088793 5.75975,-8.658625 7.54464,-13.521712 -0.12867,1.272209 -0.26375,2.54442 -0.39245,3.822958 0.6878,-0.814382 1.1836,-1.782781 1.4389,-2.822917 0.0251,0.616061 0.0568,1.223685 0.0887,1.839745 0.68778,-1.504284 1.26376,-3.057101 1.72159,-4.647889 -0.23205,2.943174 -0.46415,5.896895 -0.69623,8.840069 0.75952,-0.607623 1.38403,-1.375591 1.81442,-2.24061 -0.31224,2.601385 -0.62239,5.20066 -0.93464,7.793606 0.52742,-0.816492 1.04647,-1.632986 1.57602,-2.449479"
         style="fill:#ca9e67;fill-opacity:1;fill-rule:nonzero;stroke:none;stroke-width:0.21098"
         id="path2146" />
      <path
         d="m 80.107023,79.4978 c -0.626609,-1.318631 0.02757,-2.860468 0.65826,-4.179099 0.632947,-1.316305 1.249011,-2.888738 0.563309,-4.177616 -0.324922,-0.607413 -0.896679,-1.044142 -1.495862,-1.383819 -3.301833,-1.860844 -7.67756,-1.208913 -10.759978,-3.413657 -0.06327,0.576166 0.443038,1.029371 0.83337,1.455551 0.875569,0.96249 1.339725,2.242511 2.2174,3.20268 0.976842,1.069667 2.392514,1.648177 3.814525,1.926668 1.286976,0.250643 2.82502,0.412895 3.455848,1.563575 0.417745,0.761431 0.265845,1.691853 0.166685,2.556448 -0.09916,0.862908 -0.08433,1.852615 0.546443,2.449269"
         style="fill:#634e42;fill-opacity:1;fill-rule:nonzero;stroke:none;stroke-width:0.21098"
         id="path2148" />
      <path
         d="m 96.447436,74.757284 c -0.286951,1.072204 -1.227905,3.344462 -2.871443,4.740516 1.310183,-2.130477 1.75113,-4.601055 1.658307,-5.993948 -0.03176,-0.487174 -0.09078,-0.980634 -0.01919,-1.466098 0.206752,-1.401122 1.466308,-2.438721 2.799709,-2.919968 1.331289,-0.480418 2.774381,-0.53819 4.166861,-0.805944 2.64991,-0.508705 5.1437,-1.805777 7.0805,-3.681603 -0.46625,1.356601 -0.93888,2.721432 -1.65198,3.966635 -0.71311,1.244574 -1.68784,2.37522 -2.95372,3.052677 -1.98532,1.061437 -4.38628,0.884217 -6.55727,1.480865 -0.53377,0.145983 -1.092887,0.37175 -1.377709,0.846456 -0.1435,0.236529 -0.20256,0.512711 -0.274262,0.780412"
         style="fill:#634e42;fill-opacity:1;fill-rule:nonzero;stroke:none;stroke-width:0.21098"
         id="path2150" />
      <path
         d="m 91.350153,97.049655 c -0.05079,-0.54411 -0.168766,-1.082113 -0.352316,-1.597329 0.540106,0.508464 1.082325,1.014603 1.622432,1.523069 -0.03354,-0.744129 -0.01129,-1.49163 0.06965,-2.231753 0.164589,0.320498 0.451524,0.580173 0.791182,0.711218 0.11609,-0.631251 0.234195,-1.261876 0.35022,-1.894814 0.333354,0.459963 0.664581,0.919873 0.997935,1.379812 0.322826,-1.027899 0.782734,-2.011063 1.36926,-2.913426 0.291127,-0.451709 0.622385,-0.909956 0.670917,-1.443104 0.06546,-0.732735 -0.424081,-1.403441 -0.98739,-1.875825 -1.738473,-1.457871 -4.181626,-1.658093 -6.451774,-1.686154 -1.183598,-0.01499 -2.388301,0.0042 -3.519142,0.354466 -1.130858,0.350221 -2.196302,1.080426 -2.692117,2.156852 -0.533754,1.15617 -0.297464,2.623957 0.571741,3.554379 1.187822,1.272635 3.227999,1.434875 4.424254,2.700758 0.0016,-0.270262 0.0048,-0.539923 0.0081,-0.810167 0.356556,0.309912 0.713112,0.622185 1.069668,0.932959 l 0.111898,-0.388197 c 0.647715,0.508465 1.297526,1.018611 1.945241,1.52728"
         style="fill:#ededed;fill-opacity:1;fill-rule:nonzero;stroke:none;stroke-width:0.21098"
         id="path2152" />
      <path
         d="m 104.04904,86.093456 c -0.20039,-1.014599 -1.04433,-1.954092 -0.76796,-2.951187 -0.20256,0.205911 -0.40506,0.411223 -0.60762,0.615637 -0.11399,-0.20274 -0.15833,-0.445192 -0.12237,-0.675131 -0.62239,0.210994 -1.2469,0.421927 -1.86929,0.630618 0.15624,-0.586093 0.22786,-1.195839 0.21309,-1.805782 -0.63083,0.38401 -1.303862,0.698139 -2.004317,0.934645 -0.0016,-0.271936 -0.0065,-0.544768 -0.0081,-0.814382 -0.386111,0.24897 -0.812272,0.436938 -1.255331,0.55296 l -0.145596,-0.43927 c -0.607632,0.113687 -1.196271,0.324683 -1.734265,0.624715 0.0129,-0.31057 0.107544,-0.617962 0.267925,-0.885904 -0.556956,0.276182 -1.113976,0.552124 -1.670948,0.829149 0.0466,-0.312484 0.09287,-0.62218 0.139146,-0.934638 -0.293287,0.130197 -0.586526,0.261169 -0.88191,0.392203 0.0048,-0.420252 -0.535914,-0.734213 -0.900871,-0.52575 l -0.40088,0.253815 c -0.379774,0.0964 -0.618177,-0.397049 -0.953627,-0.601505 -0.44938,-0.271935 -1.130858,0.166439 -1.067573,0.689693 -0.297463,-0.286706 -0.789054,-0.575985 -1.071764,-0.274266 l -0.280615,0.37151 -0.356556,0.01675 c -0.68991,-0.128457 -1.379821,-0.255489 -2.069715,-0.384012 0.168765,0.244725 -0.225762,0.534003 -0.514809,0.45823 -0.289031,-0.07578 -0.516889,-0.316491 -0.81016,-0.371751 0.133019,0.210994 -0.151884,0.454223 -0.40088,0.481433 -0.248964,0.02691 -0.542187,-0.01499 -0.713113,0.166439 -1.135065,-0.267929 -2.268035,-0.538188 -3.403101,-0.807839 0.223618,0.468156 0.447284,0.936326 0.670917,1.405337 -0.407216,-0.253156 -0.852355,-0.443457 -1.31652,-0.565461 0.01919,0.254652 0.03821,0.510141 0.05675,0.765648 -0.430418,-0.03649 -0.852365,-0.164765 -1.230017,-0.375758 0.01914,0.286708 0.03589,0.574311 0.05501,0.862699 -0.586511,-0.221518 -1.137181,-0.535676 -1.624547,-0.930423 -0.04665,0.248971 -0.05921,0.50446 -0.03589,0.757419 -0.128698,-0.305727 -0.346034,-0.575987 -0.618172,-0.765648 -0.02333,1.192669 0.141387,2.404961 0.624505,3.496152 0.483168,1.090132 1.299637,2.057055 2.369298,2.591045 1.432561,0.712904 3.181579,0.580172 4.66056,-0.03349 0.434595,-0.18145 0.854468,-0.401475 1.297527,-0.563726 1.571804,-0.581907 3.327159,-0.417981 4.953816,-0.006 1.626656,0.411402 3.1879,1.054901 4.825101,1.425803 1.23213,0.281025 2.500118,0.402969 3.761786,0.367504 1.206806,-0.03887 2.451586,-0.23653 3.457976,-0.903205 1.00637,-0.665012 1.71525,-1.888063 1.48319,-3.073985"
         style="fill:#ffffff;fill-opacity:1;fill-rule:nonzero;stroke:none;stroke-width:0.21098"
         id="path2154" />
      <path
         d="m 86.53558,85.947459 c -0.244724,-0.911434 -1.221569,-1.379596 -2.050722,-1.835313 -0.894551,-0.491182 -1.727929,-1.095199 -2.472676,-1.793331 -0.58443,-0.548775 -1.151963,-1.257653 -1.078117,-2.054524 1.2701,-0.65024 2.787052,-0.145805 4.202732,0.03349 2.280693,0.286707 4.567721,-0.32552 6.854734,-0.548775 0.333355,-0.03408 0.677254,-0.05682 0.993727,0.05682 0.314328,0.112011 0.590751,0.396449 0.590751,0.730205 0,0.385685 -0.341787,0.673236 -0.654036,0.898356 -1.168828,0.83569 -2.388301,1.610409 -3.690052,2.220144 -0.428258,0.201902 -0.881894,0.398124 -1.175149,0.769862 -0.331274,0.421987 -0.394543,0.987177 -0.447283,1.521378 -0.06337,0.664168 -0.128666,1.330867 -0.191983,1.996083 -0.396624,-0.0108 -0.67303,-0.420493 -0.748971,-0.808474 -0.07804,-0.390709 -0.02935,-0.799617 -0.13302,-1.186132"
         style="fill:#634e42;fill-opacity:1;fill-rule:nonzero;stroke:none;stroke-width:0.21098"
         id="path2156" />
      <path
         d="m 63.545083,51.895691 c 1.645647,1.936798 3.863047,3.384119 6.299865,4.10567 -1.632987,0.371332 -3.316605,0.510559 -4.987567,0.413555 1.263772,0.637154 2.527544,1.272211 3.791309,1.909365 -2.322889,0.599185 -4.519194,1.681512 -6.409571,3.160488 -5.042426,-10.046876 -8.230335,-21.017846 -9.356973,-32.201903 2.890431,5.974959 6.930698,11.3866 11.838096,15.855156 -1.527497,-0.799609 -3.052882,-1.597115 -4.580377,-2.39673 1.078106,1.881944 2.533871,3.546573 4.257577,4.860983 -1.016925,-0.05921 -2.035956,-0.11817 -3.05288,-0.177205 2.584507,2.029635 5.16901,4.059262 7.753517,6.086778 -1.852405,-0.538009 -3.702701,-1.078105 -5.552996,-1.616102"
         style="fill:#634e42;fill-opacity:1;fill-rule:nonzero;stroke:none;stroke-width:0.21098"
         id="path2158" />
      <path
         d="m 122.15958,47.899722 c 1.54015,-0.0021 3.08032,0.177204 4.57827,0.533764 -2.55497,0.527483 -5.20065,0.611845 -7.78305,0.24897 2.3482,0.419833 4.63734,1.166719 6.7809,2.211071 -2.88198,0.717335 -5.95597,0.645598 -8.8042,-0.204655 2.08238,0.816493 4.16475,1.635093 6.24712,2.453696 -3.07399,0.776406 -6.43912,0.32911 -9.20506,-1.221573 2.93895,2.067604 5.9201,4.173184 8.16493,6.979224 1.34816,1.683618 2.5824,3.725696 4.65632,4.318338 5.54668,-10.236332 7.98138,-22.133504 6.90117,-33.726864 -1.56126,4.70275 -4.06136,9.091139 -7.30835,12.831817 1.21313,0.04007 2.4347,-0.179357 3.56135,-0.637161 -1.70473,1.58446 -3.76812,2.774389 -5.99185,3.455854 1.43888,0.354467 2.93475,0.485261 4.41371,0.384011 -2.07183,0.791172 -4.14154,1.582348 -6.21126,2.373521"
         style="fill:#634e42;fill-opacity:1;fill-rule:nonzero;stroke:none;stroke-width:0.21098"
         id="path2160" />
      <path
         d="m 86.592544,133.28127 c -1.415664,-1.92857 -2.327096,-4.20715 -2.63936,-6.57666 -0.352316,0.41624 -0.856564,0.70466 -1.400895,0.80024 -0.200416,-1.00047 -0.398784,-2.00009 -0.607632,-3.00077 -0.1435,0.74518 -0.487351,1.44986 -1.000047,2.01761 -0.335451,-1.40935 -0.67935,-2.82524 -1.025361,-4.2329 -0.822819,1.00638 -1.295413,2.30432 -1.303852,3.59995 -0.639272,-2.34377 -1.160393,-4.71983 -1.559144,-7.12964 -0.4367,0.71943 -0.873458,1.44141 -1.308077,2.16084 -0.04426,0.0718 -0.08863,0.1435 -0.13289,0.21669 -0.447285,-3.81641 -0.894557,-7.63305 -1.343948,-11.44969 -0.447283,0.61648 -1.054901,1.12073 -1.744803,1.44796 -0.0717,-1.27897 -0.143468,-2.55075 -0.206748,-3.82317 -0.673026,0.87936 -1.567583,1.58404 -2.576069,2.0233 -0.468396,-0.66923 -0.721553,-1.48509 -0.721553,-2.30011 0,-0.0924 0.0021,-0.18311 0.0084,-0.27618 v 0 0 c -0.791171,0.78464 -1.576021,1.56168 -2.367192,2.34379 0.415647,-2.47228 0.82282,-4.93652 1.24056,-7.40077 v 0 0 c -0.713114,0.33712 -1.432554,0.67261 -2.145667,1.00891 0.816492,-0.84898 1.432553,-1.88911 1.801768,-3.008999 v 0 0 c -1.419893,0.411219 -2.894646,0.618169 -4.367288,0.618169 -0.0802,0 -0.160332,0 -0.242632,-0.003 0.495788,-0.27869 0.824933,-0.839066 0.824933,-1.406816 v 0 0 c -0.824933,0.304051 -1.58446,0.784634 -2.217404,1.400916 0.561214,-0.842237 0.913544,-1.825403 1.008486,-2.833255 v 0 0 c -0.871347,-0.06351 -1.736366,-0.128698 -2.607714,-0.191975 0.599185,-1.129168 1.200475,-2.2558 1.791221,-3.384759 v 0 0 c -1.103429,0.713539 -2.31234,1.272427 -3.567673,1.656406 0.455716,-0.799401 0.919873,-1.607879 1.384028,-2.415509 v 0 0 c -1.071778,-0.06519 -2.135118,-0.13755 -3.209008,-0.200229 0.624499,-0.616479 0.993714,-1.481081 1.000048,-2.353061 v 0 0 c -1.81443,0.567973 -3.550796,1.37559 -5.152133,2.401588 0.801721,-1.152163 1.609776,-2.304326 2.41783,-3.464712 v 0 0 c -1.105539,0.527423 -2.200521,1.048358 -3.297621,1.567583 0.959961,-1.847766 1.928359,-3.696165 2.896757,-5.544773 v 0 0 c -1.455765,0.447464 -2.793378,1.280648 -3.839835,2.384284 0.862909,-1.599016 1.727927,-3.208373 2.590836,-4.808025 v 0 0 c -0.670921,0.02272 -1.343947,0.168772 -1.966335,0.424261 0.198315,-0.527424 0.407215,-1.063974 0.613949,-1.601344 v 0 0 c -0.622388,0.392444 -1.246894,0.784634 -1.871394,1.168622 1.455765,-2.719537 3.232219,-5.272814 5.280835,-7.576297 v 0 0 c -0.487355,0.120443 -0.976839,0.231626 -1.464204,0.351895 0.504219,-0.200229 1.000047,-0.623867 1.000047,-1.176845 0,-0.0026 0,-0.0066 0,-0.0084 0,-0.386521 -0.400875,-0.72197 -0.7532,-0.72197 -0.08647,0 -0.173017,0.02152 -0.246818,0.0677 1.567584,-1.297316 2.911525,-2.793169 4.128882,-4.409279 0.782739,-0.744966 1.58446,-1.464412 2.398847,-2.160857 -1.447325,3.985629 -2.90309,7.960282 -4.35885,11.937682 0.839698,-1.318625 1.679402,-2.639787 2.510661,-3.960097 -0.535916,2.223516 -1.071779,4.455477 -1.61611,6.681315 0.86502,-0.80995 1.727928,-1.616104 2.592947,-2.432812 -0.143467,2.089127 -0.295378,4.175929 -0.447285,6.264424 2.272258,-1.928569 4.223829,-4.249354 5.744991,-6.81656 0.0317,1.712527 0.05501,3.415139 0.08647,5.128719 0.953632,-1.656614 2.080265,-3.191921 3.369351,-4.593035 -0.04007,3.544677 0.550689,7.097577 1.736367,10.440981 0.478922,-0.70467 0.95996,-1.406815 1.438888,-2.11149 0.0317,4.791572 1.289087,9.576602 3.601433,13.777214 0.639265,-1.38445 1.278538,-2.760037 1.928353,-4.137954 -0.1519,1.129167 0.318583,2.320785 1.206807,3.034534 0.280606,-0.473 0.552782,-0.953635 0.833377,-1.424117 0.782725,4.808017 2.031736,9.536087 3.711133,14.112447 0.40088,-1.95156 0.793295,-3.90546 1.192046,-5.85702 0.289031,3.62443 0.833362,7.2326 1.632977,10.78553 0.39872,-1.02369 0.816497,-2.04062 1.223681,-3.05753 0.08868,0.93696 0.352316,1.85663 0.776414,2.69654 1.295414,-2.76827 2.584508,-5.5357 3.879922,-8.3042 0.312249,1.21736 0.896663,2.35224 1.696279,3.31241 0.831265,-1.80832 1.664643,-3.60819 2.495893,-5.40974 0.424082,0.81016 0.848147,1.61862 1.272213,2.4328 0.263749,-1.43888 0.848147,-2.81446 1.687845,-4.01515 0.208897,0.51097 0.55278,0.9667 0.985278,1.30385 0.928315,-2.32078 1.862955,-4.64746 2.799715,-6.96909 0.40088,0.91164 0.79961,1.83215 1.20891,2.74527 1.1836,-2.61003 2.2153,-5.281043 3.08031,-8.009012 0.74265,1.567583 1.94313,2.911732 3.41577,3.840468 0.38402,-2.865532 0.39245,-5.785286 0.0318,-8.650186 0.3038,1.297317 1.08864,2.472475 2.16887,3.248887 0.8629,-4.312861 1.2722,-8.713694 1.23213,-13.112208 0.31857,1.624548 1.16672,3.143396 2.37563,4.272349 0.29537,-2.736832 0.12866,-5.530002 -0.48735,-8.218309 1.74268,2.137863 3.92,3.92043 6.35893,5.224288 -0.519,-2.648009 -1.04013,-5.296023 -1.55915,-7.942981 0.45572,0.710374 0.90512,1.423274 1.36083,2.142719 0.35232,-1.607035 0.28695,-3.294881 -0.16878,-4.871532 0.40931,0.9684 1.42202,1.687841 2.49169,1.687841 0.0168,0 0.0359,0 0.0526,0 -0.33336,-2.299261 -0.82071,-4.574048 -1.45365,-6.805801 0.63294,0.746659 1.35238,1.49163 2.3018,1.654086 0.12866,0.02093 0.25739,0.0311 0.38401,0.0311 0.60339,0 1.16883,-0.237966 1.68151,-0.600662 2.39673,2.076049 4.89685,4.050609 7.33578,6.073908 0.51898,1.183388 1.59078,2.120561 2.83134,2.470789 -0.51898,-0.07828 -1.04856,-0.158253 -1.56758,-0.239043 v 0 0 c 1.30385,1.799867 3.22378,3.126722 5.35257,3.78287 0.34388,0.352734 0.67092,0.696238 0.99162,1.057223 -0.64772,0.16901 -1.30387,0.295139 -1.96002,0.384189 v 0 0 c 1.09499,1.06313 2.3039,2.008319 3.60144,2.816799 -1.00849,-0.05742 -2.02542,-0.112011 -3.0339,-0.169011 v 0 0 c 1.27221,1.263563 2.55286,2.527754 3.82507,3.793636 -1.01693,-0.04845 -2.03175,-0.09724 -3.04868,-0.145805 v 0 0 c 1.12032,1.168616 2.1288,2.449269 2.98538,3.824645 -1.17726,-0.174692 -2.35243,-0.351895 -3.52969,-0.518393 v 0 0 c 0.24896,0.848141 0.74475,1.630241 1.41568,2.215287 -0.25108,-0.0281 -0.50638,-0.04307 -0.75953,-0.04307 -0.6224,0 -1.24479,0.08247 -1.8482,0.243288 v 0 0 c 0.40088,0.472164 0.79962,0.936122 1.20048,1.398591 -0.59284,0.153996 -1.2068,0.232284 -1.82075,0.232284 -0.19198,0 -0.38185,-0.009 -0.57174,-0.02393 v 0 0 c 0.86501,0.473 1.72793,0.945194 2.60139,1.415886 -1.37771,0.13755 -2.70477,0.712904 -3.74491,1.61611 -0.75953,0.06585 -1.51272,0.120266 -2.27225,0.177203 v 0 0 c 0.35231,0.535677 0.96841,0.894983 1.60767,0.919663 -0.46206,0.06183 -0.92408,0.124458 -1.38402,0.187968 -1.35872,-0.685686 -2.78706,-1.204911 -4.27236,-1.491839 -0.94942,-0.185216 -1.90093,-0.275942 -2.85034,-0.275942 -0.11399,0 -0.22785,0.0026 -0.34178,0.004 -5.04032,0.06351 -10.00891,2.438714 -14.25804,5.344547 l -0.16669,0.11141 c -2.6056,1.79734 -5.06563,3.80166 -7.35055,5.98974 -0.18988,0.0972 -0.34812,0.27618 -0.48735,0.44518 -0.0401,0.0484 -0.0822,0.0996 -0.12238,0.14753 -0.45147,0.43669 -0.89455,0.8802 -1.32917,1.33761 -0.43676,0.46223 -0.86713,0.93043 -1.28698,1.40767 -0.74898,0.4285 -1.35659,1.10341 -1.69417,1.89882 0.11609,-0.29999 -0.22362,-0.57198 -0.54644,-0.57198 -0.06966,0 -0.139315,0.0129 -0.204664,0.0419 -0.356556,0.15817 -0.527417,0.55955 -0.668805,0.92473 -0.489495,1.2758 -0.981053,2.55476 -1.470532,3.83309 -0.210993,-0.35614 -0.419825,-0.71121 -0.630834,-1.06735 -0.675125,1.59881 -1.352379,3.19614 -2.029616,4.79326 0.128666,-0.31248 -0.227858,-0.61163 -0.567566,-0.61163 -0.06111,0 -0.120281,0.0113 -0.177197,0.0298 -0.373422,0.13688 -0.582318,0.52491 -0.759532,0.88191 -0.45146,0.9262 -0.905096,1.85008 -1.358716,2.77396 -0.282694,-0.40949 -0.565388,-0.8184 -0.848131,-1.22791 -0.468389,1.27665 -0.936746,2.55307 -1.405119,3.82971 -0.09916,-0.0619 -0.19832,-0.089 -0.297479,-0.089 -0.457813,0 -0.892439,0.59519 -1.078102,1.10363 -0.521145,1.43066 -0.964188,2.88853 -1.327065,4.3654 -0.07385,-0.22176 -0.145595,-0.44328 -0.219441,-0.66502 -0.322826,0.26775 -0.50636,0.68822 -0.50636,1.10764 -0.0016,0.17135 0.02935,0.34203 0.09078,0.50022"
         style="fill:#ab865c;fill-opacity:1;fill-rule:nonzero;stroke:none;stroke-width:0.21098"
         id="path2162" />
      <path
         d="m 124.86858,67.539443 c -0.12657,0 -0.25532,-0.0108 -0.38402,-0.0311 -0.94941,-0.162432 -1.66885,-0.907427 -2.30179,-1.654086 -0.44729,-1.575806 -0.96629,-3.130944 -1.55493,-4.658439 1.82498,2.05495 3.83352,3.936468 5.92222,5.743088 -0.51272,0.36266 -1.07811,0.600662 -1.68151,0.600662"
         style="fill:#ab865c;fill-opacity:1;fill-rule:nonzero;stroke:none;stroke-width:0.21098"
         id="path2164" />
      <path
         d="m 190.3779,204.22335 c -2.03175,5.62473 -4.18374,11.40115 -8.16705,15.86549 v 0.008 l -0.34602,0.38419 c -3.37568,3.62443 -7.7683,6.02602 -12.46472,7.73686 -0.27216,0.10319 -0.54435,0.20041 -0.82282,0.28945 l -0.54434,0.18295 c -1.83343,0.61648 -3.69637,1.13571 -5.56143,1.59312 -4.28713,1.04645 -8.63965,1.82286 -13.0238,2.31824 -16.12311,1.83362 -32.67661,-0.0545 -47.93259,-5.57621 -10.114382,-3.65586 -20.33847,-9.59305 -24.499007,-19.49667 -0.369239,-0.87283 -0.687792,-1.79332 -0.639272,-2.72966 0.0066,-0.19855 0.0317,-0.39053 0.0717,-0.57599 0.232045,-1.24689 1.046462,-2.26382 1.974773,-3.2472 0.865019,-0.91143 1.824988,-1.79987 2.529652,-2.80772 2.751193,-3.96917 1.111864,-9.34663 1.398798,-14.1612 0.337547,-5.60173 3.265971,-10.32156 6.59313,-14.96313 l 0.0081,-0.008 c 0.550619,-0.78294 1.120296,-1.55028 1.687829,-2.33575 2.951609,-4.03163 5.905347,-8.10375 7.415962,-12.73624 1.177261,-3.59321 1.424113,-7.29611 1.240563,-11.05746 -0.07175,-1.59312 -0.232051,-3.19277 -0.424082,-4.7998 v -0.01 c -0.424082,-3.52062 -1.040146,-7.05707 -1.440994,-10.56123 -0.03176,-0.22344 -0.05498,-0.4477 -0.07175,-0.67092 v -0.0485 c -0.03176,-0.21499 -0.05498,-0.43843 -0.08013,-0.65594 l -0.03176,-0.29496 c -0.08013,-0.90574 -0.1435,-1.8083 -0.1435,-2.71405 0.0081,-0.68737 0.04837,-1.37537 0.1435,-2.06275 0.521145,-3.64848 2.584508,-6.8404 5.025548,-9.64243 l 0.008,-0.008 c 0.42407,-0.47892 0.85447,-0.95109 1.29541,-1.41589 0.43886,-0.46397 0.88823,-0.9108 1.34395,-1.35238 0.19197,-0.1979 0.384,-0.38335 0.58441,-0.56714 2.28703,-2.19208 4.75128,-4.20061 7.3611,-6.00048 l 0.16668,-0.11141 c 4.24914,-2.905836 9.21773,-5.281048 14.25804,-5.34455 1.06334,-0.02572 2.12878,0.06351 3.19213,0.271935 1.48741,0.286947 2.91997,0.808473 4.28078,1.495848 1.1836,0.584417 2.32078,1.295628 3.38413,2.080267 2.79126,2.05537 5.18378,4.63986 7.03196,7.57629 1.33761,2.12056 2.38408,4.42467 3.90526,6.41022 2.87142,3.74236 7.16909,6.05491 11.18404,8.53645 10.60175,6.5674 20.33848,15.50452 24.69101,27.19239 2.24904,6.04923 2.96004,12.53855 2.88831,19.01142 -0.0168,1.64818 -0.0801,3.29571 -0.18353,4.93482 -0.1435,2.2096 -0.34389,4.44134 0.095,6.6022 l 0.0252,0.1032 c 0.83969,4.00862 3.78287,7.35287 4.59092,11.37795 0.8165,4.02358 -0.59918,8.12927 -2.0001,11.98388"
         style="fill:#ca9e67;fill-opacity:1;fill-rule:nonzero;stroke:none;stroke-width:0.21098"
         id="path2166" />
      <path
         d="m 63.405839,223.28983 c -0.575987,-0.27278 -1.118201,-0.59918 -1.63932,-0.96017 0.784849,0.28927 1.791224,0.56121 1.63932,0.96017 m 118.756501,-5.5762 -0.0718,-0.24958 c -1.36925,-2.58196 -22.74788,9.7627 -25.66784,11.58745 -2.23218,1.39037 -4.56772,2.56806 -6.975,3.55039 -1.71315,0.68822 -3.45796,1.28972 -5.23441,1.7851 -6.33575,1.78511 -13.03225,2.33555 -19.65703,1.84839 -8.06366,-0.59897 -16.23282,-1.22368 -23.84286,-3.95988 -2.590842,-0.93697 -5.559317,-2.09735 -7.960275,-0.72851 -2.479012,-1.3121 -4.968584,-2.62417 -7.447596,-3.94513 -0.70468,-0.3669 -1.472645,-0.75911 -2.27226,-0.65614 -0.793295,0.10544 -1.529609,0.9454 -1.21736,1.6813 -3.35247,-2.23998 -6.96867,-4.08858 -10.759984,-5.48062 -0.01675,0.97661 -0.0317,1.95978 -0.04845,2.94316 -2.272259,-1.59965 -7.785166,-2.83178 -10.08063,-4.41581 l -0.0317,-0.0227 c -1.713154,-1.47286 -3.000138,-3.4335 -3.624637,-5.60174 -0.673026,0.95933 -1.343941,1.9136 -2.016972,2.8647 -0.767968,-1.88807 -0.991605,-3.99132 -0.639266,-5.99395 -0.736324,0.29747 -1.472643,0.60149 -2.208967,0.89667 0.29538,-2.00855 1.160392,-3.91137 2.432603,-5.48719 1.023253,-1.2724 2.303901,-2.33807 3.759666,-3.06574 0.05682,-1.2469 -1.647753,-2.14355 -2.6478,-1.39859 0.223613,-0.74496 2.111914,-1.13739 2.335549,-1.88889 h -0.02333 l -0.464149,-0.0168 c -1.057007,-0.0635 -1.768009,-0.47892 -2.472683,-1.01461 -0.327017,-0.24071 -0.65615,-0.52174 -1.014815,-0.80847 L 53.9981,199.88746 c -0.20884,-0.16075 -0.432513,-0.32048 -0.673026,-0.47867 l -0.375529,-0.2325 c -0.983165,-0.17722 -3.544469,-1.32033 -4.536072,-1.49754 -3.936887,-2.51932 -11.257898,-0.49603 -14.777052,2.86489 -0.415647,-0.30339 -1.031691,-0.008 -1.472641,0.304 -0.871347,0.6074 -1.753244,1.21734 -2.62459,1.83362 -0.711003,0.48717 -1.415678,0.98337 -2.128791,1.47854 -0.535856,-0.67914 -1.071779,-1.3606 -1.61611,-2.03976 -1.303854,2.27226 -2.438929,4.64749 -3.384117,7.09675 -0.200408,-0.63294 -0.398723,-1.26334 -0.590759,-1.88807 -2.329223,2.65625 -3.673163,6.13573 -3.808192,9.66543 -0.04844,1.04013 0.01499,2.0885 0.191976,3.1202 -0.45781,-0.76799 -1.360824,-1.24036 -2.249048,-1.18594 0.719441,3.31218 2.168872,6.46633 4.223822,9.16119 -0.9684,-0.50278 -1.934687,-1.00701 -2.903086,-1.51061 1.487408,1.84776 2.974816,3.69614 4.464341,5.54392 -1.065451,0 -2.128791,-0.008 -3.192131,-0.008 3.920011,3.07166 8.424434,5.39245 13.201025,6.79336 -0.816494,0.055 -1.641425,0.11222 -2.464246,0.16727 3.639404,1.36083 7.280924,2.71891 10.920334,4.08035 -0.719448,0.11964 -1.43256,0.24898 -2.152001,0.3751 2.576069,1.11419 5.152139,2.21762 7.728201,3.32948 -1.303853,-0.20022 -2.679448,0.16901 -3.719578,0.97662 14.017524,2.66279 21.688755,1.07222 32.57955,2.66279 -1.177269,0.39221 -2.217397,1.1604 -2.936838,2.16912 5.200659,-0.3272 10.401317,-0.65686 15.593535,-0.99226 -0.70468,0.81671 -1.736361,1.33592 -2.799709,1.41586 15.456406,-0.65602 30.995092,-1.3203 46.130812,-4.53606 9.87387,-2.09672 19.47558,-5.26374 29.06039,-8.4162 3.96011,-1.30533 9.00043,-3.47211 12.07229,-6.2889 5.19221,-4.76204 7.83369,-7.80226 9.16075,-9.98612 0.97685,-1.59881 1.24901,-2.74189 1.2891,-3.7681 v -0.008 c 0.0466,-0.81418 -0.0484,-1.54438 -0.0484,-2.37521"
         style="fill:#ca9e67;fill-opacity:1;fill-rule:nonzero;stroke:none;stroke-width:0.21098"
         id="path2168" />
      <path
         d="m 58.597598,205.26348 c -1.455765,0.72767 -2.736414,1.79332 -3.759666,3.06574 -0.871347,0.30322 -1.736366,0.61565 -2.599274,0.91967 -1.736366,0.61565 -3.673164,1.41589 -4.329312,3.13516 0.392442,-1.30386 0.567552,-2.68768 0.495786,-4.05483 -1.392473,0.65594 -2.592946,1.71084 -3.424211,3.00816 0.584417,-1.15216 0.856581,-2.46424 0.767972,-3.76135 -1.407239,0.31225 -2.768062,0.85616 -4.000185,1.60113 -0.02333,-0.46397 -0.04845,-0.92873 -0.0717,-1.40091 -1.392467,1.44965 -2.784934,2.89676 -4.177407,4.34409 0.968398,-2.60773 2.312346,-5.07176 3.960097,-7.31258 -2.487456,0.80763 -4.728065,2.36108 -6.35894,4.40906 0.959961,-1.61611 1.928359,-3.22567 2.894647,-4.84178 -2.991699,1.08043 -5.84837,2.54484 -8.470854,4.3291 0.438852,-2.25475 1.462093,-4.40084 2.943173,-6.16864 -1.367151,0.36924 -2.664678,0.99963 -3.791309,1.86508 0.06327,-0.67347 0.39029,-1.23213 0.862908,-1.71929 0.871347,-0.61628 1.753243,-1.22621 2.62459,-1.83364 0.440945,-0.31223 1.057012,-0.6074 1.472641,-0.30397 3.519154,-3.36093 10.840165,-5.38422 14.777052,-2.86492 0.991603,0.17722 3.552907,1.32033 4.536072,1.49754 l 0.375578,0.23254 c 0.240537,0.15817 0.46415,0.31792 0.673026,0.47867 l 0.312244,0.24898 c 0.358653,0.2867 0.687791,0.56773 1.014814,0.80847 0.704675,0.53567 1.417783,0.9511 2.472684,1.01461 l 0.46415,0.0168 h 0.02333 c -0.223613,0.75152 -2.11191,1.14394 -2.335551,1.88891 1.000048,-0.74497 2.704764,0.15172 2.647799,1.39859"
         style="fill:#ededed;fill-opacity:1;fill-rule:nonzero;stroke:none;stroke-width:0.21098"
         id="path2170" />
      <path
         d="m 108.3214,106.71255 -0.19413,0.28269 c 0.006,-0.22576 0.0145,-0.45152 0.021,-0.67744 -0.65192,0.74665 -1.30596,1.49584 -1.9579,2.24504 0.10964,-0.21099 -0.13076,-0.55064 -0.40505,-0.5422 -0.31435,0.0113 -0.55488,0.27426 -0.75531,0.51672 -0.72156,0.87345 -1.44311,1.74712 -2.16467,2.62227 -1.00848,0.376 -1.84818,1.17938 -2.26803,2.1693 0.1414,-0.36523 -0.39243,-0.68991 -0.751087,-0.53 -0.356556,0.15833 -0.527417,0.55954 -0.668805,0.92472 -0.489511,1.27581 -0.981053,2.55476 -1.470532,3.8331 -0.210993,-0.35614 -0.419825,-0.71121 -0.630834,-1.06735 -0.675141,1.59881 -1.352379,3.19614 -2.029632,4.79326 0.149787,-0.36925 -0.371326,-0.71713 -0.744763,-0.58192 -0.373422,0.13689 -0.582318,0.52492 -0.759516,0.88191 -0.451476,0.92619 -0.905112,1.85007 -1.358716,2.77396 -0.28271,-0.40949 -0.565404,-0.81839 -0.848131,-1.2279 -0.468405,1.27665 -0.936762,2.55307 -1.405135,3.82971 -0.559116,-0.35022 -1.149835,0.39813 -1.375597,1.01459 -0.932521,2.55899 -1.616095,5.20701 -2.042289,7.897 -2.259587,4.09914 -3.455841,8.78269 -3.403101,13.46476 0.0129,1.18339 0.0016,2.58618 -0.972621,3.25942 1.611887,-0.70046 3.105637,-1.61358 4.50442,-2.66446 1.805999,-0.85047 3.614094,-1.70093 5.420077,-2.55075 2.58662,-1.21546 5.225981,-2.47079 7.251405,-4.48565 1.559127,-1.55451 2.681557,-3.49362 3.614077,-5.4897 3.90525,-8.34195 4.71964,-17.6926 5.0804,-26.95272 l 0.0843,-0.22576 c 0.40088,-1.13909 0.77851,-2.43703 0.22995,-3.5126"
         style="fill:#ededed;fill-opacity:1;fill-rule:nonzero;stroke:none;stroke-width:0.21098"
         id="path2172" />
      <path
         d="m 87.784591,64.714421 c -0.518985,-3.472313 -0.647716,-6.999897 -0.39872,-10.504278 -1.481077,1.175157 -2.489573,2.945284 -2.744857,4.825116 -0.248964,-1.799663 -0.48735,-3.592993 -0.727881,-5.384213 -0.567549,0.622388 -1.145627,1.23845 -1.71316,1.86295 0.177214,-1.080218 0.360813,-2.166762 0.535915,-3.246985 -3.206894,1.98322 -5.599413,5.247081 -6.527725,8.903367 0.1519,-2.550754 0.295379,-5.095174 0.438853,-7.639595 v 0 c 2.160433,-1.833418 4.320876,-3.664725 6.481303,-5.496033 -0.936746,-0.736317 -1.903031,-1.424116 -2.903078,-2.07393 3.797645,-1.158282 7.890656,-1.628771 11.996325,-1.628771 2.924183,0 5.854703,0.238386 8.692384,0.637161 2.83979,0.407215 5.6817,0.936756 8.37802,1.89671 -1.48952,0.776412 -3.01702,1.464204 -4.57826,2.080266 2.53808,1.99165 4.99389,4.088798 7.35266,6.280882 v 0 c 0.22576,2.023299 0.89666,4.000179 1.56124,5.928537 -2.16887,-2.449478 -3.92001,-5.266061 -5.16057,-8.28941 -0.12028,2.441041 0.1435,4.896854 0.77642,7.249282 -2.37776,-2.481129 -4.01707,-5.656377 -4.64159,-9.034174 -1.47896,0.681472 -2.75117,1.808103 -3.60775,3.20057 0,-1.080217 -0.36075,-2.160435 -1.008484,-3.03178 -1.00848,1.352378 -2.023296,2.704764 -3.040225,4.057143 -0.175101,-1.280649 -0.352315,-2.561297 -0.535914,-3.833508 -4.32087,3.209009 -7.44126,7.991926 -8.624858,13.240693"
         style="fill:#d5b185;fill-opacity:1;fill-rule:nonzero;stroke:none;stroke-width:0.21098"
         id="path2174" />
      <path
         d="m 75.279798,53.691127 c 0.42408,-1.753242 0.0317,-3.696367 -1.040128,-5.145805 l -0.240538,-0.303811 -0.08647,0.495786 c -0.08863,0.489508 -0.177205,0.976837 -0.257403,1.464204 -0.08647,-0.384012 -0.191975,-0.75109 -0.320677,-1.111867 -2.407286,-7.223959 -11.544833,-10.753656 -14.952161,-17.713891 0.327016,0.440945 0.679353,0.865019 1.048567,1.27221 5.510804,6.169059 13.831857,8.816858 20.794189,13.312849 v 0 c 1.000063,0.649815 1.966347,1.337613 2.903093,2.07393 -2.160426,1.831309 -4.320866,3.662615 -6.481301,5.496034 0.04007,-0.58442 0.07386,-1.160387 0.105497,-1.736367 -0.647711,0.478921 -1.160393,1.143515 -1.472643,1.89671"
         style="fill:#d5b185;fill-opacity:1;fill-rule:nonzero;stroke:none;stroke-width:0.21098"
         id="path2176" />
      <path
         d="m 112.06629,55.227068 c -2.35875,-2.192084 -4.81456,-4.289232 -7.35265,-6.280882 1.56124,-0.616062 3.08874,-1.303854 4.57827,-2.080266 v 0 c 6.54459,-3.384119 12.32756,-8.226113 16.85731,-14.040728 -1.74481,3.920011 -4.29766,7.616385 -6.96867,10.951983 -0.73633,0.928312 -1.633,1.911476 -2.81658,2.00009 -0.7279,0.951521 -1.08023,2.183644 -0.95996,3.375679 -0.61607,-0.191975 -1.04015,-0.928312 -0.78485,-1.510612 -0.41565,0.335449 -0.78273,0.719441 -1.095,1.143508 -1.10553,1.487409 -1.57601,3.455856 -1.53804,5.335689 0.008,0.369238 0.0335,0.736324 0.0801,1.105539"
         style="fill:#d5b185;fill-opacity:1;fill-rule:nonzero;stroke:none;stroke-width:0.21098"
         id="path2178" />
      <path
         d="m 86.290856,80.371467 c -0.384014,-0.0042 -0.770076,-0.02572 -1.154059,-0.07344 -0.894567,-0.11459 -1.8292,-0.356739 -2.715319,-0.356739 -0.07384,0 -0.147691,0.0023 -0.221521,0.0066 -0.23205,-0.183783 -0.438851,-0.393041 -0.645603,-0.601715 -0.381854,-0.388016 -0.786942,-0.822401 -0.81016,-1.344156 -0.01451,-0.332937 0.130762,-0.651926 0.272182,-0.959325 1.00003,-2.156638 1.535929,-4.719836 2.535976,-6.876474 -0.554876,1.766115 -0.45362,3.987945 -0.620289,5.819251 0.50004,-0.761639 1.002159,-1.523063 1.502183,-2.284494 -0.111898,0.862698 -0.05498,1.744595 0.164589,2.590208 0.80384,-0.637161 1.438882,-1.449648 1.839745,-2.350532 -0.08013,1.284872 -0.01677,2.576279 0.187791,3.848698 0.561213,-0.884217 1.122409,-1.766112 1.685734,-2.6478 0.09077,0.797715 0.183534,1.592899 0.276357,2.389986 0.05256,0.03349 0.105448,0.04843 0.158172,0.04843 0.229955,0 0.455716,-0.2827 0.546444,-0.523236 0.58651,-1.53383 1.175165,-3.067443 1.761691,-4.601266 -0.0016,1.088655 0.09706,2.174991 0.295367,3.24888 0.643491,-0.305905 0.972621,-0.963543 1.238466,-1.582349 0.919865,-2.1347 1.647747,-4.339229 2.177309,-6.582583 -0.472582,2.768482 -0.706776,5.572201 -0.694119,8.375914 0.0048,0.711211 0.02096,1.434665 -0.189887,2.118875 -0.210993,0.68568 -0.692023,1.33909 -1.413568,1.605344 -0.113994,0.04186 -0.229954,0.0717 -0.346028,0.09724 -0.04418,0.004 -0.08868,0.0084 -0.130762,0.01258 -0.430434,0.04186 -0.860804,0.09706 -1.291206,0.158252 -1.470532,0.153996 -2.938952,0.309732 -4.409485,0.46397"
         style="fill:#ab865c;fill-opacity:1;fill-rule:nonzero;stroke:none;stroke-width:0.21098"
         id="path2180" />
      <path
         d="m 84.187378,80.547003 c -0.540107,0 -1.069669,-0.0717 -1.538042,-0.310749 -0.160268,-0.08163 -0.308056,-0.181211 -0.449379,-0.288442 0.07385,-0.0042 0.147692,-0.0066 0.221521,-0.0066 0.886119,0 1.820752,0.242213 2.715319,0.35674 0.383999,0.04784 0.770077,0.0692 1.154059,0.07344 -0.303816,0.03229 -0.609744,0.06351 -0.913544,0.09724 -0.390303,0.04007 -0.793295,0.07828 -1.189934,0.07828 m 6.512963,-0.639481 c 0.430418,-0.06119 0.860788,-0.116267 1.29119,-0.158253 0.04241,-0.0042 0.08642,-0.0084 0.130762,-0.01258 -0.210993,0.04366 -0.428257,0.06753 -0.641379,0.08821 -0.261588,0.02751 -0.521145,0.05501 -0.780621,0.08247"
         style="fill:#634e42;fill-opacity:1;fill-rule:nonzero;stroke:none;stroke-width:0.21098"
         id="path2182" />
      <path
         d="m 137.44932,233.28164 c -0.002,0 -0.006,0 -0.0113,0 0.005,0 0.008,0 0.0113,0 v 0 m 0.005,0 c 3.86728,0 7.73664,-0.21099 11.5807,-0.63294 -3.84406,0.42198 -7.71131,0.63294 -11.5807,0.63294 m 11.70306,-0.64602 c 0.005,0 0.006,-0.002 0.0113,-0.002 -0.005,0 -0.006,0.002 -0.0113,0.002 m 0.17093,-0.0192 c 0.04,-0.003 0.0801,-0.01 0.12028,-0.0145 v 0 0 0 c -0.0402,0.005 -0.0801,0.0113 -0.12028,0.0145"
         style="fill:#d0cac6;fill-opacity:1;fill-rule:nonzero;stroke:none;stroke-width:0.21098"
         id="path2184" />
      <path
         d="m 137.44932,233.28164 c -0.002,0 -0.006,0 -0.0113,0 -12.21784,-0.002 -24.43782,-2.09904 -35.92358,-6.25598 v 0 c -10.114395,-3.65587 -20.338484,-9.59306 -24.499017,-19.49668 -0.341787,-0.81185 -0.643488,-1.664 -0.645599,-2.53177 0,-0.0651 0.0021,-0.13028 0.0066,-0.19788 0.0066,-0.19856 0.0317,-0.39053 0.0717,-0.576 0.327017,0.52916 0.65615,1.06567 0.983166,1.59312 0.0717,-0.85723 0.1519,-1.72013 0.223611,-2.58451 0.185637,0.20022 0.369239,0.39221 0.567554,0.58417 v 0.008 0.0406 l 0.01675,-0.0323 v 0 c 2.951603,3.04696 6.36949,5.66523 10.089064,7.72882 -0.415649,-0.86522 -0.824929,-1.72812 -1.232114,-2.59357 3.713238,2.16086 7.544645,4.11243 11.481532,5.83423 -1.784893,-2.74528 -3.569786,-5.49878 -5.352567,-8.24151 6.673312,5.54476 14.44159,9.77681 22.71412,12.37609 -0.80805,-1.03085 -1.6161,-2.06275 -2.42414,-3.09466 2.46424,1.45555 5.0403,2.7362 7.68811,3.82317 -0.95153,-1.10342 -1.6794,-2.41634 -2.10348,-3.81641 2.57608,1.44057 5.33569,2.544 8.19236,3.26513 -0.69623,-2.4172 -1.39246,-4.84179 -2.08871,-7.25729 2.90521,2.85644 6.55305,4.94557 10.4815,6.01693 0.2321,-4.68186 0.45572,-9.36139 0.6878,-14.04093 0.67303,3.0552 2.29546,5.8952 4.57615,8.03222 0.13705,-3.06343 0.34389,-6.12011 0.6245,-9.17764 1.96845,3.48117 3.93689,6.95412 5.90533,10.42705 1.8714,-4.62509 3.30396,-9.43311 4.28712,-14.33019 0.2089,4.14366 0.80805,8.26453 1.79334,12.29614 2.43259,-2.15178 4.24069,-4.99178 5.15212,-8.11197 0.28062,1.76781 0.55913,3.52737 0.84815,5.29496 0.76796,-2.33554 2.43893,-4.36708 4.59937,-5.55869 0.0801,2.31172 0.50422,4.62427 1.249,6.81635 3.57612,-4.08015 6.67331,-8.58499 9.1924,-13.40125 -0.24682,1.89629 -0.12028,3.83963 0.37558,5.68824 2.74485,-5.50447 4.23226,-11.62544 4.3061,-17.76938 1.3123,3.9122 1.96634,8.04931 1.94312,12.17588 2.29548,-5.32726 3.57612,-11.10368 3.73647,-16.90395 0.2553,3.45649 0.51265,6.91214 0.76796,10.36778 0.9684,-2.85646 1.6562,-5.81694 2.05706,-8.81666 0.8397,4.00864 3.78288,7.35287 4.59093,11.37795 0.16668,0.81671 0.24054,1.63764 0.24054,2.46004 0.002,3.22166 -1.12452,6.45219 -2.24061,9.52386 -2.03174,5.62471 -4.18373,11.40114 -8.16704,15.86549 0.0466,-0.81418 -0.0484,-1.54438 -0.0484,-2.37523 l -0.0718,-0.24956 c -0.12867,-0.2424 -0.43676,-0.35189 -0.8861,-0.35189 -4.34198,0 -22.13604,10.28528 -24.78174,11.93936 -2.23218,1.39036 -4.56772,2.56804 -6.97499,3.55037 v 0 c -0.0401,0.005 -0.0801,0.0113 -0.12029,0.0145 -0.055,0.006 -0.10544,0.0113 -0.16026,0.0174 -0.005,0 -0.006,0.002 -0.0113,0.002 -0.04,0.005 -0.0822,0.01 -0.12238,0.0129 -3.84406,0.42198 -7.71344,0.63294 -11.58071,0.63294 0,0 -0.002,0 -0.005,0"
         style="fill:#ab865c;fill-opacity:1;fill-rule:nonzero;stroke:none;stroke-width:0.21098"
         id="path2186" />
      <path
         d="m 84.497515,253.09244 c 1.063348,-0.08 2.095029,-0.59914 2.799709,-1.41586 v 0 0 c -5.192219,0.33539 -10.392878,0.66507 -15.593537,0.99226 0.719441,-1.00872 1.759571,-1.77689 2.93684,-2.16912 v 0 0 c -10.890796,-1.59057 -18.562028,0 -32.579551,-2.66277 0.852359,-0.66438 1.932575,-1.02937 3.012799,-1.02937 0.23629,0 0.472581,0.0168 0.70678,0.0526 v 0 0 c -2.576064,-1.11186 -5.152134,-2.2153 -7.728203,-3.32948 0.719441,-0.12625 1.432555,-0.2555 2.152001,-0.3751 v 0 0 c -3.63941,-1.36146 -7.28093,-2.71953 -10.920333,-4.08035 0.822821,-0.055 1.647753,-0.11206 2.464245,-0.16729 v 0 0 c -4.776591,-1.40091 -9.281013,-3.72168 -13.201023,-6.79335 1.06334,0 2.12668,0.008 3.19213,0.008 v 0 0 c -1.489525,-1.84776 -2.976933,-3.69614 -4.464341,-5.54392 0.968399,0.50362 1.934687,1.00785 2.903085,1.51062 v 0 0 c -2.05495,-2.69484 -3.504381,-5.849 -4.223822,-9.16118 0.04665,-0.002 0.09497,-0.003 0.143467,-0.003 0.839697,0 1.673074,0.46223 2.105581,1.18992 v 0 0 c -0.139226,-0.80594 -0.206747,-1.62265 -0.208901,-2.43682 0,-0.22762 0.0066,-0.45589 0.01675,-0.68337 3.126727,4.91121 7.384304,9.10359 12.384538,12.0803 -0.335449,-1.53614 -0.664589,-3.07989 -1.000049,-4.62427 1.664636,2.66449 3.808193,5.02555 6.304088,6.9286 -0.799617,-2.54505 -1.599232,-5.08906 -2.400953,-7.63981 4.504421,7.40731 11.610236,13.18373 19.770944,16.08894 -0.312244,-0.95365 -0.632938,-1.90474 -0.945188,-2.85647 l 10.825393,6.74461 c 0.09706,-1.11165 -0.447285,-2.2482 -1.358714,-2.88113 6.031919,3.0651 12.625052,5.0422 19.344764,5.79287 -0.776398,-1.00785 -1.559148,-2.0233 -2.343986,-3.03115 5.839926,1.8081 11.840209,3.13495 17.905888,3.94279 -1.183597,-1.15216 -2.369307,-2.30347 -3.552905,-3.45563 5.673249,1.16038 11.441449,1.83933 17.226529,2.01654 -0.93676,-0.81585 -1.86507,-1.63256 -2.80182,-2.44926 6.00872,0.169 12.0111,0.33777 18.01138,0.49602 -0.92831,-0.72767 -1.85663,-1.45618 -2.78494,-2.19209 5.32092,0.48125 10.64183,0.95341 15.95432,1.43235 -0.66458,-0.52742 -1.33761,-1.06314 -2.0001,-1.59311 0.75109,0.0864 1.5043,0.12706 2.2596,0.12706 5.09938,0 10.19455,-1.89882 14.0133,-5.28527 2.47269,-0.28927 4.93693,-0.58441 7.40118,-0.87367 0.27852,-0.68736 0.55063,-1.37537 0.83126,-2.05451 0.711,0.0784 1.42412,0.16643 2.13512,0.25548 1.00215,-1.17768 1.99377,-2.35285 2.99382,-3.53645 0.21099,0.0651 0.43041,0.0972 0.64981,0.0972 0.47258,0 0.94308,-0.14753 1.32495,-0.426 0.0335,-0.27868 0.0335,-0.56797 -0.006,-0.84813 -3.7681,1.12008 -7.61849,1.99355 -11.44988,2.84824 -4.12889,0.91965 -8.2894,1.83299 -12.49002,2.2887 1.77646,-0.49536 3.52125,-1.09688 5.23441,-1.7851 v 0 0 0 c 2.40727,-0.98233 4.74284,-2.16002 6.975,-3.55037 2.64569,-1.65408 20.43976,-11.93938 24.78173,-11.93938 0.44938,0 0.75742,0.10948 0.88612,0.3519 l 0.0718,0.24957 c 0,0.83084 0.095,1.56104 0.0484,2.37521 v 0 0.008 c -0.0402,1.02621 -0.31223,2.16931 -1.28909,3.7681 -1.32705,2.18386 -3.96853,5.22408 -9.16076,9.98612 -3.07186,2.81679 -8.11218,4.98357 -12.07227,6.2889 -9.58483,3.15246 -19.18653,6.31948 -29.0604,8.4162 -15.13573,3.21576 -30.674414,3.88004 -46.130821,4.53605"
         style="fill:#ab865c;fill-opacity:1;fill-rule:nonzero;stroke:none;stroke-width:0.21098"
         id="path2188" />
      <path
         d="m 78.239849,203.83261 v 0 l -0.01675,-0.008 v -0.008 c 0.07386,-0.94264 0.137131,-1.89711 0.200408,-2.84 0.86502,-0.91143 1.824987,-1.79985 2.529651,-2.80771 1.310184,-1.89313 1.624545,-4.1042 1.624545,-6.42014 0.0016,-2.11886 -0.259493,-4.32509 -0.261589,-6.46041 0,-0.43018 0.01129,-0.85869 0.03596,-1.28065 0.337546,-5.60174 3.26597,-10.32157 6.593129,-14.96314 v 0 l 0.0081,-0.008 c 0.936762,-0.52748 1.936809,-0.91988 2.96849,-1.23213 2.639361,-0.80763 5.487603,-1.12008 8.112197,-2.03153 4.32087,-1.51315 7.88011,-4.58459 11.32962,-7.58452 l 0.0718,-0.0635 c 3.52759,-3.07166 7.11213,-6.23214 9.43293,-10.30426 1.54437,-2.70476 2.46424,-5.72199 3.31239,-8.72193 1.02324,-3.63349 1.95156,-7.38431 2.0887,-11.1292 v 0 c 1.2722,4.06559 2.152,8.24067 2.63937,12.47336 -0.12867,-0.15237 -0.28905,-0.27278 -0.48102,-0.32702 -0.0864,2.27858 0,4.5673 0.23204,6.83956 -0.10336,-0.55889 -0.35022,-1.08887 -0.72788,-1.51232 -0.3038,3.28075 -0.39872,6.56992 -0.29536,9.85658 -0.33545,-0.62472 -0.67303,-1.2469 -1.0085,-1.86254 -0.55068,2.0463 -1.10341,4.09428 -1.64775,6.14312 -0.17511,-0.8876 -0.34388,-1.77604 -0.52114,-2.66426 -0.81438,2.84823 -1.62243,5.68971 -2.4305,8.53794 -0.28059,-1.15364 -0.75319,-2.25728 -1.38403,-3.2569 -1.00848,2.16001 -2.00852,4.32087 -3.01702,6.48933 -0.3523,-0.50446 -0.70466,-1.00808 -1.06333,-1.50408 -0.95363,1.39858 -1.63299,2.99972 -1.96844,4.6711 -0.36923,-0.90321 -0.42409,-1.92836 -0.1456,-2.85646 -1.6794,3.25711 -3.35036,6.51233 -5.03187,9.77027 -0.23839,-1.85683 -0.29538,-3.72844 -0.18355,-5.5935 -0.65615,1.00871 -1.47263,1.91211 -2.41573,2.66532 -0.16876,-0.88022 -0.34386,-1.76211 -0.52113,-2.63325 -0.71101,0.3034 -1.06335,1.08887 -1.35871,1.80832 -0.28905,0.71289 -0.64983,1.49585 -1.36083,1.79902 -0.12447,0.0526 -0.2574,0.0784 -0.39245,0.0784 -0.64349,0 -1.31863,-0.54645 -1.08866,-1.14139 -0.81438,1.8081 -1.63086,3.6164 -2.447366,5.4245 -0.09706,-0.63126 -0.200416,-1.26419 -0.295383,-1.89713 -1.616112,1.2412 -2.985356,2.80856 -4.000189,4.57638 -0.696231,-0.46225 -1.097094,-1.31864 -1.008479,-2.1518 -0.352316,1.52138 -0.704664,3.03369 -1.057012,4.55253 -0.447283,-0.49536 -0.902999,-0.98317 -1.352379,-1.47265 -1.094983,1.78511 -1.991662,3.69048 -2.679444,5.67327 -1.616112,2.78557 -3.232223,5.56798 -4.848335,8.35269 -0.0081,-0.71035 -0.01677,-1.43888 -0.02515,-2.16001 -0.48735,0.3519 -0.98315,0.69646 -1.455763,1.06567 -2.054931,1.59058 -3.679493,3.72759 -4.687979,6.11989"
         style="fill:#ab865c;fill-opacity:1;fill-rule:nonzero;stroke:none;stroke-width:0.21098"
         id="path2190" />
      <path
         d="m 78.222972,203.86489 v -0.0406 l 0.01675,0.008 v 0 0 l -0.01675,0.0322"
         style="fill:#957554;fill-opacity:1;fill-rule:nonzero;stroke:none;stroke-width:0.21098"
         id="path2192" />
      <path
         d="m 128.72317,147.57264 c -0.0234,-0.20674 -0.04,-0.41521 -0.0611,-0.62217 0.04,0.20699 0.0632,0.41373 0.0611,0.62217"
         style="fill:#ab865c;fill-opacity:1;fill-rule:nonzero;stroke:none;stroke-width:0.21098"
         id="path2194" />
      <path
         d="m 129.05864,141.73293 c -0.0401,-0.43017 -0.10126,-0.8589 -0.14979,-1.28909 0.29748,0.35273 0.39454,0.89013 0.14979,1.28909"
         style="fill:#ab865c;fill-opacity:1;fill-rule:nonzero;stroke:none;stroke-width:0.21098"
         id="path2196" />
      <path
         d="m 126.26947,127.96881 c -0.13705,3.74488 -1.06544,7.49569 -2.08869,11.12918 -0.84815,2.99993 -1.76803,6.01716 -3.31239,8.72192 -2.32079,4.07213 -5.90535,7.23262 -9.43292,10.30427 l -0.0717,0.0635 c -3.44954,2.99993 -7.00876,6.07138 -11.32963,7.58453 -2.62461,0.91143 -5.472836,1.22389 -8.112196,2.03152 -1.031698,0.31225 -2.031745,0.70468 -2.968491,1.23213 l -0.0081,0.008 -0.18355,0.0972 c -3.721687,2.18383 -5.873681,6.27243 -7.352662,10.32155 -0.647699,1.7678 -1.208911,3.58414 -1.839745,5.36671 l -0.06546,0.1772 c -0.782726,2.23259 -1.670954,4.4249 -2.951605,6.40767 -3.303947,5.1378 -9.200844,8.51348 -15.304498,8.76223 -1.000049,0.0395 -2.073938,-0.0335 -2.985372,-0.4013 l -0.335449,-0.15994 c -0.329109,-0.16902 -0.632944,-0.38402 -0.896668,-0.66502 -1.016925,-1.06312 -1.143509,-2.7362 -0.727879,-4.15209 0.407214,-1.41505 1.263771,-2.65624 2.031739,-3.91136 0.919873,-1.49585 1.736365,-3.06575 2.44104,-4.68186 1.120304,-2.56721 1.951564,-5.26395 2.479018,-8.02314 l 0.08863,-0.51247 c 0.687799,-3.82572 0.896668,-7.81704 2.656246,-11.27269 3.048657,-5.99225 9.945601,-8.92043 14.42471,-13.89747 0.544347,-0.6074 1.057012,-1.24035 1.52116,-1.92034 0.432515,-0.63862 0.822833,-1.29541 1.175165,-1.98531 1.249011,-2.40729 2.057059,-5.05446 3.033904,-7.60752 0.662469,-1.73659 1.415664,-3.43266 2.24693,-5.08927 0.33545,-0.66417 0.67935,-1.33508 1.057011,-1.9828 l 0.0081,-0.0172 c 0.166686,-0.33545 0.358653,-0.66418 0.5507,-0.9914 2.008527,-3.48708 4.392603,-6.75959 7.088929,-9.75383 1.664627,-1.86253 3.464293,-3.61536 5.369433,-5.24074 1.61611,-1.37539 3.43054,-2.68747 5.35257,-3.68794 0.27218,-0.1435 0.53586,-0.27194 0.80806,-0.39812 1.69628,-0.80194 3.44741,-1.33761 5.21542,-1.47265 0.71311,-0.0661 1.43256,-0.0567 2.14356,0.0311 l 0.32912,0.0484 c 0.59918,0.0864 1.20046,0.2323 1.79964,0.43845 1.0085,0.35272 1.92836,0.86522 2.75963,1.49585 2.59294,1.9944 4.31243,5.16985 4.98546,8.42675 0.3523,1.71083 0.46415,3.4392 0.40087,5.17556"
         style="fill:#ca9e67;fill-opacity:1;fill-rule:nonzero;stroke:none;stroke-width:0.21098"
         id="path2198" />
      <path
         d="m 79.503616,185.00685 c -0.782729,2.23259 -1.670958,4.42489 -2.951607,6.40767 -3.303949,5.1378 -9.200846,8.51348 -15.304499,8.76223 -1.000049,0.0395 -2.073939,-0.0335 -2.985373,-0.4013 l -0.335448,-0.15994 c -0.329109,-0.16901 -0.632945,-0.384 -0.896668,-0.665 -1.016925,-1.06312 -1.14351,-2.7362 -0.72788,-4.15209 0.407215,-1.41505 1.263772,-2.65624 2.03174,-3.91136 0.919873,-1.49585 1.736366,-3.06575 2.441041,-4.68186 -0.111833,0.93695 -0.223613,1.87392 -0.337542,2.81025 0.784849,-1.28064 1.578133,-2.56066 2.360872,-3.84132 -0.0317,0.77641 -0.0717,1.56084 -0.103401,2.33725 1.246889,-0.78463 2.31234,-1.8733 3.054991,-3.14572 -0.158253,1.73636 -0.462056,3.47295 -0.911434,5.16079 1.208912,-1.28066 2.415719,-2.55329 3.633076,-3.8314 -0.2089,1.6391 -0.535856,3.25521 -0.985276,4.84009 1.016925,-0.80848 2.040177,-1.61611 3.065541,-2.42459 0.01499,0.4245 0.0317,0.84794 0.04844,1.27244 1.054901,-0.70468 2.014861,-1.5526 2.839792,-2.51279 0.01499,0.55297 0.04007,1.0969 0.05503,1.64755 1.529607,-1.3583 2.928407,-2.87967 4.168968,-4.51877 -0.232105,1.15132 -0.464149,2.30347 -0.696236,3.4472 0.808054,-1.10342 1.616109,-2.20685 2.432605,-3.32124 0.04837,0.29746 0.08013,0.58441 0.103352,0.88189"
         style="fill:#ededed;fill-opacity:1;fill-rule:nonzero;stroke:none;stroke-width:0.21098"
         id="path2200" />
      <path
         d="m 61.133581,184.43065 c 0.145563,-0.60065 0.297471,-1.20805 0.464148,-1.80154 -0.111833,0.60993 -0.263741,1.20912 -0.464148,1.80154"
         style="fill:#ffffff;fill-opacity:1;fill-rule:nonzero;stroke:none;stroke-width:0.21098"
         id="path2202" />
      <path
         d="m 63.342541,177.6696 c 0.687797,-3.8257 0.896668,-7.81704 2.656244,-11.27267 3.048658,-5.99227 9.9456,-8.92045 14.424711,-13.89747 0.544348,-0.60742 1.057012,-1.24035 1.521161,-1.92034 0.432514,-0.63864 0.822817,-1.29542 1.175165,-1.98533 1.249011,-2.40727 2.057058,-5.05446 3.033888,-7.60752 0.662484,-1.73657 1.41568,-3.43264 2.246945,-5.08926 0.335451,-0.66416 0.67935,-1.33509 1.057012,-1.98279 l 0.0081,-0.0174 c 0.166685,-0.33545 0.358652,-0.66416 0.550683,-0.99141 2.008543,-3.48707 4.39262,-6.75959 7.088945,-9.75381 1.664628,-1.86255 3.464295,-3.61537 5.369435,-5.24075 1.61611,-1.37537 3.43054,-2.68746 5.35257,-3.68793 0.27218,-0.14349 0.53586,-0.27193 0.80806,-0.39813 0.6477,4.696 -3.17737,8.9289 -6.74504,12.25585 0.20675,-0.2555 0.16668,-0.70301 -0.12029,-0.88844 -1.793324,2.91995 -3.584554,5.84161 -5.375767,8.76221 0.183534,-0.61627 0.367085,-1.23192 0.550619,-1.85663 -4.495988,5.26375 -7.040413,12.16912 -7.031964,19.0977 -0.784846,-0.93695 -1.56758,-1.87328 -2.352426,-2.80856 -0.865029,2.26381 -1.968444,4.43291 -3.295509,6.45621 -0.05675,-0.91967 -0.120281,-1.84776 -0.177198,-2.76827 -1.768028,3.64847 -3.536023,7.29612 -5.304045,10.94628 0.286948,-0.99394 0.111833,-2.11233 -0.464148,-2.97757 -1.232123,1.71337 -2.55286,3.36155 -3.95166,4.93735 0.06327,-1.35238 0.504219,-2.68176 1.263772,-3.80185 -5.352566,4.38628 -9.593271,10.11396 -12.289596,16.49041"
         style="fill:#d5b185;fill-opacity:1;fill-rule:nonzero;stroke:none;stroke-width:0.21098"
         id="path2204" />
      <path
         d="m 187.85036,169.22133 c -0.92832,-3.24066 -2.0233,-6.42584 -3.27231,-9.54602 -0.1119,0.67239 -0.22362,1.34563 -0.32912,2.01654 -0.67935,-4.71983 -2.30389,-9.30443 -4.74282,-13.40124 -0.0567,1.00785 -0.10545,2.01655 -0.15188,3.02524 -3.51282,-7.25813 -8.50463,-13.78521 -14.57874,-19.07471 -0.12028,0.83991 -0.2321,1.68785 -0.35232,2.52945 -0.59918,-0.7129 -1.20679,-1.42411 -1.80809,-2.13703 0.26583,1.94335 0.32068,3.9196 0.1772,5.88846 -1.71948,-3.48771 -4.28079,-6.56189 -7.39273,-8.88838 -0.8798,1.15132 -1.49586,2.5037 -1.78489,3.92781 -0.53592,-1.16038 -1.28067,-2.22352 -2.18364,-3.1284 -0.38402,1.00869 -0.75954,2.00853 -1.13509,3.00815 -0.0484,-1.47201 -0.35231,-2.92819 -0.88189,-4.29555 -1.3756,4.8403 -1.56758,10.00108 -0.55063,14.92937 -4.78502,-6.04015 -1.82498,-15.03487 -4.08036,-22.40186 -0.39245,0.90256 -0.78485,1.79922 -1.17726,2.69589 0.19197,-6.28087 -1.73638,-12.6012 -5.4011,-17.70503 -0.23839,0.47869 -0.47048,0.96017 -0.711,1.44712 -0.66458,-1.63256 -1.55915,-3.16872 -2.64779,-4.56161 -0.0318,0.82493 -0.0718,1.64987 -0.1119,2.46426 -1.89671,-3.51009 -4.23226,-7.25498 -7.44126,-9.367312 0.11399,-0.0015 0.22786,-0.004 0.34179,-0.004 0.9494,0 1.90093,0.09073 2.85033,0.275942 1.48742,0.286946 2.91998,0.808473 4.28079,1.495846 1.1836,0.584419 2.32079,1.29563 3.38412,2.080264 2.79126,2.05537 5.18379,4.63988 7.03197,7.5763 1.33761,2.12057 2.38407,4.42467 3.90525,6.4102 2.87142,3.74238 7.16909,6.05493 11.18405,8.53647 10.60175,6.5674 20.33847,15.50451 24.69101,27.19239 2.14354,5.7665 2.89042,11.93113 2.89253,18.10061 0,0.3034 0,0.60741 -0.005,0.91081 v 0"
         style="fill:#d5b185;fill-opacity:1;fill-rule:nonzero;stroke:none;stroke-width:0.21098"
         id="path2206" />
      <path
         d="M 110.09996,112.95714 C 107.29181,103.5643 102.59962,94.536674 96.529714,86.844128 l 0.164589,-0.132535 c 6.086787,7.713011 10.793747,16.768707 13.608227,26.182857 l -0.20256,0.0627"
         style="fill:#7b6a58;fill-opacity:1;fill-rule:nonzero;stroke:none;stroke-width:0.21098"
         id="path2208" />
      <path
         d="m 122.19757,109.61521 c -7.0805,-8.80335 -15.20324,-16.776925 -24.138247,-23.694753 l 0.128666,-0.165002 c 8.949781,6.9269 17.080971,14.910395 24.174121,23.727035 l -0.16459,0.1327"
         style="fill:#7b6a58;fill-opacity:1;fill-rule:nonzero;stroke:none;stroke-width:0.21098"
         id="path2210" />
      <path
         d="M 128.11556,97.52183 C 119.7755,91.41649 109.96914,87.344574 99.755601,85.747243 l 0.03176,-0.208482 c 10.247309,1.601344 20.085299,5.687392 28.452779,11.814891 l -0.12447,0.168173"
         style="fill:#7b6a58;fill-opacity:1;fill-rule:nonzero;stroke:none;stroke-width:0.21098"
         id="path2212" />
      <path
         d="m 65.450232,113.84959 -0.206747,-0.0527 C 67.827993,103.76708 73.623613,94.577214 81.56069,87.91805 l 0.134955,0.162432 C 73.792333,94.709897 68.022022,103.862 65.450174,113.84959"
         style="fill:#7b6a58;fill-opacity:1;fill-rule:nonzero;stroke:none;stroke-width:0.21098"
         id="path2214" />
      <path
         d="m 58.236822,108.21915 -0.179357,-0.10964 C 63.517633,99.315217 71.112917,91.884708 80.018392,86.623497 l 0.107544,0.181209 C 71.247885,92.04946 63.677916,99.454444 58.236738,108.21918"
         style="fill:#7b6a58;fill-opacity:1;fill-rule:nonzero;stroke:none;stroke-width:0.21098"
         id="path2216" />
      <path
         d="m 46.959935,104.4405 -0.1519,-0.14753 C 55.673419,95.196775 66.865916,88.711671 79.170277,85.538736 l 0.05263,0.206748 C 66.956519,88.905339 55.799889,95.372298 46.95982,104.44043"
         style="fill:#7b6a58;fill-opacity:1;fill-rule:nonzero;stroke:none;stroke-width:0.21098"
         id="path2218" />
      <path
         d="m 44.915535,92.300072 -0.06327,-0.201903 C 55.93927,88.621006 67.387052,86.051478 78.877031,84.455835 l 0.0293,0.209319 C 67.426902,86.258263 55.991782,88.825469 44.91532,92.300102"
         style="fill:#7b6a58;fill-opacity:1;fill-rule:nonzero;stroke:none;stroke-width:0.21098"
         id="path2220" />
      <path
         d="m 136.70667,90.065791 c -12.1609,-4.329314 -25.41256,-6.386368 -38.307672,-5.953645 l -0.0081,-0.210993 c 1.128745,-0.03768 2.261692,-0.05682 3.392552,-0.05682 11.84231,0 23.87029,2.063596 34.99317,6.023485 l -0.0696,0.197896"
         style="fill:#7b6a58;fill-opacity:1;fill-rule:nonzero;stroke:none;stroke-width:0.21098"
         id="path2222" />
    </g>
  </g>
</svg>
