<?xml version="1.0" encoding="UTF-8" standalone="no"?>
<!-- Created with Inkscape (http://www.inkscape.org/) -->

<svg
   width="210mm"
   height="200mm"
   viewBox="0 0 210 200"
   version="1.1"
   id="svg6621"
   inkscape:version="1.2.1 (9c6d41e410, 2022-07-14)"
   sodipodi:docname="sphynx.svg"
   xmlns:inkscape="http://www.inkscape.org/namespaces/inkscape"
   xmlns:sodipodi="http://sodipodi.sourceforge.net/DTD/sodipodi-0.dtd"
   xmlns="http://www.w3.org/2000/svg"
   xmlns:svg="http://www.w3.org/2000/svg">
  <sodipodi:namedview
     id="namedview6623"
     pagecolor="#ffffff"
     bordercolor="#000000"
     borderopacity="0.25"
     inkscape:showpageshadow="2"
     inkscape:pageopacity="0.0"
     inkscape:pagecheckerboard="0"
     inkscape:deskcolor="#d1d1d1"
     inkscape:document-units="mm"
     showgrid="false"
     inkscape:zoom="0.24542999"
     inkscape:cx="-91.675836"
     inkscape:cy="700.81084"
     inkscape:window-width="1366"
     inkscape:window-height="705"
     inkscape:window-x="-8"
     inkscape:window-y="-8"
     inkscape:window-maximized="1"
     inkscape:current-layer="layer1" />
  <defs
     id="defs6618" />
  <g
     inkscape:label="Layer 1"
     inkscape:groupmode="layer"
     id="layer1">
    <g
       id="g7046"
       transform="matrix(3.6126479,0,0,3.6126479,-247.31406,-484.31225)">
      <path
         d="m 100.19229,171.44343 c 0.0205,0.76303 -0.679807,1.33809 -1.354318,1.6975 -0.317147,0.16933 -0.643114,0.31902 -0.978606,0.44993 -0.497769,0.19318 -1.011766,0.34421 -1.537053,0.44937 -0.07197,0.0147 -0.145697,0.0296 -0.219427,0.0461 -0.173214,0.0389 -0.3429,0.0939 -0.480836,0.20285 -0.381706,0.29849 -0.377825,0.86611 -0.339373,1.34913 0.05927,0.71684 0.116417,1.43535 0.173214,2.15441 0.01482,0.17667 0.02787,0.36298 -0.04974,0.5231 -0.127,0.25823 -0.438503,0.35775 -0.716845,0.4258 -0.252236,0.0629 -0.504825,0.12171 -0.757414,0.1771 -1.868664,0.40887 -3.774369,0.64491 -5.685366,0.70376 -0.595489,0.0185 -1.192389,0.0205 -1.787878,0.004 -0.243064,-0.007 -0.486481,-0.0166 -0.727781,-0.037 -0.09948,-0.009 -0.201083,-0.0201 -0.300566,-0.0332 -0.152753,-0.0201 -0.313267,-0.0497 -0.433211,-0.14743 -0.235656,-0.18976 -0.215547,-0.58416 -0.01446,-0.8128 0.198967,-0.22832 0.519642,-0.31333 0.823736,-0.31679 0.30233,-0.004 0.60078,0.0588 0.904875,0.0755 0.230364,0.0109 0.458964,-0.006 0.687211,-0.0389 0.06279,-0.009 0.127353,-0.0183 0.191911,-0.0314 h 0.0056 c 0.209902,-0.0366 0.418041,-0.0828 0.626533,-0.12869 1.177572,-0.26529 2.364317,-0.53277 3.466394,-1.02306 -0.423686,-1.02828 -0.847725,-2.05673 -1.271411,-3.08501 -0.201083,-0.48824 -0.405694,-1.03187 -0.234244,-1.5314 0.180622,-0.53457 0.726016,-0.84036 1.22555,-1.10039 0.670983,-0.34643 1.34373,-0.69285 2.027414,-1.01533 0.972961,-0.45713 1.986491,-0.86811 3.057524,-0.97501 0.473428,-0.048 0.962025,-0.0296 1.430162,0.0681 0.587727,0.11818 1.142647,0.36124 1.59773,0.75036 0.359481,0.30579 0.657935,0.72774 0.670635,1.19944"
         style="fill:#b0a28b;fill-opacity:1;fill-rule:nonzero;stroke:none;stroke-width:0.0352778"
         id="path836" />
      <path
         d="m 82.421811,178.68282 c 0.355247,-0.78038 0.08961,-1.98589 0.06562,-2.843 -0.05856,-2.10785 -0.263525,-4.22921 0.03175,-6.31761 0.164747,-1.16488 0.484364,-2.30894 0.5588,-3.48333 0.06914,-1.09467 -0.07867,-2.20239 -0.432153,-3.24062 -0.328436,-0.96449 -0.881239,-1.91523 -1.781175,-2.39289 -0.639586,-0.33937 -1.420283,-0.40217 -2.106436,-0.16969 -0.265995,0.0903 -0.534811,0.2406 -0.650522,0.49636 -0.07937,0.17498 -0.0755,0.375 -0.05962,0.56656 0.145697,1.76424 1.168047,3.32493 1.655586,5.02673 0.173214,0.60396 0.278342,1.22485 0.373945,1.84609 0.363008,2.3526 0.674158,4.64855 0.869597,7.06854 0.06421,0.79029 0.28575,2.01259 -0.253295,2.59443 -0.148166,0.1597 -0.552802,0.29669 -0.630413,0.50049 -0.1397,0.36629 0.162277,0.7808 0.532694,0.90812 0.370769,0.1276 0.776817,0.0497 1.160639,-0.0293 0.156633,-0.0321 0.480483,-0.12623 0.664986,-0.53083"
         style="fill:#b0a28b;fill-opacity:1;fill-rule:nonzero;stroke:none;stroke-width:0.0352778"
         id="path838" />
      <path
         d="m 102.47405,170.73403 c -0.006,0.0681 -0.0201,0.13642 -0.0388,0.20285 -0.0349,0.14344 -0.0882,0.2836 -0.15487,0.41617 -0.0183,0.0371 -0.0367,0.0737 -0.0568,0.11081 -0.0462,0.0829 -0.096,0.16577 -0.15134,0.24349 v 0.002 c -0.0794,0.1196 -0.16757,0.234 -0.26176,0.34259 -0.16016,0.1881 -0.34079,0.35771 -0.53622,0.51262 -0.87525,0.69631 -2.049291,1.06895 -3.179238,1.24036 -0.429331,0.0642 -0.862542,0.10693 -1.2954,0.12693 -0.280106,0.0131 -0.561975,0.0185 -0.844197,0.0131 l -0.0018,-0.002 c -1.315861,-0.0239 -2.629959,-0.24694 -3.885142,-0.65236 -0.646642,-0.20806 -1.278819,-0.46633 -1.887008,-0.77046 -0.805392,-0.39963 -1.571978,-0.88262 -2.277886,-1.44099 -0.2413,-0.18811 -0.475545,-0.38711 -0.700264,-0.59341 -0.103364,-0.092 -0.204611,-0.1881 -0.304095,-0.28575 -0.64135,-0.62477 -1.218141,-1.3141 -1.837619,-1.96286 -0.932392,-0.97296 -1.962503,-1.85384 -3.071989,-2.62043 -0.206375,-0.14393 -0.41663,-0.28399 -0.62865,-0.41839 -1.505655,-0.96027 -3.297061,-1.91488 -3.720747,-3.64914 -0.249061,-1.01741 0.04798,-2.07504 0.267053,-3.09986 0.298803,-1.39135 0.453319,-2.8141 0.460728,-4.23862 0.0056,-0.75212 -0.02928,-1.50213 -0.105128,-2.25037 -0.02575,-0.24518 -0.01094,-0.3556 0.06668,-0.53834 1.411464,-0.21731 2.39395,-0.031 3.748264,0.42404 0.05539,0.27093 0.112536,0.54187 0.167922,0.8128 0.07902,0.38523 0.158397,0.76835 0.237772,1.15182 0.06985,0.33902 0.140053,0.67627 0.209903,1.01353 0.112536,0.5528 0.282222,1.17757 0.787047,1.42452 0.129117,0.0628 0.265289,0.0942 0.405342,0.10512 0.24765,0.0173 0.508353,-0.0286 0.76835,-0.0748 0.431094,-0.0762 0.860072,-0.15275 1.222022,0.06 0.226836,0.13299 0.379942,0.35948 0.545747,0.56409 1.055864,1.29187 2.775303,1.8041 4.397375,2.20239 1.621719,0.3997 3.344686,0.80716 4.531783,1.9812 0.377825,0.37571 0.685447,0.81456 0.99307,1.24742 1.760008,2.47721 3.636433,4.87116 5.621165,7.17303 0.19156,0.22119 0.38876,0.45156 0.47554,0.73166 0.0497,0.16221 0.0572,0.32978 0.0332,0.49569"
         style="fill:#cbbba0;fill-opacity:1;fill-rule:nonzero;stroke:none;stroke-width:0.0352778"
         id="path840" />
      <path
         d="m 121.66657,151.4935 c -0.43321,0.98425 -1.26612,1.72861 -2.21897,2.25213 h -0.002 l -0.0127,0.007 c -0.12559,0.0699 -0.25435,0.13441 -0.38524,0.1972 l -0.007,0.004 c -0.14746,0.0684 -0.29669,0.13476 -0.44803,0.19367 -1.29011,0.514 -2.67582,0.72779 -4.02132,1.07245 -1.34514,0.34466 -2.6998,0.8516 -3.69323,1.8228 -0.66886,0.6544 -1.137,1.48555 -1.52223,2.33857 -1.37125,3.05011 -1.75437,6.46535 -3.05753,9.54475 -0.31891,0.75001 -0.70026,1.49285 -1.28093,2.06611 -0.79799,0.78673 -1.95721,1.18114 -3.07023,1.07612 -0.0444,-0.004 -0.0903,-0.009 -0.13652,-0.0166 -0.13794,-0.0165 -0.27623,-0.0423 -0.41275,-0.0772 l -0.0515,-0.0131 c 0.10689,-0.4681 0.21379,-0.93595 0.32068,-1.40614 l 0.0938,0.0371 c 0.12911,0.0479 0.26176,0.0846 0.3944,0.10679 0.10513,0.0201 0.21202,0.0314 0.31891,0.035 0.92499,0.0349 1.88172,-0.45695 2.51742,-1.16843 0.82198,-0.92146 1.22555,-2.13396 1.60726,-3.31012 0.27622,-0.85125 0.51788,-1.81504 0.76271,-2.77354 v -0.004 c 0.2233,-0.87736 0.44802,-1.75084 0.70061,-2.53048 0.57856,-1.78576 1.23296,-3.33763 2.65924,-4.55401 1.45591,-1.24213 3.30623,-1.78964 5.14174,-2.1029 1.11336,-0.18768 2.12866,-0.42016 3.20146,-0.774 1.07068,-0.3556 2.10079,-1.01353 2.60208,-2.02353"
         style="fill:#cbbba0;fill-opacity:1;fill-rule:nonzero;stroke:none;stroke-width:0.0352778"
         id="path842" />
      <path
         d="m 90.181864,172.52082 c -0.282575,-0.14073 -0.559859,-0.29105 -0.831498,-0.45159 0.271639,0.16012 0.548923,0.31048 0.831145,0.45046 3.53e-4,4.2e-4 3.53e-4,4.2e-4 3.53e-4,4.2e-4 0,2.8e-4 0,7.1e-4 0,7.1e-4 m -1.322917,-0.75601 c -0.328789,-0.21374 -0.647347,-0.44206 -0.955675,-0.68474 3.53e-4,-4.2e-4 3.53e-4,-7e-4 7.06e-4,-0.001 0.307269,0.2431 0.626533,0.47213 0.954969,0.68587"
         style="fill:#d5d3d1;fill-opacity:1;fill-rule:nonzero;stroke:none;stroke-width:0.0352778"
         id="path844" />
      <path
         d="m 92.068872,173.29058 c -0.0762,-0.0247 -0.1524,-0.0502 -0.228247,-0.0762 0.07585,0.026 0.151694,0.0511 0.227894,0.0758 v 0 c 3.53e-4,0 3.53e-4,0 3.53e-4,4.3e-4 m -1.049161,-0.38696 c -0.283633,-0.11822 -0.563033,-0.24557 -0.837847,-0.3828 0,0 0,-4.3e-4 0,-7.1e-4 0.274814,0.13727 0.554214,0.26529 0.837847,0.38351"
         style="fill:#968974;fill-opacity:1;fill-rule:nonzero;stroke:none;stroke-width:0.0352778"
         id="path846" />
      <path
         d="m 81.834083,165.50901 c -0.15628,-0.10584 -0.313972,-0.20955 -0.473075,-0.31115 -1.010708,-0.64453 -2.149827,-1.28659 -2.918177,-2.16359 v 0 c 0.76835,0.877 1.907469,1.51906 2.918177,2.16359 0.159103,0.10089 0.316795,0.20496 0.473075,0.31115"
         style="fill:#968974;fill-opacity:1;fill-rule:nonzero;stroke:none;stroke-width:0.0352778"
         id="path848" />
      <path
         d="m 92.068519,173.29015 c -0.0762,-0.0247 -0.152047,-0.0497 -0.227894,-0.0758 -0.276931,-0.0945 -0.550686,-0.1983 -0.820914,-0.31076 -0.283633,-0.11822 -0.563033,-0.24624 -0.837847,-0.38351 0,0 0,0 -3.53e-4,-4.2e-4 -0.282222,-0.13998 -0.559506,-0.29034 -0.831145,-0.45046 -0.165805,-0.0977 -0.329847,-0.19929 -0.491419,-0.30442 -0.328436,-0.21374 -0.6477,-0.44277 -0.954969,-0.68587 0.193675,-0.37772 0.340783,-0.77431 0.340783,-1.1842 0,-0.0688 -0.0042,-0.13794 -0.01305,-0.20743 -0.05362,-0.43498 -0.28575,-0.82586 -0.510469,-1.20157 -0.648759,-1.08197 -1.297517,-2.16182 -1.946275,-3.24202 -0.188031,-0.31327 -0.376061,-0.6283 -0.565856,-0.94157 v -0.004 c -0.04586,-0.0765 -0.09243,-0.15381 -0.138641,-0.23071 l 3.52e-4,3.5e-4 c 0.570795,0.5214 1.08197,0.80962 1.402997,0.80962 0.2413,0 0.375709,-0.16227 0.347839,-0.51082 0.565856,2.23344 1.527881,4.36598 2.828925,6.26784 0.140053,0.2045 0.31362,0.38872 0.541867,0.48285 0.422981,0.17709 0.874889,0.24765 1.334558,0.24765 0.90805,0 1.846439,-0.27577 2.651831,-0.55164 0.407811,-0.13974 0.781755,-0.27947 1.100314,-0.38351 -0.663575,0.31323 -1.314098,0.65042 -1.96462,0.98598 -0.501297,0.26003 -1.044928,0.56582 -1.227314,1.10039 -0.08502,0.25036 -0.07549,0.51219 -0.0187,0.77388 m -10.077802,-7.6739 c -0.05221,-0.036 -0.104423,-0.0716 -0.156634,-0.10724 -0.15628,-0.10619 -0.313972,-0.21026 -0.473075,-0.31115 -1.010708,-0.64453 -2.149827,-1.28659 -2.918177,-2.16359 -0.376062,-0.42933 -0.663223,-0.91546 -0.80257,-1.48555 -0.06703,-0.27411 -0.09454,-0.55139 -0.09454,-0.83008 0,-0.75495 0.201436,-1.52118 0.361597,-2.26978 0.224014,-1.04281 0.366889,-2.10326 0.427567,-3.169 0.140052,0.0335 0.283633,0.0508 0.426861,0.0508 0.211314,0 0.421569,-0.0374 0.618066,-0.11606 0.790575,-0.31715 1.249539,-1.15182 1.9685,-1.61079 0.309739,-0.1979 0.661106,-0.31961 0.994128,-0.47554 0.04727,0.22754 0.09419,0.45473 0.141111,0.68192 -0.165805,0.31503 -0.490361,0.42016 -1.006475,0.65052 -0.458611,0.20461 -1.162755,0.93627 -1.603375,1.17581 -1.096433,0.59514 -1.284464,2.06587 -1.319389,3.31364 -0.03493,1.23649 -0.505177,2.23555 0.366536,3.11291 0.149578,0.15064 0.258939,0.21555 0.33655,0.21555 0.380295,0 0.01341,-1.54764 -0.0064,-2.1583 0.270581,0.88407 0.617009,1.5554 1.03505,2.1135 0.403578,1.19979 1.019881,2.32833 1.704623,3.38243"
         style="fill:#ac9d85;fill-opacity:1;fill-rule:nonzero;stroke:none;stroke-width:0.0352778"
         id="path850" />
      <path
         d="m 83.882311,151.19681 c -0.0074,0.037 -0.01482,0.0737 -0.02399,0.10866 -0.164042,0.68368 -0.602544,1.30316 -1.208969,1.66229 -0.414514,0.24694 -0.893939,0.37606 -1.301045,0.63605 -0.718961,0.45897 -1.177925,1.29364 -1.9685,1.61079 -0.455083,0.18238 -0.983897,0.14358 -1.424516,-0.0702 -0.222956,-0.10689 -0.421923,-0.25788 -0.578556,-0.44767 l -0.01482,-0.0187 -0.05539,-0.0699 c -0.414514,-0.57679 -0.313266,-1.71379 -0.897466,-2.11772 -0.424039,-0.29104 -0.436739,-0.6985 -0.576792,-1.15923 -0.0092,-0.0367 -0.02222,-0.0755 -0.03493,-0.11395 -0.06844,-0.19367 -0.1016,-0.39652 -0.105128,-0.59901 -0.0074,-0.25259 0.0314,-0.50695 0.108656,-0.75213 0.119944,-0.37959 0.333728,-0.73342 0.609953,-1.01917 0.08467,-0.0864 0.17533,-0.16757 0.269169,-0.24307 0.134408,-0.109 0.276578,-0.20461 0.427567,-0.28751 0.490361,-0.27658 1.052336,-0.43321 1.614311,-0.49212 0.855133,-0.0885 1.717675,0.0349 2.561872,0.19332 0.373944,0.0702 0.750005,0.14746 1.098197,0.30233 0.07585,0.0332 0.149578,0.072 0.221192,0.11606 0.112536,0.061 0.217664,0.13476 0.318911,0.21767 0.578555,0.45896 0.963789,1.1684 1.006122,1.90923 0.01305,0.21202 -0.0035,0.4258 -0.04586,0.63394"
         style="fill:#cbbba0;fill-opacity:1;fill-rule:nonzero;stroke:none;stroke-width:0.0352778"
         id="path852" />
      <path
         d="m 86.72958,144.86621 c 0.0039,1.27706 -0.128764,2.55623 -0.394405,3.80401 -0.106892,0.49953 -0.239536,1.00788 -0.536222,1.42275 -0.451556,0.63218 -1.199798,0.95074 -1.940631,1.2125 -0.0829,0.0279 -0.165805,0.0571 -0.248708,0.085 -0.129117,0.0441 -0.28575,0.0847 -0.390878,-0.002 -0.05151,-0.0423 -0.07726,-0.10301 -0.103011,-0.16404 -0.112536,-0.26705 -0.226836,-0.53234 -0.339372,-0.79975 -0.169334,-0.3997 -0.33902,-0.83114 -0.349956,-1.25307 -0.0074,-0.17533 0.01482,-0.34854 0.0755,-0.51787 0.02752,-0.0755 0.06068,-0.14746 0.101247,-0.21767 0.07549,-0.13617 0.167922,-0.26141 0.259997,-0.38699 0.517878,-0.70768 1.035756,-1.41711 1.551869,-2.12479 l 0.02399,-0.0314 c 0.442031,-0.60466 0.897467,-1.22379 1.520472,-1.64007 0.11042,-0.0741 0.23742,-0.14393 0.370417,-0.13088 0.309386,0.0293 0.399697,0.43498 0.399697,0.74436"
         style="fill:#cbbba0;fill-opacity:1;fill-rule:nonzero;stroke:none;stroke-width:0.0352778"
         id="path854" />
      <path
         d="m 76.825697,150.48914 c -0.140053,0.25259 -0.280105,0.50694 -0.422275,0.75918 -0.0314,0.0572 -0.06421,0.1143 -0.117828,0.15134 -0.1143,0.0755 -0.267405,0.0183 -0.390877,-0.0388 l -0.06244,-0.0296 c -0.764822,-0.3556 -1.562805,-0.76271 -1.975555,-1.4926 -0.250825,-0.44415 -0.3302,-0.96379 -0.381706,-1.4725 -0.132644,-1.27 -0.128764,-2.55446 0.0092,-3.82411 0.03528,-0.30974 0.167922,-0.70238 0.477309,-0.6985 0.134761,0.002 0.252588,0.0847 0.355952,0.16933 0.575028,0.48119 0.962025,1.14477 1.337734,1.79317 0.04233,0.0737 0.08678,0.14958 0.129116,0.22331 0.403578,0.69639 0.805392,1.39136 1.20897,2.08809 0.0388,0.0663 0.07761,0.13265 0.1143,0.19897 0.0441,0.0829 0.08467,0.16757 0.117827,0.25435 0.02575,0.0607 0.04621,0.12136 0.06103,0.18592 0.145344,0.59549 -0.162278,1.19627 -0.460728,1.73249"
         style="fill:#cbbba0;fill-opacity:1;fill-rule:nonzero;stroke:none;stroke-width:0.0352778"
         id="path856" />
      <path
         d="m 83.920058,150.96257 c -0.06421,0 -0.126294,-0.007 -0.185208,-0.0236 -0.156281,-0.0427 -0.209903,-0.24236 -0.269875,-0.39264 -0.05609,-0.1397 -0.112183,-0.28152 -0.128764,-0.43074 -0.01623,-0.14958 0.0127,-0.31045 0.110419,-0.42475 0.171803,-0.20108 0.503062,-0.20814 0.664281,-0.41769 -0.104069,0.0169 -0.20955,0.0254 -0.314678,0.0254 -0.08431,0 -0.168628,-0.006 -0.251883,-0.0162 -0.03704,-0.005 -0.07796,-0.0131 -0.09878,-0.0441 -0.03387,-0.0497 0.0088,-0.11571 0.05362,-0.15558 0.38347,-0.34043 1.007181,-0.23107 1.429809,-0.5214 -0.301978,0.0998 -0.620184,0.15063 -0.938389,0.15063 -0.139347,0 -0.278342,-0.01 -0.416278,-0.0293 0.279753,-0.0568 0.559506,-0.11324 0.839611,-0.17003 -0.06738,0.006 -0.134761,0.01 -0.202494,0.01 -0.129117,0 -0.257881,-0.0116 -0.384881,-0.0353 -0.05821,-0.0109 -0.126294,-0.0335 -0.141464,-0.0907 l 0.01023,-0.0829 c 0.07761,-0.20144 0.304094,-0.30304 0.516114,-0.34396 0.212372,-0.0413 0.436739,-0.0441 0.630414,-0.14006 -0.160162,0.0176 -0.321381,0.0265 -0.4826,0.0265 -0.09172,0 -0.183798,-0.003 -0.27552,-0.008 0.307975,-0.34678 0.806803,-0.43357 1.265414,-0.49954 -0.327025,-0.002 -0.655461,-0.004 -0.978958,-0.0533 0.301272,-0.0469 0.595841,-0.13476 0.873477,-0.26035 -0.142169,-0.003 -0.284338,-0.006 -0.426508,-0.008 -0.03669,-7.1e-4 -0.07514,-0.002 -0.106539,-0.0215 -0.0829,-0.0522 -0.05151,-0.17886 -0.0092,-0.26741 0.317147,-0.66251 0.697089,-1.29469 1.133828,-1.88524 0.138641,-0.18803 0.309033,-0.38665 0.541514,-0.40993 0.106538,0.74507 0.03634,1.37266 -0.02999,2.2539 -0.03457,0.25117 -0.06914,0.50235 -0.103716,0.75318 -0.07761,0.56233 -0.155575,1.12748 -0.323145,1.67005 -0.06773,0.21837 -0.150989,0.43568 -0.285397,0.62089 -0.09878,0.13652 -0.179211,0.38276 -0.30233,0.49777 -0.289278,0.26952 -0.911225,0.72531 -1.41217,0.72531"
         style="fill:#9c8d77;fill-opacity:1;fill-rule:nonzero;stroke:none;stroke-width:0.0352778"
         id="path858" />
      <path
         d="m 75.590622,150.72621 c -0.186266,0 -0.364419,-0.0857 -0.522816,-0.18592 -0.421923,-0.26635 -0.768703,-0.64981 -0.991306,-1.09608 -0.342194,-0.68509 -0.383117,-1.47708 -0.385939,-2.24296 -0.0028,-0.96414 0.0448,-1.92864 0.143581,-2.88784 0.0071,-0.0691 0.03387,-0.15769 0.103364,-0.15875 7.05e-4,0 0.0011,-3.5e-4 0.0014,-3.5e-4 0.03669,0 0.06738,0.0272 0.09384,0.0526 0.471311,0.4572 0.817739,1.02517 1.158522,1.58609 0.147814,0.24342 0.297392,0.49107 0.366183,0.76729 0.02928,0.11783 0.04339,0.24201 0.01764,0.36089 l -0.03916,0.0713 -0.07514,0.009 c -0.250825,-0.0265 -0.500239,-0.067 -0.746478,-0.12171 0.336903,0.14852 0.673806,0.29704 1.010709,0.44591 0.05115,0.0226 0.108655,0.0522 0.12065,0.10689 0.01164,0.0529 -0.02822,0.10654 -0.07761,0.12841 -0.0321,0.0141 -0.06668,0.018 -0.101952,0.018 -0.0194,0 -0.03916,-0.001 -0.05856,-0.003 -0.301273,-0.0229 -0.597606,-0.0857 -0.893234,-0.14852 0.373945,0.25859 0.795867,0.44768 1.237897,0.55422 0.03845,0.0621 -0.06456,0.11324 -0.137936,0.115 -0.134761,0.003 -0.269522,0.006 -0.404283,0.01 0.2159,0.0416 0.421922,0.13476 0.595842,0.26952 -0.109714,0.0226 -0.221192,0.0335 -0.333023,0.0335 -0.245886,0 -0.491772,-0.0533 -0.714022,-0.15769 0.343606,0.17356 0.687211,0.34678 1.030817,0.52034 0.09666,0.0487 0.208139,0.12065 0.204258,0.22931 -0.0028,0.0885 -0.08961,0.15593 -0.177094,0.16863 -0.01482,0.002 -0.02963,0.003 -0.04445,0.003 -0.07303,0 -0.145345,-0.0236 -0.215195,-0.0469 -0.275166,-0.0914 -0.550333,-0.18274 -0.825147,-0.27411 0.268464,0.16122 0.536928,0.32209 0.805745,0.48331 0.05045,0.0303 0.109008,0.0808 0.08855,0.13617 -0.02822,0.004 -0.05644,0.005 -0.08431,0.005 -0.255411,0 -0.497417,-0.14464 -0.71755,-0.28398 0.127353,0.13793 0.271639,0.26035 0.428272,0.36406 0.119239,0.0787 0.249767,0.15029 0.328436,0.26953 0.08819,0.13405 0.09455,0.30903 0.05398,0.46425 -0.04057,0.15522 -0.123472,0.29563 -0.205669,0.43392 -0.01305,7e-4 -0.02611,0.001 -0.03881,0.001"
         style="fill:#9c8d77;fill-opacity:1;fill-rule:nonzero;stroke:none;stroke-width:0.0352778"
         id="path860" />
      <path
         d="m 78.920139,153.1064 c 0.07161,-0.31574 0.143228,-0.63147 0.214489,-0.94756 0.04621,-0.20356 0.09278,-0.40887 0.181328,-0.59796 0.08819,-0.18909 0.222602,-0.36336 0.406752,-0.46144 0.153459,-0.0822 0.328789,-0.10583 0.504473,-0.10583 0.06315,0 0.126294,0.003 0.188383,0.007 0.287514,0.0208 0.572558,0.0684 0.851253,0.14217 -0.195439,0.1718 -0.24377,0.45544 -0.391937,0.66922 -0.210608,0.30409 -0.600074,0.43039 -0.974372,0.43039 -0.03704,0 -0.07373,-0.001 -0.110419,-0.004 -0.05786,-0.004 -0.11677,-0.01 -0.174978,-0.01 -0.05962,0 -0.118533,0.007 -0.173919,0.0286 -0.158398,0.0628 -0.243064,0.23354 -0.298098,0.39476 -0.05468,0.16157 -0.09948,0.33655 -0.222955,0.45403"
         style="fill:#7c6f5b;fill-opacity:1;fill-rule:nonzero;stroke:none;stroke-width:0.0352778"
         id="path862" />
      <path
         d="m 77.417658,153.1064 c -0.08467,-0.12877 -0.07232,-0.30586 -0.07408,-0.47061 -0.0021,-0.16475 -0.03104,-0.34149 -0.168275,-0.42016 -0.09454,-0.0543 -0.22225,-0.0504 -0.341489,-0.055 -0.41275,-0.0159 -0.498828,-0.17992 -0.620536,-0.5334 -0.02081,-0.0607 -0.03316,-0.12559 -0.04233,-0.19156 0.04057,-0.002 0.07937,-0.0127 0.114652,-0.036 0.05362,-0.037 0.08643,-0.0942 0.117828,-0.15134 0.06985,-0.12383 0.138995,-0.24836 0.208139,-0.37289 0.0011,0 0.0018,0 0.0028,0 0.240595,0.008 0.486834,0.0381 0.658284,0.16969 0.151341,0.11606 0.2286,0.30162 0.254705,0.49741 0.02646,0.19544 0.006,0.40288 -0.01446,0.60819 -0.03175,0.31856 -0.0635,0.63712 -0.09525,0.95568"
         style="fill:#7c6f5b;fill-opacity:1;fill-rule:nonzero;stroke:none;stroke-width:0.0352778"
         id="path864" />
      <path
         d="m 76.170942,151.43564 c -0.02505,-0.18027 -0.02858,-0.36971 -0.129823,-0.5087 0.24765,-0.0356 0.277637,-0.054 0.442737,-0.054 0.03528,0 0.0769,7.1e-4 0.127705,0.002 -0.06914,0.12453 -0.138289,0.24906 -0.208139,0.37289 -0.0314,0.0572 -0.06421,0.1143 -0.117828,0.15134 -0.03528,0.0233 -0.07408,0.0339 -0.114652,0.036"
         style="fill:#7c6f5b;fill-opacity:1;fill-rule:nonzero;stroke:none;stroke-width:0.0352778"
         id="path866" />
      <path
         d="m 78.678133,154.80185 c -0.271639,0 -0.517172,-0.0871 -0.639939,-0.34855 -0.09454,0.17286 -0.274813,0.2854 -0.464961,0.2854 -0.06526,0 -0.131939,-0.0134 -0.196497,-0.042 v 0 l -0.01482,-0.0187 c 0.04904,0.0159 0.09913,0.0236 0.148873,0.0236 0.209197,0 0.406047,-0.13476 0.453672,-0.34784 l 0.0039,-0.0462 c 0.0092,-0.0642 0.01658,-0.12877 0.02011,-0.19333 0.0039,-0.0536 0.0056,-0.10689 -0.0092,-0.15839 -0.04057,-0.14746 -0.191559,-0.2286 -0.322439,-0.30974 -0.129117,-0.0794 -0.265642,-0.20461 -0.245181,-0.3556 0.18027,0.0469 0.366536,0.0713 0.553508,0.0713 0.02505,0 0.04974,-3.5e-4 0.07479,-10e-4 0.02505,10e-4 0.05009,10e-4 0.07514,10e-4 0.186972,0 0.373239,-0.0243 0.555272,-0.0713 0.01834,0.15099 -0.116064,0.27622 -0.246944,0.3556 -0.129117,0.0811 -0.280106,0.16228 -0.322439,0.30974 -0.01305,0.0515 -0.01305,0.10477 -0.0092,0.15839 0.0035,0.0571 0.01094,0.11607 0.02011,0.17322 0.05962,0.36794 0.357364,0.47201 0.678392,0.47201 0.15628,0 0.318205,-0.0247 0.460727,-0.0554 -0.181327,0.0554 -0.383469,0.0977 -0.572911,0.0977"
         style="fill:#7c6f5b;fill-opacity:1;fill-rule:nonzero;stroke:none;stroke-width:0.0352778"
         id="path868" />
      <path
         d="m 79.574894,151.53266 c -0.0127,0.0617 -0.02575,0.12453 -0.01976,0.18767 0.01094,0.11571 0.08678,0.21908 0.184503,0.28152 0.09807,0.0624 0.2159,0.0882 0.331964,0.0931 0.186619,0.008 0.395111,-0.0494 0.489655,-0.21025 0.04092,-0.0695 0.05609,-0.15064 0.06562,-0.23072 0.0095,-0.0811 0.01305,-0.16686 -0.02293,-0.24024 -0.02681,-0.055 -0.07408,-0.0974 -0.12453,-0.13264 -0.172509,-0.1203 -0.395817,-0.16546 -0.601486,-0.12136 -0.05962,0.013 -0.119239,0.0335 -0.166159,0.0727 -0.08608,0.072 -0.113947,0.1905 -0.136878,0.30022"
         style="fill:#ffffff;fill-opacity:1;fill-rule:nonzero;stroke:none;stroke-width:0.0352778"
         id="path870" />
      <path
         d="m 76.446814,151.54183 -0.0011,-0.006 c 0.04022,0.19474 0.03634,0.45332 0.523169,0.48931 0.104069,0.007 0.216606,0.001 0.296333,-0.0663 0.07267,-0.0614 0.105834,-0.15875 0.115711,-0.25329 0.03704,-0.35243 -0.213077,-0.60819 -0.508352,-0.65617 -0.105481,-0.0169 -0.222956,0.006 -0.296686,0.0833 -0.03175,0.0335 -0.05362,0.0751 -0.07126,0.11818 -0.0381,0.0917 -0.05786,0.1912 -0.05786,0.29069"
         style="fill:#ffffff;fill-opacity:1;fill-rule:nonzero;stroke:none;stroke-width:0.0352778"
         id="path872" />
      <path
         d="m 79.710714,151.47092 c -0.0046,0.0529 -0.0081,0.10619 -0.0028,0.15875 0.01411,0.14605 0.104069,0.28787 0.240241,0.34149 0.136173,0.0536 0.312914,0 0.377825,-0.13123 0.02011,-0.0402 0.02963,-0.085 0.03493,-0.12983 0.01094,-0.09 0.0067,-0.18132 -0.01235,-0.26987 l -0.01094,-0.0198 c -0.01976,-0.0737 -0.07867,-0.13229 -0.146756,-0.16651 -0.06809,-0.0342 -0.144991,-0.0473 -0.220838,-0.0543 -0.0448,-0.004 -0.09137,-0.006 -0.132645,0.0116 -0.09313,0.0402 -0.117828,0.15875 -0.126647,0.25964"
         style="fill:#00a19a;fill-opacity:1;fill-rule:nonzero;stroke:none;stroke-width:0.0352778"
         id="path874" />
      <path
         d="m 76.665183,151.41271 c -0.0039,0.0529 -0.0071,0.10619 -0.0025,0.1591 0.01199,0.1457 0.08925,0.28787 0.206022,0.34114 0.11677,0.0536 0.268111,0 0.32385,-0.13088 0.01729,-0.0406 0.0254,-0.0854 0.02999,-0.13018 0.0092,-0.0896 0.0056,-0.18132 -0.01058,-0.26952 l -0.0092,-0.0201 c -0.01729,-0.0734 -0.06773,-0.13193 -0.126295,-0.16615 -0.05821,-0.0346 -0.124178,-0.0476 -0.189089,-0.0547 -0.03845,-0.004 -0.07832,-0.006 -0.113594,0.012 -0.07973,0.0402 -0.101247,0.1584 -0.108656,0.25929"
         style="fill:#00a19a;fill-opacity:1;fill-rule:nonzero;stroke:none;stroke-width:0.0352778"
         id="path876" />
      <path
         d="m 80.123111,151.34851 c -0.01834,-0.0434 -0.04798,-0.085 -0.09137,-0.10372 -0.04339,-0.0187 -0.1016,-0.007 -0.124531,0.0339 l -0.01446,0.0519 c -0.02011,0.14253 -0.01799,0.28787 0.0056,0.42933 0.0067,0.0385 0.01482,0.0773 0.03563,0.11007 0.02046,0.0328 0.05574,0.0593 0.09454,0.0593 0.04233,0 0.08008,-0.0314 0.09913,-0.0692 0.0194,-0.0377 0.02399,-0.0811 0.02681,-0.12382 0.0035,-0.0497 0.0053,-0.0995 0.0053,-0.14923 0,-0.0811 -0.0049,-0.16404 -0.03669,-0.23847"
         style="fill:#3c3c3b;fill-opacity:1;fill-rule:nonzero;stroke:none;stroke-width:0.0352778"
         id="path878" />
      <path
         d="m 77.082167,151.30229 c -0.01834,-0.0437 -0.04798,-0.085 -0.09137,-0.10371 -0.04304,-0.019 -0.1016,-0.008 -0.12453,0.0335 l -0.01446,0.0522 c -0.02011,0.14217 -0.01799,0.28751 0.006,0.42933 0.0063,0.0381 0.01482,0.0773 0.03528,0.11007 0.02046,0.0328 0.05574,0.0589 0.09454,0.0589 0.04233,3.5e-4 0.08008,-0.031 0.09948,-0.0688 0.0194,-0.0381 0.02364,-0.0815 0.02646,-0.12383 0.0035,-0.0497 0.0053,-0.0995 0.0053,-0.14957 0,-0.0808 -0.0049,-0.16369 -0.03669,-0.23813"
         style="fill:#3c3c3b;fill-opacity:1;fill-rule:nonzero;stroke:none;stroke-width:0.0352778"
         id="path880" />
      <path
         d="m 79.812667,151.74926 -0.05856,0.0176 -0.01693,0.0984 0.05186,0.018 c 0.0441,-3.6e-4 0.09419,-0.0314 0.09102,-0.0755 l -0.05503,-0.0564 -0.01235,-0.002"
         style="fill:#ffffff;fill-opacity:1;fill-rule:nonzero;stroke:none;stroke-width:0.0352778"
         id="path882" />
      <path
         d="m 80.324547,151.37708 c -0.05785,-0.0109 -0.121003,0.0275 -0.137583,0.084 -0.01552,0.0529 0.0092,0.1136 0.05397,0.1457 0.0448,0.0321 0.105833,0.0374 0.158044,0.0194 l 0.06068,-0.0448 0.01341,-0.0441 -0.0028,-0.0713 c -0.01376,-0.0409 -0.05503,-0.0681 -0.09737,-0.0769 -0.04233,-0.009 -0.0056,-0.004 -0.04833,-0.012"
         style="fill:#ffffff;fill-opacity:1;fill-rule:nonzero;stroke:none;stroke-width:0.0352778"
         id="path884" />
      <path
         d="m 76.689172,151.79301 0.04304,0.0451 -0.0046,-3.5e-4 0.0063,0.006 c 0.03246,0.008 0.06773,-0.025 0.06174,-0.0582 -0.006,-0.0332 -0.04904,-0.0526 -0.07832,-0.0363 l -0.02822,0.0441"
         style="fill:#ffffff;fill-opacity:1;fill-rule:nonzero;stroke:none;stroke-width:0.0352778"
         id="path886" />
      <path
         d="m 77.097689,151.39366 -0.0011,0.0473 0.01164,0.0325 0.03246,0.0353 c 0.03669,0.025 0.08925,0.0243 0.125236,-0.002 0.03634,-0.0261 0.05327,-0.0758 0.04092,-0.11853 -0.01235,-0.0427 -0.05362,-0.0755 -0.09807,-0.078 -0.05045,-0.003 -0.09984,0.0342 -0.111125,0.0833"
         style="fill:#ffffff;fill-opacity:1;fill-rule:nonzero;stroke:none;stroke-width:0.0352778"
         id="path888" />
      <path
         d="m 87.579069,171.65016 c -0.392289,0.65222 -0.78493,1.30457 -1.179336,1.95721 -0.103011,0.17103 -0.206375,0.34424 -0.309739,0.51566 -0.316794,0.52712 -0.646641,1.13001 -0.484716,1.72339 0.07937,0.29104 0.269169,0.53798 0.40393,0.80712 0.136172,0.27093 0.213783,0.60469 0.06244,0.8661 -0.147461,0.25824 -0.486481,0.36132 -0.775758,0.29489 -0.287514,-0.0663 -0.52705,-0.27436 -0.6985,-0.51608 -0.09031,-0.12689 -0.164042,-0.26141 -0.22472,-0.40361 -0.191911,-0.44937 -0.237772,-0.96383 -0.184503,-1.45189 0.06809,-0.64534 0.291042,-1.26094 0.51435,-1.86877 0.232128,-0.63956 0.464256,-1.27745 0.696384,-1.91478 0.103364,-0.28402 0.208491,-0.58638 0.151341,-0.88307 -0.03881,-0.20461 -0.151341,-0.38707 -0.263525,-0.56197 -1.4986,-2.32587 -4.439708,-5.32624 -5.267325,-8.91999 0.928864,-0.59161 2.685345,1.20156 3.776134,1.34338 0.254352,0.0335 0.505177,0.50129 0.711552,0.65264 0.16757,0.1217 0.278342,0.30409 0.385234,0.48083 0.104775,0.17533 0.211666,0.35207 0.316794,0.52705 v 0.004 c 0.189795,0.31327 0.377825,0.6283 0.565856,0.94157 0.648758,1.0802 1.297516,2.16005 1.946275,3.24202 0.224719,0.37571 0.456847,0.76659 0.510469,1.20157 0.08855,0.6985 -0.289278,1.35995 -0.652639,1.96285"
         style="fill:#cbbba0;fill-opacity:1;fill-rule:nonzero;stroke:none;stroke-width:0.0352778"
         id="path890" />
      <path
         d="m 102.09623,171.44343 c 0.002,0.0903 -0.006,0.1789 -0.024,0.26392 -0.0222,0.12693 -0.0663,0.24694 -0.12524,0.36089 -0.14746,0.28222 -0.38876,0.5274 -0.66534,0.73367 -0.17145,0.12887 -0.3556,0.2413 -0.53798,0.33902 -0.788814,0.42016 -1.640419,0.72429 -2.515661,0.8993 -0.246944,0.0497 -0.505178,0.0941 -0.702381,0.24899 -0.381352,0.29849 -0.376061,0.86611 -0.337255,1.34913 0.05715,0.71684 0.1143,1.43535 0.173214,2.15441 0.01305,0.17667 0.02575,0.36298 -0.05151,0.5231 -0.125236,0.25823 -0.436739,0.35775 -0.716844,0.4258 -2.687108,0.66146 -5.464528,0.96023 -8.230658,0.88484 -0.03881,-0.002 -0.07761,-0.002 -0.116064,-0.004 -0.304095,-0.009 -0.610306,-0.0256 -0.91052,-0.0663 -0.154869,-0.0201 -0.31503,-0.0497 -0.434975,-0.14743 -0.05151,-0.0423 -0.09031,-0.0921 -0.117827,-0.15106 -0.09948,-0.2045 -0.05186,-0.48284 0.103011,-0.66174 0.132644,-0.15102 0.315383,-0.23784 0.512233,-0.28014 0.05927,-0.0165 0.121708,-0.0257 0.182739,-0.0292 l 0.0092,-0.002 h 0.0056 c 0.03845,-0.003 0.07549,-0.005 0.113947,-0.005 0.30233,-0.004 0.602897,0.0588 0.904875,0.0755 0.508705,0.024 1.015647,-0.0886 1.513064,-0.199 1.175808,-0.26529 2.362905,-0.53277 3.464983,-1.02306 -0.424039,-1.02828 -0.847725,-2.05673 -1.27,-3.08501 -0.101247,-0.2431 -0.200731,-0.49953 -0.254353,-0.75752 -0.0568,-0.26169 -0.06632,-0.52352 0.0187,-0.77388 0.182386,-0.53457 0.726017,-0.84036 1.227314,-1.10039 0.650522,-0.33556 1.301045,-0.67275 1.96462,-0.98598 l 0.06068,-0.0293 c 0.827617,-0.38904 1.686278,-0.74464 2.584098,-0.90692 0.156633,-0.0293 0.31503,-0.0515 0.473427,-0.0681 1.028348,-0.10336 2.126903,0.10337 2.935823,0.74472 l 0.0921,0.0737 c 0.12171,0.10294 0.23601,0.21897 0.3355,0.34826 0.17145,0.21936 0.29492,0.47156 0.32808,0.74246 0.004,0.0371 0.006,0.0721 0.007,0.10872"
         style="fill:#cbbba0;fill-opacity:1;fill-rule:nonzero;stroke:none;stroke-width:0.0352778"
         id="path892" />
      <path
         d="m 85.471222,177.83439 c -0.05927,0 -0.11818,-0.007 -0.17533,-0.0199 -0.287514,-0.0663 -0.52705,-0.27436 -0.6985,-0.51608 -0.09031,-0.12689 -0.164042,-0.26141 -0.22472,-0.40361 0.03316,0.0332 0.06632,0.0646 0.103011,0.0943 0.19297,0.16013 0.444853,0.26705 0.691092,0.26705 0.101953,0 0.202847,-0.0183 0.29845,-0.059 -0.112183,-0.20631 -0.134408,-0.4589 -0.05891,-0.68005 -0.143581,-0.22656 -0.252236,-0.4735 -0.320675,-0.73353 -0.04586,-0.16923 -0.07373,-0.34809 -0.04233,-0.52134 0.04621,-0.26747 0.222955,-0.48863 0.385233,-0.70414 0.265289,-0.34989 0.508705,-0.71508 0.731661,-1.09474 0.372181,-0.62823 0.681919,-1.29357 0.9271,-1.98286 0.09737,-0.2727 0.18415,-0.56032 0.147461,-0.84596 -0.06279,-0.47734 -0.448028,-0.83683 -0.811036,-1.15362 0.259997,-0.007 0.716844,0.0406 0.772231,-0.30974 0.05327,-0.35031 -0.162278,-0.67804 -0.357717,-0.97508 -0.742597,-1.13524 -1.286228,-2.58198 -1.629128,-3.89396 0.189795,0.31327 0.377825,0.6283 0.565856,0.94157 0.648758,1.0802 1.297516,2.16005 1.946275,3.24202 0.224719,0.37571 0.456847,0.76659 0.510469,1.20157 0.0088,0.0695 0.01305,0.13864 0.01305,0.20743 0,0.40989 -0.147108,0.80648 -0.340783,1.1842 -3.53e-4,4.3e-4 -3.53e-4,7.1e-4 -7.06e-4,10e-4 -0.100189,0.19512 -0.212725,0.38516 -0.324203,0.57009 -0.392289,0.65222 -0.78493,1.30457 -1.179336,1.95721 -0.103011,0.17103 -0.206375,0.34424 -0.309739,0.51566 -0.259291,0.43148 -0.527402,0.91337 -0.527402,1.39954 0,0.10791 0.01341,0.21593 0.04269,0.32385 0.07937,0.29104 0.269169,0.53798 0.40393,0.80712 0.08361,0.16619 0.144992,0.35595 0.144992,0.53798 3.53e-4,0.11508 -0.02399,0.22723 -0.08255,0.32812 -0.118181,0.20712 -0.360186,0.31475 -0.600428,0.31475"
         style="fill:#ac9d85;fill-opacity:1;fill-rule:nonzero;stroke:none;stroke-width:0.0352778"
         id="path894" />
      <path
         d="m 89.201847,179.63768 v 0 0 0 m 0.0025,0 c 2.45745,0 4.915959,-0.29449 7.303911,-0.8752 -2.387952,0.58071 -4.846108,0.8752 -7.303911,0.8752"
         style="fill:#d5d3d1;fill-opacity:1;fill-rule:nonzero;stroke:none;stroke-width:0.0352778"
         id="path896" />
      <path
         d="m 102.30331,172.08507 v 0 0 0 m 0.003,0 c 0.99131,-7.1e-4 1.98437,-0.38489 2.69593,-1.07806 -0.71156,0.69317 -1.70462,1.07735 -2.69593,1.07806"
         style="fill:#d5d3d1;fill-opacity:1;fill-rule:nonzero;stroke:none;stroke-width:0.0352778"
         id="path898" />
      <path
         d="m 102.30331,172.08507 v 0 c -0.11889,0 -0.23813,-0.006 -0.35631,-0.0168 v 0 c 0.0589,-0.11395 0.10301,-0.23396 0.12524,-0.36089 0.0183,-0.085 0.0258,-0.17364 0.024,-0.26392 -0.002,-0.0367 -0.004,-0.0717 -0.007,-0.10872 0.0628,0.0113 0.12735,0.0167 0.19156,0.0183 0.0176,8.1e-4 0.0349,0.001 0.0526,0.001 0.41275,0 0.85549,-0.16368 1.23402,-0.35482 0.65405,-0.32992 1.28623,-0.72789 1.77659,-1.27145 0.83679,-0.92886 1.19062,-2.18404 1.51659,-3.39125 0.33373,-1.22731 0.66745,-2.45639 0.99906,-3.68406 0.39053,-1.43933 0.98955,-2.79929 1.58856,-4.16489 1.71591,-3.92007 7.24288,-3.88867 9.99808,-4.74204 l -0.0127,0.007 v 0 c -0.11995,0.0589 -0.2473,0.12524 -0.38524,0.1972 v 0 l -0.007,0.004 c -0.14746,0.0684 -0.29669,0.13476 -0.44803,0.19367 -1.29011,0.514 -2.67582,0.72779 -4.02132,1.07245 -1.34514,0.34466 -2.6998,0.8516 -3.69323,1.8228 -0.66886,0.6544 -1.137,1.48555 -1.52223,2.33857 -1.37125,3.05011 -1.75437,6.46535 -3.05753,9.54475 -0.31891,0.75001 -0.70026,1.49285 -1.28093,2.06611 v 0 c -0.005,0.005 -0.0102,0.01 -0.0152,0.0149 -0.71156,0.69317 -1.70462,1.07735 -2.69593,1.07806 -0.001,0 -0.002,0 -0.003,0"
         style="fill:#ac9d85;fill-opacity:1;fill-rule:nonzero;stroke:none;stroke-width:0.0352778"
         id="path900" />
      <path
         d="m 89.201847,179.63768 v 0 c -0.279753,0 -0.559858,-0.004 -0.839258,-0.0112 v 0 c -0.03881,-0.002 -0.07761,-0.002 -0.116064,-0.004 v 0 c -0.304095,-0.009 -0.610306,-0.0256 -0.91052,-0.0663 -0.154869,-0.0201 -0.31503,-0.0497 -0.434975,-0.14743 -0.05151,-0.0423 -0.09031,-0.0921 -0.117827,-0.15106 0.775405,0.0688 1.553986,0.10337 2.332919,0.10337 1.613606,0 3.228269,-0.14775 4.815769,-0.44235 0.466373,-0.085 0.930628,-0.18454 1.391356,-0.29697 0.341136,-0.083 0.705908,-0.18591 0.93098,-0.45695 0.22472,-0.27259 0.208139,-0.76303 -0.1143,-0.90484 0.03634,0.0163 0.07444,0.0237 0.112889,0.0237 0.127353,0 0.257175,-0.0812 0.329142,-0.19166 0.09419,-0.14182 0.1143,-0.32067 0.127353,-0.4917 0.06985,-0.88124 -0.03881,-1.88916 -0.606425,-2.51397 -0.04621,-0.0497 -0.0956,-0.0977 -0.149225,-0.14386 -0.07197,-0.0624 -0.150989,-0.11959 -0.236009,-0.17113 0.183445,0.0244 0.366889,0.0353 0.550686,0.0353 0.5334,0 1.067153,-0.0927 1.591028,-0.2158 0.08114,-0.0188 0.161925,-0.0389 0.2413,-0.0594 0.805392,-0.20242 1.619956,-0.46591 2.270474,-0.98379 0.19897,-0.15875 0.37959,-0.34477 0.53093,-0.55107 0.3482,-0.4699 0.54716,-1.04317 0.4699,-1.61643 -0.009,-0.0699 -0.024,-0.14005 -0.0388,-0.2099 l 0.0921,0.0737 c 0.12171,0.10294 0.23601,0.21897 0.3355,0.34826 0.17145,0.21936 0.29492,0.47156 0.32808,0.74246 v 0 c 0.004,0.0371 0.006,0.0721 0.007,0.10872 0.002,0.0903 -0.006,0.1789 -0.024,0.26392 -0.0222,0.12693 -0.0663,0.24694 -0.12524,0.36089 v 0 c -0.14746,0.28222 -0.38876,0.5274 -0.66534,0.73367 -0.17145,0.12887 -0.3556,0.2413 -0.53798,0.33902 -0.788814,0.42016 -1.640419,0.72429 -2.515661,0.8993 -0.246944,0.0497 -0.505178,0.0941 -0.702381,0.24899 -0.286102,0.22366 -0.354541,0.59905 -0.354541,0.97649 0,0.12569 0.0078,0.25164 0.01729,0.37264 0.05715,0.71684 0.1143,1.43535 0.173214,2.15441 0.0049,0.0663 0.0099,0.13367 0.0099,0.20105 0,0.11176 -0.01305,0.22186 -0.06138,0.32205 -0.125236,0.25823 -0.436739,0.35775 -0.716844,0.4258 v 0 c -0.02858,0.007 -0.0568,0.0138 -0.08502,0.0208 -2.387952,0.58071 -4.846461,0.8752 -7.303911,0.8752 -7.05e-4,0 -0.0018,0 -0.0025,0"
         style="fill:#ac9d85;fill-opacity:1;fill-rule:nonzero;stroke:none;stroke-width:0.0352778"
         id="path902" />
      <path
         d="m 82.342436,153.12827 v 0 c 0.104775,-0.049 0.207786,-0.10125 0.306917,-0.16051 0.606425,-0.35913 1.044927,-0.97861 1.208969,-1.66229 v 0 h 3.53e-4 c -0.164042,0.68368 -0.601839,1.30351 -1.209322,1.66229 -0.09913,0.0593 -0.202142,0.11147 -0.306917,0.16051"
         style="fill:#d5d3d1;fill-opacity:1;fill-rule:nonzero;stroke:none;stroke-width:0.0352778"
         id="path904" />
      <path
         d="m 78.761742,155.33066 c -0.277636,0 -0.556331,-0.0649 -0.80645,-0.18627 0.133702,0.0254 0.269522,0.0381 0.404989,0.0381 0.201083,0 0.402166,-0.0279 0.595841,-0.084 0.442384,-0.12735 0.851253,-0.4131 1.052336,-0.82585 0.197909,-0.40675 0.157692,-0.93698 -0.150283,-1.26612 0.06879,0.0663 0.163689,0.0882 0.263525,0.0882 0.07232,0 0.147461,-0.0113 0.216606,-0.0254 0.320675,-0.0628 0.643113,-0.14394 0.928863,-0.30586 0.587728,-0.3302 0.958145,-1.00471 0.934156,-1.67534 0.01482,0.21942 0.02787,0.4385 0.04269,0.65616 0.0071,0.11959 0.01834,0.24871 0.101247,0.33338 0.06068,0.0628 0.149225,0.0885 0.233892,0.0995 0.02963,0.004 0.05927,0.005 0.08855,0.005 0.216958,0 0.432858,-0.0931 0.578908,-0.25223 0.124178,-0.13512 0.195792,-0.31503 0.204259,-0.49707 0.05398,-0.009 0.108303,-0.0257 0.15875,-0.0427 0.0829,-0.0279 0.165805,-0.0572 0.248708,-0.085 -0.164042,0.68368 -0.602544,1.30316 -1.208969,1.66229 -0.09913,0.0593 -0.202142,0.11147 -0.306917,0.16051 -0.333022,0.15593 -0.684389,0.27764 -0.994128,0.47554 -0.718961,0.45897 -1.177925,1.29364 -1.9685,1.61079 -0.196497,0.0787 -0.406752,0.11606 -0.618066,0.11606"
         style="fill:#ac9d85;fill-opacity:1;fill-rule:nonzero;stroke:none;stroke-width:0.0352778"
         id="path906" />
      <path
         d="m 83.450864,151.43317 c 0.0032,-0.0639 -0.0018,-0.1277 -0.01446,-0.19014 0.0074,0 0.01517,0 0.02258,0 0.143227,0 0.28328,-0.0166 0.423333,-0.0462 -0.0071,0.0363 -0.01517,0.0727 -0.02364,0.10866 h -3.53e-4 v 0 c -0.0829,0.0279 -0.165805,0.0571 -0.248708,0.085 -0.05045,0.0169 -0.104775,0.0339 -0.15875,0.0427"
         style="fill:#ac9d85;fill-opacity:1;fill-rule:nonzero;stroke:none;stroke-width:0.0352778"
         id="path908" />
      <path
         d="m 79.858175,153.00656 c -0.0046,-0.005 -0.0092,-0.01 -0.01376,-0.0148 0.0046,0.005 0.0092,0.01 0.01376,0.0148"
         style="fill:#ac9d85;fill-opacity:1;fill-rule:nonzero;stroke:none;stroke-width:0.0352778"
         id="path910" />
      <path
         d="m 82.426397,149.17151 v 0 c -0.331964,-0.34642 -0.744714,-0.61559 -1.187097,-0.79798 -0.606072,-0.25082 -1.267883,-0.34854 -1.92405,-0.35207 -0.366536,0 -0.736953,0.0275 -1.094669,0.11606 -0.35172,0.0868 -0.689328,0.23389 -0.995187,0.43321 v 0 c -0.03316,-0.0868 -0.07373,-0.17145 -0.117827,-0.25435 0.490361,-0.27658 1.052336,-0.43321 1.614311,-0.49212 0.197555,-0.0205 0.395464,-0.0296 0.593725,-0.0296 0.658989,0 1.319036,0.10125 1.968147,0.22296 0.373944,0.0702 0.750005,0.14746 1.098197,0.30233 0.07585,0.0332 0.149578,0.072 0.221192,0.11606 -0.04057,0.0702 -0.07373,0.14217 -0.101247,0.21767 -0.06068,0.16933 -0.0829,0.34254 -0.0755,0.51787 v 0"
         style="fill:#d5c9b3;fill-opacity:1;fill-rule:nonzero;stroke:none;stroke-width:0.0352778"
         id="path912" />
      <path
         d="m 82.756244,149.5825 c -0.09772,-0.14746 -0.208139,-0.28575 -0.329847,-0.41099 v 0 c -0.0074,-0.17533 0.01482,-0.34854 0.0755,-0.51787 0.02752,-0.0755 0.06068,-0.14746 0.101247,-0.21767 v 0 c 0.07549,-0.13617 0.167922,-0.26141 0.259997,-0.38699 0.517878,-0.70768 1.035756,-1.41711 1.551869,-2.12479 -0.28963,0.72249 -0.654402,1.41711 -1.085497,2.06587 -0.140053,0.21202 -0.291394,0.43321 -0.407458,0.66358 -0.147461,0.29668 -0.236008,0.60819 -0.165806,0.92886"
         style="fill:#d5c9b3;fill-opacity:1;fill-rule:nonzero;stroke:none;stroke-width:0.0352778"
         id="path914" />
      <path
         d="m 76.591453,149.0939 c 0.06279,-0.16016 0.08855,-0.3242 0.08855,-0.49001 0,-0.43321 -0.174978,-0.88088 -0.350308,-1.2901 -0.180623,-0.42757 -0.363009,-0.8569 -0.545395,-1.28447 0.403578,0.69639 0.805392,1.39136 1.20897,2.08809 0.0388,0.0663 0.07761,0.13265 0.1143,0.19897 v 0 c 0.0441,0.0829 0.08467,0.16757 0.117827,0.25435 v 0 0 c -0.232127,0.14535 -0.445911,0.32244 -0.633941,0.52317"
         style="fill:#d5c9b3;fill-opacity:1;fill-rule:nonzero;stroke:none;stroke-width:0.0352778"
         id="path916" />
      <path
         d="m 102.47405,170.73403 c -0.10689,-0.004 -0.21378,-0.0149 -0.31891,-0.035 v 0 c -0.12171,-0.1771 -0.19544,-0.40351 -0.29104,-0.60075 -0.28928,-0.59902 -0.86431,-0.99518 -1.36772,-1.4284 -1.459442,-1.25518 -2.439811,-2.96157 -3.564114,-4.52437 -0.278341,-0.387 -0.573264,-0.77047 -0.888294,-1.13912 0.0314,0.15875 0.05715,0.31715 0.08855,0.47378 0.140053,0.67451 0.541867,1.11689 0.917575,1.69369 0.322792,0.49036 0.597253,1.15746 0.717197,1.73249 -0.317147,-0.70979 -0.75565,-1.3656 -1.292225,-1.92793 -0.591608,-0.62089 -1.315861,-1.15182 -1.686277,-1.92582 -0.28187,-0.58808 -0.33902,-1.28093 -0.707673,-1.81892 -0.468136,-0.30233 -0.969433,-0.54751 -1.509183,-0.70767 0.208139,0.29845 0.287514,0.68192 0.215547,1.03928 -0.381353,-0.89006 -1.181453,-1.59032 -2.113844,-1.85208 -0.600781,-0.16792 -1.240367,-0.16051 -1.848556,-0.3041 -0.740833,-0.17497 -1.426633,-0.5789 -1.937102,-1.14441 -0.488245,-0.53834 -0.864306,-1.24954 -1.547989,-1.4986 -0.394406,-0.14358 -0.842081,-0.10865 -1.22555,-0.2801 -0.0829,-0.0367 -0.158397,-0.0811 -0.2286,-0.13265 0.03669,0.002 0.07338,0.004 0.110419,0.004 0.214136,0 0.436386,-0.0391 0.657931,-0.0787 0.221544,-0.0392 0.442736,-0.0783 0.65405,-0.0783 0.200378,0 0.391936,0.0349 0.567972,0.13829 0.226836,0.13299 0.379942,0.35948 0.545747,0.56409 1.055864,1.29187 2.775303,1.8041 4.397375,2.20239 1.621719,0.3997 3.344686,0.80716 4.531783,1.9812 0.377825,0.37571 0.685447,0.81456 0.99307,1.24742 1.760008,2.47721 3.636433,4.87116 5.621161,7.17303 0.19156,0.22119 0.38876,0.45156 0.47554,0.73166 0.0318,0.10365 0.0462,0.20991 0.0462,0.31641 0,0.0599 -0.005,0.11963 -0.0131,0.17928 v 0"
         style="fill:#dbd0bd;fill-opacity:1;fill-rule:nonzero;stroke:none;stroke-width:0.0352778"
         id="path918" />
      <path
         d="m 102.70336,170.98913 c -0.0924,0 -0.18274,-0.0153 -0.26811,-0.0522 l -0.0441,-0.0205 c -0.0977,-0.0532 -0.17321,-0.1287 -0.23601,-0.21731 v 0 0 c 0.10513,0.0201 0.21202,0.0314 0.31891,0.035 v 0 0 0 c 0.031,9.5e-4 0.0621,0.002 0.0931,0.002 0.89605,0 1.80975,-0.48253 2.42428,-1.17009 0.82198,-0.92146 1.22555,-2.13396 1.60726,-3.31012 0.27622,-0.85125 0.51788,-1.81504 0.76271,-2.77354 -0.12136,0.68933 -0.97297,4.66267 -2.05282,6.03215 -0.50518,0.63959 -1.24037,1.03749 -2.00166,1.32853 -0.19191,0.0744 -0.40252,0.14651 -0.6036,0.14651"
         style="fill:#dbd0bd;fill-opacity:1;fill-rule:nonzero;stroke:none;stroke-width:0.0352778"
         id="path920" />
    </g>
  </g>
</svg>
