<?xml version="1.0" encoding="UTF-8" standalone="no"?>
<!-- Created with Inkscape (http://www.inkscape.org/) -->

<svg
   width="210mm"
   height="160mm"
   viewBox="0 0 210 160"
   version="1.1"
   id="svg5527"
   inkscape:version="1.2.1 (9c6d41e410, 2022-07-14)"
   sodipodi:docname="turkish-van.svg"
   xmlns:inkscape="http://www.inkscape.org/namespaces/inkscape"
   xmlns:sodipodi="http://sodipodi.sourceforge.net/DTD/sodipodi-0.dtd"
   xmlns="http://www.w3.org/2000/svg"
   xmlns:svg="http://www.w3.org/2000/svg">
  <sodipodi:namedview
     id="namedview5529"
     pagecolor="#ffffff"
     bordercolor="#000000"
     borderopacity="0.25"
     inkscape:showpageshadow="2"
     inkscape:pageopacity="0.0"
     inkscape:pagecheckerboard="0"
     inkscape:deskcolor="#d1d1d1"
     inkscape:document-units="mm"
     showgrid="false"
     inkscape:zoom="0.50839773"
     inkscape:cx="242.92005"
     inkscape:cy="74.74463"
     inkscape:window-width="1366"
     inkscape:window-height="705"
     inkscape:window-x="-8"
     inkscape:window-y="-8"
     inkscape:window-maximized="1"
     inkscape:current-layer="layer1"
     showguides="false" />
  <defs
     id="defs5524" />
  <g
     inkscape:label="Layer 1"
     inkscape:groupmode="layer"
     id="layer1">
    <path
       d="m 23.946379,75.351946 c -3.013124,3.645421 -5.542359,7.801783 -6.606303,12.410011 -1.063993,4.608229 -0.529487,9.713872 2.139695,13.617293 2.401092,3.51226 6.257294,5.7498 10.165785,7.43089 18.503747,7.96027 39.541795,5.68565 59.649059,6.91487 24.127075,1.47371 48.753235,8.13397 72.049035,1.68616 5.39901,-1.49397 10.87393,-3.88321 14.18387,-8.4021 2.79728,-3.81744 3.70952,-8.75953 3.45491,-13.485765 -0.25476,-4.726285 -1.5833,-9.321035 -2.90358,-13.866889 -2.78552,-9.595863 -5.57271,-19.190006 -8.35823,-28.784196 -24.72395,-2.864764 -22.85229,-4.206931 -47.71791,-3.114309 -12.4016,2.984494 -31.760234,-3.807306 -59.436608,2.379155 -12.352704,2.760233 -28.556591,13.458804 -36.619723,23.21488"
       style="fill:#f3eee9;fill-opacity:1;fill-rule:nonzero;stroke:none;stroke-width:0.168615"
       id="path918" />
    <path
       d="m 167.72062,52.87222 c -13.03896,-1.510792 -18.68078,-2.598348 -24.74923,-3.127787 -7.37014,0.219385 -14.74367,0.547984 -22.01601,-0.02868 -0.31354,0.01434 -0.6289,0.02868 -0.95267,0.03824 -1.68951,0.406268 -3.51054,0.632297 -5.46312,0.733481 -1.28904,0.06663 -4.4244,9.830142 -2.44551,14.971058 2.12415,-3.539602 0.96406,1.031635 1.35648,2.94827 1.89002,-3.368202 0.78086,-1.416734 1.36083,1.422276 0.64851,-2.064485 1.42855,-1.041927 1.27374,1.187098 -0.15481,2.229025 -3.27188,5.843176 0.43739,7.63333 4.83755,2.335278 10.82336,1.920502 15.22927,4.994327 2.45166,1.709768 4.11081,4.304722 6.12743,6.511905 3.68763,4.041699 8.7157,6.839023 14.0945,7.840594 0.82453,0.153426 1.67941,0.266225 2.49214,0.0607 1.72659,-0.438292 2.77539,-2.141416 3.6404,-3.69943 1.69118,-3.041802 3.3824,-6.081931 5.07358,-9.123732 0.94932,-1.708047 1.94244,-3.468383 3.50384,-4.645318 1.29495,-0.977959 2.89172,-1.483787 4.20521,-2.434789 0.68465,-0.494268 -0.90948,-4.312249 1.545,-1.6057 0.0767,-2.907433 -0.60321,-4.128508 1.54909,-2.117294 -2.08745,-7.188079 -4.1749,-14.374389 -6.26236,-21.562468"
       style="fill:#e0d7ce;fill-opacity:1;fill-rule:nonzero;stroke:none;stroke-width:0.168615"
       id="path920"
       sodipodi:nodetypes="cccccccczcccccccccccc" />
    <path
       d="M 113.1688,118.20703 C 111.51299,116.05887 93.715721,102.7501 85.711568,99.018693 79.607748,96.170753 72.982852,94.656615 66.597415,92.50846 60.2137,90.361978 53.851875,87.433167 49.348177,82.423641 45.346961,77.973905 43.068944,72.013378 43.082422,66.029239 c 0.0048,-2.385894 0.376157,-4.766721 1.072405,-7.046411 -7.924858,4.581271 -15.472078,10.636196 -20.208448,16.369118 -3.013124,3.645421 -5.542359,7.801783 -6.606303,12.410011 -1.063993,4.608229 -0.529487,9.713872 2.139695,13.617293 2.401092,3.51226 6.257294,5.7498 10.165785,7.43089 18.503747,7.96027 39.541795,5.68565 59.649059,6.91487 7.924906,0.48389 15.905445,1.52762 23.874185,2.48202"
       style="fill:#e7dfd8;fill-opacity:1;fill-rule:nonzero;stroke:none;stroke-width:0.168615"
       id="path922" />
    <path
       d="m 120.27758,111.74402 c 0.54799,2.95581 2.88498,5.30796 5.51536,6.76145 2.63041,1.45343 5.5879,2.18185 8.43412,3.14972 3.24245,1.10443 6.38544,2.53593 9.72735,3.28293 3.34197,0.74524 7.011,0.7419 10.0039,-0.92404 2.99291,-1.66589 5.03486,-5.30797 4.07545,-8.59597 -3.79383,-1.25278 -7.10879,-3.61679 -10.30239,-6.01783 -3.19356,-2.39937 -6.37865,-4.89658 -10.04773,-6.47988 -3.66736,-1.5833 -7.95693,-2.17005 -11.64957,-0.64411 -3.69265,1.52767 -6.48323,5.53902 -5.75649,9.46773"
       style="fill:#e7dfd8;fill-opacity:1;fill-rule:nonzero;stroke:none;stroke-width:0.168615"
       id="path924" />
    <path
       d="m 180.75117,120.29109 c 0.73855,-0.35895 1.51586,-0.75203 1.95258,-1.4467 0.74863,-1.19042 0.23276,-2.72315 -0.0191,-4.1058 -0.43829,-2.40778 0.0191,-4.87631 0.20552,-7.31617 0.18688,-2.44153 0.043,-5.07195 -1.39278,-7.05315 -1.99134,-2.746706 -6.09374,-3.382396 -9.1895,-1.993007 -3.09404,1.387669 -5.22365,4.395777 -6.32975,7.602807 -1.03025,2.98956 -1.28826,6.24382 -0.73855,9.35812 0.42299,2.40444 1.42982,4.86284 3.44649,6.23536 1.75527,1.19548 4.04337,1.38939 6.12911,0.98809 2.08578,-0.40149 4.02482,-1.34049 5.93524,-2.26955"
       style="fill:#e7dfd8;fill-opacity:1;fill-rule:nonzero;stroke:none;stroke-width:0.168615"
       id="path926" />
    <path
       d="m 91.309562,143.3306 c -6.130826,-0.43016 -12.357722,-1.77047 -17.28805,-4.96574 -3.105848,-2.01156 -5.564249,-4.66893 -8.336288,-7.02108 -5.795296,-4.92187 -12.909147,-8.47796 -19.886397,-12.05933 -6.97897,-3.58305 -18.603259,-5.03314 -24.098394,-10.20962 -5.493463,-5.17815 -7.756281,-11.179111 -7.107113,-18.198564 0.649169,-7.019406 9.503139,-22.61456 17.537594,-23.54869 -2.217268,3.06202 -4.078789,11.875506 -5.188236,15.362482 -1.109494,3.485255 -1.23429,7.297628 0.320235,10.653068 1.520925,3.284607 4.513831,5.891367 7.729324,8.064804 9.806597,6.63164 21.955306,9.92633 33.458192,14.01018 11.504558,4.08219 23.147392,9.49808 29.657576,18.69431 1.520925,2.14816 2.702925,4.97583 1.124694,7.09192 -1.583299,2.11947 -5.024725,2.33026 -7.923233,2.12626"
       style="fill:#d7824a;fill-opacity:1;fill-rule:nonzero;stroke:none;stroke-width:0.168615"
       id="path928" />
    <path
       d="m 144.92396,120.36527 c -0.64917,0.93245 -1.20561,2.04195 -1.02179,3.1632 0.17207,1.05219 0.98805,1.91209 1.93905,2.39603 0.94928,0.48393 2.02842,0.64577 3.08735,0.76043 4.89147,0.52949 9.87236,0.1974 14.65089,-0.96448 1.08588,-0.26479 2.48875,-4.72791 1.37926,-6.31627 -1.68444,-2.41457 -4.3519,-4.19852 -7.27402,-4.69928 -4.8409,-0.8296 -9.95668,1.62713 -12.76074,5.66037"
       style="fill:#ffffff;fill-opacity:1;fill-rule:nonzero;stroke:none;stroke-width:0.168615"
       id="path930" />
    <path
       d="m 185.45385,116.67597 c -2.56293,-1.79743 -5.87961,-2.48029 -8.94335,-1.83958 -3.06541,0.64075 -5.83067,2.595 -7.45779,5.2692 -0.53284,0.87515 -0.95607,1.93063 -0.64076,2.90525 0.39288,1.22243 1.75699,1.8109 2.99123,2.1667 3.63873,1.04372 7.48819,1.34216 11.24154,0.87003 2.17511,-0.27483 4.61162,-1.04033 5.47831,-3.05189 0.9813,-2.27629 -0.64076,-4.89658 -2.66918,-6.31971"
       style="fill:#ffffff;fill-opacity:1;fill-rule:nonzero;stroke:none;stroke-width:0.168615"
       id="path932" />
    <path
       d="m 169.33134,66.70862 c 0,0 0.94701,-4.453639 2.28456,-1.742506 0.13514,-2.637555 0.52576,-3.838033 1.18799,-2.570759 -0.0555,-1.998665 0.21985,-4.880418 0.99619,-3.168468 -0.56138,-3.560112 -0.74421,-5.332561 -1.66485,-7.622654 -1.09434,-2.721423 -2.77371,-5.166345 -4.05518,-7.805129 -2.73495,-5.63513 -3.86973,-12.435343 -8.6938,-16.429819 -3.85788,-3.195228 -9.20465,-3.793828 -14.21251,-3.900079 -6.53045,-0.141477 -13.44365,0.450241 -18.80218,4.18504 -3.94391,2.748428 -6.66366,6.97725 -8.39704,11.46073 -1.73333,4.485153 -2.56126,9.258612 -3.38073,13.99503 -0.48728,2.824281 -1.04599,5.334472 -1.08334,9.481479 0.93874,-2.349426 1.28943,0.717002 1.72892,1.779148 0.49147,-1.579849 1.34481,-1.077436 1.41577,2.766004 0.43337,-2.316218 6.00353,3.853232 8.60522,5.492165 6.16624,3.888274 13.9242,3.977605 21.20835,3.670753 3.52741,-0.15008 7.16274,-0.391452 10.32428,-1.960985 2.0723,-1.028575 3.83091,-2.576457 5.56597,-4.107467 2.02842,-1.790687 5.46505,-3.881076 5.46505,-3.881076"
       style="fill:#f3eee9;fill-opacity:1;fill-rule:nonzero;stroke:none;stroke-width:0.168615"
       id="path934"
       sodipodi:nodetypes="ccccccccccccccccccc" />
    <path
       d="m 166.78989,43.192092 c -6.49671,-10.184331 -14.13833,-11.735606 -17.84617,-13.310445 -3.70784,-1.573166 14.99488,-14.521076 18.98434,-13.175564 2.36563,0.799249 0.23946,28.645922 -1.13817,26.486009"
       style="fill:#d7824a;fill-opacity:1;fill-rule:nonzero;stroke:none;stroke-width:0.168615"
       id="path936" />
    <path
       d="m 118.72463,22.639654 c -1.09429,-0.284866 -5.09723,-1.98799 -5.41928,0.811007 -0.40961,3.561156 1.13478,31.367392 2.68099,27.708445 2.20207,-5.203435 9.39689,-17.289722 17.69441,-18.822452 2.78213,-0.512567 -12.71356,-9.113599 -14.95612,-9.697"
       style="fill:#d7824a;fill-opacity:1;fill-rule:nonzero;stroke:none;stroke-width:0.168615"
       id="path938" />
    <path
       d="m 166.77975,19.833918 c 3.20035,-3.323417 1.35737,16.146531 -0.72502,22.250352 -4.22715,-5.124188 -9.09171,-8.896078 -11.61081,-9.981961 -2.51738,-1.085883 9.13387,-8.945021 12.33583,-12.268391"
       style="fill:#f39e83;fill-opacity:1;fill-rule:nonzero;stroke:none;stroke-width:0.168615"
       id="path940" />
    <path
       d="m 114.18385,24.374706 c -0.14674,3.426227 1.30842,28.146833 2.52751,25.555224 2.86309,-6.085324 7.40555,-10.991992 10.31587,-14.182201 1.71144,-1.878345 -12.6967,-14.797625 -12.84338,-11.373023"
       style="fill:#f39e83;fill-opacity:1;fill-rule:nonzero;stroke:none;stroke-width:0.168615"
       id="path942" />
    <path
       d="m 170.48521,46.754791 c -2.06831,-2.941661 -3.5443,-4.443818 -6.25515,-7.364152 -0.27001,-0.290872 0.45934,0.0759 1.0106,0.217403 -1.24413,-0.969674 -2.31197,-1.3438 -2.47781,-1.509427 -0.31397,-0.313557 0.0301,-0.643776 1.00108,-0.377287 -0.92951,-1.072537 -2.51741,-1.173803 -2.79816,-1.446669 -0.26987,-0.262279 0.79766,-0.520575 1.67911,-0.539847 -1.59377,-0.669107 -3.66387,-1.475368 -4.35765,-1.681982 0.25748,-0.285408 0.24933,-0.598945 1.41227,-0.178278 -1.39831,-1.418281 -2.33837,-1.01064 -3.11151,-0.945801 0.17902,-0.364701 0.0614,-0.432762 0.7031,-0.643758 -0.67367,-0.242158 -2.28988,-0.127188 -2.61965,-0.299746 0.73419,-0.257434 0.99454,-0.214174 2.21884,-0.221503 -1.94788,-1.179516 -4.25376,-0.879148 -4.77468,-1.091328 -1.14184,-0.465091 -2.30036,-0.857222 -3.44707,-1.163451 -0.42155,-0.112573 4.4798,-4.892437 3.98725,-5.242648 -2.38955,-1.699004 -10.78154,-1.031436 -12.501,-0.811728 -2.02856,0.259205 -11.21848,1.278783 -13.0025,3.586847 -0.41122,0.532015 4.5436,3.460764 6.6819,4.515516 -3.38156,1.080218 -7.64065,4.236909 -10.1267,5.124691 1.61906,-0.06578 2.33383,-0.101558 1.88091,0.2326 -0.47787,0.352562 -2.69552,1.068562 -4.79917,2.095272 1.49785,-0.206811 2.34917,-0.01297 1.8832,0.503614 -0.82202,0.9113 -2.95042,1.88195 -4.15168,2.585882 1.80006,-0.166661 1.50491,1.24443 1.20096,1.795577 -0.0857,0.155313 -0.90487,0.54706 -1.81312,0.940876 1.15788,-0.078 0.98551,0.568708 0.66976,1.125142 -1.46023,1.247721 -3.94606,8.04962 -4.23102,9.949904 -0.25476,1.699634 1.36503,1.178759 2.82015,0.229375 1.66337,-2.711544 8.51362,-10.461513 7.77382,-6.82632 2.7012,-0.885883 4.66347,-5.115806 3.66193,-1.478442 1.43097,-0.525473 5.24717,-5.782667 5.49823,-2.437012 9.41771,-4.495584 3.63824,-7.672683 8.91001,-10.55151 3.69486,1.214275 5.96769,3.039726 8.38644,7.053105 0.69802,-2.369237 3.34815,-0.616055 4.4082,1.83804 1.44693,-1.692978 2.16624,-1.092277 3.89957,1.491675 0.89981,-1.724854 1.62161,1.837434 6.60994,3.467499 5.71695,2.66789 5.91781,2.479082 4.16962,-1.942129 z"
       style="fill:#d7824a;fill-opacity:1;fill-rule:nonzero;stroke:none;stroke-width:0.168615"
       id="path944"
       sodipodi:nodetypes="cscscccccccccsssssccscscscccccccccccccc" />
    <path
       d="m 134.85769,55.617302 c 1.47198,-0.308764 2.98277,-1.015097 3.68083,-2.34713 0.74022,-1.407935 0.28822,-3.328436 -1.00157,-4.25922 -0.87003,-0.625558 -1.97953,-0.797529 -3.04686,-0.873429 -1.09769,-0.07743 -2.2004,-0.07408 -3.29809,0.0096 -0.65089,0.05066 -1.31521,0.133352 -1.90028,0.426821 -1.30173,0.652514 -1.92896,2.30832 -1.59176,3.726339 0.33553,1.418067 1.49731,2.552846 2.85296,3.089024 1.35569,0.536227 2.87829,0.527767 4.30477,0.226077"
       style="fill:#231913;fill-opacity:1;fill-rule:nonzero;stroke:none;stroke-width:0.168615"
       id="path946" />
    <path
       d="m 138.12203,52.229838 c 0,0 -0.44021,-3.32509 -4.72796,-3.500454 -4.28785,-0.175412 -4.55087,2.414571 -4.55087,2.414571 0,0 0.8751,3.773562 4.02482,3.916903 3.1514,0.144823 4.55594,-1.605237 5.25401,-2.83102"
       style="fill:#a4a435;fill-opacity:1;fill-rule:nonzero;stroke:none;stroke-width:0.168615"
       id="path948" />
    <path
       d="m 133.39407,48.729384 c -1.11958,-0.0478 -1.96266,0.09798 -2.60002,0.334096 -0.22608,0.456932 -0.35417,0.969547 -0.35417,1.514137 0,1.885132 1.51414,3.414469 3.38072,3.414469 1.86826,0 3.3824,-1.529337 3.3824,-3.414469 0,-0.08412 -0.005,-0.165375 -0.01,-0.24615 -0.67784,-0.780705 -1.83284,-1.520925 -3.79722,-1.601844"
       style="fill:#000000;fill-opacity:1;fill-rule:nonzero;stroke:none;stroke-width:0.168615"
       id="path950" />
    <path
       d="m 134.0517,50.93824 c 0,0.453586 -0.34557,0.82114 -0.77225,0.82114 -0.42682,0 -0.77229,-0.367554 -0.77229,-0.82114 0,-0.453586 0.34557,-0.821187 0.77229,-0.821187 0.42635,0 0.77225,0.367553 0.77225,0.821187"
       style="fill:#ffffff;fill-opacity:1;fill-rule:nonzero;stroke:none;stroke-width:0.168615"
       id="path952" />
    <path
       d="m 154.00554,54.603926 c 1.69289,0.246151 3.50552,-0.04302 4.90332,-1.026903 1.3978,-0.986371 2.30325,-2.726489 2.06551,-4.421058 -0.58507,-0.951002 -1.5799,-1.60691 -2.64891,-1.9357 -1.06901,-0.326927 -2.21225,-0.347479 -3.32342,-0.234202 -1.21403,0.123314 -2.4466,0.419651 -3.43971,1.129712 -0.99315,0.70987 -1.70809,1.895218 -1.59849,3.110915 0.0841,0.944263 0.65423,1.804166 1.413,2.372415 0.75876,0.56825 1.69122,0.868363 2.6287,1.004964"
       style="fill:#231913;fill-opacity:1;fill-rule:nonzero;stroke:none;stroke-width:0.168615"
       id="path954" />
    <path
       d="m 150.4916,51.007353 c 0,0 0.44021,-3.32509 4.72796,-3.500454 4.28957,-0.175412 4.55092,2.416292 4.55092,2.416292 0,0 -0.8751,3.771889 -4.02483,3.91523 -3.15139,0.144823 -4.55598,-1.605237 -5.25405,-2.831068"
       style="fill:#a4a435;fill-opacity:1;fill-rule:nonzero;stroke:none;stroke-width:0.168615"
       id="path956" />
    <path
       d="m 158.51263,49.489822 c 0,-0.541245 -0.1281,-1.050466 -0.35083,-1.505725 -0.66771,-0.318801 -1.6103,-0.532833 -2.94234,-0.477007 -1.60184,0.06596 -2.66578,0.569923 -3.37059,1.176935 -0.0626,0.259534 -0.0994,0.529487 -0.0994,0.805988 0,1.886805 1.51418,3.416142 3.38244,3.416142 1.86654,0 3.38073,-1.529337 3.38073,-3.416142"
       style="fill:#000000;fill-opacity:1;fill-rule:nonzero;stroke:none;stroke-width:0.168615"
       id="path958" />
    <path
       d="m 155.36118,49.852357 c 0,0.453586 -0.34557,0.82114 -0.77224,0.82114 -0.42491,0 -0.77057,-0.367554 -0.77057,-0.82114 0,-0.453587 0.34556,-0.82114 0.77057,-0.82114 0.42634,0 0.77224,0.367553 0.77224,0.82114"
       style="fill:#ffffff;fill-opacity:1;fill-rule:nonzero;stroke:none;stroke-width:0.168615"
       id="path960" />
    <path
       d="m 138.53685,69.531366 c 1.52427,2.151501 4.0906,3.527411 6.72603,3.604985 2.63544,0.07743 5.27762,-1.146585 6.92501,-3.205361 -1.27138,-0.74022 -2.54271,-1.480441 -3.81409,-2.220661 -0.72502,-0.421563 -1.46018,-0.848145 -2.2729,-1.057206 -1.3557,-0.348912 -2.8142,-0.0521 -4.08386,0.541245 -1.26799,0.593534 -2.38083,1.470308 -3.48019,2.336998"
       style="fill:#ffffff;fill-opacity:1;fill-rule:nonzero;stroke:none;stroke-width:0.168615"
       id="path962" />
    <path
       d="m 152.18789,69.93099 c -1.27138,-0.74022 -2.54271,-1.480441 -3.81409,-2.220661 -0.72502,-0.421563 -1.46018,-0.848145 -2.2729,-1.057206 -1.3557,-0.348912 -2.8142,-0.0521 -4.08386,0.541245 -1.26799,0.593534 -2.38083,1.470308 -3.48019,2.336998 0.26288,0.370899 0.55979,0.719955 0.88017,1.042006 2.24929,-0.328838 4.49863,-0.5227 6.74792,-1.042006 1.81095,-0.451675 3.25091,1.077423 5.03319,1.434891 0.35751,-0.315455 0.69127,-0.660974 0.98976,-1.035267"
       style="fill:#e7dfd5;fill-opacity:1;fill-rule:nonzero;stroke:none;stroke-width:0.168615"
       id="path964" />
    <path
       d="m 142.37957,41.355855 c -0.6593,2.542713 -1.52092,5.710984 -1.7165,8.32955 -0.16012,2.141415 -0.42826,4.309788 -1.25279,6.292711 -0.82453,1.982923 -2.27295,3.785416 -4.24741,4.63184 -1.28821,0.551377 -2.8479,0.748633 -3.70111,1.861521 -0.76383,0.99311 -0.68119,2.38422 -0.47031,3.620136 0.18545,1.080817 0.46888,2.205462 1.22583,2.997972 1.29494,1.353972 3.4431,1.273053 5.30796,1.094295 2.9963,-0.288211 6.23875,-0.686258 8.39871,-2.780451 1.61361,2.004862 4.40084,2.648964 6.97391,2.647243 1.46859,0 2.96757,-0.176846 4.30133,-0.792462 1.33542,-0.615472 2.49381,-1.716507 2.92713,-3.122768 0.43352,-1.402868 0.0143,-3.099109 -1.18195,-3.953993 -0.88523,-0.63569 -2.05543,-0.758766 -2.96088,-1.365778 -0.79418,-0.532833 -1.31521,-1.392735 -2.06891,-1.982923 -0.96281,-0.752027 -2.23414,-1.011656 -3.21549,-1.740071 -1.10443,-0.819467 -1.71818,-2.148155 -2.07393,-3.476843 -0.35561,-1.328688 -0.49742,-2.709665 -0.89704,-4.028221 -0.52777,-1.745137 -1.41635,-6.606303 -2.36568,-8.164317 -0.93073,-1.525943 -2.20039,-3.087304 -2.98277,-0.06739"
       style="fill:#ffffff;fill-opacity:1;fill-rule:nonzero;stroke:none;stroke-width:0.168615"
       id="path966" />
    <path
       d="m 146.04187,65.402008 c 0.53957,-0.01912 3.63533,-1.959312 3.79889,-3.001366 0.16346,-1.040333 -0.57159,-2.183571 -3.65555,-2.203789 -3.08396,-0.01912 -4.02483,1.028527 -3.8141,2.367348 0.21079,1.340494 3.13118,2.856352 3.67076,2.837807"
       style="fill:#f76f87;fill-opacity:1;fill-rule:nonzero;stroke:none;stroke-width:0.168615"
       id="path968" />
    <path
       d="m 142.37111,61.89816 c -0.0382,0.210782 -0.0334,0.434946 0,0.666041 0.21079,1.340494 3.13118,2.856352 3.67076,2.837807 0.38619,-0.01434 2.08578,-1.013376 3.07722,-1.962705 -2.37242,0.527766 -4.99266,0.108019 -6.74798,-1.541143"
       style="fill:#e74f61;fill-opacity:1;fill-rule:nonzero;stroke:none;stroke-width:0.168615"
       id="path970" />
    <path
       d="m 147.87304,60.665591 c -0.95942,-0.09416 -1.92729,-0.1128 -2.89005,-0.05736 -0.29682,0.01912 -0.59693,0.03824 -0.88524,0.121403 -0.13144,0.03346 -0.28677,0.121402 -0.27482,0.258099 0.01,0.140043 0.18401,0.195487 0.32358,0.214128 1.6406,0.212693 3.35372,-0.166809 4.93869,0.308763 0.01,-0.273394 -0.18211,-0.520979 -0.42157,-0.652514 -0.24089,-0.130006 -0.51935,-0.165375 -0.79078,-0.192141"
       style="fill:#fcb4c4;fill-opacity:1;fill-rule:nonzero;stroke:none;stroke-width:0.168615"
       id="path972" />
    <path
       d="m 191.80721,61.957189 c -0.39623,-0.06213 -0.82114,-0.128094 -1.26966,-0.197399 -0.22416,-0.03824 -0.4555,-0.06739 -0.69132,-0.09272 -0.23612,-0.0239 -0.47701,-0.0521 -0.72335,-0.08078 -0.97963,-0.109454 -2.02169,-0.226076 -3.06541,-0.342221 -0.25954,-0.02868 -0.52103,-0.05879 -0.78066,-0.08747 -0.13001,-0.01434 -0.25953,-0.02868 -0.38954,-0.04302 -0.13001,-0.0096 -0.2581,-0.01912 -0.38763,-0.02868 -0.51596,-0.03346 -1.02351,-0.0693 -1.51586,-0.102762 -0.98469,-0.06739 -1.90702,-0.128094 -2.70459,-0.182104 -0.23612,-0.01434 -0.47032,-0.03346 -0.69974,-0.0478 -0.23086,-0.0048 -0.45885,-0.0096 -0.68459,-0.01912 -0.45024,-0.0096 -0.89197,-0.0239 -1.32697,-0.03346 -0.86836,-0.0239 -1.71144,-0.04302 -2.55451,-0.06213 -0.84475,-0.03824 -1.68783,0 -2.5562,0.0096 -0.87008,0.01912 -1.7654,0.03346 -2.71301,0.0521 -0.96113,-0.0017 -2.03516,0.101328 -3.16827,0.170155 -0.56653,0.03824 -1.14825,0.07934 -1.73672,0.119491 -0.29347,0.0239 -0.59014,0.04302 -0.88691,0.06214 l -0.44498,0.03346 -0.44499,0.04875 c -1.18706,0.133352 -2.37408,0.266226 -3.50212,0.394319 -0.56319,0.06739 -1.11456,0.1128 -1.64061,0.192141 -0.52442,0.07934 -1.02857,0.155338 -1.50238,0.227511 -0.73009,0.114711 -2.59495,0.404834 -3.32509,0.517633 -0.79079,0.119491 0.56151,0.01912 3.20708,-0.365641 0.37759,-0.0521 0.78405,-0.109454 1.21737,-0.172067 0.21748,-0.02868 0.44164,-0.0607 0.67278,-0.09272 0.23086,-0.0239 0.47032,-0.0478 0.71494,-0.06739 0.97963,-0.09942 2.06384,-0.205524 3.23571,-0.323581 0.29347,-0.02868 0.58507,-0.06261 0.87677,-0.09273 l 0.4383,-0.0478 c 0.14673,-0.01434 0.29347,-0.0239 0.44163,-0.03346 0.58847,-0.03824 1.18033,-0.08078 1.78567,-0.122837 0.60362,-0.03824 1.22077,-0.08269 1.85474,-0.12666 0.63569,-0.03824 1.28992,-0.09942 1.97111,-0.09942 0.89365,-0.01434 1.81765,-0.03346 2.7501,-0.0478 0.93413,-0.0096 1.87668,-0.04875 2.81248,-0.0048 0.93413,0.0239 1.85985,0.05066 2.75684,0.07408 0.89704,0.02868 1.7688,0.03346 2.58826,0.102762 1.25279,0.07743 2.72989,0.166809 4.26257,0.261446 1.52934,0.136697 3.10924,0.306852 4.5762,0.448329 0.36564,0.03824 0.72675,0.06596 1.07408,0.111365 0.34748,0.04875 0.68626,0.09607 1.0117,0.141477 0.65085,0.09272 1.25112,0.176846 1.78056,0.252842 1.0606,0.153426 1.83451,0.264791 2.15656,0.310198 0.76551,0.118057 -0.3035,-0.12666 -3.4701,-0.622212"
       style="fill:#ffffff;fill-opacity:1;fill-rule:evenodd;stroke:none;stroke-width:0.168615"
       id="path974" />
    <path
       d="m 191.77858,69.21266 c -0.38428,-0.112799 -0.80092,-0.234201 -1.23931,-0.362295 -0.21747,-0.06739 -0.44498,-0.12666 -0.67784,-0.180192 -0.23277,-0.05736 -0.46888,-0.116145 -0.70987,-0.175412 -0.96281,-0.236114 -1.98799,-0.489004 -3.01145,-0.740221 -0.25619,-0.06214 -0.51262,-0.12666 -0.7689,-0.188795 -0.12666,-0.02868 -0.25476,-0.06261 -0.38094,-0.09273 -0.12809,-0.0239 -0.25619,-0.0521 -0.38428,-0.07743 -0.50922,-0.101328 -1.0117,-0.202178 -1.49731,-0.30016 -0.9729,-0.194053 -1.88509,-0.376157 -2.6742,-0.532785 -0.23421,-0.0478 -0.46363,-0.09273 -0.69133,-0.138131 -0.22942,-0.03346 -0.45693,-0.07074 -0.67952,-0.106108 -0.44833,-0.07074 -0.88691,-0.138131 -1.31855,-0.205524 -0.86502,-0.133351 -1.70303,-0.264791 -2.54104,-0.394319 -0.83634,-0.144823 -1.68277,-0.219385 -2.55113,-0.320235 -0.86836,-0.09607 -1.76373,-0.195487 -2.71134,-0.30016 -0.95769,-0.12666 -2.0419,-0.165375 -3.18175,-0.242805 -0.56992,-0.03346 -1.15499,-0.07074 -1.74685,-0.106108 -0.29491,-0.01912 -0.59349,-0.03346 -0.89198,-0.05401 l -0.45024,-0.02868 -0.45024,-0.0096 c -1.20055,-0.0239 -2.40104,-0.04302 -3.54261,-0.06213 -0.56988,-0.0048 -1.12632,-0.03346 -1.66082,-0.0239 -0.53284,0.0096 -1.0454,0.0239 -1.52767,0.03346 -0.74356,0.01912 -2.6405,0.06405 -3.38407,0.08269 -0.80264,0.01912 0.55812,0.08747 3.2458,0.0521 0.38428,-0.0048 0.79757,-0.0096 1.23763,-0.01434 0.22082,-0.0017 0.44833,-0.0033 0.68292,-0.0048 0.2342,0.0096 0.47366,0.01912 0.72167,0.0239 0.98977,0.02868 2.08406,0.06214 3.26774,0.09942 0.29681,0.0048 0.59186,0.01434 0.8869,0.01912 l 0.44355,0.0096 c 0.14817,0.0048 0.29682,0.01912 0.44355,0.0239 0.59354,0.03824 1.18874,0.07265 1.79743,0.109454 0.60873,0.03824 1.22755,0.076 1.86659,0.114711 0.63903,0.04302 1.29833,0.07074 1.97785,0.158683 0.89365,0.09942 1.81597,0.20409 2.7501,0.310198 0.93074,0.112799 1.87668,0.195487 2.80407,0.360862 0.92734,0.146734 1.84799,0.291557 2.73996,0.433512 0.89198,0.143389 1.75867,0.262879 2.568,0.438292 1.23931,0.239459 2.70121,0.522699 4.21539,0.8144 1.5074,0.336964 3.06035,0.711543 4.50537,1.043727 0.36086,0.08603 0.71661,0.162029 1.05721,0.249496 0.34079,0.09416 0.67106,0.187362 0.98976,0.274829 0.63737,0.176846 1.22416,0.338875 1.74347,0.482216 1.03698,0.290123 1.79575,0.502482 2.10939,0.590188 0.74863,0.217473 -0.28678,-0.163463 -3.38073,-1.070731"
       style="fill:#ffffff;fill-opacity:1;fill-rule:evenodd;stroke:none;stroke-width:0.168615"
       id="path976" />
    <path
       d="m 191.81567,77.171263 c -0.35751,-0.170155 -0.74189,-0.35417 -1.14826,-0.549657 -0.20074,-0.09942 -0.41152,-0.192141 -0.62895,-0.283432 -0.21747,-0.09273 -0.43829,-0.185449 -0.66264,-0.28152 -0.89872,-0.384282 -1.85478,-0.79251 -2.81081,-1.198873 -0.23945,-0.102762 -0.47887,-0.20409 -0.7166,-0.305418 l -0.35752,-0.151515 c -0.11997,-0.0478 -0.23946,-0.09129 -0.35895,-0.136697 -0.48054,-0.178758 -0.951,-0.357516 -1.40961,-0.529487 -0.91558,-0.342221 -1.77214,-0.66432 -2.51408,-0.942542 -0.21939,-0.08269 -0.43686,-0.163463 -0.65084,-0.242805 -0.21748,-0.07265 -0.4316,-0.143389 -0.64411,-0.212693 -0.4249,-0.138131 -0.83968,-0.274829 -1.24944,-0.40818 -0.81779,-0.268137 -1.61193,-0.527766 -2.40611,-0.787444 -0.79079,-0.274828 -1.60184,-0.480543 -2.42972,-0.716609 -0.8296,-0.230856 -1.68448,-0.468881 -2.58826,-0.721675 -0.91052,-0.274829 -1.95932,-0.483938 -3.05361,-0.740221 -0.54966,-0.124748 -1.11284,-0.251408 -1.68276,-0.380936 -0.28487,-0.06405 -0.5716,-0.128094 -0.85823,-0.194053 l -0.43352,-0.09607 -0.43494,-0.08078 c -1.16508,-0.210782 -2.32854,-0.421563 -3.43464,-0.622164 -0.55477,-0.09607 -1.09095,-0.20887 -1.61198,-0.284866 -0.52102,-0.07265 -1.02011,-0.143389 -1.49052,-0.210781 -0.72507,-0.09942 -2.57646,-0.355604 -3.30148,-0.455021 -0.7841,-0.111365 0.52776,0.175413 3.14633,0.566529 0.37281,0.05736 0.77564,0.118057 1.20561,0.184016 0.21413,0.03346 0.43495,0.0693 0.66265,0.102762 0.22751,0.0478 0.46028,0.09273 0.69974,0.140043 0.95607,0.185449 2.01494,0.390973 3.15986,0.615425 0.28677,0.05401 0.57326,0.106107 0.8599,0.160117 l 0.42825,0.07934 c 0.14339,0.02868 0.28487,0.06405 0.42826,0.09607 0.56992,0.128094 1.14324,0.2581 1.72998,0.391452 0.58512,0.133351 1.18033,0.268137 1.79576,0.40818 0.61375,0.143388 1.25111,0.273394 1.89861,0.466969 0.85149,0.239459 1.73165,0.487283 2.62196,0.736827 0.88858,0.2581 1.79575,0.487331 2.66918,0.795903 0.88017,0.290124 1.7502,0.578335 2.59495,0.856557 0.84308,0.28152 1.66761,0.534506 2.42638,0.834618 1.1668,0.430167 2.54271,0.935803 3.96919,1.461897 1.41128,0.564856 2.86304,1.175262 4.21367,1.726592 0.33696,0.141476 0.67106,0.271482 0.98809,0.412959 0.31689,0.144823 0.62384,0.286778 0.91893,0.422997 0.59187,0.271483 1.13646,0.524421 1.61872,0.745287 0.96109,0.446895 1.66422,0.773917 1.95759,0.908846 0.69133,0.330272 -0.25284,-0.205524 -3.11598,-1.579953"
       style="fill:#ffffff;fill-opacity:1;fill-rule:evenodd;stroke:none;stroke-width:0.168615"
       id="path978" />
    <path
       d="m 177.61158,81.671615 c -0.43829,-0.40818 -0.94254,-0.881841 -1.5074,-1.357366 -0.27817,-0.241371 -0.56657,-0.490676 -0.85995,-0.743566 -0.30016,-0.242805 -0.60534,-0.489004 -0.91052,-0.735154 -1.21909,-0.991486 -2.49381,-1.91209 -3.47851,-2.591609 -1.1702,-0.802643 -2.23414,-1.483835 -3.32003,-2.12961 -0.5345,-0.334096 -1.09262,-0.632297 -1.65915,-0.954348 -0.56318,-0.325492 -1.16345,-0.627278 -1.7924,-0.952675 -0.63397,-0.338875 -1.37252,-0.666041 -2.14137,-1.028575 -0.38285,-0.18545 -0.79084,-0.342222 -1.19548,-0.519307 -0.40818,-0.166809 -0.81273,-0.355604 -1.23257,-0.510942 -0.83467,-0.322146 -1.66594,-0.650841 -2.47193,-0.91893 -0.40149,-0.138132 -0.78912,-0.28152 -1.16847,-0.402923 -0.37759,-0.119968 -0.7419,-0.234202 -1.08421,-0.342221 -0.52103,-0.183538 -1.89016,-0.536178 -2.42132,-0.689604 -0.28677,-0.08078 -0.19405,-0.02868 0.21079,0.112799 0.20217,0.07074 0.48221,0.163463 0.83127,0.274828 0.34891,0.109454 0.7689,0.234202 1.24098,0.396231 0.27148,0.08938 0.56151,0.187361 0.87343,0.290123 0.15534,0.0521 0.31545,0.106108 0.48054,0.16203 0.16347,0.0607 0.33075,0.123314 0.50249,0.187361 0.68965,0.256188 1.45515,0.53116 2.26955,0.86669 1.63894,0.639036 3.22391,1.320228 5.04667,2.232467 2.38756,1.200499 4.96569,2.790537 6.98566,4.190059 0.38285,0.269571 0.80766,0.554723 1.24437,0.868362 0.4316,0.316889 0.88691,0.650842 1.34724,0.989765 0.90884,0.699737 1.84804,1.429873 2.68433,2.144762 0.21078,0.176846 0.42013,0.347478 0.61882,0.519354 0.19548,0.175412 0.38619,0.344133 0.56992,0.507548 0.36421,0.328838 0.70987,0.623837 0.9999,0.900386 0.57666,0.55305 0.99817,0.957741 1.17354,1.126319 0.20744,0.20409 0.17876,0.146734 -0.11471,-0.170155 -0.14674,-0.158684 -0.35895,-0.382848 -0.64238,-0.674453 -0.14148,-0.143389 -0.30016,-0.30494 -0.47701,-0.483889 -0.18402,-0.172067 -0.38428,-0.359428 -0.60195,-0.563183"
       style="fill:#ffffff;fill-opacity:1;fill-rule:evenodd;stroke:none;stroke-width:0.168615"
       id="path980" />
    <path
       d="m 104.6082,63.13747 c 1.43155,-0.198833 3.32342,-0.357516 5.2119,-0.553051 0.94254,-0.104674 1.88847,-0.166809 2.77877,-0.234202 0.89026,-0.06739 1.72325,-0.131439 2.44488,-0.185449 0.21269,-0.01912 0.423,-0.03346 0.63234,-0.04875 0.20744,-0.0096 0.41296,-0.0239 0.6171,-0.03346 0.40627,-0.01912 0.80599,-0.03824 1.19715,-0.0607 0.78577,-0.03824 1.54788,-0.07743 2.30837,-0.116145 0.76211,-0.0478 1.52427,-0.05544 2.30999,-0.07934 0.78577,-0.01912 1.59511,-0.04302 2.45167,-0.06596 0.86668,-0.03824 1.83958,-0.0239 2.86643,-0.03824 1.0269,-0.0048 2.10772,-0.03346 3.18682,-0.0239 1.08081,0.01912 2.15996,0.03346 3.18681,0.04875 0.51429,0.0096 1.0151,0.0096 1.49397,0.02868 0.48054,0.01912 0.94087,0.04302 1.37419,0.0607 0.66771,0.02868 2.37576,0.09798 3.04348,0.124748 0.72334,0.03346 -0.49068,-0.123314 -2.91194,-0.251408 -0.34557,-0.01912 -0.71661,-0.03824 -1.11456,-0.06261 -0.1974,-0.0096 -0.40293,-0.0239 -0.61376,-0.03346 -0.21078,-0.0096 -0.42825,-0.01434 -0.65084,-0.0239 -0.89197,-0.0239 -1.88006,-0.05544 -2.9474,-0.08603 -0.53283,-0.0096 -1.06395,-0.03346 -1.60017,-0.0239 -0.53451,0.0048 -1.07403,0.0096 -1.62374,0.01912 -0.54798,0.0033 -1.10782,0.0096 -1.68615,0.01434 -0.57667,0.0048 -1.1702,0 -1.7873,0.0239 -0.81105,0.01912 -1.64739,0.03824 -2.49214,0.0607 -0.84643,0.0239 -1.70298,0.02868 -2.54945,0.07743 -0.84643,0.03824 -1.68444,0.07934 -2.49717,0.119969 -0.8144,0.03824 -1.60184,0.07074 -2.34545,0.136697 -1.13478,0.09464 -2.47356,0.20409 -3.85955,0.318801 -1.38433,0.143389 -2.81587,0.313544 -4.14289,0.46219 -0.33218,0.03824 -0.65758,0.07265 -0.97289,0.114711 -0.31545,0.04302 -0.62221,0.08747 -0.91558,0.128094 -0.59014,0.08269 -1.13478,0.160117 -1.61533,0.22751 -0.96108,0.13144 -1.66421,0.22751 -1.95591,0.268137 -0.69472,0.08938 0.30016,0.04302 3.17835,-0.315455"
       style="fill:#ffffff;fill-opacity:1;fill-rule:evenodd;stroke:none;stroke-width:0.168615"
       id="path982" />
    <path
       d="m 98.187347,68.347692 c 0.394319,-0.10802 0.821188,-0.222731 1.269708,-0.345567 0.224164,-0.06405 0.456932,-0.118057 0.694675,-0.170155 0.23754,-0.05401 0.48054,-0.108019 0.72674,-0.163463 0.98637,-0.224165 2.03516,-0.46219 3.08228,-0.699737 0.26288,-0.05879 0.52438,-0.118057 0.78573,-0.176846 0.13143,-0.02868 0.26144,-0.05879 0.39097,-0.08747 0.13144,-0.0239 0.26144,-0.04875 0.39145,-0.07265 0.52103,-0.09464 1.03527,-0.188795 1.53268,-0.280086 0.99316,-0.182104 1.92562,-0.35417 2.73156,-0.502482 0.23755,-0.04302 0.47366,-0.08747 0.70485,-0.130006 0.2342,-0.03346 0.46554,-0.06596 0.69467,-0.09798 0.45693,-0.06405 0.90545,-0.12666 1.34556,-0.188795 0.88184,-0.123315 1.7384,-0.242805 2.59328,-0.364208 0.85317,-0.136697 1.71651,-0.197398 2.6017,-0.288211 0.88523,-0.08747 1.79914,-0.178758 2.76362,-0.273395 0.97629,-0.118057 2.08072,-0.153426 3.24078,-0.232768 0.58001,-0.03824 1.17694,-0.07408 1.77888,-0.112799 0.3016,-0.01912 0.60529,-0.03824 0.91052,-0.05736 l 0.45693,-0.02868 0.45885,-0.0096 c 1.22243,-0.0239 2.44659,-0.04875 3.61,-0.07265 0.58173,-0.0048 1.14998,-0.03346 1.6929,-0.0239 0.54463,0.01434 1.06566,0.02868 1.55801,0.03824 0.75709,0.01912 2.69447,0.06213 3.45151,0.07934 0.81947,0.0239 -0.55979,-0.114711 -3.3065,-0.207436 -0.39145,-0.01434 -0.81272,-0.02868 -1.26464,-0.0478 -0.22416,-0.0096 -0.45693,-0.01912 -0.69634,-0.02868 -0.23946,0.0017 -0.48561,0.0017 -0.73855,0.0034 -1.0117,0.0096 -2.13128,0.01912 -3.34196,0.02868 -0.30159,0.0048 -0.60362,0.0096 -0.90713,0.01434 l -0.45167,0.0048 c -0.15151,0.0048 -0.30351,0.01912 -0.45359,0.02868 -0.60534,0.03824 -1.21569,0.07408 -1.83791,0.114711 -0.62049,0.03824 -1.2545,0.07743 -1.90702,0.118057 -0.65256,0.04302 -1.32529,0.06596 -2.02169,0.146734 -0.91391,0.08938 -1.85812,0.180192 -2.81252,0.273395 -0.95435,0.09607 -1.92385,0.158683 -2.87317,0.308763 -0.95268,0.13144 -1.89522,0.261446 -2.80913,0.386194 -0.91387,0.128094 -1.8025,0.234202 -2.63205,0.406268 -1.26798,0.23946 -2.76363,0.524373 -4.31318,0.817747 -1.53942,0.345566 -3.12611,0.74022 -4.5981,1.087603 -0.36755,0.09081 -0.730131,0.170155 -1.077466,0.264792 -0.347479,0.09942 -0.684586,0.195486 -1.009983,0.288211 -0.647496,0.187361 -1.247769,0.35895 -1.775535,0.509221 -1.057206,0.300161 -1.831123,0.519307 -2.153174,0.610359 -0.765552,0.210781 0.342221,-0.0096 3.513885,-0.870036"
       style="fill:#ffffff;fill-opacity:1;fill-rule:evenodd;stroke:none;stroke-width:0.168615"
       id="path984" />
    <path
       d="m 112.06604,71.244479 c 1.10276,-0.396231 2.58822,-0.797528 4.05853,-1.242702 0.73348,-0.229422 1.48044,-0.409614 2.18022,-0.590141 0.70141,-0.18067 1.35565,-0.348912 1.9239,-0.494022 0.16681,-0.04302 0.33409,-0.08747 0.49741,-0.130006 0.16347,-0.03346 0.32693,-0.07074 0.48896,-0.106107 0.32214,-0.07074 0.63736,-0.140043 0.94928,-0.207436 0.62221,-0.134785 1.22416,-0.268137 1.82782,-0.398143 0.60195,-0.143389 1.21231,-0.237547 1.83787,-0.35417 0.62555,-0.112799 1.27138,-0.229422 1.95424,-0.35417 0.68798,-0.140043 1.47203,-0.236114 2.29317,-0.365642 0.41153,-0.06261 0.83294,-0.12666 1.25957,-0.192141 0.21413,-0.03346 0.42826,-0.06405 0.64411,-0.09798 0.21604,-0.03346 0.4316,-0.06548 0.64917,-0.08747 0.87003,-0.101328 1.73839,-0.200744 2.5646,-0.294903 0.41296,-0.04302 0.81612,-0.101328 1.20389,-0.130006 0.38763,-0.02868 0.76049,-0.05401 1.11122,-0.07934 0.53952,-0.03824 1.9205,-0.146734 2.46174,-0.187361 0.5834,-0.04302 -0.40818,-0.07265 -2.37069,0.04875 -0.27818,0.01434 -0.58006,0.03346 -0.90211,0.05066 -0.16012,0.0096 -0.32692,0.01912 -0.49741,0.02868 -0.17016,0.01434 -0.34557,0.03346 -0.5261,0.04875 -0.72167,0.06596 -1.51753,0.141477 -2.37915,0.230856 -0.43017,0.05066 -0.8599,0.08078 -1.28821,0.151514 -0.43016,0.06596 -0.86162,0.13144 -1.30168,0.198833 -0.4402,0.06596 -0.88863,0.134785 -1.35063,0.205524 -0.46219,0.07074 -0.94087,0.130005 -1.43154,0.22751 -0.64745,0.114711 -1.31516,0.234201 -1.98962,0.35417 -0.67617,0.123314 -1.36243,0.224164 -2.03182,0.379502 -0.6711,0.144823 -1.3371,0.286778 -1.98292,0.424909 -0.64577,0.140043 -1.27305,0.264791 -1.85645,0.428254 -0.89198,0.237548 -1.94244,0.515961 -3.03334,0.805941 -1.08082,0.323581 -2.19371,0.682913 -3.2273,1.004964 -0.25619,0.08269 -0.5109,0.156772 -0.75538,0.241371 -0.2428,0.08747 -0.47887,0.172067 -0.70652,0.252842 -0.45502,0.16203 -0.8751,0.313544 -1.24438,0.444983 -0.74022,0.26288 -1.28313,0.453587 -1.50739,0.534506 -0.53958,0.182104 0.24949,-0.0034 2.47694,-0.750353"
       style="fill:#ffffff;fill-opacity:1;fill-rule:evenodd;stroke:none;stroke-width:0.168615"
       id="path986" />
    <path
       d="m 108.64655,79.808421 c 1.19042,-0.657581 2.80574,-1.418067 4.40252,-2.217268 0.79418,-0.406268 1.61025,-0.770571 2.37241,-1.119627 0.76379,-0.352259 1.47705,-0.67952 2.09587,-0.964481 0.1821,-0.08412 0.36229,-0.166809 0.54124,-0.249496 0.18019,-0.07743 0.35895,-0.153426 0.53618,-0.227511 0.35226,-0.151514 0.69807,-0.296814 1.03871,-0.441637 0.67947,-0.288211 1.34045,-0.569923 1.99975,-0.849817 0.65591,-0.290124 1.33036,-0.537899 2.01662,-0.811055 0.68798,-0.269571 1.3978,-0.547984 2.14815,-0.843078 0.75542,-0.310198 1.62206,-0.607013 2.52752,-0.944215 0.90717,-0.326927 1.85478,-0.694719 2.81586,-1.025182 0.96281,-0.323581 1.92729,-0.645775 2.84288,-0.954348 0.45884,-0.15008 0.90378,-0.308764 1.33542,-0.438292 0.43352,-0.128094 0.8481,-0.252842 1.23931,-0.367553 0.60362,-0.184015 2.14309,-0.647496 2.74504,-0.8296 0.65256,-0.194052 -0.47701,0.03824 -2.66918,0.669435 -0.31211,0.08747 -0.64917,0.184015 -1.00999,0.286777 -0.17875,0.05066 -0.36564,0.102762 -0.55644,0.156772 -0.1888,0.05879 -0.38428,0.119491 -0.58507,0.182104 -0.80093,0.251408 -1.68783,0.531112 -2.6439,0.84303 -0.47557,0.160118 -0.95602,0.301595 -1.42648,0.480592 -0.47223,0.1735 -0.94761,0.348912 -1.43322,0.527766 -0.48561,0.178758 -0.97963,0.35895 -1.48885,0.546311 -0.50922,0.188795 -1.03866,0.368987 -1.57824,0.59014 -0.70987,0.276741 -1.44335,0.561463 -2.18524,0.851491 -0.74189,0.290123 -1.49899,0.564856 -2.22907,0.883561 -0.73516,0.310198 -1.46357,0.617098 -2.1701,0.913865 -0.7048,0.298248 -1.39273,0.580055 -2.02675,0.883561 -0.9695,0.453587 -2.11274,0.989765 -3.29976,1.546161 -1.17187,0.585122 -2.37581,1.209007 -3.49371,1.780602 -0.28009,0.144823 -0.55473,0.28152 -0.81947,0.424909 -0.26145,0.143389 -0.51596,0.284865 -0.76211,0.419651 -0.49068,0.271483 -0.94259,0.521027 -1.34217,0.741893 -0.80092,0.440204 -1.38604,0.760439 -1.62885,0.893647 -0.58172,0.310198 0.28009,-0.0607 2.69112,-1.338773"
       style="fill:#ffffff;fill-opacity:1;fill-rule:evenodd;stroke:none;stroke-width:0.168615"
       id="path988" />
    <path
       d="m 15.824307,100.38509 c -1.24157,-2.579958 -2.11031,-6.005941 -1.281172,-7.895927 3.780555,-3.392875 8.586108,-2.705545 11.755941,-2.404166 0.125211,1.162702 0.39135,2.193967 1.45381,4.160702 -0.465777,-0.355462 -1.439336,-1.493763 -1.640546,-0.6803 -0.646232,-0.287934 -1.447302,0.146553 -1.855179,1.01884 -0.751024,-0.328749 -1.459298,-0.04644 -1.599538,0.455016 -0.875853,-0.202961 -1.651813,0.06987 -2.011641,1.267007 -0.585176,-0.64417 -1.612697,0.02283 -1.863095,0.873804 -0.3344,-0.884429 -1.508216,0.07871 -1.548894,0.723764 -0.692463,-1.781773 -1.328884,0.935374 -1.409686,2.48126 z"
       style="fill:#b66028;fill-opacity:1;fill-rule:nonzero;stroke:none;stroke-width:0.168615"
       id="path928-3"
       sodipodi:nodetypes="ccccccccccc" />
    <path
       d="m 30.409466,113.81332 c -2.436006,-0.814 -3.903021,-1.38784 -7.168291,-3.44671 3.780555,-3.39288 10.990765,-7.7286 14.160598,-7.42722 2.141862,1.2928 2.538107,1.36454 4.560102,2.43679 -4.303917,0.88055 -5.945544,0.0261 -3.13677,1.20624 -2.590416,-0.36095 -1.6773,0.10055 -0.521191,1.29484 -1.392706,-0.23771 -1.321299,0.78159 -1.461539,1.28301 -2.888673,-0.7611 -1.853033,-1.34222 -1.643645,1.221 -0.699019,-0.74175 -1.917473,-0.62447 -1.501076,0.4217 -2.692579,-1.43738 -2.026808,0.20881 -0.912791,1.48814 -0.903886,-0.20423 -3.439565,-0.79389 -2.375397,1.52221 z"
       style="fill:#b66028;fill-opacity:1;fill-rule:nonzero;stroke:none;stroke-width:0.168615"
       id="path928-3-1"
       sodipodi:nodetypes="ccccccccccc" />
    <path
       d="m 51.618804,122.3077 c -2.482006,-1.18199 -3.558024,-1.73283 -6.892293,-3.4927 3.780555,-3.39288 9.093142,-7.66076 12.262975,-7.35938 1.984132,0.53218 3.613037,1.05159 6.480724,2.25395 -4.303917,0.88055 -6.33654,0.0721 -3.527766,1.25224 -2.590416,-0.36095 -1.6773,0.10055 -0.521191,1.29484 -1.392706,-0.23771 -1.321299,0.78159 -1.461539,1.28301 -2.888673,-0.7611 -1.853033,-1.34222 -1.643645,1.221 -0.699019,-0.74175 -1.917473,-0.62447 -1.501076,0.4217 -2.692579,-1.43738 -2.026808,0.20881 -0.912791,1.48814 -0.903886,-0.20423 -3.99156,-0.1039 -2.283398,1.6372 z"
       style="fill:#b66028;fill-opacity:1;fill-rule:nonzero;stroke:none;stroke-width:0.168615"
       id="path928-3-1-1"
       sodipodi:nodetypes="ccccccccccc" />
    <path
       d="m 68.65779,133.96677 c -2.470506,-2.02149 -3.443026,-3.14732 -6.547297,-5.36719 3.780555,-3.39288 11.965664,-10.03171 15.135497,-9.73033 2.467128,1.13017 4.291672,1.92115 6.899146,3.43252 -4.303917,0.88055 -7.109006,0.35599 -4.300232,1.53613 -2.590416,-0.36095 -3.011288,1.02054 -1.855179,2.21483 -6.041308,-2.38881 -2.104791,0.43202 -0.817545,2.157 -2.888673,-0.7611 -4.705007,-0.88222 -1.367647,1.405 -1.987008,-0.18975 -2.515468,-0.34847 -2.099071,0.6977 -2.692579,-1.43738 -2.348805,-0.61918 -1.234788,0.66015 -0.903886,-0.20423 -5.521046,1.25309 -3.812884,2.99419 z"
       style="fill:#b66028;fill-opacity:1;fill-rule:nonzero;stroke:none;stroke-width:0.168615"
       id="path928-3-1-1-3"
       sodipodi:nodetypes="ccccccccccc" />
  </g>
</svg>
