<?xml version="1.0" encoding="UTF-8" standalone="no"?>
<!-- Created with Inkscape (http://www.inkscape.org/) -->

<svg
   width="210mm"
   height="270mm"
   viewBox="0 0 210 270"
   version="1.1"
   id="svg7156"
   inkscape:version="1.2.1 (9c6d41e410, 2022-07-14)"
   sodipodi:docname="turkish-angora.svg"
   xmlns:inkscape="http://www.inkscape.org/namespaces/inkscape"
   xmlns:sodipodi="http://sodipodi.sourceforge.net/DTD/sodipodi-0.dtd"
   xmlns="http://www.w3.org/2000/svg"
   xmlns:svg="http://www.w3.org/2000/svg">
  <sodipodi:namedview
     id="namedview7158"
     pagecolor="#ffffff"
     bordercolor="#000000"
     borderopacity="0.25"
     inkscape:showpageshadow="2"
     inkscape:pageopacity="0.0"
     inkscape:pagecheckerboard="0"
     inkscape:deskcolor="#d1d1d1"
     inkscape:document-units="mm"
     showgrid="false"
     inkscape:zoom="0.49085999"
     inkscape:cx="461.43504"
     inkscape:cy="301.51164"
     inkscape:window-width="1366"
     inkscape:window-height="705"
     inkscape:window-x="-8"
     inkscape:window-y="-8"
     inkscape:window-maximized="1"
     inkscape:current-layer="layer1" />
  <defs
     id="defs7153" />
  <g
     inkscape:label="Layer 1"
     inkscape:groupmode="layer"
     id="layer1">
    <g
       id="g7507"
       transform="matrix(5.1876143,0,0,5.1876143,-317.96621,-259.19784)">
      <path
         d="m 98.505443,91.926504 c -0.0325,1.13736 -0.0646,2.27436 -0.0945,3.41136 -0.0162,0.53728 -0.0462,1.1116 -0.39687,1.45556 -0.41734,0.41275 -1.15993,0.37112 -1.83586,0.30657 -0.38276,-0.0371 -0.74048,-0.14746 -0.90875,-0.51435 -0.22366,-0.48648 0.35771,-0.7426 0.61136,-1.1049 0.19579,-0.28117 0.19121,-0.68263 0.17992,-1.06539 -0.0325,-0.99872 -0.1016,-2.10362 -0.75424,-3.01449 v -0.002 c -0.0416,-0.0575 -0.0854,-0.11536 -0.13159,-0.17039 -0.46355,-0.56515 -1.10948,-0.95744 -1.71132,-1.37477 -0.49354,-0.34361 -0.9712,-0.7172 -1.42769,-1.11866 -1.07703,-0.94086 -2.04117,-2.02742 -2.82081,-3.18982 -0.51647,-0.77011 -0.9525,-1.57515 -1.28447,-2.39854 -0.0624,-0.1524 -0.11994,-0.30444 -0.17533,-0.45684 -0.15451,-0.43604 -0.28363,-0.8763 -0.30903,-1.30528 -0.06,-1.05869 0.56727,-1.91911 1.48061,-2.29976 l 0.007,-0.002 c 0.15205,-0.0624 0.31115,-0.11288 0.47731,-0.14781 1.16699,-0.24906 2.5647,0.14993 3.75955,0.89288 0.0667,0.0413 0.14993,0.0692 0.24448,0.085 0.34819,0.0695 0.84631,0.0187 1.19697,0.0787 0.21202,0.0346 0.37113,0.11289 0.40817,0.28363 0.0116,0.0483 0.0208,0.097 0.0325,0.14288 l 0.005,0.0254 c 0.0945,0.43145 0.16369,0.81209 0.22119,1.16028 0.16616,1.03329 0.2099,1.76213 0.37148,2.58304 0.12206,0.60431 0.26281,1.21568 0.46143,1.81751 0.21907,0.68051 0.50729,1.34938 0.9017,1.98826 0.46567,0.75177 1.0795,1.46438 1.33773,2.26483 0.18204,0.56515 0.17075,1.12325 0.15452,1.6697"
         style="fill:#c6c6c6;fill-opacity:1;fill-rule:nonzero;stroke:none;stroke-width:0.0352778"
         id="path386" />
      <path
         d="m 75.452823,85.092844 c 0.005,0.0829 -0.002,0.16581 -0.0233,0.25365 -0.0575,0.24659 -0.20532,0.47731 -0.32526,0.71049 -0.20744,0.40111 -0.34114,0.81845 -0.43357,1.24284 -0.11288,0.51435 -0.16368,1.03787 -0.2099,1.55011 -0.0254,0.27904 -0.0508,0.56056 -0.0762,0.83961 -0.0459,0.51435 -0.0945,1.02623 -0.1404,1.54058 -0.0325,0.35277 -0.067,0.71049 -0.2032,1.05868 -0.0367,0.0945 -0.0808,0.18662 -0.12912,0.27905 -0.0967,0.17992 -0.21202,0.35525 -0.32526,0.52599 -0.39652,0.60184 -0.7934,1.20156 -1.18992,1.8034 -0.35066,0.53058 -0.70591,1.06574 -1.14406,1.52929 -0.11747,0.12453 -0.24447,0.24695 -0.39229,0.31609 -0.15205,0.0713 -0.31115,0.0854 -0.46567,0.0921 -0.68968,0.0392 -1.37018,0.03 -2.03658,-0.03 -0.0762,-0.005 -0.15452,-0.0162 -0.19615,-0.0737 -0.0462,-0.067 -0.0229,-0.16827 0.007,-0.25823 0.18909,-0.56057 0.69885,-1.0541 1.24319,-1.19945 0.17745,-0.0483 0.37112,-0.0691 0.51435,-0.20531 0.0783,-0.0737 0.13123,-0.16828 0.17992,-0.26282 0.2353,-0.44062 0.47025,-0.88124 0.70555,-1.32398 0.10372,-0.19367 0.20779,-0.39193 0.26776,-0.59725 0.0737,-0.26317 0.0691,-0.52352 0.0575,-0.77752 -0.0621,-1.49896 -0.27199,-2.95205 -0.52352,-4.38891 -0.0924,-0.53517 -0.19156,-1.07033 -0.29069,-1.60302 -0.0945,-0.51435 -0.1912,-1.02623 -0.2861,-1.54305 -0.0138,-0.0737 -0.0275,-0.14993 -0.0413,-0.22366 -0.0483,0.0208 -0.3944,-1.69052 -0.38276,-2.39184 0.002,-0.0621 0.0183,-0.11077 0.0504,-0.14746 0.11853,-0.1464 0.43497,-0.133 0.76623,-0.11959 0.30127,0.012 0.61454,0.024 0.80222,-0.0836 0.25153,-0.14287 0.5214,-0.21449 0.78669,-0.28363 0.54187,-0.13829 1.11831,-0.26529 1.57268,-0.0621 0.4244,0.18662 0.64594,0.61101 0.8121,1.07456 h 0.002 c 0.0787,0.21696 0.14534,0.44062 0.21448,0.65299 0.13371,0.40358 0.29775,0.78846 0.49354,1.15535 0.15452,0.29069 0.33443,0.59972 0.33937,0.95038"
         style="fill:#c6c6c6;fill-opacity:1;fill-rule:nonzero;stroke:none;stroke-width:0.0352778"
         id="path388" />
      <path
         d="m 95.142763,81.596114 c -0.01,0.12912 -0.0233,0.2607 -0.0441,0.38982 l -0.007,0.037 v 0.002 c -0.17321,1.03575 -0.64594,2.27189 -0.88582,3.67876 v 0.002 c -0.0399,0.21273 -0.35313,0.0963 -0.68475,-0.0201 -0.26493,-0.0931 -0.54116,-0.18626 -0.69885,-0.11147 -0.29986,0.14287 -0.63888,0.17074 -0.9712,0.17744 -0.88088,0.0141 -1.75753,-0.1083 -2.6363,-0.20743 -0.49354,-0.0554 -0.98708,-0.10619 -1.48308,-0.11994 -0.12912,-0.005 -0.25823,-0.005 -0.38735,-0.002 -1.93957,0.009 -3.84951,0.52352 -5.73158,1.02376 -1.69051,0.44979 -3.41101,0.89041 -5.1502,0.94827 -0.32527,0.0113 -0.65053,0.009 -0.9779,-0.01 -0.272,-0.0159 -0.54434,-0.0437 -0.81422,-0.0854 -1.09996,-0.16369 -2.17734,-0.54434 -3.08151,-1.15535 -0.57644,-0.38735 -1.08162,-0.87171 -1.47602,-1.45521 -0.0254,-0.0395 -0.0508,-0.0787 -0.0762,-0.11782 -0.11289,-0.17745 -0.21661,-0.36195 -0.30657,-0.55104 -0.39899,-0.81668 -0.60219,-1.72085 -0.72425,-2.64337 v -0.007 c -0.0808,-0.58561 -0.127,-1.17828 -0.17074,-1.76177 -0.0945,-1.30775 -0.19368,-2.77495 -0.28822,-4.08482 l -0.005,-0.0508 c 0.75177,-0.66886 1.52682,-1.2707 2.32022,-1.84961 0.6089,-0.44309 1.22696,-0.87207 1.85914,-1.30563 0.14534,-0.1016 0.29281,-0.20073 0.44027,-0.30198 0.19402,0.43815 0.39687,0.87418 0.6043,1.30775 v 0.002 c 0.35772,0.73802 0.7359,1.46474 1.13489,2.18193 0.16157,0.28611 0.33196,0.58138 0.60431,0.768 0.41275,0.2861 0.95955,0.25824 1.45979,0.21449 2.67335,-0.23989 5.33259,-0.64347 8.01265,-0.76341 2.59009,-0.11536 5.22393,0.0416 7.68279,0.84878 h 0.005 c 0.0875,0.0279 0.17074,0.0579 0.25823,0.0878 0.21696,0.0759 0.43815,0.15911 0.60889,0.31115 0.17533,0.15699 0.28611,0.37148 0.39229,0.58138 0.0392,0.0783 0.0783,0.15452 0.11748,0.23284 0.2861,0.5722 0.56515,1.1624 0.77258,1.76459 0.0808,0.23954 0.1524,0.47943 0.20532,0.72178 0.0116,0.0483 0.0208,0.097 0.0325,0.14288 l 0.005,0.0254 c 0.0737,0.38311 0.10618,0.76588 0.0854,1.15323"
         style="fill:#ededed;fill-opacity:1;fill-rule:nonzero;stroke:none;stroke-width:0.0352778"
         id="path390" />
      <path
         d="m 71.158113,85.099544 0.0254,0.06 -0.0254,-0.06"
         style="fill:#ededed;fill-opacity:1;fill-rule:nonzero;stroke:none;stroke-width:0.0352778"
         id="path392" />
      <path
         d="m 98.073993,69.930104 -0.002,0.005 c -0.46355,3.76379 -1.32397,7.48206 -2.56928,11.06593 -0.0695,0.20073 -0.14075,0.40393 -0.22401,0.60219 -0.0554,0.14288 -0.11747,0.28364 -0.18662,0.41981 v 0.002 c -0.1524,0.30691 -0.3369,0.59055 -0.57679,0.83502 -0.1591,-0.59725 -0.35278,-1.18533 -0.57644,-1.75965 -0.1591,-0.40393 -0.33443,-0.80046 -0.52352,-1.18816 -0.0692,-0.14287 -0.14323,-0.28575 -0.21696,-0.42862 -0.0229,-0.0441 -0.0483,-0.0903 -0.0737,-0.13406 -0.36689,-0.68721 -0.78423,-1.34902 -1.24778,-1.97661 -0.19826,-0.272 -0.40816,-0.53728 -0.62512,-0.79552 0.46355,0.0413 0.95497,0.0737 1.40935,-0.002 h 0.005 c 0.33655,-0.0575 0.65263,-0.17286 0.91792,-0.39193 0.45897,-0.37606 0.66428,-0.9712 0.83961,-1.53635 1.07703,-3.51014 1.73426,-7.14763 1.9558,-10.81264 0.15452,-2.50472 0.10372,-5.02073 -0.14993,-7.51875 -0.037,-0.34819 -0.0716,-0.7172 0.0716,-1.0354 0.14534,-0.32068 0.54186,-0.55351 0.85548,-0.39229 0.20532,0.10618 0.30692,0.34149 0.38524,0.56056 0.23989,0.66428 0.42439,1.34691 0.55351,2.04364 0.1591,0.85302 0.23318,1.7205 0.2861,2.58516 0.19826,3.28471 0.0945,6.58742 -0.30692,9.85308"
         style="fill:#ededed;fill-opacity:1;fill-rule:nonzero;stroke:none;stroke-width:0.0352778"
         id="path394" />
      <path
         d="m 69.393163,69.288404 c 0.006,0.0998 0.0861,0.17745 0.16228,0.24236 0.51964,0.44379 1.11477,0.79904 1.75189,1.04669 0.13088,0.0508 0.30233,0.0885 0.3937,-0.0187 -0.44873,-1.1437 -0.43568,-2.42887 -0.89006,-3.57046 -0.0504,-0.127 -0.11641,-0.26176 -0.24024,-0.31856 -0.4198,0.79869 -0.8001,1.61854 -1.13806,2.45498 -0.0212,0.0526 -0.0427,0.10724 -0.0395,0.16369"
         style="fill:#c6c6c6;fill-opacity:1;fill-rule:nonzero;stroke:none;stroke-width:0.0352778"
         id="path396" />
      <path
         d="m 73.766543,73.323124 v 0.002 c -0.0113,0.29528 -0.0621,0.58597 -0.16121,0.86043 -0.0371,0.10619 -0.0787,0.20532 -0.13159,0.30445 -0.0529,0.1083 -0.11748,0.21202 -0.19156,0.31115 -0.45649,0.61595 -1.22237,0.95038 -1.98332,1.03822 -0.0579,0.007 -0.11535,0.0113 -0.17533,0.0138 -0.35066,0.0254 -0.70132,0.009 -1.05163,-0.0346 -0.30233,-0.037 -0.60219,-0.0924 -0.89958,-0.15452 l -0.002,-0.002 c -0.0508,-0.009 -0.0991,-0.0183 -0.14993,-0.03 -0.15663,-0.0346 -0.31574,-0.0713 -0.47272,-0.10831 -0.82127,-0.19614 -1.63513,-0.42686 -2.43558,-0.69885 -0.27905,-0.0924 -0.56268,-0.19614 -0.7934,-0.37818 -0.22613,-0.17991 -0.38064,-0.4198 -0.48683,-0.68756 l -0.002,-0.002 c -0.10618,-0.2607 -0.16827,-0.54892 -0.21449,-0.83255 l -0.009,-0.0579 c -0.009,-0.0554 -0.0187,-0.11077 -0.0254,-0.16616 -0.0162,-0.11289 -0.0325,-0.22578 -0.0254,-0.33655 0.0138,-0.20073 0.0945,-0.38523 0.21661,-0.54433 0.03,-0.0438 0.067,-0.0854 0.10407,-0.12453 h 0.002 c 0.097,-0.10372 0.20779,-0.19615 0.32526,-0.27235 0.32985,-0.21449 0.70591,-0.35031 1.04246,-0.55351 0.67804,-0.41275 1.16487,-1.09326 1.84291,-1.50142 l 0.0183,-0.0116 c 0.28822,-0.17039 0.60889,-0.29034 0.93874,-0.35737 0.1524,-0.03 0.30692,-0.0483 0.46143,-0.0554 h 0.002 c 0.38523,-0.0229 0.77294,0.0187 1.1557,0.0924 0.0808,0.0138 0.16122,0.0321 0.24447,0.0483 0.14288,0.0346 0.28611,0.0737 0.42651,0.11077 0.0716,0.0208 0.14076,0.0413 0.20991,0.0621 l 0.06,0.0187 c 0.1778,0.0554 0.35525,0.11535 0.51893,0.19826 l 0.0716,0.0391 c 0.13617,0.0737 0.2607,0.16616 0.37359,0.26988 0.16616,0.14993 0.30692,0.32738 0.41275,0.52352 0.0808,0.14993 0.14323,0.30692 0.20073,0.46355 0.25365,0.65758 0.49601,1.32609 0.56762,2.0253 l 0.007,0.0646 c 0.0116,0.15451 0.0162,0.30903 0.009,0.46355"
         style="fill:#ededed;fill-opacity:1;fill-rule:nonzero;stroke:none;stroke-width:0.0352778"
         id="path398" />
      <path
         d="m 65.018363,72.142024 c -0.0275,0.06 -0.0554,0.12241 -0.0829,0.1845 l -0.0254,0.0325 c -0.0346,0.0208 -0.0646,-0.0279 -0.0762,-0.067 -0.0116,-0.0367 -0.0483,-0.0829 -0.0783,-0.0575 -0.0833,0.1912 -0.0487,0.41063 -0.0808,0.61806 -0.005,0.03 -0.0183,0.0691 -0.0508,0.0716 h -0.009 l -0.009,-0.0579 c -0.009,-0.0554 -0.0187,-0.11077 -0.0254,-0.16616 -0.0162,-0.11289 -0.0325,-0.22578 -0.0254,-0.33655 0.0138,-0.20073 0.0945,-0.38523 0.21661,-0.54433 0.0624,0.0275 0.12241,0.0575 0.1845,0.0854 l 0.0762,0.0529 c 0.037,0.0533 0.0116,0.12454 -0.0138,0.18451"
         style="fill:#d67f7f;fill-opacity:1;fill-rule:nonzero;stroke:none;stroke-width:0.0352778"
         id="path400" />
      <path
         d="m 66.070353,71.835454 c 0.17674,-0.40499 0.65475,-0.59337 0.89499,-0.96414 0.13723,-0.21166 0.18697,-0.46813 0.20814,-0.71931 0.1009,0.0857 0.13547,0.22366 0.18274,0.34748 0.15134,0.39617 0.49107,0.71579 0.89606,0.84208 -0.35737,0.11889 -0.73978,0.12983 -1.11408,0.16722 -0.37465,0.0378 -0.76094,0.10866 -1.06785,0.32667"
         style="fill:#d8d8d8;fill-opacity:1;fill-rule:nonzero;stroke:none;stroke-width:0.0352778"
         id="path402" />
      <path
         d="m 66.855983,70.908004 c -0.0589,0.11783 -0.0914,0.248 -0.10442,0.37888 l -0.005,0.0699 0.007,0.0448 0.0614,0.0265 c 0.16686,0.009 0.33126,-0.0395 0.49142,-0.0864 l 0.0589,-0.0328 0.019,-0.0501 c 0.037,-0.19156 0.0254,-0.39052 -0.0335,-0.57785 -0.018,-0.0557 -0.0522,-0.11924 -0.11042,-0.12206 l -0.0681,0.0173 c -0.0339,0.018 -0.067,0.0381 -0.0963,0.0614 -0.0938,0.0702 -0.16756,0.16616 -0.22013,0.27058"
         style="fill:#f6f6f6;fill-opacity:1;fill-rule:nonzero;stroke:none;stroke-width:0.0352778"
         id="path404" />
      <path
         d="m 67.126563,70.956684 c -0.0462,0.10831 -0.10407,0.21449 -0.1778,0.31115 -0.0346,0.0441 -0.0854,0.0924 -0.13829,0.0762 l -0.06,-0.0575 c 0.002,-0.0325 0.007,-0.0624 0.0138,-0.0924 0.0162,-0.0991 0.0462,-0.19614 0.0924,-0.28575 0.0392,-0.0787 0.0921,-0.1524 0.15451,-0.21237 l 0.0646,-0.0575 c 0.0367,0.0229 0.0646,0.06 0.0762,0.10125 0.0229,0.0716 0,0.14781 -0.0254,0.21695"
         style="fill:#3aaa35;fill-opacity:1;fill-rule:nonzero;stroke:none;stroke-width:0.0352778"
         id="path406" />
      <path
         d="m 67.050363,70.742204 c -0.0162,0.1083 -0.0829,0.20284 -0.11994,0.30656 -0.0116,0.0346 -0.0208,0.0716 -0.0325,0.10619 -0.0138,0.0346 -0.0392,0.0691 -0.0758,0.0716 l -0.0579,-0.0325 c 0.0162,-0.0991 0.0462,-0.19614 0.0924,-0.28575 0.0392,-0.0787 0.0921,-0.1524 0.15451,-0.21237 l 0.0346,0.0116 0.005,0.0346"
         style="fill:#3c3c3b;fill-opacity:1;fill-rule:nonzero;stroke:none;stroke-width:0.0352778"
         id="path408" />
      <path
         d="m 76.462833,87.394724 c 0.0254,-0.23319 0.0737,-0.46391 0.14993,-0.68968 0.0737,-0.21908 0.17533,-0.43604 0.18238,-0.66887 0.0113,-0.42898 -0.29527,-0.7934 -0.56056,-1.13242 -0.12242,-0.15698 -0.23989,-0.31856 -0.35066,-0.48224 -0.0917,-0.13688 -0.18027,-0.27588 -0.26529,-0.41734 -0.01,-0.0268 -0.024,-0.0515 -0.0438,-0.0737 0.50977,0.58561 1.41605,0.81386 2.19358,1.00789 0.36653,0.0917 0.84208,0.13828 1.38288,0.13828 2.59715,0 6.70172,-1.06997 7.50535,-3.30235 -0.0166,0.21837 -0.0123,0.4385 0.003,0.65687 0.007,0.1016 0.0162,0.20285 0.0279,0.30445 0.10125,0.9204 0.32491,1.82421 0.65723,2.68711 -1.93957,0.009 -3.84951,0.52352 -5.73158,1.02376 -1.69051,0.44979 -3.41101,0.89041 -5.1502,0.94827 m -4.87363,-1.25025 c -0.57644,-0.38735 -1.08162,-0.87171 -1.47602,-1.45521 -0.0254,-0.0395 -0.0508,-0.0787 -0.0762,-0.11782 -0.11289,-0.17745 -0.21661,-0.36195 -0.30657,-0.55104 -0.39899,-0.81668 -0.60219,-1.72085 -0.72425,-2.64337 v -0.007 0 c -0.0808,-0.58561 -0.127,-1.17828 -0.17074,-1.76177 -0.0945,-1.30775 -0.19368,-2.77495 -0.28822,-4.08482 0.15698,0.037 0.31609,0.0737 0.47272,0.10831 0.0508,0.0116 0.0991,0.0208 0.14993,0.03 l 0.002,0.002 c 0.29739,0.0621 0.59725,0.11748 0.89958,0.15452 v 0 0 c -0.51682,1.76883 -0.76129,3.64419 -0.496,5.48005 0.0254,0.17074 0.0529,0.33902 0.0875,0.50976 0.0208,0.1083 0.0441,0.21449 0.0691,0.32279 0.14993,0.63641 0.31856,1.34021 0.52599,1.72509 0.0808,0.1524 0.16828,0.254 0.26282,0.2861 0.0212,0.007 0.042,0.0102 0.0624,0.0102 0.18768,0 0.34573,-0.2787 0.47026,-0.55704 0.12453,-0.27834 0.21554,-0.55703 0.26952,-0.55703 0.003,0 0.006,0.001 0.01,0.004 -0.11147,0.18592 -0.18944,0.39441 -0.23036,0.60678 -0.0737,0.39194 -0.0346,0.80046 0.0716,1.18781 0.0159,0.0621 0.0346,0.12206 0.0529,0.18203 0.0138,0.0462 0.22613,0.79833 0.36195,1.12571 m -0.43109,-1.04493 0.0254,0.06 -0.0254,-0.06 m 23.04803,0.60431 c -0.0229,-0.49106 -0.0138,-0.98495 0.009,-1.4739 0.0487,-1.04705 0.14781,-2.16782 -0.30198,-3.09739 v 0 0 l 0.0254,-0.0321 v 0 c 0.22366,0.57432 0.41734,1.1624 0.57644,1.75965 0.23989,-0.24447 0.42439,-0.52811 0.57679,-0.83502 -0.17321,1.03575 -0.64594,2.27189 -0.88582,3.67876 v 0"
         style="fill:#d8d8d8;fill-opacity:1;fill-rule:nonzero;stroke:none;stroke-width:0.0352778"
         id="path410" />
      <path
         d="m 71.183513,85.159524 -0.0254,-0.06 0.0254,0.06"
         style="fill:#d8d8d8;fill-opacity:1;fill-rule:nonzero;stroke:none;stroke-width:0.0352778"
         id="path412" />
      <path
         d="m 94.515173,82.860114 c -0.1591,-0.59725 -0.35278,-1.18533 -0.57644,-1.75965 0.26282,-0.34396 0.48189,-0.71755 0.67345,-1.10949 0.0716,-0.14323 0.13829,-0.29069 0.20285,-0.43815 0.17992,-0.41522 0.33902,-0.84208 0.49142,-1.26647 0.99871,-2.75837 1.92123,-5.54214 2.76542,-8.35131 -0.46355,3.76379 -1.32397,7.48206 -2.56928,11.06593 -0.0695,0.20073 -0.14075,0.40393 -0.22401,0.60219 -0.0554,0.14288 -0.11747,0.28364 -0.18662,0.41981 v 0.002 0 c -0.1524,0.30691 -0.3369,0.59055 -0.57679,0.83502"
         style="fill:#d8d8d8;fill-opacity:1;fill-rule:nonzero;stroke:none;stroke-width:0.0352778"
         id="path414" />
      <path
         d="m 70.071903,75.818674 v 0 c -0.30233,-0.037 -0.60219,-0.0924 -0.89958,-0.15452 l -0.002,-0.002 c -0.0508,-0.009 -0.0991,-0.0183 -0.14993,-0.03 -0.15663,-0.0346 -0.31574,-0.0713 -0.47272,-0.10831 v 0 c -0.82127,-0.19614 -1.63513,-0.42686 -2.43558,-0.69885 -0.27905,-0.0924 -0.56268,-0.19614 -0.7934,-0.37818 -0.22613,-0.17991 -0.38064,-0.4198 -0.48683,-0.68756 0.37888,0.36865 0.89147,0.60713 1.42593,0.74683 l 0.0148,7e-4 c 0.0134,0 0.0268,0 0.0406,0 0.41064,0 0.87207,-0.0653 1.09785,-0.40393 0.0695,-0.10407 0.10901,-0.22542 0.17533,-0.33161 0.32843,-0.52423 1.10278,-0.46214 1.66052,-0.73025 0.54504,-0.26176 0.8569,-0.83467 1.05904,-1.41181 -0.22825,0.75741 -0.0998,1.59702 -0.27234,2.3689 0.50659,-0.30833 0.93592,-0.72284 1.22661,-1.2513 -0.13618,0.2861 -0.26988,0.5789 -0.39688,0.87665 -0.30198,0.70344 -0.57185,1.43898 -0.79093,2.19569 m 0.23354,-4.18994 c 0.0145,-0.0487 0.0307,-0.0974 0.0487,-0.14535 -0.0155,0.0483 -0.0317,0.097 -0.0487,0.14535"
         style="fill:#d8d8d8;fill-opacity:1;fill-rule:nonzero;stroke:none;stroke-width:0.0352778"
         id="path416" />
      <path
         d="m 76.808903,92.563264 c -0.0533,0.26529 -0.17321,0.51188 -0.29069,0.75636 -0.27658,0.56515 -0.55139,1.1303 -0.82797,1.69545 -0.24236,0.49812 -0.48895,1.0033 -0.83502,1.43686 -0.0921,0.11748 -0.19615,0.23072 -0.32985,0.2974 -0.13582,0.067 -0.29281,0.0787 -0.44521,0.0878 -0.68015,0.0367 -1.36313,0.0275 -2.04328,-0.0279 -0.0762,-0.007 -0.15911,-0.0159 -0.20991,-0.0713 -0.06,-0.0625 -0.0579,-0.15946 -0.0462,-0.24236 0.0762,-0.52599 0.48683,-0.98954 1.00118,-1.12783 0.16828,-0.0437 0.35737,-0.0646 0.47484,-0.19368 0.0624,-0.067 0.0945,-0.15698 0.12453,-0.24694 0.0924,-0.25824 0.1845,-0.51894 0.27482,-0.77929 0.055,-0.15487 0.11041,-0.30938 0.16368,-0.4639 0.0646,-0.18203 0.12912,-0.36901 0.14747,-0.56268 0.0162,-0.1845 -0.0138,-0.36901 -0.0554,-0.55351 -0.0138,-0.06 -0.0275,-0.11747 -0.0438,-0.17745 -0.29068,-1.12112 -0.66886,-2.21438 -1.0862,-3.29353 -0.29986,-0.78423 -0.61842,-1.56175 -0.93874,-2.33645 -0.0854,-0.20531 -0.16863,-0.41063 -0.254,-0.61595 -0.13582,-0.32738 -0.34819,-1.0795 -0.36195,-1.12571 -0.0183,-0.06 -0.037,-0.11995 -0.0529,-0.18203 -0.10618,-0.38735 -0.14534,-0.79587 -0.0716,-1.18781 0.0875,-0.45438 0.34361,-0.89041 0.74048,-1.12783 0.22119,-0.13617 0.47484,-0.20285 0.72884,-0.26776 0.51188,-0.13123 1.06539,-0.24906 1.56139,-0.0596 0.0967,0.0367 0.18662,0.085 0.272,0.14041 0.50306,0.32773 0.79586,0.94333 1.1049,1.48555 0.11747,0.20531 0.242,0.40569 0.37359,0.60184 0.11077,0.16368 0.22824,0.32526 0.35066,0.48224 0.26529,0.33902 0.57185,0.70344 0.56056,1.13242 -0.007,0.23283 -0.10865,0.44979 -0.18238,0.66887 -0.0762,0.22577 -0.12453,0.45649 -0.14993,0.68968 -0.0783,0.63394 -0.005,1.29363 0.0716,1.9371 0.03,0.24906 0.0575,0.49847 0.0875,0.74754 0.0116,0.10371 0.0254,0.2099 0.037,0.31362 0.0462,0.39193 0.0921,0.78175 0.13829,1.17616 0.0392,0.32984 0.0783,0.66675 0.0116,0.99412"
         style="fill:#ededed;fill-opacity:1;fill-rule:nonzero;stroke:none;stroke-width:0.0352778"
         id="path418" />
      <path
         d="m 73.263133,96.859044 c -0.40887,0 -0.81809,-0.0166 -1.22625,-0.0497 -0.0762,-0.007 -0.15911,-0.0159 -0.20991,-0.0713 -0.0409,-0.0423 -0.0529,-0.1009 -0.0526,-0.15981 0,-0.0279 0.003,-0.0561 0.006,-0.0826 0.0762,-0.52599 0.48683,-0.98954 1.00118,-1.12783 0.16828,-0.0437 0.35737,-0.0646 0.47484,-0.19368 0.0624,-0.067 0.0945,-0.15698 0.12453,-0.24694 0.0924,-0.25824 0.1845,-0.51894 0.27482,-0.77929 0.0138,0.45438 0.0275,0.91334 0.0391,1.36984 0.0656,0.0205 0.13124,0.0296 0.19615,0.0296 0.37606,0 0.72848,-0.31503 0.96837,-0.63147 0.99201,-1.30105 1.37689,-2.92241 1.79917,-4.52296 0.0462,0.39193 0.0921,0.78175 0.13829,1.17616 0.024,0.20108 0.048,0.40463 0.0476,0.60713 0,0.12982 -0.01,0.25894 -0.036,0.38699 -0.0533,0.26529 -0.17321,0.51188 -0.29069,0.75636 -0.27658,0.56515 -0.55139,1.1303 -0.82797,1.69545 -0.24236,0.49812 -0.48895,1.0033 -0.83502,1.43686 -0.0921,0.11748 -0.19615,0.23072 -0.32985,0.2974 -0.13582,0.067 -0.29281,0.0787 -0.44521,0.0878 -0.27199,0.0148 -0.54433,0.0219 -0.81703,0.0219"
         style="fill:#d8d8d8;fill-opacity:1;fill-rule:nonzero;stroke:none;stroke-width:0.0352778"
         id="path420" />
      <path
         d="m 95.306453,91.398394 v 0.002 c -0.0416,0.18203 -0.0924,0.36442 -0.14076,0.54434 -0.3115,1.13241 -0.62265,2.2673 -0.93627,3.39972 -0.0554,0.20073 -0.11324,0.40569 -0.18697,0.60184 -0.12453,0.32984 -0.29281,0.63182 -0.56515,0.84666 -0.52106,0.41028 -1.25236,0.37112 -1.91206,0.30657 -0.37359,-0.0371 -0.83255,-0.14746 -0.91087,-0.51435 -0.10372,-0.48437 0.53975,-0.74048 0.88089,-1.09996 0.22366,-0.23531 0.32314,-0.5514 0.39899,-0.8696 0.0162,-0.0646 0.03,-0.12912 0.0441,-0.19156 0.22825,-1.06327 0.44274,-2.23943 -0.0995,-3.18064 -0.32491,-0.56269 -0.87383,-0.95004 -1.3723,-1.36772 -0.2212,-0.18662 -0.43357,-0.3803 -0.63888,-0.5835 -1.10244,-1.09079 -1.96498,-2.42182 -2.52307,-3.86997 -0.33232,-0.8629 -0.55598,-1.76671 -0.65723,-2.68711 -0.0116,-0.1016 -0.0208,-0.20285 -0.0279,-0.30445 -0.0229,-0.33231 -0.0208,-0.66886 0.0416,-0.99624 0.21202,-1.11407 1.13947,-2.01119 2.22568,-2.35056 0.11077,-0.0367 0.22366,-0.0667 0.33902,-0.09 1.22943,-0.24659 2.53012,0.14993 3.54259,0.89041 0.3877,0.28364 0.74507,0.62054 0.99201,1.03576 0.0413,0.0691 0.0783,0.1404 0.11289,0.21202 0.44979,0.92957 0.35066,2.05034 0.30198,3.09739 -0.0229,0.48895 -0.0321,0.98284 -0.009,1.4739 v 0.002 c 0.0279,0.6156 0.10865,1.22449 0.27234,1.81293 0.0459,0.17039 0.10125,0.33902 0.16369,0.50482 0.0483,0.12912 0.1016,0.25612 0.15663,0.38312 0.26317,0.61101 0.57221,1.21073 0.62301,1.87254 0.03,0.37606 -0.0279,0.74966 -0.11536,1.11866"
         style="fill:#ededed;fill-opacity:1;fill-rule:nonzero;stroke:none;stroke-width:0.0352778"
         id="path422" />
      <path
         d="m 92.241523,97.140564 c -0.22649,0 -0.45509,-0.019 -0.67628,-0.0406 -0.37359,-0.0371 -0.83255,-0.14746 -0.91087,-0.51435 -0.007,-0.0349 -0.0113,-0.0688 -0.0113,-0.1016 -0.001,-0.42016 0.57573,-0.66464 0.89218,-0.99836 0.22366,-0.23531 0.32314,-0.5514 0.39899,-0.8696 0.0141,0.10371 0.0233,0.21202 0.0233,0.3182 0.55351,-0.25153 1.01,-0.71966 1.24531,-1.28234 0.06,0.16827 0.11782,0.33655 0.1778,0.50517 0.11535,-0.0533 0.20284,-0.14993 0.28116,-0.24906 0.82338,-1.0287 1.05657,-2.40806 1.10949,-3.72498 0.0229,-0.59055 0.0162,-1.18321 0.0275,-1.77588 0.26317,0.61101 0.57221,1.21073 0.62301,1.87254 0.005,0.0677 0.008,0.13512 0.008,0.2025 3.5e-4,0.30762 -0.0512,0.61348 -0.12312,0.91616 v 0.002 c -0.0416,0.18203 -0.0924,0.36442 -0.14076,0.54434 -0.3115,1.13241 -0.62265,2.2673 -0.93627,3.39972 -0.0554,0.20073 -0.11324,0.40569 -0.18697,0.60184 -0.12453,0.32984 -0.29281,0.63182 -0.56515,0.84666 -0.34643,0.2727 -0.78599,0.34714 -1.23578,0.34714"
         style="fill:#d8d8d8;fill-opacity:1;fill-rule:nonzero;stroke:none;stroke-width:0.0352778"
         id="path424" />
      <path
         d="m 74.763143,81.333294 c -0.52846,-1.69051 0.30445,-3.60504 -0.32067,-5.26344 -0.2032,-0.53482 -0.54434,-1.0033 -0.88336,-1.46685 -0.0279,-0.0367 -0.0554,-0.0759 -0.0854,-0.11289 v 0 0 c 0.0529,-0.0991 0.0945,-0.19826 0.13159,-0.30445 0.0991,-0.27446 0.14993,-0.56515 0.16121,-0.86043 v 0 0 c 0.35772,0.73802 0.7359,1.46474 1.13489,2.18193 0.16157,0.28611 0.33196,0.58138 0.60431,0.768 0.27517,0.19085 0.60995,0.24201 0.95074,0.24201 0.17039,0 0.34219,-0.0127 0.50905,-0.0275 2.67335,-0.23989 5.33259,-0.64347 8.01265,-0.76341 0.48542,-0.0215 0.9726,-0.0335 1.45979,-0.0335 2.11173,0 4.22487,0.22648 6.223,0.88229 -0.19967,0.0335 -0.4064,0.0459 -0.61489,0.0459 -0.266,0 -0.53446,-0.0201 -0.79446,-0.0434 0.21696,0.25824 0.42686,0.52352 0.62512,0.79552 v 0 0 c -0.67133,-0.45191 -1.48307,-0.6597 -2.28811,-0.76553 -0.56374,-0.0741 -1.13065,-0.10337 -1.69863,-0.10337 -1.09537,0 -2.19498,0.10937 -3.28542,0.21873 -1.07703,0.10583 -2.15441,0.21449 -3.23144,0.32279 -1.43686,0.14287 -2.91077,0.29739 -4.20229,0.94333 -1.29152,0.64593 -2.38231,1.90041 -2.40771,3.34433 m 18.36138,-1.70674 c 0.007,-0.0924 0.007,-0.1845 0,-0.27693 v 0 0 c 0.0254,0.0437 0.0508,0.09 0.0737,0.13406 v 0 0 c -0.0254,0.0483 -0.0508,0.0942 -0.0737,0.14287"
         style="fill:#f6f6f6;fill-opacity:1;fill-rule:nonzero;stroke:none;stroke-width:0.0352778"
         id="path426" />
      <path
         d="m 93.198253,79.483684 v 0 c -0.0229,-0.0441 -0.0483,-0.0903 -0.0737,-0.13406 v 0 c -0.0529,-0.75177 -0.52141,-1.45309 -1.13947,-1.90288 -0.0346,-0.025 -0.0713,-0.0505 -0.10831,-0.0737 v 0 c -0.19826,-0.272 -0.40816,-0.53728 -0.62512,-0.79552 0.26,0.0233 0.52846,0.0434 0.79446,0.0434 0.20849,0 0.41522,-0.0123 0.61489,-0.0459 v 0 h 0.005 c 0.33655,-0.0575 0.65263,-0.17286 0.91792,-0.39193 0.45897,-0.37606 0.66428,-0.9712 0.83961,-1.53635 1.07703,-3.51014 1.73426,-7.14763 1.9558,-10.81264 0.0438,0.39229 0.0716,0.78458 0.0875,1.17863 0.0716,1.81751 -0.15663,3.63291 -0.38488,5.43878 -0.16157,1.26612 -0.32067,2.5347 -0.65299,3.76625 -0.33196,1.23649 -0.83009,2.41512 -1.38606,3.57047 -0.27199,0.56973 -0.5581,1.13241 -0.8442,1.69545"
         style="fill:#f6f6f6;fill-opacity:1;fill-rule:nonzero;stroke:none;stroke-width:0.0352778"
         id="path428" />
      <path
         d="m 73.473743,74.490114 c -0.0991,-0.127 -0.21237,-0.24448 -0.35983,-0.30445 -0.0529,-0.0219 -0.11219,-0.0328 -0.1711,-0.0328 -0.15099,0 -0.30127,0.0716 -0.34784,0.21273 0.19367,-0.65053 0.23742,-1.36772 0.127,-2.04823 -0.18697,-1.14865 -0.80751,-2.1911 -1.86619,-2.63384 -0.86255,-0.3623 -1.82669,-0.26529 -2.76755,-0.31609 l 0.0183,-0.0116 c 0.28822,-0.17039 0.60889,-0.29034 0.93874,-0.35737 0.1524,-0.03 0.30692,-0.0483 0.46143,-0.0554 h 0.002 c 0.0723,-0.004 0.14464,-0.006 0.21661,-0.006 0.31361,0 0.62794,0.0388 0.93909,0.0988 0.0808,0.0138 0.16122,0.0321 0.24447,0.0483 0.14288,0.0346 0.28611,0.0737 0.42651,0.11077 0.0716,0.0208 0.14076,0.0413 0.20991,0.0621 l 0.06,0.0187 c 0.1778,0.0554 0.35525,0.11535 0.51893,0.19826 l 0.0716,0.0391 c 0.13617,0.0737 0.2607,0.16616 0.37359,0.26988 0.16616,0.14993 0.30692,0.32738 0.41275,0.52352 0.0808,0.14993 0.14323,0.30692 0.20073,0.46355 0.25365,0.65758 0.49601,1.32609 0.56762,2.0253 l 0.007,0.0646 c 0.008,0.10371 0.0123,0.20743 0.0123,0.3115 3.5e-4,0.0505 -7.1e-4,0.10125 -0.003,0.15205 v 0.002 c -0.0113,0.29528 -0.0621,0.58597 -0.16121,0.86043 -0.0371,0.10619 -0.0787,0.20532 -0.13159,0.30445 v 0"
         style="fill:#f6f6f6;fill-opacity:1;fill-rule:nonzero;stroke:none;stroke-width:0.0352778"
         id="path430" />
      <path
         d="m 71.109783,68.011344 c -0.15487,0.33796 -0.30445,0.67875 -0.44627,1.02341 -0.0324,0.0744 -0.0614,0.14887 -0.0921,0.22225 -0.0212,0.0512 -0.043,0.1076 -0.0395,0.16334 0.007,0.10089 0.0871,0.1778 0.16192,0.24271 0.2861,0.24377 0.59302,0.45967 0.91758,0.64629 0.2353,0.13582 0.48083,0.25506 0.73271,0.35736 0.0342,0.0148 0.067,0.0289 0.10196,0.0423 0.13229,0.0515 0.30339,0.0896 0.3937,-0.0183 -0.11466,-0.29563 -0.20038,-0.59902 -0.27058,-0.90734 -0.16546,-0.72673 -0.24801,-1.47814 -0.45897,-2.19252 -0.0455,-0.15945 -0.0974,-0.31644 -0.15945,-0.47096 -0.0508,-0.12594 -0.11712,-0.26105 -0.2413,-0.3175 -0.20955,0.39829 -0.40887,0.80151 -0.59972,1.20897"
         style="fill:#ededed;fill-opacity:1;fill-rule:nonzero;stroke:none;stroke-width:0.0352778"
         id="path432" />
      <path
         d="m 71.477373,67.651514 c 0.0526,-0.16969 0.10583,-0.34043 0.18944,-0.49706 0.0794,0.94509 0.0155,1.90182 -0.18873,2.82786 -0.12665,-0.19579 -0.25295,-0.39193 -0.37959,-0.58808 -0.0399,-0.0617 -0.18874,-0.21096 -0.19121,-0.28434 -0.001,-0.0462 0.0123,-0.091 0.0258,-0.13476 0.1457,-0.46884 0.39864,-0.85478 0.54434,-1.32362"
         style="fill:#c6c6c6;fill-opacity:1;fill-rule:nonzero;stroke:none;stroke-width:0.0352778"
         id="path434" />
    </g>
  </g>
</svg>
