<?xml version="1.0" encoding="UTF-8" standalone="no"?>
<!-- Created with Inkscape (http://www.inkscape.org/) -->

<svg
   version="1.1"
   id="svg2"
   width="1440"
   height="2560"
   viewBox="0 0 1440 2560"
   sodipodi:docname="28148875_7409980.ai"
   xmlns:inkscape="http://www.inkscape.org/namespaces/inkscape"
   xmlns:sodipodi="http://sodipodi.sourceforge.net/DTD/sodipodi-0.dtd"
   xmlns="http://www.w3.org/2000/svg"
   xmlns:svg="http://www.w3.org/2000/svg">
  <defs
     id="defs6">
    <clipPath
       clipPathUnits="userSpaceOnUse"
       id="clipPath22">
      <path
         d="M 0,0 H 1080 V 1920 H 0 Z"
         id="path20" />
    </clipPath>
    <clipPath
       clipPathUnits="userSpaceOnUse"
       id="clipPath42">
      <path
         d="M 0,1920 H 1080 V 0 H 0 Z"
         id="path40" />
    </clipPath>
    <clipPath
       clipPathUnits="userSpaceOnUse"
       id="clipPath54">
      <path
         d="m 134.95,498.202 c 0,-94.627 170.293,-171.337 380.36,-171.337 v 0 c 210.067,0 380.36,76.71 380.36,171.337 v 0 c 0,94.627 -170.293,171.339 -380.36,171.339 v 0 c -210.067,0 -380.36,-76.712 -380.36,-171.339"
         id="path52" />
    </clipPath>
    <clipPath
       clipPathUnits="userSpaceOnUse"
       id="clipPath74">
      <path
         d="M 0,1920 H 1080 V 0 H 0 Z"
         id="path72" />
    </clipPath>
    <clipPath
       clipPathUnits="userSpaceOnUse"
       id="clipPath234">
      <path
         d="m 375.758,702.56 c 0,-54.041 43.808,-97.848 97.847,-97.848 v 0 c 54.04,0 97.847,43.807 97.847,97.848 v 0 c 0,54.039 -43.807,97.847 -97.847,97.847 v 0 c -54.039,0 -97.847,-43.808 -97.847,-97.847"
         id="path232" />
    </clipPath>
    <clipPath
       clipPathUnits="userSpaceOnUse"
       id="clipPath258">
      <path
         d="M 0,1920 H 1080 V 0 H 0 Z"
         id="path256" />
    </clipPath>
  </defs>
  <sodipodi:namedview
     id="namedview4"
     pagecolor="#ffffff"
     bordercolor="#000000"
     borderopacity="0.25"
     inkscape:showpageshadow="2"
     inkscape:pageopacity="0.0"
     inkscape:pagecheckerboard="0"
     inkscape:deskcolor="#d1d1d1" />
  <g
     id="g8"
     inkscape:groupmode="layer"
     inkscape:label="28148875_7409980"
     transform="matrix(1.3333333,0,0,-1.3333333,0,2560)">
    <path
       d="M 0,0 H 1080 V 1920 H 0 Z"
       style="fill:#ffffff;fill-opacity:1;fill-rule:nonzero;stroke:none"
       id="path10" />
    <g
       id="g12"
       transform="translate(100.3546,684.131)">
      <path
         d="M 0,0 H 877.819"
         style="fill:none;stroke:#192037;stroke-width:2;stroke-linecap:round;stroke-linejoin:miter;stroke-miterlimit:10;stroke-dasharray:none;stroke-opacity:1"
         id="path14" />
    </g>
    <g
       id="g16">
      <g
         id="g18"
         clip-path="url(#clipPath22)">
        <g
           id="g24"
           transform="translate(-109.2851,269.7912)">
          <path
             d="m 0,0 c 0,0 131.694,111.748 260.504,-1.29 118.141,-103.674 1.458,-199.274 -6.729,-154.249 -8.186,45.024 192.379,110.515 192.379,-159.634"
             style="fill:none;stroke:#192037;stroke-width:2;stroke-linecap:round;stroke-linejoin:miter;stroke-miterlimit:10;stroke-dasharray:none;stroke-opacity:1"
             id="path26" />
        </g>
        <g
           id="g28"
           transform="translate(722.7188,1930.0553)">
          <path
             d="m 0,0 c -5.997,-41.603 27.985,-165.535 171.616,-177.637 102.347,-8.624 98.235,102.053 48.263,94.057 -33.239,-5.318 -36.22,-154.273 186.579,-136.209"
             style="fill:none;stroke:#192037;stroke-width:2;stroke-linecap:round;stroke-linejoin:miter;stroke-miterlimit:10;stroke-dasharray:none;stroke-opacity:1"
             id="path30" />
        </g>
        <g
           id="g32"
           transform="translate(668.0025,715.9308)">
          <path
             d="m 0,0 c 9.983,2.727 20.039,5.751 29.934,9.098 71.478,24.177 132.445,-30.483 84.092,-103.012 -48.353,-72.529 -74.632,60.967 40.995,29.432 115.626,-31.535 125.086,-151.366 87.245,-219.691 -37.841,-68.324 -50.455,-238.611 179.747,-222.844"
             style="fill:none;stroke:#192037;stroke-width:2;stroke-linecap:round;stroke-linejoin:miter;stroke-miterlimit:10;stroke-dasharray:none;stroke-opacity:1"
             id="path34" />
        </g>
      </g>
    </g>
    <g
       id="g36">
      <g
         id="g38"
         clip-path="url(#clipPath42)">
        <g
           id="g44"
           transform="translate(895.67,498.2023)">
          <path
             d="m 0,0 c 0,-94.627 -170.293,-171.338 -380.36,-171.338 -210.067,0 -380.36,76.711 -380.36,171.338 0,94.627 170.293,171.338 380.36,171.338 C -170.293,171.338 0,94.627 0,0"
             style="fill:#ffb8c5;fill-opacity:1;fill-rule:nonzero;stroke:none"
             id="path46" />
        </g>
      </g>
    </g>
    <g
       id="g48">
      <g
         id="g50"
         clip-path="url(#clipPath54)">
        <g
           id="g56"
           transform="translate(123.0748,369.3293)">
          <path
             d="m 0,0 c 6.841,2.103 189.255,170.321 159.613,279.663 -29.642,109.342 257.66,155.603 246.26,96.726 C 394.472,317.512 175.574,90.417 214.337,-90.418 c 38.764,-180.835 266.782,-117.753 246.26,-75.698 -20.522,42.054 -79.806,420.547 191.535,475.218 271.342,54.67 -111.729,-166.117 -36.483,-386.904"
             style="fill:none;stroke:#ffffff;stroke-width:2;stroke-linecap:round;stroke-linejoin:miter;stroke-miterlimit:10;stroke-dasharray:none;stroke-opacity:1"
             id="path58" />
        </g>
      </g>
    </g>
    <text
       xml:space="preserve"
       transform="matrix(1,0,0,-1,333.2227,1580.2705)"
       style="font-variant:normal;font-weight:normal;font-stretch:normal;font-size:59.0885px;font-family:'Baloo 2';-inkscape-font-specification:Baloo2-Regular;writing-mode:lr-tb;fill:#192037;fill-opacity:1;fill-rule:nonzero;stroke:none"
       id="text62"><tspan
         x="0 15.481187 54.479595 85.382881 116.75887 151.562 190.56041 222.87592 253.77921 269.26038 309.97235 348.97076 383.95117"
         y="0"
         sodipodi:role="line"
         id="tspan60">INTERNATIONAL</tspan></text>
    <text
       xml:space="preserve"
       transform="matrix(1,0,0,-1,217.3589,1219.5664)"
       style="font-variant:normal;font-weight:bold;font-stretch:normal;font-size:362.363px;font-family:Amatic;-inkscape-font-specification:Amatic-Bold;writing-mode:lr-tb;fill:#192037;fill-opacity:1;fill-rule:nonzero;stroke:none"
       id="text66"><tspan
         x="0 114.86904 222.09222 309.05933 350.36868 454.40308 565.17743"
         y="0"
         sodipodi:role="line"
         id="tspan64">CAT DAY</tspan></text>
    <g
       id="g68">
      <g
         id="g70"
         clip-path="url(#clipPath74)">
        <g
           id="g76"
           transform="translate(794.9991,983.8312)">
          <path
             d="m 0,0 c -5.439,4.886 -13.867,4.177 -18.344,-1.603 -16.856,-21.76 -54.591,-72.617 -46.617,-81.92 7.754,-9.047 64.635,-12.199 91.468,-13.19 7.733,-0.286 13.85,6.42 12.906,14.1 C 36.934,-62.469 28.521,-25.62 0,0"
             style="fill:#192037;fill-opacity:1;fill-rule:nonzero;stroke:none"
             id="path78" />
        </g>
        <g
           id="g80"
           transform="translate(790.6207,931.9377)">
          <path
             d="M 0,0 C 2.724,0 110.772,12.711 169.79,86.257"
             style="fill:none;stroke:#192037;stroke-width:2;stroke-linecap:round;stroke-linejoin:miter;stroke-miterlimit:10;stroke-dasharray:none;stroke-opacity:1"
             id="path82" />
        </g>
        <g
           id="g84"
           transform="translate(954.272,1043.9728)">
          <path
             d="m 0,0 c -3.248,-5.037 -11.783,-39.881 -7.251,-40.787 4.532,-0.906 34.841,1.86 41.24,9.064 3.613,4.067 -23.113,8.61 -23.113,8.61 C 10.876,-23.113 5.75,8.916 0,0"
             style="fill:#192037;fill-opacity:1;fill-rule:nonzero;stroke:none"
             id="path86" />
        </g>
        <g
           id="g88"
           transform="translate(920.6837,1003.6418)">
          <path
             d="M 0,0 C 0,0 0.467,-22.433 19.628,-25.704"
             style="fill:none;stroke:#192037;stroke-width:2;stroke-linecap:round;stroke-linejoin:miter;stroke-miterlimit:10;stroke-dasharray:none;stroke-opacity:1"
             id="path90" />
        </g>
        <g
           id="g92"
           transform="translate(895.3961,991.0236)">
          <path
             d="M 0,0 C 0,0 0.603,-28.958 25.339,-33.182"
             style="fill:none;stroke:#192037;stroke-width:2;stroke-linecap:round;stroke-linejoin:miter;stroke-miterlimit:10;stroke-dasharray:none;stroke-opacity:1"
             id="path94" />
        </g>
        <g
           id="g96"
           transform="translate(870.5367,984.3254)">
          <path
             d="M 0,0 C 0,0 -4.285,-34.757 24.583,-44.087"
             style="fill:none;stroke:#192037;stroke-width:2;stroke-linecap:round;stroke-linejoin:miter;stroke-miterlimit:10;stroke-dasharray:none;stroke-opacity:1"
             id="path98" />
        </g>
        <g
           id="g100"
           transform="translate(838.2242,982.8537)">
          <path
             d="M 0,0 C 0,0 -11.529,-47.014 26.583,-64.512"
             style="fill:none;stroke:#192037;stroke-width:2;stroke-linecap:round;stroke-linejoin:miter;stroke-miterlimit:10;stroke-dasharray:none;stroke-opacity:1"
             id="path102" />
        </g>
        <g
           id="g104"
           transform="translate(777.3956,945.7443)">
          <path
             d="m 0,0 c 0,-4.642 3.763,-8.404 8.404,-8.404 4.642,0 8.405,3.762 8.405,8.404 0,4.642 -3.763,8.404 -8.405,8.404 C 3.763,8.404 0,4.642 0,0 Z"
             style="fill:none;stroke:#ffffff;stroke-width:2;stroke-linecap:round;stroke-linejoin:miter;stroke-miterlimit:10;stroke-dasharray:none;stroke-opacity:1"
             id="path106" />
        </g>
        <g
           id="g108"
           transform="translate(489.6954,999.3166)">
          <path
             d="m 0,0 c 0,0 2.139,113.923 8.479,110.753 6.34,-3.17 72.05,-86.377 65.709,-86.377 -6.34,0 -104.228,17.788 -102.114,23.071 2.113,5.284 91.934,45.439 94.047,38.042 C 68.234,78.092 2.113,-2.113 0,0 Z"
             style="fill:none;stroke:#192037;stroke-width:2;stroke-linecap:round;stroke-linejoin:miter;stroke-miterlimit:10;stroke-dasharray:none;stroke-opacity:1"
             id="path110" />
        </g>
        <g
           id="g112"
           transform="translate(740.3428,121.7297)">
          <path
             d="M 0,0 C 0,0 68.268,89.953 71.238,83.517 74.208,77.08 73.532,-28.942 68.581,-24.98 63.63,-21.02 2.868,63.653 7.819,66.458 12.77,69.264 103.433,34.873 100.462,27.777 97.491,20.681 0.33,-2.971 0,0"
             style="fill:#f87b00;fill-opacity:1;fill-rule:nonzero;stroke:none"
             id="path114" />
        </g>
        <g
           id="g116"
           transform="translate(222.6304,1732.8751)">
          <path
             d="m 0,0 c 0,-23.963 -19.426,-43.389 -43.389,-43.389 -23.963,0 -43.388,19.426 -43.388,43.389 0,23.962 19.425,43.388 43.388,43.388 C -19.426,43.388 0,23.962 0,0"
             style="fill:#f87b00;fill-opacity:1;fill-rule:nonzero;stroke:none"
             id="path118" />
        </g>
        <g
           id="g120"
           transform="translate(129.4864,1783.6105)">
          <path
             d="m 0,0 -3.734,37.964 c 0,0 25.72,-32.096 50.87,-22.422 25.151,9.673 40.629,20.313 40.629,20.313 0,0 -9.674,-51.268 21.281,-56.105 30.954,-4.836 45.465,-2.902 45.465,-2.902 0,0 -53.204,-28.053 -45.465,-60.942 7.739,-32.889 11.608,-43.53 11.608,-43.53 0,0 -43.53,46.432 -71.583,-5.804 0,0 -15.477,53.203 -61.909,23.216 0,0 21.281,48.367 -25.151,59.975 0,0 39.924,7.674 37.989,50.237 z"
             style="fill:none;stroke:#192037;stroke-width:2;stroke-linecap:round;stroke-linejoin:miter;stroke-miterlimit:10;stroke-dasharray:none;stroke-opacity:1"
             id="path122" />
        </g>
        <g
           id="g124"
           transform="translate(214.9586,982.6486)">
          <path
             d="m 0,0 c 0,0 -45.507,82.939 -26.219,92.705 15.775,7.987 25.704,-21.8 25.704,-21.8 0,0 8.44,26.312 23.829,23.83 C 44.757,91.276 0,0 0,0"
             style="fill:#ffb8c5;fill-opacity:1;fill-rule:nonzero;stroke:none"
             id="path126" />
        </g>
        <g
           id="g128"
           transform="translate(537.6973,90.9914)">
          <path
             d="m 0,0 c 0,0 -45.507,82.939 -26.22,92.705 15.776,7.987 25.705,-21.8 25.705,-21.8 0,0 8.44,26.312 23.829,23.83 C 44.757,91.276 0,0 0,0 Z"
             style="fill:none;stroke:#192037;stroke-width:2;stroke-linecap:round;stroke-linejoin:miter;stroke-miterlimit:10;stroke-dasharray:none;stroke-opacity:1"
             id="path130" />
        </g>
        <g
           id="g132"
           transform="translate(957.0484,1488.465)">
          <path
             d="m 0,0 c -2.388,-5.843 -6.926,-15.599 -12.182,-20.116 -1.346,-1.157 -1.109,-3.299 0.464,-4.121 4.385,-2.292 11.124,-6.757 15.172,-14.029 0.966,-1.734 3.488,-1.651 4.407,0.109 2.789,5.343 7.845,13.798 13.904,18.349 1.416,1.064 1.376,3.188 -0.116,4.143 C 17.305,-12.884 9.832,-7.378 4.376,0.484 3.246,2.113 0.75,1.835 0,0 Z"
             style="fill:none;stroke:#192037;stroke-width:2;stroke-linecap:round;stroke-linejoin:miter;stroke-miterlimit:10;stroke-dasharray:none;stroke-opacity:1"
             id="path134" />
        </g>
        <g
           id="g136"
           transform="translate(417.0284,1842.3698)">
          <path
             d="m 0,0 c -3.514,-5.243 -9.922,-13.887 -15.979,-17.255 -1.551,-0.862 -1.75,-3.008 -0.375,-4.129 3.835,-3.128 9.538,-8.857 12.041,-16.795 0.597,-1.893 3.084,-2.318 4.338,-0.779 3.807,4.672 10.46,11.937 17.311,15.178 1.601,0.757 1.989,2.845 0.72,4.081 C 14.36,-16.101 8.147,-9.205 4.384,-0.406 3.604,1.417 1.104,1.647 0,0 Z"
             style="fill:none;stroke:#192037;stroke-width:2;stroke-linecap:round;stroke-linejoin:miter;stroke-miterlimit:10;stroke-dasharray:none;stroke-opacity:1"
             id="path138" />
        </g>
        <g
           id="g140"
           transform="translate(95.3179,1227.3776)">
          <path
             d="m 0,0 c -2.388,-5.843 -6.927,-15.599 -12.182,-20.116 -1.346,-1.157 -1.109,-3.299 0.463,-4.121 4.386,-2.292 11.125,-6.757 15.173,-14.029 0.965,-1.734 3.488,-1.651 4.406,0.109 2.79,5.343 7.846,13.798 13.905,18.349 1.415,1.064 1.376,3.188 -0.116,4.143 C 17.305,-12.884 9.832,-7.378 4.376,0.484 3.246,2.113 0.75,1.835 0,0 Z"
             style="fill:none;stroke:#192037;stroke-width:2;stroke-linecap:round;stroke-linejoin:miter;stroke-miterlimit:10;stroke-dasharray:none;stroke-opacity:1"
             id="path142" />
        </g>
        <g
           id="g144"
           transform="translate(903.3409,805.8415)">
          <path
             d="m 0,0 c -3.514,-5.244 -9.922,-13.887 -15.979,-17.255 -1.551,-0.863 -1.75,-3.008 -0.375,-4.13 3.835,-3.128 9.538,-8.856 12.041,-16.794 0.597,-1.893 3.084,-2.318 4.338,-0.779 3.807,4.672 10.46,11.937 17.311,15.177 1.601,0.757 1.989,2.846 0.72,4.081 C 14.36,-16.102 8.147,-9.205 4.384,-0.406 3.604,1.417 1.104,1.647 0,0 Z"
             style="fill:none;stroke:#192037;stroke-width:2;stroke-linecap:round;stroke-linejoin:miter;stroke-miterlimit:10;stroke-dasharray:none;stroke-opacity:1"
             id="path146" />
        </g>
        <g
           id="g148"
           transform="translate(596.315,1804.6544)">
          <path
             d="m 0,0 c 0,-7.809 6.331,-14.14 14.14,-14.14 7.809,0 14.139,6.331 14.139,14.14 0,7.809 -6.33,14.14 -14.139,14.14 C 6.331,14.14 0,7.809 0,0"
             style="fill:#192037;fill-opacity:1;fill-rule:nonzero;stroke:none"
             id="path150" />
        </g>
        <g
           id="g152"
           transform="translate(104.2559,935.0671)">
          <path
             d="m 0,0 c 0,-8.59 -6.963,-15.554 -15.554,-15.554 -8.59,0 -15.553,6.964 -15.553,15.554 0,8.59 6.963,15.554 15.553,15.554 C -6.963,15.554 0,8.59 0,0"
             style="fill:#192037;fill-opacity:1;fill-rule:nonzero;stroke:none"
             id="path154" />
        </g>
        <g
           id="g156"
           transform="translate(429.4673,102.2424)">
          <path
             d="m 0,0 c 0,-7.809 -6.331,-14.139 -14.14,-14.139 -7.809,0 -14.139,6.33 -14.139,14.139 0,7.81 6.33,14.14 14.139,14.14 C -6.331,14.14 0,7.81 0,0"
             style="fill:#192037;fill-opacity:1;fill-rule:nonzero;stroke:none"
             id="path158" />
        </g>
        <g
           id="g160"
           transform="translate(949.8062,1305.5255)">
          <path
             d="m 0,0 c 0,-8.59 6.963,-15.554 15.553,-15.554 8.591,0 15.554,6.964 15.554,15.554 0,8.59 -6.963,15.553 -15.554,15.553 C 6.963,15.553 0,8.59 0,0"
             style="fill:#192037;fill-opacity:1;fill-rule:nonzero;stroke:none"
             id="path162" />
        </g>
        <g
           id="g164"
           transform="translate(245.981,873.9304)">
          <path
             d="m 0,0 c -36.138,-33.608 -79.508,-138.56 -58.905,-250.262 24.69,-133.856 142.566,-211.377 278.391,-199.156 182.044,16.379 278.391,134.913 237.703,233.419 -40.688,98.508 -142.762,124.803 -223.178,111.983 0,0 -18.567,23.334 -12.74,55.967 0,0 -50.545,-8.424 -80.496,62.909 l -18.447,-38.627 c 0,0 -37.747,6.291 -102.228,-26.494 z"
             style="fill:#192037;fill-opacity:1;fill-rule:nonzero;stroke:none"
             id="path166" />
        </g>
        <g
           id="g168"
           transform="translate(375.7579,702.8991)">
          <path
             d="m 0,0 c 0,-54.04 43.808,-97.848 97.848,-97.848 54.039,0 97.847,43.808 97.847,97.848 0,54.04 -43.808,97.847 -97.847,97.847 C 43.808,97.847 0,54.04 0,0"
             style="fill:#f87b00;fill-opacity:1;fill-rule:nonzero;stroke:none"
             id="path170" />
        </g>
        <g
           id="g172"
           transform="translate(264.7847,765.5099)">
          <path
             d="M 0,0 C 0,0 9.284,52.609 61.894,26.305 61.894,26.305 41.004,-1.547 0,0"
             style="fill:#ffffff;fill-opacity:1;fill-rule:nonzero;stroke:none"
             id="path174" />
        </g>
        <g
           id="g176"
           transform="translate(326.2925,772.2253)">
          <path
             d="m 0,0 c 0,0 -1.699,13.164 -18.685,19.958 0,0 -8.492,-18.684 -3.397,-31.848 C -16.986,-25.054 0,0 0,0"
             style="fill:#192037;fill-opacity:1;fill-rule:nonzero;stroke:none"
             id="path178" />
        </g>
        <g
           id="g180"
           transform="translate(373.3467,806.5217)">
          <path
             d="M 0,0 C 0,0 7.701,43.641 51.343,21.821 51.343,21.821 34.014,-1.284 0,0"
             style="fill:#ffffff;fill-opacity:1;fill-rule:nonzero;stroke:none"
             id="path182" />
        </g>
        <g
           id="g184"
           transform="translate(400.2891,802.882)">
          <path
             d="m 0,0 c 0,0 -1.409,10.92 -15.5,16.556 0,0 -7.044,-15.499 -2.817,-26.419 C -14.09,-20.783 0,0 0,0"
             style="fill:#192037;fill-opacity:1;fill-rule:nonzero;stroke:none"
             id="path186" />
        </g>
        <g
           id="g188"
           transform="translate(379.3165,550.1935)">
          <path
             d="M 0,0 C 0,0 42.87,3.176 31.756,87.329 20.641,171.481 58.748,171.481 80.977,125.436 103.206,79.39 133.374,65.1 122.26,34.932 111.145,4.764 71.451,25.405 84.153,-15.878"
             style="fill:#192037;fill-opacity:1;fill-rule:nonzero;stroke:none"
             id="path190" />
        </g>
        <g
           id="g192"
           transform="translate(678.6553,701.0749)">
          <path
             d="m 0,0 c 0,0 -23.731,26.698 -25.436,68.165 -2.159,52.52 -50.809,57.16 -87.328,39.694 C -149.283,90.394 -190.566,71.34 -134.993,58.638 -79.421,45.936 -81.008,36.409 -81.008,1.478 -81.008,-33.454 0,0 0,0"
             style="fill:#192037;fill-opacity:1;fill-rule:nonzero;stroke:none"
             id="path194" />
        </g>
        <g
           id="g196"
           transform="translate(480.3907,782.2751)">
          <path
             d="M 0,0 C -6.872,8.863 -6.753,27.252 3.312,32.199 12.765,36.845 24.39,34.7 31.926,31.802 45.518,26.574 51.399,16.303 27.554,3.585 20.849,0.01 3.316,-4.276 0,0"
             style="fill:#192037;fill-opacity:1;fill-rule:nonzero;stroke:none"
             id="path198" />
        </g>
        <g
           id="g200"
           transform="translate(625.8936,476.4679)">
          <path
             d="M 0,0 C 0,0 120.861,74.465 225.183,34.33 351.823,-14.39 386.508,22.87 303.159,73.605 240.303,111.865 110.208,123.304 7.389,48.957 -95.431,-25.389 0,0 0,0"
             style="fill:#192037;fill-opacity:1;fill-rule:nonzero;stroke:none"
             id="path202" />
        </g>
        <g
           id="g204"
           transform="translate(348.5562,782.4411)">
          <path
             d="m 0,0 c 0,0 16.024,10.855 25.845,10.338 l -1.55,-20.676 C 24.295,-10.338 8.271,-1.551 0,0"
             style="fill:#ffb8c5;fill-opacity:1;fill-rule:nonzero;stroke:none"
             id="path206" />
        </g>
        <g
           id="g208"
           transform="translate(500.6339,610.9426)">
          <path
             d="M 0,0 C 0,0 5.267,-14.181 -4.633,-25.718 -22.442,-46.472 0.423,-85.554 13.064,-92.295"
             style="fill:none;stroke:#ffffff;stroke-width:2;stroke-linecap:round;stroke-linejoin:miter;stroke-miterlimit:10;stroke-dasharray:none;stroke-opacity:1"
             id="path210" />
        </g>
        <g
           id="g212"
           transform="translate(355.0147,550.7756)">
          <path
             d="M 0,0 C 0,0 -42.542,71.983 56.032,76.134"
             style="fill:none;stroke:#ffffff;stroke-width:2;stroke-linecap:round;stroke-linejoin:miter;stroke-miterlimit:10;stroke-dasharray:none;stroke-opacity:1"
             id="path214" />
        </g>
        <g
           id="g216"
           transform="translate(553.8365,757.0168)">
          <path
             d="M 0,0 C 0,0 13.46,-2.32 30.469,2.751"
             style="fill:none;stroke:#ffffff;stroke-width:2;stroke-linecap:round;stroke-linejoin:miter;stroke-miterlimit:10;stroke-dasharray:none;stroke-opacity:1"
             id="path218" />
        </g>
        <g
           id="g220"
           transform="translate(634.0425,593.2941)">
          <path
             d="m 0,0 c 0,-3.959 3.209,-7.168 7.168,-7.168 3.959,0 7.169,3.209 7.169,7.168 0,3.96 -3.21,7.169 -7.169,7.169 C 3.209,7.169 0,3.96 0,0 Z"
             style="fill:none;stroke:#ffffff;stroke-width:2;stroke-linecap:round;stroke-linejoin:miter;stroke-miterlimit:10;stroke-dasharray:none;stroke-opacity:1"
             id="path222" />
        </g>
        <g
           id="g224"
           transform="translate(251.4078,818.7585)">
          <path
             d="m 0,0 -5.877,25.859 c 0,0 -10.579,-16.848 -16.064,-36.046 z"
             style="fill:#ffffff;fill-opacity:1;fill-rule:nonzero;stroke:none"
             id="path226" />
        </g>
      </g>
    </g>
    <g
       id="g228">
      <g
         id="g230"
         clip-path="url(#clipPath234)">
        <g
           id="g236"
           transform="translate(411.8008,789.3532)">
          <path
             d="M 0,0 C 0,0 71.383,-73.873 183.437,-49.802"
             style="fill:none;stroke:#ffffff;stroke-width:2;stroke-linecap:round;stroke-linejoin:miter;stroke-miterlimit:10;stroke-dasharray:none;stroke-opacity:1"
             id="path238" />
        </g>
        <g
           id="g240"
           transform="translate(404.3306,729.5905)">
          <path
             d="M 0,0 C 0,0 83.833,-52.292 209.999,-24.071"
             style="fill:none;stroke:#ffffff;stroke-width:2;stroke-linecap:round;stroke-linejoin:miter;stroke-miterlimit:10;stroke-dasharray:none;stroke-opacity:1"
             id="path242" />
        </g>
        <g
           id="g244"
           transform="translate(557.7491,621.3019)">
          <path
             d="M 0,0 C 0,0 -40.926,23.387 -64.729,78.094"
             style="fill:none;stroke:#ffffff;stroke-width:2;stroke-linecap:round;stroke-linejoin:miter;stroke-miterlimit:10;stroke-dasharray:none;stroke-opacity:1"
             id="path246" />
        </g>
        <g
           id="g248"
           transform="translate(594.6671,630.2599)">
          <path
             d="M 0,0 C 0,0 -44.152,16.506 -76.438,66.677"
             style="fill:none;stroke:#ffffff;stroke-width:2;stroke-linecap:round;stroke-linejoin:miter;stroke-miterlimit:10;stroke-dasharray:none;stroke-opacity:1"
             id="path250" />
        </g>
      </g>
    </g>
    <g
       id="g252">
      <g
         id="g254"
         clip-path="url(#clipPath258)">
        <g
           id="g260"
           transform="translate(312.23,703.9377)">
          <path
             d="M 0,0 C 0,0 59.557,57.652 107.954,41.982 145.751,29.745 63.573,8.396 38.384,-41.982 13.194,-92.36 0,0 0,0"
             style="fill:#192037;fill-opacity:1;fill-rule:nonzero;stroke:none"
             id="path262" />
        </g>
        <g
           id="g264"
           transform="translate(376.6929,692.2858)">
          <path
             d="M 0,0 C 0,0 -45.984,-28.926 -70.46,-67.494"
             style="fill:none;stroke:#ffffff;stroke-width:2;stroke-linecap:round;stroke-linejoin:miter;stroke-miterlimit:10;stroke-dasharray:none;stroke-opacity:1"
             id="path266" />
        </g>
        <g
           id="g268"
           transform="translate(389.9698,747.9343)">
          <path
             d="M 0,0 C 0,0 -89.67,-10.406 -144.555,-48.232"
             style="fill:none;stroke:#ffffff;stroke-width:2;stroke-linecap:round;stroke-linejoin:miter;stroke-miterlimit:10;stroke-dasharray:none;stroke-opacity:1"
             id="path270" />
        </g>
        <g
           id="g272"
           transform="translate(570.4649,698.4313)">
          <path
             d="M 0,0 C 0,0 41.112,2.202 97.538,17.5"
             style="fill:none;stroke:#ffffff;stroke-width:2;stroke-linecap:round;stroke-linejoin:miter;stroke-miterlimit:10;stroke-dasharray:none;stroke-opacity:1"
             id="path274" />
        </g>
        <g
           id="g276"
           transform="translate(392.1578,732.5021)">
          <path
             d="M 0,0 C 0,0 19.205,11.846 28.026,13.418"
             style="fill:none;stroke:#ffffff;stroke-width:2;stroke-linecap:round;stroke-linejoin:miter;stroke-miterlimit:10;stroke-dasharray:none;stroke-opacity:1"
             id="path278" />
        </g>
        <g
           id="g280"
           transform="translate(486.4649,800.5778)">
          <path
             d="M 0,0 C 0,0 -7.151,-5.378 -6.074,-18.303"
             style="fill:none;stroke:#ffffff;stroke-width:2;stroke-linecap:round;stroke-linejoin:miter;stroke-miterlimit:10;stroke-dasharray:none;stroke-opacity:1"
             id="path282" />
        </g>
        <g
           id="g284"
           transform="translate(497.7066,796.2062)">
          <path
             d="M 0,0 C 0,0 -6.246,-11.866 -8.119,-15.614"
             style="fill:none;stroke:#ffffff;stroke-width:2;stroke-linecap:round;stroke-linejoin:miter;stroke-miterlimit:10;stroke-dasharray:none;stroke-opacity:1"
             id="path286" />
        </g>
        <g
           id="g288"
           transform="translate(427.7574,741.2458)">
          <path
             d="M 0,0 C 0,0 -14.989,-9.993 -20.61,-15.613"
             style="fill:none;stroke:#ffffff;stroke-width:2;stroke-linecap:round;stroke-linejoin:miter;stroke-miterlimit:10;stroke-dasharray:none;stroke-opacity:1"
             id="path290" />
        </g>
        <g
           id="g292"
           transform="translate(420.2628,705.0222)">
          <path
             d="M 0,0 C 0,0 -4.997,-3.123 0,-21.859"
             style="fill:none;stroke:#ffffff;stroke-width:2;stroke-linecap:round;stroke-linejoin:miter;stroke-miterlimit:10;stroke-dasharray:none;stroke-opacity:1"
             id="path294" />
        </g>
        <g
           id="g296"
           transform="translate(429.6309,705.6467)">
          <path
             d="M 0,0 C 0,0 -1.874,-6.87 1.874,-18.736"
             style="fill:none;stroke:#ffffff;stroke-width:2;stroke-linecap:round;stroke-linejoin:miter;stroke-miterlimit:10;stroke-dasharray:none;stroke-opacity:1"
             id="path298" />
        </g>
        <g
           id="g300"
           transform="translate(523.9376,765.6032)">
          <path
             d="M 0,0 C 0,0 17.487,-2.498 28.104,3.123"
             style="fill:none;stroke:#ffffff;stroke-width:2;stroke-linecap:round;stroke-linejoin:miter;stroke-miterlimit:10;stroke-dasharray:none;stroke-opacity:1"
             id="path302" />
        </g>
        <g
           id="g304"
           transform="translate(542.0494,783.0905)">
          <path
             d="m 0,0 c 0,-3.794 3.915,-6.87 8.744,-6.87 4.829,0 8.743,3.076 8.743,6.87 0,3.794 -3.914,6.87 -8.743,6.87 C 3.915,6.87 0,3.794 0,0 Z"
             style="fill:none;stroke:#ffffff;stroke-width:2;stroke-linecap:round;stroke-linejoin:miter;stroke-miterlimit:10;stroke-dasharray:none;stroke-opacity:1"
             id="path306" />
        </g>
        <g
           id="g308"
           transform="translate(517.8882,772.8786)">
          <path
             d="M 0,0 C 0,0 5.694,-0.599 11.088,2.397"
             style="fill:none;stroke:#ffffff;stroke-width:2;stroke-linecap:round;stroke-linejoin:miter;stroke-miterlimit:10;stroke-dasharray:none;stroke-opacity:1"
             id="path310" />
        </g>
        <g
           id="g312"
           transform="translate(377.2525,849.1603)">
          <path
             d="M 0,0 8.889,15.926 20.371,-1.667 Z"
             style="fill:#ffffff;fill-opacity:1;fill-rule:nonzero;stroke:none"
             id="path314" />
        </g>
      </g>
    </g>
  </g>
</svg>
