<?xml version="1.0" encoding="UTF-8" standalone="no"?>
<!-- Created with Inkscape (http://www.inkscape.org/) -->

<svg
   version="1.1"
   id="svg2"
   width="666.66669"
   height="666.66669"
   viewBox="0 0 666.66669 666.66669"
   sodipodi:docname="29975484_7645318.eps"
   xmlns:inkscape="http://www.inkscape.org/namespaces/inkscape"
   xmlns:sodipodi="http://sodipodi.sourceforge.net/DTD/sodipodi-0.dtd"
   xmlns="http://www.w3.org/2000/svg"
   xmlns:svg="http://www.w3.org/2000/svg">
  <defs
     id="defs6" />
  <sodipodi:namedview
     id="namedview4"
     pagecolor="#ffffff"
     bordercolor="#000000"
     borderopacity="0.25"
     inkscape:showpageshadow="2"
     inkscape:pageopacity="0.0"
     inkscape:pagecheckerboard="0"
     inkscape:deskcolor="#d1d1d1" />
  <g
     id="g8"
     inkscape:groupmode="layer"
     inkscape:label="ink_ext_XXXXXX"
     transform="matrix(1.3333333,0,0,-1.3333333,0,666.66667)">
    <g
       id="g10"
       transform="scale(0.1)">
      <path
         d="M 5000,0 H 0 V 5000 H 5000 V 0"
         style="fill:#e6e6e6;fill-opacity:1;fill-rule:nonzero;stroke:none"
         id="path12" />
      <path
         d="m 3962.64,2289.02 c -4.15,-0.41 -8.3,-0.82 -12.46,-1.23 -17.29,-1.68 -34.88,-3.53 -51.9,-5.33 -26.19,-2.77 -53.26,-5.62 -80.02,-7.92 -3.1,-0.27 -6.2,-0.53 -9.28,-0.78 0.24,-0.59 0.5,-1.18 0.74,-1.78 19.15,-46.99 41.31,-92.37 69.8,-134.54 10.77,-15.95 9.89,-26.36 -2.43,-41.41 -7.13,-8.7 -14.88,-16.89 -21.86,-25.69 -7.36,-9.28 -16.3,-15.17 -28.27,-16.48 -5.57,-0.61 -10.98,-2.51 -16.55,-3.25 -29.07,-3.87 -37.23,-19.43 -42.72,-44.86 -2.94,-13.6 5.34,-23.74 19.34,-24.37 14.44,-0.64 28.93,-0.14 43.39,-0.14 0,0.35 0,0.71 0,1.06 10.44,0 20.96,0.83 31.3,-0.22 11.36,-1.15 19.86,1.96 27.74,10.39 19.2,20.54 38.48,41.1 58.94,60.37 22.18,20.89 44.62,41.82 69.09,59.83 14.12,10.38 20.51,21.47 20.08,38.02 -0.52,20.09 -0.39,40.2 -1.23,60.27 -1.2,28.53 1.19,56.57 7.4,84.16 -3.19,-0.09 -6.73,-0.23 -10.39,-0.4 -23.46,-1.03 -47.48,-3.41 -70.71,-5.7"
         style="fill:#142335;fill-opacity:1;fill-rule:nonzero;stroke:none"
         id="path14" />
      <path
         d="m 3328.54,2320.04 c -36.92,23.1 -70.77,49.93 -101.28,80.25 0.29,-21.43 -6.17,-40.76 -18.3,-58.32 -4.1,-5.94 -8.35,-11.79 -12.5,-17.71 -26.26,-37.48 -53.24,-74.48 -78.54,-112.61 -20,-30.14 -39.38,-60.64 -63.57,-87.66 -16.7,-18.64 -25.15,-40.59 -28.89,-65.01 -3.73,-24.29 9.6,-41.38 28.87,-41.75 21.56,0.61 37.1,4.89 46.21,20.16 6.07,10.18 12.16,21.3 14.23,32.72 3.26,17.99 12.89,30.41 26.04,41.7 36.65,31.48 74.13,62.43 117.81,83.06 30.24,14.28 49.7,35.44 65.18,63.83 8.86,16.26 19.52,31.08 31.95,44.28 -7.2,4.55 -14.39,9.04 -21.48,13.48 l -5.73,3.58"
         style="fill:#142335;fill-opacity:1;fill-rule:nonzero;stroke:none"
         id="path16" />
      <path
         d="m 3384,2826.14 c -2.5,-35.54 -2.37,-65.47 -15.04,-93.35 -6.03,-13.25 2.62,-25.01 5.19,-37.24 0.56,-2.63 7.88,-5.58 11.98,-5.44 20,0.69 40.36,0.39 59.86,4.18 30.69,5.97 60.8,14.91 91.15,22.64 87.06,22.19 175.08,31.86 265.05,23.86 37.71,-3.35 75.39,-6.74 111.91,-16.15 52.16,-13.45 103.3,-30.53 148.42,-61.36 7.2,-4.92 14.4,-6.96 22.62,-5.3 56.81,11.49 107.93,-5.36 157.42,-31.08 19.24,-10 38.77,-19.45 58.35,-28.78 33.02,-15.75 67.87,-19.05 103.58,-13.32 29.3,4.7 52.25,19.08 67.02,45.82 32.78,59.39 28.62,139.11 -14.87,190.23 -28.83,33.89 -77.29,42.94 -116.01,21.57 -26.61,-14.69 -41.4,-37.3 -43.63,-67.8 -0.4,-5.61 -0.03,-11.28 -0.64,-16.86 -1.01,-9.18 -7.21,-14.05 -15.48,-16.43 -7.4,-2.14 -15.54,1.68 -19.4,10.51 -2.81,6.42 -4.23,13.75 -4.77,20.79 -3.59,46.74 35.04,95.06 71.3,111.55 72.29,32.87 152.59,5.01 188.17,-66.15 2.87,-5.75 5.66,-11.54 8.36,-17.38 34.44,-74.57 25.14,-146.11 -18.93,-212.87 -34.06,-51.6 -84.41,-74.97 -146.58,-71.07 -7.11,0.45 -14.44,1.89 -21.08,4.4 -21,7.96 -41.95,16.12 -62.47,25.22 -16.88,7.48 -33.14,16.36 -49.62,24.72 -18.18,9.22 -37.58,14.17 -57.75,15.72 -7.02,0.54 -14.24,-1.08 -21.33,-1.97 -3.97,-0.5 -5.61,-3.04 -3.59,-6.66 2.34,-4.2 5.12,-8.16 7.88,-12.11 27.21,-38.81 55.87,-76.7 81.41,-116.59 65.01,-101.5 129.52,-203.35 192.28,-306.25 18.69,-30.63 31.75,-64.85 45.92,-98.05 11.16,-26.17 -2.23,-48.4 -15.84,-69.5 -2.67,-4.15 -9.02,-7.04 -14.2,-8.26 -22.68,-5.33 -45.6,-9.78 -69.06,-8.73 -17.64,0.78 -27.48,8.17 -30.65,25.05 -3.39,18.08 -6.89,37.07 10.72,51.11 4.41,3.51 5.27,7.42 2.71,12.58 -23.78,47.87 -55.79,88.15 -104.02,113.66 -16.33,8.64 -32.33,17.93 -48.8,26.3 -41.62,21.15 -75.41,51.55 -104.72,87.39 -2.55,3.11 -5.06,6.25 -7.57,9.39 -21.58,26.97 -21.62,27.71 -56.58,26.16 -28.05,-1.24 -56.03,-4.27 -83.99,-6.99 -43.93,-4.27 -87.78,-9.46 -131.75,-13.24 -25.55,-2.19 -51.35,-4.2 -76.89,-3.03 -40.07,1.85 -79.96,6.84 -119.36,14.89 -3.93,0.8 -7.85,1.78 -11.82,2.15 -8.96,0.85 -11.52,-2.3 -8.96,-11.46 1.95,-6.95 4.13,-13.89 6.98,-20.51 6.94,-16.18 7.69,-32.54 3.49,-49.53 -6.36,-25.72 -13.08,-51.39 -18.06,-77.39 -2.99,-15.63 -5.11,-32.01 -3.81,-47.74 1.66,-19.97 -1.49,-38.33 -9.02,-56.39 -3.71,-8.9 -7.98,-17.58 -11.36,-26.6 -5.96,-15.85 -17.62,-24.27 -33.74,-27.53 -17.38,-3.5 -34.67,-6.21 -52.54,-2.64 -8.57,1.71 -17.6,1.88 -26.39,1.57 -9.59,-0.34 -16.89,5.79 -16.42,19.1 0.8,22.99 14.41,38.98 37.31,44.24 3.11,0.72 6.38,0.76 9.58,1.02 6.06,0.49 8.14,4.4 8.22,9.76 0.22,14.47 1.43,29.03 0.2,43.38 -2.05,23.96 -5.01,47.9 -8.84,71.64 -3.51,21.7 -12.52,41.41 -25.92,59.03 -17.14,22.52 -36.24,43.14 -59.82,58.99 -20.67,13.89 -41.84,27.03 -62.96,40.24 -68.47,42.83 -125.14,97.95 -170.08,164.89 -10.67,15.91 -19.01,33.57 -26.88,51.11 -6.02,13.44 -12.71,25.38 -24.63,34.79 -22.23,17.56 -33.99,42.63 -43.54,68.3 -9.34,25.08 -4.2,50.77 1.23,76.05 0.84,3.91 1.95,7.87 3.67,11.46 9.35,19.41 9.9,39.82 9.84,61.01 -0.09,37.86 6.25,75.23 16.32,111.71 6.6,23.92 16.66,26.32 35.68,9.65 20.09,-17.61 37.39,-37.91 50.35,-61.15 7,-12.55 15.17,-16.37 28.86,-15.17 21.99,1.92 43.5,-0.49 61.67,-15.14 6.41,-5.16 11.28,-3.72 16.2,2.51 12.5,15.84 26.32,30.41 43.56,41.26 5.41,3.4 10.96,6.97 16.94,9.02 12.11,4.15 21.41,-0.35 23.58,-12.99 2.85,-16.55 3.42,-33.48 4.43,-44.42"
         style="fill:#142335;fill-opacity:1;fill-rule:nonzero;stroke:none"
         id="path18" />
      <path
         d="m 2480.57,814.809 c -8.1,8.953 -15.58,12.3 -28.57,12.793 -2.02,0.07 -4.1,0.109 -6.17,0.109 -16.81,0 -33.24,-2.449 -50,-5.75 0.87,-4.949 2,-9.902 3.46,-14.852 6.73,-22.769 20.04,-39.597 41.13,-50.82 23.55,-12.539 48.57,-20.84 74.13,-27.918 7.69,-2.133 15.6,-4.152 22.66,-7.711 13,-6.539 16.54,-16.269 11.89,-30.101 -1.52,-4.52 -3.52,-9.129 -6.33,-12.93 -11.42,-15.457 -23.01,-30.82 -35.02,-45.828 -5.17,-6.449 -12.51,-9.43 -21.02,-10.289 -7.92,-0.801 -16.06,-2.051 -23.46,-4.832 -12.8,-4.801 -21.41,-13.989 -23.1,-28.25 -1.93,-16.289 7.45,-28.168 23.81,-29.711 16.73,-1.571 33.55,-2.309 50.27,-4.039 12.95,-1.34 22.67,2.441 31.99,12.16 21.09,21.992 43.1,43.148 65.57,63.742 13.57,12.43 28.63,23.25 43.15,34.637 17.61,13.812 27.66,30.301 26.29,50.91 -25.22,3.461 -50.69,9.262 -76.19,17.402 -47.54,15.18 -89.43,42.52 -124.49,81.278"
         style="fill:#142335;fill-opacity:1;fill-rule:nonzero;stroke:none"
         id="path20" />
      <path
         d="m 2052.43,569.75 c 1.1,12.359 5.42,23.492 12.33,32.5 0.36,9.289 0.2,18.629 0.07,27.93 -0.68,50.16 6.16,99.371 20.16,147.41 1.08,3.719 1.98,7.43 2.75,11.129 -1.84,11.031 -3.88,21.613 -5.91,31.601 -0.65,3.2 -0.85,4.172 -6.94,6.489 -19.43,7.39 -39.53,15.031 -59.08,24.703 -17.42,8.609 -33.29,18.617 -47.56,29.929 5.06,-35.109 9.66,-70.293 14.56,-105.429 5.93,-42.442 2.76,-85.02 1.67,-127.551 -0.32,-12.531 -5,-22.859 -18.23,-28.531 -17.47,-7.469 -24.31,-22.321 -23.92,-40.899 0.34,-15.699 5.04,-22.133 20.69,-24.429 11.87,-1.75 24,-1.672 36.01,-2.403 0.02,0.403 0.03,0.801 0.05,1.199 7.23,0 14.47,-0.238 21.69,0.043 14.24,0.559 24.46,3.649 31.46,10.051 -0.06,1.969 0,4.059 0.2,6.258"
         style="fill:#142335;fill-opacity:1;fill-rule:nonzero;stroke:none"
         id="path22" />
      <path
         d="m 2238.04,1280.12 c 25.53,2.78 57.47,5.83 89.3,9.83 42.36,5.33 84.75,9.4 127.19,2.12 35.67,-6.12 70.64,-15.37 104.32,-28.76 44.12,-17.53 86.44,-38.76 127.24,-63.08 18.12,-10.8 32.77,-25.57 48.59,-39.18 15.02,-12.93 34.87,-20.24 49.9,-33.16 18.8,-16.15 34.94,-35.41 52.07,-53.48 25.43,-26.8 49.89,-54.56 76.26,-80.39 37.2,-36.461 82.83,-58.75 133.74,-67.079 70.27,-11.492 127.93,13.309 172.31,68.661 15.57,19.418 30.14,39.638 45.28,59.418 7.48,9.77 17.1,16.78 28.45,21.6 14.74,6.27 28.35,4.66 40.46,-5.8 12.08,-10.43 20.68,-22.95 17.56,-39.9 -3.38,-18.38 -10.9,-35.15 -21.4,-50.701 -14.98,-22.168 -33.36,-41.328 -53.25,-58.848 -33.35,-29.379 -70.16,-53.351 -111.57,-70.41 -39.83,-16.402 -80.68,-20.012 -122.85,-14.68 -62.04,7.848 -116.61,34.758 -168.56,67.481 -26.04,16.398 -46.33,39.539 -65.8,63.218 -8.65,10.532 -17.67,20.79 -26.99,30.739 -4.2,4.471 -9.24,2.711 -10.38,-3.489 -5.11,-27.699 -9.84,-55.691 -6.47,-83.789 3.25,-27.05 14.87,-50.793 36.45,-68.562 9.3,-7.66 18.67,-15.32 28.59,-22.129 15.45,-10.59 21.97,-25.48 21.07,-43.391 -0.84,-16.769 -2.05,-33.707 -5.3,-50.14 -10.27,-51.93 -17.05,-104.489 -31.74,-155.66 -9.92,-34.539 -27.76,-45.649 -62.22,-39.707 -7.11,1.23 -14.31,2 -21.37,3.457 -4.67,0.961 -9.45,2.179 -13.68,4.312 -23.63,11.859 -26.18,33.399 -5.14,49.469 7.39,5.64 16.83,9.308 25.91,11.82 8.02,2.211 13.01,6.051 14.56,13.84 6.09,30.719 11.75,61.512 10.76,93.051 -0.1,3.187 -0.56,6.398 -1.22,9.531 -1.45,6.887 -4.77,11.859 -12.8,11.637 -4.02,-0.11 -8.04,-0.071 -12.06,-0.071 -42.92,0.082 -84.71,7.473 -125.45,20.481 -46.21,14.75 -85.35,41.152 -117.68,76.883 -11.3,12.488 -22.94,17.277 -39.54,17.91 -35.18,1.32 -68.47,-8.07 -102.18,-14.891 -28.42,-5.742 -56.6,-11.289 -85.84,-9.929 -12.68,0.589 -13.59,-0.11 -17.14,-12.204 -9.93,-33.886 -19.16,-67.988 -28.61,-102.019 -12.04,-43.32 -23.95,-86.68 -36.13,-129.957 -2.17,-7.703 -4.34,-15.742 -8.44,-22.453 -3.06,-5.008 -8.69,-10.41 -14.1,-11.68 -27.33,-6.418 -54.2,-2.238 -80.22,7.141 -9.79,3.539 -12.93,10.379 -11.97,21.191 1.39,15.539 9.34,28.508 22.15,35.551 17.93,9.84 20.97,24.238 20.37,42.219 -0.72,21.679 -0.22,43.398 -0.14,65.097 0.14,37.942 -5.7,75.121 -13.23,112.184 -2.09,10.308 -7.66,14.527 -16.67,17.949 -19.48,7.41 -39.05,14.879 -57.71,24.098 -78.82,38.961 -119.02,104.203 -129.25,190.281 -4.54,38.16 0.39,75.31 7.68,112.35 6.92,35.18 8.24,70.03 -1.82,104.75 -1.99,6.85 -3.81,14.38 -8,19.84 -18.59,24.25 -24.07,52.93 -24.88,81.69 -0.96,34.4 -0.43,68.5 -7.99,102.55 -4.67,21.06 -3.03,43.2 2.01,64.63 6.67,28.33 21.03,34.87 44.88,17.69 18.79,-13.54 36.14,-29.36 52.6,-45.72 8.59,-8.54 16.44,-10.83 27.77,-8.52 18.04,3.68 36.28,6.5 54.55,8.81 7.3,0.92 11.07,4.94 15.4,9.98 12.53,14.61 25.23,29.14 38.75,42.82 6.68,6.77 14.81,12.49 23.15,17.13 14.49,8.06 23.1,3.34 24.38,-13 2.16,-27.46 1.32,-55.38 -7.75,-81.11 -9.77,-27.75 -4.52,-51.4 8.34,-75.79 5.16,-9.79 8.41,-20.86 10.96,-31.71 6.45,-27.49 5.89,-54.17 -11.68,-78.35 -4.91,-6.75 -3.84,-10.18 4.05,-12.3 13.12,-3.52 26.46,-6.72 39.91,-8.38 15.11,-1.85 30.44,-1.84 52.26,-2.99"
         style="fill:#142335;fill-opacity:1;fill-rule:nonzero;stroke:none"
         id="path24" />
      <path
         d="m 2501.84,4019.63 c 43.03,-3.44 84.66,-6.47 126.22,-10.2 31.29,-2.8 62.54,-3.95 93.85,-1.05 4.76,0.44 9.49,1.63 14.14,2.85 13.46,3.51 12.51,3.75 14.9,17.59 3.82,22.02 0.21,41.9 -8.3,62.81 -9.29,22.83 -14.24,47.61 -19.26,71.92 -4.7,22.75 5.82,31.84 28.71,25.73 24.88,-6.64 48.95,-15.69 71.34,-28.69 6.25,-3.64 12.68,-7.05 18.56,-11.22 7.42,-5.27 14.18,-5.14 22.21,-0.92 36.34,19.07 73.99,19.98 111.82,5.39 10.81,-4.16 17.39,-1.86 25.39,5.63 14.64,13.71 30.23,26.48 46.09,38.78 7.49,5.81 16.16,10.55 24.98,14.12 11.06,4.47 18.81,0.6 22.66,-10.68 2.02,-5.93 3.14,-12.61 2.77,-18.83 -1.62,-27.22 -3.91,-54.4 -6.04,-81.59 -0.19,-2.38 -1.05,-4.7 -1.5,-7.07 -4.78,-25.49 -5.66,-49.91 5.32,-75.13 12.79,-29.38 10.52,-59.87 -6.89,-87.76 -5.22,-8.37 -5.24,-16.35 -3.39,-25.3 8.59,-41.77 20.26,-82.47 35.88,-122.3 14.92,-38.09 27.16,-77.25 39.83,-116.19 7.78,-23.9 18.31,-46.04 32.82,-66.69 63.26,-101.55 -64.73,-109.21 -91.89,-56.88 -5.55,10.69 -12.85,20.52 -17.74,31.47 -6.78,15.14 -18.26,18.92 -33.21,16.74 -3.95,-0.58 -7.92,-1.16 -11.8,-2.11 -10.16,-2.47 -10.37,-3.8 -4.2,-12.21 5.17,-7.05 11.18,-14.06 14.09,-22.07 30.21,-36.56 -26.51,-100.94 -131.33,-32.76 -23.36,10.71 -73.41,56.96 -85.12,57.42 -54.53,2.11 -91.02,-8.07 -180.21,-8.07 -25.64,1.47 -51.28,3.18 -76.88,5.26 -21.59,1.76 -43.1,4.61 -64.7,6.23 -22.37,1.69 -44.81,2.84 -67.24,3.6 -36.08,1.24 -72.24,0.21 -107.78,8.98 -55.46,13.68 -103.89,38.11 -137.65,86.22 -1.37,1.96 -2.89,3.89 -4.66,5.48 -3.28,2.93 -5.9,1.63 -7.25,-2.02 -15.53,-41.78 -23.25,-83.96 -2.45,-126.19 14.08,-28.57 36.86,-46.22 69.47,-48.98 30.51,-2.58 61.17,-3.24 91.34,2.13 42.2,7.52 84.64,9.86 127.24,7.65 41.24,-2.13 81.2,-11.53 118.57,-29.36 35.02,-16.71 61.06,-44.28 82.42,-75.85 12.32,-18.22 17.44,-39.56 16.41,-61.97 -0.58,-12.59 -5.16,-23.37 -13.66,-32.61 -15,-16.31 -36.36,-18.37 -54.01,-4.73 -4.39,3.4 -8.42,7.55 -11.76,12 -15.9,21.21 -33,41.73 -46.87,64.22 -18.48,29.99 -46.2,43.4 -78.6,50.34 -40,8.57 -79.78,5.22 -119.57,-2.18 -28.36,-5.28 -56.36,-12.08 -85.63,-12.74 -49.34,-1.1 -91.01,16.84 -128.17,47.3 -56.99,46.73 -72.02,108.13 -59,177.81 7.47,39.98 23.14,76.87 50.94,107.65 4.31,4.76 7.84,10.21 12.08,15.03 5.02,5.73 6.67,12.21 7.39,19.74 1.45,15.14 3.21,30.37 6.56,45.18 9.11,40.26 32.85,71.46 65,95.82 54.14,41.03 115.25,66.79 182.6,76.18 28.54,3.99 57.52,4.88 85.16,7.08"
         style="fill:#142335;fill-opacity:1;fill-rule:nonzero;stroke:none"
         id="path26" />
      <path
         d="m 679.266,1050.56 0.812,1.32 -1.195,-0.95 z"
         style="fill:#142335;fill-opacity:1;fill-rule:nonzero;stroke:none"
         id="path28" />
      <path
         d="m 706.301,676.582 c 16.621,15.02 25.387,35.059 31.769,52.688 13.621,37.601 23.785,77.402 30.211,118.281 0.211,1.34 0.379,2.781 0.563,4.308 0.199,1.672 0.398,3.391 0.676,5.2 0.769,5.011 0.078,7.453 -5.336,11.14 -36.887,25.133 -66.938,57.153 -89.75,95.571 0.597,-33.008 2.093,-66 4.035,-98.981 1.933,-32.809 3.621,-65.641 5.277,-98.469 0.754,-14.941 -3.351,-28.351 -12.273,-40.601 -8.043,-11.039 -19.91,-12.797 -31.762,-14.547 -20.281,-2.992 -30.5,-15.402 -35.043,-34.481 -5.07,-21.269 0.488,-31.73 21.844,-37.57 19.426,-5.32 38.281,-5.402 56.644,-1.781 3.438,15.101 11.36,28.582 23.145,39.242"
         style="fill:#142335;fill-opacity:1;fill-rule:nonzero;stroke:none"
         id="path30" />
      <path
         d="m 1339.97,802.059 c 0,-9.129 0.64,-22.028 -0.2,-34.84 -0.71,-10.75 4.12,-15.598 13.5,-19.547 38.23,-16.082 64.26,-44.91 80.68,-82.211 20.77,-47.16 15.53,-92.871 -12.95,-135.172 -20.16,-29.93 -47.34,-51.617 -81.73,-64.859 -43.37,-16.711 -87.4,-27.871 -134.08,-22.301 -35.97,4.293 -70.78,14.062 -105.01,25.973 -23.49,8.168 -47.06,16.308 -71.03,22.898 -37.587,10.332 -76.255,12.199 -114.755,7.91 -38.145,-4.25 -67.254,-24.672 -87.872,-56.969 -3.882,-6.07 -6.449,-13.019 -10.574,-18.902 -9.586,-13.687 -21.625,-17.699 -37.875,-12.969 -40.226,11.731 -63.047,44 -48.222,92.2 11.253,36.609 36.355,61.671 72.461,75.531 40.105,15.41 81.414,16.949 123.449,11.988 49.66,-5.859 97.838,-18.23 145.378,-33.25 25.27,-7.98 50.28,-16.758 75.52,-24.828 49.67,-15.871 99.47,-15.879 149.46,-1.121 37.51,11.07 59.26,37.25 69.4,73.441 6.84,24.418 -8.12,49.36 -32.26,56.949 -2.07,0.661 -6.62,-1.148 -7.52,-3.019 -17.91,-37.32 -50.55,-51.02 -88.62,-51.731 -63.46,-1.171 -127.06,-1.808 -190.41,1.282 -42.3,2.058 -84.261,10.957 -126.37,16.82 -2.387,0.328 -4.781,0.688 -7.121,1.25 -22.207,5.367 -28.274,13.039 -27.883,35.168 0.32,18.172 9.18,30.199 28.363,33.379 13.199,2.191 27.301,2.09 40.555,0.09 21.387,-3.227 42.375,-9.02 63.606,-13.367 4.56,-0.942 9.44,-0.332 14.17,-0.442 -2.39,4.699 -4.27,9.75 -7.29,14.012 -7.41,10.476 -15.98,20.18 -22.94,30.93 -13.288,20.488 -21.577,42.898 -23.695,67.5 -1.285,14.886 -1.75,15.699 -15.136,15.937 -18.692,0.332 -36.539,4.609 -54.485,9.012 -10.586,2.601 -13.355,0.961 -15.168,-9.012 -2.296,-12.629 -4.218,-25.348 -5.613,-38.109 -1.445,-13.231 -5.84,-25.039 -14.84,-34.848 -20.55,-22.402 -32.496,-49.523 -43.035,-77.473 -3.687,-9.769 -7.312,-19.589 -11.683,-29.058 -9.2,-19.922 -25.016,-31.512 -46.911,-32.719 -16.785,-0.934 -33.812,-0.98 -50.507,0.758 -20.317,2.109 -26.297,11.172 -23.204,31.281 2.157,14.008 8.981,26.141 19.227,35.399 17.969,16.242 27.926,36.722 35.973,58.949 14.281,39.422 24.453,79.801 30.953,121.172 0.5,3.168 0.762,6.379 1.25,9.558 1.746,11.41 -1.973,19.571 -11.969,26.383 -49.977,34.047 -85.309,80.367 -107.355,136.108 -10.27,25.96 -16.594,53.65 -22.981,80.96 -7.687,32.87 -12.019,66.39 -11.609,100.25 0.539,44.32 5.801,88.06 18.187,130.78 2.016,6.94 3.887,13.92 5.996,20.84 1.551,5.09 0.985,9.33 -3.523,12.78 -31.879,24.38 -33.445,58.42 -29.012,93.85 1.586,12.66 4.957,25.26 9,37.4 3.485,10.46 3.18,19.72 -0.015,30.34 -11.27,37.45 -13.836,75.63 -5.727,114.18 0.816,3.88 2.187,7.74 3.895,11.33 2.355,4.94 6.597,7.23 11.875,5.11 5.179,-2.08 10.238,-4.65 14.98,-7.59 18.645,-11.6 34.539,-26.37 47.398,-44.07 7.493,-10.31 15.969,-14.18 28.793,-11.73 26.801,5.12 52.899,2.32 76.805,-11.77 8.441,-4.97 13.469,-0.98 18.766,4.47 17.484,17.99 37.011,33.36 59.34,44.88 7.796,4.03 16.023,7.48 24.41,10.04 7.824,2.39 12.75,-0.45 14.015,-8.65 1.95,-12.62 4.063,-25.59 3.176,-38.21 -2.101,-29.84 -8.883,-58.79 -23.555,-85.25 -5.605,-10.11 -8.515,-20.26 -8.464,-32 0.16,-39.75 -4.907,-78.5 -24.789,-114.07 -2.043,-3.65 -2.137,-9.35 -1.114,-13.61 6.313,-26.25 19.676,-47.97 45.34,-58.78 22.883,-9.63 46.481,-17.71 70.129,-25.35 38.962,-12.57 78.402,-23.43 116.542,-38.69 65.31,-26.12 114.45,-70.48 150.94,-129.59 37.88,-61.35 66.01,-126.7 78.53,-198.181 5.28,-30.14 8.17,-60.449 7.04,-94.8"
         style="fill:#142335;fill-opacity:1;fill-rule:nonzero;stroke:none"
         id="path32" />
      <path
         d="m 3694.37,3623.74 2.14,1.78 c 6.34,5.27 12.9,10.73 20.33,15.48 2.13,1.36 4.08,2.81 5.86,4.36 0.38,1.92 0.73,3.84 0.98,5.77 3.89,30.85 15.98,59.17 30.87,85.65 2.21,3.92 4.29,7.81 6.2,11.7 0.83,4.89 1.54,9.72 2.08,14.52 1.51,13.23 -0.79,28.19 -3.02,42.67 l -0.4,2.59 c -0.58,0.89 -2.28,2.89 -5.07,4.88 -11.34,8.09 -23.37,15.91 -35.01,23.47 -4.22,2.74 -8.44,5.48 -12.64,8.24 -7.88,5.19 -15.32,10.51 -22.38,16 0.04,-21.17 -2.37,-42.31 -6.39,-63.43 -4.51,-23.66 -8.7,-47.38 -13.45,-70.99 -2.84,-14.16 -6.84,-28.09 -9.67,-42.25 -3.47,-17.38 -12.21,-29.35 -30.37,-33.19 -3.87,-0.81 -7.67,-2.52 -11.17,-4.42 -11.5,-6.23 -18.04,-21.72 -15.17,-35.2 2.19,-10.32 10.59,-15.95 25.96,-17.27 2.39,-0.2 4.82,-0.03 12.3,-0.03 10.72,1.57 26.24,4.49 41.95,6 2.87,8.02 7.62,16.66 16.07,23.67"
         style="fill:#142335;fill-opacity:1;fill-rule:nonzero;stroke:none"
         id="path34" />
      <path
         d="m 4084,3554.5 c -54.64,0 -109.29,-0.04 -163.93,0.05 -6.42,0.01 -12.92,0.13 -19.23,1.12 -20.28,3.2 -29.41,12.78 -32.32,33.11 -2.36,16.48 7.08,34.85 22.74,41.52 7.21,3.08 15.48,4.78 23.32,4.99 11.18,0.31 22.39,-1.48 33.61,-2.1 16.81,-0.94 33.63,-1.85 50.47,-2.34 4.94,-0.15 6.72,4.2 3.7,8.21 -4.82,6.41 -10.3,12.37 -14.82,18.98 -13.35,19.55 -21.66,41.22 -25.26,64.56 -2.03,13.19 -7.67,21.19 -21.9,24.18 -16.42,3.45 -32.19,9.9 -48.38,14.61 -11.71,3.41 -12.59,3.45 -17.13,-6.46 -19.72,-43.02 -42.56,-84.67 -56.02,-130.45 -5.65,-19.2 -13.32,-37.84 -20.51,-56.57 -3.79,-9.86 -10.86,-14.73 -22.25,-14.89 -14.4,-0.21 -28.76,-3.16 -43.17,-3.46 -8.62,-0.18 -17.74,1.21 -25.85,4.1 -13.69,4.88 -19.59,16.6 -16.84,30.78 2,10.38 5.59,20.26 14.09,27.3 6.78,5.62 13.52,11.4 20.91,16.13 10.56,6.75 18.36,15.54 23.06,27.04 14.05,34.3 25.82,69.47 30.02,106.32 1.88,16.41 -1.09,33.6 -3.62,50.16 -0.81,5.33 -6.43,10.96 -11.3,14.43 -15.68,11.19 -32.02,21.46 -48.14,32.05 -25.68,16.89 -48.6,36.6 -67.61,61.08 -26.74,34.44 -42.89,73.14 -50.54,115.77 -4.84,26.99 -6.38,54.17 -6,81.56 0.33,24.11 0.4,48.23 -0.06,72.33 -0.25,13.6 -2.53,27.18 -2.56,40.77 -0.03,13.33 -4.76,22.16 -16.38,29.56 -7.61,4.85 -13.73,13.63 -17.92,21.95 -14.13,28.07 -17.68,58.09 -12.92,89.08 0.85,5.55 1.69,11.21 3.54,16.47 6.06,17.15 6.49,32.86 -1.56,50.59 -10.55,23.23 -7.36,48.93 -3.15,73.59 3.51,20.55 8.61,40.83 13.03,61.22 0.68,3.14 1.19,6.37 2.34,9.34 3.66,9.42 10.52,12.35 18.95,7 7.38,-4.7 14.84,-10 20.46,-16.58 13.55,-15.85 27.14,-31.87 38.59,-49.22 7.87,-11.92 15.99,-17.89 30.8,-17.61 13.44,0.26 27.09,-2.71 40.39,-5.49 15.52,-3.26 15.85,-4.12 24.5,10.02 13.96,22.86 31.35,42.72 51.07,60.62 4.72,4.28 9.88,8.27 15.39,11.39 6.97,3.94 12.55,1.9 15.23,-5.77 2.63,-7.51 4.32,-15.41 5.72,-23.27 4.84,-27.07 5.76,-54.47 2.05,-81.57 -1.93,-14.06 -6.97,-28.09 -12.9,-41.08 -5,-10.96 -5.74,-21.01 -3.7,-32.55 3.05,-17.29 6.41,-34.88 6.22,-52.3 -0.23,-21.08 -6.42,-41.31 -20.51,-58 -5.19,-6.16 -4.03,-11.58 0.44,-17.2 10.23,-12.83 23.08,-22.46 37.95,-28.99 23.64,-10.38 48.25,-17.47 74.05,-20.28 58.49,-6.37 115.36,-20.35 171.49,-37.47 29.52,-9.01 55.65,-24.56 79.94,-43.54 51.4,-40.17 86.49,-92.36 111.93,-151.53 33.26,-77.35 53.13,-158.08 59.31,-242.12 0.94,-12.81 2.12,-25.6 3.38,-38.38 0.64,-6.41 4.14,-8.92 9.68,-6.44 57.86,25.98 103.97,79.55 86.19,156.31 -7.35,31.73 -24.83,57.13 -46.5,80.3 -25.25,26.99 -51.66,52.97 -75.69,81 -35.85,41.8 -54.11,90.58 -51.42,146.33 1.83,37.84 15.45,70.17 44.03,95.75 28.2,25.25 60.56,41.32 98.02,48.33 43.44,8.13 102.22,-19.61 125.69,-63.65 10.98,-20.59 14.21,-42.53 6.89,-65.21 -4.76,-14.72 -14.63,-22.86 -27.39,-23.41 -11.91,-0.51 -20.23,4.57 -24.38,15.62 -2.24,5.99 -3.08,12.53 -5.49,18.44 -3,7.35 -5.89,15.14 -10.69,21.28 -24.98,31.92 -60.39,36.79 -93.1,12.09 -21.42,-16.18 -33.85,-38.47 -36.12,-65.52 -2.68,-31.98 7.48,-60.09 27.12,-85.12 19.49,-24.81 43.2,-45.27 66.82,-65.9 29.29,-25.6 54.68,-54.19 70.02,-90.78 16.7,-39.84 20.02,-80.78 11.71,-122.78 -17.48,-88.28 -74.15,-143.37 -152.99,-179.43 -2.9,-1.33 -6.03,-2.2 -9.11,-3.04 -7.72,-2.12 -17,-2.17 -22.73,-6.73 -4.57,-3.64 -4.65,-12.76 -7.04,-19.33 -7.63,-20.94 -24.13,-29.06 -44.97,-29.96 -20.87,-0.91 -41.76,-1.42 -62.65,-1.55 -39.37,-0.23 -78.74,-0.07 -118.11,-0.07 0,0.24 0,0.47 0,0.71"
         style="fill:#142335;fill-opacity:1;fill-rule:nonzero;stroke:none"
         id="path36" />
      <path
         d="m 4418.31,523.23 c -2.77,7.391 -7.94,12.379 -15.23,14.219 -10.89,2.75 -15.22,10.551 -18.56,20.102 -7.96,22.73 -15.69,45.578 -24.67,67.918 -20.97,52.25 -29.27,106.523 -28.05,162.562 0.46,21.688 0.07,43.391 0.07,65.078 -0.46,0 -0.92,0 -1.37,0 0,21.7 0.51,43.411 -0.12,65.09 -0.19,6.582 -0.42,13.153 -0.66,19.723 -4.87,-7.453 -10.3,-14.613 -16.28,-21.453 -18.9,-21.629 -39.97,-41.02 -56.22,-55.5 -16.8,-14.969 -30.64,-32.348 -45.28,-50.75 -1.66,-2.078 -3.31,-4.149 -4.97,-6.231 2.57,-6.047 5.22,-12.078 7.39,-18.258 9.04,-25.761 17.05,-51.89 26.42,-77.519 18.46,-50.512 37.53,-100.813 56.43,-151.16 3.67,-9.77 7.34,-19.571 11.65,-29.071 3.64,-8.011 7.5,-16.109 12.62,-23.171 2.99,-4.118 8.29,-7.84 13.21,-9.067 22.06,-5.531 44.66,-5.742 67.02,-2.722 16.64,2.25 22.5,14.48 16.6,30.21"
         style="fill:#142335;fill-opacity:1;fill-rule:nonzero;stroke:none"
         id="path38" />
      <path
         d="m 3708.8,755.23 c -0.99,49.141 0.35,98.102 13.69,145.821 16.82,60.14 40.39,117.139 80.19,165.959 43.95,53.93 99.38,90.74 167.61,106.85 23.58,5.57 47.68,7.27 71.83,5.56 8.94,-0.63 14.82,1.14 19.76,9.41 16.76,28.05 38.72,51.16 67.58,67.23 2.74,1.52 5.21,3.72 7.36,6.02 3.57,3.82 3,9.59 -1.22,12.65 -2.58,1.88 -5.56,3.2 -8.35,4.8 -15.44,8.88 -24.79,21.97 -29.66,39.22 -6.76,23.93 -14.59,47.57 -22.43,71.17 -1.71,5.16 -5.02,9.95 -8.28,14.41 -15.92,21.76 -25.99,46.09 -32.46,72.08 -0.58,2.34 -1.44,4.63 -1.83,7 -2.68,16.21 3.23,23.02 20.01,20.14 12.52,-2.15 24.87,-6.44 36.68,-11.28 11.85,-4.86 23.07,-11.34 34.31,-17.57 6.18,-3.43 11.74,-3.8 18.21,-0.7 7.22,3.46 14.83,6.21 22.44,8.73 14.63,4.85 29.69,8.09 45.04,4.86 10.59,-2.24 16.12,1.06 20.56,10.91 12.51,27.72 32.97,49.25 56.22,68.26 18.26,14.94 24.31,13.13 31.43,-9.83 5.51,-17.74 8.84,-36.04 7.21,-54.65 -1.54,-17.57 -4.89,-34.97 -6.58,-52.53 -0.91,-9.47 -1.63,-19.48 0.43,-28.59 4.78,-21.17 4.05,-42.6 -3.64,-61.76 -10.82,-26.94 -9.02,-53.93 -5.45,-80.69 4.86,-36.52 12.57,-72.71 20.21,-108.81 9.15,-43.26 18.21,-86.21 15.96,-131.06 -2.15,-42.738 -16.11,-80.301 -43.92,-112.121 -16.87,-19.297 -35.7,-37.039 -54.86,-54.117 -20.61,-18.36 -36.98,-40.122 -54.08,-61.411 -8.18,-10.179 -9.54,-22.453 -9.64,-34.121 -0.29,-32.898 1.08,-65.808 1.86,-98.711 0.19,-8.027 0.75,-16.05 0.88,-24.078 0.52,-32.351 6.38,-63.89 14.73,-94.992 5.01,-18.641 5.41,-18.258 24.26,-19.789 7.08,-0.57 14.28,-2.059 20.99,-4.391 17.34,-6 23.1,-34.929 11.58,-49.66 -3.02,-3.847 -9.5,-6.629 -14.58,-6.957 -19.19,-1.25 -38.39,-2.121 -57.58,1.938 -16.57,3.5 -27.54,12.64 -33.35,28.039 -16.44,43.582 -32.57,87.281 -48.94,130.89 -2.18,5.813 -3.89,14.95 -7.87,16.25 -7.1,2.313 -9.15,-7.257 -12.77,-12.027 -19.09,-25.16 -41.16,-47.203 -66.36,-66.203 -2.15,-1.609 -2.92,-5.059 -4.33,-7.649 2.19,-0.781 4.34,-2.058 6.58,-2.242 16,-1.289 32.1,-1.699 48,-3.738 9.43,-1.219 18.95,-3.941 27.71,-7.68 16.25,-6.941 21.69,-20.211 16.71,-37.41 -0.89,-3.078 -1.97,-6.121 -3.07,-9.14 -9.74,-26.481 -25.04,-34.579 -52.28,-27.68 -0.78,0.191 -1.58,0.402 -2.28,0.762 -26.68,13.949 -54.71,8.609 -82.72,6.386 -19.16,-1.519 -38.49,-1.758 -57.73,-1.429 -18.42,0.32 -36.82,2.14 -55.23,3.25 -29.65,1.793 -59.3,3.5 -88.94,5.339 -4,0.254 -8.04,0.704 -11.93,1.622 -11.56,2.73 -15.35,6.902 -12.85,18.562 1.61,7.5 0.13,11.547 -5.09,16.629 -8.6,8.359 -16.65,17.437 -23.86,27.019 -5.26,6.981 -10.57,8.571 -18.58,5.711 -9.82,-3.5 -20.22,-5.441 -29.92,-9.222 -19.85,-7.731 -41.07,-10.77 -61.47,-10.117 -33.57,1.058 -67.32,5.609 -98.74,19.199 -22.73,9.828 -40.12,26.32 -53.98,46.679 -15.61,22.922 -25.21,48.071 -30.55,75.34 -7.51,38.301 -9.22,76.321 -0.77,114.66 12.29,55.852 41.65,100.399 87.86,133.879 16.26,11.782 32.82,23.141 49.23,34.723 21.85,15.398 40.7,33.888 56.76,55.258 9.34,12.44 14.79,26.1 17.28,41.73 3.98,24.97 4.48,49.59 -1.98,74.02 -2.44,9.22 -5.74,18.6 -10.6,26.74 -13.33,22.32 -32.19,35.43 -59.73,32.17 -7.95,-0.94 -16.03,-0.97 -24.05,-1.13 -8.47,-0.17 -15.77,3.06 -21.64,9.03 -6.75,6.86 -9.18,14.48 -4.87,24.06 10.91,24.26 29.71,37.51 55.75,40.13 29.82,3 56.13,-6.64 76.86,-27.58 16.89,-17.06 32.16,-36.06 41.99,-58.47 23.14,-52.78 23.17,-106.23 1.97,-159.34 -7.7,-19.28 -18.08,-37.661 -28.83,-55.501 -6.1,-10.117 -14.49,-19.39 -23.51,-27.109 -16.46,-14.09 -34.04,-26.879 -51.34,-39.969 -32.17,-24.32 -56,-54.973 -71.44,-92.269 -20.06,-48.43 -15.88,-95.86 6.13,-142.243 8.05,-16.949 20.72,-30.589 37.17,-40.148 35.16,-20.449 72.43,-25.152 111.38,-13.512 8.32,2.492 16.18,7.039 23.71,11.531 8.72,5.2 13.25,12.782 13.74,23.731 1.55,34.449 4.12,68.848 6.3,103.269"
         style="fill:#142335;fill-opacity:1;fill-rule:nonzero;stroke:none"
         id="path40" />
      <path
         d="m 1449.97,3810.15 c -12.2,-32.7 -19.98,-63.91 -23.47,-94.37 -0.47,-12.7 -0.44,-25.43 0.29,-38.21 0.77,-13.55 2.42,-27.16 4.99,-40.49 1.36,-1.24 2.97,-2.32 4.92,-3.32 13.65,-6.96 24.14,-17.33 30.49,-29.87 0.39,-0.03 0.78,-0.07 1.19,-0.1 6.38,-0.49 44.79,1.24 57.43,3 5.95,0.83 10.27,4.29 11.91,10.43 3.89,14.63 -4.7,39.26 -19.09,42.84 -21.09,5.26 -20.62,19.06 -19.83,34.74 0.48,9.61 0.18,19.41 1.99,28.79 7.76,40.12 15.9,80.17 24.53,120.11 2.18,10.1 4.57,21.34 10.61,29.18 2.21,2.88 3.85,5.93 5.15,9.07 -22.49,-15.81 -44.89,-30.13 -66.77,-42.64 -12.15,-6.94 -19.2,-15.39 -24.34,-29.16"
         style="fill:#142335;fill-opacity:1;fill-rule:nonzero;stroke:none"
         id="path42" />
      <path
         d="m 1762.18,4424.34 c -3.67,12.67 -7.39,14.82 -19,9.79 -9.54,-4.15 -19.45,-8.38 -27.53,-14.7 -14.47,-11.34 -27.91,-24.03 -41.3,-36.68 -4.92,-4.64 -8.94,-8.68 -16.56,-6.56 -20.43,5.69 -41.31,5.5 -62.17,3.27 -8.68,-0.93 -14.96,1.88 -21.67,7.44 -14.18,11.74 -28.94,22.92 -44.34,32.98 -12.19,7.97 -26.41,11.82 -41.08,12.51 -12.73,0.59 -17.25,-4.51 -16.19,-17.44 2.31,-28.21 9.3,-55.43 18.86,-81.93 3.48,-9.63 4.12,-18.36 0.16,-27.92 -4.29,-10.37 -8.26,-20.99 -11.08,-31.83 -2.58,-9.95 -8.16,-17.27 -15.65,-23.63 -45.06,-38.26 -97.82,-58.16 -156.11,-62.71 -42.58,-3.32 -85.11,-0.22 -127.07,8.42 -55.8,11.49 -111.47,11.28 -167.53,0.83 -67.74,-12.61 -132.201,-33.83 -191.857,-68.56 -13.844,-8.07 -27.379,-16.99 -39.86,-27 -28.715,-23.03 -51.176,-51.35 -63.473,-86.28 -4.597,-13.06 -10.273,-24.94 -17.519,-36.63 -26.906,-43.37 -34.395,-91.15 -29.047,-141.13 2.387,-22.31 7.754,-44.29 10.356,-66.59 1.664,-14.26 2.343,-29.02 0.695,-43.23 -5.367,-46.18 -30.012,-71.68 -74.844,-78.26 -27.812,-4.09 -47.574,8.4 -56.828,30.25 -8.84,20.87 -10.664,41.82 -2.434,63.28 2.875,7.5 6.016,14.94 8.262,22.63 4.527,15.51 -0.594,28.71 -11.738,39.44 -10.77,10.36 -23.805,12.63 -37.988,7.81 -30.719,-10.42 -46.657,-33.22 -51.36,-64.03 -6.215,-40.7 4.57,-78.11 25.61,-112.72 29.48,-48.51 72.406,-71.88 129.476,-65.83 70.18,7.43 116.164,45.23 133.586,110.26 7.766,28.99 8.148,58.74 5.242,88.53 -1.48,15.16 -3.031,30.32 -5.039,50.36 2.047,16.13 4.285,36.82 7.508,57.36 1.094,6.98 4.418,13.67 7.227,20.27 1.418,3.33 4.707,4.45 7.953,2.35 4.707,-3.03 9.425,-6.16 13.656,-9.81 23.949,-20.67 38.805,-46.93 45.969,-77.47 6.785,-28.91 13.711,-57.71 8.597,-88.08 -2.625,-15.62 0.946,-30.45 17.09,-39.11 4.129,-2.21 7.418,-6.11 10.844,-9.49 28.609,-28.22 57.629,-56.1 79.453,-90.3 8.238,-12.9 19.383,-20.93 35.004,-22.83 20.711,-2.52 41.519,-4.82 61.929,-8.96 13.98,-2.83 27.25,-1.45 40.51,1.7 23.71,5.62 31.03,31.02 13.53,48.06 -6.11,5.94 -14.42,10.51 -22.55,13.26 -14.4,4.87 -29.29,8.6 -44.25,11.36 -9.4,1.74 -16.74,5.6 -22.1,13.05 -5.612,7.81 -11.284,15.73 -15.667,24.25 -8.418,16.37 -6.894,23.52 6.852,35.91 10.735,9.68 22.145,18.63 32.855,28.34 19.1,17.3 38.39,34.97 49.56,58.49 6.3,13.25 14.8,17.99 28.14,17.35 6.41,-0.3 12.81,-0.67 19.21,-1.06 18.42,-1.15 36.85,-3.49 55.25,-3.26 36.62,0.46 71.65,7.8 103.46,27.47 17.65,10.91 20.49,9.41 26.54,-10.25 0.47,-1.54 1.29,-3.02 1.46,-4.59 3.45,-31.77 11.7,-63.55 1.11,-95.43 -2.99,-9 -2.32,-17.22 2.02,-25.5 12.25,-23.38 15.1,-49.33 16.21,-74.72 0.8,-18.37 5.2,-31.49 19.68,-43.34 11.2,-9.18 21.44,-15.77 36.44,-14.6 11.96,0.94 24.09,-0.43 36.14,-0.34 5.58,0.04 11.32,0.46 16.69,1.85 14.72,3.81 19.3,12.26 15.35,27.17 -3.98,15.03 -14.32,25.73 -27.21,32.3 -13.36,6.82 -17.94,17.26 -19.53,30.5 -0.67,5.56 -0.92,11.19 -1.11,16.8 -1.79,51.35 8.48,100.43 26.39,148.42 6.25,16.75 15.48,28.25 31.21,37.24 26.43,15.11 52.03,31.93 76.69,49.81 20.95,15.2 38.29,34.56 48.81,58.73 12.89,29.59 22.06,60.23 24.43,92.73 1.52,20.78 4.12,41.5 6.56,62.2 1.79,15.16 9.23,25.03 25.5,27.33 6.21,0.88 12.17,4.04 18.03,6.64 30.14,13.35 51.97,34.46 61.96,66.61 6.12,19.69 6.77,39.62 1.36,59.38 -2.56,9.38 -1.49,16.56 4.29,24.58 15.28,21.2 23.78,45.42 28.55,70.99 3.28,17.54 4.46,35.09 -0.58,52.5"
         style="fill:#142335;fill-opacity:1;fill-rule:nonzero;stroke:none"
         id="path44" />
      <path
         d="m 1096.28,2311.12 c 0.47,-6.74 0.79,-13.47 0.77,-20.21 -0.04,-19.99 -2.35,-39.98 -3.68,-59.97 -1.28,-13.68 -1.37,-27.16 4.63,-40.12 8.24,-17.82 10.32,-36.86 10.66,-56.32 0.32,-18.43 2.04,-36.83 2.5,-55.26 0.33,-13.11 5.59,-23.74 15.87,-30.92 9.06,-6.32 19.03,-12.11 29.45,-15.5 15.77,-5.13 31.97,-2.55 47.03,3.94 15.3,6.59 18.08,17.82 7.83,30.52 -4.47,5.55 -9.62,11.72 -15.85,14.46 -17.23,7.55 -20.22,21.01 -18.73,37.37 0.36,3.99 -0.15,8.06 0.26,12.03 3.21,30.84 5.81,61.78 9.56,92.54 -26.35,36.04 -59.76,64.19 -90.3,87.44"
         style="fill:#142335;fill-opacity:1;fill-rule:nonzero;stroke:none"
         id="path46" />
      <path
         d="m 842.055,2386.35 c -1.871,0.03 -3.575,0.05 -5.125,0.05 -2.239,0 -3.723,-0.05 -4.703,-0.12 -0.977,-2.25 -2.336,-6.16 -3.575,-9.7 l -0.761,-2.19 c -11.618,-33.25 -30.508,-64.85 -59.45,-99.46 -10.613,-12.7 -20.918,-24.29 -31.128,-35.03 0.253,-13.15 4.687,-25.55 14.46,-37.09 23.883,-28.19 47.262,-56.82 70.653,-85.43 8.222,-10.06 18.39,-15.22 31.394,-14.8 4.016,0.12 8.039,0.02 12.059,0.02 0.019,-0.24 0.039,-0.48 0.059,-0.72 8.773,0.83 17.878,0.49 26.203,2.88 5.593,1.61 12.101,6.02 14.691,11 8.481,16.32 -3.047,39.4 -21.254,44.23 -4.574,1.22 -9.59,1.66 -14.308,1.28 -10.043,-0.79 -16.559,4.01 -22.286,11.53 -13.246,17.41 -23.304,36.45 -31.394,56.74 -8.512,21.37 -5.43,40.96 7.269,59.44 4.539,6.61 9.688,12.8 14.621,19.13 7.403,9.5 14.418,19.36 22.391,28.36 11.102,12.53 14.106,28.22 18.211,43.46 -3.133,1 -6.227,1.98 -9.258,2.94 -8.855,2.81 -19.515,3.34 -28.769,3.48"
         style="fill:#142335;fill-opacity:1;fill-rule:nonzero;stroke:none"
         id="path48" />
      <path
         d="m 929.977,2847.72 c -50.778,1.47 -97.247,17.93 -141.207,42.84 -16.754,9.5 -33.274,19.67 -50.817,27.48 -53.277,23.72 -128.308,4.24 -163.64,-41.94 -15.317,-20.01 -21.008,-42.36 -17.11,-67.9 3.317,-21.72 9.07,-42.24 18.813,-61.86 4.504,-9.07 10.996,-15.62 20.004,-20 8.55,-4.17 15.421,-3.83 24.238,2.03 35.906,23.87 74.613,41.58 118.82,41.2 38.602,-0.33 76.891,-4.72 114.703,-13.13 61.922,-13.76 124.071,-26.61 187.149,-33.81 31.88,-3.63 64.02,-6.29 96.07,-6.73 30.62,-0.42 60.46,6.63 89.54,16.62 13.65,4.69 21.9,11.78 20.9,27.7 -0.54,8.65 1.95,17.49 3,26.25 2.33,19.32 1.78,37.96 -5.75,56.71 -11.46,28.54 -16.31,58.73 -16.19,89.55 0.08,20.95 7.56,26.06 26.78,17.94 6.55,-2.76 12.65,-6.99 18.34,-11.36 21.75,-16.74 42.04,-35 56.18,-58.97 3.89,-6.61 8.19,-8.79 15.71,-5.46 22.1,9.79 44.92,12.14 68.07,4.03 7.52,-2.64 11.92,-0.65 15.73,6.08 15.35,27.16 36.96,48.43 63.17,65.04 6.46,4.1 12.82,12.15 21.23,7.94 8.52,-4.26 5.72,-14.03 6.12,-21.79 1.6,-30.91 -1.98,-60.85 -15.5,-89.26 -2.97,-6.25 -4.19,-13.96 -4.05,-20.95 0.39,-18.42 2.12,-36.81 3.03,-55.22 0.83,-16.82 1.28,-33.45 -2.17,-50.32 -8.79,-42.96 -36.17,-68.41 -75.22,-83.74 -3.73,-1.47 -7.6,-2.66 -11.5,-3.59 -6.36,-1.51 -9.54,-5.47 -9.92,-11.85 -0.19,-3.2 -0.35,-6.42 -0.38,-9.63 -0.41,-56.32 -20.24,-106.83 -47.21,-154.96 -13.74,-24.51 -28.06,-48.8 -43.83,-72.03 -17.78,-26.22 -21.22,-54.96 -19.1,-85.11 2.55,-36.25 10.23,-71.34 23.89,-105.23 8.69,-21.56 15.29,-43.97 22.87,-65.98 3.4,-9.86 7.05,-19.64 10.36,-29.54 3.62,-10.82 10.77,-17.43 21.93,-20.09 7.8,-1.86 15.59,-3.94 23.12,-6.67 13.45,-4.87 18.1,-13.28 17.76,-30.56 -0.27,-14.09 -4.07,-19.52 -18.85,-24.12 -18.54,-5.77 -37.64,-8.44 -57.09,-6.95 -15.51,1.19 -27.59,7.76 -33.93,22.93 -4.65,11.11 -10.14,21.87 -14.63,33.04 -21.08,52.38 -48.57,101.34 -78.44,149.09 -28.22,45.12 -67.26,79.44 -109.17,111.05 -9.36,7.05 -20.04,10.14 -31.39,11.06 -37.31,3.02 -71.906,15.22 -106.312,29.2 -28.946,11.77 -58.754,21.54 -88.567,30.98 -10.492,3.32 -22.105,4.03 -33.23,4.2 -21.938,0.35 -21.41,-0.34 -29.117,-22.4 -12.36,-35.36 -32.891,-66.14 -56.696,-94.61 -15.441,-18.46 -31.738,-36.38 -49.113,-53.01 -19.426,-18.61 -25.629,-39.2 -18.727,-65.35 5.641,-21.37 14.719,-40.66 26.957,-58.76 7.204,-10.64 14.782,-21.06 21.442,-32.03 5.242,-8.65 3.504,-15 -4.867,-20.47 -3.961,-2.58 -8.516,-5.31 -13.035,-5.79 -16.848,-1.82 -33.696,-1.65 -50.071,3.8 -9.761,3.25 -16.797,9.32 -19.84,19.35 -1.625,5.36 -3.406,10.77 -4.156,16.29 -5.008,36.73 -14.359,72.45 -25.59,107.66 -7.722,24.22 -9.019,48.35 -5.863,73.64 3.664,29.39 5.133,59.16 5.793,88.8 0.371,16.71 -2.203,33.6 -4.555,50.25 -2.164,15.31 -9.304,28.82 -17.64,41.85 -11.68,18.26 -23.325,36.61 -33.641,55.65 -21.074,38.87 -20.633,79.97 -10.355,121.7 0.765,3.12 1.539,6.32 2.957,9.16 8.496,17.01 9.711,32.06 -10.442,41.87 -47.965,50.98 -67.98,109.83 -50.168,179.2 1.793,6.98 4.449,13.74 6.672,20.62 18.016,55.78 58.246,87.26 113.234,100.98 72.29,18.05 141.86,10.4 207.711,-25.69 29.266,-16.04 60.497,-25.78 93.864,-28.15 7.199,-0.51 14.453,-0.39 21.679,-0.38 17.067,0 31.204,6.44 42.399,19.4 5.773,6.68 11.293,13.68 17.707,19.7 22.94,21.54 51.55,15.79 65.09,-12.73 11,-23.18 5.02,-43.96 -9.71,-62.94 -11.68,-15.07 -27.69,-24.11 -45.68,-29.94 -25.474,-8.26 -51.782,-10.86 -78.563,-11.88"
         style="fill:#142335;fill-opacity:1;fill-rule:nonzero;stroke:none"
         id="path50" />
      <path
         d="m 2263.77,2030.12 c 0,-15.26 0.87,-30.59 -0.2,-45.77 -1.72,-24.32 -15.57,-34.24 -39.38,-27.8 -10.6,2.86 -20.85,8.13 -30.3,13.89 -12.33,7.53 -16.61,19.35 -12.11,33.37 3.67,11.46 7.71,22.83 12.23,33.98 4.68,11.54 5.41,23.38 4.3,35.5 -0.57,6.31 -3.8,7.73 -9.81,4.74 -26.58,-13.22 -53.03,-26.69 -79.82,-39.45 -15.44,-7.36 -32,-10.32 -49.22,-9.34 -23.96,1.36 -46.47,27.27 -44.28,50.99 1.02,11.09 7.59,17.91 17.4,20.78 10.72,3.13 21.94,4.55 32.97,6.61 12.6,2.37 25.27,4.41 37.82,7.02 5.04,1.05 6.06,5.28 1.98,8.41 -43.39,33.18 -56.29,80.49 -60.35,131.47 -2.76,34.57 -0.02,68.94 6.99,103.01 9.75,47.35 23.24,93.5 42.37,137.91 7.38,17.14 10.9,34.1 9.96,53.46 -2.24,45.66 -2.07,91.56 7.36,136.72 2.61,12.5 10.22,25.07 9.01,36.94 -1.1,10.72 -12.59,19.95 -16.87,30.87 -6.13,15.59 -11.99,31.84 -14.15,48.31 -3.76,28.65 -4.74,57.74 1.84,86.3 2.15,9.31 0.29,16.7 -4.23,25.01 -18.01,33.13 -27.11,68.42 -24.09,106.55 1.62,20.35 6.6,39.6 15.78,57.7 4.87,9.61 9.79,11.23 19.59,6.06 8.47,-4.47 16.74,-9.64 24.25,-15.57 20.26,-15.97 38.85,-33.85 53.8,-54.93 7.33,-10.34 15.14,-14.22 28.17,-13.19 29.63,2.32 59.53,3.52 88.2,-7.14 8.46,-3.14 13.27,1.72 19.01,6.48 17.9,14.82 35.68,29.91 54.57,43.39 9.62,6.86 21.25,11.3 32.5,15.37 12.31,4.45 18.24,1.47 21.09,-11.72 3.36,-15.61 7.01,-31.86 6.04,-47.55 -2.21,-36.2 -8.28,-71.98 -27.9,-103.67 -5.14,-8.3 -5.07,-16.96 -3.53,-25.59 5.44,-30.41 -1.17,-58.94 -12.45,-86.86 -1.81,-4.47 -3.36,-9.12 -5.78,-13.25 -8.5,-14.5 -7.92,-28.9 -0.43,-43.49 2.93,-5.71 5,-12.01 8.71,-17.13 16.85,-23.21 21.01,-50.07 22.44,-77.52 0.96,-18.43 0.52,-36.96 0.1,-55.43 -0.26,-11.55 2.01,-22.13 7.21,-32.48 15.51,-30.86 31.48,-61.53 45.58,-93.03 12.44,-27.8 22.84,-56.53 33.67,-85.02 4.27,-11.24 6.7,-23.17 10.96,-34.41 12.95,-34.21 12,-69.27 7.09,-104.59 -1.43,-10.32 -3.86,-20.49 -5.62,-30.77 -1.48,-8.6 1.51,-11.95 10.08,-11.83 27.77,0.39 56.72,25.36 59.5,53.72 3.65,37.32 0.92,73.67 -20.58,106.66 -13.57,20.83 -25.46,42.79 -37.7,64.46 -21.08,37.3 -23.32,75.98 -7.96,115.92 14.15,36.81 42.2,55.57 79.91,60.88 10.94,1.54 22.64,1.02 33.53,-1.02 24.25,-4.53 42.89,-17.62 53.34,-40.71 9.77,-21.62 13.77,-44.22 12.45,-68.01 -1,-17.88 -14.12,-26.01 -28.44,-26.65 -14.53,-0.65 -22.4,6.46 -23.26,21.27 -0.32,5.59 0.85,11.3 0.27,16.84 -0.9,8.71 -1.29,17.88 -4.4,25.89 -10.21,26.26 -40.18,30.99 -57.86,8.96 -13.64,-16.98 -19.53,-37.28 -15.7,-58.83 4.22,-23.74 11.04,-46.82 24.45,-67.52 9.16,-14.14 18.29,-28.5 25.48,-43.68 31.17,-65.72 26.55,-129.54 -14.57,-189.39 -16.2,-23.58 -40.56,-36.29 -70.03,-36.36 -13.62,-0.03 -27.24,1.36 -40.86,1.33 -4.32,-0.01 -9.39,-1.51 -12.79,-4.09 -8.9,-6.77 -17.16,-14.41 -25.48,-21.92 -3.16,-2.85 -1.9,-5.95 1.47,-7.43 15.66,-6.88 32.18,-9.86 49.22,-10.17 8.03,-0.14 16.15,0.54 24.08,-0.38 22.22,-2.61 31.15,-20.35 20.72,-40.21 -4.29,-8.17 -10.73,-14.15 -19.21,-17.48 -34.12,-13.37 -69.13,-15.86 -103.55,-3.04 -13.07,4.87 -24.55,15.04 -35.47,24.31 -9.72,8.26 -17.58,18.68 -26.45,27.96 -1.43,1.5 -4.49,3.34 -5.62,2.76 -1.78,-0.93 -3.22,-3.64 -3.66,-5.83 -3.35,-16.94 -2.15,-33.4 4.53,-49.59 4.26,-10.33 8.04,-21 10.55,-31.87 3.64,-15.79 -1.4,-27.06 -15.77,-33.76 -8.51,-3.97 -18.24,-6.5 -27.61,-7.25 -20.61,-1.64 -34.6,7.07 -40.61,26.64 -4.18,13.64 -6.02,28.26 -6.91,42.57 -1.04,16.8 0.13,33.73 0.23,50.6 0.02,3.97 -0.35,7.94 -0.68,11.9 -0.05,0.58 -1.05,1.66 -1.24,1.58 -1.37,-0.53 -3.48,-1.06 -3.79,-2.06 -0.91,-2.99 -1.48,-6.2 -1.51,-9.32 -0.15,-13.66 -0.07,-27.33 -0.07,-40.99 -0.17,0 -0.33,0 -0.5,0"
         style="fill:#142335;fill-opacity:1;fill-rule:nonzero;stroke:none"
         id="path52" />
    </g>
  </g>
</svg>
